<svg viewBox="0 0 1000 1000" xmlns="http://www.w3.org/2000/svg" style="--part-decoration-color: #f8e3b5" stroke="var(--part-decoration-color)" stroke-width="2" preserveAspectRatio="xMidYMid">
    
    <circle cx="500" cy="500" r="440" stroke-dasharray="2563, 202" stroke-dashoffset="1973" fill="none"/>
    <path d="
    M 270 923 H 378 M 280 923 A 40 20 0 0 0 306 910 A 40 20 0 0 0 300 892
    
    M 730 923 H 622 M 720 923 A 40 20 0 0 1 694 910 A 40 20 0 0 1 700 892
    
    M 320 929 H 400 M 600 929 H 680
    " fill="none"/>
    
    <circle cx="270" cy="923" r="2" fill="var(--part-decoration-color)" stoke-width="none" stroke="none"/>
    <circle cx="730" cy="923" r="2" fill="var(--part-decoration-color)" stoke-width="none" stroke="none"/>
    
    <circle cx="60" cy="500" r="4" fill="var(--part-decoration-color)" stoke-width="none" stroke="none"/>
    <circle cx="940" cy="500" r="4" fill="var(--part-decoration-color)" stoke-width="none" stroke="none"/>
    
    
    <!-- INNER -->
    
    <circle cx="500" cy="500" r="432" stroke-dasharray="2512, 204" stroke-dashoffset="1934.75" fill="none" />
    <circle cx="400" cy="920" r="2" fill="var(--part-decoration-color)" stoke-width="none" stroke="none"/>
    <circle cx="600" cy="920" r="2" fill="var(--part-decoration-color)" stoke-width="none" stroke="none"/>
    
    
    <circle cx="101" cy="335" r="2" fill="#f8e3b5" stoke-width="none" stroke="none"/>
    
    <path d="M 101 335 A 150 200 0 0 0 195 143 
             A 470 470 0 0 1 805 143
             A 150 200 0 0 0 899 335" stroke-width="1.5" fill="none"/>
        
    <circle cx="68.5" cy="490" r="2.5" fill="var(--part-decoration-color)" stoke-width="none" stroke="none"/>
    <circle cx="68.5" cy="510" r="2.5" fill="var(--part-decoration-color)" stoke-width="none" stroke="none"/>
    
    <circle cx="931.5" cy="490" r="2.5" fill="var(--part-decoration-color)" stoke-width="none" stroke="none"/>
    <circle cx="931.5" cy="510" r="2.5" fill="var(--part-decoration-color)" stoke-width="none" stroke="none"/>
    
</svg>