<svg viewBox="0 0 484 484" xmlns="http://www.w3.org/2000/svg" fill="none" stroke="#c8c5a0">
	<circle cx="242" cy="242" r="190" stroke-width="2"/>
	<circle cx="242" cy="242" r="183" stroke-width="1" />
	<circle cx="242" cy="242" r="235" stroke-width="1" />
	<path d="M 431.28 258.56 L 482.00 242.00 L 431.28 225.44 M 416.90 316.24 L 470.25 316.16 L 427.13 284.74 M 385.39 366.65 L 436.16 383.07 L 404.86 339.86 M 339.86 404.86 L 383.07 436.16 L 366.65 385.39 M 284.74 427.13 L 316.16 470.25 L 316.24 416.90 M 225.44 431.28 L 242.00 482.00 L 258.56 431.28 M 167.76 416.90 L 167.84 470.25 L 199.26 427.13 M 117.35 385.39 L 100.93 436.16 L 144.14 404.86 M 79.14 339.86 L 47.84 383.07 L 98.61 366.65 M 56.87 284.74 L 13.75 316.16 L 67.10 316.24 M 52.72 225.44 L 2.00 242.00 L 52.72 258.56 M 67.10 167.76 L 13.75 167.84 L 56.87 199.26 M 98.61 117.35 L 47.84 100.93 L 79.14 144.14 M 144.14 79.14 L 100.93 47.84 L 117.35 98.61 M 199.26 56.87 L 167.84 13.75 L 167.76 67.10 M 258.56 52.72 L 242.00 2.00 L 225.44 52.72 M 316.24 67.10 L 316.16 13.75 L 284.74 56.87 M 366.65 98.61 L 383.07 47.84 L 339.86 79.14 M 404.86 144.14 L 436.16 100.93 L 385.39 117.35 M 427.13 199.26 L 470.25 167.84 L 416.90 167.76 " stroke-width="2"/>
	<path d="M 466.78 246.97 L 470.94 264.04 A 30 30 0 0 0 443.20 264.92 A 14 14 0 0 0 457.64 270.39 A 7 7 0 0 0 456.37 258.49 L 437.00 242.00 L 456.37 225.51 A 7 7 0 0 0 457.64 213.61 A 14 14 0 0 0 443.20 219.08 A 30 30 0 0 0 470.94 219.96 L 466.78 237.03M 454.25 316.19 L 452.92 333.71 A 30 30 0 0 0 426.27 325.98 A 14 14 0 0 0 438.31 335.64 A 7 7 0 0 0 440.78 323.93 L 427.46 302.26 L 450.97 292.56 A 7 7 0 0 0 455.86 281.64 A 14 14 0 0 0 440.43 282.37 A 30 30 0 0 0 466.55 291.78 L 457.32 306.74M 420.93 378.14 L 414.26 394.40 A 30 30 0 0 0 391.30 378.81 A 14 14 0 0 0 399.77 391.72 A 7 7 0 0 0 405.73 381.35 L 399.76 356.62 L 425.12 354.66 A 7 7 0 0 0 433.14 345.78 A 14 14 0 0 0 418.25 341.72 A 30 30 0 0 0 440.17 358.73 L 426.77 370.11M 370.11 426.77 L 358.73 440.17 A 30 30 0 0 0 341.72 418.25 A 14 14 0 0 0 345.78 433.14 A 7 7 0 0 0 354.66 425.12 L 356.62 399.76 L 381.35 405.73 A 7 7 0 0 0 391.72 399.77 A 14 14 0 0 0 378.81 391.30 A 30 30 0 0 0 394.40 414.26 L 378.14 420.93M 306.74 457.32 L 291.78 466.55 A 30 30 0 0 0 282.37 440.43 A 14 14 0 0 0 281.64 455.86 A 7 7 0 0 0 292.56 450.97 L 302.26 427.46 L 323.93 440.78 A 7 7 0 0 0 335.64 438.31 A 14 14 0 0 0 325.98 426.27 A 30 30 0 0 0 333.71 452.92 L 316.19 454.25M 237.03 466.78 L 219.96 470.94 A 30 30 0 0 0 219.08 443.20 A 14 14 0 0 0 213.61 457.64 A 7 7 0 0 0 225.51 456.37 L 242.00 437.00 L 258.49 456.37 A 7 7 0 0 0 270.39 457.64 A 14 14 0 0 0 264.92 443.20 A 30 30 0 0 0 264.04 470.94 L 246.97 466.78M 167.81 454.25 L 150.29 452.92 A 30 30 0 0 0 158.02 426.27 A 14 14 0 0 0 148.36 438.31 A 7 7 0 0 0 160.07 440.78 L 181.74 427.46 L 191.44 450.97 A 7 7 0 0 0 202.36 455.86 A 14 14 0 0 0 201.63 440.43 A 30 30 0 0 0 192.22 466.55 L 177.26 457.32M 105.86 420.93 L 89.60 414.26 A 30 30 0 0 0 105.19 391.30 A 14 14 0 0 0 92.28 399.77 A 7 7 0 0 0 102.65 405.73 L 127.38 399.76 L 129.34 425.12 A 7 7 0 0 0 138.22 433.14 A 14 14 0 0 0 142.28 418.25 A 30 30 0 0 0 125.27 440.17 L 113.89 426.77M 57.23 370.11 L 43.83 358.73 A 30 30 0 0 0 65.75 341.72 A 14 14 0 0 0 50.86 345.78 A 7 7 0 0 0 58.88 354.66 L 84.24 356.62 L 78.27 381.35 A 7 7 0 0 0 84.23 391.72 A 14 14 0 0 0 92.70 378.81 A 30 30 0 0 0 69.74 394.40 L 63.07 378.14M 26.68 306.74 L 17.45 291.78 A 30 30 0 0 0 43.57 282.37 A 14 14 0 0 0 28.14 281.64 A 7 7 0 0 0 33.03 292.56 L 56.54 302.26 L 43.22 323.93 A 7 7 0 0 0 45.69 335.64 A 14 14 0 0 0 57.73 325.98 A 30 30 0 0 0 31.08 333.71 L 29.75 316.19M 17.22 237.03 L 13.06 219.96 A 30 30 0 0 0 40.80 219.08 A 14 14 0 0 0 26.36 213.61 A 7 7 0 0 0 27.63 225.51 L 47.00 242.00 L 27.63 258.49 A 7 7 0 0 0 26.36 270.39 A 14 14 0 0 0 40.80 264.92 A 30 30 0 0 0 13.06 264.04 L 17.22 246.97M 29.75 167.81 L 31.08 150.29 A 30 30 0 0 0 57.73 158.02 A 14 14 0 0 0 45.69 148.36 A 7 7 0 0 0 43.22 160.07 L 56.54 181.74 L 33.03 191.44 A 7 7 0 0 0 28.14 202.36 A 14 14 0 0 0 43.57 201.63 A 30 30 0 0 0 17.45 192.22 L 26.68 177.26M 63.07 105.86 L 69.74 89.60 A 30 30 0 0 0 92.70 105.19 A 14 14 0 0 0 84.23 92.28 A 7 7 0 0 0 78.27 102.65 L 84.24 127.38 L 58.88 129.34 A 7 7 0 0 0 50.86 138.22 A 14 14 0 0 0 65.75 142.28 A 30 30 0 0 0 43.83 125.27 L 57.23 113.89M 113.89 57.23 L 125.27 43.83 A 30 30 0 0 0 142.28 65.75 A 14 14 0 0 0 138.22 50.86 A 7 7 0 0 0 129.34 58.88 L 127.38 84.24 L 102.65 78.27 A 7 7 0 0 0 92.28 84.23 A 14 14 0 0 0 105.19 92.70 A 30 30 0 0 0 89.60 69.74 L 105.86 63.07M 177.26 26.68 L 192.22 17.45 A 30 30 0 0 0 201.63 43.57 A 14 14 0 0 0 202.36 28.14 A 7 7 0 0 0 191.44 33.03 L 181.74 56.54 L 160.07 43.22 A 7 7 0 0 0 148.36 45.69 A 14 14 0 0 0 158.02 57.73 A 30 30 0 0 0 150.29 31.08 L 167.81 29.75M 246.97 17.22 L 264.04 13.06 A 30 30 0 0 0 264.92 40.80 A 14 14 0 0 0 270.39 26.36 A 7 7 0 0 0 258.49 27.63 L 242.00 47.00 L 225.51 27.63 A 7 7 0 0 0 213.61 26.36 A 14 14 0 0 0 219.08 40.80 A 30 30 0 0 0 219.96 13.06 L 237.03 17.22M 316.19 29.75 L 333.71 31.08 A 30 30 0 0 0 325.98 57.73 A 14 14 0 0 0 335.64 45.69 A 7 7 0 0 0 323.93 43.22 L 302.26 56.54 L 292.56 33.03 A 7 7 0 0 0 281.64 28.14 A 14 14 0 0 0 282.37 43.57 A 30 30 0 0 0 291.78 17.45 L 306.74 26.68M 378.14 63.07 L 394.40 69.74 A 30 30 0 0 0 378.81 92.70 A 14 14 0 0 0 391.72 84.23 A 7 7 0 0 0 381.35 78.27 L 356.62 84.24 L 354.66 58.88 A 7 7 0 0 0 345.78 50.86 A 14 14 0 0 0 341.72 65.75 A 30 30 0 0 0 358.73 43.83 L 370.11 57.23M 426.77 113.89 L 440.17 125.27 A 30 30 0 0 0 418.25 142.28 A 14 14 0 0 0 433.14 138.22 A 7 7 0 0 0 425.12 129.34 L 399.76 127.38 L 405.73 102.65 A 7 7 0 0 0 399.77 92.28 A 14 14 0 0 0 391.30 105.19 A 30 30 0 0 0 414.26 89.60 L 420.93 105.86M 457.32 177.26 L 466.55 192.22 A 30 30 0 0 0 440.43 201.63 A 14 14 0 0 0 455.86 202.36 A 7 7 0 0 0 450.97 191.44 L 427.46 181.74 L 440.78 160.07 A 7 7 0 0 0 438.31 148.36 A 14 14 0 0 0 426.27 158.02 A 30 30 0 0 0 452.92 150.29 L 454.25 167.81" stroke-width="1.5"/>
</svg>