<svg xmlns="http://www.w3.org/2000/svg" xmlns:xlink="http://www.w3.org/1999/xlink" width="1405.884" height="2103.77" viewBox="0 0 1405.884 2103.77">
  <defs>
    <linearGradient id="a" data-name="New Gradient Swatch 1" x1="359.736" y1="1562.248" x2="288.435" y2="-56.704" gradientUnits="userSpaceOnUse">
      <stop offset="0" stop-color="#8b1d1a"/>
      <stop offset="0.25" stop-color="#500"/>
      <stop offset="0.5" stop-color="#3a0000"/>
      <stop offset="0.75" stop-color="#1e0000"/>
      <stop offset="1"/>
    </linearGradient>
    <linearGradient id="b" x1="794.623" y1="1543.095" x2="723.322" y2="-75.857" xlink:href="#a"/>
  </defs>
  <title>A</title>
  <g>
    <path d="M505.359,1783.537v-.01c-1.76-73.29-16.4-165.98-67.83-247.24-12.73-20.12-38.39-59.87-86.1-97.1a357.352,357.352,0,0,0-77.96-46.15c42.52-16.96,83.52-43.65,109.1-85.75,17.83-29.34,26.28-63.05,36.64-104.42,13.28-53,15.75-96.51,20.15-181.37.85-16.3,1.63-31.3,2.3-45.26.78-16.3,1.42-20.16,1.85-34h-68.62a69.11,69.11,0,0,0-60.53,35.19c-.94,1.68-1.72,3.27-2.36,4.74-2.8,6.47-2.75,8.76-8.99,27.78-2.7,8.26-8.86,27.04-13.07,36.77-.86,1.98-16.3,36.58-44.93,50.65-13.6,6.68-29.39,8.34-45.64,5.7a66.376,66.376,0,0,0,13.78-29.39c1.15-6.11,4.63-24.42-4.91-39.22-17.26-26.79-66.11-24.94-97.22-12.25-7.91,3.22-36.56,14.9-48.2,40.85-12.63,28.14-9.01,63.48,28.77,95.57a37.273,37.273,0,0,1-20.02,5.14c-6.98-.34-13.67-2.93-19.81-6.24-34.64-18.7-53.65-70.51-51.61-109.83,2.34-45.33,28.19-110.52,65.89-136.34,37.73-25.83,85.19-28.09,129.31-30.84,48.88-3.05,97.97-3.59,146.92-2.58h101.85c-.06-15.77-.59-16.48-1.7-31-1.05-13.8-2.65-27.43-4.89-41.62-1.88-11.91-6.09-36.25-10.99-73.28-7.57-57.16-11.31-86.26-9.16-111.75,4.3-51.05,24.27-89.33,32.98-104.43,41.75-72.36,107.76-102.3,131.9-111.75A266.3,266.3,0,0,1,645.469,388v49.97a73.581,73.581,0,0,0-21.07,17.44c-12.32,14.98-15.16,31.21-18.32,51.29-16.74,106.33-16.49,128.24-16.49,128.24.79,70.66-.32,141.35.64,212q.3,22.5.93,45c.08,2.88.17,5.77.26,8.65.3,9.48.54,19.61.72,30.65.21,13.46.33,28.29.38,45,.14,49.34-.37,115.03-1.1,210.14-.85,111.2-2.4,178.05-7.33,258.31-3.95,64.41-5.92,96.61-10.99,128.24-9.22,57.6-28.05,129.78-67.74,210.6Z" transform="translate(0 0)" fill="url(#a)"/>
    <path d="M645.469,941.237h313.09c.03,2.81.36,32.74.48,45,.61,57.49,1.13,106.15,1.13,163.89v254.79c0,3.96.03,7.91.05,11.87.06,8.04.11,16.36-.06,24.67-2.38,117.85-2.73,254.23,23.52,381.37,11.75,56.99,27.46,101.76,48.83,138.7,8.18-73.23,24.44-156.86,62.02-234.09,39.86-81.92,101.68-143.3,175.36-178.91-44.66-18.76-93.31-49.99-119.82-101.91-16.23-31.78-21.41-65.92-31.45-132.11-7.42-48.88-9.12-88.05-10.49-121.63-2.26-55.7-3.45-89.37-2.67-134.22.882-50.98.167-72.42,0-105.417-.02-3.973.124-6.018,0-12.076,5.673-.708,10.007-1.009,19.357-2.493,10.977-1.741,23.371-3.784,25.4-4.145,14.449-2.57,28.588-6.685,42.609-11.021a553.848,553.848,0,0,0,81.579-32.893c26-12.849,51.954-25.833,74.973-43.671,8.373-6.489,16.9-14.374,18.523-24.842a23.276,23.276,0,0,0-10.89-23.019c-12.153-7.175-24.05.314-34.863,6.15-13.48,7.274-26.4,15.544-40.157,22.311a556.107,556.107,0,0,1-66.84,27.636c-36.18,12.27-72.77,18.94-109.69,22.54-1.41-34.98-2.2-57.98.57-112.65,3.19-62.73,4.78-94.09,12.59-138.41,13.15-74.66,30.05-170.6,100.66-257.94a407.751,407.751,0,0,1,70.15-67.98c-85.96-20.61-153.61-44.72-198.08-66.23-62.52-30.26-119.53-67.11-119.53-67.11-36.64-23.68-47.25-33.67-75.5-52.43-17.35-11.52-77.32-50.23-153.08-77.59C619.059-7.463,511.619-.433,485.3,1.727a594.446,594.446,0,0,0-163.58,37.75c-43.52,16.79-77.93,30.44-113.24,62.91-21.54,19.81-62.73,57.68-73.4,121.63-10.58,63.48,15.56,112.72,23.07,125.83,29.29,51.12,73.21,72.73,92.27,81.78,20.43,9.7,74.85,35.55,140.51,16.78,13.75-3.93,69.55-21.7,102.75-77.59,10.07-16.95,37.74-63.53,18.88-113.24a105.85,105.85,0,0,0-25.09-37.91,114.855,114.855,0,0,1-21,54.15c-33.87,46.54-102.75,62.37-153.55,35.28-24.65-13.15-44.07-35.68-54.68-63.43s-11.17-57.49-1.57-83.73c17.78-48.64,65.25-83.95,141.09-104.94,105.77-29.3,209.51-29.84,300.01-1.58a402.707,402.707,0,0,1,135.36,73.02c41.76,34.5,73.55,75.38,94.51,121.5,35.07,77.21,36.81,161.03,33.87,232.84-4.91,120.39-4.85,229.3-3.8,350.16q.2,22.545.43,45H645.469Z" transform="translate(0 0)" fill="url(#b)"/>
  </g>
  <g>
    <path d="M513.578,682.416c73.679,52.828-49.6,116.912-61.489,28.09.212-15.163,7.464-28.769,19.106-41.571,128.378-115.961-49.257-119.208,14.923-59.949-27.79-2.279-30.98-47.721,1.664-54.448,54.4-9.98,68.664,57.611,40.112,94.4-13.287,21.861-36.576,32.434-48.72,56.293C470.963,760.323,559.978,733.063,513.578,682.416Z" transform="translate(0 0)" fill="#bfcbc2"/>
    <path d="M555.816,589.248c-4.65-41.306-41.117-68.278-77.119-66.392C519.87,496.416,576.839,539.436,555.816,589.248Z" transform="translate(0 0)" fill="#bfcbc2"/>
    <path d="M580.646,563.342c-6.065-33.2-34.687-66.687-68.7-76.959C554.114,475.286,596.7,522.486,580.646,563.342Z" transform="translate(0 0)" fill="#bfcbc2"/>
    <path d="M517.754,1126.646c-92.132-116.4,21.659-204.407,22.439-247.492,5.98-65.758-71.571-57.729-65.8,38.607-40.157-118.4,94.043-142.978,97.221-40.884C565.883,959.518,461.613,998.819,517.754,1126.646Z" transform="translate(0 0)" fill="#bfcbc2"/>
    <path d="M69.414,1013.339c-29.385-50.474,28.671-100.605,77.227-73.1,34.082,23.924,44.136,72.783,96.331,41.417,44.546-37.758-21.927-81.315-30.209-30.357-7.767-32.877,36.416-45.455,55.7-18.607,24.364,32.425-5.41,78.924-43.1,84.05-66.742,6.667-63.741-32.827-91.72-56.457C96.25,936.641,58,973.391,69.414,1013.339Z" transform="translate(0 0)" fill="#bfcbc2"/>
    <path d="M972.033,392.388c-17.558,78.288,109.482,64.539,135.647,12.185,42.295-71.857-56.132-123.361-82.074-50.938,13.87-102.724,161.771-35.935,109.259,62.27C1083.8,507.259,929.3,471.88,972.033,392.388Z" transform="translate(0 0)" fill="#bfcbc2"/>
    <path d="M1090.084,637.032c-46.765,77.924-140.289-4.455-44.06-87.123,7.641-8.106,15.288-17.275,20.142-29.226,18.171-47.458-61.041-68.729-65.939-4.569-15.614-68.705,93.458-79.03,92.731-1.784-4.467,46.4-44.55,60.3-63.6,95.943C1007.755,657.686,1063.261,669.648,1090.084,637.032Z" transform="translate(0 0)" fill="#bfcbc2"/>
    <path d="M1048.15,372.359c1.852-29.631,42.077-26.652,42.718,0C1089.016,401.989,1048.791,399.01,1048.15,372.359Z" transform="translate(0 0)" fill="#bfcbc2"/>
    <path d="M1181.083,354.808c-13.737-61.168-83.955-97.575-140.633-64.016-48.051,25.864-68.153,107.8-9.294,127.869C954.552,410.6,968,303.952,1023.018,271,1091.68,224.62,1184.031,274.468,1181.083,354.808Z" transform="translate(0 0)" fill="#bfcbc2"/>
    <path d="M951.788,209.667c41.746,13,18.952,41.94,43.382,57.924,19.933,3.077,29.915-38.047,2.4-26.534,7.7-12.271,28.825-.319,22.878,17.5-14.976,31.752-46.308,26.667-49.263-25.813A42.626,42.626,0,0,0,951.788,209.667Z" transform="translate(0 0)" fill="#bfcbc2"/>
    <path d="M294.555,340.7c80.459,22.2,1.361,125.733-48.087,58.685-14.256-22.436-3.829-48.816-3.019-74.089-2.475-50.665-77.722-18.488-38.445,24.76-74.342-58.339,85.133-123.539,58.436,13.174C260.917,442.876,361.824,377.923,294.555,340.7Z" transform="translate(0 0)" fill="#bfcbc2"/>
    <path d="M195.521,224.918c40.026-17.4,48.279,43.212,14.817,58.194-43.743,24.781-79.465-28.6-47.365-46.767-.1.466-.639,2.908-.929,4.231,0,0-.079-1.23-.22-3.436l.728.448c-20.645,22.3,14.6,52.541,42.858,34.09C231.625,258.15,226.643,218.585,195.521,224.918Z" transform="translate(0 0)" fill="#bfcbc2"/>
    <path d="M232.143,198.737c-48.043-53.864-97.4,52.432-42.3,53.138C113.8,258.849,185.565,120.912,232.143,198.737Z" transform="translate(0 0)" fill="#bfcbc2"/>
    <path d="M452.221,334.109c5.035,26.792-6.974,66.426-43.74,54.154-13.186-4.566-23.255-18.484-38.58-20.6-33.805.729-34.628,43.391-6.625,56.991-37.838-8.138-41.693-61.58.844-71.382C398.678,344.582,433.511,425.283,452.221,334.109Z" transform="translate(0 0)" fill="#bfcbc2"/>
    <path d="M582.094,747.234c-20.081,55.511-98.315,70.821-136.924,21.569C488.2,786.112,544.67,778.637,582.094,747.234Z" transform="translate(0 0)" fill="#bfcbc2"/>
    <path d="M1034.792,979.983c8.491-36.744,7.249-75.585-7.891-113.911-145.914-230.344,130.925-209.459,19.983-84.776,44.1-77.354-30.979-97.24-36.179-32.72-.624,30.8,16.59,54.532,28.67,82.394C1061.517,879.728,1060.872,932.968,1034.792,979.983Z" transform="translate(0 0)" fill="#bfcbc2"/>
  </g>
  <g>
    <path d="M594.416,436.935c-16.2,21.65-19.753,44.251-22.911,64.319-16.368,103.967-16.961,129.933-16.914,134.074.376,33.592.318,67.868.262,101.014-.061,36.364-.125,73.966.379,111.063.213,16,.521,30.891.94,45.5q.123,4.38.265,8.785c.3,9.481.531,19.331.706,30.089.2,12.945.325,27.52.376,44.553.138,48.614-.371,114.9-1.075,206.649l-.024,3.124c-.8,104.653-2.143,173.047-7.266,256.436l-.017.289c-3.865,63.025-5.8,94.66-10.6,124.561a678.348,678.348,0,0,1-16.971,76.87c-12.272-46.42-30.457-88.763-54.462-126.692-12.159-19.218-40.634-64.222-94.154-105.986q-12.356-9.635-25.5-18.273c27.286-18.863,49.049-41.548,65.03-67.851,20.6-33.893,29.905-71.06,40.681-114.089,14.376-57.376,16.782-103.8,21.152-188.054.753-14.456,1.608-30.841,2.307-45.41.328-6.85.622-11.277.906-15.558.363-5.483.707-10.663.967-19.028l1.121-36.087h-.382l-.112-29.433a238.629,238.629,0,0,0-1.082-24.871c-.209-2.378-.445-5.072-.719-8.651-1.124-14.772-2.83-29.3-5.217-44.423q-.528-3.345-1.286-7.973c-2.112-12.986-5.646-34.72-9.579-64.444-7.528-56.845-10.781-82.875-8.981-104.217,3.486-41.374,19.3-74.072,28.42-89.877,33.414-57.913,85.352-85.2,113.741-96.413M298.442,912.473c13.654,0,27.881.148,42.3.44a103.413,103.413,0,0,0-56.931,47.427c-1.449,2.591-2.763,5.234-3.9,7.856l-.015.035-.015.035a112.258,112.258,0,0,0-4.973,14.256c-1.049,3.541-2.487,8.39-5.164,16.551-2.044,6.253-8.261,25.273-11.9,33.683a93.442,93.442,0,0,1-8.824,14.935,75.1,75.1,0,0,0-11.359-32.19c-15.47-24.012-44.01-37.236-80.361-37.236A161.179,161.179,0,0,0,97.823,989.79c-28.424,11.571-49.108,27.962-61.645,48.811a196.45,196.45,0,0,1,15.511-51.889c9.712-21.336,22.151-38.276,34.122-46.475,28.7-19.65,69.006-22.144,107.983-24.556l3.735-.232c32.1-2,65.107-2.976,100.913-2.976M645.469,388a266.3,266.3,0,0,0-63.21,16.11c-24.14,9.45-90.15,39.39-131.9,111.75-8.71,15.1-28.68,53.38-32.98,104.43-2.15,25.49,1.59,54.59,9.16,111.75,4.9,37.03,9.11,61.37,10.99,73.28,2.24,14.19,3.84,27.82,4.89,41.62,1.11,14.52,1.64,15.23,1.7,31H342.269q-21.9-.452-43.827-.465c-34.386,0-68.793.9-103.093,3.045-44.12,2.75-91.58,5.01-129.31,30.84-37.7,25.82-63.55,91.01-65.89,136.34-2.04,39.32,16.97,91.13,51.61,109.83,6.14,3.31,12.83,5.9,19.81,6.24q.754.036,1.506.035a37.8,37.8,0,0,0,18.514-5.175c-37.78-32.09-41.4-67.43-28.77-95.57,11.64-25.95,40.29-37.63,48.2-40.85a126.874,126.874,0,0,1,46.281-8.942c21.144,0,41.136,5.977,50.939,21.192,9.54,14.8,6.06,33.11,4.91,39.22a66.376,66.376,0,0,1-13.78,29.39,89.99,89.99,0,0,0,14.429,1.195,70.354,70.354,0,0,0,31.211-6.895c28.63-14.07,44.07-48.67,44.93-50.65,4.21-9.73,10.37-28.51,13.07-36.77,6.24-19.02,6.19-21.31,8.99-27.78.64-1.47,1.42-3.06,2.36-4.74a69.11,69.11,0,0,1,60.53-35.19h68.62c-.43,13.84-1.07,17.7-1.85,34-.67,13.96-1.45,28.96-2.3,45.26-4.4,84.86-6.87,128.37-20.15,181.37-10.36,41.37-18.81,75.08-36.64,104.42-25.58,42.1-66.58,68.79-109.1,85.75a357.352,357.352,0,0,1,77.96,46.15c47.71,37.23,73.37,76.98,86.1,97.1,51.43,81.26,66.07,173.95,67.83,247.24,39.69-80.82,58.52-153,67.74-210.6,5.07-31.63,7.04-63.83,10.99-128.24,4.93-80.26,6.48-147.11,7.33-258.31.73-95.11,1.24-160.8,1.1-210.14-.05-16.71-.17-31.54-.38-45-.18-11.04-.42-21.17-.72-30.65-.09-2.88-.18-5.77-.26-8.65q-.645-22.5-.93-45c-.96-70.65.15-141.34-.64-212,0,0-.25-21.91,16.49-128.24,3.16-20.08,6-36.31,18.32-51.29a73.581,73.581,0,0,1,21.07-17.44V388Zm-140.11,1395.53v0Z" transform="translate(0 0)" fill="#ffb400"/>
    <path d="M235.138,125.469A159.942,159.942,0,0,0,223.8,149.911c-12.5,34.161-11.879,72.606,1.747,108.256s38.8,64.689,70.9,81.813a151.2,151.2,0,0,0,70.963,17.353c44.215,0,85.835-17.63,114.821-47.931-3.9,18.725-13.4,34.7-18.646,43.54-24.731,41.633-65.778,57.1-82.279,61.813a138.008,138.008,0,0,1-37.936,5.314c-35.693,0-64.222-13.545-77.942-20.059-15.7-7.456-52.479-24.918-76.912-67.56-8.392-14.649-27.033-53.978-18.917-102.673C178.29,177.7,212.01,146.691,232.17,128.15q1.487-1.367,2.968-2.681m693.218,54.984c6.892,4.774,14.794,10.089,24.463,16.338,2.4,1.553,59.554,38.375,123.289,69.224,37.658,18.215,86.518,36.111,141.394,51.952q-13.4,13.865-25.441,28.746c-76.3,94.373-94.569,198.12-107.911,273.87-8.179,46.415-9.813,78.542-13.068,142.546l-.008.167c-2.791,55.084-2.081,78.748-.587,115.831l1.249,30.977-1.913.238.643,31.537c.066,3.23.044,4.971.019,6.987-.016,1.3-.035,2.767-.026,4.551.044,8.662.126,16.6.2,24.275.229,22.166.444,43.1-.2,80.357-.809,46.546.5,82.1,2.694,136.255,1.341,32.859,3.009,73.755,10.857,125.452,10.362,68.311,16.07,105.941,34.882,142.777,17.578,34.426,44.281,63.71,79.719,87.515-56.783,40.119-103.031,95.224-135.559,162.075-17.209,35.365-31.245,74.042-42.283,116.682q-1.449-6.413-2.818-13.055c-25.509-123.552-25.146-257.62-22.8-373.579.173-8.5.131-16.94.067-25.561l-.017-2.948c-.016-2.915-.033-5.827-.033-8.745v-254.79c0-57.551-.519-106.484-1.12-163.143l-.012-1.089c-.1-10.034-.337-31.891-.437-41.068l-.043-3.964-.3-27.926h.233l-.355-35.351q-.225-22.416-.429-44.953c-1.132-130.267-.895-233.993,3.772-348.424,3.107-75.909,1.145-164.823-36.977-248.753a357.74,357.74,0,0,0-31.147-55M528.941,0C508.286,0,493.169,1.081,485.3,1.727a594.446,594.446,0,0,0-163.58,37.75c-43.52,16.79-77.93,30.44-113.24,62.91-21.54,19.81-62.73,57.68-73.4,121.63-10.58,63.48,15.56,112.72,23.07,125.83,29.29,51.12,73.21,72.73,92.27,81.78,15.231,7.232,49.365,23.442,92.954,23.442a172.315,172.315,0,0,0,47.556-6.662c13.75-3.93,69.55-21.7,102.75-77.59,10.07-16.95,37.74-63.53,18.88-113.24a105.85,105.85,0,0,0-25.09-37.91,114.855,114.855,0,0,1-21,54.15c-22.651,31.124-60.968,48.516-99.056,48.516A115.66,115.66,0,0,1,312.919,309.1c-24.65-13.15-44.07-35.68-54.68-63.43s-11.17-57.49-1.57-83.73c17.78-48.64,65.25-83.95,141.09-104.94,53.853-14.918,107.2-22.381,158.517-22.382,49.476,0,97.072,6.931,141.493,20.8a402.707,402.707,0,0,1,135.36,73.02c41.76,34.5,73.55,75.38,94.51,121.5,35.07,77.21,36.81,161.03,33.87,232.84-4.91,120.39-4.85,229.3-3.8,350.16q.2,22.545.43,45H645.469v63.3h313.09c.03,2.81.36,32.74.48,45,.61,57.49,1.13,106.15,1.13,163.89v254.79c0,3.96.03,7.91.05,11.87.06,8.04.11,16.36-.06,24.67-2.38,117.85-2.73,254.23,23.52,381.37,11.75,56.99,27.46,101.76,48.83,138.7,8.18-73.23,24.44-156.86,62.02-234.09,39.86-81.92,101.68-143.3,175.36-178.91-44.66-18.76-93.31-49.99-119.82-101.91-16.23-31.78-21.41-65.92-31.45-132.11-7.42-48.88-9.12-88.05-10.49-121.63-2.26-55.7-3.45-89.37-2.67-134.22.882-50.98.167-72.42,0-105.417-.02-3.973.124-6.018,0-12.076,5.672-.708,10.007-1.009,19.357-2.493,10.977-1.741,23.371-3.785,25.4-4.145,14.45-2.57,28.589-6.685,42.61-11.021a553.848,553.848,0,0,0,81.579-32.893c26-12.849,51.954-25.833,74.973-43.671,8.373-6.489,16.9-14.375,18.523-24.842a23.276,23.276,0,0,0-10.89-23.019,20.364,20.364,0,0,0-10.565-2.941c-8.447,0-16.644,4.96-24.3,9.091-13.48,7.274-26.4,15.544-40.157,22.311a556.174,556.174,0,0,1-66.84,27.636c-36.18,12.27-72.77,18.94-109.69,22.54-1.41-34.98-2.2-57.98.57-112.65,3.19-62.73,4.78-94.09,12.59-138.41,13.15-74.66,30.05-170.6,100.66-257.94a407.751,407.751,0,0,1,70.15-67.98c-85.96-20.61-153.61-44.72-198.08-66.23-62.52-30.26-119.53-67.11-119.53-67.11-36.64-23.68-47.25-33.67-75.5-52.43-17.35-11.52-77.32-50.23-153.08-77.59C656.19,5.945,577.362,0,528.941,0Z" transform="translate(0 0)" fill="#ffb400"/>
  </g>
  <g>
    <g>
      <path d="M645.465,299.241a29.15,29.15,0,1,1,29.149-29.15A29.183,29.183,0,0,1,645.465,299.241Z" transform="translate(0 0)" fill="#480000"/>
      <path d="M645.464,247.441a22.65,22.65,0,1,1-22.649,22.65,22.675,22.675,0,0,1,22.649-22.65m0-13a35.65,35.65,0,1,0,35.65,35.65,35.65,35.65,0,0,0-35.65-35.65Z" transform="translate(0 0)" fill="#480000"/>
    </g>
    <g>
      <path d="M645.465,1984.967a29.15,29.15,0,1,1,29.149-29.149A29.182,29.182,0,0,1,645.465,1984.967Z" transform="translate(0 0)" fill="#480000"/>
      <path d="M645.464,1933.168a22.65,22.65,0,1,1-22.649,22.65,22.675,22.675,0,0,1,22.649-22.65m0-13a35.65,35.65,0,1,0,35.65,35.65,35.65,35.65,0,0,0-35.65-35.65Z" transform="translate(0 0)" fill="#480000"/>
    </g>
    <g>
      <rect x="640.969" y="276.587" width="9" height="1672.73" fill="#480000"/>
      <polygon points="656.469 270.087 634.469 270.087 634.469 1955.817 656.469 1955.817 656.469 270.087 656.469 270.087" fill="#480000"/>
    </g>
    <g>
      <path d="M1029.61,2041.434a302.046,302.046,0,0,1-24.75-31.135c-32.111-46.334-54.245-102.724-69.658-177.463-27.283-132.106-26.968-271.807-24.532-392.38.155-7.446.114-14.973.049-23.334l-.015-2.826c-.017-3.134-.035-6.254-.035-9.379V1150.126c0-55.607-.493-102.894-1.015-152.957l-.068-6.432H645.469a4.5,4.5,0,0,1,0-9H918.493l.109,10.538c.573,54.784,1.067,102.1,1.067,157.851v254.791c0,2.955.016,5.9.033,8.854l.017,3.3c.066,8.436.107,16.022-.051,23.573-2.425,120.088-2.745,259.189,24.348,390.377,15.16,73.511,36.845,128.852,68.241,174.156a293.13,293.13,0,0,0,24.011,30.2l28.328,31.144,2.944-41.99c5.7-81.08,18.058-186.09,63.318-279.2l.094-.2a131.324,131.324,0,0,1,16.683-27.768c21.867-27.846,54.588-46.06,94.625-52.671a202.882,202.882,0,0,1,34.234-3.3c26.984,0,50.912,7.252,71.118,21.557,5.78,4.091,56.331,41.748,51.438,103.135a120.865,120.865,0,0,1-9.056,34.56c-9.676,22.952-25.489,40.968-45.728,52.1-6.36,3.5-29.2,14.912-56.049,14.913-18.805,0-34.555-5.72-46.815-17-22.252-20.479-34.041-58.243-15.253-85.992,11.309-16.7,31.415-26.67,53.782-26.67a78.125,78.125,0,0,1,14.934,1.458,4.5,4.5,0,0,1-.844,8.92,4.621,4.621,0,0,1-.873-.086,67.435,67.435,0,0,0-12.894-1.253c-19.6,0-37.037,8.477-46.652,22.678-17.512,25.861-2.061,59.638,13.894,74.324,10.511,9.672,24.247,14.575,40.827,14.575,19.617,0,39.521-7.1,51.607-13.751,45.281-24.9,49.972-77.268,50.149-79.484,4.5-56.438-42.314-91.289-47.667-95.078-18.681-13.224-40.818-19.93-65.793-19.93a196.431,196.431,0,0,0-32.882,3.206c-37.79,6.241-68.571,23.306-89.024,49.351a122.371,122.371,0,0,0-15.587,25.977l-.119.258c-44.631,91.75-56.839,195.694-62.49,276.01l-4.415,62.986Z" transform="translate(0 0)" fill="#480000"/>
      <path d="M924.925,975.237H645.469a11,11,0,0,0,0,22H903.154c.55,52.77,1.015,98.931,1.015,152.889v254.791c0,3.14.018,6.275.035,9.413l.015,2.841c.065,8.329.1,15.822-.048,23.153-2.443,120.927-2.754,261.061,24.664,393.825,15.6,75.626,38.057,132.775,70.682,179.851a308.566,308.566,0,0,0,25.284,31.808l52.722,57.962,5.478-78.15c5.612-79.746,17.716-182.921,61.879-273.68l.167-.36a115.777,115.777,0,0,1,14.779-24.646c19.432-24.746,48.811-40.981,84.959-46.951a189.379,189.379,0,0,1,31.834-3.121c18.653,0,40.99,3.836,62.039,18.736,5.043,3.569,49.153,36.4,44.942,89.253-.166,2.073-4.532,51.061-46.8,74.308-10.846,5.966-29.692,12.946-48.475,12.946-13.08,0-26.13-3.386-36.423-12.858-14.295-13.157-28.285-43.2-12.915-65.9,8.477-12.518,24.2-19.822,41.27-19.822a60.783,60.783,0,0,1,11.641,1.131,11,11,0,0,0,4.215-21.592,84.468,84.468,0,0,0-16.179-1.579c-24.265,0-46.452,10.755-59.164,29.526-20.754,30.652-8.044,72.077,16.233,94.42,15.011,13.815,33.3,18.72,51.217,18.72,22.913,0,45.2-8.03,59.182-15.718,21.533-11.843,38.334-30.954,48.585-55.269a128.035,128.035,0,0,0,9.546-36.569c5.178-64.977-48.075-104.647-54.162-108.957-25.726-18.21-52.89-22.751-74.873-22.751a209.244,209.244,0,0,0-35.294,3.387c-41.668,6.881-75.79,25.924-98.678,55.069a137.833,137.833,0,0,0-17.511,29.144c-45.747,94.112-58.209,199.91-63.956,281.588l-1.881,26.825-18.1-19.9a286.638,286.638,0,0,1-23.477-29.534c-30.881-44.56-52.24-99.139-67.219-171.768-26.957-130.533-26.633-269.2-24.214-388.928.159-7.615.118-15.272.052-23.744l-.016-2.823c-.016-3.1-.034-6.191-.034-9.291V1150.126c0-55.7-.494-103.07-1.067-157.918l-.177-16.971Z" transform="translate(0 0)" fill="#480000"/>
    </g>
    <path d="M629.469,406.843v22.308a87.626,87.626,0,0,0-17.427,16.093c-15.444,18.778-18.659,39.208-21.768,58.965C573.8,608.845,573.563,632.74,573.59,635.116c.377,33.714.319,68.052.263,101.259-.061,36.292-.125,73.82.377,110.776.212,15.9.518,30.7.935,45.229.081,2.9.171,5.809.262,8.713.3,9.583.537,19.529.714,30.394.2,13.025.327,27.678.378,44.8.139,48.714-.371,115.045-1.076,206.849l-.023,3.124c-.8,104.992-2.153,173.637-7.3,257.453l-.019.3c-3.9,63.635-5.861,95.576-10.8,126.388a714.039,714.039,0,0,1-40.721,148.118c-9.208-72.5-31.154-136.471-65.529-190.784-11.631-18.383-38.87-61.433-89.782-101.162a371.329,371.329,0,0,0-50.549-33.148c37.563-20.025,66.253-46.11,85.523-77.826,19.1-31.434,28.086-67.306,38.487-108.84,13.928-55.585,16.3-101.35,20.608-184.426.753-14.436,1.606-30.8,2.3-45.328.336-7.027.649-11.746.926-15.91.367-5.542.685-10.328.934-18.358l.513-16.5H374.889A85.071,85.071,0,0,0,300.4,969.616c-1.144,2.045-2.176,4.119-3.08,6.2a94.477,94.477,0,0,0-4.193,12.11c-1.082,3.651-2.565,8.652-5.321,17.054-2.113,6.465-8.544,26.138-12.537,35.367-.135.309-13.708,31.064-37.309,42.663a49.936,49.936,0,0,1-11.774,4.018,81.4,81.4,0,0,0,2.692-10.388l.009-.05c1.428-7.587,5.775-30.677-7.193-50.794-11.851-18.4-34.719-28.527-64.389-28.527a143.793,143.793,0,0,0-52.314,10.123c-28.2,11.477-47.294,28-56.764,49.117-12.677,28.245-10.242,57.488,6.189,83.878-10.856-7.605-20.506-20.32-27.55-36.444-7.731-17.694-11.643-37.891-10.733-55.417,2.16-41.847,26.364-101.645,58.949-123.963,33.03-22.611,75.994-25.27,117.544-27.842l3.724-.231c32.5-2.028,65.9-3.014,102.1-3.014,14.031,0,28.665.156,43.5.462l.165,0H460.18l-.061-16.061a219.882,219.882,0,0,0-1.009-23.28c-.213-2.428-.455-5.18-.737-8.873-1.085-14.259-2.734-28.292-5.04-42.9q-.522-3.312-1.274-7.9c-2.128-13.088-5.69-34.994-9.659-64.988-7.715-58.259-11.044-85-9.078-108.306,3.8-45.049,20.987-80.6,30.9-97.777,36.545-63.339,93.3-92.877,123.87-104.846a249.426,249.426,0,0,1,41.381-12.164m16-18.846a266.3,266.3,0,0,0-63.21,16.11c-24.14,9.45-90.15,39.39-131.9,111.75-8.71,15.1-28.68,53.38-32.98,104.43-2.15,25.49,1.59,54.59,9.16,111.75,4.9,37.03,9.11,61.37,10.99,73.28,2.24,14.19,3.84,27.82,4.89,41.62,1.11,14.52,1.64,15.23,1.7,31H342.269q-21.9-.452-43.827-.465c-34.386,0-68.793.9-103.093,3.045-44.12,2.75-91.58,5.01-129.31,30.84-37.7,25.82-63.55,91.01-65.89,136.34-2.04,39.32,16.97,91.13,51.61,109.83,6.14,3.31,12.83,5.9,19.81,6.24.5.024,1,.035,1.506.035a37.8,37.8,0,0,0,18.514-5.175c-37.78-32.09-41.4-67.43-28.77-95.57,11.64-25.95,40.29-37.63,48.2-40.85a126.874,126.874,0,0,1,46.281-8.942c21.144,0,41.136,5.977,50.939,21.192,9.54,14.8,6.06,33.11,4.91,39.22a66.376,66.376,0,0,1-13.78,29.39,89.99,89.99,0,0,0,14.429,1.195,70.354,70.354,0,0,0,31.211-6.895c28.63-14.07,44.07-48.67,44.93-50.65,4.21-9.73,10.37-28.51,13.07-36.77,6.24-19.02,6.19-21.31,8.99-27.78.64-1.47,1.42-3.06,2.36-4.74a69.11,69.11,0,0,1,60.53-35.19h68.62c-.43,13.84-1.07,17.7-1.85,34-.67,13.96-1.45,28.96-2.3,45.26-4.4,84.86-6.87,128.37-20.15,181.37-10.36,41.37-18.81,75.08-36.64,104.42-25.58,42.1-66.58,68.79-109.1,85.75a357.352,357.352,0,0,1,77.96,46.15c47.71,37.23,73.37,76.98,86.1,97.1,51.43,81.26,66.07,173.95,67.83,247.24,39.69-80.82,58.52-153,67.74-210.6,5.07-31.63,7.04-63.83,10.99-128.24,4.93-80.26,6.48-147.11,7.33-258.31.73-95.11,1.24-160.8,1.1-210.14-.05-16.71-.17-31.54-.38-45-.18-11.04-.42-21.17-.72-30.65-.09-2.88-.18-5.77-.26-8.65q-.645-22.5-.93-45c-.96-70.65.15-141.34-.64-212,0,0-.25-21.91,16.49-128.24,3.16-20.08,6-36.31,18.32-51.29a73.581,73.581,0,0,1,21.07-17.44V388Zm-140.11,1395.53v0Z" transform="translate(0 0)" fill="#480000"/>
    <path d="M528.941,16A618.227,618.227,0,0,1,607,21.038q-24.96-2.419-50.724-2.423c-53.02,0-107.79,7.727-162.785,22.962C312.387,64.024,261.3,102.671,241.643,156.44c-10.923,29.857-10.337,63.574,1.651,94.941s34.042,56.868,62.1,71.834a132.143,132.143,0,0,0,62.023,15.118c44.345,0,87.258-21.114,111.994-55.1a128.292,128.292,0,0,0,15.072-27.17q1.73,3.528,3.12,7.193c16.124,42.5-8.431,83.831-17.676,99.393-28.211,47.491-74.709,65.037-93.392,70.377a156.987,156.987,0,0,1-43.158,6.046c-39.974,0-71.115-14.785-86.091-21.9-15.824-7.514-57.857-27.472-85.25-75.28-9.4-16.417-30.293-60.511-21.171-115.244,9.763-58.514,47.93-93.616,68.448-112.486,33.775-31.058,66.6-43.724,108.168-59.759A580.714,580.714,0,0,1,486.608,17.673C500.331,16.547,514.178,16,528.941,16M727.206,48.712q5.279,1.794,10.6,3.714c67.525,24.386,122.754,58,149.664,75.87,12.052,8,20.766,14.335,29.992,21.039,12.125,8.81,24.663,17.92,45.674,31.5,2.361,1.527,58.558,37.734,121.248,68.077,43.879,21.224,103.557,42.06,170.411,59.624a421.122,421.122,0,0,0-47.957,50.123c-73.211,90.558-90.991,191.511-103.974,265.222-7.976,45.257-9.589,76.991-12.8,140.214l-.009.163c-2.749,54.261-2.05,77.573-.577,114.1l.682,16.924,16.858-1.644c42.062-4.1,79.114-11.726,113.276-23.312a573.546,573.546,0,0,0,68.764-28.432c8.749-4.3,17.084-9.127,25.144-13.791,5.337-3.089,10.377-6,15.548-8.8q1.122-.606,2.26-1.229c5.1-2.785,10.877-5.942,14.44-5.942a4.4,4.4,0,0,1,2.43.719,7.337,7.337,0,0,1,3.214,6.792c-.781,5.039-7.515,10.771-12.513,14.644-22.312,17.29-48.848,30.4-72.261,41.974a540.166,540.166,0,0,1-79.217,31.951c-15.154,4.687-27.872,8.275-40.684,10.554-1.761.313-14.011,2.336-25.1,4.1-6.249.992-10.1,1.421-13.83,1.837-1.658.185-3.27.365-5,.582l-14.31,1.785.3,14.418c.073,3.544.048,5.521.021,7.614-.016,1.278-.032,2.6-.024,4.216.044,8.614.125,16.527.2,24.179.23,22.3.447,43.364-.2,80.879-.8,46.017.5,81.334,2.681,135.15,1.322,32.394,2.966,72.708,10.658,123.377,10.064,66.346,15.607,102.892,33.019,136.987,19.968,39.108,53.08,71.142,98.656,95.521-65.612,38.991-118.589,97.562-154.333,171.022-25.906,53.239-44.433,114.42-56.2,185.883-9.714-25.1-17.757-53.574-24.593-86.727-25.907-125.481-25.555-260.813-23.192-377.808.169-8.282.128-16.275.063-25.078l-.017-2.945c-.016-2.948-.033-5.893-.033-8.844v-254.79c0-57.5-.519-106.437-1.121-163.1l-.01-.948c-.1-10.4-.355-33.517-.447-42.016l-.033-3-.171-15.827H661.469v-31.3H974.3l-.163-16.161q-.225-22.428-.43-44.978c-1.134-130.552-.9-234.534,3.787-349.367,3.017-73.674,1.183-159.815-35.29-240.114-21.98-48.364-55.249-91.165-98.882-127.212A417.31,417.31,0,0,0,727.206,48.712M528.941,0C508.286,0,493.169,1.081,485.3,1.727a594.446,594.446,0,0,0-163.58,37.75c-43.52,16.79-77.93,30.44-113.24,62.91-21.54,19.81-62.73,57.68-73.4,121.63-10.58,63.48,15.56,112.72,23.07,125.83,29.29,51.12,73.21,72.73,92.27,81.78,15.231,7.232,49.365,23.442,92.954,23.442a172.315,172.315,0,0,0,47.556-6.662c13.75-3.93,69.55-21.7,102.75-77.59,10.07-16.95,37.74-63.53,18.88-113.24a105.85,105.85,0,0,0-25.09-37.91,114.855,114.855,0,0,1-21,54.15c-22.651,31.124-60.968,48.516-99.056,48.516A115.66,115.66,0,0,1,312.919,309.1c-24.65-13.15-44.07-35.68-54.68-63.43s-11.17-57.49-1.57-83.73c17.78-48.64,65.25-83.95,141.09-104.94,53.853-14.918,107.2-22.381,158.517-22.382,49.476,0,97.071,6.931,141.493,20.8a402.707,402.707,0,0,1,135.36,73.02c41.76,34.5,73.55,75.38,94.51,121.5,35.07,77.21,36.81,161.03,33.87,232.84-4.91,120.39-4.85,229.3-3.8,350.16q.2,22.545.43,45H645.469v63.3h313.09c.03,2.81.36,32.74.48,45,.61,57.49,1.13,106.15,1.13,163.89v254.79c0,3.96.03,7.91.05,11.87.06,8.04.11,16.36-.06,24.67-2.38,117.85-2.73,254.23,23.52,381.37,11.75,56.99,27.46,101.76,48.83,138.7,8.18-73.23,24.44-156.86,62.02-234.09,39.86-81.92,101.68-143.3,175.36-178.91-44.66-18.76-93.31-49.99-119.82-101.91-16.23-31.78-21.41-65.92-31.45-132.11-7.42-48.88-9.12-88.05-10.49-121.63-2.26-55.7-3.45-89.37-2.67-134.22.882-50.98.167-72.42,0-105.417-.02-3.973.124-6.017,0-12.076,5.673-.708,10.007-1.009,19.357-2.493,10.977-1.741,23.371-3.785,25.4-4.145,14.45-2.57,28.589-6.685,42.61-11.021a553.848,553.848,0,0,0,81.579-32.893c26-12.849,51.954-25.833,74.973-43.671,8.373-6.489,16.9-14.375,18.523-24.842a23.276,23.276,0,0,0-10.89-23.019,20.364,20.364,0,0,0-10.565-2.941c-8.447,0-16.644,4.96-24.3,9.09-13.479,7.275-26.4,15.545-40.156,22.312a556.174,556.174,0,0,1-66.84,27.636c-36.18,12.27-72.77,18.94-109.69,22.54-1.41-34.98-2.2-57.98.57-112.65,3.19-62.73,4.78-94.09,12.59-138.41,13.15-74.66,30.05-170.6,100.66-257.94a407.751,407.751,0,0,1,70.15-67.98c-85.96-20.61-153.61-44.72-198.08-66.23-62.52-30.26-119.53-67.11-119.53-67.11-36.64-23.68-47.25-33.67-75.5-52.43-17.35-11.52-77.32-50.23-153.08-77.59C656.19,5.945,577.362,0,528.941,0Z" transform="translate(0 0)" fill="#480000"/>
    <g>
      <path d="M645.469,836.437a4.5,4.5,0,0,1,0-9h262.7l-.052-6.553c-1-122.463-.709-227.341,3.935-341.131,2.7-65.982,1.306-142.57-29.479-210.335-34.952-76.925-109.555-139.634-199.565-167.746A427.649,427.649,0,0,0,555.347,82.11q-3.224,0-6.445.049c-33.069.5-66.955,4.514-103.6,12.26-39.459,8.341-69.554,18.909-94.713,33.259-19.519,11.133-33.578,24.13-41.784,38.63-11.89,21-12.3,48.088-1.035,69,11.341,21.055,34.78,35.482,58.324,35.9.392.007.788.01,1.183.01,14.368,0,29.486-4.713,43.72-13.63,8.042-5.038,26.878-18.943,28.11-39.209.813-13.382-7.043-27.408-19.549-34.9-3.715-2.226-9.476-4.88-15.817-4.88-.2,0-.395,0-.593.008-10.862.234-25.807,10.061-30.145,19.837a4.5,4.5,0,1,1-8.226-3.651c5.814-13.1,23.666-24.871,38.2-25.185.221,0,.446-.008.67-.008a40.4,40.4,0,0,1,20.534,6.159c15.549,9.316,24.933,26.261,23.907,43.167C447.05,236.126,435.271,253,415.78,265.209c-15.668,9.817-32.413,15-48.423,15.006q-.707,0-1.409-.014c-27.121-.48-53.061-16.429-66.1-40.63-12.692-23.566-12.25-54.063,1.126-77.7,9.017-15.932,24.21-30.067,45.158-42.015,25.992-14.825,56.914-25.707,97.311-34.247,37.215-7.866,71.664-11.94,105.319-12.452q3.323-.052,6.646-.052a436.43,436.43,0,0,1,130.28,19.973C778.11,121.946,854.773,186.474,890.766,265.7c31.565,69.48,33.02,147.384,30.28,214.426-4.729,115.838-4.974,220.482-3.837,351.777l.039,4.539Z" transform="translate(0 0)" fill="#480000"/>
      <path d="M555.41,66.609q-3.37,0-6.745.052C514.588,67.18,479.73,71.3,442.1,79.254c-41.075,8.683-72.592,19.791-99.187,34.96-21.978,12.536-37.991,27.494-47.593,44.459-14.451,25.531-14.919,58.494-1.193,83.98,14.131,26.236,42.273,43.526,71.7,44.047.511.01,1.021.015,1.533.015,17.26,0,35.177-5.537,51.874-16,21.292-13.34,34.178-32.075,35.353-51.4,1.172-19.3-9.447-38.588-27.054-49.137a46.819,46.819,0,0,0-23.875-7.083q-.406,0-.81.009c-17.03.369-37.181,13.671-44.005,29.047a11,11,0,1,0,20.11,8.924c3.3-7.435,16.054-15.8,24.372-15.976.141,0,.283-.005.424-.005,4.865,0,9.456,2.146,12.477,3.956,10.479,6.279,17.071,17.906,16.4,28.931-1.048,17.252-17.883,29.59-25.073,34.094-13.212,8.278-27.114,12.639-40.269,12.639-.356,0-.713,0-1.068-.009-21.27-.377-42.455-13.432-52.717-32.483-10.226-18.988-9.846-43.6.97-62.711,7.622-13.468,20.86-25.642,39.347-36.186,24.557-14.006,54.057-24.348,92.837-32.546,36.227-7.658,69.7-11.622,102.349-12.12,2.118-.032,4.23-.048,6.347-.048A420.976,420.976,0,0,1,681.07,107.877c88.272,27.569,161.387,88.963,195.585,164.23,30.221,66.523,31.57,142.163,28.9,207.381-4.607,112.878-4.97,215.072-3.941,341.449H645.469a11,11,0,0,0,0,22H923.805l-.1-11.1c-1.136-131.194-.892-235.749,3.831-351.456,2.772-67.8,1.275-146.656-30.856-217.379-36.747-80.88-114.9-146.723-209.054-176.13A442.774,442.774,0,0,0,555.41,66.609Z" transform="translate(0 0)" fill="#480000"/>
    </g>
  </g>
</svg>
