<svg xmlns="http://www.w3.org/2000/svg" xmlns:xlink="http://www.w3.org/1999/xlink" width="1354.675" height="2185.232" viewBox="0 0 1354.675 2185.232">
  <defs>
    <linearGradient id="a" data-name="New Gradient Swatch 1" x1="719.516" y1="1706.335" x2="719.516" y2="175.37" gradientUnits="userSpaceOnUse">
      <stop offset="0" stop-color="#8b1d1a"/>
      <stop offset="0.25" stop-color="#500"/>
      <stop offset="0.5" stop-color="#3a0000"/>
      <stop offset="0.75" stop-color="#1e0000"/>
      <stop offset="1"/>
    </linearGradient>
  </defs>
  <title>B</title>
  <path d="M579.617,783.141V1307.9c0,27.37-.07,52.09,0,90.44.35,189.74,2.53,186.93.74,222.01-2.96,57.91-8.62,153.17-52.43,260.04a654.427,654.427,0,0,1-61.36,115.23,511.08,511.08,0,0,0,9.49-86.76c1.17-55.86-7.67-109.7-26.29-160.01-17.63-47.66-44.51-93.69-79.87-136.81a602.669,602.669,0,0,0-68.96-70.79,569.575,569.575,0,0,0-72.98-54.51c24.93-14.47,46.6-29.87,64.7-46.02,17.45-15.57,53.77-47.96,80.65-101.81,19.84-39.77,25.08-75.68,29.29-104.54,1.13-7.73,2.2-15.03,3.43-21.53,11.99-62.97,11.94-95.42,11.83-166.52-.06-43.58-.16-103.27,2.54-194.93l.03-1.12c.36-11.9.8-26.72.86-44.75l.07-22.42-22.42-.15c-48.34-.32-77.07-.1-105.22,8.15-3.7,1.08-7.28,2.2-10.75,3.29-13.13,4.1-25.54,7.98-43.98,9.9-14.08,1.48-51.47,5.39-86.76-9.53-33.75-14.25-55.14-41.76-67.87-64.74a165.016,165.016,0,0,0,26.12,4.44c16.24,1.44,26.74,2.22,36.51-4.05,3.61-2.31,11.69-8.52,20.29-40.57,8-29.81,4.12-36.04,11.36-64.1,3.96-15.35,7.72-29.44,17.85-45.43,6.86-10.83,17.51-27.65,38.94-37.32a74.529,74.529,0,0,1,38.94-6.49c26.99,3.08,44.16,21.54,53.55,31.64,34.94,37.56,37.89,94.26,36.55,125.15-5.13-5.63-15.7-14.88-31.68-17.24-5.59-.83-18.97-3.17-30.83,4.87-1.09.74-14.83,10.32-13.79,22.71,0,0,.71,8.46,10.55,16.23,10.48,8.29,62,12.02,120.6,13.51-1.08-18.52-2.64-37.21-4.63-55.63-3.97-36.65-6.36-58.77-14.74-87.71-8.25-28.55-30.18-104.38-99.49-162.04-29.22-24.3-65.57-54.55-117.09-49.85-27.02,2.46-49.09,13.93-65.53,26.31-2.22-12.27-2.55-28.61,5.35-44.45,10.06-20.15,28.2-29,46.14-37.74,23.32-11.37,44-13.5,56.62-14.68,25.5-2.39,28.32,2.33,54.53,2.09,14.28-.12,53.75-.88,90.17-20.97,15.69-8.65,25.6-18.02,46.14-39.84,46.15-49.05,67.42-77.71,85.98-98.57,46.82-52.63,97.18-80.76,120.58-93.58,71.14-38.96,135.04-49.49,158.86-52.69,79.53-10.68,141.77,2.62,165.93,8.65,36.93,9.22,89,22.21,139.2,62.92,69.51,56.36,91.93,130.58,106.17,177.73,6.93,22.94,32.58,114.61,7.86,229.64-5.35,24.92-17.13,79.74-48.75,129.76-51.83,81.97-138.45,121.78-209.06,141.19,69.12,11.07,183.16,42.25,268.82,134.84,48.51,52.43,76.59,112.3,85.73,132.12,32.99,71.62,41.9,131.93,48.75,180.88,16.04,114.55,2.9,202.6,0,220.99-8.5,53.92-19.79,125.46-66.06,205.26-20.06,34.61-81.15,130.17-201.32,191.89-46.77,24.02-111.6,57.31-198.18,49.54-79.41-7.12-136.32-45.12-158.86-60.55a366.491,366.491,0,0,1-68.21-60.51v-45.81c27.16,17.67,54.89,34.06,82.87,49,56.49,30.16,77.01,34.88,93.18,37.11a191.336,191.336,0,0,0,26.42,1.81c50.66,0,91.35-19.52,108.09-28.99,75.1-42.47,101.31-118.45,122.38-179.5,29.33-84.99,29.56-155.4,29.79-223.49.38-113.49-18.17-203.06-29.26-246.35-15.77-61.53-52.74-176.64-123.27-256.16-38.57-43.49-81-68.42-122.71-72.1-9.22-.81-16.57-.77-20.96-.75H654.227v-50.32c14.14.2,31.02.34,48.56.34,26.31,0,54.1-.31,76.27-1.15l.48-.02c30.97-1.84,64.08-5.19,96.41-17.17,43.82-16.23,81.64-48.36,103.77-88.13,24.04-43.23,31.57-94.14,38.21-139.06l.61-4.08c12.25-82.65.56-146.44-5.72-180.72-10.28-56.09-18.39-100.4-51.06-148.41-19.36-28.44-70.77-104-157.46-107.68-82.58-3.5-139.17,61.78-157.76,83.24-51.04,58.89-60.79,128.53-64,151.42a316.765,316.765,0,0,0-3.01,48.18" transform="translate(0 0)" fill="url(#a)"/>
  <g>
    <path d="M1062.826,363.567c10.546,50.185,66.767,20.114,65.178-23.341,1.428-35.15-43.079-50.468-58.472-14.808-6.373-63.965,104.617-55.256,94.5,27.862C1147.185,444.659,1039.647,419.474,1062.826,363.567Z" transform="translate(0 0)" fill="#bfcbc2"/>
    <path d="M1069.991,156.09c31.634-21.75-38.508-30.465-22.365,13.373,12.492,11.974,63.765-14.51,77.427,36.609,7.718,27.979-22.577,60.76-52.41,48.349-22.112-7.97-21.394-43.248,5.569-43.039-19.9,4.48-19.917,35.391,7.286,31.438,23.709-5.306,29.412-38.728,3.185-48.461-85.852,6.591-67.2-56.968-32.086-66.253C1074.286,120.507,1096.8,151.184,1069.991,156.09Z" transform="translate(0 0)" fill="#bfcbc2"/>
    <path d="M1097.555,521.093c20.493-4.249,28.718,23.693,11.274,38.012-26.418,21.259-64.839,5.37-55.954-30.9,2.66-11.132,12.995-22.563,24.591-29.532,53.264-23.352,54.091-54.65,23.821-61.608-18.117.069-24.831,26.455-4.282,34.026-25.3-2.261-27.11-38.586-.271-46.585,28.594-9.567,52.734,25.709,40.808,52.4-4.963,12.681-12.143,19.719-24.155,27.571-45.61,18.344-61.057,53.781-15.365,47.366C1114.158,548.09,1117.774,522.788,1097.555,521.093Z" transform="translate(0 0)" fill="#bfcbc2"/>
    <path d="M1194.719,358.5c-.4,23.377-14.8,49.6-38.051,62.739.082-.038.033,0,.05-.007-.174-.056-.662.051-.373.528,12.815,13.458,20.49,34.737,13.5,54.474-1.171-25.211-21.64-46.523-45.707-57.673C1152.4,409.2,1182.417,387.163,1194.719,358.5Z" transform="translate(0 0)" fill="#bfcbc2"/>
    <path d="M1153.145,197.48c4.823,18.443-.839,43.839-14.521,60.613,15.365,7.082,32.764,23.845,35.808,42.937-13.105-19.978-38.929-31.953-64.454-35.065C1129.553,249.957,1148.6,225.116,1153.145,197.48Z" transform="translate(0 0)" fill="#bfcbc2"/>
    <path d="M1144.758,555.132c-28.557,73.391-129.5,60.1-111.539,5.321C1041.868,611.144,1122.3,575.623,1144.758,555.132Z" transform="translate(0 0)" fill="#bfcbc2"/>
    <path d="M1092.689,102.352c-46.161-4.655-84.293,27.894-92.147,67.026C983.689,121.132,1041.391,66.6,1092.689,102.352Z" transform="translate(0 0)" fill="#bfcbc2"/>
    <path d="M1074.449,668.9c-19.009-42.49-36.771-53.411-75.748-25.105C1023.969,588.224,1082.077,613.953,1074.449,668.9Z" transform="translate(0 0)" fill="#bfcbc2"/>
    <path d="M1017.337,41.172c15.829,40.921-20.494,85.819-63.354,79.035C984.231,109.213,1013.123,73.508,1017.337,41.172Z" transform="translate(0 0)" fill="#bfcbc2"/>
    <path d="M1245.189,1410.226c66.694-16.949,47.274-112.821,11.226-152.293-126.073-110.936-69.62-161.568-37.921-166.3,61.874-6.453,86.455,105.06,40.49,91.29-18.831-7.6-8.473-31.091-19.666-45.952-21.639-27.3-35.344-.391-25.155,26.456,15.685,40.18,55.064,62.65,73,103.187C1313.09,1317.773,1308.29,1404.283,1245.189,1410.226Z" transform="translate(0 0)" fill="#bfcbc2"/>
    <path d="M1041.646,833.785c127.745-7.622,67.79,143.425,111.12,184.013,53.266,44.536,65.013-42.191,31.682-47.613-.142.159-.061.054-.394.409-.038.007-.047.1-.109.171-.677-.154-.277-.592-3.793-.936.216-.049-3.834.589-1.814.242.528-.227.343.128,2.772-1.55-.894,3.036-2.078,2.226.08,8.179,23.164,43.437-71.833,14.044-17.015-36.6,68.321-34.467,101.557,88.446,40.812,115.517-39.316,18.375-84.208-15.978-90.162-59.268C1103.428,924.673,1143.064,843.39,1041.646,833.785Z" transform="translate(0 0)" fill="#bfcbc2"/>
    <path d="M985.845,814.12c56.974-32.345,53.7,62.848,65.45,81.785,13.312,19.516,42.019-.964,26.85-26.34,44.648,29.865-16.964,87.306-51.5,41.408C998.818,879.274,1037.576,811.671,985.845,814.12Z" transform="translate(0 0)" fill="#bfcbc2"/>
    <path d="M1130.159,1223.961c-21.717-12.931-11.9-90.846,22.987-129.339-17.675-7.121-58.495-45.255-43.914-68.466,18.862,38.411,41.9,50.876,80.511,56.785C1151.978,1119.343,1129.6,1171.183,1130.159,1223.961Z" transform="translate(0 0)" fill="#bfcbc2"/>
    <path d="M1169.535,1348.52c-45.347-24.018,23.474-100.35,16.1-119.481-1.911-24.271-52.485-19.6-25.246,30.834-84.346-66.434,113.139-106.261,17.05,35.182C1169.141,1310.6,1163.376,1330.036,1169.535,1348.52Z" transform="translate(0 0)" fill="#bfcbc2"/>
    <path d="M1144.379,1042.811c-.08-.39,10.854,4.382,11.5,5.317C1155.958,1048.519,1145.024,1043.746,1144.379,1042.811Z" transform="translate(0 0)" fill="#bfcbc2"/>
    <path d="M1079.463,940.9" transform="translate(0 0)" fill="none" stroke="#f1f3f1" stroke-miterlimit="10"/>
    <path d="M1078.7,940.812c76.726,20.8,41.42,83.673,75.937,103.043C1112.21,1043.447,1117.35,964.637,1078.7,940.812Z" transform="translate(0 0)" fill="#bfcbc2"/>
    <path d="M1165.461,882.014c-25.48,31.438-27.285,81.107-37.418,119.748C1113.775,958.761,1118.738,900.946,1165.461,882.014Z" transform="translate(0 0)" fill="#bfcbc2"/>
    <path d="M290.578,631.374c-11.94,26.841-37.662,27.836-59.743,16.867-1.419,9.928-3.511,23.311-11.479,32.235,17.2-.942,36.2,12.361,37.348,30.955-19.829-37.45-45.764-17.188-74.615,2.817,24.917-39.7,41.128-44.616,31.231-135.05C227.158,617.6,242.965,675.078,290.578,631.374Z" transform="translate(0 0)" fill="#bfcbc2"/>
    <path d="M320.389,640.623c-7.284-3.784-12.984-13.558-16.479-23.878-21.857-70.824-87.474,9.487-30.646,7.557-59.9,18.068-18.45-90.831,31.125-28.967C311.822,608.974,308.507,627.947,320.389,640.623Z" transform="translate(0 0)" fill="#bfcbc2"/>
    <path d="M276.705,774.04c-7.723-5.485-20.5-16.408-33.534-12.415-22.329,17.417-56.446,10.9-49.963-26.479,3.185-21.794,45.005-41.19,44.831-12.225-5.911-29.191-54.471,14.454-26.487,35.268C227.258,771.627,244.354,729.983,276.705,774.04Z" transform="translate(0 0)" fill="#bfcbc2"/>
    <path d="M381.62,427.783c22.54-50.467,112.479-26.578,138.092,15.837,46.271,74.431-33.106,137.9-76.308,96.722,43.876,8.761,67.824-35.624,43.744-73.7C474.572,443.309,410.787,401.718,381.62,427.783Z" transform="translate(0 0)" fill="#bfcbc2"/>
    <path d="M492.542,255.956c48.106,5.1,23.4,60.3,6.44,88.24-17.644,38.816-11.257,89.108,38.514,98.966-51.491,20.193-95.631-43.927-76.662-93.128C467.78,312.641,530.543,282.4,492.542,255.956Z" transform="translate(0 0)" fill="#bfcbc2"/>
    <path d="M525.7,734.712c-94.624-23.046-71.089-76.363-24.722-134.629,12.851-34.372-37.6-50.984-43.92-11.371C437,525,555.02,524.259,538.681,610.7,520.081,670.627,450.07,667.1,525.7,734.712Z" transform="translate(0 0)" fill="#bfcbc2"/>
    <path d="M515.166,1158.526c-92.522-134.124,5.112-308,4.453-344.568,6.178-77.031-65.174-56.222-41.01,10.069C430.878,761.408,514.8,704.365,545,781.877c14.811,40.285-2.364,82.8-13.7,122.8C505.386,991.794,486.239,1074.688,515.166,1158.526Z" transform="translate(0 0)" fill="#bfcbc2"/>
    <path d="M422.558,272.621c-8.568,49.041-14.93,71.147,17.312,114.771-44.35-21.385-96.177-6.9-94.035,52.749-14.6-38.363,15.6-82.068,60.85-78.57,0-.005,0,0,0-.02C397.872,334.416,409.394,295.705,422.558,272.621Z" transform="translate(0 0)" fill="#bfcbc2"/>
    <path d="M594.961,123.96c-12.059,7.387-32.653,16.725-31.135,36.318,28.356,65.405-9.655,110.539-53.008,90.033-27.385-14.287-15.639-61.6,16.666-46.632-31.931.567-8.9,47.379,12.244,13.353C551.994,193.95,508.742,123.494,594.961,123.96Z" transform="translate(0 0)" fill="#bfcbc2"/>
    <path d="M550.109,394.606c-3.848-49.427-67.025-.218-14.777,22.185-27.735,7.363-49.838-31.153-24.046-52.152C532.026,347.4,565.87,369.512,550.109,394.606Z" transform="translate(0 0)" fill="#bfcbc2"/>
    <path d="M444.979,484.381c-56.66,13.207,14.952,60.947,10.141.073-32.46-84.429-78.649,2.8-30.563-13.482-13.655,18.322-40.825-5.713-23.629-26.693,27.081-28.681,65.916,7.144,71.357,37.893,6.524,27.51-18.842,56.487-46.089,42.055C406.274,509.907,413.714,480.689,444.979,484.381Z" transform="translate(0 0)" fill="#bfcbc2"/>
    <path d="M1083.253,347.765c.737-14.788,21.609-14.228,22.313,0C1104.83,362.554,1083.957,361.994,1083.253,347.765Z" transform="translate(0 0)" fill="#bfcbc2"/>
    <path d="M471.574,590.066c.268-10.16,15.617-10.994,16.467,0C487.774,600.226,472.424,601.061,471.574,590.066Z" transform="translate(0 0)" fill="#bfcbc2"/>
    <path d="M263.471,606.534c.268-10.16,15.617-11,16.467,0C279.671,616.694,264.321,617.528,263.471,606.534Z" transform="translate(0 0)" fill="#bfcbc2"/>
    <path d="M210.159,742.386c.267-10.16,15.617-10.994,16.467,0C226.358,752.546,211.009,753.38,210.159,742.386Z" transform="translate(0 0)" fill="#bfcbc2"/>
    <path d="M1229.478,1063.781c1.291-21.483,30.695-19.559,31.3,0C1259.492,1085.265,1230.089,1083.34,1229.478,1063.781Z" transform="translate(0 0)" fill="#bfcbc2"/>
    <path d="M377.62,343.765c.268-10.159,15.617-10.994,16.467,0C393.82,353.925,378.47,354.76,377.62,343.765Z" transform="translate(0 0)" fill="#bfcbc2"/>
    <path d="M471.574,280.855c.268-10.16,15.617-10.994,16.467,0C487.774,291.015,472.424,291.849,471.574,280.855Z" transform="translate(0 0)" fill="#bfcbc2"/>
    <path d="M1232.828,1361.184c49.641-28.009-19.34-82.743-29.7-19.948,7.821,70.3,73.94,93.3,17.292,164.943,8.519-20.116,15.772-47.413,3.734-69.832-82.953-114.28-24.077-145.067,8.768-139.862C1268.067,1305.569,1269.536,1354.654,1232.828,1361.184Z" transform="translate(0 0)" fill="#bfcbc2"/>
    <path d="M1218.153,1335.142c.279-11.082,16.88-11.58,17.572,0C1235.446,1346.224,1218.845,1346.722,1218.153,1335.142Z" transform="translate(0 0)" fill="#bfcbc2"/>
  </g>
  <path d="M894.008,38.159a385.732,385.732,0,0,1,45.69,8.48c34.37,8.581,81.443,20.333,125.6,56.139,26.767,21.7,47.924,48.213,64.68,81.043,14.651,28.707,23.177,56.937,30.028,79.622a407.788,407.788,0,0,1,14.492,73.8,440.2,440.2,0,0,1-7.347,138.377c-5.131,23.9-15.808,73.626-44.112,118.4-20.642,32.645-49.637,60.54-86.179,82.91-26.889,16.459-57.841,29.974-92.133,40.24C971.68,697.5,994.4,672.284,1010.305,643.7c27.137-48.8,35.163-103.037,42.237-150.894l.616-4.124c13.1-88.375.732-155.879-5.914-192.161l-.015-.079c-10.583-57.744-19.724-107.614-56.558-161.743-13.44-19.745-45.385-66.667-96.663-96.541M635.448,90c-6.483,6.811-11.62,12.741-15.36,17.059-57.8,66.685-68.644,144.037-72.215,169.5a351.774,351.774,0,0,0-3.346,53.259l.09,453.319V1307.9c0,8.824-.008,17.373-.015,26.192-.016,18.826-.033,38.294.015,64.313.174,94.231.794,140.829,1.166,168.671.366,27.523.465,34.92-.381,51.487-1.643,32.155-3.807,66.965-10.483,107.8a647.619,647.619,0,0,1-27.772,110.189,457.28,457.28,0,0,0-24.554-99.844c-18.976-51.3-47.786-100.709-85.634-146.863a636.454,636.454,0,0,0-72.894-74.864q-16.212-14.274-33.562-27.454,13.629-10.141,25.486-20.718c19.075-17.02,58.768-52.437,88.637-112.275,22.346-44.794,28.275-85.436,32.6-115.1,1.07-7.322,2.081-14.238,3.18-20.046,12.613-66.242,12.558-101.96,12.448-173.115v-.8c-.06-43.253-.142-102.49,2.525-193.052l0-.042v-.041l.03-1.12h0c.343-11.341.81-26.847.872-45.588l.07-22.42.044-13.886.074,0-.071-1.208.062-19.784-1.216-.008-.991-16.994c-1.108-19-2.714-38.291-4.775-57.361l-.015-.138c-4.025-37.156-6.684-61.7-15.9-93.519-9.063-31.365-33.139-114.68-110.768-179.261-25.932-21.566-60.246-50.106-107.682-56.9,5.488-.919,10.283-1.367,14.092-1.723,3.766-.353,6.988-.525,9.849-.525a90.31,90.31,0,0,1,12.128.961,202.821,202.821,0,0,0,27.368,1.815c.73,0,1.476,0,2.213-.01,41.019-.345,76.945-8.864,106.774-25.318,21.239-11.709,34.844-25.379,54.732-46.507,32-34.011,52.724-58.937,67.854-77.136,7.076-8.512,13.187-15.863,18.786-22.154,40.621-45.662,84.33-71.274,106.531-83.555M266.579,571.059a33.508,33.508,0,0,1,3.819.217c14.144,1.614,24.4,12.643,31.892,20.7,10.933,11.754,18.736,27.957,23.195,48.168-1.024-.038-2.085-.061-3.179-.061-14.922,0-28.376,3.992-40.008,11.877-15.364,10.431-31.052,30.25-29.009,54.594.465,5.535,3.549,24.831,23.714,40.754a49.948,49.948,0,0,0,14.586,8.105q-3.844.963-7.679,2.086c-3.905,1.14-7.624,2.3-11.406,3.489l-.02.006c-12.392,3.869-22.179,6.926-37.156,8.485a209.935,209.935,0,0,1-22.958,1.39c-17.761,0-33.411-2.809-46.529-8.355q-1.26-.533-2.487-1.1,1.246-.723,2.5-1.526c15.966-10.216,26.5-28.453,35.23-60.979A223.921,223.921,0,0,0,208.135,660a151.484,151.484,0,0,1,4.392-25.511c3.8-14.739,6.49-24.336,13.533-35.453,5.577-8.8,11.9-18.783,23.762-24.137l.027-.012.026-.012a40.388,40.388,0,0,1,16.7-3.811M943.936,789.451c71.288,12.219,169.2,43.568,242.751,123.07,30.309,32.759,57.1,74.145,79.63,122.993,31.507,68.4,39.475,125.338,45.878,171.091,14.14,100.985,4.773,180.98.089,210.687-8.356,53.007-18.756,118.976-61.769,193.158-25.35,43.738-83.357,125.061-187.028,178.307-40.619,20.862-91.172,46.824-156.655,46.824-7.4,0-14.943-.339-22.41-1.009a264.471,264.471,0,0,1-53.618-10.557,228.544,228.544,0,0,0,25.893,1.466c57.476,0,103.19-21,125.318-33.523,86.619-48.984,116.445-135.407,138.237-198.549,31.217-90.458,31.465-163.8,31.7-234.734v-.056c.393-117.373-18.849-210.242-30.355-255.157-16.56-64.61-55.6-185.692-130.989-270.693a310.394,310.394,0,0,0-46.676-43.318M842.5,0a453.034,453.034,0,0,0-60.288,4.022c-23.82,3.2-87.72,13.73-158.86,52.689-23.4,12.821-73.76,40.951-120.581,93.581-18.559,20.86-39.829,49.519-85.979,98.569-20.54,21.82-30.45,31.19-46.14,39.84-36.42,20.091-75.89,20.85-90.17,20.97q-.982.011-1.919.009c-19.354,0-25.455-2.776-39.5-2.776-3.693,0-7.937.192-13.115.677-12.62,1.181-33.3,3.311-56.62,14.681-17.94,8.74-36.08,17.589-46.14,37.74-7.9,15.839-7.57,32.179-5.35,44.449,16.44-12.38,38.51-23.85,65.53-26.309q5.419-.495,10.616-.488c45.965,0,79.3,27.742,106.474,50.338,69.31,57.66,91.24,133.489,99.49,162.04,8.38,28.939,10.77,51.06,14.74,87.71,1.99,18.419,3.55,37.11,4.63,55.629-58.6-1.49-110.12-5.22-120.6-13.51-9.84-7.769-10.55-16.23-10.55-16.23-1.04-12.389,12.7-21.97,13.79-22.71a35.663,35.663,0,0,1,20.349-5.834,67.661,67.661,0,0,1,10.481.965c15.98,2.359,26.55,11.609,31.68,17.24,1.34-30.891-1.61-87.591-36.55-125.15-9.39-10.1-26.56-28.561-53.55-31.64a68.209,68.209,0,0,0-7.788-.443,75.748,75.748,0,0,0-31.152,6.933c-21.43,9.67-32.08,26.489-38.94,37.32-10.13,15.99-13.89,30.079-17.85,45.43-7.24,28.06-3.36,34.29-11.36,64.1-8.6,32.049-16.68,38.26-20.29,40.569-6.033,3.872-12.344,5.056-20.113,5.056-4.812,0-10.186-.455-16.4-1.006a165,165,0,0,1-26.12-4.439c12.73,22.98,34.12,50.49,67.87,64.74,21.11,8.925,42.969,11.111,60.143,11.111a245.147,245.147,0,0,0,26.617-1.581c18.44-1.921,30.85-5.8,43.98-9.9,3.47-1.089,7.05-2.21,10.75-3.289,24.017-7.039,48.455-8.233,85.137-8.233,6.311,0,12.987.036,20.083.082l22.42.151-.07,22.42c-.06,18.03-.5,32.849-.86,44.75l-.03,1.119c-2.7,91.661-2.6,151.351-2.54,194.931.11,71.1.16,103.549-11.83,166.52-1.23,6.5-2.3,13.8-3.43,21.529-4.21,28.86-9.45,64.77-29.29,104.54-26.88,53.851-63.2,86.24-80.65,101.81-18.1,16.15-39.77,31.551-64.7,46.021a569.388,569.388,0,0,1,72.98,54.51,602.585,602.585,0,0,1,68.96,70.79c35.36,43.119,62.24,89.149,79.869,136.81,18.621,50.309,27.461,104.15,26.291,160.009a511.16,511.16,0,0,1-9.49,86.76,654.392,654.392,0,0,0,61.36-115.23c43.81-106.869,49.47-202.129,52.43-260.039,1.79-35.08-.39-32.27-.74-222.01-.07-38.35,0-63.07,0-90.441V783.141l-.091-453.56a317.009,317.009,0,0,1,3.01-48.179c3.211-22.89,12.961-92.53,64-151.421,18.109-20.9,72.256-83.375,151.373-83.375,2.107,0,4.245.045,6.388.136,86.69,3.679,138.1,79.239,157.459,107.679,32.671,48.01,40.78,92.321,51.061,148.41,6.28,34.28,17.969,98.071,5.719,180.72l-.609,4.081c-6.641,44.919-14.171,95.829-38.21,139.059-22.13,39.77-59.951,71.9-103.77,88.131-32.33,11.98-65.441,15.329-96.411,17.17l-.479.02c-22.17.84-49.96,1.149-76.271,1.149-17.539,0-34.419-.139-48.559-.339v50.319H820.756c.775,0,1.641-.007,2.593-.007,4.448,0,10.774.09,18.368.757,41.71,3.681,84.14,28.611,122.71,72.1,70.53,79.52,107.5,194.629,123.27,256.159,11.089,43.29,29.64,132.861,29.26,246.351-.23,68.09-.46,138.5-29.79,223.49-21.07,61.05-47.28,137.03-122.381,179.5-16.739,9.469-57.429,28.989-108.089,28.989a191.36,191.36,0,0,1-26.421-1.81c-16.169-2.23-36.689-6.95-93.179-37.109-27.98-14.941-55.71-31.331-82.87-49v45.809a366.387,366.387,0,0,0,68.21,60.51c22.54,15.431,79.45,53.431,158.86,60.55,8.735.784,17.239,1.15,25.535,1.15,73.933,0,130.593-29.093,172.645-50.69,120.17-61.72,181.26-157.28,201.32-191.889,46.27-79.8,57.56-151.341,66.06-205.26,2.9-18.39,16.04-106.44,0-220.99-6.851-48.95-15.76-109.26-48.75-180.881-9.14-19.819-37.22-79.69-85.73-132.119-85.66-92.591-199.7-123.771-268.82-134.841,70.61-19.409,157.229-59.22,209.06-141.19,31.62-50.02,43.4-104.839,48.75-129.76,24.72-115.03-.93-206.7-7.861-229.64-14.24-47.15-36.659-121.37-106.169-177.73-50.2-40.709-102.27-53.7-139.2-62.92A436.97,436.97,0,0,0,842.5,0Z" transform="translate(0 0)" fill="#ffb400"/>
  <g>
    <g>
      <path d="M654.222,405.294a29.15,29.15,0,1,1,29.15-29.149A29.183,29.183,0,0,1,654.222,405.294Z" transform="translate(0 0)" fill="#480000"/>
      <path d="M654.222,353.5a22.65,22.65,0,1,1-22.65,22.649,22.675,22.675,0,0,1,22.65-22.649m0-13a35.65,35.65,0,1,0,35.65,35.649,35.65,35.65,0,0,0-35.65-35.649Z" transform="translate(0 0)" fill="#480000"/>
    </g>
    <g>
      <path d="M654.222,2178.732a29.15,29.15,0,1,1,29.15-29.149A29.183,29.183,0,0,1,654.222,2178.732Z" transform="translate(0 0)" fill="#480000"/>
      <path d="M654.222,2126.932a22.65,22.65,0,1,1-22.65,22.65,22.676,22.676,0,0,1,22.65-22.65m0-13a35.65,35.65,0,1,0,35.65,35.65,35.65,35.65,0,0,0-35.65-35.65Z" transform="translate(0 0)" fill="#480000"/>
    </g>
    <g>
      <rect x="649.727" y="382.642" width="9" height="1760.44" fill="#480000"/>
      <polygon points="665.227 376.142 643.227 376.142 643.227 2149.582 665.227 2149.582 665.227 376.142 665.227 376.142" fill="#480000"/>
    </g>
    <g>
      <path d="M703.23,692.646c-16.363,0-33.33-.119-49.068-.345a4.5,4.5,0,0,1,.09-9c15.758.226,32.7.345,49.024.345,20.27,0,49.484-.188,73.553-1.087l.144-.007c26.988-1.608,55.574-4.434,81.779-14.15,32.92-12.2,61.241-36.171,77.7-65.777,19.651-35.315,26.184-79.463,32.5-122.158l.611-4.166c11.053-74.555.328-133.1-5.435-164.549-9.593-52.329-16.523-90.137-43.3-129.479l-.97-1.427C904.36,158.025,863.193,97.4,802.308,96.2c-.429-.009-.949-.015-1.549-.015-11.88,0-52.416,2.43-75.216,33.7-6.786,9.3-17.612,28.6-13.868,53.294,3.318,21.837,16.257,35.918,23.674,42.368,14.071,12.236,26.136,18.184,36.886,18.184a25.951,25.951,0,0,0,8.048-1.247c16.063-5.221,29.9-28.717,25.256-59a4.5,4.5,0,0,1,3.765-5.129,4.6,4.6,0,0,1,.7-.054,4.522,4.522,0,0,1,4.433,3.819c4.892,31.889-8.593,61.519-31.367,68.922a34.759,34.759,0,0,1-10.772,1.7c-12.866,0-27.28-6.862-42.843-20.4-8.353-7.263-22.926-23.134-26.675-47.818C698.55,156.646,710.67,135,718.271,124.58c25.3-34.694,69.744-37.39,82.763-37.39.559,0,1.047,0,1.458.013,65.536,1.29,108.6,64.714,124.812,88.59l.964,1.417c27.848,40.913,34.916,79.466,44.7,132.826,5.862,32,16.773,91.553,5.5,167.575l-.6,4.091c-6.441,43.53-13.1,88.551-33.55,125.3-17.488,31.454-47.536,56.91-82.439,69.841-27.329,10.132-56.761,13.054-84.5,14.7l-.171.008C753.078,692.456,723.652,692.646,703.23,692.646Z" transform="translate(0 0)" fill="#480000"/>
      <path d="M801.035,80.69c-12.886,0-60.7,2.6-88.015,40.059-8.19,11.228-21.245,34.569-16.668,64.754,4.061,26.739,19.8,43.894,28.836,51.747,16.826,14.633,32.612,21.991,47.108,21.991a41.041,41.041,0,0,0,12.781-2.019c25.77-8.376,41.153-41.088,35.782-76.089a11,11,0,0,0-21.745,3.336c4.067,26.509-7.65,47.544-20.841,51.832a19.4,19.4,0,0,1-6.038.928c-8.994,0-19.932-5.554-32.621-16.588-6.744-5.865-18.507-18.658-21.512-38.438-3.395-22.4,6.494-39.993,12.693-48.49,21.084-28.914,59.349-31.027,69.965-31.027.549,0,1.025.006,1.42.014,57.525,1.132,97.32,59.738,112.3,81.8l.972,1.431c26.006,38.206,32.826,75.409,42.282,126.993,5.7,31.08,16.294,88.934,5.4,162.436l-.608,4.156c-6.233,42.118-12.678,85.671-31.752,119.95-15.718,28.271-42.791,51.175-74.28,62.842-25.388,9.412-53.4,12.177-79.907,13.756-21.148.789-47.715,1.082-73.308,1.082-17.423,0-34.4-.136-48.894-.344h-.132a11,11,0,0,0-.183,22c14.571.209,31.627.346,49.161.346,25.906,0,52.848-.3,74.3-1.1l.241-.012c28.237-1.678,58.244-4.669,86.368-15.1,36.336-13.463,67.632-39.99,85.861-72.777,21.024-37.783,27.767-83.353,34.3-127.517l.6-4.078c11.429-77.086.4-137.272-5.539-169.7-9.925-54.145-17.1-93.265-45.716-135.309l-.961-1.413C915.953,147.5,871.514,82.06,802.61,80.7c-.445-.009-.971-.014-1.575-.014Z" transform="translate(0 0)" fill="#480000"/>
    </g>
    <path d="M579.617,783.141V329.961" transform="translate(0 0)" fill="none"/>
    <path d="M842.5,16a420.737,420.737,0,0,1,101.8,12.2c36.1,9.012,85.534,21.354,132.96,59.814,65.7,53.269,86.9,123.473,100.93,169.93a427.171,427.171,0,0,1,15.2,77.318,459.186,459.186,0,0,1-7.669,144.336c-5.361,24.971-16.517,76.931-46.63,124.568-22.211,35.127-53.271,65.057-92.317,88.959-31.114,19.046-67.269,34.3-107.46,45.354l-71.147,19.558,72.857,11.668c74.667,11.959,180.317,44.2,259.607,129.908,31.667,34.226,59.574,77.276,82.942,127.948,32.678,70.943,41.208,131.9,47.437,176.4,14.494,103.514,4.856,185.734.04,216.28-4.24,26.9-9.046,57.381-18.471,91.11a460.872,460.872,0,0,1-45.627,108.618c-26.395,45.539-86.8,130.218-194.787,185.681-20.952,10.76-44.7,22.956-72.315,32.564-31.635,11.008-62.062,16.358-93.02,16.358-7.967,0-16.077-.365-24.106-1.086a292.707,292.707,0,0,1-95.538-25.776,362.6,362.6,0,0,1-55.709-32.037,350.577,350.577,0,0,1-61.252-53.416v-10.653c19.556,12.024,39.426,23.433,59.334,34.063,58.858,31.424,80.948,36.421,98.509,38.843a208.406,208.406,0,0,0,28.627,1.962c55.107,0,99.458-21.723,115.966-31.062,80.357-45.443,107.669-124.582,129.628-188.208,30.189-87.477,30.431-159.22,30.665-228.6v-.056c.386-115.264-18.481-206.342-29.761-250.376-16.134-62.947-54.06-180.793-126.8-262.8-41.331-46.6-87.417-73.376-133.28-77.422-8.357-.734-15.284-.819-19.768-.819-.944,0-1.805,0-2.58.007H670.227V749.009c9.315.086,20.412.152,32.56.152,21.086,0,51.539-.2,76.876-1.161h.06l.48-.02.142-.006.141-.009c32.208-1.913,66.738-5.435,101.018-18.138,47.337-17.532,88.23-52.287,112.2-95.357,25.465-45.793,33.216-98.232,40.05-144.469l.614-4.1c12.637-85.26.639-150.75-5.809-185.95l-.014-.075c-10.616-57.921-19-103.67-53.576-154.48-20.594-30.254-75.3-110.616-169.99-114.636-2.345-.1-4.722-.15-7.066-.15-86.455,0-144.418,66.912-163.463,88.9-54.12,62.443-64.379,135.61-67.755,159.687a332.863,332.863,0,0,0-3.165,50.5l.091,453.455V1307.9c0,8.83-.008,17.383-.015,26.208-.016,18.814-.033,38.268.015,64.262.173,94.121.794,140.651,1.164,168.453.373,28,.473,35.531-.4,52.711-2.648,51.807-7.578,148.241-51.256,254.789q-9.741,23.767-21.469,46.83.274-6,.4-11.957c1.213-57.9-7.966-113.712-27.28-165.9-18.242-49.314-46-96.89-82.505-141.406a618.068,618.068,0,0,0-70.758-72.652,585.4,585.4,0,0,0-53.8-42.027,382.378,382.378,0,0,0,45.626-34.584c18.192-16.232,56.047-50.009,84.284-106.578,20.987-42.07,26.431-79.387,30.8-109.368,1.1-7.522,2.138-14.626,3.316-20.852,12.275-64.466,12.224-97.393,12.113-169.535l0-.832c-.059-43.372-.141-102.773,2.536-193.643l.029-1.095c.34-11.23.805-26.6.867-45.158l.07-22.42.049-15.942-15.942-.107-22.421-.15c-6.167-.041-13.388-.083-20.189-.083-38.488,0-64.172,1.415-89.621,8.873-3.742,1.093-7.368,2.225-11.035,3.377l-.051.015c-12.872,4.02-23.989,7.491-40.833,9.245a230.08,230.08,0,0,1-24.944,1.494c-20.317,0-38.455-3.313-53.92-9.851-16.315-6.889-29.38-17.5-39.633-28.843,2.821.179,5.474.288,8.057.288,7.882,0,18.273-.863,28.736-7.579,7.718-4.938,17.775-15.073,27.12-49.9a204.928,204.928,0,0,0,6.511-36,171.285,171.285,0,0,1,4.888-28.253c3.538-13.714,6.88-26.668,15.88-40.874,6.307-9.957,14.944-23.593,32.022-31.3a59.256,59.256,0,0,1,24.548-5.506,52.727,52.727,0,0,1,5.973.339c21.122,2.411,35.222,17.577,43.65,26.641,22.059,23.714,29.693,57.05,31.815,84.43a66.276,66.276,0,0,0-12.88-3.244l-.53-.079a80.053,80.053,0,0,0-12.3-1.059,51.256,51.256,0,0,0-29.337,8.6c-3.771,2.561-22.5,16.394-20.746,37.285.215,2.568,2.027,15.96,16.567,27.441,6.23,4.928,17.827,14.1,130.12,16.956l17.393.443L435.29,732.44c-1.09-18.685-2.67-37.666-4.7-56.422l-.015-.137c-4.057-37.451-6.506-60.056-15.261-90.291-8.62-29.833-31.52-109.078-104.665-169.929-27.406-22.792-64.941-54.006-116.67-54.007-3.984,0-8.045.186-12.067.553a136.59,136.59,0,0,0-47.649,13.417,46.6,46.6,0,0,1,3.235-8.476c7.643-15.308,22.1-22.349,38.837-30.505,21.2-10.335,39.915-12.085,51.1-13.131,4.362-.409,8.164-.608,11.622-.608a107.727,107.727,0,0,1,14.446,1.1,183.859,183.859,0,0,0,25.05,1.673c.672,0,1.359,0,2.053-.009,14.1-.119,57.01-.479,97.76-22.958,18.169-10.016,29.736-21.287,50.069-42.888,31.6-33.586,52.107-58.252,67.08-76.263,7.186-8.643,13.392-16.107,19.2-22.636,45.918-51.616,95.249-78.642,116.311-90.181a445.839,445.839,0,0,1,153.3-50.866A438.523,438.523,0,0,1,842.5,16m0-16a453.034,453.034,0,0,0-60.288,4.022c-23.82,3.2-87.72,13.73-158.86,52.689-23.4,12.821-73.76,40.951-120.581,93.581-18.559,20.86-39.829,49.519-85.979,98.569-20.54,21.82-30.45,31.19-46.14,39.84-36.42,20.091-75.89,20.85-90.17,20.97q-.982.011-1.919.009c-19.354,0-25.455-2.776-39.5-2.776-3.693,0-7.937.192-13.115.677-12.62,1.181-33.3,3.311-56.62,14.681-17.94,8.74-36.08,17.589-46.14,37.74-7.9,15.839-7.57,32.179-5.35,44.449,16.44-12.38,38.51-23.85,65.53-26.309q5.419-.495,10.616-.488c45.965,0,79.3,27.742,106.474,50.338,69.31,57.66,91.24,133.489,99.49,162.04,8.38,28.939,10.77,51.06,14.74,87.71,1.99,18.419,3.55,37.11,4.63,55.629-58.6-1.49-110.12-5.22-120.6-13.51-9.84-7.769-10.55-16.23-10.55-16.23-1.04-12.389,12.7-21.97,13.79-22.71a35.663,35.663,0,0,1,20.349-5.834,67.661,67.661,0,0,1,10.481.965c15.98,2.359,26.55,11.609,31.68,17.24,1.34-30.891-1.61-87.591-36.55-125.15-9.39-10.1-26.56-28.561-53.55-31.64a68.209,68.209,0,0,0-7.788-.443,75.748,75.748,0,0,0-31.152,6.933c-21.43,9.67-32.08,26.489-38.94,37.32-10.13,15.99-13.89,30.079-17.85,45.43-7.24,28.06-3.36,34.29-11.36,64.1-8.6,32.049-16.68,38.26-20.29,40.569-6.033,3.872-12.344,5.056-20.113,5.056-4.812,0-10.186-.455-16.4-1.006a165,165,0,0,1-26.12-4.439c12.73,22.98,34.12,50.49,67.87,64.74,21.11,8.925,42.969,11.111,60.143,11.111a245.147,245.147,0,0,0,26.617-1.581c18.44-1.921,30.85-5.8,43.98-9.9,3.47-1.089,7.05-2.21,10.75-3.289,24.017-7.039,48.455-8.233,85.137-8.233,6.311,0,12.987.036,20.083.082l22.42.151-.07,22.42c-.06,18.03-.5,32.849-.86,44.75l-.03,1.119c-2.7,91.661-2.6,151.351-2.54,194.931.11,71.1.16,103.549-11.83,166.52-1.23,6.5-2.3,13.8-3.43,21.529-4.21,28.86-9.45,64.77-29.29,104.54-26.88,53.851-63.2,86.24-80.65,101.81-18.1,16.15-39.77,31.551-64.7,46.021a569.388,569.388,0,0,1,72.98,54.51,602.585,602.585,0,0,1,68.96,70.79c35.36,43.119,62.24,89.149,79.869,136.81,18.621,50.309,27.461,104.15,26.291,160.009a511.16,511.16,0,0,1-9.49,86.76,654.392,654.392,0,0,0,61.36-115.23c43.81-106.869,49.47-202.129,52.43-260.039,1.79-35.08-.39-32.27-.74-222.01-.07-38.35,0-63.07,0-90.441V783.141l-.091-453.56a316.881,316.881,0,0,1,3.011-48.179c3.21-22.89,12.96-92.53,64-151.421,18.108-20.9,72.255-83.375,151.372-83.375,2.107,0,4.246.045,6.388.136,86.69,3.679,138.1,79.239,157.459,107.679,32.671,48.01,40.781,92.321,51.061,148.41,6.28,34.28,17.97,98.071,5.72,180.72l-.61,4.081c-6.64,44.919-14.171,95.829-38.21,139.059-22.13,39.77-59.951,71.9-103.77,88.131-32.33,11.98-65.441,15.329-96.41,17.17l-.48.02c-22.17.84-49.96,1.149-76.27,1.149-17.54,0-34.42-.139-48.56-.339v50.319H820.756c.775,0,1.641-.007,2.593-.007,4.448,0,10.774.09,18.368.757,41.71,3.681,84.14,28.611,122.71,72.1,70.53,79.52,107.5,194.629,123.27,256.159,11.09,43.29,29.64,132.861,29.26,246.351-.23,68.09-.46,138.5-29.79,223.49-21.07,61.05-47.28,137.03-122.38,179.5-16.74,9.469-57.43,28.989-108.09,28.989a191.36,191.36,0,0,1-26.421-1.81c-16.169-2.23-36.689-6.95-93.179-37.109-27.98-14.941-55.71-31.331-82.87-49v45.809a366.42,366.42,0,0,0,68.21,60.51c22.54,15.431,79.45,53.431,158.86,60.55,8.735.784,17.239,1.15,25.535,1.15,73.933,0,130.593-29.093,172.645-50.69,120.17-61.72,181.26-157.28,201.32-191.889,46.27-79.8,57.56-151.341,66.06-205.26,2.9-18.39,16.04-106.44,0-220.99-6.851-48.95-15.76-109.26-48.75-180.881-9.14-19.819-37.22-79.69-85.73-132.119-85.66-92.591-199.7-123.771-268.82-134.841,70.61-19.409,157.23-59.22,209.06-141.19,31.62-50.02,43.4-104.839,48.75-129.76,24.72-115.03-.93-206.7-7.861-229.64-14.24-47.15-36.659-121.37-106.169-177.73-50.2-40.709-102.27-53.7-139.2-62.92A436.97,436.97,0,0,0,842.5,0Z" transform="translate(0 0)" fill="#480000"/>
    <g>
      <path d="M889.5,1657.51c-50.506,0-86.47-26.65-100.008-36.683a195.057,195.057,0,0,1-32.716-29.945,164.287,164.287,0,0,1-33.944-62.621c-12.025-42.288-9.081-80.46,8.75-113.459,16.645-30.8,39.727-51.27,68.6-60.852a120.379,120.379,0,0,1,36.7-5.644,113.1,113.1,0,0,1,51.683,12.193c26.834,13.6,45.729,34.422,54.648,60.211,11.607,33.625,4.565,59.247-3.387,74.818-5.871,11.48-23.146,38.891-56.633,45.361a90.815,90.815,0,0,1-17.153,1.717c-17.4,0-32.105-5.759-42.524-16.654-13.727-14.35-23.055-38.9-11.1-58.9,8.07-13.5,23.308-21.557,40.761-21.557a56.545,56.545,0,0,1,7.762.54,4.5,4.5,0,0,1-.606,8.959,4.672,4.672,0,0,1-.634-.045,46.255,46.255,0,0,0-6.357-.443c-14.15,0-26.872,6.578-33.2,17.165-10.981,18.369,1.66,39.469,9.879,48.06,8.657,9.053,21.157,13.838,36.149,13.838a80.987,80.987,0,0,0,15.315-1.516c29.6-5.72,45.057-30.313,50.328-40.621,7.158-14.015,13.469-37.146,2.9-67.768-8.143-23.548-25.508-42.614-50.218-55.139a104.332,104.332,0,0,0-47.672-11.263,109.4,109.4,0,0,0-33.8,5.23c-40.132,13.316-57.733,45.883-63.517,56.584-16.678,30.866-19.374,66.773-8.014,106.725,14.683,51.7,51.32,78.868,63.359,87.794,14.113,10.457,47.127,34.918,94.544,34.918,2.111,0,4.256-.049,6.375-.146,46.936-2.147,77.961-27.286,89.639-36.751,36.747-29.774,49.874-65.357,62.571-99.768,26.57-71.981,21.609-152.679,17.622-217.52-3.715-60.274-12.411-117.432-25.848-169.89-11.8-46.049-46.361-161.187-112.356-235.6-20.939-23.607-53.554-52.423-90.029-55.633-5.828-.516-10.58-.576-13.647-.576-.985,0-1.881.007-2.687.014h-166.8a4.5,4.5,0,0,1,0-9H821c.836-.006,1.718-.013,2.708-.013,3.245,0,8.275.063,14.448.61,39.423,3.469,73.949,33.8,95.97,58.627,67.3,75.878,102.382,192.654,114.343,239.339,13.578,53.012,22.363,110.737,26.113,171.57,4.038,65.691,9.063,147.435-18.161,221.185-12.506,33.9-26.68,72.315-65.349,103.649-11.132,9.02-45,36.467-94.9,38.748-2.209.1-4.454.153-6.676.153Z" transform="translate(0 0)" fill="#480000"/>
      <path d="M823.705,817.129c-1.017,0-1.923.007-2.708.013H654.227a11,11,0,0,0,0,22H821.079c.79-.006,1.669-.013,2.635-.013,3.364,0,7.775.082,13.079.551,34.345,3.022,65.579,30.746,85.734,53.471,65.053,73.351,99.244,187.31,110.923,232.9,13.336,52.064,21.968,108.815,25.658,168.675,3.949,64.234,8.864,144.174-17.232,214.868-12.392,33.589-25.206,68.322-60.565,96.972-11.225,9.1-41.043,33.259-85.847,35.308q-3.08.141-6.076.139c-45.284,0-76.857-23.4-90.67-33.637-11.6-8.6-46.9-34.776-60.981-84.353-10.88-38.265-8.365-72.532,7.48-101.856,5.481-10.141,22.161-41,59.848-53.507a103.521,103.521,0,0,1,31.754-4.9,98.205,98.205,0,0,1,44.734,10.561c23.176,11.748,39.431,29.54,47.012,51.462,9.824,28.46,4.039,49.8-2.542,62.688-4.837,9.46-18.981,32.021-45.774,37.2a75.053,75.053,0,0,1-14.081,1.4c-10.423,0-22.533-2.5-31.453-11.83-8.175-8.546-17.318-26.313-9-40.232,5.214-8.721,15.894-14,27.622-14a39.7,39.7,0,0,1,5.463.38,11,11,0,0,0,3.028-21.791,62.994,62.994,0,0,0-8.657-.6c-19.447,0-37.051,9.187-46.339,24.723-13.7,22.919-3.392,50.656,11.982,66.727,11.74,12.277,28.117,18.662,47.221,18.662a96.927,96.927,0,0,0,18.386-1.835c36.3-7.014,54.881-36.451,61.189-48.787,8.526-16.695,16.1-44.105,3.741-79.9-9.481-27.415-29.486-49.505-57.85-63.884a119.921,119.921,0,0,0-54.624-12.9,126.379,126.379,0,0,0-38.748,5.975c-30.5,10.12-54.812,31.627-72.273,63.931-18.664,34.542-21.787,74.354-9.284,118.325a170.743,170.743,0,0,0,35.271,65.086,201.24,201.24,0,0,0,33.772,30.926c14.281,10.583,51.226,37.962,103.878,37.961q3.441,0,6.973-.16c52.029-2.379,87.151-30.84,98.692-40.191,40.056-32.457,54.56-71.767,67.355-106.448,27.7-75.038,22.626-157.542,18.551-223.836-3.775-61.245-12.625-119.377-26.3-172.784-12.078-47.14-47.536-165.094-115.777-242.038-22.8-25.714-58.711-57.133-100.26-60.789-6.17-.546-11.328-.635-15.021-.635Z" transform="translate(0 0)" fill="#480000"/>
    </g>
    <g>
      <path d="M252.878,2058.455c-6.035,0-10.779-.31-13.7-.57-33.735-3-65.009-15.622-92.953-37.518a212.328,212.328,0,0,1-40.283-41.876,215.441,215.441,0,0,1-27.069-46.837c-12.055-29.208-15.568-58.366-10.442-86.664,2.843-15.7,11.5-63.49,53.687-86a93.919,93.919,0,0,1,44.719-10.9,103.537,103.537,0,0,1,25.635,3.174c9.365,2.425,37.867,9.805,55.123,37.636,16.537,26.671,16.494,62.319-.105,86.69-12.158,17.856-26.171,27.293-40.523,27.294a33.281,33.281,0,0,1-3.513-.186c-20.473-2.169-37.587-22.79-40.695-49.033a4.5,4.5,0,0,1,3.94-5,4.4,4.4,0,0,1,.547-.034,4.492,4.492,0,0,1,4.45,3.973c2.966,25.05,18.7,39.658,32.7,41.143a23.875,23.875,0,0,0,2.491.131c11.452,0,22.609-7.859,33.16-23.356,14.66-21.523,14.617-53.139-.1-76.882-15.357-24.767-41.229-31.464-49.73-33.665a95.063,95.063,0,0,0-23.259-2.828,85.259,85.259,0,0,0-40.6,9.782c-38.348,20.462-46.417,65.023-49.069,79.666-7.541,41.631,4.533,84.2,35.887,126.539,33.459,45.182,77.306,71.389,126.8,75.788,2.821.251,7.4.551,13.172.551,23.158,0,67.892-4.844,107.3-37.29,50.414-41.509,57.825-99.626,60.26-118.723,4.107-32.209-.916-56.591-6.234-82.407A363.085,363.085,0,0,0,373.5,1703.242l-.569-.94c-25.714-43.656-60.959-85.368-104.707-123.9a522.3,522.3,0,0,0-99.279-68.717l-36.877-19.665-2.963,1.414c-10.888,5.2-48.455,22.157-74.763,22.157-26.826,0-47.839-12.569-47.839-28.616s21.013-28.607,47.838-28.616c27.055,0,61.464,15.479,75,22.135l2.853,1.4,37.641-18.314c36.607-17.811,66.843-37.257,89.869-57.8,16.314-14.554,46.677-41.64,69.318-86.983,16.294-32.658,20.7-62.893,24.6-89.569,1.207-8.278,2.346-16.087,3.784-23.647,11.111-58.352,11.066-87.285,10.958-157.182-.068-43.911-.161-104.036,2.559-196.476l.033-1.135q.137-4.56.281-9.664l.185-6.767-6.768.089c-22.636.3-40.994,1.459-57.011,6.152-3.247.952-6.427,1.945-9.794,3l-.123.039c-14.174,4.428-30.244,9.449-53.591,11.888a290.542,290.542,0,0,1-31.358,1.814c-29.445,0-56.3-5.039-79.816-14.978C99.75,826.33,71.836,802.3,49.988,768.926A4.5,4.5,0,1,1,57.517,764c20.853,31.849,47.413,54.753,78.943,68.075,22.384,9.46,48.071,14.256,76.347,14.256a280.825,280.825,0,0,0,30.376-1.752c22.472-2.347,38.087-7.226,51.864-11.531l.11-.035c3.432-1.071,6.644-2.074,9.951-3.044,18.568-5.441,40.054-6.537,70.892-6.594l4.6-.008-.1,4.6c-.164,7.866-.373,14.857-.557,21.025l-.035,1.2c-2.716,92.316-2.623,152.354-2.555,196.192.108,70.507.154,99.689-11.116,158.882-1.4,7.378-2.529,15.093-3.72,23.26-3.989,27.346-8.511,58.341-25.45,92.293-23.415,46.893-54.617,74.725-71.381,89.679-23.641,21.091-54.567,41-91.922,59.176l-31.757,15.451,31.162,16.618a531.092,531.092,0,0,1,100.993,69.9c44.441,39.143,80.281,81.568,106.523,126.1l.573.949a372.113,372.113,0,0,1,42.024,110.536c5.233,25.4,10.643,51.669,6.347,85.36-2.547,19.974-10.3,80.756-63.467,124.537-41.554,34.213-88.817,39.324-113.291,39.325ZM54.34,1465.36c-21.053.007-38.84,8.99-38.84,19.616s17.786,19.616,38.839,19.616c13.383,0,31.482-4.623,53.8-13.739l14.657-5.989-14.637-6.037c-14.893-6.144-36.316-13.467-53.794-13.467Z" transform="translate(0 0)" fill="#480000"/>
      <path d="M53.743,755.46a11,11,0,0,0-9.194,17.026c22.568,34.47,51.462,59.321,85.877,73.863,29.7,12.551,59.753,15.49,82.347,15.49a295.181,295.181,0,0,0,32.034-1.849c23.992-2.506,40.393-7.631,54.861-12.151l.115-.036c3.343-1.044,6.5-2.03,9.683-2.963,14.558-4.265,31.771-5.581,55.269-5.89q-.139,5.1-.28,9.649l-.034,1.137c-2.722,92.545-2.629,152.729-2.561,196.674.107,69.462.152,98.214-10.843,155.961-1.465,7.7-2.614,15.58-3.831,23.923-3.821,26.192-8.153,55.879-23.98,87.6-22.085,44.23-51.843,70.774-67.83,85.036-22.579,20.143-52.316,39.255-88.386,56.805l-34.782,16.924c-13.366-6.571-49.278-22.8-77.85-22.8h-.022C23.359,1449.87,0,1464.966,0,1484.976s23.361,35.116,54.339,35.116c27.1,0,63.9-16.267,77.563-22.791l33.981,18.12a515.745,515.745,0,0,1,98.041,67.86c43.232,38.076,78.038,79.257,103.45,122.4l.487.8a356.57,356.57,0,0,1,40.246,105.88c5.206,25.269,10.123,49.139,6.153,80.272-2.354,18.465-9.518,74.659-57.943,114.531-37.585,30.945-80.167,35.807-103.167,35.807-5.369,0-9.675-.265-12.6-.525-47.592-4.231-89.832-29.536-122.154-73.182-30.243-40.835-41.922-81.718-34.714-121.512,2.513-13.877,10.161-56.109,45.733-75.09a79.452,79.452,0,0,1,37.542-9.017,88.683,88.683,0,0,1,21.63,2.621c7.878,2.039,31.852,8.246,45.834,30.8,13.41,21.629,13.516,50.331.257,69.8-9.174,13.473-18.738,20.513-27.788,20.513a17.268,17.268,0,0,1-1.806-.094c-11.162-1.183-24.4-14.007-26.934-35.444a11,11,0,0,0-21.847,2.588c3.461,29.229,23,52.247,46.464,54.733a39.891,39.891,0,0,0,4.2.222c12.439,0,29.356-5.845,45.9-30.134,18-26.428,18.1-64.99.257-93.776-18.629-30.045-49.029-37.916-59.02-40.5a110.661,110.661,0,0,0-27.263-3.381,100.892,100.892,0,0,0-47.779,11.666c-44.965,23.994-54.041,74.111-57.023,90.58-5.351,29.543-1.707,59.924,10.83,90.3a221.56,221.56,0,0,0,27.853,48.225,218.529,218.529,0,0,0,41.5,43.125c28.95,22.685,61.379,35.765,96.386,38.877,3.314.3,8.186.595,14.273.595,26.135,0,74.585-5.537,117.422-40.807,55.162-45.419,63.157-108.127,65.784-128.732,4.433-34.767-1.089-61.572-6.429-87.495a378.6,378.6,0,0,0-42.791-112.527l-.572-.946c-26.591-45.123-62.87-88.08-107.828-127.678a537.723,537.723,0,0,0-102.229-70.761l-19.909-10.617,20.289-9.871c37.891-18.436,69.318-38.681,93.406-60.171,17.088-15.243,48.9-43.617,72.869-91.628,17.4-34.883,22.006-66.424,26.066-94.256,1.181-8.1,2.3-15.749,3.673-22.982,11.386-59.8,11.34-89.166,11.231-160.107-.068-43.8-.161-103.789,2.552-195.991l.035-1.2c.185-6.2.395-13.225.559-21.083l.235-11.25-11.253.02c-31.424.058-53.4,1.2-72.709,6.857-3.37.987-6.617,2-10.055,3.075l-.116.036c-13.488,4.215-28.775,8.992-50.591,11.27a273.771,273.771,0,0,1-29.71,1.718c-20.5,0-47.516-2.628-73.818-13.743-30.319-12.811-55.9-34.9-76.034-65.648a10.987,10.987,0,0,0-9.212-4.976Zm.6,742.632c-20.061,0-32.339-8.492-32.339-13.116s12.279-13.109,32.342-13.116h.018c16.191,0,36.367,6.809,51.316,12.975-15.316,6.258-35.9,13.257-51.337,13.257Z" transform="translate(0 0)" fill="#480000"/>
    </g>
  </g>
</svg>
