<?xml version="1.0" encoding="iso-8859-1"?>
<!-- Generator: Adobe Illustrator 24.0.1, SVG Export Plug-In . SVG Version: 6.00 Build 0)  -->
<svg version="1.1" xmlns="http://www.w3.org/2000/svg" xmlns:xlink="http://www.w3.org/1999/xlink" x="0px" y="0px"
	 viewBox="0 0 1306.819 2212.906" style="enable-background:new 0 0 1306.819 2212.906;" xml:space="preserve">
<g id="Layer_5">
	<circle style="display:none;" cx="666.631" cy="896.39" r="35.65"/>
	<circle style="display:none;" cx="666.631" cy="2177.256" r="35.65"/>
	<g style="display:none;">
		<rect x="655.629" y="896.386" style="display:inline;" width="22" height="1280.87"/>
	</g>
	<g style="display:none;">
		<path style="display:inline;" d="M1088.302,504.59c-68.35,0-121.709-35.15-179.219-77.565
			c-30.896-22.786-60.346-47.68-87.533-73.993c-100.54-97.304-170.306-214.646-201.756-339.34c-1.486-5.89,2.085-11.87,7.976-13.356
			c5.891-1.483,11.871,2.085,13.356,7.976c30.449,120.722,98.129,234.458,195.724,328.912c26.485,25.633,55.182,49.89,85.292,72.096
			c57.927,42.722,107.377,75.242,171.874,73.179c18.96-0.605,69.323-2.214,102.259-40.753c16.162-18.912,25.239-43.5,26.25-71.105
			c1.366-37.372-9.195-66.131-31.394-85.479c-7.528-6.562-34.827-27.492-69.975-21.315c-23.363,4.105-39.77,14.493-48.766,30.874
			c-0.143,0.263-14.704,27.66-1.144,53.656c4.193,8.039,15.919,26.734,34.179,26.734c0.005,0,0.007,0,0.011,0
			c13.88-0.005,24.05-10.538,26.836-13.766c3.969-4.599,10.914-5.11,15.515-1.14c4.599,3.97,5.109,10.916,1.14,15.515
			c-5.549,6.429-20.894,21.382-43.48,21.391c-0.007,0-0.015,0-0.021,0c-21.335,0-40.9-14.053-53.685-38.559
			c-19.015-36.453,0.522-72.883,1.364-74.417c8.504-15.487,26.551-35.333,64.243-41.957c44.751-7.863,78.852,18.218,88.237,26.399
			c18.871,16.448,40.943,47.646,38.923,102.866c-1.193,32.619-12.089,61.871-31.51,84.595
			c-39.247,45.925-98.733,47.824-118.281,48.448C1092.567,504.556,1090.422,504.59,1088.302,504.59z"/>
	</g>
	<linearGradient id="SVGID_1_" gradientUnits="userSpaceOnUse" x1="946.7822" y1="1281.9705" x2="974.5601" y2="-45.8074">
		<stop  offset="0" style="stop-color:#8B1D1A"/>
		<stop  offset="0.25" style="stop-color:#550000"/>
		<stop  offset="0.5" style="stop-color:#3A0000"/>
		<stop  offset="0.75" style="stop-color:#1E0000"/>
		<stop  offset="1" style="stop-color:#000000"/>
	</linearGradient>
	<path style="fill:url(#SVGID_1_);" d="M751.959,2082.285c0,0,0,0,0.01,0c59.2-6.12,122.61-23.54,182.83-61.1
		c23.7-14.78,104.91-66.9,150.99-167.77c15.1-33.05,35.03-78.18,27.96-137.01c-2.88-24.06-16.63-103.22-89.47-150.99
		c-11.02-7.23-91.81-58.26-178.95-19.57c-42.83,19.01-68.44,51.37-82.77,76.26c18.35-7.17,44.19-13.33,74.38-9.16
		c59.46,8.23,92.41,50.56,100.66,61.52c36.56,48.57,32.98,103.17,30.76,137.01c-4.02,61.22-28.6,104.72-39.15,123.03
		c-48.06,83.45-125.81,126.72-177.24,147.78C751.959,2082.285,751.959,2082.285,751.959,2082.285z"/>
	<linearGradient id="SVGID_2_" gradientUnits="userSpaceOnUse" x1="642.9503" y1="1275.6141" x2="670.7281" y2="-52.1637">
		<stop  offset="0" style="stop-color:#8B1D1A"/>
		<stop  offset="0.25" style="stop-color:#550000"/>
		<stop  offset="0.5" style="stop-color:#3A0000"/>
		<stop  offset="0.75" style="stop-color:#1E0000"/>
		<stop  offset="1" style="stop-color:#000000"/>
	</linearGradient>
	<path style="fill:url(#SVGID_2_);" d="M666.629,2084.045c-75.5-4.34-134.9-22.57-156.84-29.31
		c-23.97-7.36-137.31-43.85-243.26-145.4c-84.73-81.21-124-164.98-159.38-240.47c-9.15-19.52-52.39-113.36-81.09-251.65
		c-7.33-35.34-30.93-156.54-25.16-338.33c4.38-138.2,9.52-299.93,83.88-492.11c45.68-118.04,111.01-286.88,282.41-413.83
		c84.41-62.52,168.34-95.47,230.22-113.57c36.7,116.82,105.48,226.12,200.49,318.09c28.28,27.36,58.89,53.24,91,76.92
		c47.69,35.17,120.76,82.15,204.42,84.09c1.83,0.05,3.64,0.07,5.47,0.07c50.55,0,100.97-16.26,146.14-47.19
		c23.17-15.86,44.12-35.2,61.89-56.88c-2.67,19.22-7.8,37.84-15.51,55.48c-40.33,92.25-139.86,131.63-183.5,148.89
		c-66.3,26.24-123.1,27.5-144.7,27.27c-16.22-0.18-88.59-2.02-170.91-42.99c-33.25-16.55-61.41-39.57-116.39-84.94
		c-70.21-57.94-109.09-95.89-179.3-159.37c-24.81-22.43-58.96-52.96-100.69-89.16c-44.05,38.59-78.91,85.12-105.93,141.17
		c-28.04,58.18-47.6,127.37-59.77,211.52c-14.72,101.7-21.65,206.84-21.18,321.43c0.4,99.95,6.48,204.99,18.57,321.14
		c14.61,140.27,38.25,304.16,102.86,456.22c32.91,77.46,70.91,136.89,116.19,181.69c34.3,33.95,72.75,59.13,114.28,74.83
		c31.71,12,64.14,18.02,96.82,18.02c2.99,0,5.98-0.05,8.97-0.16V2084.045z"/>
	<g style="display:none;">
		<path style="display:inline;" d="M657.688,1981.661c-66.994,0-132.397-28.751-187.213-82.998
			c-42.075-41.64-77.668-97.515-108.814-170.818c-62.853-147.927-85.99-308.694-100.334-446.447
			c-25.155-241.584-24.357-449.026,2.438-634.182c3.571-24.676,7.863-48.337,12.757-70.328l0.223-0.942
			c5.155-27.818,13.914-54.486,26.039-79.286c13.518-27.648,27.495-56.234,59.191-76.444c13.942-8.889,39.893-25.434,69.825-16.659
			c24.431,7.164,49.398,30.805,49.845,62.127c0.473,33.167-26.888,52.604-30.01,54.711c-20.161,13.611-41.524,12.117-49.775,10.841
			c-6.004-0.927-10.12-6.546-9.192-12.55c0.928-6.004,6.55-10.119,12.55-9.192c5.687,0.88,20.396,1.923,34.108-7.333
			c0.843-0.569,20.634-14.184,20.321-36.163c-0.292-20.447-17.755-36.555-34.038-41.329c-20.342-5.964-39.276,6.109-51.807,14.098
			c-26.479,16.882-38.513,41.496-51.254,67.554c-11.398,23.313-19.594,48.43-24.36,74.656l-0.198,1.088l-0.187,0.466
			c-4.695,21.209-8.821,44.028-12.267,67.835c-26.532,183.333-27.294,389-2.33,628.751c14.174,136.13,36.985,294.875,98.7,440.123
			c30.006,70.621,64.039,124.195,104.042,163.785c59.269,58.653,131.515,85.027,203.426,74.267l0.494-0.063l7.875-0.816
			c35.317-3.986,68.891-14.497,99.689-31.229c24.826-13.487,71.037-38.594,95.959-91.488c7.206-15.291,29.133-61.823,10.205-109.757
			c-4.268-10.81-15.604-39.521-45.269-51.512c-7.48-3.022-33.898-11.772-59.746,2.566c-5.941,3.295-25.756,15.92-31.316,40.037
			c-4.129,17.906-2.152,31.543,5.875,40.531c6.656,7.453,17.567,12.039,29.187,12.268c9.838,0.2,18.562-2.864,23.901-8.391
			c5.506-5.696,7.072-13.607,7.417-19.241c0.371-6.064,5.58-10.67,11.651-10.308c6.063,0.371,10.679,5.587,10.308,11.651
			c-0.818,13.381-5.506,24.856-13.556,33.187c-9.577,9.908-24.202,15.391-40.155,15.098c-17.624-0.348-34.507-7.678-45.163-19.609
			c-13.062-14.626-16.73-34.856-10.903-60.129c7.603-32.974,34.132-49.923,42.083-54.332c34.367-19.065,68.896-7.671,78.661-3.726
			c38.418,15.527,52.771,51.883,57.488,63.83c9.594,24.296,11.537,50.991,5.774,79.342c-4.564,22.457-12.653,39.622-16.541,47.871
			c-27.992,59.41-78.32,86.754-105.358,101.443c-33.301,18.091-69.578,29.453-107.824,33.77l-7.727,0.802
			C680.803,1980.808,669.222,1981.661,657.688,1981.661z"/>
	</g>
</g>
<g id="Layer_9">
	<g>
		<path style="fill:#BFCBC2;" d="M110.732,1028.284c-17.583,40.385-81.15,17.832-65.996-33.819
			c17.107-53.964,95.311-42.665,112.911,6.31c38.589,112.567-96.784,129.26-83.254,200.476
			c8.715,51.508,85.535,32.521,57.746-17.405c31.341,27.178,2.623,76.228-43.404,66.276
			c-87.37-34.663-37.823-125.257,13.126-166.457c12.892-14.761,22.238-29.197,24.008-50.194c4.222-31.91-37.049-65.319-60.036-31.11
			C49.515,1033.609,91.737,1054.424,110.732,1028.284z"/>
	</g>
	<g>
		<path style="fill:#BFCBC2;" d="M162.024,1485.937c-91.819-68.44-29.252-152.086-48.646-190.123
			c-22.809-45.282-109.322-103.569-41.093-149.757c-53.749,59.044,58.108,94.941,69.215,149.61
			C149.332,1383.111,102.536,1411.778,162.024,1485.937z"/>
	</g>
	<g>
		<path style="fill:#BFCBC2;" d="M173.118,1160.889c-117.963-50.276,35.51-153.597-87.478-187.81
			c41.077-6.4,76.329,35.467,67.085,75.275C135.465,1094.034,129.724,1130.331,173.118,1160.889z"/>
	</g>
	<g>
		<path style="fill:#BFCBC2;" d="M81.431,758.714c-25.291-31.496,8.64-79.45,51.659-69.773
			c57.573,11.95,66.624,83.674,33.858,122.792c-15.608,21.512-40.875,31.557-61.561,48.118
			c-22.037,15.937-49.133,75.978-11.049,99.254c37.642,11.755,63.049-39.303,49.709-69.825
			c57.421,107.852-130.176,148.009-99.184-4.767c6.261-21.255,18.604-41.968,38.071-57.516
			C253.427,735.49,61.861,651.851,81.431,758.714z"/>
	</g>
	<g>
		<path style="fill:#BFCBC2;" d="M211.943,519.025C83.651,665.673,191.932,688.899,163.9,745.24
			C174.967,699.953,54.975,630.509,211.943,519.025z"/>
	</g>
	<g>
		<path style="fill:#BFCBC2;" d="M1100.976,1722.581c-61.524,44.293-46.727,141.666-105.326,190.567
			C1025.043,1851.399,1016.764,1743.148,1100.976,1722.581z"/>
	</g>
	<g>
		<path style="fill:#BFCBC2;" d="M970.548,1707.828c67.138,38.927,83.401,93.875,50.679,159.075
			C1026.048,1779.79,1013.694,1768.879,970.548,1707.828z"/>
	</g>
	<g>
		<path style="fill:#BFCBC2;" d="M1077.684,1636.409c-69.175,76.574-22.371,127.189-43.57,182.798
			C1019.803,1742.222,992.797,1678.881,1077.684,1636.409z"/>
	</g>
	<g>
		<path style="fill:#BFCBC2;" d="M966.356,1651.074c8.064,14.989,30.161,20.225,43.94,32.305
			c31.301,25.966,39.43,73.242,18.767,106.866C1034.53,1687.664,972.461,1691.419,966.356,1651.074z"/>
	</g>
	<g>
		<path style="fill:#BFCBC2;" d="M1040.647,1595.395c-46.104,36.456,6.516,101.553-7.344,148.324
			C1022.803,1698.647,973.471,1618.507,1040.647,1595.395z"/>
	</g>
	<g>
		<path style="fill:#BFCBC2;" d="M1082.097,1676.427c-27.456,35.125-46.333,82.517-48.936,129.273
			C1015.7,1760.248,1036.058,1700.185,1082.097,1676.427z"/>
	</g>
	<g>
		<path style="fill:#BFCBC2;" d="M909.433,1614.544c17.109,12.676,42.648,4.273,64.472,12.142
			c37.551,12.541,61.412,53.196,51.637,90.963C998.342,1616.286,931.394,1651.264,909.433,1614.544z"/>
	</g>
	<g>
		<path style="fill:#BFCBC2;" d="M964.789,1556.835c-29.06,69.813,59.158,76.939,55.439,127.584
			C1010.898,1650.117,905.824,1625.194,964.789,1556.835z"/>
	</g>
	<g>
		<path style="fill:#BFCBC2;" d="M885.97,453.266c19.815,73.04,76.496,139.425,149.559,169.3
			C946.844,636.379,859.675,550.925,885.97,453.266z"/>
	</g>
	<g>
		<path style="fill:#BFCBC2;" d="M804.189,372.669c-4.599,100.773,41.219,204.448,126.025,268.24
			C807.084,627.805,732.279,482.363,804.189,372.669z"/>
	</g>
	<g>
		<path style="fill:#BFCBC2;" d="M726.608,312.585c0.439,93.974,21.01,191.061,61.139,279.304
			C699.427,533.491,669.297,404.621,726.608,312.585z"/>
	</g>
	<g>
		<path style="fill:#BFCBC2;" d="M653.981,194.68c-4.087,107.635,7.446,218.77,34.69,324.9
			C601.504,436.389,586.598,293.399,653.981,194.68z"/>
	</g>
	<g>
		<path style="fill:#BFCBC2;" d="M584.644,112.735c-9.511,108.497-4.742,220.944,14.854,329.923
			C518.083,352.669,511.962,208.679,584.644,112.735z"/>
	</g>
	<g>
		<path style="fill:#BFCBC2;" d="M493.081,103.177c-24.692,88.542,15.2,186.919,36.863,272.799
			C456.567,307.66,412.969,184.816,493.081,103.177z"/>
	</g>
</g>
<g id="Layer_4">
	<circle style="display:none;" cx="666.631" cy="896.39" r="35.65"/>
	<circle style="display:none;" cx="666.631" cy="2177.256" r="35.65"/>
	<g style="display:none;">
		<rect x="655.629" y="896.386" style="display:inline;" width="22" height="1280.87"/>
	</g>
	<g style="display:none;">
		<path style="display:inline;" d="M1088.302,504.59c-68.35,0-121.709-35.15-179.219-77.565
			c-30.896-22.786-60.346-47.68-87.533-73.993c-100.54-97.304-170.306-214.646-201.756-339.34c-1.486-5.89,2.085-11.87,7.976-13.356
			c5.891-1.483,11.871,2.085,13.356,7.976c30.449,120.722,98.129,234.458,195.724,328.912c26.485,25.633,55.182,49.89,85.292,72.096
			c57.927,42.722,107.377,75.242,171.874,73.179c18.96-0.605,69.323-2.214,102.259-40.753c16.162-18.912,25.239-43.5,26.25-71.105
			c1.366-37.372-9.195-66.131-31.394-85.479c-7.528-6.562-34.827-27.492-69.975-21.315c-23.363,4.105-39.77,14.493-48.766,30.874
			c-0.143,0.263-14.704,27.66-1.144,53.656c4.193,8.039,15.919,26.734,34.179,26.734c0.005,0,0.007,0,0.011,0
			c13.88-0.005,24.05-10.538,26.836-13.766c3.969-4.599,10.914-5.11,15.515-1.14c4.599,3.97,5.109,10.916,1.14,15.515
			c-5.549,6.429-20.894,21.382-43.48,21.391c-0.007,0-0.015,0-0.021,0c-21.335,0-40.9-14.053-53.685-38.559
			c-19.015-36.453,0.522-72.883,1.364-74.417c8.504-15.487,26.551-35.333,64.243-41.957c44.751-7.863,78.852,18.218,88.237,26.399
			c18.871,16.448,40.943,47.646,38.923,102.866c-1.193,32.619-12.089,61.871-31.51,84.595
			c-39.247,45.925-98.733,47.824-118.281,48.448C1092.567,504.556,1090.422,504.59,1088.302,504.59z"/>
	</g>
	<g>
		<path style="fill:#FFB400;" d="M913.22,1566.5L913.22,1566.5c46.552,0.001,84.688,23.474,91.865,28.183
			c57.635,37.798,70.889,100.625,73.914,125.899c6.04,50.255-11.927,89.577-25.045,118.291
			c-17.746,38.845-43.355,74.273-76.118,105.299c-10.037,9.505-19.661,17.588-28.529,24.446c3.524-5.381,6.938-10.925,10.228-16.638
			c10.703-18.575,39.133-67.917,43.749-138.212c2.325-35.437,6.652-101.399-37.722-160.35
			c-28.746-38.188-67.985-63.771-111.53-72.99c1.793-0.896,3.626-1.76,5.499-2.592C876.471,1570.313,894.534,1566.5,913.22,1566.5
			 M913.22,1531.5c-21.339,0-44.383,3.908-67.891,14.345c-42.83,19.01-68.44,51.37-82.77,76.26
			c14.229-5.56,32.961-10.512,54.732-10.512c6.306,0,12.867,0.416,19.648,1.352c59.46,8.23,92.41,50.56,100.66,61.52
			c36.56,48.57,32.98,103.17,30.76,137.01c-4.02,61.22-28.6,104.72-39.15,123.03c-48.06,83.45-125.81,126.72-177.24,147.78
			c59.2-6.12,122.61-23.54,182.83-61.1c23.7-14.78,104.91-66.9,150.99-167.77c15.1-33.05,35.03-78.18,27.96-137.01
			c-2.88-24.06-16.63-103.22-89.47-150.99C1016.232,1560.136,970.979,1531.501,913.22,1531.5L913.22,1531.5z M751.969,2082.286
			c-0.01,0-0.01,0-0.01,0S751.959,2082.286,751.969,2082.286L751.969,2082.286z"/>
	</g>
	<g>
		<path style="fill:#FFB400;" d="M575.357,103.086c40.461,109.729,108.489,212.688,198.206,299.535
			c29.419,28.462,61.234,55.355,94.563,79.934c51.499,37.979,130.771,88.718,224.31,90.911c2.023,0.054,4.102,0.081,6.354,0.081
			c30.221,0,60.377-5.073,89.572-14.931c-2.27,1.607-4.587,3.197-6.945,4.766c-32.316,21.497-64.911,34.388-86.486,42.921
			c-51.863,20.526-98.238,24.835-128.009,24.835c-1.239,0-2.386-0.008-3.423-0.019c-23.583-0.262-85.965-4.617-155.702-39.325
			c-29.1-14.484-54.663-35.177-109.709-80.602c-50.762-41.891-84.492-72.795-127.196-111.921
			c-15.768-14.447-32.073-29.387-50.909-46.417c-33.061-29.889-67.118-60.047-101.227-89.636l-23.048-19.994l-22.95,20.106
			c-47.73,41.814-85.149,91.631-114.396,152.301c-29.627,61.472-50.195,133.993-62.88,221.702
			c-14.972,103.439-22.018,210.267-21.541,326.584c0.404,101.062,6.54,207.248,18.758,324.626
			c14.88,142.86,39.045,309.976,105.459,466.28c34.727,81.738,75.218,144.831,123.782,192.879
			c35.757,35.393,75.764,62.195,119.017,79.751c-8.786-2.455-15.839-4.622-20.892-6.174
			c-38.117-11.704-136.764-48.502-229.315-137.21c-35.653-34.172-65.933-71.918-92.57-115.396
			c-23.822-38.882-41.876-77.405-59.337-114.661c-15.049-32.105-52.825-120.14-78.51-243.903
			c-7.162-34.529-12.709-70.782-16.959-110.831c-7.38-69.555-9.9-143.332-7.49-219.282c4.367-137.774,9.316-293.93,81.549-480.613
			c22.064-57.015,49.524-127.973,91.473-198.258c48.504-81.269,107.094-146.707,179.118-200.052
			C444.432,159.289,507.318,126.409,575.357,103.086 M597.409,59.376c-61.88,18.1-145.81,51.05-230.22,113.57
			c-171.4,126.95-236.73,295.79-282.41,413.83c-74.36,192.18-79.5,353.91-83.88,492.11c-5.77,181.79,17.83,302.99,25.16,338.33
			c28.7,138.29,71.94,232.13,81.09,251.65c35.38,75.49,74.65,159.26,159.38,240.47c105.95,101.55,219.29,138.04,243.26,145.4
			c21.94,6.74,81.34,24.97,156.84,29.31v-68.53c-2.99,0.11-5.98,0.16-8.97,0.16c-32.68,0-65.11-6.021-96.82-18.021
			c-41.53-15.699-79.98-40.88-114.28-74.83c-45.28-44.8-83.28-104.23-116.19-181.69c-64.61-152.06-88.25-315.95-102.86-456.22
			c-12.09-116.15-18.17-221.19-18.57-321.14c-0.47-114.59,6.46-219.73,21.18-321.43c12.17-84.15,31.73-153.34,59.77-211.52
			c27.02-56.05,61.88-102.58,105.93-141.17c41.73,36.2,75.88,66.73,100.69,89.16c70.21,63.48,109.09,101.43,179.3,159.37
			c54.98,45.37,83.14,68.39,116.39,84.94c82.32,40.97,154.69,42.81,170.91,42.99c1.169,0.012,2.439,0.021,3.811,0.021
			c23.964,0,78.178-2.471,140.889-27.291c43.64-17.26,143.17-56.64,183.5-148.89c7.71-17.64,12.84-36.26,15.51-55.48
			c-17.77,21.68-38.72,41.02-61.89,56.88c-45.17,30.93-95.59,47.19-146.14,47.19c-1.83,0-3.64-0.02-5.47-0.07
			c-83.66-1.94-156.73-48.92-204.42-84.09c-32.11-23.68-62.72-49.56-91-76.92C702.889,285.496,634.109,176.196,597.409,59.376
			L597.409,59.376z"/>
	</g>
	<g style="display:none;">
		<path style="display:inline;" d="M657.688,1981.661c-66.994,0-132.397-28.751-187.213-82.998
			c-42.075-41.64-77.668-97.515-108.814-170.818c-62.853-147.927-85.99-308.694-100.334-446.447
			c-25.155-241.584-24.357-449.026,2.438-634.182c3.571-24.676,7.863-48.337,12.757-70.328l0.223-0.942
			c5.155-27.818,13.914-54.486,26.039-79.286c13.518-27.648,27.495-56.234,59.191-76.444c13.942-8.889,39.893-25.434,69.825-16.659
			c24.431,7.164,49.398,30.805,49.845,62.127c0.473,33.167-26.888,52.604-30.01,54.711c-20.161,13.611-41.524,12.117-49.775,10.841
			c-6.004-0.927-10.12-6.546-9.192-12.55c0.928-6.004,6.55-10.119,12.55-9.192c5.687,0.88,20.396,1.923,34.108-7.333
			c0.843-0.569,20.634-14.184,20.321-36.163c-0.292-20.447-17.755-36.555-34.038-41.329c-20.342-5.964-39.276,6.109-51.807,14.098
			c-26.479,16.882-38.513,41.496-51.254,67.554c-11.398,23.313-19.594,48.43-24.36,74.656l-0.198,1.088l-0.187,0.466
			c-4.695,21.209-8.821,44.028-12.267,67.835c-26.532,183.333-27.294,389-2.33,628.751c14.174,136.13,36.985,294.875,98.7,440.123
			c30.006,70.621,64.039,124.195,104.042,163.785c59.269,58.653,131.515,85.027,203.426,74.267l0.494-0.063l7.875-0.816
			c35.317-3.986,68.891-14.497,99.689-31.229c24.826-13.487,71.037-38.594,95.959-91.488c7.206-15.291,29.133-61.823,10.205-109.757
			c-4.268-10.81-15.604-39.521-45.269-51.512c-7.48-3.022-33.898-11.772-59.746,2.566c-5.941,3.295-25.756,15.92-31.316,40.037
			c-4.129,17.906-2.152,31.543,5.875,40.531c6.656,7.453,17.567,12.039,29.187,12.268c9.838,0.2,18.562-2.864,23.901-8.391
			c5.506-5.696,7.072-13.607,7.417-19.241c0.371-6.064,5.58-10.67,11.651-10.308c6.063,0.371,10.679,5.587,10.308,11.651
			c-0.818,13.381-5.506,24.856-13.556,33.187c-9.577,9.908-24.202,15.391-40.155,15.098c-17.624-0.348-34.507-7.678-45.163-19.609
			c-13.062-14.626-16.73-34.856-10.903-60.129c7.603-32.974,34.132-49.923,42.083-54.332c34.367-19.065,68.896-7.671,78.661-3.726
			c38.418,15.527,52.771,51.883,57.488,63.83c9.594,24.296,11.537,50.991,5.774,79.342c-4.564,22.457-12.653,39.622-16.541,47.871
			c-27.992,59.41-78.32,86.754-105.358,101.443c-33.301,18.091-69.578,29.453-107.824,33.77l-7.727,0.802
			C680.803,1980.808,669.222,1981.661,657.688,1981.661z"/>
	</g>
</g>
<g id="Layer_7">
	<g>
		<path style="fill:#480000;" d="M666.631,925.539c-16.073,0-29.149-13.077-29.149-29.15s13.076-29.149,29.149-29.149
			s29.15,13.076,29.15,29.149S682.704,925.539,666.631,925.539z"/>
		<path style="fill:#480000;" d="M666.631,873.74c12.489,0,22.65,10.161,22.65,22.65s-10.161,22.65-22.65,22.65
			c-12.489,0-22.65-10.161-22.65-22.65S654.142,873.74,666.631,873.74 M666.631,860.74c-19.689,0-35.65,15.961-35.65,35.65
			c0,19.689,15.961,35.65,35.65,35.65c19.689,0,35.65-15.961,35.65-35.65C702.281,876.701,686.32,860.74,666.631,860.74
			L666.631,860.74z"/>
	</g>
	<g>
		<path style="fill:#480000;" d="M666.631,2206.405c-16.073,0-29.149-13.076-29.149-29.149s13.076-29.149,29.149-29.149
			s29.15,13.076,29.15,29.149S682.704,2206.405,666.631,2206.405z"/>
		<path style="fill:#480000;" d="M666.631,2154.606c12.489,0,22.65,10.161,22.65,22.65c0,12.489-10.161,22.65-22.65,22.65
			c-12.489,0-22.65-10.161-22.65-22.65C643.981,2164.767,654.142,2154.606,666.631,2154.606 M666.631,2141.606
			c-19.689,0-35.65,15.961-35.65,35.65c0,19.689,15.961,35.65,35.65,35.65c19.689,0,35.65-15.961,35.65-35.65
			C702.281,2157.567,686.32,2141.606,666.631,2141.606L666.631,2141.606z"/>
	</g>
	<g>
		<g>
			<rect x="662.129" y="902.886" style="fill:#480000;" width="9" height="1267.87"/>
			<polygon style="fill:#480000;" points="677.629,896.386 655.629,896.386 655.629,2177.256 677.629,2177.256 677.629,896.386 			
				"/>
		</g>
	</g>
	<g>
		<g>
			<path style="fill:#480000;" d="M1088.302,498.09c-66.5,0-118.762-34.553-175.36-76.296
				c-30.663-22.614-59.891-47.32-86.871-73.432c-99.669-96.462-168.82-212.739-199.974-336.259c-0.294-1.165-0.117-2.375,0.5-3.407
				c0.616-1.032,1.598-1.762,2.763-2.056c0.364-0.092,0.737-0.139,1.106-0.139c2.061,0,3.853,1.399,4.357,3.401
				c30.745,121.896,99.042,236.697,197.506,331.993c26.693,25.834,55.613,50.279,85.954,72.656
				c57.266,42.234,106.141,74.541,169.939,74.541c1.984,0,4.004-0.032,6.001-0.096c19.744-0.63,72.191-2.305,106.992-43.027
				c17.125-20.038,26.739-46.004,27.805-75.09c1.441-39.43-9.87-69.917-33.619-90.616c-6.471-5.64-30.019-24.042-61.348-24.042
				c-4.681,0-9.398,0.412-14.022,1.225c-25.4,4.463-43.346,15.952-53.338,34.147c-0.183,0.337-16.331,30.801-1.209,59.791
				c4.74,9.088,18.123,30.228,39.941,30.228c16.654-0.006,28.525-12.263,31.768-16.019c0.855-0.991,2.099-1.56,3.411-1.56
				c0.761,0,1.888,0.19,2.936,1.094c1.878,1.621,2.088,4.468,0.466,6.347c-4.964,5.751-18.659,19.13-38.563,19.138
				c-18.847,0-36.313-12.78-47.939-35.065c-17.432-33.418,0.526-66.874,1.299-68.282c7.818-14.237,24.517-32.506,59.671-38.683
				c5.143-0.903,10.377-1.362,15.559-1.362c34.479,0,60.216,20.099,67.283,26.259c17.805,15.519,38.625,45.072,36.697,97.729
				c-1.139,31.138-11.497,59.013-29.955,80.61c-37.383,43.743-94.709,45.573-113.547,46.175
				C1092.443,498.056,1090.354,498.09,1088.302,498.09z"/>
			<path style="fill:#480000;" d="M630.465,0c-0.89,0-1.794,0.109-2.696,0.336c-5.891,1.486-9.461,7.466-7.976,13.356
				c31.451,124.694,101.217,242.036,201.756,339.34c27.188,26.313,56.638,51.207,87.533,73.993
				c57.51,42.415,110.869,77.565,179.219,77.565c2.12,0,4.266-0.034,6.416-0.103c19.548-0.624,79.034-2.523,118.281-48.448
				c19.421-22.724,30.316-51.977,31.51-84.595c2.021-55.22-20.052-86.418-38.923-102.866c-8.18-7.131-35.135-27.859-71.553-27.859
				c-5.366,0-10.937,0.45-16.684,1.46c-37.692,6.623-55.739,26.47-64.243,41.957c-0.842,1.533-20.379,37.963-1.364,74.417
				c12.784,24.506,32.35,38.559,53.685,38.559c0.006,0,0.014,0,0.021,0c22.587-0.009,37.932-14.962,43.48-21.391
				c3.97-4.599,3.459-11.545-1.14-15.515c-2.079-1.794-4.637-2.673-7.183-2.673c-3.087,0-6.156,1.293-8.332,3.813
				c-2.786,3.228-12.956,13.761-26.836,13.766c-0.004,0-0.006,0-0.011,0c-18.26,0-29.985-18.695-34.179-26.734
				c-13.561-25.996,1.001-53.393,1.144-53.656c8.996-16.381,25.402-26.769,48.766-30.874c4.432-0.779,8.738-1.127,12.897-1.127
				c28.82,0,50.499,16.708,57.078,22.442c22.198,19.348,32.76,48.106,31.394,85.479c-1.011,27.606-10.088,52.194-26.25,71.105
				c-32.936,38.539-83.299,40.147-102.259,40.753c-1.945,0.062-3.875,0.093-5.793,0.093c-61.693,0-109.901-31.838-166.081-73.272
				c-30.11-22.207-58.807-46.463-85.292-72.096c-97.595-94.455-165.275-208.19-195.724-328.912C639.867,3.323,635.386,0,630.465,0
				L630.465,0z"/>
		</g>
	</g>
	<g>
		<path style="fill:#480000;" d="M913.22,1547.5L913.22,1547.5c50.649,0,91.093,23.952,102.285,31.294
			c64.309,42.175,79.019,111.615,82.359,139.52c2.898,24.111,1.179,47.727-5.254,72.195c-5.421,20.619-13.203,38.376-21.373,56.258
			c-18.764,41.075-45.793,78.488-80.336,111.2c-25.99,24.613-49.297,40.119-64.568,49.643
			c-22.828,14.238-47.116,26.044-72.719,35.368c32.967-25.061,64.904-57.846,89.46-100.484
			c10.099-17.528,36.926-64.087,41.252-129.971c2.315-35.293,6.19-94.363-33.942-147.68
			c-28.366-37.683-67.875-61.743-111.254-67.747c-7.218-0.997-14.563-1.502-21.837-1.502c-5.302,0-10.597,0.262-15.876,0.784
			c12.76-13.499,29.299-26.54,50.407-35.909C871.204,1551.863,891.861,1547.5,913.22,1547.5 M913.22,1531.5
			c-21.339,0-44.383,3.907-67.891,14.345c-42.83,19.01-68.44,51.37-82.77,76.26c14.229-5.56,32.961-10.512,54.732-10.512
			c6.307,0,12.867,0.416,19.648,1.352c59.46,8.23,92.41,50.56,100.66,61.52c36.56,48.57,32.98,103.17,30.76,137.01
			c-4.02,61.22-28.6,104.72-39.15,123.03c-48.06,83.45-125.81,126.72-177.24,147.78c59.2-6.12,122.61-23.54,182.83-61.1
			c23.7-14.78,104.91-66.9,150.99-167.77c15.1-33.05,35.03-78.18,27.96-137.01c-2.88-24.06-16.63-103.22-89.47-150.99
			C1016.232,1560.136,970.98,1531.501,913.22,1531.5L913.22,1531.5z M751.969,2082.286c-0.01,0-0.01,0-0.01,0
			S751.959,2082.286,751.969,2082.286L751.969,2082.286z"/>
	</g>
	<g>
		<path style="fill:#480000;" d="M587.068,79.236c38.526,113.518,107.333,220.31,199.707,309.728
			c28.813,27.876,59.978,54.219,92.628,78.298c49.425,36.449,125.32,85.14,213.479,87.207c1.871,0.051,3.803,0.076,5.907,0.076
			c53.761,0,107.421-17.286,155.178-49.987c6.793-4.65,13.398-9.572,19.806-14.757c-16.495,34.177-43.995,64.228-81.834,89.399
			c-33.986,22.608-69.059,36.479-90.018,44.769c-54.647,21.627-103.577,26.167-135.001,26.167c-1.311,0-2.525-0.008-3.634-0.02
			c-24.893-0.276-90.701-4.855-163.958-41.315c-30.969-15.415-57.126-36.572-113.336-82.957
			c-51.142-42.204-85.031-73.255-127.938-112.566c-15.746-14.427-32.028-29.344-50.816-46.332
			c-32.965-29.803-66.924-59.874-100.936-89.378l-10.536-9.14l-10.491,9.191c-45.77,40.097-81.686,87.938-109.8,146.259
			c-28.772,59.699-48.788,130.411-61.192,216.174c-14.836,102.502-21.818,208.414-21.345,323.786
			c0.402,100.424,6.504,205.991,18.656,322.733c14.734,141.458,38.617,306.828,104.048,460.819
			c33.743,79.42,72.885,140.525,119.66,186.805c35.909,35.543,76.242,61.929,119.873,78.423
			c31.149,11.788,63.224,18.158,95.453,18.967v35.261c-65.497-5.705-116.114-21.255-136.144-27.408
			c-39.414-12.102-141.395-50.131-236.885-141.656c-36.845-35.314-68.124-74.301-95.625-119.187
			c-24.375-39.786-42.658-78.796-60.339-116.522c-15.334-32.712-53.816-122.373-79.911-248.108
			c-7.29-35.148-12.932-72.007-17.248-112.685c-7.472-70.418-10.024-145.072-7.586-221.888
			c2.231-70.411,4.539-143.219,15.559-224.161c12.563-92.272,34.561-178.197,67.261-262.708
			c22.323-57.684,50.104-129.472,92.877-201.138c49.816-83.467,110.044-150.714,184.124-205.583
			C439.607,139.219,510.309,103.409,587.068,79.236 M597.409,59.376c-61.88,18.1-145.81,51.05-230.22,113.57
			c-171.4,126.95-236.73,295.79-282.41,413.83c-74.36,192.18-79.5,353.91-83.88,492.11c-5.77,181.79,17.83,302.99,25.16,338.33
			c28.7,138.29,71.94,232.13,81.09,251.65c35.38,75.49,74.65,159.26,159.38,240.47c105.95,101.55,219.29,138.04,243.26,145.4
			c21.94,6.74,81.34,24.97,156.84,29.31v-68.53c-2.99,0.11-5.98,0.16-8.97,0.16c-32.68,0-65.11-6.02-96.82-18.02
			c-41.53-15.7-79.98-40.88-114.28-74.83c-45.28-44.8-83.28-104.23-116.19-181.69c-64.61-152.06-88.25-315.95-102.86-456.22
			c-12.09-116.15-18.17-221.19-18.57-321.14c-0.47-114.59,6.46-219.73,21.18-321.43c12.17-84.15,31.73-153.34,59.77-211.52
			c27.02-56.05,61.88-102.58,105.93-141.17c41.73,36.2,75.88,66.73,100.69,89.16c70.21,63.48,109.09,101.43,179.3,159.37
			c54.98,45.37,83.14,68.39,116.39,84.94c82.32,40.97,154.69,42.81,170.91,42.99c1.169,0.012,2.439,0.021,3.811,0.021
			c23.964,0,78.178-2.471,140.889-27.291c43.64-17.26,143.17-56.64,183.5-148.89c7.71-17.64,12.84-36.26,15.51-55.48
			c-17.77,21.68-38.72,41.02-61.89,56.88c-45.17,30.93-95.59,47.19-146.14,47.19c-1.83,0-3.64-0.02-5.47-0.07
			c-83.66-1.94-156.73-48.92-204.42-84.09c-32.11-23.68-62.72-49.56-91-76.92C702.889,285.496,634.109,176.196,597.409,59.376
			L597.409,59.376z"/>
	</g>
	<g>
		<g>
			<path style="fill:#480000;" d="M657.688,1975.161c-65.86,0-129.016-28.05-182.641-81.118
				c-41.463-41.033-76.595-96.229-107.404-168.74c-62.516-147.134-85.558-307.304-99.852-444.578
				c-25.098-241.044-24.311-447.962,2.406-632.578c3.547-24.511,7.81-48.011,12.669-69.847l0.24-1.012l0.029-0.158
				c5.047-27.235,13.623-53.349,25.487-77.616c13.122-26.838,26.69-54.591,56.847-73.818c10.636-6.781,28.438-18.13,48.989-18.13
				c5.25,0,10.47,0.75,15.512,2.228c22.144,6.494,44.772,27.808,45.174,55.982c0.425,29.755-24.323,47.325-27.146,49.23
				c-12.881,8.696-26.372,10.522-35.42,10.522c-4.204,0-7.61-0.39-9.727-0.717c-1.188-0.184-2.234-0.818-2.944-1.788
				c-0.71-0.97-1-2.158-0.817-3.346c0.336-2.175,2.242-3.815,4.435-3.815c0.231,0,0.466,0.018,0.699,0.054
				c1.857,0.287,4.834,0.63,8.461,0.63c7.73,0,19.257-1.562,30.276-9c0.961-0.648,23.546-16.187,23.184-41.643
				c-0.336-23.562-20.194-42.045-38.708-47.474c-4.212-1.235-8.6-1.861-13.043-1.861c-17.87,0-33.646,10.058-44.085,16.714
				c-28.021,17.865-40.446,43.275-53.6,70.178c-11.662,23.853-20.044,49.54-24.917,76.352l-0.081,0.444l-0.14,0.35l-0.114,0.519
				c-4.729,21.361-8.885,44.344-12.353,68.31c-26.61,183.872-27.383,390.063-2.362,630.355
				c14.224,136.609,37.131,295.951,99.183,441.992c30.342,71.412,64.836,125.667,105.452,165.863
				c51.895,51.355,112.913,78.5,176.459,78.5c10.785,0,21.693-0.812,32.421-2.413l0.355-0.045l7.802-0.81
				c36.247-4.091,70.585-14.849,102.123-31.982c25.479-13.843,72.906-39.608,98.736-94.43
				c7.502-15.919,30.332-64.364,10.371-114.915c-4.548-11.518-16.628-42.115-48.879-55.15c-4.384-1.771-16.146-5.891-30.671-5.891
				c-12.477,0-24.139,2.961-34.664,8.8c-6.534,3.623-28.333,17.525-34.497,44.261c-4.631,20.082-2.155,35.667,7.36,46.321
				c7.837,8.775,20.513,14.173,33.907,14.437c0.343,0.007,0.689,0.01,1.033,0.01c11.209,0,21.295-3.784,27.67-10.383
				c6.884-7.121,8.819-16.634,9.231-23.36c0.145-2.369,2.118-4.225,4.494-4.225c0.094,0,0.188,0.002,0.282,0.008
				c2.467,0.151,4.358,2.289,4.206,4.767c-0.722,11.813-4.782,21.864-11.741,29.066c-8.063,8.341-20.553,13.125-34.266,13.126
				c-0.365,0-0.729-0.004-1.095-0.011c-15.842-0.313-30.961-6.832-40.435-17.44c-11.574-12.96-14.743-31.242-9.417-54.338
				c6.999-30.358,31.545-46.029,38.901-50.108c11.839-6.567,24.929-9.897,38.908-9.897c16.284,0,29.318,4.556,34.166,6.514
				c35.832,14.482,49.414,48.886,53.877,60.19c9.125,23.108,10.959,48.563,5.45,75.66c-4.409,21.692-12.271,38.377-16.051,46.396
				c-27.086,57.486-76.197,84.168-102.582,98.503c-32.563,17.689-68.041,28.8-105.45,33.021l-7.812,0.811l-0.142,0.021
				C680.253,1974.319,668.9,1975.161,657.688,1975.161z"/>
			<path style="fill:#480000;" d="M414.46,401.067c-22.448,0-41.317,12.03-52.484,19.149
				c-31.697,20.209-45.674,48.796-59.191,76.444c-12.125,24.8-20.884,51.468-26.039,79.286l-0.223,0.942
				c-4.894,21.991-9.186,45.652-12.757,70.328c-26.796,185.155-27.593,392.598-2.438,634.182
				c14.344,137.753,37.481,298.521,100.334,446.447c31.146,73.304,66.739,129.179,108.814,170.818
				c54.816,54.247,120.219,82.998,187.213,82.998c11.534,0,23.115-0.853,34.698-2.573l7.727-0.802
				c38.246-4.316,74.523-15.679,107.824-33.77c27.038-14.689,77.366-42.033,105.358-101.443
				c3.888-8.249,11.977-25.414,16.541-47.871c5.763-28.351,3.819-55.046-5.774-79.342c-4.717-11.947-19.07-48.303-57.488-63.83
				c-5.608-2.266-19.379-6.988-36.6-6.988c-12.766,0-27.43,2.596-42.061,10.713c-7.95,4.409-34.48,21.358-42.083,54.332
				c-5.827,25.272-2.159,45.503,10.903,60.129c10.656,11.932,27.539,19.262,45.163,19.609c0.406,0.008,0.811,0.011,1.215,0.011
				c15.479,0,29.607-5.453,38.94-15.109c8.05-8.33,12.737-19.806,13.556-33.187c0.371-6.064-4.244-11.28-10.308-11.651
				c-0.225-0.013-0.447-0.02-0.669-0.02c-5.78,0-10.625,4.488-10.982,10.328c-0.345,5.634-1.911,13.545-7.417,19.241
				c-5.176,5.356-13.529,8.4-22.996,8.4c-0.301,0-0.603-0.003-0.905-0.009c-11.62-0.229-22.531-4.814-29.187-12.268
				c-8.027-8.988-10.003-22.625-5.875-40.531c5.561-24.117,25.375-36.742,31.316-40.037c10.889-6.041,21.877-7.983,31.51-7.983
				c13.234,0,23.906,3.668,28.236,5.417c29.665,11.99,41.001,40.702,45.269,51.512c18.928,47.934-2.999,94.466-10.205,109.757
				c-24.923,52.895-71.134,78.001-95.959,91.488c-30.798,16.732-64.372,27.243-99.689,31.229l-7.875,0.816l-0.494,0.063
				c-10.521,1.574-21.045,2.354-31.539,2.354c-61.231,0-121.289-26.548-171.887-76.62c-40.003-39.59-74.036-93.164-104.042-163.785
				c-61.715-145.248-84.526-303.993-98.7-440.123c-24.964-239.752-24.202-445.418,2.329-628.751
				c3.445-23.808,7.571-46.626,12.267-67.835l0.187-0.466l0.198-1.088c4.766-26.226,12.962-51.343,24.36-74.656
				c12.741-26.059,24.775-50.672,51.254-67.554c10.191-6.498,24.618-15.697,40.593-15.697c3.667,0,7.416,0.485,11.214,1.598
				c16.283,4.774,33.746,20.882,34.038,41.329c0.313,21.98-19.478,35.594-20.321,36.163c-9.516,6.424-19.512,7.887-26.639,7.887
				c-3.143,0-5.729-0.285-7.469-0.554c-0.569-0.088-1.134-0.13-1.692-0.13c-5.332,0-10.018,3.887-10.858,9.322
				c-0.928,6.004,3.188,11.623,9.192,12.55c2.501,0.386,6.207,0.793,10.719,0.793c10.373,0,25.007-2.15,39.056-11.635
				c3.122-2.107,30.483-21.544,30.01-54.711c-0.447-31.322-25.414-54.963-49.845-62.127
				C425.841,401.81,420.04,401.067,414.46,401.067L414.46,401.067z"/>
		</g>
	</g>
</g>
</svg>
