<?xml version="1.0" encoding="iso-8859-1"?>
<!-- Generator: Adobe Illustrator 24.0.1, SVG Export Plug-In . SVG Version: 6.00 Build 0)  -->
<svg version="1.1" xmlns="http://www.w3.org/2000/svg" xmlns:xlink="http://www.w3.org/1999/xlink" x="0px" y="0px"
	 viewBox="0 0 1364.621 2222.514" style="enable-background:new 0 0 1364.621 2222.514;" xml:space="preserve">
<g id="Layer_7">
	<linearGradient id="SVGID_1_" gradientUnits="userSpaceOnUse" x1="682.3104" y1="1351.5419" x2="682.3104" y2="37.0696">
		<stop  offset="0" style="stop-color:#8B1D1A"/>
		<stop  offset="0.25" style="stop-color:#550000"/>
		<stop  offset="0.5" style="stop-color:#3A0000"/>
		<stop  offset="0.75" style="stop-color:#1E0000"/>
		<stop  offset="1" style="stop-color:#000000"/>
	</linearGradient>
	<path style="fill:url(#SVGID_1_);" d="M647.841,253.466c25.17-7.47,51.8-9.41,79.61-5.77c37.77,4.93,77.54,20.64,115,45.42
		c82.12,54.33,149.42,139.91,194.62,247.48c43.51,103.52,61.95,216.08,73.15,302.58c29.67,228.9,36.46,456.9,20.76,697.05
		c-4.06,62-9.25,128.03-23.93,193.77c-19.55,87.57-54.78,169.94-104.7,244.82l-18.03,27.04l-18.96-26.39
		c-33.35-46.41-69.35-78.01-111.04-114.6c-9.23-8.11-18.78-16.49-28.48-25.2c-28.56-25.66-59.17-50.44-88.77-74.41
		c-17.36-14.05-39.35-32.22-60.58-50.23c-24.42-20.71-42-48.33-50.34-79.25c-8.82-32.66-17.26-68.64-24.52-107.55
		c-22.58-121.13-21.13-203.33-20.97-346.02c0.52-453.59-13.2-461.41,0-694.14c5.57-98.2,12.87-182.23,19.27-246.38
		c-1.33,2.09-2.68,4.18-4.05,6.26c-42.53,64.71-92.38,111.47-148.18,138.95c-45.05,22.19-92.57,30.55-137.22,36.27
		c-20.27,2.6-40.35,3.01-59.77,3.41c-26.49,0.53-51.51,1.04-76.08,6.77c-34.13,7.97-53.85,30.32-58.61,66.44
		c-1.88,14.27-1.27,29.58,1.96,46.84c11.63-9.82,28.1-20.67,49.56-27.1c44.64-13.39,82.93,0.74,102.76,8.38
		c88.27,34.03,125.71,121.94,136.31,146.8c21.83,51.26,24.58,94.04,27.26,142.6c4.24,76.81,5.6,153.79,7.2,230.75
		c-18.11,2.17-36.88,1.05-51.12-9.07c-13.03-9.26-20.18-24.65-25.27-39.8c-4.28-12.77-7.72-26.32-16.37-36.65
		c-10.14-12.11-26.06-17.95-41.7-20.21c-10.96-1.58-22.24-2.43-33.55-2.73c8.71,6.38,16.98,15.17,20.95,26.92
		c1.55,4.6,4.69,13.89,0.91,23.73c-4.02,10.5-13.51,15.37-19.16,18.26c-13.07,6.69-32.79,10.22-52.04,1.83
		c-3.15-1.38-27.19-12.34-33.77-38.34c-4.44-17.55,1.57-32.05,4.57-39.25c7.8-18.79,21.58-30.27,31.26-36.5
		c-28.1,1.88-52.22,12.93-65.95,31.93c-18,24.9-13.54,57.07-10.96,75.77c3.01,21.74,10.38,39.69,17.99,53.35
		c-19.46,2.81-42.92,8.88-67.28,21.5c-19.06,9.87-57.67,30.55-81.24,75.76c-19.14,36.72-18.56,70.85-18.25,89.46
		c0.31,18.52,1.1,46.95,17.34,77.58c9.51,17.95,22.21,41.9,48.38,51.12c16.48,5.81,32.87,3.85,46.89-0.83
		c-13.66-7.74-31.44-21.56-42.33-44.81c-3.16-6.75-17.64-37.67-4.56-71.2c8.88-22.76,25.79-34.76,34.69-41.07
		c9.19-6.53,33.25-21.44,65.72-20.09c12.55,0.53,31.99,1.34,47.46,15.52c13.66,12.51,16.88,28.71,19.17,41.08
		c3.19,17.23,2.12,33.39-0.82,47.45c12-0.85,25.14-4.04,37.34-11.85c22.36-14.33,31.8-37.94,41.07-61.16
		c11.08-27.74,6.83-34.95,18.26-59.33c0.75-1.61,14.72-30.9,34.68-48.38c22.47-19.67,52.41-24.3,78.7-23.4
		c1.96,83.17,4.91,166.26,12.76,249.03c1.03,10.86,5.91,61.32-4.2,125.83c-6.77,43.22-15.78,96.51-54.52,138.4
		c-18.88,20.42-32.95,25.29-75.49,48.24c-96.59,52.08-147.51,79.54-186.65,125.82c-16.65,19.7-63.67,75.31-60.81,153.09
		c2.9,78.91,55.33,130.95,73.4,148.89c18.67,18.54,58.71,58.29,123.73,67.11c18.45,2.5,87.59,11.88,142.6-37.75
		c5.73-5.17,56.07-52.11,52.42-123.73c-2.17-42.75-23-82.67-56.16-111.6c0.76,15.07-0.65,30.71-4.27,45.9
		c-7.71,32.25-24.33,59.43-46.82,76.55c-18.67,14.22-41.74,22.28-66.7,23.33c-23.74,0.99-47.98-4.74-68.26-16.13
		c-38.75-21.75-66.57-64.53-72.6-111.64c-5.03-39.22,4.8-78.9,26.95-108.85c18.9-25.57,46.74-44.24,80.52-54.02
		c30.23-8.74,64.37-9.83,96.13-3.07c62.6,13.32,114.99,51.25,157.98,86.59c127.38,104.71,211.63,224.63,250.78,356.79
		c24.76-6.23,54.97-15.3,88.32-28.66c152.65-61.18,243.31-161.16,278.91-201.32c134.06-151.21,171.3-321.76,201.32-459.26
		c67.68-309.96,17.79-552.45-25.16-761.25c-25.74-125.09-60.96-243.08-142.61-360.7c-90.79-130.79-173.43-166.7-197.12-176.15
		c-98.12-39.15-185.72-23.77-209.71-18.87c-43.17,8.81-79.53,24.35-108.98,41.27V253.466z"/>
</g>
<g id="Layer_11">
	<g>
		<path style="fill:#BFCBC2;" d="M336.235,1051.708c-52.068-45.356-89.83,52.924-15.428,49.047
			c-30.877,26.232-76.722-9.327-63.06-46.788C269.58,1015.031,324.725,1011.981,336.235,1051.708z"/>
	</g>
	<g>
		<path style="fill:#BFCBC2;" d="M120.818,1180.279c-38.687-102.447,186-148.954,181.092-21.399
			C265.565,1075.762,115.314,1128.372,120.818,1180.279z"/>
	</g>
	<g>
		<path style="fill:#BFCBC2;" d="M233.455,1203.098c61.713-77.991-63.916-111.268-44.362-34.025
			c-34.368-24.358-3.669-86.696,49.865-68.292C287.995,1120.241,280.997,1189.912,233.455,1203.098z"/>
	</g>
	<g>
		<path style="fill:#BFCBC2;" d="M1249.664,1307.564c8.798-163.682-54.48-201.521-34.439-253.216
			c36.041-79.891,130.582,1.923,64.172,33.149c42.326-31.716-24.666-78.581-41.753-22.626c-2.216,11.899,0.853,21.66,5.459,34.668
			C1271.032,1167.156,1273.716,1241.464,1249.664,1307.564z"/>
	</g>
	<g>
		<path style="fill:#BFCBC2;" d="M1191.768,687.351c-2.285,41.59-58.44,38.869-71.127,3.306
			c-20.23-55.553,43.455-98.315,91.725-83.457c139.331,56.771,13.452,239.414-95.321,147.867
			c143.438,56.226,163.35-143.635,49.367-114.537C1101.05,672.096,1167.718,743.083,1191.768,687.351z"/>
	</g>
	<g>
		<path style="fill:#BFCBC2;" d="M1250.058,579.424c-67.799-33.256-147.365-1.089-153.308,69.969
			C1059.297,553.595,1192.672,495.206,1250.058,579.424z"/>
	</g>
	<g>
		<path style="fill:#BFCBC2;" d="M1119.066,525.632c-57.114-3.89-36.663-84.711,15.561-79.03
			c43.13,3.455,60.431,52.235,39.287,84.062c-12.897,22.733-46.912,25.402-58.041,49.698c-1.954-10.027,2.865-22.291,10.198-32.027
			C1207.6,459.062,1055.076,464.907,1119.066,525.632z"/>
	</g>
	<g>
		<path style="fill:#BFCBC2;" d="M1056.945,515.26c2.92,6.379,9.653,13.191,18.616,15.02
			C1068.225,530.879,1058.273,525.137,1056.945,515.26z"/>
	</g>
	<g>
		<path style="fill:#BFCBC2;" d="M1071.721,429.494c-37.704-1.988-19.447-60.103,16.167-61.1c73.28,3.118,47.548,85,5.749,109.956
			c50.458-62.906,21.494-105.891-16.818-93.045C1059.737,391.708,1046.904,422.965,1071.721,429.494z"/>
	</g>
	<g>
		<path style="fill:#BFCBC2;" d="M1117.049,352.236c-91.003-55.966-149.631,87.784-43.535,110.134
			C934.62,460.561,1018.096,258.421,1117.049,352.236z"/>
	</g>
	<g>
		<path style="fill:#BFCBC2;" d="M757.887,213.879c61.32-38.603,143.283-13.483,179.049,47.06
			c10.417,14.26,12.87,37.204,25.481,51.153c44.197,36.246,83.639-44.385,42.826-44.506c58.738-18.786,32.654,127.544-63.823,76.765
			C897.825,314.803,900.933,200.588,757.887,213.879z"/>
	</g>
	<g>
		<path style="fill:#BFCBC2;" d="M527.57,1628.791c-4.763-61.987-25.052-127.914-57.569-182.801
			C525.687,1485.257,551.113,1564.06,527.57,1628.791z"/>
	</g>
	<g>
		<path style="fill:#BFCBC2;" d="M517.826,1551.309c-26.742-39.068,11.358-83.254,19.16-124.171
			c7.923-37.568-32.985-62.229-58.334-26.659c15.965-58.545,92.316-30.38,84.183,28.224
			C559.98,1474.495,509.279,1504.891,517.826,1551.309z"/>
	</g>
	<g>
		<path style="fill:#BFCBC2;" d="M520.48,1334.374c9.892,4.487,29.201-3.197,27.801-18.801c-3.06-30.118-44.254-23.747-52.57,1.787
			c-14.728,35.384,25.316,61.124,57.059,47.027c-86.451,64.038-127.882-98.261-24.575-94.869
			C588.603,1278.474,566.811,1364.1,520.48,1334.374z"/>
	</g>
	<g>
		<path style="fill:#BFCBC2;" d="M554.284,1261.891c-8.119-36.83-62.424-51.435-81.12-4.04
			C470.345,1203.917,559.165,1197.569,554.284,1261.891z"/>
	</g>
	<g>
		<path style="fill:#BFCBC2;" d="M479.99,1129.754c-42.18,50.514,29.329,107.561,68.643,53.531
			C518.644,1273.171,399.967,1179.576,479.99,1129.754z"/>
	</g>
	<g>
		<path style="fill:#BFCBC2;" d="M517.396,1084.059c42.287-32.762-40.83-58.03-18.709-4.931
			c121.97,69.868-17.349,148.17-11.884,73.187c3.201,30.386,47.663,17.409,33.696-17.189c-5.631-18.429-60.117-21.76-55.912-70.73
			C484.838,976.984,586.506,1060.017,517.396,1084.059z"/>
	</g>
	<g>
		<path style="fill:#BFCBC2;" d="M472.734,914.481c-30.488-22.54-14.976-69.734,22.548-75.722
			c39.702-5.708,71.941,35.086,67.554,74.439c-3.159,40.866-30.116,70.228-55.2,102.041c-14.219,18.078-25.194,32.977-33.087,55.579
			c-8.288-59.245,58.438-123.148,51.94-173.248C516.954,843.222,448.731,863.549,472.734,914.481z"/>
	</g>
	<g>
		<path style="fill:#BFCBC2;" d="M495.892,793.306c28.633,3.937,41.013-37.345,8.266-43.425
			c-27.279-1.867-36.009,33.063-20.23,53.626c10.279,15.28,27.549,21.209,39.589,36.414c7.943,9.89,14.241,28.931,4.01,40.153
			c8.861-39.59-65.718-37.443-77.743-79.781c-21.894-48.758,31.643-100.558,75.806-69.156
			C560.395,759.594,532.541,812.001,495.892,793.306z"/>
	</g>
	<g>
		<path style="fill:#BFCBC2;" d="M539.332,720.544c-24.462-31.025-75.563-35.524-102.885,4.677
			C444.898,676.339,520.998,662.917,539.332,720.544z"/>
	</g>
	<g>
		<path style="fill:#BFCBC2;" d="M325.022,494.161c86.671-72.077,211.459-5.662,216.32,99.257
			c4.839,111.168-98.498,121.413-109.66,68.004C535.692,745.567,538.005,441.478,325.022,494.161z"/>
	</g>
	<g>
		<path style="fill:#BFCBC2;" d="M331.848,523.165c7.915,6.392,20.343,6.115,32.186,0.622
			c113.515-55.883,154.285,115.439,48.946,113.432c49.068-13.904,53.964-81.233-0.185-100.372
			C389.758,525.236,348.83,551.171,331.848,523.165z"/>
	</g>
	<g>
		<path style="fill:#BFCBC2;" d="M414.85,418.208c67.023-17.818,142.04,39.489,130.625,118.069
			C528.996,473.544,476.146,427.356,414.85,418.208z"/>
	</g>
	<g>
		<path style="fill:#BFCBC2;" d="M269.254,2039.323c-4.142,28.675,3.371,64.995,20.21,90.616
			C248.421,2122.673,235.068,2063.104,269.254,2039.323z"/>
	</g>
	<g>
		<path style="fill:#BFCBC2;" d="M332.469,2033.179c-3.562,28.585,8.625,63.366,31.781,83.733
			C319.792,2119.031,297.909,2060.504,332.469,2033.179z"/>
	</g>
	<g>
		<path style="fill:#BFCBC2;" d="M211.512,2017.021c-12.285,24.712-17.377,59.686-11.61,88.312
			C166.681,2084.792,173.741,2028.219,211.512,2017.021z"/>
	</g>
	<g>
		<path style="fill:#BFCBC2;" d="M171.461,1987.183c-0.279,1.622-56.428,53.024-36.637,55.716
			C108.227,2053.88,121.223,1984.698,171.461,1987.183z"/>
	</g>
	<g>
		<path style="fill:#BFCBC2;" d="M383.488,2015.98c-3.376,22.069,10.263,49.114,33.918,57.797
			C383.129,2087.837,353.178,2040.547,383.488,2015.98z"/>
	</g>
	<path style="fill:#BFCBC2;" d="M974.4,290.94c0.726-14.586,21.312-14.032,22.006,0.001
		C995.68,305.525,975.094,304.972,974.4,290.94z"/>
	<path style="fill:#BFCBC2;" d="M1161.592,672.749c0.726-14.586,21.312-14.032,22.006,0.001
		C1182.872,687.335,1162.286,686.782,1161.592,672.749z"/>
	<path style="fill:#BFCBC2;" d="M1172.595,901.192c0.726-14.586,21.312-14.032,22.006,0.001
		C1193.875,915.778,1173.289,915.225,1172.595,901.192z"/>
	<path style="fill:#BFCBC2;" d="M301.787,1068.388c0.726-14.586,21.312-14.032,22.006,0.001
		C323.067,1082.974,302.481,1082.42,301.787,1068.388z"/>
	<path style="fill:#BFCBC2;" d="M400.847,576.192c0.726-14.586,21.312-14.032,22.006,0.001
		C422.126,590.777,401.541,590.224,400.847,576.192z"/>
	<g>
		<path style="fill:#BFCBC2;" d="M1212.07,1161.171c-84.213-123.802,3.129-193.991,26.663-246.508
			c36.801-90.219-64.806-93.486-80.289-22.889c-3.899,66.466,85.97,37.13,43.77-7.195c58.374,32.368-26.245,107.77-68.353,36.772
			c-38.039-77.015,64.897-160.162,131.097-105.741c43.153,36.815,29.88,101.308-1.606,141.825
			C1199.547,1032.007,1183.008,1070.545,1212.07,1161.171z"/>
	</g>
</g>
<g id="Layer_8">
	<g>
		<path style="fill:#FFB400;" d="M829.37,195.106c43.345,0,85.128,7.903,124.193,23.489c60.438,24.109,124.838,82.21,181.337,163.6
			c36.394,52.428,65.249,107.963,88.213,169.778c18.969,51.061,34.04,105.963,48.876,178.062
			c42.809,208.115,91.33,443.998,25.238,746.685c-14.658,67.139-31.272,143.236-60.181,219.557
			c-32.834,86.685-76.383,159.939-133.135,223.952c-11.668,13.163-33.265,37.526-64.297,65.534
			c48.029-75.131,82.185-157.191,101.597-244.139c15.222-68.165,20.547-135.739,24.697-199.114
			c15.85-242.438,8.988-472.663-20.975-703.828c-11.482-88.678-30.451-204.24-75.593-311.644
			c-47.889-113.97-119.667-204.952-207.577-263.113c-41.884-27.707-86.761-45.319-129.768-50.933
			c-2.509-0.328-5.019-0.618-7.528-0.869c12.876-4.346,26.011-7.891,39.36-10.615C784.626,197.26,806.678,195.106,829.37,195.106
			 M554.804,353.025c-3.543,44.415-6.581,88.885-9.087,133.059c-7.631,134.537-6.333,195.788-3.976,306.982
			c1.748,82.489,4.142,195.46,3.92,389.101c-0.009,7.776-0.021,15.373-0.034,22.806c-0.211,127.623-0.35,211.936,21.597,329.673
			c6.88,36.873,15.337,73.968,25.134,110.245c10.222,37.897,31.486,71.379,61.49,96.825c19.763,16.766,42.071,35.262,61.195,50.74
			l0.275,0.223c29.166,23.619,59.326,48.042,87.137,73.03c9.324,8.373,18.455,16.395,27.286,24.153l1.491,1.31
			c40.072,35.17,74.679,65.543,105.703,108.717l18.96,26.39l11.78,16.396c-40.834,28.125-84.21,51.45-129.501,69.602
			c-17.141,6.867-34.674,13.039-52.406,18.455c-44.747-126.019-129.202-240.638-251.453-341.132
			c-46.256-38.025-102.973-78.903-172.92-93.786c-10.528-2.241-21.297-3.757-32.174-4.536c2.635-1.421,5.314-2.866,8.026-4.328
			c8.063-4.35,15.148-8.072,21.4-11.355c27.348-14.365,43.855-23.036,63.168-43.924c46.771-50.574,56.78-114.468,63.402-156.745
			c7.022-44.809,8.573-91.272,4.483-134.368l-0.018-0.185c-7.956-83.886-10.764-168.071-12.613-246.55l-0.35-14.852l-0.658-31.64
			l-0.366-17.76c-1.441-70.15-2.932-142.688-6.879-214.191c-2.616-47.405-5.322-96.424-30.005-154.385l-0.022-0.051l-0.003-0.007
			c-35.749-83.842-88.2-139.587-155.904-165.688c-13.698-5.278-42.201-16.259-77.419-16.259c-16.319,0-32.462,2.36-47.97,7.012
			c-0.608,0.182-1.213,0.367-1.819,0.556c5.022-10.129,13.564-16.008,26.903-19.123c21.037-4.906,44.253-5.371,68.852-5.863
			l0.096-0.002c20.31-0.418,41.311-0.851,63.401-3.684c47.638-6.103,98.568-15.123,148.236-39.587
			C495.746,402.25,526.365,380.424,554.804,353.025 M328.361,1000.689c0.381,1.163,0.76,2.335,1.136,3.502
			c0.638,1.98,1.299,4.028,2.007,6.141c5.694,16.949,15.847,41.316,38.173,57.183c1.558,1.107,3.155,2.16,4.789,3.156
			c-12.67,5.206-24.071,12.227-34.143,21.044c-25.165,22.038-41.366,55.69-43.311,59.853c-7.704,16.433-10.021,27.475-12.065,37.218
			c-1.528,7.283-2.848,13.573-7.01,23.993c-3.885,9.731-7.505,18.8-11.759,26.475c-2.949-14.574-9.08-36.717-28.846-54.819
			c-24.871-22.798-55.083-24.073-69.602-24.687l-0.042-0.002l-0.012,0c-1.855-0.077-3.734-0.116-5.586-0.116
			c-38.598,0-67.855,16.694-81.83,26.624c-9.81,6.955-32.179,22.814-45.239,52.524c-0.166-16.661,0.67-41.783,14.357-68.042
			c18.945-36.338,50.929-52.901,66.305-60.863c17.445-9.038,36.348-15.073,56.182-17.937l50.314-7.265l-24.74-44.409
			c-1.226-2.201-2.378-4.425-3.456-6.671c6.647,4.545,12.423,7.369,15.697,8.803l0.03,0.013l0.03,0.013
			c11.918,5.194,24.602,7.828,37.701,7.828c19.494,0,34.834-5.758,44.261-10.583c7.407-3.789,27.081-13.852,35.894-36.869
			C327.865,1002.092,328.12,1001.388,328.361,1000.689 M114.433,1884.762c0.24,5.22,0.693,10.451,1.362,15.668
			c7.409,57.882,41.966,110.652,90.178,137.713c24.139,13.557,51.843,20.723,80.116,20.723c2.246,0,4.514-0.047,6.754-0.141
			c32.164-1.353,62.053-11.884,86.429-30.45c19.841-15.104,36.05-35.961,47.364-60.535c2.078,7.748,3.327,15.638,3.732,23.617
			c2.796,54.869-36.43,91.919-40.911,95.962c-22.868,20.632-52.231,31.093-87.272,31.093c-12.135,0-21.549-1.275-27.178-2.038
			c-22.799-3.093-44.609-11.349-64.825-24.54c-17.483-11.407-30.4-24.235-38.96-32.735c-16.596-16.477-60.682-60.245-63.074-125.329
			C107.496,1916.053,110.061,1899.628,114.433,1884.762 M829.37,160.106c-34.913,0-61.043,4.76-72.549,7.11
			c-43.17,8.81-79.53,24.35-108.98,41.27v44.98c16.948-5.03,34.559-7.553,52.746-7.553c8.823,0,17.78,0.594,26.865,1.783
			c37.77,4.93,77.54,20.64,115,45.42c82.12,54.33,149.42,139.91,194.62,247.48c43.51,103.52,61.95,216.08,73.15,302.58
			c29.67,228.9,36.46,456.9,20.76,697.05c-4.06,62-9.25,128.03-23.93,193.77c-19.55,87.57-54.78,169.94-104.7,244.82l-18.03,27.04
			l-18.96-26.39c-33.35-46.41-69.35-78.01-111.04-114.6c-9.23-8.11-18.78-16.49-28.48-25.2c-28.56-25.66-59.17-50.44-88.77-74.41
			c-17.36-14.05-39.35-32.22-60.58-50.23c-24.42-20.71-42-48.33-50.34-79.25c-8.82-32.66-17.26-68.64-24.52-107.55
			c-22.58-121.13-21.13-203.33-20.97-346.02c0.52-453.59-13.2-461.41,0-694.14c5.57-98.2,12.87-182.23,19.27-246.38
			c-1.33,2.09-2.68,4.18-4.05,6.26c-42.53,64.71-92.38,111.47-148.18,138.95c-45.05,22.19-92.57,30.55-137.22,36.27
			c-20.27,2.6-40.35,3.01-59.77,3.41c-26.49,0.53-51.51,1.04-76.08,6.77c-34.13,7.97-53.85,30.32-58.61,66.44
			c-1.88,14.27-1.27,29.58,1.96,46.84c11.63-9.82,28.1-20.67,49.56-27.1c13.312-3.993,26.063-5.539,37.924-5.539
			c27.914,0,50.919,8.557,64.836,13.919c88.27,34.03,125.71,121.94,136.31,146.8c21.83,51.26,24.58,94.04,27.26,142.6
			c4.24,76.81,5.6,153.79,7.2,230.75c-4.846,0.581-9.742,0.926-14.583,0.926c-13.251,0-26.107-2.584-36.537-9.996
			c-13.03-9.26-20.18-24.65-25.27-39.8c-4.28-12.77-7.72-26.32-16.37-36.65c-10.14-12.11-26.06-17.95-41.7-20.21
			c-10.96-1.58-22.24-2.43-33.55-2.73c8.71,6.38,16.98,15.17,20.95,26.92c1.55,4.6,4.69,13.89,0.91,23.73
			c-4.02,10.5-13.51,15.37-19.16,18.26c-7.641,3.911-17.558,6.743-28.323,6.743c-7.647,0-15.722-1.428-23.717-4.913
			c-3.15-1.38-27.19-12.34-33.77-38.34c-4.44-17.55,1.57-32.05,4.57-39.25c7.8-18.79,21.58-30.27,31.26-36.5
			c-28.1,1.88-52.22,12.93-65.95,31.93c-18,24.9-13.54,57.07-10.96,75.77c3.01,21.74,10.38,39.69,17.99,53.35
			c-19.46,2.81-42.92,8.88-67.28,21.5c-19.06,9.87-57.67,30.55-81.24,75.76c-19.14,36.72-18.56,70.85-18.25,89.46
			c0.31,18.52,1.1,46.95,17.34,77.58c9.51,17.95,22.21,41.9,48.38,51.12c7.177,2.53,14.338,3.587,21.292,3.587
			c9.015,0,17.683-1.775,25.598-4.417c-13.66-7.74-31.44-21.56-42.33-44.81c-3.16-6.75-17.64-37.67-4.56-71.2
			c8.88-22.76,25.79-34.76,34.69-41.07c8.795-6.25,31.216-20.176,61.587-20.176c1.364,0,2.738,0.028,4.133,0.086
			c12.55,0.53,31.99,1.34,47.46,15.52c13.66,12.51,16.88,28.71,19.17,41.08c3.19,17.23,2.12,33.39-0.82,47.45
			c12-0.85,25.14-4.04,37.34-11.85c22.36-14.33,31.8-37.94,41.07-61.16c11.08-27.74,6.83-34.95,18.26-59.33
			c0.75-1.61,14.72-30.9,34.68-48.38c20.753-18.167,47.882-23.505,72.619-23.505c2.047,0,4.073,0.036,6.081,0.105
			c1.96,83.17,4.91,166.26,12.76,249.03c1.03,10.86,5.91,61.32-4.2,125.83c-6.77,43.22-15.78,96.51-54.52,138.4
			c-18.88,20.42-32.95,25.29-75.49,48.24c-96.59,52.08-147.51,79.54-186.65,125.82c-16.65,19.7-63.67,75.31-60.81,153.09
			c2.9,78.91,55.33,130.95,73.4,148.89c18.67,18.54,58.71,58.29,123.73,67.11c6.003,0.813,17.379,2.356,31.883,2.356
			c30.071,0,73.606-6.624,110.717-40.106c5.73-5.17,56.07-52.11,52.42-123.73c-2.17-42.75-23-82.67-56.16-111.6
			c0.76,15.07-0.65,30.71-4.27,45.9c-7.71,32.25-24.33,59.43-46.82,76.55c-18.67,14.22-41.74,22.28-66.7,23.33
			c-1.758,0.073-3.522,0.11-5.283,0.11c-22.028,0-44.198-5.693-62.977-16.24c-38.75-21.75-66.57-64.53-72.6-111.64
			c-5.03-39.22,4.8-78.9,26.95-108.85c18.9-25.57,46.74-44.24,80.52-54.02c17.141-4.956,35.541-7.452,54.05-7.452
			c14.133,0,28.329,1.455,42.08,4.382c62.6,13.32,114.99,51.25,157.98,86.59c127.38,104.71,211.63,224.63,250.78,356.79
			c24.76-6.23,54.97-15.3,88.32-28.66c152.65-61.18,243.31-161.16,278.91-201.32c134.06-151.21,171.3-321.76,201.32-459.26
			c67.68-309.96,17.79-552.45-25.16-761.25c-25.74-125.09-60.96-243.08-142.61-360.7c-90.79-130.79-173.43-166.7-197.12-176.15
			C915.471,165.713,867.252,160.106,829.37,160.106L829.37,160.106z"/>
	</g>
</g>
<g id="Layer_9">
	<g>
		<path style="fill:#480000;" d="M647.836,64.8c-16.073,0-29.15-13.077-29.15-29.15S631.763,6.5,647.836,6.5
			s29.15,13.076,29.15,29.149S663.91,64.8,647.836,64.8z"/>
		<path style="fill:#480000;" d="M647.836,13c12.489,0,22.65,10.161,22.65,22.65s-10.161,22.65-22.65,22.65
			c-12.489,0-22.65-10.161-22.65-22.65S635.347,13,647.836,13 M647.836,0c-19.689,0-35.65,15.961-35.65,35.65
			s15.961,35.65,35.65,35.65c19.689,0,35.65-15.961,35.65-35.65S667.525,0,647.836,0L647.836,0z"/>
	</g>
	<g>
		<path style="fill:#480000;" d="M647.836,1359.849c-16.073,0-29.15-13.077-29.15-29.15s13.077-29.149,29.15-29.149
			s29.15,13.076,29.15,29.149S663.91,1359.849,647.836,1359.849z"/>
		<path style="fill:#480000;" d="M647.836,1308.049c12.489,0,22.65,10.161,22.65,22.65c0,12.489-10.161,22.65-22.65,22.65
			c-12.489,0-22.65-10.161-22.65-22.65C625.186,1318.21,635.347,1308.049,647.836,1308.049 M647.836,1295.049
			c-19.689,0-35.65,15.961-35.65,35.65c0,19.689,15.961,35.65,35.65,35.65c19.689,0,35.65-15.961,35.65-35.65
			C683.486,1311.01,667.525,1295.049,647.836,1295.049L647.836,1295.049z"/>
	</g>
	<g>
		<g>
			<rect x="643.341" y="48.027" style="fill:#480000;" width="9" height="1276.169"/>
			<polygon style="fill:#480000;" points="658.841,41.526 636.841,41.526 636.841,1330.696 658.841,1330.696 658.841,41.526 			"/>
		</g>
	</g>
	<g>
		<g>
			<path style="fill:#480000;" d="M728.632,2216.014c-2.073,0-3.866-1.41-4.361-3.431
				c-32.637-133.017-114.173-253.888-242.345-359.257c-38.57-31.706-85.091-65.629-137.702-76.825
				c-10.501-2.235-21.435-3.369-32.496-3.369c-41.208,0-76.227,15.397-96.078,42.243c-14.939,20.203-21.509,47.387-18.025,74.581
				c4.162,32.49,22.84,61.71,48.745,76.256c4.325,2.429,16.113,8.254,32.118,9.88c4.296,0.436,8.484,0.656,12.449,0.656
				c22.295,0,39.356-6.849,50.709-20.354c1.981-2.356,19.143-23.781,11.699-49.932c-3.466-12.178-14.893-33.345-35.732-35.434
				c-1.1-0.11-2.223-0.167-3.335-0.167c-13.16,0-23.446,7.818-27.258,11.18c-1.055,0.931-2.2,1.126-2.975,1.126
				c-1.312,0-2.511-0.541-3.377-1.522c-0.796-0.902-1.192-2.06-1.117-3.259c0.075-1.2,0.613-2.298,1.514-3.093
				c4.579-4.039,16.981-13.432,33.216-13.432c1.405,0,2.828,0.071,4.229,0.212c23.978,2.403,38.414,24.087,43.491,41.925
				c8.712,30.613-11.17,55.454-13.466,58.187c-9.03,10.743-26.388,23.55-57.801,23.552c-4.217,0-8.644-0.232-13.157-0.691
				c-17.044-1.73-29.63-7.625-35.616-10.985c-28.339-15.912-48.749-47.701-53.266-82.961c-3.775-29.474,3.411-59.024,19.716-81.075
				c21.537-29.126,59.343-45.831,103.723-45.831c11.605,0,23.031,1.18,33.961,3.506c54.505,11.601,102.138,46.281,141.543,78.677
				c129.707,106.63,212.261,229.118,245.37,364.063c0.591,2.41-0.888,4.852-3.298,5.443
				C729.356,2215.969,728.992,2216.014,728.632,2216.014z"/>
			<path style="fill:#480000;" d="M312.137,1757.693c-40.266,0.001-83.381,13.889-108.95,48.467
				c-17.292,23.386-24.922,54.646-20.937,85.766c4.772,37.26,26.434,70.903,56.531,87.803c6.424,3.606,19.922,9.935,38.14,11.784
				c4.861,0.494,9.458,0.725,13.814,0.725c33.494-0.002,52.483-13.624,62.776-25.87c2.523-3.002,24.374-30.304,14.742-64.147
				c-5.635-19.798-21.874-43.885-49.095-46.613c-1.659-0.166-3.284-0.244-4.878-0.244c-18.336,0-32.148,10.323-37.515,15.057
				c-4.556,4.019-4.991,10.97-0.972,15.525c2.174,2.465,5.205,3.723,8.253,3.723c2.585,0,5.182-0.906,7.273-2.751
				c3.395-2.994,12.075-9.555,22.959-9.554c0.881,0,1.778,0.043,2.686,0.135c17.371,1.741,27.112,20.146,30.129,30.745
				c6.524,22.923-8.669,41.883-10.423,43.97c-10.083,11.995-25.434,18.037-45.734,18.037c-3.761,0-7.694-0.208-11.793-0.623
				c-14.787-1.502-25.621-6.851-29.593-9.081c-24.147-13.559-41.574-40.923-45.48-71.414c-3.272-25.548,2.853-51.022,16.804-69.891
				c20.904-28.269,56.851-39.607,90.852-39.607c10.755,0,21.315,1.135,31.143,3.226c51.246,10.906,96.964,44.281,134.927,75.489
				c127.064,104.458,207.865,224.161,240.16,355.784c1.231,5.021,5.727,8.382,10.674,8.382c0.868,0,1.75-0.104,2.63-0.319
				c5.9-1.448,9.51-7.404,8.062-13.305c-33.451-136.339-116.741-259.995-247.555-367.536
				c-40.012-32.894-88.448-68.122-144.317-80.013C336.32,1758.972,324.363,1757.692,312.137,1757.693L312.137,1757.693z"/>
		</g>
	</g>
	<g>
		<g>
			<path style="fill:#480000;" d="M77.731,577.336c-2.052,0-3.842-1.393-4.352-3.387c-7.576-29.611-9.679-55.982-6.43-80.622
				c3.67-27.875,13.851-51.441,30.257-70.048c16.725-18.96,38.992-31.791,66.182-38.136c29.577-6.897,58.361-7.491,86.198-8.064
				l0.122-0.002c18.895-0.376,36.739-0.732,54.481-3.004c46.673-5.981,85.218-13.642,121.633-31.583
				c47.78-23.531,91.077-64.488,128.688-121.735c31.617-48.105,55.533-100.833,76.668-150.646
				c4.24-10.003,8.441-20.183,12.487-30.259c0.689-1.717,2.329-2.827,4.178-2.827c0.57,0,1.134,0.11,1.675,0.328
				c1.116,0.448,1.99,1.303,2.462,2.409c0.472,1.105,0.485,2.328,0.037,3.444c-4.063,10.119-8.286,20.353-12.552,30.419
				c-21.301,50.204-45.425,103.375-77.433,152.076c-38.504,58.605-82.993,100.616-132.232,124.866
				c-37.532,18.492-76.901,26.34-124.466,32.436c-18.221,2.334-36.295,2.694-55.429,3.076l-0.112,0.002
				c-27.397,0.565-55.702,1.149-84.359,7.832c-25.331,5.911-46.014,17.795-61.477,35.325c-15.202,17.24-24.65,39.2-28.083,65.27
				c-3.096,23.479-1.059,48.736,6.226,77.215c0.298,1.165,0.125,2.375-0.488,3.409c-0.613,1.034-1.592,1.768-2.756,2.065
				C78.484,577.288,78.106,577.336,77.731,577.336z"/>
			<path style="fill:#480000;" d="M647.843,30.523c-4.36,0-8.486,2.611-10.209,6.904c-4.03,10.035-8.215,20.178-12.439,30.143
				c-21.016,49.534-44.783,101.942-76.117,149.616c-36.966,56.264-79.401,96.46-126.128,119.473
				c-35.608,17.544-73.559,25.067-119.586,30.966c-17.398,2.228-35.071,2.58-53.789,2.953l-0.119,0.002
				c-28.172,0.581-57.303,1.181-87.544,8.233c-28.533,6.658-51.942,20.171-69.581,40.167c-17.275,19.592-27.983,44.32-31.826,73.497
				c-3.359,25.477-1.208,52.653,6.577,83.082c1.271,4.972,5.743,8.276,10.649,8.276c0.902,0,1.82-0.112,2.734-0.346
				c5.886-1.505,9.437-7.498,7.931-13.383c-7.076-27.66-9.064-52.112-6.079-74.755c3.262-24.767,12.183-45.566,26.514-61.819
				c14.551-16.495,34.092-27.697,58.079-33.294c27.998-6.529,55.959-7.105,83-7.663l0.112-0.002
				c19.319-0.385,37.566-0.749,56.139-3.127c48.21-6.178,88.175-14.164,126.512-33.052c50.293-24.769,95.645-67.541,134.792-127.127
				c32.292-49.132,56.564-102.621,77.985-153.109c4.279-10.097,8.519-20.37,12.6-30.533c2.264-5.638-0.471-12.043-6.108-14.307
				C650.596,30.779,649.208,30.523,647.843,30.523L647.843,30.523z"/>
		</g>
	</g>
	<g>
		<g>
			<path style="fill:#480000;" d="M829.37,176.106c45.768,0,89.92,8.358,131.232,24.842c8.5,3.391,34.366,13.709,69.661,40.462
				c42.065,31.885,82.521,75.607,120.244,129.951c37.315,53.753,66.89,110.668,90.416,173.996
				c19.319,52.003,34.636,107.765,49.675,180.851c21.864,106.293,44.473,216.205,53.775,340.64
				c10.605,141.87,1.255,277.266-28.585,413.926c-14.798,67.78-31.571,144.604-60.976,222.234
				c-33.666,88.88-78.376,164.056-136.685,229.825c-15.15,17.09-46.674,52.652-93.698,90.99
				c-54.87,44.735-115.159,80.429-179.188,106.091c-23.323,9.343-47.353,17.438-71.625,24.133
				c-41.849-129.4-126.349-247.003-251.365-349.77c-44.486-36.57-98.855-75.846-164.809-89.88
				c-14.754-3.14-30.032-4.733-45.412-4.733c-20.265,0-39.945,2.719-58.499,8.083c-11.639,3.37-22.65,7.714-32.926,12.962
				c27.868-17.479,62.483-36.143,107.623-60.482c8.155-4.4,15.29-8.147,21.585-11.454c27.272-14.325,40.961-21.515,58.055-40.004
				c42.844-46.329,51.94-104.392,58.58-146.786c6.781-43.265,8.281-88.091,4.339-129.632l-0.018-0.186
				c-8.012-84.476-10.835-169.067-12.693-247.896l-0.356-15.096l-15.092-0.517c-2.221-0.076-4.451-0.115-6.629-0.115
				c-34.359,0-62.337,9.241-83.16,27.469c-22.786,19.955-38.006,52.294-38.626,53.625c-6.766,14.432-8.752,23.899-10.673,33.054
				c-1.639,7.81-3.186,15.187-7.959,27.135c-8.633,21.625-16.787,42.05-34.837,53.617c-3.145,2.013-6.51,3.713-10.08,5.096
				c0.438-10.199-0.256-20.275-2.081-30.134c-2.326-12.565-6.219-33.594-24.091-49.962c-19.761-18.113-43.426-19.113-57.607-19.711
				c-1.592-0.066-3.206-0.1-4.796-0.1c-33.323,0-58.696,14.494-70.842,23.124c-9.644,6.838-29.714,21.067-40.342,48.308
				c-10.041,25.738-8.274,55.497,4.976,83.802c4.256,9.087,9.418,16.929,14.973,23.665c-20.111-7.232-30.739-27.291-39.288-43.427
				c-14.767-27.851-15.212-54.457-15.479-70.384c-0.303-18.203-0.811-48.668,16.44-81.764c9.155-17.56,21.992-33.059,38.154-46.064
				c14.33-11.531,28.593-18.917,36.258-22.886c19.336-10.017,40.265-16.703,62.207-19.871l23.001-3.322l-11.31-20.301
				c-8.394-15.067-13.817-31.135-16.117-47.75l-0.008-0.056c-2.295-16.636-6.137-44.48,8.086-64.155
				c1.445-2,3.065-3.899,4.847-5.692c-3.553,9.491-7.933,25.383-3.207,44.066c8.207,32.428,37.143,46.565,42.888,49.082
				c9.509,4.145,19.639,6.246,30.11,6.246c12.257,0,24.904-3.019,35.609-8.498c6.685-3.419,20.595-10.534,26.81-26.767
				c5.843-15.209,1.274-28.768-0.688-34.589c-0.293-0.866-0.604-1.726-0.934-2.578c9.5,1.818,20.87,5.705,27.809,13.991
				c5.36,6.402,8.36,15.704,11.536,25.552c0.622,1.929,1.265,3.924,1.935,5.921c5.259,15.655,13.555,35.23,31.168,47.747
				c12.095,8.595,27.506,12.954,45.806,12.954c5.182,0,10.729-0.35,16.486-1.039l14.395-1.725l-0.302-14.495l-0.366-17.764
				c-1.438-69.989-2.925-142.36-6.854-213.535c-2.526-45.768-5.138-93.094-28.515-147.987l-0.02-0.047l-0.002-0.003
				c-33.659-78.941-82.53-131.228-145.257-155.411c-12.628-4.865-38.906-14.989-70.588-14.989c-14.47,0-28.776,2.091-42.517,6.212
				c-11.141,3.338-21.828,7.953-31.972,13.796c-0.079-5.579,0.224-10.933,0.907-16.118c1.946-14.766,6.8-26.636,14.427-35.282
				c7.629-8.648,18.083-14.428,31.954-17.667c22.979-5.359,47.163-5.843,72.776-6.355l0.096-0.002
				c19.81-0.408,40.294-0.83,61.378-3.534c46.006-5.894,95.083-14.551,142.256-37.786c45.303-22.311,86.752-56.591,123.666-102.202
				c-5.598,62.625-10.208,125.67-13.749,188.112c-7.589,133.798-6.296,194.786-3.95,305.503
				c1.75,82.578,4.147,195.673,3.924,389.525c-0.009,7.78-0.021,15.379-0.033,22.816c-0.217,131.058-0.347,210.164,21.275,326.157
				c6.788,36.381,15.133,72.982,24.801,108.782c9.214,34.158,28.384,64.341,55.438,87.284c19.657,16.676,41.841,35.07,60.861,50.463
				l0.275,0.223c29.353,23.77,59.704,48.348,87.874,73.658c9.248,8.304,18.34,16.292,27.132,24.017l1.484,1.303
				c40.946,35.938,76.309,66.975,108.6,111.91l18.96,26.39l13.485,18.769l12.822-19.228l18.031-27.041
				c51.022-76.534,87.023-160.716,107.002-250.208c14.926-66.842,20.179-133.582,24.281-196.213
				c15.768-241.195,8.945-470.216-20.858-700.148c-11.328-87.49-30.008-201.42-74.267-306.724
				c-46.43-110.497-115.776-198.545-200.543-254.626c-39.486-26.12-81.589-42.698-121.751-47.94
				c-9.723-1.273-19.46-1.918-28.941-1.918c-12.445,0-24.739,1.108-36.746,3.304v-15.335c30.302-16.381,62.613-28.14,96.182-34.991
				C782.072,178.389,805.404,176.106,829.37,176.106 M183.401,1756.594c-6.92,6.434-13.208,13.458-18.804,21.028
				c-24.587,33.245-35.505,77.129-29.957,120.395c6.661,52.035,37.56,99.381,80.636,123.559
				c20.999,11.794,46.147,18.29,70.812,18.29c1.98,0,3.981-0.042,5.956-0.124c28.262-1.189,54.447-10.383,75.719-26.585
				c25.412-19.344,44.124-49.73,52.693-85.572c0.885-3.711,1.65-7.439,2.296-11.181c4.453,6.183,8.409,12.672,11.847,19.437
				c8.828,17.374,13.788,35.725,14.744,54.549c1.365,26.796-5.505,52.943-20.421,77.716c-11.536,19.16-24.298,31.118-26.738,33.32
				c-14.889,13.433-32.357,23.249-51.92,29.175c-14.916,4.519-31.092,6.81-48.079,6.81c-13.421,0-24.031-1.438-29.732-2.21
				c-59.716-8.101-96.79-44.916-114.617-62.619c-8.86-8.797-25.353-25.17-40.099-48.721c-17.828-28.472-27.442-58.548-28.575-89.393
				c-2.631-71.57,40.71-122.852,57.038-142.17C157.28,1779.195,169.354,1767.682,183.401,1756.594 M829.37,160.106
				c-34.913,0-61.043,4.76-72.549,7.11c-43.17,8.81-79.53,24.35-108.98,41.27v44.98c16.948-5.03,34.559-7.553,52.746-7.553
				c8.823,0,17.78,0.594,26.865,1.783c37.77,4.93,77.54,20.64,115,45.42c82.12,54.33,149.42,139.91,194.62,247.48
				c43.51,103.52,61.95,216.08,73.15,302.58c29.67,228.9,36.46,456.9,20.76,697.05c-4.06,62-9.25,128.03-23.93,193.77
				c-19.55,87.57-54.78,169.94-104.7,244.82l-18.03,27.04l-18.96-26.39c-33.35-46.41-69.35-78.01-111.04-114.6
				c-9.23-8.11-18.78-16.49-28.48-25.2c-28.56-25.66-59.17-50.44-88.77-74.41c-17.36-14.05-39.35-32.22-60.58-50.23
				c-24.42-20.71-42-48.33-50.34-79.25c-8.82-32.66-17.26-68.64-24.52-107.55c-22.58-121.13-21.13-203.33-20.97-346.02
				c0.52-453.59-13.2-461.41,0-694.14c5.57-98.2,12.87-182.23,19.27-246.38c-1.33,2.09-2.68,4.18-4.05,6.26
				c-42.53,64.71-92.38,111.47-148.18,138.95c-45.05,22.19-92.57,30.55-137.22,36.27c-20.27,2.6-40.35,3.01-59.77,3.41
				c-26.49,0.53-51.51,1.04-76.08,6.77c-34.13,7.97-53.85,30.32-58.61,66.44c-1.88,14.27-1.27,29.58,1.96,46.84
				c11.63-9.82,28.1-20.67,49.56-27.1c13.312-3.993,26.063-5.539,37.924-5.539c27.914,0,50.919,8.557,64.836,13.919
				c88.27,34.03,125.71,121.94,136.31,146.8c21.83,51.26,24.58,94.04,27.26,142.6c4.24,76.81,5.6,153.79,7.2,230.75
				c-4.846,0.581-9.742,0.926-14.583,0.926c-13.251,0-26.107-2.584-36.537-9.996c-13.03-9.26-20.18-24.65-25.27-39.8
				c-4.28-12.77-7.72-26.32-16.37-36.65c-10.14-12.11-26.06-17.95-41.7-20.21c-10.96-1.58-22.24-2.43-33.55-2.73
				c8.71,6.38,16.98,15.17,20.95,26.92c1.55,4.6,4.69,13.89,0.91,23.73c-4.02,10.5-13.51,15.37-19.16,18.26
				c-7.641,3.911-17.558,6.743-28.323,6.743c-7.647,0-15.722-1.428-23.717-4.913c-3.15-1.38-27.19-12.34-33.77-38.34
				c-4.44-17.55,1.57-32.05,4.57-39.25c7.8-18.79,21.58-30.27,31.26-36.5c-28.1,1.88-52.22,12.93-65.95,31.93
				c-18,24.9-13.54,57.07-10.96,75.77c3.01,21.74,10.38,39.69,17.99,53.35c-19.46,2.81-42.92,8.88-67.28,21.5
				c-19.06,9.87-57.67,30.55-81.24,75.76c-19.14,36.72-18.56,70.85-18.25,89.46c0.31,18.52,1.1,46.95,17.34,77.58
				c9.51,17.95,22.21,41.9,48.38,51.12c7.177,2.53,14.338,3.587,21.292,3.587c9.015,0,17.683-1.775,25.598-4.417
				c-13.66-7.74-31.44-21.56-42.33-44.81c-3.16-6.75-17.64-37.67-4.56-71.2c8.88-22.76,25.79-34.76,34.69-41.07
				c8.795-6.25,31.216-20.176,61.587-20.176c1.364,0,2.738,0.028,4.133,0.086c12.55,0.53,31.99,1.34,47.46,15.52
				c13.66,12.51,16.88,28.71,19.17,41.08c3.19,17.23,2.12,33.39-0.82,47.45c12-0.85,25.14-4.04,37.34-11.85
				c22.36-14.33,31.8-37.94,41.07-61.16c11.08-27.74,6.83-34.95,18.26-59.33c0.75-1.61,14.72-30.9,34.68-48.38
				c20.753-18.167,47.882-23.505,72.619-23.505c2.047,0,4.073,0.036,6.081,0.105c1.96,83.17,4.91,166.26,12.76,249.03
				c1.03,10.86,5.91,61.32-4.2,125.83c-6.77,43.22-15.78,96.51-54.52,138.4c-18.88,20.42-32.95,25.29-75.49,48.24
				c-96.59,52.08-147.51,79.54-186.65,125.82c-16.65,19.7-63.67,75.31-60.81,153.09c2.9,78.91,55.33,130.95,73.4,148.89
				c18.67,18.54,58.71,58.29,123.73,67.11c6.003,0.813,17.379,2.356,31.883,2.356c30.071,0,73.606-6.624,110.717-40.106
				c5.73-5.17,56.07-52.11,52.42-123.73c-2.17-42.75-23-82.67-56.16-111.6c0.76,15.07-0.65,30.71-4.27,45.9
				c-7.71,32.25-24.33,59.43-46.82,76.55c-18.67,14.22-41.74,22.28-66.7,23.33c-1.758,0.073-3.522,0.11-5.283,0.11
				c-22.028,0-44.198-5.693-62.977-16.24c-38.75-21.75-66.57-64.53-72.6-111.64c-5.03-39.22,4.8-78.9,26.95-108.85
				c18.9-25.57,46.74-44.24,80.52-54.02c17.141-4.956,35.541-7.452,54.05-7.452c14.133,0,28.329,1.455,42.08,4.382
				c62.6,13.32,114.99,51.25,157.98,86.59c127.38,104.71,211.63,224.63,250.78,356.79c24.76-6.23,54.97-15.3,88.32-28.66
				c152.65-61.18,243.31-161.16,278.91-201.32c134.06-151.21,171.3-321.76,201.32-459.26c67.68-309.96,17.79-552.45-25.16-761.25
				c-25.74-125.09-60.96-243.08-142.61-360.7c-90.79-130.79-173.43-166.7-197.12-176.15
				C915.471,165.713,867.252,160.106,829.37,160.106L829.37,160.106z"/>
		</g>
	</g>
	<g>
		<g>
			<path style="fill:#480000;" d="M978.36,1930.031c-30.473-36.935-62.94-65.431-97.313-95.599
				c-8.175-7.175-18.31-16.068-28.134-24.899c-20.305-18.232-42.703-36.209-64.363-53.593c-6.329-5.079-12.589-10.104-18.709-15.064
				l-0.216-0.175l-0.654-0.443c-19.96-13.531-38.393-29.104-54.785-46.285c-15.722-16.481-33.541-35.163-47.426-65.061
				c-6.109-13.153-16.334-35.168-17.197-65.608c-0.536-18.976-1.433-50.735,21.168-76.278c6.41-7.251,24.375-24.45,52.734-27.592
				c2.845-0.313,7.153-0.785,12.429-0.785c17.588,0,31.737,5.249,42.054,15.602c14.74,14.792,15.933,33.942,15.761,41.489
				c-0.169,7.15-0.522,22.043-11.664,32.533c-6.763,6.363-16.313,9.869-26.889,9.869c-7.656,0.001-15.708-1.842-23.287-5.326
				c-2.254-1.037-3.245-3.715-2.208-5.969c0.732-1.594,2.34-2.623,4.095-2.623c0.646,0,1.275,0.14,1.873,0.414
				c6.379,2.934,13.134,4.483,19.535,4.483c8.283,0,15.639-2.629,20.712-7.401c8.401-7.911,8.684-19.802,8.835-26.189
				c0.113-4.992-0.5-22.244-13.139-34.927c-8.59-8.621-20.471-12.991-35.313-12.991c-4.812,0-8.991,0.458-11.756,0.761
				c-25.996,2.88-42.57,19.568-47.031,24.614c-20.246,22.883-19.444,51.274-18.913,70.063c0.811,28.584,10.546,49.547,16.363,62.072
				c13.258,28.548,29.789,45.878,45.775,62.638c15.935,16.701,33.857,31.845,53.266,45.01l1.343,0.953
				c6.172,5.003,12.489,10.073,18.876,15.199c21.758,17.463,44.258,35.52,64.745,53.916c9.766,8.779,19.859,17.638,27.97,24.755
				l0.082,0.072c31.051,27.253,60.372,52.988,88.314,84.872l6.007,6.854l4.524-7.91c33.605-58.756,58.138-122.097,72.914-188.265
				c13.9-62.252,18.911-126.13,22.852-186.224c15.479-236.9,8.79-461.77-20.453-687.457
				c-11.481-88.592-28.74-192.298-69.695-289.755c-41.405-98.53-102.367-176.462-176.294-225.371
				c-26.858-17.766-68.51-38.944-114.413-38.944c-17.91,0-35.136,3.311-51.2,9.84c-0.545,0.222-1.114,0.334-1.69,0.334
				c-1.841,0-3.479-1.102-4.173-2.809c-0.453-1.114-0.444-2.337,0.023-3.444c0.467-1.107,1.338-1.967,2.452-2.419
				c17.193-6.987,35.55-10.531,54.562-10.531c48.127,0,91.497,22.006,119.405,40.467c75.416,49.893,137.529,129.215,179.625,229.389
				c41.368,98.442,58.764,202.894,70.324,292.085c29.318,226.279,36.027,451.718,20.508,689.202
				c-3.963,60.442-9.008,124.717-23.049,187.597c-16.13,72.23-43.664,140.971-81.838,204.313l-3.28,5.444L978.36,1930.031z"/>
			<path style="fill:#480000;" d="M700.709,279.937c-18.523,0-37.748,3.181-57.009,11.009c-5.628,2.288-8.336,8.704-6.049,14.332
				c1.736,4.272,5.852,6.861,10.195,6.861c1.379,0,2.781-0.261,4.137-0.813c16.354-6.647,32.794-9.362,48.753-9.361
				c45.304,0.003,86.682,21.894,110.826,37.865c72.853,48.198,132.982,125.126,173.889,222.468
				c40.653,96.741,57.815,199.91,69.241,288.072c29.188,225.269,35.865,449.727,20.413,686.197
				c-3.924,59.839-8.909,123.432-22.709,185.231c-14.648,65.596-38.921,128.248-72.213,186.454
				c-28.227-32.207-57.8-58.163-88.916-85.474c-8.119-7.125-18.224-15.992-27.997-24.777c-20.62-18.516-43.191-36.631-65.019-54.149
				c-6.434-5.164-12.797-10.271-19.012-15.31l-1.565-1.111c-19.052-12.916-36.64-27.773-52.272-44.158
				c-15.623-16.378-31.777-33.313-44.583-60.89c-5.606-12.071-14.988-32.274-15.761-59.518c-0.502-17.766-1.26-44.612,17.286-65.573
				c4.071-4.605,19.191-19.835,42.858-22.457c2.715-0.298,6.596-0.724,11.06-0.724c9.479,0,21.584,1.922,30.709,11.079
				c10.824,10.861,11.343,25.857,11.245,30.185c-0.138,5.82-0.37,15.563-6.791,21.609c-3.973,3.738-9.765,5.636-16.258,5.636
				c-5.341,0-11.157-1.286-16.819-3.889c-1.489-0.685-3.051-1.009-4.589-1.009c-4.164,0-8.147,2.376-10.001,6.407
				c-2.538,5.52-0.122,12.051,5.398,14.59c8.636,3.971,17.542,5.921,26.002,5.921c12.036,0,23.172-3.948,31.345-11.637
				c13.119-12.353,13.53-29.7,13.706-37.118c0.19-8.38-1.148-29.66-17.655-46.225c-14.656-14.706-33.423-17.514-46.657-17.514
				c-5.631,0-10.262,0.509-13.146,0.825c-30.608,3.391-49.981,21.933-56.887,29.744c-24.303,27.468-23.36,60.834-22.797,80.771
				c0.901,31.775,11.479,54.553,17.799,68.161c14.335,30.868,32.548,49.963,48.618,66.811c16.712,17.516,35.501,33.39,55.841,47.179
				l0.424,0.287c6.128,4.967,12.396,9.998,18.734,15.084c21.594,17.331,43.924,35.253,64.086,53.357
				c9.866,8.868,20.025,17.784,28.191,24.95c34.174,29.993,66.452,58.324,96.588,94.851l9.888,11.983l8.019-13.307
				c38.535-63.941,66.331-133.334,82.614-206.251c14.142-63.331,19.211-127.89,23.191-188.59
				c15.547-237.911,8.825-463.763-20.548-690.461c-11.616-89.622-29.108-194.609-70.778-293.768
				C963.136,452.412,900.191,372.087,823.7,321.482C797.12,303.9,751.554,279.937,700.709,279.937L700.709,279.937z"/>
		</g>
	</g>
</g>
</svg>
