<?xml version="1.0" encoding="iso-8859-1"?>
<!-- Generator: Adobe Illustrator 24.0.1, SVG Export Plug-In . SVG Version: 6.00 Build 0)  -->
<svg version="1.1" xmlns="http://www.w3.org/2000/svg" xmlns:xlink="http://www.w3.org/1999/xlink" x="0px" y="0px"
	 viewBox="0 0 1917.931 2169.044" style="enable-background:new 0 0 1917.931 2169.044;" xml:space="preserve">
<g id="Layer_6">
	<circle cx="681.47" cy="35.65" r="35.65"/>
	<circle cx="681.47" cy="2133.394" r="35.65"/>
	<g>
		<rect x="670.47" y="35.652" width="22" height="2097.74"/>
	</g>
	<g>
		<path d="M1208.564,1861.106c-18.552,0-37.639-0.86-57.212-2.733c-81.351-7.781-145.631-30.563-185.229-48.302
			c-72.925-32.684-120.103-72.302-165.727-110.615c-45.897-38.545-88.767-81.894-127.418-128.843
			c-3.861-4.689-3.189-11.622,1.5-15.483c4.69-3.861,11.623-3.19,15.484,1.501c37.799,45.911,79.714,88.297,124.582,125.978
			c44.469,37.344,90.452,75.958,160.575,107.386c38.091,17.065,99.951,38.981,178.328,46.479
			c161.201,15.435,288.394-40.491,349.864-75.199c35.265-19.927,108.524-61.322,169.878-146.357
			c17.13-23.743,52.773-73.149,69.652-147.654c13.085-57.766,8.791-104.329,6.337-121.668c-3.619-25.608-9.676-68.467-38.903-109.03
			c-14.744-20.452-31.431-43.598-60.377-50.644c-7.254-1.768-29.324-7.146-47.212,4.679c-21.502,14.194-22.343,41.083-22.349,41.354
			c-0.218,18.254,9.736,35.704,25.36,44.397c0.274,0.153,24.718,13.605,41.743,1.939c0.582-0.398,14.127-9.821,12.199-21.376
			c-1.515-9.091-12.149-16.921-21.908-16.108c-5.148,0.435-9.211,3.263-11.711,5.559c-4.475,4.109-11.433,3.814-15.542-0.659
			c-4.11-4.474-3.814-11.433,0.659-15.542c5.026-4.618,13.402-10.323,24.758-11.28c21.25-1.769,42.043,13.994,45.444,34.414
			c3.144,18.841-9.599,35.017-21.466,43.143c-27.691,18.978-61.176,1.209-64.902-0.881c-22.556-12.551-36.946-37.649-36.632-63.926
			c0.024-1.611,0.957-38.751,32.219-59.389c25.895-17.118,54.985-10.027,64.545-7.698c36.836,8.966,57.734,37.955,72.994,59.122
			c32.428,45.004,38.96,91.229,42.863,118.847c2.624,18.539,7.227,68.285-6.663,129.608
			c-17.871,78.879-55.286,130.742-73.268,155.666c-64.176,88.945-140.27,131.943-176.838,152.606
			C1457.875,1812.193,1348.484,1861.106,1208.564,1861.106z"/>
	</g>
	<g>
		<path d="M682.018,540.803c-1.433,0-2.887-0.281-4.289-0.875c-5.593-2.372-8.205-8.828-5.833-14.421
			c17.144-40.434,36.628-83.075,62.891-120.979c28.117-40.583,60.567-70.569,96.448-89.126
			c40.805-21.105,80.665-21.8,126.818-22.605l0.125-0.002c4.753-0.083,9.546-0.167,14.383-0.274
			c11.279-0.251,22.882-0.599,34.104-0.935c79.409-2.376,161.522-4.835,233.491,20.644c27.328,9.68,73.027,40.645,119.335,98.521
			l9.748,12.184l11.06-11.007c21.357-21.256,44.24-43.12,66.369-64.264c12.243-11.698,24.903-23.794,36.929-35.434
			c32.104-31.071,61.543-58.955,96.757-85.551c26.458-19.983,55.646-35.841,86.756-47.133c5.706-2.073,12.021,0.875,14.093,6.586
			c2.073,5.711-0.876,12.021-6.587,14.093c-29.044,10.542-56.297,25.349-81.002,44.009c-34.281,25.892-62.018,52.157-94.716,83.804
			c-12.077,11.688-24.763,23.809-37.031,35.531c-22.049,21.068-44.85,42.854-66.048,63.952l-28.438,28.303l-25.066-31.329
			c-43.418-54.264-85.033-82.86-109.501-91.527c-68.084-24.104-148.104-21.709-225.489-19.392
			c-11.263,0.337-22.909,0.686-34.271,0.938c-4.873,0.109-9.701,0.193-14.49,0.277l-0.125,0.002
			c-43.391,0.756-80.864,1.41-117.095,20.149c-32.656,16.89-62.421,44.517-88.471,82.115c-25.13,36.27-44.035,77.686-60.72,117.038
			C690.373,538.285,686.3,540.802,682.018,540.803z"/>
	</g>
	<g>
		<path d="M326.112,2061.905c-3.912,0-7.803-0.128-11.661-0.388c-90.798-6.107-138.96-83.002-151.559-106.424
			c-32.269-60.069-36.156-116.537-10.953-159.015c5.809-9.79,37.535-58.518,92.963-58.518c0.143,0,0.284,0.001,0.427,0.001
			c37.201,0.167,72.62,21.763,88.136,53.737c4.182,8.596,16.768,39.125,2.986,70.712c-13.662,31.359-32.345,39.127-45.611,40.12
			c-23.553,1.753-47.11-16.689-56.015-43.897c-1.89-5.774,1.259-11.986,7.033-13.876c5.773-1.892,11.986,1.259,13.875,7.032
			c5.704,17.428,20.092,29.805,33.46,28.803c10.375-0.776,19.742-10.104,27.091-26.975c10.019-22.964,0.537-45.84-2.607-52.304
			c-11.941-24.607-39.447-41.223-68.448-41.353c-0.107-0.001-0.216-0.001-0.322-0.001c-43.513,0-69.309,39.756-74.048,47.744
			c-28.487,48.013-5.082,106.67,11.405,137.362c11.249,20.913,54.125,89.549,133.663,94.898
			c54.401,3.671,110.709-21.636,130.982-58.847c13.759-25.253,22.106-74.861,22.188-75.359c1.498-9.015,2.626-18.299,3.355-27.598
			c3.877-49.896-2.669-96.182-19.457-137.565c-36.813-90.771-117.733-136.845-176.819-170.485
			c-22.509-12.827-46.238-24.184-70.53-33.755l-54.747-21.585c-0.512,0.228-1.023,0.455-1.534,0.682
			c-26.225,11.651-53.342,23.698-84.716,23.698c-15.864,0-30.951-2.881-42.481-8.112C2.88,1521.887,0,1509.824,0,1503.411
			c0-19.123,19.436-31.824,53.323-34.846c29.445-2.62,58.735,8.37,82.27,17.196c4.73,1.777,9.394,3.366,14.271,5.011l0.005-0.002
			l0.001,0.001c0.02-0.009,0.04-0.018,0.06-0.026l0.387-0.159l55.43-21.66c34.625-13.519,67.377-31.385,97.349-53.102l5.541-3.995
			c28.482-20.558,53.083-38.314,71.904-67.446c21.496-33.288,27.042-65.803,31.628-101.812
			c15.478-121.323,14.581-247.93,13.714-370.368l-0.002-0.234c-0.274-37.816-0.585-80.681-0.3-121.955
			c0.357-50.673,0.727-103.07-6.088-152.893c-12.433-90.967-57.159-168.096-129.344-223.048c-4.834-3.68-5.77-10.582-2.09-15.416
			c3.68-4.833,10.581-5.769,15.416-2.089c38.411,29.241,69.644,64.316,92.83,104.25c23.228,40.005,38.363,84.862,44.986,133.322
			c7.028,51.383,6.653,104.581,6.291,156.027c-0.285,41.117,0.026,83.898,0.299,121.643l0.002,0.236
			c0.872,123.165,1.774,250.521-13.89,373.305c-4.932,38.719-10.968,73.795-34.971,110.967
			c-21.068,32.611-47.226,51.49-77.513,73.351l-5.523,3.983c-31.465,22.8-65.868,41.567-102.233,55.766l-33.228,12.983
			l33.192,13.086c25.26,9.953,49.94,21.765,73.352,35.106c61.881,35.232,146.636,83.488,186.317,181.333
			c18.081,44.57,25.147,94.212,21.003,147.546c-0.778,9.935-1.984,19.854-3.585,29.49c-0.362,2.183-9.057,53.804-24.572,82.28
			c-12.2,22.395-34.87,41.77-63.832,54.556C378.585,2056.312,351.901,2061.905,326.112,2061.905z M62.456,1490.167
			c-2.403,0-4.797,0.1-7.183,0.312C36.928,1492.115,22,1497.916,22,1503.411c0,0.492,1.609,3.723,9.259,7.193
			c8.61,3.906,20.781,6.146,33.391,6.146c19.585,0,37.626-5.694,55.809-13.154C102.056,1496.8,82.029,1490.167,62.456,1490.167z"/>
	</g>
	<linearGradient id="SVGID_1_" gradientUnits="userSpaceOnUse" x1="453.8103" y1="1459.9612" x2="453.8103" y2="329.9842">
		<stop  offset="0" style="stop-color:#8B1D1A"/>
		<stop  offset="0.25" style="stop-color:#550000"/>
		<stop  offset="0.5" style="stop-color:#3A0000"/>
		<stop  offset="0.75" style="stop-color:#1E0000"/>
		<stop  offset="1" style="stop-color:#000000"/>
	</linearGradient>
	<path style="fill:url(#SVGID_1_);" d="M626.04,89.392c-21.12,34.84-46.85,72.86-78.08,112.22c-48,60.49-74.98,93.87-121.63,121.63
		c-15.14,9.01-37.43,20.45-67.02,29.44c21.4,19.98,40.26,41.93,56.43,65.72c33.97,49.99,55.57,107.33,64.19,170.46
		c7.4,54.13,7.02,108.75,6.65,161.58c-0.28,40.14,0.01,81.29,0.3,121.09c0.88,124.53,1.8,253.3-14.2,378.75
		c-5.13,40.26-12.51,83.24-40.9,127.19c-25.03,38.76-55.35,60.65-87.44,83.82l-5.46,3.94c-18.92,13.71-38.82,26.07-59.51,36.99
		c9.15,4.61,18.15,9.44,26.99,14.48c31.91,18.17,71.61,40.78,108.35,72.04c43.87,37.33,74.88,79.37,94.82,128.52
		c20.37,50.25,28.36,105.84,23.73,165.23c-2.86,36.93-11.07,73.13-24.43,107.83l-0.01,0.01l0.01-0.01
		c53.38-58.14,84.54-134.73,99.7-212.51c12.75-65.39,17.62-133.12,19.1-201.37c1.69-77.58-0.52-155.26-1.34-232.84
		c-1.84-172.81-0.25-345.74-0.25-518.57c0-172.53,0-345.06,0-517.59C626.04,234.762,626.04,162.072,626.04,89.392z"/>
	<linearGradient id="SVGID_2_" gradientUnits="userSpaceOnUse" x1="1176.1851" y1="1459.9612" x2="1176.1851" y2="329.9842">
		<stop  offset="0" style="stop-color:#8B1D1A"/>
		<stop  offset="0.25" style="stop-color:#550000"/>
		<stop  offset="0.5" style="stop-color:#3A0000"/>
		<stop  offset="0.75" style="stop-color:#1E0000"/>
		<stop  offset="1" style="stop-color:#000000"/>
	</linearGradient>
	<path style="fill:url(#SVGID_2_);" d="M681.47,416.042c6.59-11.45,13.64-22.74,21.26-33.73c31.78-45.87,68.99-80.04,110.59-101.55
		c48.91-25.3,95.12-26.11,144.05-26.96c4.73-0.08,9.5-0.17,14.32-0.27c11.1-0.25,22.13-0.58,33.81-0.93
		c83-2.48,168.82-5.05,247.67,22.86c36.39,12.89,79.66,45.78,119,89.88c31.88-30.58,66.12-63.4,97.55-94.45
		c30.44-30.07,60.09-55.32,94.81-80.58c32.13-23.36,68.3-41.46,106.37-53.12H681.47V416.042z"/>
	<linearGradient id="SVGID_3_" gradientUnits="userSpaceOnUse" x1="1299.7007" y1="1459.9612" x2="1299.7007" y2="329.9842">
		<stop  offset="0" style="stop-color:#8B1D1A"/>
		<stop  offset="0.25" style="stop-color:#550000"/>
		<stop  offset="0.5" style="stop-color:#3A0000"/>
		<stop  offset="0.75" style="stop-color:#1E0000"/>
		<stop  offset="1" style="stop-color:#000000"/>
	</linearGradient>
	<path style="fill:url(#SVGID_3_);" d="M681.47,1738.642c13.64,17.2,30.34,36.06,50.47,55.17c65,61.7,128.81,90.85,164.14,106.63
		c63.424,28.311,127.185,44.31,184.309,53.037c26.711,4.08,51.286,16.977,69.706,36.747l64.965,69.727l69.862-74.982
		c17.04-18.289,39.372-30.786,63.878-35.721c75.539-15.211,198.306-51.634,318.891-139.997c43.6-31.96,101.82-75.42,154.32-152.92
		c87.11-128.62,94.3-256.29,95.39-286.2c1.56-42.65,4.32-161.07-67.34-276.37c-21.97-35.35-52.51-83.17-113.63-116.44
		c-18.61-10.13-84.91-44.95-171.16-29.46c-27.9,5.01-94.75,21.9-144.5,81.37c-11.69,13.97-37.24,45.29-46.29,93.99
		c-2.01,10.82-11.76,63.27,11.22,108.03c26.16,50.94,89.78,82.28,163.92,81.77c-20.35-23.74-31.59-53.21-30.23-83.51
		c0.44-9.81,4.91-60.25,49.67-89.81c26.6-17.58,58.66-21.97,95.27-13.05c50.85,12.38,78.76,51.11,95.43,74.25
		c38.03,52.77,45.7,107.01,49.82,136.16c3.63,25.69,7.52,78.51-7.24,143.67c-19.63,86.62-61.71,144.96-79.68,169.87
		c-69.21,95.93-153.41,143.48-189.36,163.78c-59.77,33.76-176,85.72-324.79,85.72c-19.74,0-40.04-0.91-60.87-2.9
		c-86.64-8.29-155.2-32.61-197.46-51.54c-77.86-34.89-127.17-76.3-174.86-116.34c-32.97-27.69-64.36-57.67-93.85-89.64V1738.642z"/>
	<linearGradient id="SVGID_4_" gradientUnits="userSpaceOnUse" x1="918.7057" y1="1459.9612" x2="918.7057" y2="329.9842">
		<stop  offset="0" style="stop-color:#8B1D1A"/>
		<stop  offset="0.25" style="stop-color:#550000"/>
		<stop  offset="0.5" style="stop-color:#3A0000"/>
		<stop  offset="0.75" style="stop-color:#1E0000"/>
		<stop  offset="1" style="stop-color:#000000"/>
	</linearGradient>
	<path style="fill:url(#SVGID_4_);" d="M908.763,807.81H681.47v69.606h296.095h36.579l1.584,0.045
		c5.68,0.158,11.71,0.769,17.99,2.014c34.429,6.823,55.497,28.512,70.398,44.295c15.387,16.293,26.702,33.841,35.029,50.903
		c12.48-27.211,19.845-58.506,15.58-92.517c-6.393-50.994-36.613-89.36-47.452-102.813c-25.65-31.827-55.089-51.265-78.035-62.874
		c-6.483,30.413-22.515,56.481-46.14,72.717c-28.58,19.653-60.124,19.325-74.335,18.193V807.81z"/>
	<g>
		<path d="M816.187,1061.085c-19.933,0.001-42.412-10.252-52.429-30.964c-9.217-19.057-3.792-37.885-1.032-45.096
			c2.171-5.673,8.532-8.511,14.205-6.341c5.674,2.172,8.513,8.532,6.341,14.206c-1.738,4.54-5.188,16.322,0.291,27.651
			c7.166,14.813,25.981,20.803,39.304,17.856c20.889-4.621,32.978-34.381,29.83-57.901c-4.263-31.852-37.026-46.308-38.418-46.907
			c-37.709-16.24-76.698,11.399-81.02,14.604c-25.894,19.203-40.762,54.517-40.792,96.886c-0.004,6.072-4.929,10.992-11,10.992
			c-0.003,0-0.005,0-0.008,0c-6.075-0.004-10.997-4.933-10.992-11.008c0.035-49.4,18.146-91.149,49.687-114.54
			c5.362-3.978,53.813-38.25,102.827-17.14c4.663,2.008,45.723,20.87,51.521,64.194c4.515,33.738-13.247,74.859-46.884,82.3
			C823.987,1060.683,820.136,1061.085,816.187,1061.085z"/>
	</g>
</g>
<g id="Layer_11">
	<g>
		<path style="fill:#BFCBC2;" d="M1474.709,1247.14c-5.264-41.496-30.934-86.718-65.562-112.782
			C1461.759,1139.343,1496.028,1200.955,1474.709,1247.14z"/>
	</g>
	<g>
		<path style="fill:#BFCBC2;" d="M1734.404,1015.033c7.621,83.885-101.628,71.265-156.787,63.018
			c-63.821-3.095-111.696,46.433-112.823,108.395c-15.318-50.668,16.948-110.761,69.04-128.209
			C1597.977,1028.66,1711.935,1111.921,1734.404,1015.033z"/>
	</g>
	<g>
		<path style="fill:#BFCBC2;" d="M1451.568,1101.752c-41.083-20.47-16.6-82.267,27.611-73.901
			c46.699,6.902,49.249,70.65,4.88,78.739C1539.412,1045.343,1416.107,1027.99,1451.568,1101.752z"/>
	</g>
	<g>
		<path style="fill:#BFCBC2;" d="M1527.311,1018.374c-0.298-32.657,49.039-45.666,67.356-16.316
			c24.532,33.481-8.572,78.021-46.635,62.723C1612.649,1053.227,1569.906,966.694,1527.311,1018.374z"/>
	</g>
	<g>
		<path style="fill:#BFCBC2;" d="M1621.546,1012.171c-5.269-28.222,40.569-46.565,60.459-9.53
			c19.141,39.371-25.311,76.22-64.151,61.839C1701.559,1042.717,1649.719,964.602,1621.546,1012.171z"/>
	</g>
	<g>
		<path style="fill:#BFCBC2;" d="M1810.97,1166.596c-36.787-28.569-28.499-48.129-38.407-86.582
			c-18.62-16.485-42.327,14.434-26.061,42.587c-73.405-62.532,74.274-124.385,54.61-10.667
			C1800.059,1132.376,1803.836,1149.111,1810.97,1166.596z"/>
	</g>
	<g>
		<path style="fill:#BFCBC2;" d="M1024.983,840.022c23.238,16.995,59.15-1.937,41.961-33.044
			c-7.622-14.287-37.186-14.41-32.62,10.439c-25.26-35.139,40.962-56.432,57.442-13.532
			C1111.763,855.811,1044.18,880.276,1024.983,840.022z"/>
	</g>
	<g>
		<path style="fill:#BFCBC2;" d="M1032.209,857.088c-24.031-3.374-39.274-39.026-20.215-58.915
			C1008.275,817.753,1015.2,842.398,1032.209,857.088z"/>
	</g>
	<g>
		<path style="fill:#BFCBC2;" d="M553.698,552.911c41.729,20.866,50.296,79.964,16.472,114.141
			c-41.367,29.713-64.138,58.003-24.78,95.396c-32.468-10.72-42.564-61.164-14.185-85.098
			C580.568,642.465,595.168,596.792,553.698,552.911z"/>
	</g>
	<g>
		<path style="fill:#BFCBC2;" d="M562.262,919.296c-123.664-123.418,87.662-152.923,13.742-228.386
			c60.054,29.777,1.189,94.165-27.315,128.034C524.482,849.07,547.646,893.42,562.262,919.296z"/>
	</g>
	<g>
		<path style="fill:#BFCBC2;" d="M571.598,1375.282c-76.825-121.7-48.16-220.268,10.904-335.489
			c12.604-70.315-63.538-69.427-62.298-0.03c-22.711-92.493,93.94-95.642,94.503-5.951c-0.753,29.32-16.396,55.885-29.198,82.892
			C547.454,1200.592,544.34,1290.321,571.598,1375.282z"/>
	</g>
	<g>
		<path style="fill:#BFCBC2;" d="M613.728,946.998c-37.426,33.694-109.777,5.469-101.776-55.925
			C529.294,934.237,574.974,954.759,613.728,946.998z"/>
	</g>
	<g>
		<path style="fill:#BFCBC2;" d="M552.033,566.5c-58.041,14.7-37.33,96,22.636,76.738
			C498.822,708.498,453.966,551.545,552.033,566.5z"/>
	</g>
	<g>
		<path style="fill:#BFCBC2;" d="M601.834,556.192c-24.047-36.838-71.936-35.576-95.829-5.771
			C513.522,499.698,596.615,494.537,601.834,556.192z"/>
	</g>
	<g>
		<path style="fill:#BFCBC2;" d="M598.784,465.416c6.637,59.72-81.64,94.039-113.262,30.25
			C525.667,523.742,579.026,509.323,598.784,465.416z"/>
	</g>
	<g>
		<path style="fill:#BFCBC2;" d="M487.796,438.74c59.288,17.192,30.455-76.378-8.637-22.159
			c-3.288-34.491,48.021-44.681,59.962-10.607C552.309,438.896,510.872,467.051,487.796,438.74z"/>
	</g>
	<g>
		<path style="fill:#BFCBC2;" d="M533.184,317.32c29.336-28.055,54.726,36.585,7.392,55.323
			c-36.29,13.802-60.179-34.629-25.95-44.993c-15.756,12.549,0.109,37.77,22.513,24.207
			C552.51,344.413,561.552,310.411,533.184,317.32z"/>
	</g>
	<g>
		<path style="fill:#BFCBC2;" d="M599.052,405.944c-2.173,23.842-41.687,31.203-51.883,2.695
			c-13.278-35.208,30.712-61.102,54.682-32.884C546.995,358.259,556.026,443.101,599.052,405.944z"/>
	</g>
	<g>
		<path style="fill:#BFCBC2;" d="M582.641,347.479c10.912-72.915-88.568-69.992-100.689,5.525
			C453.368,225.065,645.352,255.772,582.641,347.479z"/>
	</g>
	<g>
		<path style="fill:#BFCBC2;" d="M559.493,457.533c-65.382,90.42-178.078-31.121-90.327-79.392
			C429.374,439.332,503.44,490.394,559.493,457.533z"/>
	</g>
	<g>
		<path style="fill:#BFCBC2;" d="M1092.948,223.538c57.148-59.678-65.765-80.444-32.222-5.709
			c-40.569-21.545-14.424-82.724,29.578-73.137C1136.832,152.885,1137.566,216.745,1092.948,223.538z"/>
	</g>
	<g>
		<path style="fill:#BFCBC2;" d="M1032.831,150.502c-32.204,15.25-34.76,55.344-10.444,75.503
			C980.86,218.956,980.552,148.835,1032.831,150.502z"/>
	</g>
	<g>
		<path style="fill:#BFCBC2;" d="M1154.097,226.465c19.391-19.074,18.577-51.98,0.425-69.589
			C1187.657,166.203,1189.763,216.571,1154.097,226.465z"/>
	</g>
	<g>
		<path style="fill:#BFCBC2;" d="M823.099,244.643c35.102-44.336-26.964-90.988-67.52-44.295
			c-26.645,30.568,17.5,65.53,36.055,27.552c0.333,69.395-114.833,31.79-71.889-49.157
			C793.186,75.073,910.904,202.432,823.099,244.643z"/>
	</g>
	<g>
		<path style="fill:#BFCBC2;" d="M927.106,230.468c26.058-11.736,31.355-53.389-3.93-60.03
			c-29.747-2.357-40.745,35.692-20.608,55.428c-52.329-19.882-24.335-92.827,28.438-83.893
			C986.035,154.316,980.46,232.089,927.106,230.468z"/>
	</g>
	<g>
		<path style="fill:#BFCBC2;" d="M1334.052,261.744c58.117,6.098,17.244-77.059-12.257-20.816
			c-7.645-31.904,39.074-48.807,55.444-18.628C1394.535,250.561,1360.84,284.399,1334.052,261.744z"/>
	</g>
	<g>
		<path style="fill:#BFCBC2;" d="M1442.486,189.501c-67.391-41.414-49.523,62.525-6.502,12.531
			c-0.155,36.748-54.374,37.443-59.979-0.525C1373.789,157.434,1427.543,152.616,1442.486,189.501z"/>
	</g>
	<g>
		<path style="fill:#BFCBC2;" d="M1370.232,306.991c17.088-17.334,29.142-44.156,28.403-70.828
			C1414.564,259.672,1401.226,300.413,1370.232,306.991z"/>
	</g>
	<g>
		<path style="fill:#BFCBC2;" d="M1489.261,224.271c-13.827,49.443-91.132,52.017-85.388,9.83
			C1413.746,266.204,1472.518,241.826,1489.261,224.271z"/>
	</g>
	<g>
		<path style="fill:#BFCBC2;" d="M1229.88,205.868c13.323-50.113,85.009-68.947,120.095-21.696
			C1307.268,165.462,1257.826,178.118,1229.88,205.868z"/>
	</g>
	<g>
		<path style="fill:#BFCBC2;" d="M1382.476,150.082c-22.154-2.38-37.902,20.461-27.454,39.915
			C1330.67,174.456,1352.399,131.632,1382.476,150.082z"/>
	</g>
	<g>
		<path style="fill:#BFCBC2;" d="M1302.965,203.532c-83.991,106.249-168.457-12.068-79.417-30.876
			C1160.414,237.488,1268.246,225.626,1302.965,203.532z"/>
	</g>
	<g>
		<path style="fill:#BFCBC2;" d="M1467.195,227.866c8.562-18.145,5.764-49.229-7.9-65.977
			C1484.683,171.37,1490.668,212,1467.195,227.866z"/>
	</g>
	<path style="fill:#BFCBC2;stroke:#BFCBC2;stroke-miterlimit:10;" d="M573.178,723.915c-1.224-20.359-29.089-18.536-29.667,0.001
		C544.734,744.274,572.599,742.451,573.178,723.915z"/>
</g>
<g id="Layer_7">
	<circle cx="681.47" cy="35.65" r="35.65"/>
	<circle cx="681.47" cy="2133.394" r="35.65"/>
	<g>
		<rect x="670.47" y="35.652" width="22" height="2097.74"/>
	</g>
	<g>
		<path d="M1208.564,1861.106c-18.552,0-37.639-0.86-57.212-2.733c-81.351-7.781-145.631-30.563-185.229-48.302
			c-72.925-32.684-120.103-72.302-165.727-110.615c-45.897-38.545-88.767-81.894-127.418-128.843
			c-3.861-4.689-3.189-11.622,1.5-15.483c4.69-3.861,11.623-3.19,15.484,1.501c37.799,45.911,79.714,88.297,124.582,125.978
			c44.469,37.344,90.452,75.958,160.575,107.386c38.091,17.065,99.951,38.981,178.328,46.479
			c161.201,15.435,288.394-40.491,349.864-75.199c35.265-19.927,108.524-61.322,169.878-146.357
			c17.13-23.743,52.773-73.149,69.652-147.654c13.085-57.766,8.791-104.329,6.337-121.668c-3.619-25.608-9.676-68.467-38.903-109.03
			c-14.744-20.452-31.431-43.598-60.377-50.644c-7.254-1.768-29.324-7.146-47.212,4.679c-21.502,14.194-22.343,41.083-22.349,41.354
			c-0.218,18.254,9.736,35.704,25.36,44.397c0.274,0.153,24.718,13.605,41.743,1.939c0.582-0.398,14.127-9.821,12.199-21.376
			c-1.515-9.091-12.149-16.921-21.908-16.108c-5.148,0.435-9.211,3.263-11.711,5.559c-4.475,4.109-11.433,3.814-15.542-0.659
			c-4.11-4.474-3.814-11.433,0.659-15.542c5.026-4.618,13.402-10.323,24.758-11.28c21.25-1.769,42.043,13.994,45.444,34.414
			c3.144,18.841-9.599,35.017-21.466,43.143c-27.691,18.978-61.176,1.209-64.902-0.881c-22.556-12.551-36.946-37.649-36.632-63.926
			c0.024-1.611,0.957-38.751,32.219-59.389c25.895-17.118,54.985-10.027,64.545-7.698c36.836,8.966,57.734,37.955,72.994,59.122
			c32.428,45.004,38.96,91.229,42.863,118.847c2.624,18.539,7.227,68.285-6.663,129.608
			c-17.871,78.879-55.286,130.742-73.268,155.666c-64.176,88.945-140.27,131.943-176.838,152.606
			C1457.875,1812.193,1348.484,1861.106,1208.564,1861.106z"/>
	</g>
	<g>
		<path d="M682.018,540.803c-1.433,0-2.887-0.281-4.289-0.875c-5.593-2.372-8.205-8.828-5.833-14.421
			c17.144-40.434,36.628-83.075,62.891-120.979c28.117-40.583,60.567-70.569,96.448-89.126
			c40.805-21.105,80.665-21.8,126.818-22.605l0.125-0.002c4.753-0.083,9.546-0.167,14.383-0.274
			c11.279-0.251,22.882-0.599,34.104-0.935c79.409-2.376,161.522-4.835,233.491,20.644c27.328,9.68,73.027,40.645,119.335,98.521
			l9.748,12.184l11.06-11.007c21.357-21.256,44.24-43.12,66.369-64.264c12.243-11.698,24.903-23.794,36.929-35.434
			c32.104-31.071,61.543-58.955,96.757-85.551c26.458-19.983,55.646-35.841,86.756-47.133c5.706-2.073,12.021,0.875,14.093,6.586
			c2.073,5.711-0.876,12.021-6.587,14.093c-29.044,10.542-56.297,25.349-81.002,44.009c-34.281,25.892-62.018,52.157-94.716,83.804
			c-12.077,11.688-24.763,23.809-37.031,35.531c-22.049,21.068-44.85,42.854-66.048,63.952l-28.438,28.303l-25.066-31.329
			c-43.418-54.264-85.033-82.86-109.501-91.527c-68.084-24.104-148.104-21.709-225.489-19.392
			c-11.263,0.337-22.909,0.686-34.271,0.938c-4.873,0.109-9.701,0.193-14.49,0.277l-0.125,0.002
			c-43.391,0.756-80.864,1.41-117.095,20.149c-32.656,16.89-62.421,44.517-88.471,82.115c-25.13,36.27-44.035,77.686-60.72,117.038
			C690.373,538.285,686.3,540.802,682.018,540.803z"/>
	</g>
	<g>
		<path d="M326.112,2061.905c-3.912,0-7.803-0.128-11.661-0.388c-90.798-6.107-138.96-83.002-151.559-106.424
			c-32.269-60.069-36.156-116.537-10.953-159.015c5.809-9.79,37.535-58.518,92.963-58.518c0.143,0,0.284,0.001,0.427,0.001
			c37.201,0.167,72.62,21.763,88.136,53.737c4.182,8.596,16.768,39.125,2.986,70.712c-13.662,31.359-32.345,39.127-45.611,40.12
			c-23.553,1.753-47.11-16.689-56.015-43.897c-1.89-5.774,1.259-11.986,7.033-13.876c5.773-1.892,11.986,1.259,13.875,7.032
			c5.704,17.428,20.092,29.805,33.46,28.803c10.375-0.776,19.742-10.104,27.091-26.975c10.019-22.964,0.537-45.84-2.607-52.304
			c-11.941-24.607-39.447-41.223-68.448-41.353c-0.107-0.001-0.216-0.001-0.322-0.001c-43.513,0-69.309,39.756-74.048,47.744
			c-28.487,48.013-5.082,106.67,11.405,137.362c11.249,20.913,54.125,89.549,133.663,94.898
			c54.401,3.671,110.709-21.636,130.982-58.847c13.759-25.253,22.106-74.861,22.188-75.359c1.498-9.015,2.626-18.299,3.355-27.598
			c3.877-49.896-2.669-96.182-19.457-137.565c-36.813-90.771-117.733-136.845-176.819-170.485
			c-22.509-12.827-46.238-24.184-70.53-33.755l-54.747-21.585c-0.512,0.228-1.023,0.455-1.534,0.682
			c-26.225,11.651-53.342,23.698-84.716,23.698c-15.864,0-30.951-2.881-42.481-8.112C2.88,1521.887,0,1509.824,0,1503.411
			c0-19.123,19.436-31.824,53.323-34.846c29.445-2.62,58.735,8.37,82.27,17.196c4.73,1.777,9.394,3.366,14.271,5.011l0.005-0.002
			l0.001,0.001c0.02-0.009,0.04-0.018,0.06-0.026l0.387-0.159l55.43-21.66c34.625-13.519,67.377-31.385,97.349-53.102l5.541-3.995
			c28.482-20.558,53.083-38.314,71.904-67.446c21.496-33.288,27.042-65.803,31.628-101.812
			c15.478-121.323,14.581-247.93,13.714-370.368l-0.002-0.234c-0.274-37.816-0.585-80.681-0.3-121.955
			c0.357-50.673,0.727-103.07-6.088-152.893c-12.433-90.967-57.159-168.096-129.344-223.048c-4.834-3.68-5.77-10.582-2.09-15.416
			c3.68-4.833,10.581-5.769,15.416-2.089c38.411,29.241,69.644,64.316,92.83,104.25c23.228,40.005,38.363,84.862,44.986,133.322
			c7.028,51.383,6.653,104.581,6.291,156.027c-0.285,41.117,0.026,83.898,0.299,121.643l0.002,0.236
			c0.872,123.165,1.774,250.521-13.89,373.305c-4.932,38.719-10.968,73.795-34.971,110.967
			c-21.068,32.611-47.226,51.49-77.513,73.351l-5.523,3.983c-31.465,22.8-65.868,41.567-102.233,55.766l-33.228,12.983
			l33.192,13.086c25.26,9.953,49.94,21.765,73.352,35.106c61.881,35.232,146.636,83.488,186.317,181.333
			c18.081,44.57,25.147,94.212,21.003,147.546c-0.778,9.935-1.984,19.854-3.585,29.49c-0.362,2.183-9.057,53.804-24.572,82.28
			c-12.2,22.395-34.87,41.77-63.832,54.556C378.585,2056.312,351.901,2061.905,326.112,2061.905z M62.456,1490.167
			c-2.403,0-4.797,0.1-7.183,0.312C36.928,1492.115,22,1497.916,22,1503.411c0,0.492,1.609,3.723,9.259,7.193
			c8.61,3.906,20.781,6.146,33.391,6.146c19.585,0,37.626-5.694,55.809-13.154C102.056,1496.8,82.029,1490.167,62.456,1490.167z"/>
	</g>
	<g>
		<path style="fill:#FFB400;" d="M591.04,203.155v104.287v517.59c0,54.687-0.162,110.327-0.319,164.135
			c-0.339,116.267-0.689,236.492,0.571,354.805c0.216,20.456,0.533,41.222,0.84,61.304c0.855,55.97,1.738,113.846,0.506,170.407
			c-1.677,77.336-7.543,139.436-18.462,195.433c-2.125,10.901-4.546,21.589-7.256,32.033c-3.925-34.602-12.259-67.718-24.958-99.045
			c-22.112-54.504-56.317-100.958-104.572-142.019c-29.756-25.318-60.677-44.952-88.337-61.193c3.49-2.402,6.945-4.842,10.364-7.319
			l0,0l5.423-3.913c33.304-24.047,67.742-48.913,96.34-93.198c32.365-50.104,40.828-99.443,46.219-141.753
			c16.288-127.704,15.37-257.592,14.482-383.203l-0.002-0.23c-0.273-37.503-0.583-80.011-0.3-120.59
			c0.379-54.048,0.77-109.937-6.971-166.56c-9.355-68.512-32.879-130.888-69.922-185.4c-7.582-11.155-15.752-21.991-24.46-32.45
			c8.215-4.006,16.223-8.328,24.002-12.958c53.106-31.602,84.153-70.727,131.15-129.953
			C580.668,216.699,585.89,209.96,591.04,203.155 M626.04,89.392c-21.12,34.84-46.85,72.86-78.08,112.22
			c-48,60.49-74.98,93.87-121.63,121.63c-15.14,9.01-37.43,20.45-67.02,29.44c21.4,19.98,40.26,41.93,56.43,65.72
			c33.97,49.99,55.57,107.33,64.19,170.46c7.4,54.13,7.02,108.75,6.65,161.58c-0.28,40.14,0.01,81.29,0.3,121.09
			c0.88,124.531,1.8,253.3-14.2,378.75c-5.13,40.26-12.51,83.24-40.9,127.19c-25.03,38.76-55.35,60.65-87.44,83.82l-5.46,3.94
			c-18.92,13.71-38.82,26.07-59.51,36.99c9.15,4.61,18.15,9.44,26.99,14.48c31.91,18.17,71.61,40.78,108.35,72.04
			c43.87,37.33,74.88,79.37,94.82,128.52c20.37,50.25,28.36,105.84,23.73,165.23c-2.86,36.93-11.07,73.13-24.43,107.83
			c53.38-58.14,84.54-134.73,99.7-212.51c12.75-65.39,17.62-133.12,19.1-201.37c1.69-77.58-0.52-155.26-1.34-232.84
			c-1.84-172.81-0.25-345.74-0.25-518.57c0-172.53,0-345.06,0-517.59C626.04,234.762,626.04,162.072,626.04,89.392L626.04,89.392z
			 M508.83,1990.322l-0.01,0.01L508.83,1990.322L508.83,1990.322z"/>
	</g>
	<g>
		<path style="fill:#FFB400;" d="M1530.213,172.192c-30.173,22.829-57.523,46.568-85.091,73.801
			c-23.154,22.874-47.602,46.484-71.888,69.817c-36.526-35.627-74.214-61.238-108.386-73.343
			c-65.858-23.312-134.649-26.301-187.223-26.301c-24.633,0-49.294,0.737-73.174,1.45c-11.553,0.346-22.468,0.673-33.486,0.922
			c-4.776,0.099-9.501,0.188-14.204,0.268c-50.795,0.883-103.319,1.795-159.518,30.865c-29.048,15.02-56.064,35.353-80.774,60.747
			V172.192H1530.213 M1670.9,137.192H681.47v278.85c6.59-11.45,13.64-22.74,21.26-33.73c31.78-45.87,68.99-80.04,110.59-101.55
			c48.91-25.3,95.12-26.11,144.05-26.96c4.73-0.08,9.5-0.17,14.32-0.27c11.1-0.25,22.13-0.58,33.81-0.93
			c23.886-0.714,48.006-1.435,72.126-1.435c59.693,0,119.386,4.417,175.544,24.295c36.39,12.89,79.66,45.78,119,89.88
			c31.88-30.58,66.12-63.4,97.55-94.45c30.44-30.07,60.09-55.32,94.81-80.58C1596.66,166.952,1632.83,148.852,1670.9,137.192
			L1670.9,137.192z"/>
	</g>
	<g>
		<path style="fill:#FFB400;" d="M1609.134,981.949c37.37,0.001,74.086,9.673,109.128,28.748
			c53.547,29.148,80.12,71.904,99.523,103.123c28.024,45.09,46.831,96.063,55.901,151.505c7.782,47.573,6.35,86.707,5.739,103.422
			c-1.564,42.913-13.355,154.763-88.876,266.272c-21.695,32.026-46.17,60.464-74.825,86.94c-4.251,3.928-8.493,7.716-12.699,11.367
			c17.081-17.794,34.136-37.878,50.453-60.493c19.324-26.787,64.578-89.518,85.923-183.707
			c16.099-71.068,11.801-129.109,7.805-157.383c-4.251-30.08-13.098-92.672-56.614-153.054
			c-18.444-25.602-52.775-73.257-117.267-88.958c-15.164-3.695-30.063-5.568-44.282-5.568c-29.773,0-57.003,8.02-80.925,23.829
			c-60.142,39.719-66.106,106.777-66.691,119.815c-0.559,12.452,0.466,24.883,2.992,37.065c-6.405-2.228-12.545-4.81-18.375-7.739
			c-21.457-10.781-37.551-25.733-46.541-43.237c-10.995-21.415-13.717-51.15-7.664-83.731c7.417-39.912,28.899-65.584,38.076-76.55
			c39.77-47.54,93.551-63.229,122.071-68.351C1584.234,983.064,1596.732,981.949,1609.134,981.949L1609.134,981.949
			 M745.629,1753.979c1.748,1.488,3.502,2.971,5.257,4.445l0.046,0.039c32.025,26.888,64.753,54.366,106.122,80.426
			c-4.069-2.271-8.234-4.665-12.471-7.189c-31.233-18.604-60.329-40.624-86.48-65.447
			C753.88,1762.244,749.72,1758.15,745.629,1753.979 M1287.934,1933.408c-11.219,7.135-21.562,15.728-30.814,25.658l-42.059,45.142
			l-37.163-39.887c-10.987-11.792-23.741-21.781-37.694-29.668c1.27,0.129,2.547,0.255,3.823,0.377
			c21.339,2.039,43.034,3.072,64.484,3.072C1236.084,1938.102,1262.608,1936.4,1287.934,1933.408 M1609.135,943.949
			c-13.892,0-28.562,1.164-43.865,3.913c-27.9,5.01-94.75,21.9-144.5,81.37c-11.69,13.97-37.24,45.29-46.29,93.99
			c-2.01,10.82-11.76,63.27,11.22,108.03c25.949,50.53,88.766,81.776,162.139,81.776c0.596,0,1.184-0.002,1.781-0.006
			c-20.35-23.74-31.59-53.21-30.23-83.51c0.44-9.81,4.91-60.25,49.67-89.81c17.672-11.68,37.758-17.538,59.983-17.538
			c11.228,0,22.999,1.494,35.287,4.488c50.85,12.38,78.76,51.11,95.43,74.25c38.03,52.77,45.7,107.01,49.82,136.16
			c3.63,25.69,7.52,78.51-7.24,143.67c-19.63,86.62-61.71,144.96-79.68,169.87c-69.21,95.93-153.41,143.48-189.36,163.78
			c-59.77,33.76-176,85.72-324.79,85.72c-19.74,0-40.04-0.91-60.87-2.9c-86.64-8.29-155.2-32.61-197.46-51.54
			c-77.86-34.89-127.17-76.3-174.86-116.34c-32.97-27.69-64.36-57.67-93.85-89.64v98.96c13.64,17.2,30.34,36.06,50.47,55.17
			c65,61.7,128.81,90.85,164.14,106.63c63.424,28.311,127.185,44.31,184.309,53.037c26.711,4.08,51.286,16.977,69.706,36.747
			l64.966,69.727l69.862-74.982c17.04-18.289,39.372-30.786,63.878-35.721c75.538-15.211,198.306-51.634,318.89-139.997
			c43.6-31.96,101.82-75.42,154.32-152.92c87.11-128.62,94.3-256.29,95.39-286.2c1.56-42.65,4.32-161.07-67.34-276.37
			c-21.97-35.35-52.51-83.17-113.63-116.44C1721.122,968.989,1673.54,943.951,1609.135,943.949L1609.135,943.949z"/>
	</g>
	<g>
		<path style="fill:#FFB400;" d="M1046.901,768.807c12.276,9.515,23.349,20.374,33.117,32.495
			c8.581,10.65,34.695,43.061,39.978,85.209c0.156,1.247,0.293,2.496,0.41,3.747c-16.242-16.189-41.884-37.586-79.884-45.116
			c-7.807-1.547-15.821-2.445-23.797-2.667l-1.584-0.045l-0.499-0.014h-0.499h-36.579h-33.802v-1.415
			c21.739-3.302,41.871-11.081,59.159-22.969C1021.041,805.579,1035.976,788.742,1046.901,768.807 M1029.238,716.47
			c-6.483,30.413-22.515,56.481-46.14,72.717c-22.733,15.632-47.341,18.623-63.61,18.623c-4.185,0-7.817-0.198-10.725-0.429v0.43
			H681.47v69.606h296.095h36.579l1.584,0.045c5.68,0.158,11.71,0.769,17.99,2.014c34.429,6.823,55.497,28.512,70.397,44.295
			c15.387,16.293,26.702,33.841,35.029,50.903c12.479-27.211,19.845-58.506,15.58-92.517c-6.393-50.993-36.613-89.36-47.452-102.813
			C1081.623,747.516,1052.183,728.078,1029.238,716.47L1029.238,716.47z"/>
	</g>
	<g>
		<path d="M816.187,1061.085c-19.933,0.001-42.412-10.252-52.429-30.964c-9.217-19.057-3.792-37.885-1.032-45.096
			c2.171-5.673,8.532-8.511,14.205-6.341c5.674,2.172,8.513,8.532,6.341,14.206c-1.738,4.54-5.188,16.322,0.291,27.651
			c7.166,14.813,25.981,20.803,39.304,17.856c20.889-4.621,32.978-34.381,29.83-57.901c-4.263-31.852-37.026-46.308-38.418-46.907
			c-37.709-16.24-76.698,11.399-81.02,14.604c-25.894,19.203-40.762,54.517-40.792,96.886c-0.004,6.072-4.929,10.992-11,10.992
			c-0.003,0-0.005,0-0.008,0c-6.075-0.004-10.997-4.933-10.992-11.008c0.035-49.4,18.146-91.149,49.687-114.54
			c5.362-3.978,53.813-38.25,102.827-17.14c4.663,2.008,45.723,20.87,51.521,64.194c4.515,33.738-13.247,74.859-46.884,82.3
			C823.987,1060.683,820.136,1061.085,816.187,1061.085z"/>
	</g>
</g>
<g id="Layer_8">
	<g>
		<path style="fill:#480000;" d="M681.47,64.8c-16.073,0-29.15-13.077-29.15-29.15S665.397,6.5,681.47,6.5
			s29.149,13.077,29.149,29.15S697.543,64.8,681.47,64.8z"/>
		<path style="fill:#480000;" d="M681.47,13c12.489,0,22.65,10.161,22.65,22.65S693.959,58.3,681.47,58.3s-22.65-10.161-22.65-22.65
			S668.981,13,681.47,13 M681.47,0c-19.689,0-35.65,15.961-35.65,35.65s15.961,35.65,35.65,35.65s35.65-15.961,35.65-35.65
			S701.159,0,681.47,0L681.47,0z"/>
	</g>
	<g>
		<path style="fill:#480000;" d="M681.47,2162.543c-16.073,0-29.15-13.076-29.15-29.149s13.077-29.149,29.15-29.149
			s29.149,13.076,29.149,29.149S697.543,2162.543,681.47,2162.543z"/>
		<path style="fill:#480000;" d="M681.47,2110.744c12.489,0,22.65,10.161,22.65,22.65c0,12.489-10.161,22.65-22.65,22.65
			s-22.65-10.161-22.65-22.65C658.82,2120.905,668.981,2110.744,681.47,2110.744 M681.47,2097.744
			c-19.689,0-35.65,15.961-35.65,35.65c0,19.689,15.961,35.65,35.65,35.65s35.65-15.961,35.65-35.65
			C717.12,2113.705,701.159,2097.744,681.47,2097.744L681.47,2097.744z"/>
	</g>
	<g>
		<g>
			<rect x="676.97" y="42.152" style="fill:#480000;" width="9" height="2084.74"/>
			<polygon style="fill:#480000;" points="692.47,35.652 670.47,35.652 670.47,2133.392 692.47,2133.392 692.47,35.652 			"/>
		</g>
	</g>
	<g>
		<g>
			<path style="fill:#480000;" d="M1208.564,1854.606c-18.803,0-37.844-0.909-56.593-2.704
				c-80.469-7.696-144.035-30.222-183.191-47.763c-72.097-32.313-118.921-71.635-164.204-109.661
				c-45.593-38.29-88.181-81.354-126.581-127.997c-0.764-0.928-1.121-2.097-1.005-3.293c0.116-1.197,0.691-2.276,1.619-3.041
				c1.031-0.848,2.121-1.026,2.855-1.026c1.353,0,2.621,0.598,3.479,1.64c38.055,46.223,80.252,88.893,125.421,126.825
				c44.809,37.629,91.143,76.54,162.097,108.34c38.536,17.265,101.108,39.436,180.367,47.018c18.468,1.768,37.23,2.664,55.767,2.664
				c137.973,0,245.874-49.292,297.913-78.674c35.631-20.134,109.767-62.025,171.953-148.214
				c17.381-24.092,53.548-74.223,70.72-150.021c13.324-58.82,8.938-106.322,6.434-124.016c-3.702-26.201-9.9-70.055-40.065-111.919
				c-15.391-21.35-32.834-45.546-64.113-53.159c-3.923-0.956-12.089-2.946-21.814-2.946c-11.701,0-21.97,2.866-30.52,8.519
				c-24.324,16.058-25.256,46.331-25.262,46.635c-0.247,20.693,11.018,40.381,28.698,50.218c0.538,0.302,13.615,7.515,28.322,7.515
				c7.733,0,14.549-1.982,20.255-5.893c1.797-1.23,17.495-12.472,14.937-27.808c-1.95-11.706-14.273-21.597-26.909-21.597
				c-0.652,0-1.308,0.026-1.949,0.08c-6.987,0.59-12.322,4.268-15.568,7.249c-0.833,0.765-1.914,1.187-3.043,1.187
				c-1.276,0-2.453-0.518-3.315-1.456c-0.813-0.885-1.233-2.033-1.183-3.234c0.052-1.201,0.566-2.311,1.452-3.123
				c4.279-3.933,11.38-8.787,20.906-9.59c0.896-0.075,1.814-0.113,2.726-0.113c17.045,0,33.087,13.063,35.761,29.118
				c2.641,15.824-8.438,29.666-18.727,36.711c-7.298,5.002-15.808,7.537-25.295,7.537c-16.714,0.001-31.163-7.831-32.755-8.724
				c-20.53-11.424-33.599-34.256-33.312-58.179c0.021-1.411,0.858-35.267,29.3-54.042c10.107-6.682,22.006-10.068,35.37-10.068
				c10.673,0,19.375,2.12,24.051,3.26c34.509,8.399,54.596,36.262,69.263,56.606c31.49,43.702,37.882,88.932,41.701,115.956
				c2.574,18.187,7.087,66.987-6.566,127.265c-17.579,77.59-54.47,128.725-72.199,153.299
				c-63.344,87.791-138.599,130.314-174.764,150.75C1458.166,1804.564,1348.624,1854.606,1208.564,1854.606z"/>
			<path style="fill:#480000;" d="M1629.511,1161.099c-11.823,0-25.8,2.45-38.951,11.144
				c-31.262,20.638-32.194,57.777-32.219,59.389c-0.314,26.276,14.076,51.375,36.632,63.926c2.455,1.376,17.818,9.555,35.935,9.555
				c9.387,0,19.516-2.197,28.967-8.674c11.867-8.126,24.609-24.302,21.466-43.143c-3.227-19.37-22.102-34.55-42.173-34.55
				c-1.087,0-2.18,0.045-3.272,0.135c-11.355,0.957-19.731,6.662-24.758,11.28c-4.474,4.109-4.77,11.068-0.659,15.542
				c2.169,2.361,5.131,3.558,8.103,3.558c2.659,0,5.326-0.958,7.439-2.899c2.5-2.296,6.563-5.124,11.711-5.559
				c0.469-0.039,0.938-0.058,1.41-0.058c9.348,0.001,19.056,7.512,20.498,16.167c1.928,11.555-11.617,20.978-12.199,21.376
				c-5.142,3.523-10.957,4.755-16.581,4.755c-13,0-24.97-6.587-25.162-6.694c-15.624-8.693-25.578-26.144-25.36-44.397
				c0.006-0.271,0.847-27.159,22.349-41.354c8.718-5.763,18.429-7.44,26.935-7.44c8.946,0,16.559,1.855,20.277,2.761
				c28.946,7.046,45.633,30.191,60.377,50.644c29.228,40.563,35.284,83.422,38.903,109.03c2.454,17.339,6.748,63.902-6.337,121.668
				c-16.879,74.505-52.522,123.911-69.652,147.654c-61.354,85.035-134.613,126.431-169.878,146.357
				c-54.278,30.647-159.787,77.834-294.717,77.834c-17.879,0-36.286-0.829-55.147-2.635
				c-78.377-7.497-140.237-29.413-178.328-46.479c-70.124-31.428-116.106-70.042-160.575-107.386
				c-44.868-37.681-86.783-80.066-124.582-125.978c-2.175-2.643-5.323-4.009-8.498-4.009c-2.461,0-4.938,0.822-6.986,2.508
				c-4.69,3.861-5.362,10.794-1.5,15.483c38.652,46.949,81.521,90.298,127.418,128.843c45.624,38.313,92.802,77.932,165.727,110.615
				c39.598,17.739,103.878,40.521,185.229,48.302c19.573,1.873,38.66,2.733,57.212,2.733c139.921,0,249.312-48.913,305.63-80.712
				c36.568-20.663,112.662-63.661,176.838-152.606c17.981-24.924,55.396-76.787,73.268-155.666
				c13.89-61.323,9.287-111.069,6.663-129.608c-3.903-27.618-10.436-73.843-42.863-118.847
				c-15.26-21.167-36.158-50.156-72.994-59.122C1650.4,1163.398,1640.967,1161.099,1629.511,1161.099L1629.511,1161.099z"/>
		</g>
	</g>
	<g>
		<g>
			<path style="fill:#480000;" d="M682.017,534.303c-0.599,0-1.188-0.121-1.751-0.36c-2.284-0.968-3.355-3.615-2.386-5.9
				c17.009-40.114,36.322-82.394,62.249-119.814c27.506-39.7,59.163-68.99,94.091-87.055c39.453-20.406,78.606-21.089,123.942-21.88
				l0.278-0.004c4.715-0.083,9.468-0.166,14.265-0.272c11.344-0.253,22.939-0.6,34.153-0.936
				c23.045-0.689,46.865-1.402,70.262-1.402c46.39,0,106.598,2.464,160.866,21.677c26.481,9.38,70.975,39.645,116.429,96.454
				l14.273,17.84l16.194-16.118c21.277-21.176,44.101-42.984,66.172-64.073l0.246-0.235c12.203-11.66,24.822-23.717,36.815-35.326
				c31.948-30.92,61.234-58.661,96.154-85.035c25.94-19.593,54.558-35.14,85.056-46.21c0.5-0.182,1.015-0.273,1.533-0.273
				c1.887,0,3.588,1.192,4.231,2.966c0.411,1.131,0.356,2.353-0.152,3.442s-1.412,1.915-2.542,2.325
				c-29.653,10.764-57.479,25.881-82.702,44.932c-34.574,26.113-62.458,52.517-95.318,84.32
				c-12.085,11.696-24.752,23.798-37.001,35.502l-0.078,0.075c-22.047,21.066-44.845,42.85-66.064,63.969l-23.304,23.193
				l-20.541-25.673c-44.271-55.331-87.094-84.626-112.406-93.593c-52.96-18.75-112.316-21.154-158.11-21.154
				c-23.263,0-46.892,0.708-69.743,1.392l-0.145,0.004c-11.203,0.335-22.788,0.682-34.076,0.933
				c-4.862,0.109-9.68,0.193-14.458,0.276l-0.138,0.003c-44.193,0.77-82.371,1.436-119.955,20.875
				c-33.608,17.382-64.167,45.707-90.827,84.186c-25.465,36.753-44.541,78.531-61.361,118.203
				C685.459,533.225,683.83,534.302,682.017,534.303z"/>
			<path style="fill:#480000;" d="M1670.858,178.88c-1.246,0-2.513,0.214-3.751,0.663c-31.109,11.292-60.298,27.15-86.756,47.133
				c-35.214,26.597-64.653,54.48-96.757,85.551c-12.025,11.639-24.686,23.735-36.929,35.434
				c-22.129,21.145-45.012,43.008-66.369,64.264l-11.06,11.007l-9.748-12.184c-46.308-57.876-92.007-88.84-119.335-98.521
				c-50.8-17.985-106.644-22.049-163.035-22.049c-23.498,0-47.099,0.706-70.456,1.405c-11.221,0.336-22.825,0.683-34.104,0.935
				c-4.837,0.108-9.629,0.191-14.383,0.274l-0.125,0.002c-46.153,0.805-86.013,1.5-126.818,22.606
				c-35.881,18.558-68.331,48.544-96.448,89.126c-26.262,37.904-45.746,80.545-62.891,120.979c-2.371,5.593,0.24,12.05,5.833,14.421
				c1.402,0.594,2.856,0.875,4.289,0.875c4.283,0,8.355-2.518,10.132-6.709c16.685-39.352,35.589-80.768,60.72-117.038
				c26.049-37.598,55.815-65.225,88.471-82.115c36.231-18.739,73.704-19.393,117.095-20.15l0.125-0.002
				c4.789-0.084,9.617-0.168,14.49-0.277c11.362-0.253,23.008-0.602,34.271-0.938c23.078-0.691,46.39-1.389,69.549-1.389
				c54.501,0,108.159,3.865,155.939,20.781c24.468,8.667,66.083,37.263,109.501,91.527l25.066,31.329l28.438-28.303
				c21.198-21.098,43.999-42.883,66.048-63.952c12.269-11.722,24.954-23.843,37.031-35.531
				c32.698-31.647,60.435-57.913,94.716-83.804c24.705-18.66,51.958-33.466,81.002-44.009c5.711-2.073,8.66-8.382,6.587-14.093
				C1679.577,181.658,1675.354,178.88,1670.858,178.88L1670.858,178.88z"/>
		</g>
	</g>
	<g>
		<g>
			<path style="fill:#480000;" d="M326.112,2055.405c-3.771,0-7.547-0.126-11.225-0.373
				c-87.472-5.884-134.072-80.338-146.27-103.018c-31.145-57.976-35.082-112.178-11.087-152.619
				c5.482-9.24,35.461-55.334,87.373-55.334l0.427,0.001c34.749,0.156,67.83,20.279,82.289,50.075
				c3.88,7.976,15.546,36.236,2.876,65.274c-9.792,22.476-23.67,35.005-40.139,36.238c-0.863,0.063-1.745,0.097-2.619,0.097
				c-19.898,0-39.115-16.258-46.734-39.534c-0.771-2.358,0.519-4.905,2.877-5.677c0.46-0.151,0.931-0.228,1.403-0.228
				c1.948,0,3.666,1.247,4.273,3.104c6.322,19.317,22.352,33.338,38.114,33.338c0.67,0,1.347-0.025,2.01-0.075
				c9.016-0.675,21.986-6.576,32.564-30.86c11.13-25.509,0.731-50.646-2.722-57.743c-12.995-26.778-42.84-44.868-74.264-45.009
				l-0.351-0.001c-47.042,0-74.593,42.423-79.639,50.928c-30.117,50.76-5.867,111.854,11.27,143.755
				c11.648,21.655,56.088,92.734,138.953,98.308c3.617,0.244,7.314,0.368,10.987,0.368c54.191,0,106.062-25.738,126.139-62.591
				c14.302-26.251,22.809-76.897,22.893-77.406c1.527-9.195,2.679-18.668,3.422-28.152c3.957-50.916-2.744-98.191-19.914-140.517
				c-37.661-92.863-119.714-139.579-179.626-173.69c-22.775-12.979-46.786-24.47-71.363-34.154l-57.28-22.584l-4.018,1.786
				c-25.608,11.378-52.084,23.141-82.082,23.141c-14.958,0-29.091-2.675-39.795-7.531c-15.97-7.246-18.354-16.461-18.354-21.309
				c0-15.345,17.276-25.686,47.4-28.371c2.744-0.244,5.587-0.368,8.45-0.368c25.16,0,50.537,9.517,70.928,17.164
				c4.886,1.836,9.649,3.457,14.509,5.096l2.21,0.745l2.342-0.892l0.407-0.17l55.366-21.636
				c35.136-13.718,68.376-31.85,98.797-53.892l5.528-3.986c29.019-20.944,54.077-39.031,73.562-69.191
				c22.238-34.438,27.928-67.708,32.616-104.518c15.533-121.758,14.635-248.584,13.766-371.235l-0.002-0.367
				c-0.274-37.756-0.584-80.55-0.299-121.73c0.359-50.899,0.73-103.532-6.148-153.819c-12.67-92.709-58.263-171.322-131.847-227.339
				c-0.957-0.729-1.572-1.785-1.733-2.976c-0.162-1.191,0.15-2.374,0.878-3.331c0.858-1.127,2.167-1.774,3.589-1.774
				c0.688,0,1.719,0.16,2.718,0.92c37.726,28.719,68.391,63.152,91.145,102.342c22.8,39.269,37.66,83.323,44.167,130.939
				c6.965,50.919,6.592,103.878,6.232,155.093c-0.285,41.15,0.025,83.936,0.299,121.685l0.002,0.297
				c0.871,122.947,1.771,250.081-13.837,372.433c-4.831,37.919-10.722,72.238-33.984,108.264
				c-20.403,31.581-46.101,50.129-75.855,71.604l-5.523,3.982c-31.038,22.49-64.946,40.986-100.795,54.983l-48.654,19.011
				l48.599,19.16c24.978,9.843,49.376,21.52,72.517,34.707c61.059,34.764,144.678,82.373,183.513,178.129
				c17.699,43.63,24.612,92.279,20.546,144.599c-0.764,9.745-1.947,19.479-3.517,28.929c-0.355,2.14-8.867,52.703-23.868,80.236
				c-11.518,21.142-33.092,39.509-60.75,51.719C376.726,2050.028,351.255,2055.405,326.112,2055.405z M62.456,1483.667
				c-2.629,0-5.239,0.113-7.758,0.337c-6.548,0.584-39.198,4.262-39.198,19.407c0,4.563,4.765,9.343,13.073,13.112
				c9.423,4.275,22.572,6.728,36.077,6.728c22.055,0,41.835-6.896,58.276-13.641l15.433-6.332l-15.648-5.779
				C104.59,1490.807,83.496,1483.667,62.456,1483.667z"/>
			<path style="fill:#480000;" d="M296.818,354.321c-3.317,0-6.597,1.495-8.761,4.337c-3.679,4.834-2.745,11.736,2.09,15.415
				c72.185,54.953,116.912,132.081,129.344,223.048c6.815,49.823,6.446,102.22,6.088,152.893
				c-0.286,41.274,0.026,84.138,0.3,121.955l0.002,0.234c0.867,122.438,1.764,249.044-13.714,370.368
				c-4.586,36.009-10.132,68.523-31.628,101.812c-18.82,29.132-43.421,46.889-71.904,67.446l-5.541,3.995
				c-29.972,21.717-62.724,39.583-97.349,53.102l-55.43,21.66l-0.387,0.159c-0.02,0.009-0.04,0.018-0.06,0.026l-0.001-0.001
				l-0.005,0.002c-4.877-1.645-9.541-3.233-14.271-5.011c-21.128-7.923-46.89-17.59-73.242-17.59c-3.003,0-6.016,0.126-9.028,0.394
				C19.436,1471.587,0,1484.288,0,1503.411c0,6.412,2.88,18.476,22.169,27.228c11.53,5.231,26.617,8.112,42.481,8.112
				c31.374,0,58.492-12.047,84.716-23.698c0.511-0.227,1.023-0.454,1.534-0.682l54.747,21.585
				c24.292,9.571,48.02,20.928,70.53,33.755c59.086,33.641,140.006,79.714,176.819,170.485
				c16.788,41.384,23.334,87.669,19.457,137.565c-0.729,9.299-1.858,18.583-3.355,27.598c-0.083,0.498-8.43,50.106-22.189,75.359
				c-18.964,34.81-69.457,59.2-120.431,59.2c-3.515,0-7.041-0.116-10.551-0.353c-79.538-5.35-122.414-73.985-133.663-94.898
				c-16.487-30.692-39.893-89.35-11.405-137.362c4.739-7.988,30.535-47.744,74.048-47.744c0.106,0,0.215,0,0.322,0.001
				c29.001,0.13,56.506,16.745,68.448,41.353c3.145,6.464,12.626,29.34,2.607,52.304c-7.349,16.871-16.716,26.198-27.091,26.975
				c-0.507,0.038-1.014,0.057-1.524,0.057c-12.923,0-26.45-12.092-31.937-28.86c-1.517-4.637-5.823-7.582-10.451-7.582
				c-1.134,0-2.288,0.177-3.425,0.549c-5.774,1.89-8.922,8.102-7.033,13.876c8.513,26.012,30.42,44.012,52.911,44.012
				c1.034,0,2.069-0.038,3.104-0.115c13.267-0.993,31.95-8.761,45.611-40.12c13.782-31.587,1.196-62.116-2.986-70.712
				c-15.516-31.975-50.935-53.57-88.136-53.737c-0.143,0-0.284-0.001-0.427-0.001c-55.428,0-87.154,48.728-92.963,58.518
				c-25.203,42.478-21.316,98.945,10.953,159.015c12.598,23.422,60.76,100.317,151.558,106.424c3.857,0.26,7.749,0.388,11.661,0.388
				c25.789,0,52.473-5.593,76.286-16.105c28.962-12.786,51.631-32.161,63.831-54.556c15.515-28.477,24.21-80.098,24.572-82.28
				c1.601-9.636,2.807-19.556,3.585-29.49c4.145-53.334-2.922-102.976-21.003-147.546
				c-39.682-97.845-124.436-146.101-186.317-181.333c-23.412-13.342-48.092-25.153-73.351-35.106l-33.192-13.086l33.227-12.983
				c36.365-14.198,70.768-32.966,102.234-55.766l5.523-3.983c30.288-21.86,56.445-40.739,77.513-73.351
				c24.003-37.172,30.039-72.248,34.971-110.967c15.664-122.784,14.762-250.141,13.89-373.305l-0.002-0.236
				c-0.274-37.745-0.584-80.526-0.299-121.643c0.362-51.446,0.737-104.645-6.291-156.027c-6.623-48.46-21.759-93.317-44.986-133.322
				c-23.186-39.934-54.419-75.009-92.829-104.25C301.482,355.054,299.141,354.321,296.818,354.321L296.818,354.321z M64.65,1516.751
				c-12.61,0-24.781-2.24-33.391-6.146c-7.649-3.471-9.259-6.701-9.259-7.193c0-5.495,14.928-11.297,33.273-12.933
				c2.386-0.212,4.78-0.312,7.183-0.312c19.574,0,39.6,6.633,58.003,13.43C102.276,1511.057,84.235,1516.751,64.65,1516.751
				L64.65,1516.751z"/>
		</g>
	</g>
	<g>
		<path style="fill:#480000;" d="M610.04,143.989v163.452v517.59c0,54.715-0.162,110.369-0.319,164.19
			c-0.339,116.204-0.689,236.363,0.57,354.549c0.216,20.412,0.533,41.155,0.839,61.215c0.857,56.143,1.744,114.198,0.504,171.109
			c-1.701,78.446-7.678,141.571-18.808,198.656c-7.748,39.749-19.318,76.786-34.39,110.083c-3.791,8.375-7.804,16.511-12.031,24.395
			c1.21-8.46,2.146-16.962,2.807-25.493c4.823-61.871-3.539-119.903-24.855-172.488c-20.935-51.602-53.409-95.66-99.278-134.691
			c-37.9-32.247-78.322-55.264-110.794-73.754c-0.571-0.325-1.142-0.65-1.715-0.974c12.253-7.397,24.185-15.297,35.673-23.621
			l5.475-3.95c33.346-24.078,64.843-46.82,91.503-88.103c30.206-46.761,37.969-91.763,43.332-133.847
			c16.126-126.44,15.213-255.68,14.33-380.665l-0.002-0.225c-0.274-37.567-0.584-80.147-0.3-120.862
			c0.374-53.38,0.76-108.577-6.797-163.857c-8.954-65.579-31.432-125.228-66.81-177.289c-11.951-17.583-25.434-34.336-40.247-50.027
			c15.993-6.288,31.319-13.779,45.786-22.389c50.108-29.818,78.667-65.808,125.982-125.435
			C577.801,189.744,594.37,167.145,610.04,143.989 M626.04,89.392c-21.12,34.84-46.85,72.86-78.08,112.22
			c-48,60.49-74.98,93.87-121.63,121.63c-15.14,9.01-37.43,20.45-67.02,29.44c21.4,19.98,40.26,41.93,56.43,65.72
			c33.97,49.99,55.57,107.33,64.19,170.46c7.4,54.13,7.02,108.75,6.65,161.58c-0.28,40.14,0.01,81.29,0.3,121.09
			c0.88,124.53,1.8,253.3-14.2,378.75c-5.13,40.26-12.51,83.24-40.9,127.19c-25.03,38.76-55.35,60.65-87.44,83.82l-5.46,3.94
			c-18.92,13.71-38.82,26.07-59.51,36.99c9.15,4.61,18.15,9.44,26.99,14.48c31.91,18.17,71.61,40.78,108.35,72.04
			c43.87,37.33,74.88,79.37,94.82,128.521c20.37,50.25,28.36,105.84,23.73,165.229c-2.86,36.93-11.07,73.13-24.43,107.83
			c53.38-58.14,84.54-134.73,99.7-212.51c12.75-65.39,17.62-133.12,19.1-201.37c1.69-77.58-0.52-155.26-1.34-232.84
			c-1.84-172.81-0.25-345.74-0.25-518.57c0-172.53,0-345.06,0-517.59C626.04,234.762,626.04,162.072,626.04,89.392L626.04,89.392z
			 M508.83,1990.322l-0.01,0.01L508.83,1990.322L508.83,1990.322z"/>
	</g>
	<g>
		<path style="fill:#480000;" d="M1592.891,153.192c-13.017,7.28-25.623,15.348-37.774,24.182
			c-34.939,25.42-65.648,51.519-96.642,82.136c-27.553,27.22-56.886,55.434-85.605,82.989
			c-38.228-40.113-79.295-69.699-114.361-82.12c-63.131-22.346-129.829-25.212-180.883-25.212c-24.342,0-48.852,0.732-72.554,1.441
			l-0.05,0.001h0c-11.612,0.348-22.581,0.677-33.662,0.926c-4.8,0.099-9.549,0.189-14.267,0.269
			c-50.845,0.883-98.87,1.717-151.121,28.745c-40.52,20.952-76.973,53.093-108.501,95.636V153.192H1592.891 M1670.9,137.192H681.47
			v278.85c6.59-11.45,13.64-22.74,21.26-33.73c31.78-45.87,68.99-80.04,110.59-101.55c48.91-25.3,95.12-26.11,144.05-26.96
			c4.73-0.08,9.5-0.17,14.32-0.27c11.1-0.25,22.13-0.58,33.81-0.93c23.886-0.714,48.006-1.435,72.126-1.435
			c59.693,0,119.386,4.417,175.544,24.295c36.39,12.89,79.66,45.78,119,89.88c31.88-30.58,66.12-63.4,97.55-94.45
			c30.44-30.07,60.09-55.32,94.81-80.58C1596.66,166.952,1632.83,148.852,1670.9,137.192L1670.9,137.192z"/>
	</g>
	<g>
		<path style="fill:#480000;" d="M1609.134,959.949c41.085,0.001,81.34,10.574,119.646,31.426
			c25.482,13.871,47.437,31.515,67.121,53.941c16.489,18.787,28.599,37.631,40.57,56.892
			c29.562,47.564,49.387,101.25,58.927,159.566c8.136,49.737,6.648,90.407,6.013,107.776c-1.185,32.509-6.364,68.063-14.978,102.817
			c-15.644,63.119-41.776,121.995-77.669,174.992c-22.652,33.438-48.201,63.126-78.109,90.76
			c-24.867,22.977-48.448,40.655-72.422,58.228c-115.513,84.647-233.747,121.341-312.592,137.218
			c-27.937,5.626-52.982,19.63-72.425,40.499l-58.156,62.417l-53.259-57.162c-20.728-22.247-48.783-37.041-78.996-41.656
			c-64.652-9.876-125.281-27.314-180.2-51.829c-30.948-13.823-95.345-42.585-159.649-103.625
			c-16.157-15.339-31.439-31.866-45.486-49.189v-53.533c21.676,21.758,44.296,42.55,67.562,62.089l0.047,0.04
			c48.518,40.735,98.688,82.857,178.56,118.649c43.374,19.429,113.71,44.372,202.479,52.865c20.646,1.972,41.637,2.973,62.392,2.973
			c154.209,0,274.613-55.002,332.657-87.788c36.866-20.817,123.2-69.568,194.469-168.351
			c18.539-25.699,61.955-85.882,82.308-175.696c15.322-67.64,11.262-122.664,7.479-149.444
			c-4.312-30.508-12.339-87.295-52.681-143.273c-16.784-23.298-48.024-66.663-104.624-80.443
			c-13.461-3.28-26.608-4.943-39.074-4.943c-25.385,0-48.535,6.793-68.801,20.187c-51.24,33.839-56.335,91.274-56.837,102.444
			c-1.023,22.785,4.196,45.554,14.966,66.388c-22.581-2.881-43.709-9.098-62.204-18.391c-25.653-12.889-45.099-31.164-56.235-52.847
			c-13.207-25.724-16.66-60.455-9.723-97.799c8.471-45.584,32.549-74.358,42.832-86.647c44.229-52.87,103.601-70.24,135.056-75.888
			C1581.626,961.18,1595.432,959.949,1609.134,959.949 M1609.135,943.949c-13.892,0-28.562,1.164-43.865,3.913
			c-27.9,5.01-94.75,21.9-144.5,81.37c-11.69,13.97-37.24,45.29-46.29,93.99c-2.01,10.82-11.76,63.27,11.22,108.03
			c25.949,50.53,88.766,81.776,162.139,81.776c0.596,0,1.184-0.002,1.781-0.006c-20.35-23.74-31.59-53.21-30.23-83.51
			c0.44-9.81,4.91-60.25,49.67-89.81c17.672-11.68,37.758-17.538,59.983-17.538c11.228,0,22.999,1.494,35.287,4.488
			c50.85,12.38,78.76,51.11,95.43,74.25c38.03,52.77,45.7,107.01,49.82,136.16c3.63,25.69,7.52,78.51-7.24,143.67
			c-19.63,86.62-61.71,144.96-79.68,169.87c-69.21,95.93-153.41,143.48-189.36,163.78c-59.77,33.76-176,85.72-324.79,85.72
			c-19.74,0-40.04-0.91-60.87-2.9c-86.64-8.29-155.2-32.61-197.46-51.54c-77.86-34.89-127.17-76.3-174.86-116.34
			c-32.97-27.69-64.36-57.67-93.85-89.64v98.96c13.64,17.2,30.34,36.06,50.47,55.17c65,61.7,128.81,90.85,164.14,106.63
			c63.424,28.311,127.185,44.31,184.309,53.037c26.711,4.08,51.286,16.977,69.706,36.747l64.966,69.727l69.862-74.982
			c17.04-18.289,39.372-30.786,63.878-35.721c75.538-15.211,198.306-51.634,318.89-139.997c43.6-31.96,101.82-75.42,154.32-152.92
			c87.11-128.62,94.3-256.29,95.39-286.2c1.56-42.65,4.32-161.07-67.34-276.37c-21.97-35.35-52.51-83.17-113.63-116.44
			C1721.122,968.989,1673.54,943.951,1609.135,943.949L1609.135,943.949z"/>
	</g>
	<g>
		<path style="fill:#480000;" d="M1039.019,740.265c21.414,13.211,40.125,29.675,55.794,49.117
			c4.318,5.359,14.43,17.909,23.834,35.003c10.922,19.852,17.719,39.959,20.202,59.763c2.185,17.42,1.063,35.123-3.33,52.91
			c-6.031-8.607-12.634-16.716-19.769-24.271c-14.493-15.352-38.751-41.046-78.921-49.006c-6.767-1.341-13.716-2.119-20.644-2.313
			l-1.584-0.045l-0.228-0.006h-0.228h-36.579H697.47V823.81h211.293h16v-0.097c18.631-0.679,43.931-5.204,67.397-21.34
			C1013.342,787.815,1029.546,766.198,1039.019,740.265 M1029.238,716.47c-6.483,30.413-22.515,56.481-46.14,72.717
			c-22.733,15.632-47.341,18.623-63.61,18.623c-4.185,0-7.817-0.198-10.725-0.429v0.43H681.47v69.606h296.095h36.579l1.584,0.045
			c5.68,0.158,11.71,0.769,17.99,2.014c34.429,6.823,55.497,28.512,70.397,44.295c15.387,16.293,26.702,33.841,35.029,50.903
			c12.479-27.211,19.845-58.506,15.58-92.517c-6.393-50.993-36.613-89.36-47.452-102.813
			C1081.623,747.516,1052.183,728.078,1029.238,716.47L1029.238,716.47z"/>
	</g>
	<g>
		<g>
			<path style="fill:#480000;" d="M816.187,1054.585c-16.613,0.001-37.458-8.438-46.577-27.294
				c-8.112-16.773-3.271-33.52-0.813-39.942c0.663-1.73,2.353-2.894,4.206-2.894c0.545,0,1.086,0.102,1.606,0.301
				c2.316,0.887,3.48,3.493,2.593,5.812c-2.04,5.329-6.074,19.193,0.51,32.805c7.437,15.374,24.538,22.256,38.188,22.256
				c2.907,0,5.724-0.297,8.372-0.883c24.945-5.519,38.398-38.743,34.869-65.11c-4.746-35.466-40.76-51.356-42.291-52.015
				c-8.637-3.72-17.963-5.606-27.718-5.606c-29.963,0-55.024,17.46-59.744,20.96c-27.562,20.44-43.388,57.655-43.42,102.102
				c-0.002,2.479-2.021,4.497-4.5,4.497c-1.206-0.001-2.335-0.47-3.184-1.32c-0.85-0.851-1.317-1.98-1.316-3.183
				c0.034-47.324,17.186-87.171,47.059-109.324c3.13-2.321,31.555-22.681,65.416-22.681c10.859,0,21.278,2.116,30.968,6.29
				c4.317,1.859,42.327,19.309,47.65,59.087c2.1,15.691-0.98,32.871-8.451,47.134c-7.858,15.003-19.718,24.932-33.395,27.957
				C823.059,1054.231,819.685,1054.585,816.187,1054.585L816.187,1054.585z"/>
			<path style="fill:#480000;" d="M789.442,906.565c-35.662,0.001-65.171,20.906-69.288,23.959
				c-31.542,23.391-49.652,65.14-49.687,114.54c-0.004,6.075,4.917,11.004,10.992,11.008c0.003,0,0.005,0,0.008,0
				c6.071,0,10.996-4.92,11-10.992c0.03-42.369,14.898-77.683,40.792-96.886c3.353-2.487,27.57-19.683,55.872-19.681
				c8.175,0.001,16.696,1.436,25.148,5.076c1.393,0.6,34.156,15.056,38.418,46.907c3.147,23.521-8.941,53.28-29.83,57.901
				c-2.199,0.486-4.547,0.729-6.968,0.729c-12.248,0-26.353-6.217-32.336-18.585c-5.479-11.329-2.029-23.111-0.291-27.651
				c2.172-5.674-0.667-12.034-6.341-14.206c-1.293-0.495-2.622-0.729-3.929-0.729c-4.426,0-8.6,2.69-10.276,7.07
				c-2.76,7.211-8.185,26.039,1.032,45.096c10.018,20.712,32.496,30.965,52.429,30.964c3.949,0,7.8-0.402,11.432-1.206
				c33.637-7.44,51.398-48.561,46.884-82.3c-5.798-43.324-46.859-62.187-51.521-64.194
				C811.592,908.48,800.237,906.565,789.442,906.565L789.442,906.565z"/>
		</g>
	</g>
</g>
</svg>
