<?xml version="1.0" encoding="iso-8859-1"?>
<!-- Generator: Adobe Illustrator 24.0.1, SVG Export Plug-In . SVG Version: 6.00 Build 0)  -->
<svg version="1.1" xmlns="http://www.w3.org/2000/svg" xmlns:xlink="http://www.w3.org/1999/xlink" x="0px" y="0px"
	 viewBox="0 0 1492.198 2193.917" style="enable-background:new 0 0 1492.198 2193.917;" xml:space="preserve">
<g id="Layer_5">
	<g>
		<linearGradient id="SVGID_1_" gradientUnits="userSpaceOnUse" x1="767.6058" y1="1404.6637" x2="781.5864" y2="381.2851">
			<stop  offset="0" style="stop-color:#8B1D1A"/>
			<stop  offset="0.25" style="stop-color:#550000"/>
			<stop  offset="0.5" style="stop-color:#3A0000"/>
			<stop  offset="0.75" style="stop-color:#1E0000"/>
			<stop  offset="1" style="stop-color:#000000"/>
		</linearGradient>
		<path style="fill:url(#SVGID_1_);" d="M517.848,307.452c-18.68,32.49-47.53,69.83-91.5,100.27
			c-34.42,23.83-68.37,36.69-95.13,43.85c16.49,16.41,31.43,33.58,44.75,51.43c23.33,31.26,41.7,64.71,54.6,99.42
			c22.56,60.71,23.98,128.09,26.81,262.32v0.1c1.06,49.96-0.69,107.31-4.19,221.57c-2.61,85.36-3.87,123.91-6.52,143.28l-0.86,6.25
			c-10.25,75.04-23.01,168.42-91.43,246.67c-22.25,25.45-47.64,47.53-75.84,65.98c57.65,28.96,102.41,63.74,133.45,103.76
			c83.54,107.71,89.21,211.96,89.41,216.35c2.23,48.81-6.86,98.94-26.42,146.31c27.72-33.01,60.19-79.03,84.33-136.41
			c34.73-82.56,36.32-150.88,36.32-155.83c0-6.08,0-16.84,0-16.84c0-0.32,0-18.84,0-19.03c0-8.64,0.53-45.41,3.05-176.84v-4.07
			v-1179.1c118.02,28.94,209.79,53.73,209.79,53.73c80.42,21.72,132.1,34,202.36,35.23c0,0,80.94,1.42,149.05-14.45
			c162.37-37.83,282.35-239.7,332.32-338.67c-7.51,11.42-15.41,22.49-23.64,33.12c-50.75,65.55-112.28,113.07-182.9,141.26
			c-22.54,8.99-76.22,30.41-146.41,30.41c-13.95,0-28.54-0.84-43.68-2.8c-80.17-10.37-136.43-46.38-173.66-70.21
			c-28.17-18.03-54.59-38.71-78.93-61.75c-2.54,10.67-7.41,22.32-16.44,32.86c-17.68,20.63-41.38,25.43-55.11,28
			c-31.05,5.83-54.88-1.95-77.69-8.13c-40.71-11.02-83.14-14.25-124.66-21.68c-86.21-15.42-159.33-6.26-186.09-2.71
			c-49.13,6.53-151.17,21.36-238.49,95.76c-26.02,22.16-51.54,44.5-63.24,83.11c-10.46,34.52-5.5,67.66,3.09,93.72
			c4.43-22.66,13.25-49.2,30.34-75.65c5.55-8.61,50.68-76.21,132.79-93.05c37.07-7.6,67.23-1.9,81.3,0.9
			C389.378,277.962,455.078,292.662,517.848,307.452z"/>
	</g>
	<g>
		<linearGradient id="SVGID_2_" gradientUnits="userSpaceOnUse" x1="875.8178" y1="1406.142" x2="889.7984" y2="382.7634">
			<stop  offset="0" style="stop-color:#8B1D1A"/>
			<stop  offset="0.25" style="stop-color:#550000"/>
			<stop  offset="0.5" style="stop-color:#3A0000"/>
			<stop  offset="0.75" style="stop-color:#1E0000"/>
			<stop  offset="1" style="stop-color:#000000"/>
		</linearGradient>
		<path style="fill:url(#SVGID_2_);" d="M871.778,1016.692h-200.89v61.52h261.7h32.33l1.4,0.04c5.02,0.14,10.35,0.68,15.9,1.78
			c30.43,6.03,49.05,25.2,62.22,39.15c13.6,14.4,23.6,29.91,30.96,44.99c11.03-24.05,17.54-51.71,13.77-81.77
			c-5.65-45.07-32.36-78.98-41.94-90.87c-22.67-28.13-48.69-45.31-68.97-55.57c-5.73,26.88-19.9,49.92-40.78,64.27
			C912.218,1017.602,884.473,1017.044,871.778,1016.692z"/>
	</g>
</g>
<g id="Layer_9">
	<g>
		<path style="fill:#BFCBC2;" d="M979.391,1002.295c17.077-9.873,39.934,14.963,22.49,33.519
			c-11.682,15.015-39.79,4.564-35.599-16.043C979.805,1052.836,1019.289,1011.223,979.391,1002.295z"/>
	</g>
	<g>
		<path style="fill:#BFCBC2;" d="M1048.509,1042.474c-21.887-33.253-62.383-5.346-34.893,14.739
			C959.181,1043.232,1034.388,977.185,1048.509,1042.474z"/>
	</g>
	<g>
		<path style="fill:#BFCBC2;" d="M535.478,913.445c19.888,47.768-6.632,110.398-58.25,127.284
			C505.819,1006.118,527.789,959.949,535.478,913.445z"/>
	</g>
	<g>
		<path style="fill:#BFCBC2;" d="M518.265,1302.155c-34.291-82.242-17.156-134.783,11.552-210.408
			c7.85-46.933-52.166-37.288-29.155-6.122c-35.256-24.109,30.001-66.506,46.823-6.641
			C552.174,1130.652,498.826,1194.894,518.265,1302.155z"/>
	</g>
	<g>
		<path style="fill:#BFCBC2;" d="M573.442,768.174c17.66,72.325-26.756,152.756-98.673,175.254
			C517.097,893.996,552.694,831.538,573.442,768.174z"/>
	</g>
	<g>
		<path style="fill:#BFCBC2;" d="M581.513,780.361c-10.823,40.364-56.405,71.093-99.695,62.627
			C516.574,829.109,552.591,807.079,581.513,780.361z"/>
	</g>
	<g>
		<path style="fill:#BFCBC2;" d="M514.28,673.851c36.039-26.731,78.343,24.148,74.131,62.154
			c-0.921,53.454-58.653,89.779-105.399,63.832C580.178,794.87,573.066,667.333,514.28,673.851z"/>
	</g>
	<g>
		<path style="fill:#BFCBC2;" d="M561.932,641.455c-94.424-11.848-91.147,108.7-36.69,106.76
			c-35.748,22.575-73.417-29.04-66.108-64.431C464.884,631.579,527.579,610.53,561.932,641.455z"/>
	</g>
	<g>
		<path style="fill:#BFCBC2;" d="M555.254,524.584c40.905,62.204-55.087,133.901-101.255,61.387
			C492.635,610.88,557.767,590.596,555.254,524.584z"/>
	</g>
	<g>
		<path style="fill:#BFCBC2;" d="M421.665,516.584c-24.749-97.803,127.292-109.132,130.652-9.875
			c-11.661,113.649-131.653,53.095-72.657,23.034c-21.729,16.63,21.701,43.806,31.975-12.375
			C515.432,461.55,433.855,454.123,421.665,516.584z"/>
	</g>
	<g>
		<path style="fill:#BFCBC2;" d="M558.394,468.922c-12.318-42.685-56.601-62.516-93.434-50.545
			C498.513,380.509,571.948,410.066,558.394,468.922z"/>
	</g>
	<g>
		<path style="fill:#BFCBC2;" d="M559.547,404.67c-7.828-18.711-27.175-35.893-49.744-39.468
			C532.214,355.254,564.625,377.303,559.547,404.67z"/>
	</g>
	<g>
		<path style="fill:#BFCBC2;" d="M836.025,222.44c18.805-19.277,39.536,23.906,14.457,40.516
			c-18.185,14.966-51.184-8.337-30.661-29.376C816.588,285.524,879.123,224.272,836.025,222.44z"/>
	</g>
	<g>
		<path style="fill:#BFCBC2;" d="M844.422,317.429c36.02-14.979-2.05-58.782-15.45-21.745
			c-6.862-17.271,17.467-34.631,33.792-20.013C881.249,289.505,868.425,321.684,844.422,317.429z"/>
	</g>
	<g>
		<path style="fill:#BFCBC2;" d="M901.068,248.229c-27.85-19.476-32.475,34.888,0.282,15.611
			c-3.989,16.902-36.916,15.356-34.367-9.923C867.387,236.591,894.309,229.945,901.068,248.229z"/>
	</g>
	<g>
		<path style="fill:#BFCBC2;" d="M877.738,211.322c-81.839-14.535-97.246,87.935-33.508,125.498
			C716.19,319.724,787.138,140.43,877.738,211.322z"/>
	</g>
	<g>
		<path style="fill:#BFCBC2;" d="M831.173,358.524c66.57-35.469,110.87-111.738,52.706-163.738
			C992.64,227.582,925.399,368.78,831.173,358.524z"/>
	</g>
	<g>
		<path style="fill:#BFCBC2;" d="M987.795,255.071c-57.265-1.672-66.538,86.083-52.817,127.624
			C864.275,307.052,946.408,221.918,987.795,255.071z"/>
	</g>
	<g>
		<path style="fill:#BFCBC2;" d="M977.543,369.781c26.319-32.957-38.603-53.829-29.237-5.473
			c-19.075-14.782-2.383-51.388,26.004-42.354C996.783,326.527,1001.231,362.054,977.543,369.781z"/>
	</g>
	<g>
		<path style="fill:#BFCBC2;" d="M998.8,283.364c22.849-5.693,17.349,40.477-12.193,43.117
			c-31.163,4.082-46.81-41.406-13.201-49.079c-14.26,9.722-8.777,38.315,16.225,32.107
			C999.42,307.076,1014.266,288.34,998.8,283.364z"/>
	</g>
	<g>
		<path style="fill:#BFCBC2;" d="M1051.663,294.464c-42.237,8.007-37.959,61.13-34.941,92.309
			C977.009,332.811,1014.768,280.694,1051.663,294.464z"/>
	</g>
	<g>
		<path style="fill:#BFCBC2;" d="M1086.919,377.525c-0.259,32.654-75.23,23.291-23.357-47.926
			c5.26-18.578-28.992-19.005-23.339,7.734c-27.843-35.983,44.915-59.729,47.117-8.154c0.681,17.122-18.759,29.625-23.665,45.807
			C1063.282,385.904,1079.811,389.91,1086.919,377.525z"/>
	</g>
	<g>
		<path style="fill:#BFCBC2;" d="M1095.565,384.015c15.8-27.732,10.539-66.866-9.097-88.721
			C1125.025,308.847,1130.335,363.46,1095.565,384.015z"/>
	</g>
	<g>
		<path style="fill:#BFCBC2;" d="M1187.433,315.633c-54.031-17.994-68.603,22.419-48.603,66.959
			C1080.384,340.453,1134.435,261.465,1187.433,315.633z"/>
	</g>
	<g>
		<path style="fill:#BFCBC2;" d="M1210.961,351.514c-19.626-27.816-60.414-7.991-49.661,24.855
			C1124.843,336.356,1201.936,299.453,1210.961,351.514z"/>
	</g>
	<g>
		<path style="fill:#BFCBC2;" d="M1240.951,344.677c-34.795,9.643-30.83-43.773-56.434-47.075
			C1219.22,288.375,1215.156,341.694,1240.951,344.677z"/>
	</g>
	<g>
		<path style="fill:#BFCBC2;" d="M1291.442,295.565c-63.174-27.883-57.463,37.604-30.743,35.512
			C1207.126,352.297,1220.493,225.412,1291.442,295.565z"/>
	</g>
	<g>
		<path style="fill:#BFCBC2;" d="M704.317,217.713c61.098,22.696,38.93,116.026,93.465,134.954
			C719.13,359.067,733.587,245.463,704.317,217.713z"/>
	</g>
	<g>
		<path style="fill:#BFCBC2;" d="M642.411,258.441c42.601-21.356,95.513,6.945,102.876,51.832
			C723.136,283.164,678.358,260.182,642.411,258.441z"/>
	</g>
	<g>
		<path style="fill:#BFCBC2;" d="M666.877,195.459c-6.537,25.574,8.493,56.006,31.708,66.138
			C664.979,264.449,642.005,221.813,666.877,195.459z"/>
	</g>
	<g>
		<path style="fill:#BFCBC2;" d="M605.294,306.786c24.339-45.344,104.077-39.933,113.334,21.895
			C689.687,291.5,639.297,286.258,605.294,306.786z"/>
	</g>
	<g>
		<path style="fill:#BFCBC2;" d="M623.998,189.884c17.794,35.406-1.117,86.772-41.729,99.555
			C604.28,262.936,620.533,226.313,623.998,189.884z"/>
	</g>
	<g>
		<path style="fill:#BFCBC2;" d="M566.18,222.62c7.55-27.476,50.735-7.539,37.231,24.519c-8.789,22.893-47.299,17.508-41.052-10.202
			c-1.683,19.941,30.263,27.032,35.02,0.952C600.959,220.06,578.635,203.436,566.18,222.62z"/>
	</g>
	<g>
		<path style="fill:#BFCBC2;" d="M572.828,186.136c-32.59-3.459-49.689,84.228-22.164,100.49
			C487.927,269.258,531.004,160.852,572.828,186.136z"/>
	</g>
	<g>
		<path style="fill:#BFCBC2;" d="M448.43,270.535c-24.046-38.073,75.376-79.223,79.466-24.527
			C519.256,218.961,444.871,242.151,448.43,270.535z"/>
	</g>
	<g>
		<path style="fill:#BFCBC2;" d="M452.345,174.215c-14.078,21.601-2.905,56.742,32.125,57.05
			C449.525,251.667,413.01,198.575,452.345,174.215z"/>
	</g>
	<g>
		<path style="fill:#BFCBC2;" d="M385.746,255.178c-46.929,8.216,18.753-83.092,60.66-32.57
			C423.096,206.043,354.608,247.845,385.746,255.178z"/>
	</g>
	<g>
		<path style="fill:#BFCBC2;" d="M367.319,183.145c-9.093,19.831,7.436,41.303,28.636,37.108
			C375.24,238.484,340.401,205.933,367.319,183.145z"/>
	</g>
	<g>
		<path style="fill:#BFCBC2;" d="M333.427,192.854c19.977,11.881,12.594,44.662-12.375,46.022c1.765-1.125,2.841-1.886,5.048-3.193
			c0,0-0.443,0.914-1.331,2.499l-0.818-1.191C336.268,228.128,342.313,208.444,333.427,192.854z"/>
	</g>
</g>
<g id="Layer_7">
	<g>
		<g>
			<path style="fill:#FFB400;" d="M853.289,188.192c15.955,12.842,32.587,24.813,49.751,35.798
				c37.436,23.962,100.092,64.067,188.035,75.442c15.836,2.05,32.044,3.09,48.174,3.09c76.887,0,134.676-23.049,159.386-32.904
				c5.215-2.082,10.385-4.261,15.507-6.535c-20.422,21.481-41.074,39.977-61.681,55.223
				c-33.501,24.784-67.322,41.273-100.524,49.009c-54.038,12.591-117.636,13.57-135.841,13.57c-2.983,0-4.652-0.027-4.654-0.027
				c-67.687-1.185-118.389-13.645-193.845-34.024c-0.922-0.249-93.519-25.229-210.582-53.934l-35.431-8.688l0.029-0.05l-5.908-1.392
				l-2.025-0.497v0.019l-37.803-8.907c-71.433-16.831-135.445-30.901-190.266-41.82c-8.755-1.742-26.973-5.367-50.439-5.367
				c-8.63,0-17.246,0.496-25.771,1.481c9.553-3.959,19.384-7.582,29.476-10.859c41.183-13.374,78.615-18.35,98.716-21.021
				c12.733-1.689,42.552-5.645,81.392-5.645c32.235,0,63.839,2.729,93.929,8.111c15.152,2.711,30.36,4.878,45.068,6.973
				c26.862,3.826,52.235,7.44,76.604,14.037c1.731,0.469,3.469,0.948,5.215,1.429c16.979,4.677,36.222,9.977,59.701,9.977
				c9.437,0,18.987-0.895,28.367-2.656c14.715-2.754,49.174-9.205,75.249-39.631C853.174,188.327,853.232,188.259,853.289,188.192
				 M563.678,297.96v28.932v1179.1v3.729c-2.052,107.052-3.05,165.011-3.05,177.18v19.03v16.81
				c-0.003,0.582-0.584,54.462-26.376,124.064c-1.959-13.759-5.689-33.673-12.751-57.485
				c-16.848-56.811-44.389-110.111-81.856-158.419c-24.905-32.11-57.623-61.106-97.635-86.583
				c13.743-11.983,26.68-24.899,38.717-38.668c75.335-86.158,89.452-189.509,99.754-264.936l0.864-6.28
				c2.89-21.125,4.108-58.047,6.827-146.952c3.507-114.503,5.272-172.108,4.206-223.015l0-0.116l-0.008-0.369
				c-2.913-138.157-4.375-207.504-28.994-273.755c-14.062-37.836-34.033-74.227-59.356-108.159
				c-3.793-5.083-7.719-10.126-11.771-15.123c18.928-8.48,36.984-18.652,54.021-30.448c41.618-28.812,75.909-66.36,101.92-111.602
				L563.678,297.96 M1492.198,62.732c-7.51,11.42-15.41,22.49-23.64,33.12c-50.75,65.55-112.28,113.07-182.9,141.26
				c-22.54,8.99-76.22,30.41-146.41,30.41c-13.95,0-28.54-0.84-43.68-2.8c-80.17-10.37-136.43-46.38-173.66-70.21
				c-28.17-18.03-54.59-38.71-78.93-61.75c-2.54,10.67-7.41,22.32-16.44,32.86c-17.679,20.63-41.38,25.43-55.11,28
				c-7.723,1.45-15.002,2.058-21.927,2.058c-20.917,0-38.626-5.545-55.763-10.188c-40.71-11.02-83.14-14.25-124.66-21.68
				c-36.565-6.54-70.778-8.659-100.095-8.659c-39.805,0-70.585,3.904-85.995,5.949c-49.13,6.53-151.17,21.36-238.49,95.76
				c-26.02,22.16-51.54,44.5-63.24,83.11c-10.46,34.52-5.5,67.66,3.09,93.72c4.43-22.66,13.25-49.2,30.34-75.65
				c5.55-8.61,50.68-76.21,132.79-93.05c13.652-2.799,26.373-3.794,37.692-3.794c19.416-0.001,34.719,2.926,43.608,4.694
				c60.6,12.07,126.3,26.77,189.07,41.56c-18.68,32.49-47.531,69.83-91.5,100.27c-34.42,23.83-68.37,36.69-95.13,43.85
				c16.49,16.41,31.43,33.58,44.75,51.43c23.33,31.26,41.7,64.71,54.6,99.42c22.56,60.71,23.98,128.09,26.81,262.321v0.1
				c1.06,49.96-0.69,107.31-4.19,221.57c-2.61,85.36-3.87,123.91-6.52,143.28l-0.86,6.25c-10.25,75.041-23.01,168.42-91.43,246.67
				c-22.25,25.45-47.64,47.53-75.84,65.98c57.65,28.96,102.41,63.74,133.45,103.76c83.54,107.71,89.21,211.96,89.41,216.35
				c2.23,48.81-6.86,98.94-26.42,146.31c27.72-33.01,60.19-79.03,84.33-136.41c34.73-82.56,36.32-150.88,36.32-155.83
				c0-6.08,0-16.84,0-16.84c0-0.32,0-18.84,0-19.03c0-8.64,0.53-45.41,3.05-176.84v-4.07v-1179.1
				c118.02,28.94,209.79,53.73,209.79,53.73c80.42,21.72,132.1,34,202.36,35.23c0,0,1.867,0.033,5.267,0.033
				c19.004,0,86.008-1.021,143.783-14.483C1322.248,363.572,1442.228,161.702,1492.198,62.732L1492.198,62.732z"/>
		</g>
	</g>
	<g>
		<g>
			<path style="fill:#FFB400;" d="M995.047,988.358c9.149,7.496,17.477,15.89,24.926,25.133
				c6.833,8.481,26.551,32.955,33.112,65.056c-14.667-13.011-35.488-27.185-64.062-32.847c-7.123-1.412-14.434-2.231-21.706-2.434
				l-1.4-0.04l-0.5-0.014h-0.5h-32.33h-2.708c9.796-3.594,18.951-8.311,27.422-14.135
				C972.561,1018.589,985.34,1004.709,995.047,988.358 M978.258,935.962c-5.73,26.88-19.9,49.92-40.78,64.27
				c-21.441,14.744-44.675,16.571-58.973,16.571c-2.547,0-4.808-0.058-6.727-0.111h-200.89v61.52h261.7h32.33l1.4,0.04
				c5.02,0.14,10.35,0.68,15.9,1.78c30.43,6.03,49.05,25.2,62.22,39.15c13.6,14.4,23.6,29.91,30.96,44.99
				c11.03-24.05,17.54-51.71,13.77-81.77c-5.65-45.07-32.36-78.98-41.94-90.87C1024.557,963.402,998.537,946.222,978.258,935.962
				L978.258,935.962z"/>
		</g>
	</g>
</g>
<g id="Layer_8">
	<g>
		<g>
			<path style="fill:#480000;" d="M670.883,543.3c-16.073,0-29.149-13.077-29.149-29.15S654.81,485,670.883,485
				s29.15,13.077,29.15,29.15S686.957,543.3,670.883,543.3z"/>
			<path style="fill:#480000;" d="M670.884,491.501c12.489,0,22.65,10.161,22.65,22.65s-10.161,22.65-22.65,22.65
				c-12.489,0-22.65-10.161-22.65-22.65S658.394,491.501,670.884,491.501 M670.884,478.501c-19.689,0-35.65,15.961-35.65,35.65
				s15.961,35.65,35.65,35.65c19.689,0,35.65-15.961,35.65-35.65S690.572,478.501,670.884,478.501L670.884,478.501z"/>
		</g>
	</g>
	<g>
		<g>
			<path style="fill:#480000;" d="M670.883,2187.417c-16.073,0-29.149-13.077-29.149-29.15s13.076-29.149,29.149-29.149
				s29.15,13.076,29.15,29.149S686.957,2187.417,670.883,2187.417z"/>
			<path style="fill:#480000;" d="M670.884,2135.617c12.489,0,22.65,10.161,22.65,22.65c0,12.489-10.161,22.65-22.65,22.65
				c-12.489,0-22.65-10.161-22.65-22.65C648.234,2145.778,658.394,2135.617,670.884,2135.617 M670.884,2122.617
				c-19.689,0-35.65,15.961-35.65,35.65c0,19.689,15.961,35.65,35.65,35.65c19.689,0,35.65-15.961,35.65-35.65
				C706.533,2138.578,690.572,2122.617,670.884,2122.617L670.884,2122.617z"/>
		</g>
	</g>
	<g>
		<g>
			<rect x="666.383" y="520.65" style="fill:#480000;" width="9" height="1631.116"/>
			<polygon style="fill:#480000;" points="681.883,514.15 659.883,514.15 659.883,2158.267 681.883,2158.267 681.883,514.15 			"/>
		</g>
	</g>
	<g>
		<g>
			<path style="fill:#480000;" d="M1165.826,230.138c-24.188,0-46.866-3.096-65.089-5.584l-0.182-0.025
				c-4.264-0.582-10.708-1.462-19.104-3.104c-61-11.925-105.332-40.302-137.702-61.021c-38.41-24.589-73.308-54.502-103.725-88.911
				c-1.644-1.859-1.468-4.709,0.392-6.352c1.054-0.932,2.2-1.128,2.976-1.128c1.311,0,2.509,0.54,3.375,1.519
				c29.865,33.784,64.125,63.151,101.828,87.287c31.764,20.332,75.264,48.177,134.584,59.773c8.127,1.589,14.168,2.415,18.579,3.017
				l0.188,0.026c19.133,2.613,40.819,5.574,64.193,5.574c31.63,0,58.443-5.572,81.973-17.034
				c18.473-8.999,46.389-22.598,59.981-54.599c13.33-31.384,8.08-70.187-13.063-96.556c-17.992-22.438-47.51-37.513-73.449-37.513
				c-10.146,0-19.527,2.207-27.886,6.56c-19.295,10.049-37.334,33.441-34.477,58.709c1.799,15.917,13.313,42.069,36.551,44.488
				c1.098,0.114,2.217,0.172,3.325,0.172c20.459,0,34.646-19.132,35.239-19.946c0.853-1.164,2.183-1.837,3.643-1.837
				c0.665,0,1.663,0.15,2.642,0.865c2.002,1.463,2.443,4.279,0.985,6.278c-1.766,2.42-17.958,23.647-42.357,23.649
				c-1.456,0-2.939-0.078-4.409-0.23c-28.682-2.985-42.363-32.989-44.562-52.428c-3.467-30.663,17.922-56.589,39.263-67.703
				c9.664-5.033,20.433-7.584,32.006-7.584c28.989,0,60.59,16.051,80.508,40.891c23.519,29.331,29.142,70.822,14.325,105.704
				c-14.908,35.099-45.84,50.167-64.321,59.171C1227.366,224.292,1199.16,230.138,1165.826,230.138z"/>
			<path style="fill:#480000;" d="M1221.544,0c-12.034,0.001-23.953,2.562-35.008,8.319c-23.247,12.106-46.531,40.49-42.72,74.199
				c2.435,21.526,17.853,54.78,50.349,58.163c1.729,0.18,3.421,0.265,5.081,0.265c27.565-0.002,45.544-23.489,47.608-26.318
				c3.578-4.905,2.501-11.775-2.401-15.357c-1.956-1.429-4.226-2.117-6.477-2.117c-3.392,0-6.739,1.563-8.894,4.508
				c-0.133,0.182-12.857,17.276-29.988,17.276c-0.873,0-1.758-0.044-2.652-0.138c-18.414-1.917-29.076-23.815-30.765-38.753
				c-2.528-22.356,13.691-43.189,31.021-52.213c7.74-4.031,16.207-5.825,24.883-5.825c25.412,0.001,52.595,15.398,68.378,35.08
				c19.69,24.556,24.573,60.703,12.152,89.948c-12.643,29.764-39.243,42.722-56.846,51.296
				c-25.799,12.568-53.183,16.378-79.126,16.378c-22.93,0-44.734-2.977-63.314-5.514l-0.172-0.023
				c-4.336-0.592-10.273-1.403-18.228-2.958c-58.106-11.359-101.002-38.817-132.326-58.868
				c-37.196-23.812-70.997-52.786-100.463-86.118c-2.174-2.459-5.202-3.714-8.245-3.714c-2.589,0-5.189,0.909-7.281,2.758
				c-4.552,4.024-4.979,10.976-0.956,15.527c30.815,34.859,66.171,65.165,105.088,90.078
				c32.811,21.002,77.745,49.765,139.962,61.928c8.573,1.676,15.132,2.572,19.473,3.165l0.172,0.023
				c18.492,2.525,41.344,5.646,65.978,5.646c28.653,0,59.714-4.227,89.075-18.529c19.299-9.401,51.6-25.136,67.458-62.474
				c15.739-37.055,9.759-81.139-15.236-112.312C1287.288,18.588,1253.976-0.003,1221.544,0L1221.544,0z"/>
		</g>
	</g>
	<g>
		<g>
			<path style="fill:#480000;" d="M297.678,2070.837c-80.339,0.005-137.047-78.256-139.422-81.587
				c-10.421-14.617-42.135-59.097-31.997-115.241c9.157-50.707,34.915-72.504,54.911-81.859c0.73-0.342,18.185-8.381,40.781-8.381
				c17.204,0,32.769,4.632,46.261,13.769c5.768,3.905,34.622,25.248,36.227,61.963c0.355,8.104,0.577,49.164-29.98,61.781
				c-5.482,2.264-11.412,3.412-17.627,3.412c-13.902,0.001-27.283-5.666-36.712-15.547c-9.239-9.684-12.332-20.977-13.299-28.744
				c-0.149-1.193,0.176-2.373,0.915-3.321s1.802-1.553,2.995-1.701c0.171-0.021,0.361-0.032,0.547-0.032
				c2.271,0,4.194,1.694,4.474,3.941c0.655,5.258,2.939,15.321,10.88,23.645c7.625,7.99,18.917,12.76,30.205,12.76
				c5.024,0,9.797-0.918,14.187-2.729c25.001-10.324,24.733-46.019,24.425-53.069c-1.417-32.412-27.14-51.424-32.282-54.905
				c-11.954-8.094-25.864-12.197-41.345-12.197c-20.547,0-36.676,7.434-36.836,7.509c-26.289,12.3-43.067,37.637-49.87,75.308
				c-9.464,52.409,20.591,94.564,30.467,108.417c0.724,1.015,18.045,25.098,46.227,46.094
				c28.258,21.055,57.096,31.731,85.714,31.731c7.236,0,14.547-0.691,21.729-2.057c24.756-4.704,60.966-20.081,92.874-66.624
				c14.105-20.575,23.365-43.841,27.521-69.151l0.026-0.173c2.365-16.788,5.041-35.77,4.289-52.436l-0.007-0.127
				c-0.063-0.959-1.635-23.872-11.484-56.702c-9.375-31.246-28.423-78.642-65.921-126.989c-6.018-7.758-12.903-15.472-20.466-22.927
				c-19.483-19.203-42.829-36.475-71.371-52.803c-30.971-17.717-64.452-31.008-96.83-43.86c-6.994-2.774-14.221-5.642-21.314-8.807
				l-3.083-1.378l-2.774,1.348c-13.15,6.522-48.284,21.743-90.406,22.221c-0.469,0.006-0.938,0.009-1.402,0.009
				c-29.703,0.001-52.232-11.46-52.405-26.66c-0.176-15.539,22.69-27.519,53.188-27.864c0.938-0.012,1.874-0.018,2.805-0.018
				c16.245,0,32.128,1.715,47.208,5.098c13.853,3.107,26.354,8.096,40.864,14.63l2.714,1.223l53.138-24.751
				c40.553-18.891,75.77-45.229,104.672-78.284c57.066-65.275,68.053-145.672,77.746-216.605l0.859-6.272
				c2.349-17.17,3.729-62.356,6.016-137.219c3.468-113.29,5.208-170.145,4.183-218.613l-0.002-0.112
				c-2.692-127.77-4.043-191.89-23.223-243.494c-27.536-74.082-85.002-141.368-166.186-194.583c-1.005-0.659-1.694-1.67-1.939-2.847
				c-0.245-1.177-0.017-2.378,0.642-3.384c0.835-1.275,2.246-2.035,3.773-2.035c0.871,0,1.721,0.255,2.458,0.738
				c82.803,54.276,141.48,123.081,169.688,198.975c19.71,53.032,21.072,117.669,23.785,246.444l0.002,0.113
				c1.03,48.704-0.712,105.629-4.185,219.041c-2.296,75.185-3.682,120.556-6.096,138.194l-0.858,6.272
				c-9.864,72.187-21.045,154.002-79.887,221.31c-29.734,34.005-65.953,61.096-107.648,80.519l-46.277,21.556l17.26,6.87
				c32.671,12.969,66.454,26.378,97.982,44.414c29.226,16.72,53.176,34.45,73.219,54.205c7.844,7.732,14.998,15.747,21.26,23.821
				c38.348,49.443,57.835,97.941,67.431,129.919c10.378,34.593,11.799,57.901,11.854,58.876l0.005,0.095
				c0.8,17.478-1.942,36.935-4.361,54.101l-0.049,0.33c-4.365,26.654-14.119,51.168-28.991,72.861
				c-33.643,49.073-72.198,65.359-98.619,70.378C313.243,2070.096,305.419,2070.837,297.678,2070.837L297.678,2070.837z
				 M62.346,1535.853c-0.849,0-1.698,0.005-2.55,0.014c-24.837,0.283-42.915,9.387-44.219,17.711l-0.171,1.092l0.199,1.088
				c1.474,8.033,19.257,16.635,43.382,16.635c0.402,0,0.802-0.002,1.21-0.006c27.441-0.312,52.053-7.41,67.869-13.311l16.281-6.073
				l-16.271-6.103c-7.166-2.688-13.821-4.706-20.346-6.17C93.304,1537.494,78.034,1535.853,62.346,1535.853z"/>
			<path style="fill:#480000;" d="M212.96,413.103c-3.584,0-7.098,1.749-9.209,4.972c-3.331,5.081-1.912,11.9,3.169,15.23
				c80.017,52.45,136.608,118.639,163.657,191.411c18.797,50.576,20.141,114.338,22.817,241.349l0.002,0.13
				c1.022,48.3-0.717,105.095-4.181,218.261c-2.28,74.658-3.657,119.721-5.959,136.551l-0.859,6.274
				c-9.569,70.028-20.416,149.399-76.199,213.207c-28.304,32.37-62.798,58.165-102.524,76.67l-50.438,23.494
				c-14.053-6.328-27.338-11.731-42.11-15.046c-15.503-3.477-31.844-5.255-48.628-5.255c-0.958,0-1.92,0.006-2.881,0.017
				c-34.765,0.395-59.836,14.879-59.614,34.438c0.219,19.283,24.896,33.086,58.904,33.086c0.488,0,0.984-0.003,1.476-0.009
				c43.721-0.496,80.217-16.448,93.22-22.897c0.107,0.048,0.214,0.096,0.321,0.143c7.177,3.202,14.489,6.105,21.561,8.911
				c32.169,12.77,65.432,25.974,96.004,43.462c28.048,16.046,50.957,32.986,70.035,51.79c7.358,7.253,14.051,14.749,19.893,22.281
				c36.886,47.559,55.615,94.157,64.832,124.874c9.617,32.055,11.15,54.129,11.223,55.254c0.725,16.065-1.906,34.73-4.227,51.202
				l-0.008,0.061c-4,24.362-12.905,46.745-26.468,66.528c-30.656,44.717-65.171,59.439-88.727,63.914
				c-6.819,1.296-13.66,1.943-20.516,1.943c-27.213,0-54.654-10.194-81.831-30.443c-27.378-20.398-44.118-43.674-44.817-44.655
				c-9.483-13.301-38.34-53.777-29.363-103.488c6.406-35.476,21.958-59.221,46.227-70.575c0.24-0.112,15.083-6.897,34.082-6.896
				c11.799,0,25.204,2.619,37.7,11.079c4.69,3.176,28.151,20.502,29.432,49.807c0.169,3.855,1.031,37.924-20.411,46.777
				c-3.667,1.513-7.659,2.239-11.708,2.239c-9.305,0-18.904-3.833-25.502-10.747c-6.651-6.971-8.577-15.498-9.133-19.96
				c-0.694-5.575-5.448-9.639-10.924-9.639c-0.446,0-0.897,0.027-1.351,0.082c-6.028,0.751-10.307,6.247-9.556,12.275
				c1.088,8.74,4.582,21.461,15.047,32.429c10.839,11.359,26.206,17.56,41.415,17.56c6.88,0,13.729-1.27,20.108-3.905
				c34.566-14.272,34.381-59.211,33.993-68.073c-1.741-39.823-32.856-62.85-39.076-67.062
				c-16.809-11.382-34.492-14.886-49.906-14.886c-23.873,0-42.293,8.412-43.536,8.993c-21.385,10.006-48.902,33.15-58.553,86.592
				c-10.625,58.84,22.286,105.001,33.1,120.169c2.672,3.749,61.15,84.319,144.716,84.315c7.936,0,16.107-0.728,24.469-2.316
				c27.621-5.248,67.872-22.188,102.766-73.088c15.427-22.502,25.539-47.918,30.054-75.543l0.061-0.416
				c2.459-17.447,5.246-37.224,4.416-55.353l-0.006-0.119c-0.057-1.007-1.518-25.045-12.118-60.376
				c-9.754-32.507-29.559-81.801-68.52-132.035c-6.438-8.3-13.784-16.531-21.833-24.466c-20.449-20.155-44.836-38.217-74.555-55.218
				c-31.927-18.265-65.93-31.762-98.812-44.813c-1.082-0.43-2.17-0.861-3.261-1.296l32.625-15.196
				c42.522-19.808,79.462-47.44,109.797-82.133c60.125-68.774,71.446-151.617,81.434-224.707l0.858-6.272
				c2.46-17.979,3.85-63.479,6.153-138.876c3.476-113.529,5.22-170.514,4.187-219.358l-0.002-0.132
				c-2.729-129.507-4.099-194.512-24.191-248.572c-28.695-77.204-88.248-147.105-172.218-202.146
				C217.121,413.686,215.029,413.103,212.96,413.103L212.96,413.103z M58.987,1565.892c-24.039,0-36.504-8.664-36.989-11.308
				c0.431-2.75,13.077-11.936,37.866-12.218c0.829-0.009,1.655-0.014,2.481-0.014c15.214,0,29.993,1.586,43.963,4.72
				c6.691,1.501,13.063,3.504,19.486,5.913c-16.076,5.997-39.586,12.604-65.663,12.9
				C59.746,1565.891,59.367,1565.892,58.987,1565.892L58.987,1565.892z"/>
		</g>
	</g>
	<g>
		<g>
			<path style="fill:#480000;" d="M670.854,1266.674c-2.464-0.007-4.478-2.031-4.471-4.512c0.125-47.345,11.68-84.572,34.343-110.65
				c16.878-19.424,36.415-31.109,58.065-34.733c5.923-0.992,11.776-1.494,17.395-1.494c21.503,0,39.857,7.241,53.079,20.942
				c22.82,23.645,19.798,54.429,18.329,63.301c-1.706,10.292-5.257,31.704-25.339,43.448c-7.573,4.429-16.357,6.77-25.401,6.771
				c-10.443,0-20.687-3.197-28.846-9.004c-13.41-9.542-24.753-27.203-19.868-45.147c2.034-7.469,6.77-14.219,13.697-19.519
				c1.002-0.767,2.036-0.928,2.727-0.928c1.417,0,2.722,0.645,3.581,1.767c1.508,1.972,1.131,4.802-0.839,6.31
				c-3.728,2.852-8.573,7.723-10.482,14.735c-4.29,15.756,8.854,30.078,16.402,35.45c6.627,4.715,15.021,7.312,23.638,7.312
				c7.469,0,14.678-1.907,20.848-5.515c16.442-9.615,19.522-28.212,21.004-37.149c0.923-5.569,4.493-34.425-15.925-55.581
				c-11.46-11.875-27.648-18.152-46.813-18.152c-5.147,0-10.43,0.447-15.701,1.33c-19.81,3.316-37.066,13.705-52.756,31.761
				c-21.205,24.4-32.017,59.65-32.137,104.771c-0.006,2.475-2.025,4.488-4.5,4.488H670.854z"/>
			<path style="fill:#480000;" d="M776.187,1108.784c-5.966,0-12.14,0.524-18.468,1.583c-23.178,3.88-44.004,16.288-61.898,36.881
				c-23.716,27.29-35.807,65.947-35.937,114.896c-0.016,6.075,4.896,11.013,10.971,11.029c0.01,0,0.02,0,0.03,0
				c6.062,0,10.983-4.905,11-10.971c0.115-43.515,10.391-77.336,30.543-100.524c14.66-16.87,30.663-26.557,48.924-29.613
				c4.014-0.672,9.057-1.241,14.627-1.241c13.333,0,29.681,3.26,42.136,16.166c18.257,18.917,15.023,44.973,14.189,50.005
				c-1.42,8.571-4.064,24.526-17.872,32.601c-5.293,3.096-11.439,4.626-17.566,4.626c-7.098,0-14.172-2.054-19.869-6.108
				c-7.288-5.187-17.004-17.043-13.899-28.447c1.432-5.259,5.228-9.037,8.16-11.28c4.825-3.691,5.744-10.595,2.052-15.42
				c-2.165-2.831-5.436-4.318-8.744-4.318c-2.331,0-4.681,0.738-6.676,2.265c-8.069,6.173-13.608,14.117-16.02,22.974
				c-5.708,20.966,7.123,41.3,22.371,52.15c9.524,6.778,21.048,10.208,32.615,10.208c9.944,0,19.921-2.536,28.682-7.659
				c22.717-13.285,26.749-37.608,28.471-47.997c1.595-9.628,4.862-43.05-20.064-68.877
				C819.415,1116.658,799.329,1108.784,776.187,1108.784L776.187,1108.784z"/>
		</g>
	</g>
	<g>
		<g>
			<path style="fill:#480000;" d="M849.52,160.282c20.098,17.444,41.467,33.436,63.762,47.706
				c38.431,24.599,96.508,61.772,180.231,72.601c15.03,1.946,30.417,2.933,45.735,2.933c73.236,0,128.649-22.101,152.342-31.55
				c37.767-15.076,73.005-35.448,105.482-60.937c-12.72,18.034-26.459,36.13-41.154,53.692
				c-65.225,77.95-132.404,125.421-199.67,141.093c-56.011,13.051-121.434,14.065-140.151,14.065c-3.188,0-4.973-0.03-4.989-0.03
				c-69.878-1.223-121.596-13.917-198.467-34.679c-0.919-0.248-93.302-25.171-210.152-53.823l-19.811-4.858v20.397v1179.1v3.923
				c-2.052,107.042-3.05,164.934-3.05,176.987v19.03v16.84c0,0.663-0.401,67.215-35.068,149.626
				c-8.606,20.458-18.777,40.558-30.441,60.188c3.123-21.632,4.236-43.312,3.262-64.613c-0.142-3.11-1.741-31.59-14.096-73.251
				c-16.175-54.541-42.638-105.74-78.654-152.177c-28.096-36.224-66.922-68.398-115.628-95.861
				c20.883-15.823,40.126-33.76,57.42-53.541c71.584-81.869,84.699-177.885,95.235-255.02l0.862-6.263
				c2.752-20.122,4.031-58.982,6.66-144.958c3.502-114.323,5.261-171.77,4.197-222.234l0-0.114l-0.003-0.168
				c-2.868-136.021-4.308-204.296-27.809-267.538c-13.431-36.139-32.533-70.933-56.774-103.415
				c-8.701-11.66-18.14-23.118-28.208-34.246c26.675-9.483,51.773-22.318,74.872-38.31c39.281-27.194,71.669-62.673,96.263-105.451
				l10.707-18.622l-20.908-4.926c-71.23-16.783-135.026-30.806-189.616-41.678c-8.158-1.624-25.133-5.002-46.731-5.002
				c-13.807,0-27.57,1.386-40.907,4.121c-86.128,17.664-134.251,86.446-143.014,100.041c-3.161,4.892-6.127,9.892-8.896,14.993
				c0.86-6.715,2.266-13.301,4.217-19.74c10.585-34.931,34.843-55.59,58.304-75.571c85.49-72.841,186.912-86.322,230.217-92.078
				c13.106-1.739,43.799-5.81,83.89-5.81c33.355,0,66.084,2.829,97.277,8.409c14.819,2.652,29.857,4.794,44.4,6.865
				c27.458,3.911,53.393,7.605,78.894,14.508c1.757,0.476,3.519,0.962,5.291,1.45c15.818,4.357,33.746,9.296,54.656,9.296
				c8.263,0,16.634-0.785,24.87-2.331c13.826-2.588,42.597-7.974,64.316-33.317C842.852,171.171,846.468,165.911,849.52,160.282
				 M1492.198,62.732c-7.51,11.42-15.41,22.49-23.64,33.12c-50.75,65.55-112.28,113.07-182.9,141.26
				c-22.54,8.99-76.22,30.41-146.41,30.41c-13.95,0-28.54-0.84-43.68-2.8c-80.17-10.37-136.43-46.38-173.66-70.21
				c-28.17-18.03-54.59-38.71-78.93-61.75c-2.54,10.67-7.41,22.32-16.44,32.86c-17.68,20.63-41.38,25.43-55.11,28
				c-7.723,1.45-15.002,2.058-21.927,2.058c-20.917,0-38.627-5.545-55.763-10.188c-40.71-11.02-83.14-14.25-124.66-21.68
				c-36.564-6.54-70.779-8.659-100.095-8.659c-39.805,0-70.584,3.904-85.995,5.949c-49.13,6.53-151.17,21.36-238.49,95.76
				c-26.02,22.16-51.54,44.5-63.24,83.11c-10.46,34.52-5.5,67.66,3.09,93.72c4.43-22.66,13.25-49.2,30.34-75.65
				c5.55-8.61,50.68-76.21,132.79-93.05c13.655-2.799,26.372-3.794,37.693-3.794c19.413,0,34.72,2.926,43.607,4.694
				c60.6,12.07,126.3,26.77,189.07,41.56c-18.68,32.49-47.53,69.83-91.5,100.27c-34.42,23.83-68.37,36.69-95.13,43.85
				c16.49,16.41,31.43,33.58,44.75,51.43c23.33,31.26,41.7,64.71,54.6,99.42c22.56,60.71,23.98,128.09,26.81,262.32v0.1
				c1.06,49.96-0.69,107.31-4.19,221.57c-2.61,85.36-3.87,123.91-6.52,143.28l-0.86,6.25c-10.25,75.04-23.01,168.42-91.43,246.67
				c-22.25,25.45-47.64,47.53-75.84,65.98c57.65,28.96,102.41,63.74,133.45,103.76c83.54,107.71,89.21,211.96,89.41,216.35
				c2.23,48.81-6.86,98.94-26.42,146.31c27.72-33.01,60.19-79.03,84.33-136.41c34.73-82.56,36.32-150.88,36.32-155.83
				c0-6.08,0-16.84,0-16.84c0-0.32,0-18.84,0-19.03c0-8.64,0.53-45.41,3.05-176.84v-4.07v-1179.1
				c118.02,28.94,209.79,53.73,209.79,53.73c80.42,21.72,132.1,34,202.36,35.23c0,0,1.866,0.033,5.268,0.033
				c19.01,0,86.01-1.021,143.782-14.482C1322.248,363.572,1442.228,161.702,1492.198,62.732L1492.198,62.732z"/>
		</g>
	</g>
	<g>
		<g>
			<path style="fill:#480000;" d="M987.845,959.773c17.948,11.358,33.679,25.363,46.924,41.798
				c8.243,10.23,33.326,41.361,38.524,82.823c1.739,13.868,1.071,27.947-1.984,42.108c-4.719-6.44-9.804-12.551-15.237-18.303
				c-12.963-13.73-34.658-36.71-70.743-43.861c-6.084-1.206-12.33-1.906-18.553-2.079l-1.4-0.04l-0.229-0.007h-0.229h-32.33h-245.7
				v-29.52h184.671c1.998,0.055,4.332,0.111,6.946,0.111c26.812,0,49.068-6.342,68.036-19.385
				C964.995,1000.735,979.242,982.104,987.845,959.773 M978.258,935.962c-5.73,26.88-19.9,49.92-40.78,64.27
				c-21.441,14.744-44.675,16.571-58.973,16.571c-2.547,0-4.808-0.058-6.727-0.111h-200.89v61.52h261.7h32.33l1.4,0.04
				c5.02,0.14,10.35,0.68,15.9,1.78c30.43,6.03,49.05,25.2,62.22,39.15c13.6,14.4,23.6,29.91,30.96,44.99
				c11.03-24.05,17.54-51.71,13.77-81.77c-5.65-45.07-32.36-78.98-41.94-90.87C1024.557,963.402,998.537,946.222,978.258,935.962
				L978.258,935.962z"/>
		</g>
	</g>
</g>
</svg>
