<?xml version="1.0" encoding="iso-8859-1"?>
<!-- Generator: Adobe Illustrator 24.0.1, SVG Export Plug-In . SVG Version: 6.00 Build 0)  -->
<svg version="1.1" xmlns="http://www.w3.org/2000/svg" xmlns:xlink="http://www.w3.org/1999/xlink" x="0px" y="0px"
	 viewBox="0 0 1711.25 2180.773" style="enable-background:new 0 0 1711.25 2180.773;" xml:space="preserve">
<g id="Layer_4">
	<linearGradient id="SVGID_1_" gradientUnits="userSpaceOnUse" x1="865.6091" y1="1414.6866" x2="865.6091" y2="136.3445">
		<stop  offset="0" style="stop-color:#8B1D1A"/>
		<stop  offset="0.25" style="stop-color:#550000"/>
		<stop  offset="0.5" style="stop-color:#3A0000"/>
		<stop  offset="0.75" style="stop-color:#1E0000"/>
		<stop  offset="1" style="stop-color:#000000"/>
	</linearGradient>
	<path style="fill:url(#SVGID_1_);" d="M1136.009,214.568c51.24-1.69,106.33,2.22,164.78,5.27c74.89,3.92,144.01,11.89,206.52,21.96
		c-17.81,21.11-34.13,46.26-46.24,75.91c-20.82,50.99-22.6,99.19-23.92,135.16c-1.36,36.83,1.36,69.8,5.6,97.68
		c-28.83-18.89-57.12-38.77-84.98-59.84c-16.56-12.53-32.7-26.28-43.76-43.87c-9.65-15.35-13.91-32.4-12.33-50.42
		c1.32-14.94,5.36-28.03-2.26-42.42c-7.65-14.45-21.64-24.29-35.58-32.09c-57.68-32.3-120.13-43.45-185.53-43.67
		c-22.64-0.08-41.68-0.14-59.29,0.7c-24.57,1.18-46.33,4.12-71.09,11.26c-56.14,16.18-93.38,44.03-117.22,62.2
		c-12.41,9.45-62.07,48.38-116.03,132.77c-47.84,74.83-71.55,142.37-86.12,188.99c-51.53,164.79-67.53,319.32-72.97,421.04
		c-11.63,217.84,15.17,381.6,28.71,452.14c23.41,121.98,52.85,203.3,83.73,269.13c24.83,52.94,40.5,86.34,71.77,125.6
		c35.699,44.821,79.546,83.817,128.629,113.404c82.007,49.433,174.329,68.507,268.523,51.228
		c14.799-2.715,29.487-4.021,44.069-7.722c52.658-13.363,107.376-32.853,152.649-63.419c10.491-7.077,21.502-13.809,30.287-20.677
		c2.511-1.963,4.84-3.937,6.923-5.933c-7.35-10.82-15.53-23.69-23.9-38.4c-17.73-31.17-43-82.42-63.68-168.29
		c-25.55-106.12-25.52-187.98-25.47-321.11c0.03-62.23,4.48-106.6,7.28-123.72c0.25-1.54,2-12.08,3.64-26.38
		c1.77-15.44,2.9-25.25,2.73-37.29c-0.32-22.359-0.49-34.51-9.1-43.67c-16.459-17.511-47.403-11.66-68.696-11.557
		c-16.173,0.078-32.348,0-48.521,0c-42.037,0-84.074,0-126.111,0l-0.032-61.414h540.96c-56.84,120.44-99.32,241.47-126.45,360.34
		c-17.47,76.59-34.97,177.09-15.12,275.22c15.27,75.54,52.62,145.97,105.29,201.97c-28.42,5.06-55.13,9.68-71.22,17.91
		c-30.859,15.784-52.996,42.162-82.017,61.121c-31.213,20.39-63.745,36.045-98.446,49.861
		c-47.562,18.938-98.437,29.499-149.428,34.039c-94.921,8.451-190.321,0.566-281.025-28.823
		c-75.903-24.593-147.57-62.038-210.614-110.998c-109.16-84.78-164.12-181.19-193.77-234.44c-25.65-46.06-72.25-129.74-88.52-230.86
		c-8.64-53.73-14.53-87.25-26.31-154.3c-7.69-43.75-9.55-53.21-14.36-68.18c-10.03-31.24-28.22-85.56-78.94-126.79
		c-11.66-9.48-30.66-22.83-57.81-33.41c58-27.63,104.2-74.87,127.28-132.8c16.71-41.94,23.41-85.92,29.89-128.45l0.74-4.88
		c14.05-92.08,30.82-189.54,67.19-279.96c53.08-131.98,148.55-246.49,268.82-322.46c105.38-66.56,229.29-104.43,353.86-106.61
		c1.06-0.02,2.11-0.04,3.166-0.048C1022.185,214.57,1136.01,214.57,1136.009,214.568z"/>
</g>
<g id="Layer_7">
	<g>
		<path style="fill:#BFCBC2;" d="M414.533,1411.24c-118.102-137.307,35.578-237.548,32.933-276.557
			c14.928-68.241-84.732-73.216-62.112-8.83c-42.997-55.102,63.445-101.568,89.658-17.323
			C498.307,1215.767,333.173,1248.27,414.533,1411.24z"/>
	</g>
	<g>
		<path style="fill:#BFCBC2;" d="M549.447,1186.407c-83.294,70.021-115.987,187.027-69.112,294.511
			C403.692,1387.546,432.761,1239.385,549.447,1186.407z"/>
	</g>
	<g>
		<path style="fill:#BFCBC2;" d="M263.409,1144.885c86.874-27.776,172.033,76.532,109.307,159.524
			C382.443,1236.227,341.639,1163.36,263.409,1144.885z"/>
	</g>
	<g>
		<path style="fill:#BFCBC2;" d="M459.748,719.401c64.625,122.056,14.726,227.776-68.023,309.708
			c-33.529,35.906-49.801,99.374-6.284,130.396c-88.224-41.788-26.407-149.265,20.868-198.116
			C462.136,892.574,479.737,803.169,459.748,719.401z"/>
	</g>
	<g>
		<path style="fill:#BFCBC2;" d="M517.515,983.105c-90.771-44.656-74.429,105.839-4.57,43.685
			c-12.024,33.799-64.769,28.836-71.232-6.967C431.375,972.922,487.888,948.424,517.515,983.105z"/>
	</g>
	<g>
		<path style="fill:#BFCBC2;" d="M349.504,976.624c4.844-49.327,133.144-136.209,38.66-166.356
			c48.647-24.88,108.657,69.113-2.646,136.911C371.728,956.769,359.927,965.365,349.504,976.624z"/>
	</g>
	<g>
		<path style="fill:#BFCBC2;" d="M569.437,642.052c-46.853-42.604-119.753-13.802-132.149,50.857
			c-13.641,53.198,19.329,75.976,4.438,124.18c1.71-13.431-3.045-29.294-9.711-44.131
			C364.03,636.277,513.827,557.891,569.437,642.052z"/>
	</g>
	<g>
		<path style="fill:#BFCBC2;" d="M506.856,861.027c-12.138-55.607,41.466-107.589,44.095-160.766
			c-4.394-76.059-81.11-48.911-58.639,18.631c-65.281-130.339,177.364-107.71,39.246,79.807
			C518.821,819.358,509.233,835.996,506.856,861.027z"/>
	</g>
	<g>
		<path style="fill:#BFCBC2;" d="M545.672,816.393c24.729,47.713-7.76,110.98-58.418,120.043
			C518.897,907.687,542.408,860.507,545.672,816.393z"/>
	</g>
	<g>
		<path style="fill:#BFCBC2;" d="M696.007,446.851c-6.894-19.24-32.224-34.141-54.602-27.419
			c-43.583,17.955-33.142,76.072-47.515,114.601c-23.878,69.325-90.336,55.144-94.018,19.76
			c7.759,20.871,41.601,25.476,56.997,6.743C585.598,528.73,573.164,483.83,590.6,445.6
			C618.636,379.802,690.128,399.741,696.007,446.851z"/>
	</g>
	<g>
		<path style="fill:#BFCBC2;" d="M719.188,421.943c8.679-31.664-15.825-69.171-58.541-61.437
			C694.579,328.587,758.077,376.476,719.188,421.943z"/>
	</g>
	<g>
		<path style="fill:#BFCBC2;" d="M1360.518,377.071c16.528-24.857,56.422-48.629,18.094-79.383
			c-34.974-23.081-57.637,32.039-68.275,35.454c-11.988-53.241,49.414-98.4,95.55-58.525
			C1449.046,311.136,1418.839,381.834,1360.518,377.071z"/>
	</g>
	<g>
		<path style="fill:#BFCBC2;" d="M1441.581,369.523c-58.633-48.577-61.672,59.453-88.225,86.745
			C1328.067,349.828,1431.438,300.292,1441.581,369.523z"/>
	</g>
	<g>
		<path style="fill:#BFCBC2;" d="M1350.154,246.603c21.68,44.434-98.51,80.852-105.221,28.595
			C1280.069,288.733,1326.165,276.796,1350.154,246.603z"/>
	</g>
	<g>
		<path style="fill:#BFCBC2;" d="M1407.698,1407.653c113.675-133.206-121.682-174.49-60.634-10.744
			c-66.146-51.036-19.619-144.834,54.932-133.541C1483.334,1282.174,1480.232,1386.856,1407.698,1407.653z"/>
	</g>
	<g>
		<path style="fill:#BFCBC2;" d="M1447.768,1218.254c32.616-18.681,46.746,60.021-5.859,74.98
			c-62.721,19.986-94.83-55.26-62.036-66.194C1392.531,1290.805,1475.465,1265.996,1447.768,1218.254z"/>
	</g>
	<g>
		<path style="fill:#BFCBC2;" d="M1339.272,1214.718c46.444,12.806-21.136,93.061-42.213,47.594
			C1325.823,1268.847,1348.634,1240.751,1339.272,1214.718z"/>
	</g>
	<g>
		<path style="fill:#BFCBC2;" d="M1348.355,1511.42c-22.367,14.885-29.571-25.853-23.186-42.811
			c19.622-55.019,9.473-74.328-47.989-51.296c24.665-68.901,125.692-28.002,72.977,62.682
			C1347.124,1489.405,1341.41,1500.67,1348.355,1511.42z"/>
	</g>
	<g>
		<path style="fill:#BFCBC2;" d="M1401.272,1509.923c-32.027-4.048-42.301-90.729-37.678-114.029
			c6.759-104.104,101.684-131.736,26.496-176.803c28.797-6.785,52.658,25.097,46.367,53.579
			c-3.465,20.633-19.612,40.836-27.991,59.448C1381.714,1388.951,1379.838,1452.995,1401.272,1509.923z"/>
	</g>
	<path style="fill:#BFCBC2;" d="M671.855,469.599c-1.864-30.948-44.068-28.019-44.738,0
		C628.982,500.547,671.185,497.619,671.855,469.599z"/>
	<path style="fill:#BFCBC2;" d="M1370.884,324.201c-1.061-18.995-27.346-17.57-27.961,0.001
		C1343.984,343.197,1370.269,341.771,1370.884,324.201z"/>
	<path style="fill:#BFCBC2;" d="M395.04,1115.502c1.771-27.23,38.553-24.319,39.145,0
		C432.414,1142.732,395.632,1139.821,395.04,1115.502z"/>
	<path style="fill:#BFCBC2;" d="M473.331,1006.454c0.738-14.826,21.664-14.264,22.369,0.001
		C494.962,1021.28,474.036,1020.718,473.331,1006.454z"/>
	<path style="fill:#BFCBC2;" d="M509.68,690.492c0.738-14.826,21.664-14.264,22.369,0.001
		C531.311,705.319,510.386,704.756,509.68,690.492z"/>
</g>
<g id="Layer_5">
	<g>
		<g>
			<path style="fill:#FFB400;" d="M1162.003,249.159c34.248,0,70.383,1.991,108.639,4.098c9.231,0.508,18.776,1.034,28.317,1.532
				c49.102,2.57,98.451,7.088,147.324,13.476c-6.672,11.728-12.556,23.818-17.618,36.211
				c-23.178,56.766-25.094,108.981-26.493,147.099c-0.347,9.391-0.452,18.812-0.317,28.241c-7.746-5.625-15.408-11.303-22.968-17.02
				c-13.375-10.12-26.902-21.315-35.247-34.587c-5.678-9.031-7.998-18.43-7.097-28.712c0.204-2.306,0.521-4.783,0.856-7.406
				c1.79-13.99,4.241-33.151-7.048-54.47c-12.544-23.694-34.214-37.748-49.412-46.252c-37.399-20.943-78.568-34.923-124.564-42.192
				c1.859-0.012,3.735-0.019,5.625-0.019H1162.003 M939.76,256.131c-0.507,0.144-1.015,0.289-1.524,0.436
				c-63.569,18.321-105.967,50.634-128.731,67.985c-24.507,18.662-73.245,61.894-124.315,141.763
				c-49.149,76.878-73.935,145.878-90.036,197.397c-41.254,131.93-66.325,276.473-74.515,429.62
				c-8.417,157.659,1.711,316.933,29.288,460.603c20.647,107.585,48.106,195.73,86.415,277.396
				c25.433,54.227,42.236,90.051,76.08,132.543c38.513,48.354,86.211,90.393,137.937,121.574
				c54.182,32.66,111.3,52.641,170.345,59.655c-58.971-2.57-115.477-12.51-168.354-29.642
				c-73.194-23.715-140.462-59.159-199.933-105.344c-44.888-34.863-85.327-76.055-120.194-122.433
				c-30.885-41.082-51.906-78.834-64.467-101.393c-12.667-22.746-30.015-53.899-46.197-91.569
				c-18.862-43.907-31.763-86.913-38.345-127.819c-8.671-53.921-14.581-87.561-26.355-154.579l-0.039-0.223
				c-7.968-45.334-10.009-55.709-15.507-72.82c-9.862-30.717-30.384-94.636-90.185-143.248c-3.37-2.74-6.818-5.391-10.341-7.951
				c40.51-31.074,71.713-71.63,90.246-118.147c18.191-45.658,25.198-91.647,31.98-136.157l0.735-4.848
				c13.736-90.025,30.075-185.197,65.063-272.18C479.165,531.546,569.74,422.898,683.85,350.819
				c49.981-31.569,104.208-56.311,161.174-73.538C876.269,267.833,907.936,260.769,939.76,256.131 M1505.584,1212.118
				c-46.613,106.196-82.269,212.794-106.179,317.556c-18.248,80.001-36.478,185.255-15.302,289.938
				c12.553,62.099,38.489,120.896,75.909,172.753c-8.601,2.536-16.51,5.471-23.471,9.032c-7.236,3.701-13.942,7.776-20.275,12.078
				l-16.435-24.194c-7.861-11.572-15.408-23.698-22.429-36.038c-16.186-28.455-40.023-75.914-60.075-159.178
				c-24.577-102.078-24.547-181.433-24.498-312.9c0.029-60.473,4.301-102.681,6.828-118.129l0.034-0.21
				c1.395-8.549,2.755-18.419,3.83-27.792l0.018-0.161c1.821-15.886,3.137-27.364,2.935-41.647
				c-0.369-25.788-0.688-48.059-18.593-67.109c-5.72-6.085-12.019-10.623-18.531-14H1505.584 M1161.996,214.16
				c-8.766,0-17.433,0.126-25.987,0.408c0.001,0.002-113.823,0.002-113.823,0.002c-1.056,0.008-2.106,0.028-3.167,0.048
				c-124.57,2.18-248.48,40.05-353.86,106.61c-120.27,75.97-215.74,190.48-268.82,322.46c-36.37,90.42-53.14,187.88-67.19,279.96
				l-0.74,4.88c-6.48,42.53-13.18,86.51-29.89,128.45c-23.08,57.93-69.28,105.17-127.28,132.8c27.15,10.58,46.15,23.93,57.81,33.41
				c50.72,41.23,68.91,95.55,78.94,126.79c4.81,14.97,6.67,24.43,14.36,68.18c11.78,67.05,17.67,100.57,26.31,154.3
				c16.27,101.12,62.87,184.8,88.52,230.86c29.65,53.25,84.61,149.66,193.77,234.44c63.043,48.96,134.71,86.404,210.614,110.998
				c68.133,22.076,138.908,32.018,210.147,32.018c23.6,0,47.257-1.092,70.878-3.195c50.991-4.541,101.866-15.101,149.428-34.039
				c34.701-13.817,67.233-29.471,98.446-49.861c29.021-18.958,51.158-45.336,82.017-61.121c16.09-8.23,42.8-12.85,71.22-17.91
				c-52.67-56-90.02-126.43-105.29-201.97c-19.85-98.13-2.35-198.63,15.12-275.22c27.13-118.87,69.61-239.9,126.45-360.34h-540.96
				l0.032,61.414c42.037,0,84.074,0,126.111,0c10.782,0,21.565,0.035,32.348,0.035c5.391,0,10.783-0.009,16.174-0.035
				c8.596-0.042,18.764-1.02,28.917-1.02c14.998,0,29.964,2.135,39.779,12.576c8.61,9.16,8.78,21.31,9.1,43.67
				c0.17,12.04-0.96,21.85-2.73,37.29c-1.64,14.3-3.39,24.84-3.64,26.38c-2.8,17.12-7.25,61.49-7.28,123.72
				c-0.05,133.13-0.08,214.99,25.47,321.11c20.68,85.87,45.95,137.12,63.68,168.29c8.37,14.71,16.55,27.58,23.9,38.4
				c-2.083,1.996-4.412,3.97-6.923,5.933c-8.784,6.867-19.796,13.6-30.287,20.677c-45.273,30.566-99.99,50.056-152.649,63.419
				c-14.582,3.701-29.27,5.007-44.069,7.722c-22.847,4.191-45.571,6.243-68.077,6.243c-70.283,0-138.33-20.028-200.446-57.47
				c-49.083-29.587-92.93-68.583-128.629-113.404c-31.27-39.26-46.94-72.66-71.77-125.6c-30.88-65.83-60.32-147.15-83.73-269.13
				c-13.54-70.54-40.34-234.3-28.71-452.14c5.44-101.72,21.44-256.25,72.97-421.04c14.57-46.62,38.28-114.16,86.12-188.99
				c53.96-84.39,103.62-123.32,116.03-132.77c23.84-18.17,61.08-46.02,117.22-62.2c24.76-7.14,46.52-10.08,71.09-11.26
				c12.686-0.605,26.112-0.743,41.094-0.743c5.815,0,11.866,0.021,18.196,0.043c65.4,0.22,127.85,11.37,185.53,43.67
				c13.94,7.8,27.93,17.64,35.58,32.09c7.62,14.39,3.58,27.48,2.26,42.42c-1.58,18.02,2.68,35.07,12.33,50.42
				c11.06,17.59,27.2,31.34,43.76,43.87c27.86,21.07,56.15,40.95,84.98,59.84c-4.24-27.88-6.96-60.85-5.6-97.68
				c1.32-35.97,3.1-84.17,23.92-135.16c12.11-29.65,28.43-54.8,46.24-75.91c-62.51-10.07-131.63-18.04-206.52-21.96
				C1252.096,217.297,1205.742,214.159,1161.996,214.16L1161.996,214.16z"/>
		</g>
	</g>
</g>
<g id="Layer_6">
	<g>
		<g>
			<path style="fill:#480000;" d="M1019.021,64.8c-16.073,0-29.15-13.077-29.15-29.15s13.077-29.15,29.15-29.15
				s29.149,13.077,29.149,29.15S1035.094,64.8,1019.021,64.8z"/>
			<path style="fill:#480000;" d="M1019.02,13c12.489,0,22.65,10.161,22.65,22.65s-10.161,22.65-22.65,22.65
				c-12.489,0-22.65-10.161-22.65-22.65S1006.531,13,1019.02,13 M1019.02,0c-19.689,0-35.65,15.961-35.65,35.65
				s15.961,35.65,35.65,35.65c19.689,0,35.65-15.961,35.65-35.65S1038.709,0,1019.02,0L1019.02,0z"/>
		</g>
	</g>
	<g>
		<g>
			<path style="fill:#480000;" d="M1019.019,1950.747c-16.073,0-29.15-13.076-29.15-29.149s13.077-29.15,29.15-29.15
				c16.074,0,29.15,13.077,29.15,29.15S1035.093,1950.747,1019.019,1950.747z"/>
			<path style="fill:#480000;" d="M1019.019,1898.948c12.489,0,22.65,10.161,22.65,22.65s-10.161,22.65-22.65,22.65
				s-22.65-10.161-22.65-22.65S1006.53,1898.948,1019.019,1898.948 M1019.019,1885.948c-19.69,0-35.65,15.96-35.65,35.65
				c0,19.69,15.96,35.65,35.65,35.65c19.69,0,35.65-15.96,35.65-35.65C1054.669,1901.908,1038.709,1885.948,1019.019,1885.948
				L1019.019,1885.948z"/>
		</g>
	</g>
	<g>
		<g>
			<rect x="1014.519" y="42.148" style="fill:#480000;" width="9" height="1872.95"/>
			<polygon style="fill:#480000;" points="1030.019,35.648 1008.019,35.648 1008.019,1921.598 1030.019,1921.598 1030.019,35.648 
							"/>
		</g>
	</g>
	<g>
		<g>
			<path style="fill:#480000;" d="M1162,230.16c34.774,0,71.168,2.005,109.698,4.128c9.214,0.507,18.741,1.032,28.255,1.529
				c59.442,3.111,119.25,9.049,178.159,17.68c-12.875,18.347-23.548,37.823-31.856,58.164
				c-21.905,53.646-23.75,103.916-25.096,140.618c-0.804,21.786-0.264,43.733,1.607,65.583
				c-18.855-12.968-37.379-26.326-55.343-39.912c-14.814-11.209-29.897-23.768-39.868-39.627
				c-7.855-12.494-11.198-26.123-9.938-40.496c0.237-2.676,0.576-5.333,0.936-8.145c1.63-12.737,3.477-27.174-4.993-43.169
				c-10.079-19.039-27.69-30.612-41.903-38.564c-54.472-30.503-117.699-45.455-193.291-45.709
				c-6.353-0.022-12.424-0.043-18.259-0.043c-12.799,0-27.78,0.091-41.855,0.761c-28.259,1.358-50.615,4.907-74.753,11.868
				c-60.146,17.335-99.171,47.078-122.482,64.845c-23.506,17.9-70.33,59.485-119.817,136.881
				c-47.936,74.98-72.161,142.441-87.91,192.833c-40.783,130.42-65.571,273.397-73.676,424.962
				c-8.336,156.143,1.683,313.829,28.974,456.009c20.342,105.992,47.338,192.711,84.958,272.908
				c24.862,53.009,41.287,88.029,73.741,128.774c37.12,46.606,83.071,87.112,132.884,117.138
				c65.792,39.659,136.01,59.767,208.706,59.767c23.557,0,47.433-2.189,70.964-6.505c5.155-0.946,10.268-1.708,15.682-2.514
				c9.543-1.422,19.412-2.893,29.436-5.437c65.121-16.525,116.694-38.005,157.661-65.663c3.063-2.067,6.257-4.159,9.346-6.182
				c7.461-4.886,15.176-9.939,21.847-15.154c3.1-2.423,5.763-4.709,8.14-6.988l9.763-9.356l-7.599-11.186
				c-8.141-11.985-15.956-24.541-23.227-37.32c-16.756-29.457-41.416-78.519-62.032-164.125
				c-25.106-104.274-25.076-184.479-25.026-317.357c0.03-61.688,4.458-105.175,7.073-121.164l0.037-0.225
				c1.348-8.262,2.664-17.813,3.706-26.897l0.018-0.159c1.805-15.749,2.998-26.153,2.814-39.213
				c-0.351-24.502-0.583-40.689-13.439-54.368c-14.844-15.792-36.465-17.618-51.437-17.618c-5.823,0-11.419,0.287-16.83,0.565
				c-4.383,0.225-8.523,0.438-12.165,0.455c-4.836,0.023-10.101,0.035-16.096,0.035c-5.383,0-10.766-0.009-16.148-0.018
				c-5.4-0.009-10.8-0.018-16.199-0.018h-110.119l-0.015-29.413h499.883c-52.019,113.906-91.337,228.426-116.98,340.782
				c-17.825,78.145-35.661,180.813-15.203,281.949c13.892,68.721,44.923,133.24,90.292,188.181
				c-18.689,3.715-35.481,7.97-47.824,14.284c-19.412,9.929-35.297,23.384-50.66,36.395c-10.975,9.296-21.341,18.075-32.821,25.575
				c-27.604,18.033-57.987,33.409-95.615,48.392c-43.065,17.147-91.826,28.239-144.928,32.967
				c-23.339,2.078-46.709,3.132-69.459,3.132c-72.196,0-141.241-10.51-205.216-31.239
				c-75.295-24.396-144.513-60.872-205.731-108.413c-46.219-35.897-87.847-78.297-123.726-126.022
				c-29.219-38.865-49.326-73.837-65.879-103.566c-24.771-44.482-70.879-127.279-86.701-225.615
				c-8.649-53.787-14.551-87.383-26.311-154.314l-0.038-0.216c-7.78-44.261-9.752-54.327-14.884-70.301
				c-9.302-28.973-28.658-89.261-84.081-134.313c-10.133-8.239-21.044-15.613-32.631-22.064
				c48.912-30.408,86.307-74.195,106.871-125.81c17.386-43.637,24.227-88.533,30.846-131.973l0.738-4.865
				c13.905-91.128,30.471-187.533,66.218-276.403c51.831-128.875,145.063-240.71,262.52-314.903
				c51.427-32.482,107.218-57.938,165.821-75.66c59.004-17.843,119.488-27.425,179.797-28.48l0.111-0.002
				c0.948-0.018,1.886-0.036,2.831-0.043l56.834,0l39.127-0.001l12.895,0l3.614,0c0.449,0,1.065,0,1.802-0.045l0.001,0.035
				c8.04-0.265,16.605-0.399,25.461-0.399H1162 M1161.994,214.159c-8.766,0-17.431,0.126-25.985,0.408
				c0.001,0.002-113.824,0.002-113.824,0.002c-1.056,0.008-2.106,0.028-3.166,0.048c-124.57,2.18-248.48,40.05-353.86,106.61
				c-120.27,75.97-215.74,190.48-268.82,322.46c-36.37,90.42-53.14,187.88-67.19,279.96l-0.74,4.88
				c-6.48,42.53-13.18,86.51-29.89,128.45c-23.08,57.93-69.28,105.17-127.28,132.8c27.15,10.58,46.15,23.93,57.81,33.41
				c50.72,41.23,68.91,95.55,78.94,126.79c4.81,14.97,6.67,24.43,14.36,68.18c11.78,67.05,17.67,100.57,26.31,154.3
				c16.27,101.12,62.87,184.8,88.52,230.86c29.65,53.25,84.61,149.66,193.77,234.44c63.043,48.96,134.71,86.405,210.614,110.998
				c68.133,22.076,138.908,32.017,210.147,32.017c23.6,0,47.258-1.092,70.878-3.195c50.991-4.54,101.867-15.101,149.428-34.039
				c34.701-13.817,67.233-29.471,98.446-49.861c29.021-18.958,51.158-45.337,82.017-61.121c16.09-8.23,42.8-12.85,71.22-17.91
				c-52.67-56-90.02-126.43-105.29-201.97c-19.85-98.13-2.35-198.63,15.12-275.22c27.13-118.87,69.61-239.9,126.45-360.34h-540.96
				l0.032,61.413c42.037,0,84.074,0,126.111,0c10.782,0,21.565,0.035,32.348,0.035c5.391,0,10.783-0.009,16.174-0.035
				c8.596-0.042,18.764-1.02,28.917-1.02c14.999,0,29.964,2.135,39.779,12.576c8.61,9.16,8.78,21.31,9.1,43.67
				c0.17,12.04-0.96,21.85-2.73,37.29c-1.64,14.3-3.39,24.84-3.64,26.38c-2.8,17.12-7.25,61.49-7.28,123.72
				c-0.05,133.13-0.08,214.99,25.47,321.11c20.68,85.87,45.95,137.12,63.68,168.29c8.37,14.71,16.55,27.58,23.9,38.4
				c-2.083,1.996-4.412,3.97-6.923,5.934c-8.784,6.867-19.796,13.6-30.287,20.677c-45.273,30.566-99.991,50.056-152.649,63.419
				c-14.583,3.701-29.27,5.007-44.07,7.722c-22.847,4.191-45.571,6.243-68.077,6.243c-70.283,0-138.33-20.028-200.446-57.47
				c-49.083-29.587-92.93-68.583-128.629-113.404c-31.27-39.26-46.94-72.66-71.77-125.6c-30.88-65.83-60.32-147.15-83.73-269.13
				c-13.54-70.54-40.34-234.3-28.71-452.14c5.44-101.72,21.44-256.25,72.97-421.04c14.57-46.62,38.28-114.16,86.12-188.99
				c53.96-84.39,103.62-123.32,116.03-132.77c23.84-18.17,61.08-46.02,117.22-62.2c24.76-7.14,46.52-10.08,71.09-11.26
				c12.684-0.605,26.109-0.743,41.088-0.743c5.817,0,11.869,0.021,18.202,0.043c65.4,0.22,127.85,11.37,185.53,43.67
				c13.94,7.8,27.93,17.64,35.58,32.09c7.62,14.39,3.58,27.48,2.26,42.42c-1.58,18.02,2.68,35.07,12.33,50.42
				c11.06,17.59,27.2,31.34,43.76,43.87c27.86,21.07,56.15,40.95,84.98,59.84c-4.24-27.88-6.96-60.85-5.6-97.68
				c1.32-35.97,3.1-84.17,23.92-135.16c12.11-29.65,28.43-54.8,46.24-75.91c-62.51-10.07-131.63-18.04-206.52-21.96
				C1252.096,217.297,1205.74,214.159,1161.994,214.159L1161.994,214.159z"/>
		</g>
	</g>
	<g>
		<g>
			<path style="fill:#480000;" d="M131.461,1119.479c-13.64,0.001-27.542-1.8-41.321-5.352
				c-25.42-6.552-45.452-17.592-59.538-32.813c-20.148-21.771-28.521-53.775-21.852-83.521
				c6.449-28.767,26.461-54.188,53.534-68.003c13.814-7.049,29.044-10.775,44.043-10.775c12.054,0,23.399,2.339,33.719,6.951
				c25.828,11.543,43.264,38.032,42.401,64.417c-0.437,13.354-6.109,27.009-15.563,37.461
				c-9.826,10.864-22.581,17.317-35.913,18.171c-0.673,0.042-1.374,0.063-2.076,0.063c-16.312,0.002-36.13-11.597-45.119-26.404
				c-6.557-10.803-6.84-21.782-0.817-31.751c0.823-1.362,2.266-2.175,3.861-2.175c0.823,0,1.603,0.219,2.317,0.65
				c1.029,0.621,1.754,1.606,2.042,2.773c0.288,1.167,0.104,2.377-0.518,3.405c-5.28,8.736-2.475,17.018,0.808,22.427
				c8.277,13.635,25.872,22.075,37.427,22.075c0.509,0,1.005-0.016,1.493-0.046c22.561-1.444,42.278-22.941,43.063-46.943
				c0.747-22.827-14.5-45.817-37.078-55.907c-9.198-4.111-19.314-6.196-30.065-6.196c-13.537,0-27.345,3.396-39.934,9.82
				c-24.714,12.611-42.973,35.772-48.843,61.956c-6.031,26.9,1.509,55.808,19.677,75.44c12.892,13.933,31.457,24.097,55.178,30.21
				c12.737,3.283,25.703,4.948,38.539,4.948c30.098,0,57.422-9.104,76.94-25.638c41.63-35.264,50.673-96.896,58.652-151.273
				c0.705-4.802,1.389-9.465,2.084-14.029l0.739-4.895c14.589-95.574,32.079-196.965,70.865-293.417
				c57.789-143.667,161.717-268.335,292.641-351.036c57.12-36.075,119.431-64.258,185.201-83.766
				c65.553-19.442,133.146-29.855,200.9-30.949c2.517,0,4.532,1.986,4.572,4.427c0.02,1.202-0.43,2.339-1.267,3.203
				c-0.836,0.863-1.958,1.35-3.161,1.369c-135.619,2.188-267.519,41.376-381.439,113.325
				c-129.338,81.7-232.009,204.857-289.098,346.785c-38.426,95.557-55.807,196.355-70.316,291.41l-0.739,4.893
				c-0.689,4.524-1.367,9.141-2.055,13.831l-0.022,0.154c-7.804,53.186-17.516,119.375-61.739,156.835
				C192.452,1109.574,163.251,1119.478,131.461,1119.479L131.461,1119.479z"/>
			<path style="fill:#480000;" d="M1019.027,148.858c-0.062,0-0.123,0-0.185,0.001c-68.345,1.103-136.523,11.606-202.643,31.216
				C749.857,199.752,687,228.183,629.375,264.578c-132.069,83.424-236.906,209.181-295.201,354.106
				c-39.044,97.095-56.612,198.9-71.261,294.872l-0.738,4.886c-0.7,4.595-1.389,9.292-2.089,14.063
				c-7.812,53.239-16.665,113.581-56.422,147.258c-18.578,15.737-44.685,24.098-72.739,24.098c-12.092,0-24.552-1.555-36.917-4.742
				c-22.494-5.797-39.999-15.329-52.03-28.331c-16.738-18.087-23.675-44.758-18.105-69.604
				c5.452-24.317,22.444-45.846,45.455-57.588c11.853-6.049,24.639-9.11,36.979-9.11c9.629,0,18.989,1.865,27.413,5.631
				c20.23,9.041,33.896,29.502,33.234,49.759c-0.668,20.447-17.946,39.451-36.974,40.669c-0.354,0.022-0.715,0.033-1.085,0.033
				c-9.838,0-25.095-7.786-31.87-18.948c-5.153-8.489-1.878-13.911-0.801-15.692c3.142-5.199,1.473-11.962-3.726-15.104
				c-1.78-1.075-3.741-1.587-5.679-1.587c-3.725,0-7.358,1.893-9.425,5.314c-7.25,11.999-6.957,25.666,0.824,38.485
				c10.3,16.968,32.126,29.532,50.675,29.532c0.836,0,1.669-0.026,2.491-0.078c15.031-0.962,29.35-8.17,40.318-20.297
				c10.47-11.575,16.754-26.741,17.24-41.608c0.947-28.954-18.07-57.972-46.245-70.563c-11.245-5.026-23.667-7.517-36.372-7.517
				c-15.805,0-32.046,3.856-46.998,11.486C30.553,938.683,9.274,965.738,2.407,996.37c-7.13,31.801,1.846,66.041,23.424,89.358
				c14.946,16.151,36.036,27.824,62.686,34.692c14.471,3.73,28.916,5.558,42.933,5.558c0.003,0,0.008,0,0.011,0
				c33.032-0.001,63.656-10.146,86.422-29.43c46.098-39.048,56.007-106.585,63.969-160.851c0.694-4.731,1.377-9.388,2.074-13.958
				l0.737-4.882c14.452-94.678,31.756-195.055,69.921-289.965c56.584-140.671,158.345-262.738,286.539-343.715
				c112.911-71.312,243.647-110.153,378.073-112.322c6.075-0.098,10.919-5.101,10.821-11.176
				C1029.92,153.668,1025.022,148.858,1019.027,148.858L1019.027,148.858z"/>
		</g>
	</g>
	<g>
		<g>
			<path style="fill:#480000;" d="M1628.575,2008.694c-18.205,0.001-37.989-6.698-52.924-17.919
				c-8.745-6.573-22.197-20.01-33.473-33.435c-0.486-0.58-2.961-3.546-5.367-6.598c-10.783-13.688-53.919-78.975-67.933-148.272
				c-17.9-88.51-1.459-181.996,14.863-253.554c29.248-128.209,77.018-259.188,141.981-389.299l16.971-34h-623.526l-0.207,0.014
				c-4.134,0.265-8.301,0.398-12.385,0.398c-53.718,0.003-99.278-22.451-121.875-60.064c-19.16-31.883-15.915-65.955-14.693-78.782
				l0.08-0.843c2.295-24.112,10.839-48.743,24.059-69.357c14.985-23.366,35.632-41.274,59.71-51.79
				c17.514-7.647,37.482-11.689,57.744-11.689c2.533,0,5.104,0.063,7.639,0.188c43.802,2.139,81.997,22.257,99.683,52.503
				c4.88,8.34,19.933,38.284,8.797,73.527c-7.343,23.229-24.077,42.036-48.393,54.387c-13.882,7.041-29.154,10.611-45.389,10.612
				c-5.126,0-10.356-0.37-15.545-1.1c-1.191-0.167-2.245-0.788-2.968-1.748c-0.723-0.96-1.029-2.144-0.862-3.334
				c0.311-2.21,2.218-3.876,4.438-3.876c0.212,0,0.428,0.016,0.642,0.046c4.914,0.69,9.814,1.04,14.568,1.04
				c14.588,0,28.397-3.253,41.042-9.667c22.112-11.229,37.287-28.198,43.885-49.073c7.96-25.194,1.095-50.752-7.984-66.271
				c-16.168-27.65-51.557-46.065-92.355-48.058c-2.396-0.118-4.826-0.178-7.22-0.178c-19.017,0-37.731,3.782-54.12,10.938
				c-52.05,22.73-74.77,75.479-78.411,113.743l-0.081,0.85c-1.253,13.152-4.188,43.951,13.448,73.296
				c20.953,34.878,63.608,55.701,114.102,55.701c3.989,0,8.056-0.134,12.092-0.397l0.515-0.017h638.12l-23.469,47.021
				c-64.645,129.467-112.171,259.768-141.259,387.28c-16.122,70.678-32.377,162.94-14.817,249.767
				c13.526,66.888,56.314,131.963,66.182,144.487c2.397,3.043,4.901,6.036,5.179,6.368c10.721,12.764,23.874,25.934,31.998,32.039
				c3.599,2.705,22.794,16.199,47.282,16.199c7.242,0,14.317-1.205,21.031-3.582c27.138-9.609,38.49-35.262,40.49-40.307
				c2.671-6.739,14.915-41.6-6.282-66.23c-10.138-11.778-25.18-18.811-40.239-18.811c-2.454,0-4.903,0.19-7.278,0.567
				c-7.588,1.207-25.841,5.652-31.479,20.826c-2.8,7.534-1.509,14.989,0.066,19.917c0.367,1.146,0.266,2.364-0.285,3.433
				c-0.55,1.068-1.483,1.857-2.629,2.224c-0.45,0.145-0.913,0.218-1.375,0.218c-1.962,0-3.683-1.259-4.281-3.132
				c-2.01-6.279-3.629-15.851,0.067-25.794c7.291-19.623,29.354-25.124,38.5-26.579c2.774-0.441,5.641-0.665,8.52-0.665
				c17.761,0,35.419,8.196,47.235,21.926c24.574,28.555,10.831,67.834,7.827,75.418c-3.164,7.977-15.822,34.839-45.854,45.474
				C1644.856,2007.343,1636.848,2008.694,1628.575,2008.694L1628.575,2008.694z"/>
			<path style="fill:#480000;" d="M1011.603,847.005c-21.192,0-41.908,4.182-60.346,12.232c-25.26,11.031-46.9,29.786-62.581,54.237
				c-13.769,21.469-22.667,47.125-25.058,72.25l-0.08,0.84c-1.277,13.41-4.672,49.03,15.592,82.749
				c23.819,39.648,71.883,63.217,127.436,63.217c0.003,0,0.007,0,0.01,0c4.223,0,8.498-0.137,12.8-0.412h612.809l-12.277,24.597
				c-65.194,130.571-113.14,262.04-142.503,390.757c-16.468,72.192-33.043,166.564-14.897,256.287
				c14.27,70.563,58.212,137.061,69.199,151.008c2.679,3.398,5.379,6.617,5.494,6.755c11.563,13.767,25.445,27.61,34.546,34.45
				c13.371,10.047,34.275,19.224,56.828,19.223c8.526,0,17.292-1.313,25.971-4.386c32.614-11.55,46.306-40.581,49.727-49.207
				c3.246-8.194,18.072-50.659-8.943-82.052c-13.122-15.246-32.817-24.186-52.162-24.185c-3.199,0-6.392,0.245-9.54,0.746
				c-10.274,1.634-35.088,7.899-43.572,30.733c-4.343,11.684-2.487,22.784-0.166,30.039c1.494,4.672,5.818,7.651,10.473,7.651
				c1.11,0,2.24-0.17,3.355-0.526c5.786-1.851,8.977-8.042,7.125-13.828c-1.264-3.951-2.318-9.878-0.165-15.673
				c4.444-11.962,19.946-15.643,26.405-16.67c2.065-0.328,4.156-0.488,6.259-0.488c13,0.001,26.337,6.123,35.312,16.551
				c18.756,21.794,7.594,53.47,5.167,59.595c-1.818,4.586-12.132,27.904-36.618,36.575c-6.47,2.291-12.825,3.209-18.861,3.209
				c-22.735,0-40.91-13.042-43.377-14.896c-7.773-5.842-20.487-18.595-30.915-31.011c-0.025-0.03-2.602-3.102-5.062-6.223
				c-9.676-12.282-51.642-76.112-64.916-141.753c-17.313-85.611-1.194-176.989,14.783-247.033
				c28.974-127.009,76.324-256.817,140.737-385.823l28.162-56.423h-648.734l-0.724,0.023c-3.966,0.262-7.894,0.391-11.777,0.391
				c-47.8,0-88.72-19.575-108.531-52.55c-16.534-27.511-13.741-56.816-12.549-69.331l0.081-0.851
				c3.474-36.507,25.081-86.802,74.541-108.401c15.667-6.84,33.345-10.395,51.518-10.395c2.293,0,4.597,0.057,6.903,0.171
				c38.63,1.887,71.989,19.071,87.062,44.848c8.375,14.315,14.716,37.865,7.396,61.03c-6.061,19.172-20.111,34.815-40.628,45.235
				c-11.762,5.966-24.53,8.964-38.102,8.964c-4.468,0-9.026-0.325-13.661-0.976c-0.521-0.073-1.038-0.109-1.549-0.109
				c-5.395,0-10.102,3.975-10.875,9.47c-0.846,6.016,3.345,11.578,9.361,12.424c5.526,0.777,11.019,1.163,16.45,1.163
				c17.102,0,33.567-3.828,48.332-11.317c25.907-13.158,43.767-33.292,51.647-58.224c11.942-37.793-4.164-69.846-9.383-78.767
				c-18.782-32.121-59.007-53.469-104.974-55.714C1016.903,847.07,1014.249,847.005,1011.603,847.005L1011.603,847.005z"/>
		</g>
	</g>
</g>
</svg>
