<?xml version="1.0" encoding="iso-8859-1"?>
<!-- Generator: Adobe Illustrator 24.0.1, SVG Export Plug-In . SVG Version: 6.00 Build 0)  -->
<svg version="1.1" xmlns="http://www.w3.org/2000/svg" xmlns:xlink="http://www.w3.org/1999/xlink" x="0px" y="0px"
	 viewBox="0 0 1700.616 2139.207" style="enable-background:new 0 0 1700.616 2139.207;" xml:space="preserve">
<g id="Layer_5">
	<linearGradient id="SVGID_1_" gradientUnits="userSpaceOnUse" x1="462.6634" y1="1439.8734" x2="462.6634" y2="411.5552">
		<stop  offset="0" style="stop-color:#8B1D1A"/>
		<stop  offset="0.25" style="stop-color:#550000"/>
		<stop  offset="0.5" style="stop-color:#3A0000"/>
		<stop  offset="0.75" style="stop-color:#1E0000"/>
		<stop  offset="1" style="stop-color:#000000"/>
	</linearGradient>
	<path style="fill:url(#SVGID_1_);" d="M173.913,111.159c-18.889,11.469-36.444,24.815-50.976,40.246
		c-21.736,23.081-38.389,48.676-35.841,81.25c0.65,8.31,1.92,22.11,12.12,34.95c7.1,8.94,20.59,20.01,33.55,19.57
		c16.15-0.54,33.72-18.99,41.34-48.64c28.08,20.97,44.96,52.74,44.19,85.51c-0.84,35.75-22.54,67.43-51.04,84.12
		c-42.15,24.68-91.64,12.16-120.97-10.4c-26.58-20.45-35.77-48.51-39.69-60.48c-9.67-29.56-6.65-54.23-3.78-75.61
		c1.63-12.17,8.19-53.95,36.86-100.18c31.87-51.39,72.46-84.29,91.67-96.73c11-7.11,58.298-37.162,139.87-57.03
		c32.66-7.955,138.97-19.64,273.13,22.85c95.35,30.19,173.65,90.47,205.08,111.06c32.77,21.47,65.71,46.07,121.92,73.72
		c19.37,9.53,37.57,17.49,53.98,24.07c-16.47,43.98-32.23,95.8-43.58,154.55c-12.55,64.93-14.65,112.14-17.96,194.69
		c-2.03,50.6-3.91,130.05,6.61,375.2c11.15,259.43,12.29,283.52,12.29,283.52c5.27,110.94,7.32,142.76,2.84,194.69
		c-4.08,47.23-11.9,138.33-53.87,235.32c-24.92,57.58-96.65,216.51-271.24,304.32c-59.28,29.81-175.58,88.3-309.99,45.36
		c-132.88-42.45-192.62-155.01-201.3-172c-14.64-28.67-83.03-162.6-13.23-276.91c42.02-68.82,139.34-139.08,225.87-105.85
		c59.39,22.8,109.76,92.82,97.35,160.66c-8.07,44.08-45.01,100.21-97.35,101.13c-14.09,0.24-26.7-3.56-37.28-8.75
		c32.64-46.37,40.93-92.68,23.11-119.78c-9.23-14.03-28.9-28.15-51.98-30.25c-56.75-5.15-88.2,56.07-96.91,103.44
		c-24.87,135.27,60.66,274.52,195.19,306.73c60.92,14.58,110.28,2.6,142.71-5.67c146.96-37.49,254.45-173.45,298.15-314.44
		c30.51-98.44,30.85-205.85,1.91-304.7c-13.26-45.28-26.31-90.57-46.67-133.32c-5.33-11.19-72.799-118.138-73.75-119.97
		c33.21-38.93,60.55-84.67,81.41-136.27c22.22-54.96,36.2-114.1,41.54-175.79c12.76-147.53-20.56-292.32-58.48-426.8
		c-20.4-72.4-44.51-148.1-94.62-208.1c-48.69-58.28-119.81-92.17-195.14-101.71c-49.369-6.252-99.691,1.681-146.16,18.861
		C221.192,86.323,196.591,97.389,173.913,111.159z"/>
	<linearGradient id="SVGID_2_" gradientUnits="userSpaceOnUse" x1="1256.4768" y1="1439.8734" x2="1256.4768" y2="411.5552">
		<stop  offset="0" style="stop-color:#8B1D1A"/>
		<stop  offset="0.25" style="stop-color:#550000"/>
		<stop  offset="0.5" style="stop-color:#3A0000"/>
		<stop  offset="0.75" style="stop-color:#1E0000"/>
		<stop  offset="1" style="stop-color:#000000"/>
	</linearGradient>
	<path style="fill:url(#SVGID_2_);" d="M1254.667,1542.915c-1.8,45.28-0.94,92.18,2.45,137.65l0.01,0.1
		c5.02,67.31,10.71,143.59,42.29,232.63c9.73,27.44,21.39,54.46,34.83,80.77c7.01-32.97,16.64-65.32,28.81-96.67l2.12-5.48
		c19.32-49.9,39.3-101.51,85.71-150.33c41.99-44.19,90.97-71.02,136.16-87.29c-45.5-10.11-97.35-31.67-128.76-77.52
		c-20.81-30.37-28.09-64.76-38.29-112.9c-15.07-71.15-14.26-127.69-13.74-153.15c4.46-219.73,6.69-329.6,12.76-371.1
		c19.34-132.36,33.13-220.28,93.26-319.07c24.47-40.19,50.7-72.47,73.81-97.27c-62.85,16.28-138.19,22.68-192.6-14.65
		c-30.31-20.79-71.57-67.12-75.59-71.66c-27.2-30.72-47.86-60.28-63.23-85.25v617.52h-328.76v69.05h328.76V1542.915z"/>
</g>
<g id="Layer_7">
	<g>
		<path style="fill:#BFCBC2;" d="M1367.324,1069.371c-53.709-146.115-37.235-303.473,31.505-440.147
			c18.86-59.121-69.921-66.246-67.581-6.802c-9.509-64.402,88.364-68.823,83.915,1.664
			C1357.272,786.967,1333.139,896.359,1367.324,1069.371z"/>
	</g>
	<g>
		<path style="fill:#BFCBC2;" d="M1287.598,844.969c32.709,10.927,59.211,46.712,56.951,83.634
			C1328.917,900.828,1309.028,871.208,1287.598,844.969z"/>
	</g>
	<g>
		<path style="fill:#BFCBC2;" d="M1414.75,824.953c-34.182,11.784-61.919,47.483-66.919,79.55
			C1332.176,861.781,1370.904,816.608,1414.75,824.953z"/>
	</g>
	<g>
		<path style="fill:#BFCBC2;" d="M1284.541,815.394c11.016-50.469,90.759-16.823,63.185,52.644
			C1344.638,838.414,1320.238,778.889,1284.541,815.394z"/>
	</g>
	<g>
		<path style="fill:#BFCBC2;" d="M1428.447,768.776c-48.078-13.855-68.011,46.493-80.1,78.104
			C1334.013,767.595,1400.008,737.193,1428.447,768.776z"/>
	</g>
	<g>
		<path style="fill:#BFCBC2;" d="M1281.116,740.579c4.722-62.254,124.813-10.764,67.75,78.339
			C1357.139,784.913,1322.942,694.667,1281.116,740.579z"/>
	</g>
	<g>
		<path style="fill:#BFCBC2;" d="M1446.526,723.046c-33.935-25.627-70.777,13.873-85.254,40.22
			C1362.954,697.548,1430.392,684.626,1446.526,723.046z"/>
	</g>
	<g>
		<path style="fill:#BFCBC2;" d="M1291.291,690.424c-13.56-63.494,126.185-30.873,70.463,45.84
			C1376.387,681.744,1299.073,650.971,1291.291,690.424z"/>
	</g>
	<g>
		<path style="fill:#BFCBC2;" d="M1424.896,666.604c41.413-64.183-21.644-137.311-86.256-106.468
			c-59.703,29.884-31.405,106.148,20.552,84.607c-66.731,44.235-110.13-73.199-27.09-110.084
			C1421.028,495.827,1491.66,606.185,1424.896,666.604z"/>
	</g>
	<g>
		<path style="fill:#BFCBC2;" d="M1462.059,644.274c4.086-22.55,5.242-48.458,1.941-73.362
			C1479.973,590.118,1481.229,624.012,1462.059,644.274z"/>
	</g>
	<g>
		<path style="fill:#BFCBC2;" d="M1357.696,510.911c-33.501-6.169-67.643,14.474-79.124,42.81
			C1273.547,510.963,1325.245,483.337,1357.696,510.911z"/>
	</g>
	<g>
		<path style="fill:#BFCBC2;" d="M798.499,1259.186c1.8-87.714-87.285-149.654-67.895-235.523
			c9.61-39.401,43.58-51.382,75.38-41.207c7.948-1.283,18.779-7.323,14.503-19.14c-19.026-31.896-128.202-15.836-116.454,91.568
			C712.291,1131.53,789.26,1183.912,798.499,1259.186z"/>
	</g>
	<g>
		<path style="fill:#BFCBC2;" d="M843.471,774.674c-27.781,10.405-58.964,36.139-57.283,71.049
			c-0.526,37.052,41.649,43.283,57.401,73.407c26.006,50.14-22.774,103.558-72.178,79.752c37.3,8.079,74-28.109,54.656-66.405
			c-9.555-17.532-28.034-23.344-42.341-38.562C738.169,842.866,786.645,776.775,843.471,774.674z"/>
	</g>
	<g>
		<path style="fill:#BFCBC2;" d="M812.911,1181.916c-38.196-75.251-0.388-88.233-11.142-132.638
			c-13.441-28.931-51.598-3.325-34.509,22.781c-31.276-33.952,28.057-70.845,48.687-27.308
			C829.445,1073.641,794.008,1134.231,812.911,1181.916z"/>
	</g>
	<g>
		<path style="fill:#BFCBC2;" d="M854.185,217.146c-75.578,23.745-39.127,123.353,13.121,104.889
			C804.422,358.906,757.425,225.691,854.185,217.146z"/>
	</g>
	<g>
		<path style="fill:#BFCBC2;" d="M811.033,192.94c-78.369,33.98-36.867,202.29,40.263,177.499
			C750.871,435.509,687.034,203.941,811.033,192.94z"/>
	</g>
	<g>
		<path style="fill:#BFCBC2;" d="M702.713,178.11c80.076,2.336,3.615,122.166-57.752,53.684
			c-8.235-12.541-7.513-28.778-2.899-43.345c53.994-107.354-73.659-77.496-21.878-33.775c-26.813-5.018-26.901-48.127,7.023-55.554
			c61.008-3.737,58.85,59.131,37.782,99.904c-10.878,31.508,27.194,38.441,47.342,26.342
			C733.037,214.026,729.089,178.876,702.713,178.11z"/>
	</g>
	<g>
		<path style="fill:#BFCBC2;" d="M717.478,147.685c34.469,6.562,49.734,50.812,24.487,76.983
			C756.724,197.859,746.278,161.574,717.478,147.685z"/>
	</g>
	<g>
		<path style="fill:#BFCBC2;" d="M849.254,426.205c-93.688,15.729-176.965-88.552-122.475-181.842
			C715.903,322.025,760.908,403.63,849.254,426.205z"/>
	</g>
	<g>
		<path style="fill:#BFCBC2;" d="M832.523,577.483c-2.287,50.292-97.182,26.152-48.263-70.69
			c4.718-12.151,8.326-19.259,9.298-33.868c0.41-49.161-64.382-34.583-44.254,9.16c-37.289-46.291,48.481-85.199,63.325-18.152
			c7.724,37.619-23.627,64.669-25.174,99.706C785.592,591.879,822.12,609.717,832.523,577.483z"/>
	</g>
	<g>
		<path style="fill:#BFCBC2;" d="M841.105,623.177c-54.209,65.138-116.021-28.388-93.769-85.448
			C760.116,578.692,784.881,652.063,841.105,623.177z"/>
	</g>
	<g>
		<path style="fill:#BFCBC2;" d="M821.329,682.701c-4.165-45.371-66.542-7.176-10.777,15.375
			c11.155,6.532,21.357,17.674,23.517,33.365c1.844,69.352-89.613,33.721-46.997-2.474c-28.929,42.916,58.264,39.751,22.733-10.221
			C719.926,670.19,827.085,618.229,821.329,682.701z"/>
	</g>
	<path style="fill:#BFCBC2;" d="M865.03,275.925c-1.376-23.942-34.286-21.88-34.917,0.001
		C831.488,299.867,864.399,297.805,865.03,275.925z"/>
	<path style="fill:#BFCBC2;" d="M756.787,471.461c1.06-18.977,27.319-17.553,27.934,0.001
		C783.661,490.438,757.402,489.014,756.787,471.461z"/>
	<path style="fill:#BFCBC2;" d="M1383.548,618.112c-1.376-23.942-34.286-21.88-34.917,0.001
		C1350.006,642.054,1382.917,639.992,1383.548,618.112z"/>
	<path style="fill:#BFCBC2;" d="M751.55,918.399c1.376-23.942,34.286-21.88,34.917,0.001
		C785.091,942.341,752.18,940.279,751.55,918.399z"/>
	<path style="fill:#BFCBC2;" d="M793.45,1058.067c-0.691-13.886-20.29-13.359-20.95,0.001
		C773.191,1071.953,792.789,1071.426,793.45,1058.067z"/>
	<g>
		<path style="fill:#BFCBC2;" d="M76.217,367.798c33.33,8.478,1.199-49.79-9.595-12.964c-4.536-15.83,19.426-22.075,27.246-5.446
			C100.825,361.465,88.198,378.032,76.217,367.798z"/>
	</g>
	<g>
		<path style="fill:#BFCBC2;" d="M102.817,315.292c13.284-7.975,16.803,14.891,5.211,21.635c-8.976,7.734-27.508-0.005-20.263-14.16
			C87.399,356.54,131.977,316.302,102.817,315.292z"/>
	</g>
	<g>
		<path style="fill:#BFCBC2;" d="M133.663,355.28c-3.326-29.553-43.559-5.536-16.903,11.12
			C80.289,353.943,132.852,313.068,133.663,355.28z"/>
	</g>
	<g>
		<path style="fill:#BFCBC2;" d="M109.071,314.713c-11.649-27.048-73.561,4.553-57.879,49.508
			C21.08,310.516,102.81,278.238,109.071,314.713z"/>
	</g>
	<g>
		<path style="fill:#BFCBC2;" d="M135.348,310.7c46.272,12.849,9.894,81.409-28.277,84.306
			C133.671,384.436,171.858,329.186,135.348,310.7z"/>
	</g>
	<g>
		<path style="fill:#BFCBC2;" d="M17.708,277.035c16.868-23.024,47.512,18.717,38.57,39.686
			C58.424,302.618,35.026,259.549,17.708,277.035z"/>
	</g>
	<g>
		<path style="fill:#BFCBC2;" d="M71.099,259.659c-20.994,7.597-17.609,36.45-12.021,55.446
			C48.466,299.084,42.915,264.009,71.099,259.659z"/>
	</g>
	<g>
		<path style="fill:#BFCBC2;" d="M169.227,302.92c10.216,13.867,3.041,39.775-16.715,44.294
			C166.134,340.128,175.404,318.485,169.227,302.92z"/>
	</g>
	<g>
		<path style="fill:#BFCBC2;" d="M182.321,359.777c-0.47-11.472-17.876-25.661-28.283-9.613
			C157.658,334.643,184.73,338.082,182.321,359.777z"/>
	</g>
</g>
<g id="Layer_4">
	<g>
		<g>
			<path style="fill:#FFB400;" d="M505.344,55.662c9.278,2.473,18.763,5.226,28.438,8.29
				c76.112,24.099,142.813,70.124,178.648,94.851c6.853,4.729,12.771,8.813,17.816,12.118c6.145,4.026,12.292,8.162,18.8,12.542
				c27.826,18.725,59.365,39.949,106.85,63.307c8.389,4.127,16.881,8.125,25.43,11.972c-14.182,42.135-25.569,85.26-33.942,128.601
				c-13.313,68.879-15.404,121.014-18.568,199.929c-2.412,60.123-3.281,147.542,6.614,378.106
				c11.026,256.538,12.286,283.43,12.298,283.678c0.371,7.808,0.726,15.224,1.064,22.283c4.478,93.562,5.83,121.799,1.867,167.734
				l-0.018,0.208c-4.003,46.34-11.454,132.597-51.103,224.223c-9.95,22.991-33.251,76.831-75.503,133.899
				c-14.374,19.415-29.694,37.549-45.929,54.375c42.239-55.893,72.185-118.275,90.084-176.021
				c32.229-103.986,32.964-219.369,2.068-324.898l-1.023-3.495c-13.076-44.67-26.597-90.86-47.637-135.039
				c-3.57-7.494-19.395-33.412-62.483-102.311c28.402-37.153,52.23-79.347,70.993-125.76
				c23.531-58.205,38.322-120.748,43.961-185.893c13.247-153.156-20.847-301.655-59.662-439.308
				c-21.425-76.039-46.907-155.741-101.448-221.048C584.042,103.395,547.362,75.523,505.344,55.662 M52.664,212.283
				c-0.882,7.336-1.091,15.038-0.46,23.101c0.761,9.728,2.543,32.509,19.605,53.987c6.114,7.699,28.524,32.816,60.206,32.816
				c0.65,0,1.299-0.011,1.922-0.032c16.856-0.563,32.576-8.25,45.496-21.377c2.703,7.289,4.052,14.878,3.874,22.445
				c-0.506,21.548-13.749,43.035-33.735,54.739c-9.879,5.784-20.929,8.717-32.844,8.717c-17.186,0-35.542-6.226-49.098-16.654
				c-18.022-13.866-24.606-33.971-27.767-43.622c-7.389-22.585-4.83-41.642-2.355-60.081
				C39.049,254.806,42.931,235.285,52.664,212.283 M215.356,1498.824c11.803,0,23.196,2.077,33.867,6.175
				c22.652,8.697,44.037,26.789,58.669,49.64c15.035,23.479,21,49.066,16.797,72.042c-3.15,17.205-12.446,36.488-24.262,50.324
				c-4.844,5.672-11.393,11.988-19.307,16.413c15.21-40.542,14.191-78.976-4.283-107.071c-16.48-25.05-47.116-43.055-78.057-45.871
				c-3.275-0.297-6.576-0.448-9.81-0.448c-69.312-0.003-112.567,66.503-124.686,132.416
				c-11.167,60.737-2.769,121.545,20.604,175.223c-1.963-3.468-3.487-6.344-4.589-8.502c-7.075-13.854-25.867-50.656-35.122-97.243
				c-11.119-55.967-4.19-104.923,20.593-145.51c15.399-25.219,39.208-49.924,65.323-67.779
				C150.983,1515.036,181.748,1498.824,215.356,1498.824 M353.367,0c-39.069,0-67.76,4.229-82.151,7.734
				c-81.572,19.868-128.87,49.92-139.87,57.03c-19.21,12.44-59.8,45.34-91.67,96.73c-28.67,46.23-35.23,88.01-36.86,100.18
				c-2.87,21.38-5.89,46.05,3.78,75.61c3.92,11.97,13.11,40.03,39.69,60.48c18.005,13.849,43.602,23.914,70.441,23.914
				c16.88,0,34.255-3.984,50.53-13.514c28.5-16.69,50.2-48.37,51.04-84.12c0.77-32.77-16.11-64.54-44.19-85.51
				c-7.62,29.65-25.19,48.1-41.34,48.64c-0.251,0.009-0.501,0.013-0.752,0.013c-12.727,0-25.835-10.816-32.798-19.583
				c-10.2-12.84-11.47-26.64-12.12-34.95c-2.548-32.573,14.104-58.168,35.841-81.25c14.532-15.431,32.087-28.776,50.976-40.246
				c22.677-13.77,47.279-24.836,70.883-33.563c35.805-13.238,73.889-20.984,112.07-20.984c11.372,0,22.761,0.688,34.09,2.123
				c75.33,9.54,146.45,43.43,195.14,101.71c50.11,60,74.22,135.7,94.62,208.1c37.92,134.48,71.24,279.27,58.48,426.8
				c-5.34,61.69-19.321,120.83-41.54,175.79c-20.86,51.6-48.2,97.34-81.41,136.27c0.951,1.833,68.42,108.78,73.75,119.97
				c20.36,42.75,33.41,88.04,46.67,133.32c28.94,98.85,28.6,206.26-1.91,304.7c-43.7,140.99-151.19,276.95-298.15,314.44
				c-21.387,5.454-50.129,12.521-84.703,12.521c-17.851,0-37.263-1.886-58.007-6.85c-134.53-32.21-220.06-171.46-195.19-306.73
				c8.364-45.488,37.694-103.747,90.262-103.745c2.175,0,4.393,0.1,6.648,0.304c23.08,2.1,42.75,16.22,51.98,30.25
				c17.82,27.1,9.53,73.41-23.11,119.78c10.263,5.034,22.435,8.761,36.016,8.761c0.42,0,0.842-0.003,1.264-0.011
				c52.34-0.92,89.28-57.05,97.35-101.13c12.41-67.84-37.96-137.86-97.35-160.66c-15.258-5.859-30.844-8.5-46.411-8.5
				c-72.714,0-144.849,57.666-179.459,114.35c-69.8,114.31-1.41,248.24,13.23,276.91c8.68,16.99,68.42,129.55,201.3,172
				c33.955,10.848,66.744,15.221,97.761,15.221c91.76,0,167.925-38.302,212.229-60.581c174.59-87.81,246.32-246.74,271.24-304.32
				c41.969-96.99,49.79-188.09,53.87-235.32c4.48-51.93,2.43-83.75-2.84-194.69c0,0-1.14-24.09-12.291-283.52
				c-10.52-245.15-8.64-324.6-6.61-375.2c3.31-82.55,5.41-129.76,17.96-194.69c11.35-58.75,27.11-110.57,43.58-154.55
				c-16.41-6.58-34.61-14.54-53.98-24.07c-56.21-27.65-89.15-52.25-121.92-73.72c-31.43-20.59-109.73-80.87-205.08-111.06
				C469.3,6.816,402.969,0,353.367,0L353.367,0z"/>
		</g>
	</g>
	<g>
		<g>
			<path style="fill:#FFB400;" d="M1289.667,457.878c0.673,0.768,1.349,1.534,2.025,2.298c7.936,8.963,49.187,54.816,81.994,77.319
				c32.582,22.354,73.253,33.689,120.882,33.689c2.697,0,5.416-0.036,8.16-0.109c-7.106,10.247-13.894,20.681-20.349,31.282
				c-65.076,106.917-78.884,201.415-97.994,332.202c-6.387,43.665-8.497,147.636-13.121,375.451
				c-0.472,23.122-1.727,84.542,14.493,161.119l0.014,0.066c10.568,49.878,18.916,89.275,43.642,125.361
				c17.24,25.166,40.236,45.839,68.746,61.87c-26.864,16.701-51.149,36.429-72.638,59.044
				c-51.178,53.835-73.385,111.191-92.986,161.816l-2.105,5.442c-0.678,1.748-1.35,3.501-2.014,5.256
				c-26.529-79.783-31.752-149.809-36.385-211.923l-0.033-0.446l-0.009-0.088c-3.303-44.521-4.093-89.34-2.349-133.223l0.028-0.695
				v-0.695v-504.62v-35v-34.05V457.878 M1254.667,351.724v617.52h-328.76v69.05h328.76v504.62c-1.8,45.28-0.94,92.18,2.45,137.65
				l0.01,0.1c5.02,67.31,10.71,143.59,42.29,232.63c9.73,27.44,21.39,54.46,34.83,80.77c7.01-32.97,16.64-65.32,28.81-96.67
				l2.12-5.48c19.32-49.9,39.3-101.51,85.71-150.33c41.99-44.19,90.97-71.02,136.16-87.29c-45.5-10.11-97.35-31.67-128.76-77.52
				c-20.81-30.37-28.09-64.76-38.29-112.9c-15.07-71.15-14.26-127.69-13.74-153.15c4.46-219.729,6.69-329.6,12.76-371.1
				c19.34-132.36,33.13-220.28,93.26-319.07c24.47-40.19,50.7-72.47,73.81-97.27c-28.943,7.497-60.542,12.9-91.519,12.9
				c-36.29,0-71.728-7.411-101.082-27.55c-30.31-20.79-71.57-67.12-75.59-71.66C1290.697,406.255,1270.037,376.694,1254.667,351.724
				L1254.667,351.724z"/>
		</g>
	</g>
</g>
<g id="Layer_6">
	<g>
		<g>
			<path style="fill:#480000;" d="M925.902,572.062c-16.073,0-29.15-13.077-29.15-29.15s13.077-29.15,29.15-29.15
				s29.149,13.077,29.149,29.15S941.975,572.062,925.902,572.062z"/>
			<path style="fill:#480000;" d="M925.902,520.262c12.489,0,22.65,10.161,22.65,22.65c0,12.489-10.161,22.65-22.65,22.65
				s-22.65-10.161-22.65-22.65C903.252,530.423,913.413,520.262,925.902,520.262 M925.902,507.262
				c-19.689,0-35.65,15.961-35.65,35.65s15.961,35.65,35.65,35.65s35.65-15.961,35.65-35.65S945.591,507.262,925.902,507.262
				L925.902,507.262z"/>
		</g>
	</g>
	<g>
		<g>
			<path style="fill:#480000;" d="M925.902,1662.94c-16.073,0-29.15-13.077-29.15-29.15s13.077-29.149,29.15-29.149
				s29.149,13.076,29.149,29.149S941.975,1662.94,925.902,1662.94z"/>
			<path style="fill:#480000;" d="M925.902,1611.14c12.489,0,22.65,10.161,22.65,22.65c0,12.489-10.161,22.65-22.65,22.65
				s-22.65-10.161-22.65-22.65C903.252,1621.3,913.413,1611.14,925.902,1611.14 M925.902,1598.14
				c-19.689,0-35.65,15.961-35.65,35.65c0,19.689,15.961,35.65,35.65,35.65s35.65-15.961,35.65-35.65
				C961.552,1614.1,945.591,1598.14,925.902,1598.14L925.902,1598.14z"/>
		</g>
	</g>
	<g>
		<g>
			<rect x="921.407" y="549.415" style="fill:#480000;" width="9" height="1077.87"/>
			<polygon style="fill:#480000;" points="936.907,542.915 914.907,542.915 914.907,1633.784 936.907,1633.784 936.907,542.915 			
				"/>
		</g>
	</g>
	<g>
		<g>
			<path style="fill:#480000;" d="M925.907,935.795c-2.481,0-4.5-2.019-4.5-4.5s2.019-4.5,4.5-4.5h286.31v-610.27
				c0-2.481,2.019-4.5,4.5-4.5s4.5,2.019,4.5,4.5v619.27H925.907z"/>
			<path style="fill:#480000;" d="M1216.717,305.525c-6.075,0-11,4.925-11,11v603.77h-279.81c-6.075,0-11,4.925-11,11
				s4.925,11,11,11h301.81v-625.77C1227.717,310.449,1222.792,305.525,1216.717,305.525L1216.717,305.525z"/>
		</g>
	</g>
	<g>
		<g>
			<path style="fill:#480000;" d="M353.368,16c41.941,0,108.282,5.177,186.15,29.838c78.825,24.958,147.051,72.036,183.704,97.327
				c6.752,4.659,12.583,8.682,17.437,11.863c6.243,4.09,12.438,8.259,18.996,12.672c27.326,18.388,58.297,39.23,104.629,62.021
				c13.382,6.584,27.032,12.83,40.744,18.646c-16.585,46.523-29.685,94.416-38.99,142.581
				c-13.041,67.469-14.997,116.256-18.238,197.085c-2.396,59.714-3.253,146.658,6.612,376.528
				c11.024,256.498,12.282,283.348,12.293,283.592c0.371,7.805,0.726,15.219,1.063,22.276c4.406,92.058,5.89,123.071,1.818,170.278
				l-0.018,0.208c-4.096,47.416-11.72,135.673-52.595,230.134c-10.209,23.59-34.118,78.834-77.669,137.658
				c-50.983,68.863-113.588,122.265-186.08,158.725c-43.788,22.019-117.076,58.873-205.037,58.873
				c-31.599,0-62.853-4.866-92.892-14.462c-29.024-9.272-56.646-22.844-82.097-40.339c-20.872-14.347-40.455-31.433-58.206-50.784
				c-29.263-31.899-45.846-61.618-51.616-72.913c-7.403-14.497-27.067-53.006-36.836-102.181
				c-12.078-60.794-4.335-114.327,23.012-159.114c32.371-53.017,99.718-106.688,165.804-106.688c14.14,0,27.825,2.502,40.676,7.438
				c26.355,10.118,51.089,30.941,67.86,57.131c17.638,27.543,24.558,57.983,19.486,85.71c-3.774,20.615-14.429,42.761-28.503,59.241
				c-11.008,12.892-29.207,28.348-53.387,28.773c-0.33,0.006-0.659,0.009-0.987,0.009c-3.85,0-7.727-0.387-11.613-1.157
				c26.674-45.779,31.511-90.62,12.075-120.178c-10.193-15.494-33.043-34.583-63.9-37.391c-2.702-0.245-5.425-0.37-8.094-0.37
				c-58.381-0.002-95.304,58.687-105.999,116.852c-26.759,145.545,66.191,291.422,207.202,325.184
				c20.211,4.837,40.981,7.29,61.732,7.29c37.615,0,68.331-7.833,88.657-13.017c137.652-35.115,259.129-162.767,309.478-325.207
				c31.136-100.459,31.84-211.949,1.982-313.934l-1.025-3.502c-12.865-43.951-26.169-89.398-46.555-132.202
				c-3.637-7.635-26.838-45.093-63.094-103.054c-1.947-3.112-3.802-6.078-5.426-8.677c30.953-38.22,56.686-82.448,76.569-131.632
				c22.823-56.451,37.171-117.149,42.647-180.408c12.984-150.12-20.693-296.595-59.02-432.518
				c-20.868-74.061-45.604-151.592-97.741-214.019c-48.99-58.639-121.939-96.754-205.409-107.325
				c-11.789-1.493-23.935-2.25-36.101-2.25c-38.603,0-78.175,7.394-117.618,21.977c-27.437,10.144-52.213,21.884-73.639,34.894
				c-21.493,13.05-39.769,27.502-54.32,42.953c-20.4,21.662-43.398,51.862-40.144,93.466c0.678,8.673,2.09,26.719,15.542,43.653
				c9.841,12.391,26.916,25.632,45.327,25.632c0.433,0,0.864-0.007,1.287-0.021c18.557-0.621,36.006-14.679,47.36-36.804
				c14.255,16.55,22.12,36.898,21.64,57.307c-0.333,14.173-4.725,28.375-12.701,41.073c-7.669,12.208-18.191,22.45-30.428,29.616
				c-12.829,7.512-27.11,11.321-42.445,11.321c-21.233,0-43.919-7.699-60.684-20.595c-22.668-17.441-30.485-41.308-34.239-52.774
				c-8.739-26.715-5.759-48.918-3.129-68.511c2.429-18.14,10.155-54.456,34.599-93.871c27.188-43.841,63.735-76.816,86.758-91.725
				c20.442-13.213,65.16-37.918,134.971-54.922C289.453,19.761,317.627,16,353.368,16 M353.367,0
				c-39.069,0-67.76,4.229-82.151,7.734c-81.572,19.868-128.87,49.92-139.87,57.03c-19.21,12.44-59.8,45.34-91.67,96.73
				c-28.67,46.23-35.23,88.01-36.86,100.18c-2.87,21.38-5.89,46.05,3.78,75.61c3.92,11.97,13.11,40.03,39.69,60.48
				c18.005,13.849,43.602,23.914,70.441,23.914c16.88,0,34.255-3.984,50.53-13.514c28.5-16.69,50.2-48.37,51.04-84.12
				c0.77-32.77-16.11-64.54-44.19-85.51c-7.62,29.65-25.19,48.1-41.34,48.64c-0.251,0.009-0.501,0.013-0.752,0.013
				c-12.727,0-25.835-10.816-32.798-19.583c-10.2-12.84-11.47-26.64-12.12-34.95c-2.548-32.573,14.104-58.168,35.841-81.249
				c14.532-15.432,32.087-28.777,50.976-40.246c22.678-13.77,47.279-24.836,70.883-33.563
				c35.805-13.238,73.888-20.984,112.07-20.984c11.372,0,22.761,0.688,34.091,2.123c75.33,9.54,146.45,43.43,195.14,101.71
				c50.11,60,74.22,135.7,94.62,208.1c37.92,134.48,71.24,279.27,58.48,426.8c-5.34,61.69-19.32,120.83-41.54,175.79
				c-20.86,51.6-48.2,97.34-81.41,136.27c0.951,1.832,68.42,108.78,73.75,119.97c20.36,42.75,33.41,88.04,46.67,133.32
				c28.94,98.85,28.6,206.26-1.91,304.7c-43.7,140.99-151.19,276.95-298.15,314.44c-21.387,5.454-50.129,12.521-84.702,12.521
				c-17.851,0-37.264-1.886-58.008-6.85c-134.53-32.21-220.06-171.46-195.19-306.73c8.364-45.488,37.694-103.747,90.262-103.745
				c2.175,0,4.393,0.1,6.648,0.304c23.08,2.1,42.75,16.22,51.98,30.25c17.82,27.1,9.53,73.41-23.11,119.78
				c10.262,5.034,22.434,8.761,36.015,8.761c0.42,0,0.842-0.003,1.265-0.011c52.34-0.92,89.28-57.05,97.35-101.13
				c12.41-67.84-37.96-137.86-97.35-160.66c-15.258-5.859-30.844-8.5-46.411-8.5c-72.714,0-144.849,57.666-179.459,114.35
				c-69.8,114.31-1.41,248.24,13.23,276.91c8.68,16.99,68.42,129.55,201.3,172c33.955,10.848,66.744,15.221,97.761,15.221
				c91.76,0,167.925-38.302,212.229-60.581c174.59-87.81,246.32-246.74,271.24-304.32c41.97-96.99,49.79-188.09,53.87-235.32
				c4.48-51.93,2.43-83.75-2.84-194.69c0,0-1.14-24.09-12.29-283.52c-10.52-245.15-8.64-324.6-6.61-375.2
				c3.31-82.55,5.41-129.76,17.96-194.69c11.35-58.75,27.11-110.57,43.58-154.55c-16.41-6.58-34.61-14.54-53.98-24.07
				c-56.21-27.65-89.15-52.25-121.92-73.72c-31.43-20.59-109.73-80.87-205.08-111.06C469.3,6.816,402.969,0,353.367,0L353.367,0z"/>
		</g>
	</g>
	<g>
		<g>
			<path style="fill:#480000;" d="M1270.667,403.994c11.115,15.063,22.891,29.628,35.251,43.588
				c7.679,8.672,47.551,53.007,78.517,74.246c29.359,20.143,66.414,30.356,110.133,30.356c15.414,0,31.703-1.272,48.735-3.796
				c-16.286,20.395-31.24,41.75-44.694,63.848c-63.064,103.611-76.638,196.505-95.424,325.073
				c-6.214,42.49-8.457,152.97-12.925,373.089c-0.46,22.524-1.682,82.356,14.084,156.793l0.014,0.066
				c10.527,49.686,18.134,85.585,40.729,118.56c21.556,31.465,53.339,55.289,94.805,71.137
				c-38.392,18.967-72.107,43.619-100.601,73.607c-48.588,51.111-69.147,104.212-89.036,155.581l-2.113,5.463
				c-6.969,17.953-13.158,36.333-18.516,54.974c-5.487-12.792-10.542-25.698-15.129-38.632
				c-30.865-87.023-36.469-162.171-41.414-228.472l-0.014-0.184l-0.01-0.099c-3.372-45.319-4.181-90.954-2.405-135.641l0.012-0.318
				v-0.318v-504.62v-16h-16h-312.76v-37.05h312.76h16v-16V403.994 M1254.667,351.724v617.52h-328.76v69.05h328.76v504.62
				c-1.8,45.28-0.94,92.18,2.45,137.65l0.01,0.1c5.02,67.31,10.71,143.59,42.29,232.63c9.73,27.44,21.39,54.46,34.83,80.77
				c7.01-32.97,16.64-65.32,28.81-96.67l2.12-5.48c19.32-49.9,39.3-101.51,85.71-150.33c41.99-44.19,90.97-71.02,136.16-87.29
				c-45.5-10.11-97.35-31.67-128.76-77.52c-20.81-30.37-28.09-64.76-38.29-112.9c-15.07-71.15-14.26-127.69-13.74-153.15
				c4.46-219.73,6.69-329.6,12.76-371.1c19.34-132.36,33.13-220.28,93.26-319.07c24.47-40.19,50.7-72.47,73.81-97.27
				c-28.943,7.497-60.542,12.9-91.519,12.9c-36.289,0-71.728-7.411-101.082-27.55c-30.31-20.79-71.57-67.12-75.59-71.66
				C1290.697,406.254,1270.037,376.694,1254.667,351.724L1254.667,351.724z"/>
		</g>
	</g>
	<g>
		<g>
			<path style="fill:#480000;" d="M1324.008,2062.629c-26.36-43.036-48.111-88.5-64.649-135.129
				c-33.475-94.4-39.395-173.701-44.618-243.667l-0.01-0.119c-3.485-46.763-4.333-94.12-2.519-140.729l0.005-0.253v-461.987h-286.31
				c-2.481,0-4.5-2.019-4.5-4.5s2.019-4.5,4.5-4.5h295.31l0.017,470.864c-1.839,46.506-1.007,93.757,2.474,140.446
				c5.188,69.499,11.062,148.172,44.134,241.438c16.329,46.038,37.808,90.933,63.841,133.435l21.665,35.372l5.091-41.165
				c4.769-38.566,13.782-77.851,27.557-120.099c17.741-54.411,41.556-95.203,72.805-124.708c8.876-8.381,41.012-37.097,81.86-54.761
				c20.718-8.959,40.306-13.502,58.22-13.502c16.118,0,30.753,3.704,43.5,11.009c28.13,16.123,56.139,52.173,51.16,93.223
				c-4.292,35.406-30.122,65.726-62.813,73.731c-6.496,1.591-13.352,2.398-20.375,2.398c-26.933,0-49.651-11.35-60.773-30.36
				c-7.849-13.416-12.908-35.682-1.336-54.281c7.274-11.689,20.198-20.748,33.729-23.641c2.915-0.624,5.785-0.939,8.532-0.939
				c6.439,0,12.227,1.699,17.203,5.051c15.073,10.156,15.36,31.183,15.265,35.294c-0.057,2.423-2.072,4.395-4.494,4.395
				l-0.114-0.001c-1.197-0.028-2.316-0.522-3.146-1.393c-0.83-0.869-1.272-2.01-1.244-3.212c0.048-2.015,0.135-19.919-11.297-27.619
				c-3.445-2.322-7.568-3.499-12.253-3.499c-2.112,0-4.323,0.244-6.571,0.725c-11.053,2.363-22.031,10.054-27.967,19.595
				c-8.849,14.221-5.643,32.839,1.461,44.981c9.49,16.221,29.303,25.903,52.999,25.903c6.31,0,12.446-0.72,18.241-2.139
				c32.482-7.955,52.769-39.26,56.021-66.073c4.484-36.979-21.065-69.637-46.702-84.33c-11.521-6.603-24.685-9.951-39.126-9.951
				c-16.406,0-34.759,4.339-54.546,12.896c-39.511,17.086-70.651,44.92-79.255,53.044c-30.127,28.446-53.163,68.011-70.426,120.955
				c-13.594,41.693-22.484,80.427-27.182,118.412l-8.249,66.717L1324.008,2062.629z"/>
			<path style="fill:#480000;" d="M1227.717,1065.244h-301.81c-6.075,0-11,4.925-11,11s4.925,11,11,11h279.81v455.487
				c-1.824,46.853-0.973,94.444,2.534,141.493l0.007,0.086c5.254,70.374,11.208,150.139,44.975,245.362
				c16.688,47.054,38.636,92.929,65.232,136.35l44.824,73.184l10.531-85.171c4.646-37.569,13.448-75.904,26.91-117.195
				c16.917-51.885,39.392-90.563,68.709-118.244c8.409-7.94,38.842-35.142,77.372-51.804c19.053-8.24,36.418-12.362,51.965-12.362
				c13.327,0,25.319,3.029,35.894,9.091c23.836,13.661,47.609,43.868,43.481,77.908c-2.982,24.596-21.497,53.289-51.114,60.542
				c-5.233,1.282-10.912,1.953-16.694,1.953c-18.553,0-38.157-6.907-47.389-22.686c-6.117-10.457-8.97-26.345-1.553-38.266
				c4.972-7.99,14.539-14.69,23.809-16.672c1.531-0.328,3.326-0.581,5.211-0.581c2.867,0,5.945,0.587,8.621,2.39
				c8.708,5.866,8.446,21.418,8.431,22.077c-0.142,6.073,4.667,11.112,10.74,11.254c0.088,0.002,0.175,0.003,0.262,0.003
				c5.956,0,10.853-4.757,10.992-10.743c0.109-4.705-0.248-28.787-18.132-40.837c-6.063-4.083-13.141-6.16-20.834-6.16
				c-3.201,0-6.508,0.36-9.892,1.083c-15.196,3.249-29.714,13.428-37.888,26.563c-13.102,21.058-7.519,46.02,1.244,60.997
				c13.659,23.347,40.718,33.578,66.384,33.578c7.552,0,14.986-0.886,21.92-2.585c35.262-8.636,63.109-41.229,67.721-79.263
				c5.335-43.989-24.45-82.489-54.382-99.645c-13.813-7.916-29.535-11.869-46.732-11.869c-18.713,0-39.171,4.683-60.8,14.036
				c-41.829,18.088-74.673,47.437-83.743,56c-32.06,30.271-56.436,71.95-74.521,127.42c-13.905,42.648-23.008,82.331-27.828,121.316
				l-2.809,22.712l-11.953-19.516c-25.797-42.118-47.08-86.601-63.258-132.213c-32.781-92.447-38.619-170.65-43.771-239.665
				l-0.006-0.084c-3.466-46.488-4.292-93.535-2.456-139.834L1227.717,1065.244L1227.717,1065.244z"/>
		</g>
	</g>
	<g>
		<g>
			<path style="fill:#480000;" d="M354.736,1960.178c-40.043,0.001-76.222-8.261-107.532-24.556
				c-28.254-14.705-54.159-35.944-74.913-61.422c-20.656-25.357-36.28-54.989-45.184-85.693c-3.654-12.603-6.215-25.475-7.612-38.26
				c-5.676-51.956,7.869-99.858,37.164-131.424c8.812-9.496,17.029-15.023,25.859-17.396c3.055-0.821,6.25-1.237,9.498-1.237
				c13.476,0,26.721,7.074,34.567,18.462c8.99,13.049,10.802,31.103,4.729,47.116c-0.66,1.738-2.352,2.906-4.212,2.906
				c-0.541,0-1.076-0.099-1.593-0.295c-2.319-0.879-3.491-3.482-2.611-5.803c4.964-13.093,3.502-28.329-3.726-38.817
				c-6.087-8.835-16.806-14.544-27.307-14.544c-2.417,0-4.776,0.304-7.01,0.902c-7.127,1.915-13.99,6.626-21.601,14.827
				c-27.517,29.65-40.206,74.965-34.813,124.325c1.34,12.268,3.799,24.626,7.31,36.73c17.421,60.082,60.639,113.03,115.606,141.637
				c30.019,15.623,64.804,23.545,103.39,23.545c22.949,0,47.025-2.798,71.561-8.316c98.319-22.113,153.432-91.094,179.918-124.244
				c52.416-65.605,69.558-132.751,77.796-165.02c11.77-46.104,16.616-93.714,14.402-141.509l-0.012-0.247l-0.037-0.3l0.001-0.289
				c0.325-62.144-8.638-123.128-26.64-181.257c-22.871-73.884-60.218-142.825-111.004-204.908l-16.41-20.061l17.78-18.855
				c69.024-73.206,112.633-178.163,122.793-295.537c12.012-138.814-20.12-277.797-56.633-407.311
				c-18.805-66.725-40.782-136.2-83.999-187.944c-39.96-47.833-98.334-79.757-160.155-87.585c-10.06-1.274-20.357-1.92-30.606-1.92
				c-52.332,0-104.298,16.626-146.328,46.814c-0.974,0.699-1.96,0.846-2.616,0.846c-1.472,0-2.808-0.684-3.664-1.875
				c-0.702-0.977-0.98-2.167-0.786-3.354s0.839-2.226,1.815-2.926c43.543-31.276,97.397-48.5,151.642-48.5
				c10.609,0,21.266,0.668,31.674,1.987c64.051,8.11,124.531,41.185,165.931,90.744c44.356,53.108,66.685,123.611,85.754,191.271
				C673.671,511.222,706,651.163,693.863,791.417c-10.335,119.386-54.803,226.26-125.212,300.934l-12.355,13.104l11.404,13.94
				c51.523,62.984,89.419,132.947,112.636,207.944c18.219,58.833,27.318,120.542,27.044,183.413l-0.001,0.17l0.017,0.337
				c2.302,48.821-2.627,97.463-14.652,144.567c-8.394,32.88-25.859,101.293-79.485,168.413
				c-27.125,33.952-83.569,104.601-184.975,127.406C403.119,1957.307,378.374,1960.177,354.736,1960.178z"/>
			<path style="fill:#480000;" d="M353.567,90.385c-55.263,0-110.494,17.442-155.433,49.72c-4.934,3.544-6.061,10.417-2.517,15.351
				c2.149,2.992,5.521,4.584,8.943,4.584c2.222,0,4.465-0.671,6.408-2.067c41.212-29.601,91.856-45.594,142.536-45.593
				c9.951,0,19.907,0.617,29.79,1.868c60.211,7.625,117.064,38.717,155.982,85.303c42.395,50.76,64.116,119.492,82.731,185.541
				c36.346,128.921,68.336,267.213,56.413,404.987c-10.035,115.921-53.024,219.493-121.047,291.638l-21.698,23.01l20.025,24.48
				c50.253,61.432,87.204,129.635,109.826,202.716c17.806,57.496,26.67,117.822,26.349,179.302l-0.003,0.703l0.057,0.466
				c2.183,47.153-2.596,94.116-14.207,139.598c-8.126,31.828-25.033,98.059-76.577,162.572
				c-26.023,32.571-80.173,100.348-176.266,121.96c-20.082,4.517-44.288,8.158-70.134,8.158c-32.522,0-67.64-5.766-100.389-22.81
				c-53.423-27.803-95.428-79.272-112.365-137.682c-3.406-11.744-5.792-23.73-7.091-35.626
				c-5.188-47.485,6.883-90.93,33.116-119.198c6.743-7.266,12.627-11.387,18.52-12.97c1.716-0.46,3.507-0.681,5.325-0.681
				c8.206,0,16.969,4.495,21.955,11.732c6.053,8.784,7.23,21.67,3,32.825c-2.154,5.681,0.705,12.031,6.385,14.186
				c1.283,0.487,2.601,0.717,3.897,0.717c4.438,0,8.621-2.705,10.289-7.102c6.818-17.979,4.728-38.329-5.454-53.108
				c-9.221-13.383-24.587-21.274-39.92-21.274c-3.76,0-7.519,0.475-11.185,1.459c-10.063,2.703-19.258,8.82-28.938,19.251
				c-30.578,32.948-44.742,82.72-38.861,136.552c1.438,13.157,4.072,26.401,7.831,39.364c9.144,31.533,25.184,61.96,46.387,87.988
				c21.308,26.158,47.918,47.972,76.952,63.082c36.348,18.918,74.973,25.29,110.526,25.29c0.002,0,0.005,0,0.007,0
				c27.703-0.001,53.545-3.87,74.973-8.691c103.631-23.307,161.038-95.159,188.626-129.69
				c54.501-68.215,72.199-137.545,80.705-170.863c12.184-47.729,17.18-97.014,14.847-146.486l-0.008-0.167
				c0.276-63.534-8.92-125.896-27.335-185.363c-23.464-75.801-61.757-146.502-113.814-210.139l-7.788-9.519l8.438-8.95
				c71.41-75.735,116.498-183.993,126.959-304.833c12.226-141.291-20.245-281.925-57.157-412.853
				c-19.26-68.338-41.844-139.584-87.021-193.676c-42.441-50.804-104.442-84.71-170.103-93.025
				C375.278,91.058,364.423,90.385,353.567,90.385L353.567,90.385z"/>
		</g>
	</g>
</g>
</svg>
