<?xml version="1.0" encoding="iso-8859-1"?>
<!-- Generator: Adobe Illustrator 24.0.1, SVG Export Plug-In . SVG Version: 6.00 Build 0)  -->
<svg version="1.1" xmlns="http://www.w3.org/2000/svg" xmlns:xlink="http://www.w3.org/1999/xlink" x="0px" y="0px"
	 viewBox="0 0 769.011 2167.919" style="enable-background:new 0 0 769.011 2167.919;" xml:space="preserve">
<g id="Layer_5">
	<linearGradient id="SVGID_1_" gradientUnits="userSpaceOnUse" x1="305.9719" y1="1152.4871" x2="305.9719" y2="170.2309">
		<stop  offset="0" style="stop-color:#8B1D1A"/>
		<stop  offset="0.25" style="stop-color:#550000"/>
		<stop  offset="0.5" style="stop-color:#3A0000"/>
		<stop  offset="0.75" style="stop-color:#1E0000"/>
		<stop  offset="1" style="stop-color:#000000"/>
	</linearGradient>
	<path style="fill:url(#SVGID_1_);" d="M611.207,1550.629c-1.02-44.673-2.559-89.333-0.904-134.005
		c2.594-70.035,0.317-140.585,0.317-210.677c0-139.738,0-279.475,0-419.213c0-27.243,0-54.489,0-81.731c0-0.002,0-321.553,0-321.553
		V112.433c-35.29,46.52-71.06,78.04-96.72,97.86c-71.82,55.46-142.25,79.39-157.8,84.49c-29.25,9.58-95.28,28.13-155.56,43.36
		c-107.99,27.28-203.8,113.49-169,235.23c6.61,23.14,19.11,46.01,40.08,57.8c8.17,4.59,16.94,7.18,26.02,8.25
		c-7.82-14.02-14.46-30.71-17.8-50.06c-2.66-15.37-8.81-54.38,12.96-93.87c26.05-47.26,73.56-61.64,88.51-66.16
		c59.08-17.88,110.06,3.57,128.75,12.96c47.55,23.9,70.44,62.31,90.74,97.45c35.67,61.73,45.88,118.73,52.3,161.38
		c15.48,102.71,19.92,194.85,20.12,316.05c0.08,44.89-0.33,152.07-12.96,284.3c-5.3,55.49-12.8,115.82-43.81,185.97
		c-10.62,24.02-21.87,44.36-31.89,60.67c29.44,16.41,61.04,41.16,86.43,78.35c11.91,17.46,42.87,67.56,43.8,137.68
		c0.17,12.52-0.4,147.16-114.88,217.26c-76.77,47-171.78,44.8-241.84,5.36c-20.77-11.69-84.14-47.36-98.79-121.14
		c-10.09-50.77,3.85-114.8,51.4-152.44c38.49-30.46,102.37-46.32,139.48-19.22c16.15,11.8,25.33,30.36,27.26,34.42
		c12.76,26.8,9.31,51.29,8.05,59.46c-1.4,9.04-5.38,32.63-25.03,53.64c-12.36,13.21-26.36,20.53-37.73,24.62
		c15.93,6.98,36.67,12.47,60.97,10.69c6.45-0.47,65.61-5.83,98.79-58.56c28.32-44.98,17.19-91.83,13.42-105.05
		c-16.1-56.36-64.06-81.37-76.89-88.06c-53.94-28.13-107.02-16.44-135-10.28c-22.29,4.9-95.65,21.05-144.84,91.19
		c-58.38,83.24-35.16,174.72-31.74,187.3c16.96,62.39,56.58,99.06,70.18,111.31c92.04,82.951,216.633,65.814,247.65,60.352
		c164.366-28.944,250.666-172.759,277.097-327.152C613.042,1675.365,612.63,1612.984,611.207,1550.629z"/>
</g>
<g id="Layer_7">
	<g>
		<path style="fill:#BFCBC2;" d="M424.312,485.678c44.463-41.471,147.49,57.848,93.107,114.674
			c-53.401,50.346-102.59-43.963-37.535-47.826c-71.983,33.717,56.338,86.437,26.662-15.68
			C493.086,506.342,455.719,469.744,424.312,485.678z"/>
	</g>
	<g>
		<path style="fill:#BFCBC2;" d="M583.874,508.718c1.739-21.263-46.017-15.172-50.835,16.625
			c-7.819,27.933,33.774,59.665,47.467,22.267c-1.416,43.115-72.235,24.229-58.715-27.872
			C522.616,494.284,586.303,471.814,583.874,508.718z"/>
	</g>
	<g>
		<path style="fill:#BFCBC2;" d="M544.706,828.404c-98.009-93.06,19.971-170.172,11.148-200.275
			c1.031-37.738-58.827-31.095-33.086,6.912c-44.84-38.87,47.367-75.648,52.718-3.173c0.894,30.377-21.271,52.086-37.418,76.829
			C514.853,744.258,520.457,796.956,544.706,828.404z"/>
	</g>
	<g>
		<path style="fill:#BFCBC2;" d="M446.507,382.177c1.359-47.755,65.169-44.067,80.638-4.431
			c21.922,47.807-17.802,115.791-72.575,100.336c46.868,2.536,76.059-59.228,54.737-99.774
			C494.757,350.913,454.907,349.56,446.507,382.177z"/>
	</g>
	<g>
		<path style="fill:#BFCBC2;" d="M517.731,329.969c-19.149-54.239,81.25-55.246,67.006,22.537
			c-3.986,18.071-12.828,30.793-24.89,45.025c-77.053,70.738,4.333,104.933,16.844,61.119
			c-8.063,63.842-104.262,14.865-53.835-52.52C625.74,302.484,510.97,275.388,517.731,329.969z"/>
	</g>
	<g>
		<path style="fill:#BFCBC2;" d="M470.864,305.199c-122.299,57.606-22.684,187.771,34.38,106.911
			c-11.63,45.999-73.962,50.999-100.064,8.382C373.872,368.71,417.868,310.273,470.864,305.199z"/>
	</g>
	<g>
		<path style="fill:#BFCBC2;" d="M333.636,340.441c43.117-71.107,125.471,51.83,29.519,102.01
			C431.04,381.074,375.354,292.945,333.636,340.441z"/>
	</g>
	<g>
		<path style="fill:#BFCBC2;" d="M356.191,370.138c5.035,46.745-66.662,34.168-49.539-10.242
			c39.573-61.307,113.516,32.945,71.277,67.714c22.872-27.084-24.892-94.734-56.636-63.496
			C305.285,388.968,349.979,408.033,356.191,370.138z"/>
	</g>
	<g>
		<path style="fill:#BFCBC2;" d="M257.053,371.7c-6.21,23.054,25.92,41.583,43.086,15.361c12.186-18.122-1.46-50.259-25.108-36.633
			c26.153-24.877,53.372,23.782,29.951,47.388C285.655,421.496,242.098,403.205,257.053,371.7z"/>
	</g>
	<g>
		<path style="fill:#BFCBC2;" d="M582.599,295.809c-52.549-64.217-137.207-6.462-177.987,23.404
			C476.66,228.12,560.104,242.012,582.599,295.809z"/>
	</g>
	<g>
		<path style="fill:#BFCBC2;" d="M592.026,266.39c-4.777-24.852-31-43.392-54.948-39.933
			C563.317,215.833,594.27,237.582,592.026,266.39z"/>
	</g>
	<path style="fill:#BFCBC2;" d="M463.229,389.646c1.027-18.386,26.469-17.007,27.064,0.001
		C489.267,408.032,463.825,406.652,463.229,389.646z"/>
	<path style="fill:#BFCBC2;" d="M571.486,529.477c-1.027-18.386-26.469-17.006-27.064,0.001
		C545.448,547.863,570.891,546.484,571.486,529.477z"/>
	<path style="fill:#BFCBC2;" d="M342.944,374.61c-0.244-9.277-14.26-10.038-15.036,0.001
		C328.153,383.887,342.168,384.649,342.944,374.61z"/>
	<path style="fill:#BFCBC2;" d="M488.79,573.081c-0.695-13.952-20.386-13.423-21.05,0.001
		C468.435,587.033,488.126,586.504,488.79,573.081z"/>
</g>
<g id="Layer_4">
	<g>
		<g>
			<path style="fill:#FFB400;" d="M575.62,203.58v179.87v321.554v81.731v419.213c0,22.492,0.236,45.323,0.463,67.403
				c0.482,46.737,0.981,95.065-0.757,141.978c-1.463,39.501-0.494,79.109,0.443,117.414c0.152,6.229,0.305,12.457,0.447,18.685
				c1.397,61.206,1.809,121.067-8.367,180.509c-5.55,32.42-13.681,63.165-24.173,91.7c5.879-29.551,6.219-52.074,6.112-59.959
				c-0.986-74.368-31.677-130.248-49.891-156.951c-18.602-27.247-41.533-50.753-68.422-70.184
				c6.1-11.488,11.779-23.169,16.987-34.95c32.774-74.141,41.011-137.871,46.64-196.793
				c13.382-140.098,13.184-251.186,13.119-287.686c-0.185-112.345-3.744-209.962-20.51-321.202
				c-8.005-53.182-20.403-111.031-56.604-173.678c-20.02-34.655-47.439-82.118-105.333-111.217
				c-21.413-10.758-55.735-23.583-97.638-23.583c-19.385,0-38.55,2.825-56.954,8.395c-32.762,9.905-59.712,25.108-80.568,45.396
				c10.599-12.598,23.713-24.15,39.202-34.509c22.963-15.358,50.383-27.336,79.299-34.641
				c58.453-14.768,126.327-33.698,157.894-44.037c27.009-8.858,97.474-35.365,168.288-90.048
				C549.246,227.216,562.701,215.732,575.62,203.58 M243.199,1642.118c22.004,0.001,41.505,4.593,59.619,14.039
				c5.722,2.984,17.628,9.192,29.906,20.312c14.571,13.196,24.5,28.783,29.508,46.312c3.653,12.811,10.052,45.939-9.385,76.812
				c-9.917,15.76-24.359,27.56-42.925,35.074c-1.079,0.437-2.144,0.847-3.193,1.233c5.518-11.006,10.604-25.108,13.332-42.722
				c4.379-28.395,0.665-55.257-11.031-79.823c-4.32-9.088-16.693-31.923-38.229-47.658c-16.701-12.196-37.616-19.195-60.858-20.426
				C219.883,1643.521,231.157,1642.118,243.199,1642.118 M610.62,112.433c-35.29,46.52-71.06,78.04-96.72,97.86
				c-71.82,55.46-142.25,79.39-157.8,84.49c-29.25,9.58-95.28,28.13-155.56,43.36c-107.99,27.28-203.8,113.49-169,235.23
				c6.61,23.14,19.11,46.01,40.08,57.8c8.17,4.59,16.94,7.18,26.02,8.25c-7.82-14.02-14.46-30.71-17.8-50.06
				c-2.66-15.37-8.81-54.38,12.96-93.87c26.05-47.26,73.56-61.64,88.51-66.16c16.404-4.964,32.188-6.897,46.825-6.897
				c38.081,0,68.424,13.074,81.925,19.858c47.55,23.9,70.44,62.31,90.74,97.449c35.67,61.73,45.88,118.73,52.3,161.38
				c15.48,102.71,19.92,194.85,20.12,316.05c0.08,44.89-0.33,152.07-12.96,284.3c-5.301,55.49-12.801,115.821-43.81,185.97
				c-10.62,24.02-21.87,44.36-31.89,60.67c29.44,16.41,61.04,41.16,86.43,78.35c11.91,17.46,42.87,67.561,43.8,137.68
				c0.17,12.52-0.4,147.16-114.88,217.26c-39.083,23.927-82.908,35.106-125.748,35.106c-41.309,0-81.7-10.384-116.092-29.745
				c-20.77-11.69-84.14-47.36-98.79-121.14c-10.09-50.77,3.85-114.8,51.4-152.44c24.723-19.566,59.929-33.109,91.78-33.109
				c17.736,0,34.427,4.196,47.7,13.889c16.15,11.801,25.33,30.36,27.26,34.42c12.76,26.8,9.31,51.29,8.05,59.46
				c-1.4,9.04-5.38,32.63-25.03,53.64c-12.36,13.21-26.36,20.531-37.73,24.62c13.874,6.079,31.399,11.028,51.744,11.028
				c3.016,0,6.09-0.108,9.227-0.338c6.45-0.47,65.61-5.831,98.79-58.561c28.32-44.979,17.19-91.83,13.42-105.05
				c-16.1-56.36-64.06-81.37-76.89-88.06c-26.42-13.778-52.641-18.003-75.8-18.004c-24.123-0.001-44.925,4.582-59.2,7.724
				c-22.29,4.9-95.65,21.05-144.84,91.19c-58.38,83.24-35.16,174.72-31.74,187.3c16.96,62.39,56.58,99.06,70.18,111.31
				c59.918,54.001,133.639,65.586,186.351,65.586c28.259,0,50.474-3.328,61.299-5.234
				c164.366-28.944,250.666-172.759,277.097-327.152c10.696-62.478,10.284-124.859,8.86-187.214
				c-1.02-44.673-2.559-89.333-0.904-134.005c2.594-70.035,0.317-140.585,0.317-210.677c0-139.738,0-279.475,0-419.213
				c0-27.243,0-54.489,0-81.731c0-0.002,0-321.554,0-321.554V112.433L610.62,112.433z"/>
		</g>
	</g>
</g>
<g id="Layer_6">
	<g>
		<g>
			<path style="fill:#480000;" d="M232.413,582.395c-16.073,0-29.15-13.077-29.15-29.15s13.077-29.15,29.15-29.15
				s29.149,13.077,29.149,29.15S248.486,582.395,232.413,582.395z"/>
			<path style="fill:#480000;" d="M232.413,530.596c12.489,0,22.65,10.161,22.65,22.65c0,12.489-10.161,22.65-22.65,22.65
				c-12.489,0-22.65-10.161-22.65-22.65C209.763,540.756,219.924,530.596,232.413,530.596 M232.413,517.596
				c-19.689,0-35.65,15.961-35.65,35.65c0,19.689,15.961,35.65,35.65,35.65c19.689,0,35.65-15.961,35.65-35.65
				C268.063,533.557,252.102,517.596,232.413,517.596L232.413,517.596z"/>
		</g>
	</g>
	<g>
		<g>
			<path style="fill:#480000;" d="M232.413,2161.419c-16.073,0-29.15-13.076-29.15-29.149s13.077-29.15,29.15-29.15
				s29.149,13.077,29.149,29.15S248.486,2161.419,232.413,2161.419z"/>
			<path style="fill:#480000;" d="M232.413,2109.619c12.489,0,22.65,10.161,22.65,22.65s-10.161,22.65-22.65,22.65
				c-12.489,0-22.65-10.161-22.65-22.65S219.924,2109.619,232.413,2109.619 M232.413,2096.619c-19.689,0-35.65,15.961-35.65,35.65
				s15.961,35.65,35.65,35.65c19.689,0,35.65-15.961,35.65-35.65S252.102,2096.619,232.413,2096.619L232.413,2096.619z"/>
		</g>
	</g>
	<g>
		<g>
			<rect x="227.913" y="552.256" style="fill:#480000;" width="9" height="1573.514"/>
			<polygon style="fill:#480000;" points="243.413,545.756 221.413,545.756 221.413,2132.269 243.413,2132.269 243.413,545.756 			
				"/>
		</g>
	</g>
	<g>
		<g>
			<path style="fill:#480000;" d="M594.62,156.942v226.507v321.553v81.731v419.213c0,22.394,0.235,45.177,0.462,67.208
				c0.484,46.957,0.986,95.514-0.769,142.876c-1.441,38.912-0.48,78.22,0.45,116.233c0.152,6.243,0.305,12.486,0.448,18.729
				c1.419,62.17,1.827,123.036-8.635,184.149c-13.679,79.906-42.629,150.291-83.72,203.545
				c-46.68,60.498-107.369,97.692-180.381,110.549c-12.932,2.277-33.583,4.991-58.525,4.991c-30.444,0-59.352-3.998-85.921-11.881
				c-34.321-10.184-64.507-26.869-89.72-49.593c-5.496-4.951-18.367-16.544-31.689-34.498
				c-15.677-21.128-27.035-44.384-33.759-69.121c-4.319-15.884-23.196-98.922,29.4-173.916c19.375-27.628,45.104-49.46,76.47-64.89
				c25.56-12.574,47.947-17.495,58.728-19.865c14.083-3.101,33.369-7.347,55.741-7.346c24.789,0.001,47.803,5.448,68.403,16.192
				c5.922,3.088,19.79,10.319,33.876,23.076c17.241,15.614,29.026,34.183,35.025,55.185c4.353,15.263,11.938,54.795-11.576,92.141
				c-28.733,45.663-80.592,50.7-86.416,51.124c-2.678,0.196-5.389,0.295-8.058,0.295c-3.625,0-7.241-0.18-10.843-0.54
				c2.97-2.562,5.811-5.29,8.515-8.179c23.412-25.032,27.735-52.947,29.157-62.13c3.788-24.559,0.619-47.698-9.413-68.769
				c-3.7-7.782-14.25-27.302-32.274-40.471c-15.2-11.1-34.958-16.967-57.136-16.967c-34.239,0-73.212,14.01-101.71,36.563
				c-57.764,45.725-66.895,119.134-57.163,168.102c16.084,81.001,84.239,119.361,106.635,131.966
				c36.958,20.806,79.817,31.803,123.942,31.803c47.701,0,94.073-12.954,134.103-37.461
				c121.128-74.171,122.738-215.277,122.523-231.117c-0.92-69.387-29.579-121.56-46.584-146.489
				c-20.462-29.971-46.561-55.109-77.736-74.9c9.067-15.828,17.32-32.128,24.616-48.63c31.627-71.547,39.624-133.546,45.103-190.918
				c13.294-139.18,13.097-249.573,13.032-285.848c-0.184-111.5-3.706-208.318-20.298-318.405
				c-5.199-34.54-14.876-98.833-54.267-167.002c-19.869-34.393-44.596-77.197-97.412-103.744
				c-16.027-8.052-48.916-21.56-89.108-21.56c-17.52,0-34.833,2.552-51.456,7.582c-45.577,13.781-78.512,38.594-97.891,73.751
				c-24.939,45.239-17.243,89.709-14.715,104.316c0.924,5.353,2.101,10.652,3.529,15.888c-10.88-11.249-17.151-26.648-20.678-38.998
				c-11.993-41.953-7.812-81.044,12.426-116.188c13.547-23.525,33.701-44.339,59.902-61.863
				c24.747-16.551,54.211-29.439,85.208-37.269c58.095-14.678,125.427-33.451,156.627-43.669
				c26.075-8.552,94.117-34.152,162.594-87.031C549.12,203.306,572.864,181.202,594.62,156.942 M610.62,112.433
				c-35.29,46.52-71.06,78.04-96.72,97.86c-71.82,55.46-142.25,79.39-157.8,84.49c-29.25,9.58-95.28,28.13-155.56,43.36
				c-107.99,27.28-203.8,113.49-169,235.23c6.61,23.14,19.11,46.01,40.08,57.8c8.17,4.59,16.94,7.18,26.02,8.25
				c-7.82-14.02-14.46-30.71-17.8-50.06c-2.66-15.37-8.81-54.38,12.96-93.87c26.05-47.26,73.56-61.64,88.51-66.16
				c16.404-4.964,32.188-6.897,46.825-6.897c38.08,0,68.424,13.074,81.925,19.857c47.55,23.9,70.44,62.31,90.74,97.45
				c35.67,61.73,45.88,118.73,52.3,161.38c15.48,102.71,19.92,194.85,20.12,316.05c0.08,44.89-0.33,152.07-12.96,284.3
				c-5.3,55.49-12.8,115.82-43.81,185.97c-10.62,24.02-21.87,44.36-31.89,60.67c29.44,16.41,61.04,41.16,86.43,78.35
				c11.91,17.46,42.87,67.56,43.8,137.68c0.17,12.52-0.4,147.16-114.88,217.26c-39.083,23.927-82.908,35.106-125.747,35.106
				c-41.309,0-81.7-10.385-116.093-29.746c-20.77-11.69-84.14-47.36-98.79-121.14c-10.09-50.77,3.85-114.8,51.4-152.44
				c24.723-19.565,59.929-33.109,91.78-33.109c17.736,0,34.427,4.196,47.7,13.889c16.15,11.8,25.33,30.36,27.26,34.42
				c12.76,26.8,9.31,51.29,8.05,59.46c-1.4,9.04-5.38,32.63-25.03,53.64c-12.36,13.21-26.36,20.53-37.73,24.62
				c13.874,6.079,31.399,11.028,51.744,11.028c3.016,0,6.09-0.108,9.227-0.338c6.45-0.47,65.61-5.83,98.79-58.56
				c28.32-44.98,17.19-91.83,13.42-105.05c-16.1-56.36-64.06-81.37-76.89-88.06c-26.42-13.778-52.641-18.003-75.8-18.004
				c-24.123-0.001-44.925,4.581-59.2,7.724c-22.29,4.9-95.65,21.05-144.84,91.19c-58.38,83.24-35.16,174.72-31.74,187.3
				c16.96,62.39,56.58,99.06,70.18,111.31c59.918,54.001,133.639,65.586,186.35,65.586c28.258,0,50.474-3.328,61.299-5.234
				c164.366-28.944,250.666-172.759,277.097-327.151c10.696-62.478,10.284-124.859,8.86-187.214
				c-1.02-44.673-2.559-89.332-0.904-134.005c2.594-70.035,0.317-140.585,0.317-210.677c0-139.738,0-279.475,0-419.213
				c0-27.243,0-54.49,0-81.731c0-0.002,0-321.553,0-321.553V112.433L610.62,112.433z"/>
		</g>
	</g>
	<g>
		<g>
			<path style="fill:#480000;" d="M662.15,1151.161c-2.481,0-4.5-2.019-4.5-4.5V186.988c0-12.521-0.373-25.565-0.734-38.18
				c-0.802-28.023-1.63-56.937,1.35-84.292c2.28-20.934,12.761-46.418,35.339-55.16C698.5,7.461,703.758,6.5,709.234,6.5
				c17.532,0,34.621,9.583,44.598,25.008c8.722,13.484,11.04,29.474,6.204,42.772c-5.081,13.971-18.919,24.112-32.901,24.112
				c-1.046,0-2.098-0.058-3.125-0.171c-9.396-1.04-17.019-6.143-21.463-14.37c-5.321-9.852-5.331-22.968-0.025-33.415
				c0.772-1.52,2.313-2.464,4.022-2.464c0.705,0,1.387,0.165,2.025,0.489c2.215,1.125,3.101,3.839,1.978,6.052
				c-4.01,7.891-4.041,17.728-0.081,25.06c3.042,5.632,8.067,8.987,14.533,9.703c0.718,0.079,1.45,0.119,2.181,0.119
				c10.306,0,20.566-7.65,24.397-18.191c3.821-10.505,1.79-23.843-5.302-34.807c-8.187-12.657-22.825-20.835-37.295-20.835
				c-4.293,0-8.372,0.736-12.125,2.188c-18.816,7.286-27.649,29.44-29.643,47.743c-2.912,26.733-2.094,55.33-1.303,82.984
				c0.364,12.702,0.74,25.822,0.74,38.512v959.673C666.65,1149.142,664.631,1151.161,662.15,1151.161z"/>
			<path style="fill:#480000;" d="M709.234,0c-6.128,0-12.216,1.065-17.977,3.295c-25.296,9.795-36.967,37.684-39.454,60.518
				c-3.027,27.796-2.193,56.938-1.387,85.12c0.36,12.589,0.733,25.607,0.733,38.054v959.673c0,6.075,4.925,11,11,11s11-4.925,11-11
				V186.988c0-12.762-0.377-25.94-0.742-38.684c-0.785-27.439-1.598-55.813,1.267-82.108c1.786-16.403,9.431-36.152,25.526-42.385
				c3.069-1.188,6.381-1.75,9.78-1.75c11.832,0,24.695,6.825,31.836,17.866c6.009,9.29,7.791,20.423,4.651,29.056
				c-2.895,7.964-10.873,13.912-18.289,13.912c-0.491,0-0.981-0.026-1.466-0.08c-4.372-0.484-7.489-2.555-9.529-6.331
				c-2.931-5.426-2.868-13.073,0.157-19.028c2.751-5.417,0.591-12.038-4.826-14.789c-1.595-0.811-3.296-1.195-4.972-1.195
				c-4.01,0-7.877,2.201-9.817,6.021c-6.243,12.291-6.203,27.776,0.102,39.448c5.488,10.159,14.887,16.46,26.466,17.741
				c1.279,0.142,2.561,0.211,3.841,0.211c16.592,0,32.917-11.641,39.009-28.391c5.528-15.201,2.966-33.34-6.854-48.524
				C747.895,10.36,728.358,0,709.234,0L709.234,0z"/>
		</g>
	</g>
	<g>
		<g>
			<path style="fill:#480000;" d="M269.09,1990.079c-44.62,0.002-85.188-13.369-117.318-38.667
				c-6.28-4.944-19.347-15.233-32.242-31.619c-16.057-20.403-26.228-43.166-30.23-67.656c-5.77-35.299,2.683-65.316,10.789-84.281
				c0.71-1.662,2.336-2.735,4.143-2.735c0.604,0,1.197,0.123,1.763,0.365c1.106,0.473,1.961,1.348,2.409,2.463
				c0.448,1.116,0.434,2.339-0.039,3.444c-7.636,17.868-15.602,46.128-10.182,79.292c8.83,54.026,46.709,83.854,59.156,93.655
				c38.509,30.321,82.192,36.686,112.056,36.686c9.773,0,19.618-0.658,29.26-1.958c95.699-12.894,146.816-93.019,156.092-108.949
				c0.816-1.401,2.273-2.238,3.898-2.238c0.797,0,1.557,0.207,2.256,0.613c1.039,0.604,1.779,1.577,2.086,2.739
				c0.307,1.162,0.143,2.374-0.462,3.413c-5.247,9.012-20.169,32.507-45.361,55.987c-34.577,32.229-74.044,51.525-117.306,57.354
				C289.55,1989.375,279.199,1990.079,269.09,1990.079L269.09,1990.079z"/>
			<path style="fill:#480000;" d="M104.23,1758.62c-4.272,0-8.336,2.505-10.12,6.68c-8.445,19.758-17.248,51.044-11.227,87.885
				c4.182,25.587,14.792,49.35,31.538,70.627c13.375,16.995,26.852,27.606,33.329,32.707c33.352,26.259,75.593,40.06,121.33,40.06
				c0.003,0,0.007,0,0.01,0c10.383,0,20.955-0.712,31.633-2.15c44.623-6.012,85.289-25.876,120.87-59.041
				c25.827-24.072,41.155-48.211,46.546-57.472c3.057-5.25,1.278-11.984-3.972-15.04c-1.742-1.014-3.646-1.496-5.526-1.496
				c-3.787,0-7.472,1.958-9.515,5.468c-9.008,15.472-58.639,93.288-151.342,105.778c-7.806,1.052-17.483,1.899-28.392,1.899
				c-30.987,0-71.902-6.842-108.033-35.291c-11.957-9.415-48.341-38.064-56.764-89.598c-5.168-31.623,2.446-58.614,9.744-75.689
				c2.388-5.586-0.206-12.051-5.792-14.438C107.138,1758.906,105.673,1758.62,104.23,1758.62L104.23,1758.62z"/>
		</g>
	</g>
</g>
</svg>
