<?xml version="1.0" encoding="iso-8859-1"?>
<!-- Generator: Adobe Illustrator 24.0.1, SVG Export Plug-In . SVG Version: 6.00 Build 0)  -->
<svg version="1.1" xmlns="http://www.w3.org/2000/svg" xmlns:xlink="http://www.w3.org/1999/xlink" x="0px" y="0px"
	 viewBox="0 0 1435.142 2183.88" style="enable-background:new 0 0 1435.142 2183.88;" xml:space="preserve">
<g id="Layer_5">
	<linearGradient id="SVGID_1_" gradientUnits="userSpaceOnUse" x1="651.3318" y1="1180.4103" x2="640.2208" y2="97.077">
		<stop  offset="0" style="stop-color:#8B1D1A"/>
		<stop  offset="0.25" style="stop-color:#550000"/>
		<stop  offset="0.5" style="stop-color:#3A0000"/>
		<stop  offset="0.75" style="stop-color:#1E0000"/>
		<stop  offset="1" style="stop-color:#000000"/>
	</linearGradient>
	<path style="fill:url(#SVGID_1_);" d="M266.835,1726.29c1.24-5.07,8.79-36.03-11.18-61.51c-20.04-25.57-51.82-25.24-54.53-25.17
		c-104.19,2.84-94.06,159.53-69.11,224c32.91,85.05,101.29,155.72,185.21,191.41c99.05,42.12,220.62,33.99,315.58-15.36
		c109.22-56.77,156.01-169.5,173.19-286.69c11.03-75.22,7.53-150.01,7.2-225.65c-0.91-209.1,0.86-418.85,0.86-628.16
		c0-163.96,0-569.3,0-569.3l484.1-147.6c-0.79,9.24-3.17,33.9-7.94,43.54c-4.58,9.24-10.45,16.58-16.32,22.28l-224.62,68.49
		c-42.93,13.1-72.27,52.71-72.27,97.59c0,18.69,0,37.37,0,56.06c0,91.37,0,167.75,0,259.12c0,123.36,0,246.73,0,370.09
		c0,105.39,0,210.79,0,316.18c0,130.15-2.67,258.17-46.75,382.8c-27.21,76.92-66.94,132.76-88.2,159.2
		c-24.86,30.91-76.57,95.22-167.44,137.42c-97.85,45.45-184.52,44.66-254.16,40.02c-73.54-4.91-149.59-14.99-230.4-66.14
		c-77.44-49.02-121.15-116.96-144.18-165.33l-0.96-2.39c-18.64-33.01-54.92-108.79-42.31-202.86
		c4.29-31.99,11.02-82.21,51.73-125.83c38.97-41.75,86.88-53.66,107.65-57.32c18.65-3.28,77.38-12.67,132.81,23.77
		c14.18,9.33,60.88,40.03,69.91,99.26c1.01,6.66,9.92,72.18-36.35,113.25c-26.46,23.49-64.01,32.8-101.82,26.58
		C247.285,1764.98,261.815,1746.91,266.835,1726.29z"/>
	<linearGradient id="SVGID_2_" gradientUnits="userSpaceOnUse" x1="547.8366" y1="1181.4718" x2="536.7255" y2="98.1385">
		<stop  offset="0" style="stop-color:#8B1D1A"/>
		<stop  offset="0.25" style="stop-color:#550000"/>
		<stop  offset="0.5" style="stop-color:#3A0000"/>
		<stop  offset="0.75" style="stop-color:#1E0000"/>
		<stop  offset="1" style="stop-color:#000000"/>
	</linearGradient>
	<path style="fill:url(#SVGID_2_);" d="M752.375,407.1c-48.45,14.77-97.31,28.58-145.45,44.34
		c-101.37,33.18-200.01,110.071-199.13,228.87c0.169,22.794,25.1,46,46.78,38.96c22.02-7.16,23.06-35.59,19.05-56.68
		c73.74,6.9,112.49,106.73,49.39,158.6c-37.14,30.53-95.13,27.93-134.02-0.33c-38.89-28.27-59.14-77.63-59.22-125.71
		c-0.08-48.08,18.03-94.78,43.68-135.44c29.38-46.57,69.36-86.22,115.62-115.98c77.44-49.82,175.92-68.41,263.3-95.06V407.1z"/>
</g>
<g id="Layer_7">
	<g>
		<path style="fill:#BFCBC2;" d="M234.304,1600.137c23.268-42.476-37.503-67.385-45.55-24.981
			c0.037,12.631,10.211,17.295,17.846,23.817c5.33,19.968-3.631,31.142-21.573,17.954c-38.753-27.425-20.797-81.242,24.184-81.222
			C243.866,1535.307,257.502,1579.874,234.304,1600.137z"/>
	</g>
	<g>
		<path style="fill:#BFCBC2;" d="M148.406,1582.87c-23.902-27.502-72.212-6.47-55.731,30.641
			c25.045,24.786,47.274,49.411,32.29,84.44c-6.691,8.081-23.041-1.73-27.972-9.913c1.216-9.94,3.814-25.837-7.211-36.826
			C28.264,1593.196,109.446,1521.38,148.406,1582.87z"/>
	</g>
	<g>
		<path style="fill:#BFCBC2;" d="M275.604,1671.368c47.128-5.629,57.984-80.583,9.217-64.35
			c-6.558,4.146-3.626,23.134-12.598,36.132c-19.16,22.455-27.37,16.095-27.434-15.843c9.952-37.749,31.129-66.636,74.01-41.147
			C354.203,1615.57,326.633,1675.873,275.604,1671.368z"/>
	</g>
	<g>
		<path style="fill:#BFCBC2;" d="M471.075,805.641c38.395-15.393,8.216-72.426-22.348-18.459
			c-5.284,6.242-12.595,13.46-23.263,14.59c-52.712,2.21-35.852-75.36,7.231-50.202c-37.53-11.939-39.919,46.363-4.265,33.518
			C488.314,701.014,525.759,798.22,471.075,805.641z"/>
	</g>
	<g>
		<path style="fill:#BFCBC2;" d="M416.123,727.685c-21.162-6.939-47.667,11.576-39.892,39.161
			C361.595,743.005,388.581,711.081,416.123,727.685z"/>
	</g>
	<g>
		<path style="fill:#BFCBC2;" d="M910.254,1023.48c-8.317,37.628-39.914,84.64-78.624,97.809
			c-9.554-6.971-11.117-17.223,0.941-20.939C864.485,1083.1,893.583,1054.062,910.254,1023.48z"/>
	</g>
	<g>
		<path style="fill:#BFCBC2;" d="M908.189,1074.833c-2.682,35.936-29.495,83.269-65.855,96.315
			c-9.013-6.243-10.68-15.818,0.361-19.553C871.762,1134.708,896.726,1105.212,908.189,1074.833z"/>
	</g>
	<g>
		<path style="fill:#BFCBC2;" d="M896.51,1147.898c-16.454,79.157-85.185,75.388-52.779,53.497
			C865.598,1191.356,887.126,1170.026,896.51,1147.898z"/>
	</g>
	<g>
		<path style="fill:#BFCBC2;" d="M907.458,1289.353c-40.833-105.663,61.968-259.382-1.411-290.192
			c-3.332-3.606-8.523-12.706,0.3-17.465C1018.975,979.767,874.285,1226.046,907.458,1289.353z"/>
	</g>
	<g>
		<path style="fill:#BFCBC2;" d="M952.59,959.223c-8.98-59.971-81.729-40.704-102.82,3.949
			c-29.125,45.277,0.975,89.206,37.565,70.212c-54.381,39.846-85.108-45.219-51.239-85.312
			C877.876,880.665,960.68,901.533,952.59,959.223z"/>
	</g>
	<g>
		<path style="fill:#BFCBC2;" d="M937.421,822.47c45.103,105.455-100.192,138.069-97.045,51.339
			C860.414,949.112,956.442,902.068,937.421,822.47z"/>
	</g>
	<g>
		<path style="fill:#BFCBC2;" d="M945.484,819.228c-8.376-42.263-64.052-39.512-71.605,5.444
			c-5.666,31.555,34.572,80.87,62.466,53.661c-29.097,42.54-90.03-19.857-78.289-59.373
			C873.171,756.869,949.881,770.096,945.484,819.228z"/>
	</g>
	<g>
		<path style="fill:#BFCBC2;" d="M944.004,780.254c-38.607-70.738-107.098,2.018-107.296,56.792
			C823.413,729.036,936.95,714.854,944.004,780.254z"/>
	</g>
	<g>
		<path style="fill:#BFCBC2;" d="M874.207,709.418c42.908,44.797,89.055-45.788,32.17-70.231
			c-59.694-2.306-73.777,109.936,1.221,104.576c-107.053,25.701-81.235-152.753,9.62-127.455
			C1008.123,668.339,908.041,776.409,874.207,709.418z"/>
	</g>
	<g>
		<path style="fill:#BFCBC2;" d="M931.513,540.736c64.526,56.494-67.447,134.412-90.823,40.133
			C883.076,656.364,971.207,582.688,931.513,540.736z"/>
	</g>
	<g>
		<path style="fill:#BFCBC2;" d="M949.013,539.473c-3.835-94.387-148.4,11.707-71.254,53.555
			c-53.882-9.533-31.18-81.357,7.513-97.797C916.857,477.034,964.876,500.903,949.013,539.473z"/>
	</g>
	<g>
		<path style="fill:#BFCBC2;" d="M884.969,451.282c-39.797,50.034-74.823-61.548,5.995-45.768
			c58.318,22.349-1.528,136.295-53.14,94.612c36.876,20.358,75.085-44.257,53.113-74.356
			C843.28,397.559,841.03,482.417,884.969,451.282z"/>
	</g>
	<g>
		<path style="fill:#BFCBC2;" d="M969.574,408.795c-37.258-50.351-101.27,76.934-18.761,79.508
			c-32.485,13.218-63.818-28.586-48.684-60.926C909.866,399.383,955.478,370.617,969.574,408.795z"/>
	</g>
	<g>
		<path style="fill:#BFCBC2;" d="M931.061,309.87c-48.037,18.112-8.114,82.49-27.808,117.137
			C909.704,391.98,872.906,318.097,931.061,309.87z"/>
	</g>
	<g>
		<path style="fill:#BFCBC2;" d="M993.707,317.264c-58.347-6.376-80.124,60.081-89.168,102.154
			C900.038,343.282,947.806,299.086,993.707,317.264z"/>
	</g>
	<g>
		<path style="fill:#BFCBC2;" d="M824.269,376.114c20.572-65.116,113.184-16.678,73.925,39.796
			C917.948,367.277,854.223,326.457,824.269,376.114z"/>
	</g>
	<g>
		<path style="fill:#BFCBC2;" d="M904.884,595.64c37.899-27.975,8.044-81.694-27.963-57.872
			C918.313,498.461,956.293,575.694,904.884,595.64z"/>
	</g>
	<path style="fill:#BFCBC2;" d="M882.98,564.936c1.078-19.308,27.796-17.86,28.422,0.001
		C910.324,584.245,883.605,582.796,882.98,564.936z"/>
	<path style="fill:#BFCBC2;" d="M914.402,679.071c-1.319-21.943-31.351-19.978-31.975,0.001
		C883.746,701.014,913.778,699.049,914.402,679.071z"/>
	<path style="fill:#BFCBC2;" d="M897.191,836.721c1.319-21.943,31.351-19.978,31.975,0.001
		C927.847,858.664,897.814,856.698,897.191,836.721z"/>
	<g>
		<path style="fill:#BFCBC2;" d="M946.202,981.113c-24.249-55.962-102.003-11.939-62.391,37.974
			C822.776,968.805,929.51,903.139,946.202,981.113z"/>
	</g>
</g>
<g id="Layer_4">
	<g>
		<g>
			<path style="fill:#FFB400;" d="M984.918,314.355c-26.85,25.222-42.913,60.865-42.913,99.805v56.06v259.12v370.09v316.18
				c0,133.832-3.367,254.133-44.746,371.128c-25.48,72.029-62.613,124.233-82.494,148.959
				c-11.921,14.821-29.935,37.219-55.398,60.655c-26.449,24.344-55.444,44.656-86.357,60.517
				c90.614-57.515,146.954-157.885,167.615-298.82c9.451-64.451,8.688-128.525,7.95-190.489c-0.158-13.248-0.321-26.948-0.38-40.392
				c-0.547-125.79-0.116-253.992,0.3-377.973c0.275-81.963,0.56-166.717,0.56-250.034V355.779L984.918,314.355 M200.186,1546.634
				c28.257,0,53.619,7.254,75.393,21.569c11.835,7.787,47.849,31.483,54.522,75.255c0.237,1.562,2.236,15.758-0.435,33.164
				c-3.169,20.647-11.427,37.02-24.547,48.665c-0.909,0.807-1.839,1.59-2.792,2.35c5.713-31.011-1.104-61.454-19.124-84.446
				c-28.063-35.807-69.274-38.59-81.236-38.59c-0.8,0-1.385,0.012-1.735,0.021l-0.03,0.001l-0.03,0
				c-39.02,1.064-70.763,18.333-91.796,49.942c-41.34,62.124-30.15,167.029-9.002,221.675
				c31.703,81.93,91.898,150.656,168.128,193.307c-19.273-7.776-38.854-17.633-58.726-30.211
				c-69.88-44.235-109.674-105.704-130.839-149.84l-0.545-1.356l-0.862-2.146l-1.137-2.014
				c-12.845-22.747-22.826-46.576-29.665-70.824c-10.436-36.999-13.273-74.068-8.431-110.186
				c4.026-30.022,9.54-71.138,42.625-106.588c30.329-32.493,68.239-43.227,88.127-46.731
				C173.18,1548.748,185.198,1546.634,200.186,1546.634 M1298.155,182.26l-484.1,147.6c0,0,0,405.34,0,569.3
				c0,209.31-1.77,419.06-0.86,628.16c0.33,75.64,3.83,150.43-7.2,225.65c-17.18,117.19-63.969,229.92-173.19,286.69
				c-53.542,27.826-115.531,42.545-177.186,42.545c-47.693,0-95.193-8.813-138.394-27.185c-83.92-35.69-152.3-106.36-185.21-191.41
				c-24.95-64.47-35.08-221.16,69.11-224c0.17-0.004,0.453-0.01,0.841-0.01c5.803,0,34.904,1.211,53.689,25.18
				c19.97,25.48,12.42,56.44,11.18,61.51c-5.02,20.62-19.55,38.69-40.3,51.75c7.641,1.257,15.265,1.879,22.795,1.879
				c29.732,0,57.912-9.716,79.025-28.459c46.27-41.07,37.36-106.59,36.35-113.25c-9.03-59.23-55.73-89.93-69.91-99.26
				c-33.531-22.043-68.266-27.316-94.609-27.316c-17.205,0-30.832,2.25-38.201,3.546c-20.77,3.66-68.68,15.57-107.65,57.32
				c-40.71,43.62-47.44,93.84-51.73,125.83c-12.61,94.07,23.67,169.85,42.31,202.86l0.96,2.39
				c23.03,48.37,66.74,116.31,144.18,165.33c80.81,51.15,156.86,61.23,230.4,66.14c17.572,1.171,36.214,2.096,55.86,2.096
				c58.216,0,125.139-8.134,198.3-42.116c90.87-42.2,142.58-106.51,167.44-137.42c21.26-26.44,60.99-82.28,88.2-159.2
				c44.08-124.63,46.75-252.65,46.75-382.8c0-105.39,0-210.79,0-316.18c0-123.36,0-246.73,0-370.09c0-91.37,0-167.75,0-259.12
				c0-18.69,0-37.37,0-56.06c0-44.88,29.34-84.49,72.27-97.59l224.62-68.49c5.87-5.7,11.74-13.04,16.32-22.28
				C1294.985,216.16,1297.365,191.5,1298.155,182.26L1298.155,182.26z"/>
		</g>
	</g>
	<g>
		<g>
			<path style="fill:#FFB400;" d="M378.625,626.25c-3.919,17.133-5.97,35.248-5.829,54.32c0.291,39.243,35.373,74.983,73.604,74.983
				c6.481,0,12.868-1.007,18.997-2.998c18.597-6.047,31.93-19.115,39.078-37.117c5.671,6.491,10.063,14.353,12.63,22.728
				c3.134,10.225,7.816,36.149-16.315,55.986c-10.93,8.984-25.966,13.932-42.338,13.932c-17.476,0-35.293-5.664-48.878-15.535
				c-27.567-20.039-44.733-57.383-44.8-97.458c-0.032-18.972,3.446-38.89,10.336-59.2
				C376.198,632.688,377.37,629.472,378.625,626.25 M752.375,348.67c-87.38,26.65-185.86,45.24-263.3,95.06
				c-46.26,29.76-86.24,69.41-115.62,115.98c-25.65,40.66-43.76,87.36-43.68,135.44c0.08,48.08,20.33,97.44,59.22,125.71
				c19.929,14.482,44.872,22.225,69.457,22.225c23.39,0,46.455-7.01,64.563-21.895c63.1-51.87,24.35-151.7-49.39-158.6
				c4.01,21.09,2.97,49.52-19.05,56.68c-2.693,0.874-5.435,1.282-8.175,1.282c-19.316,0-38.458-20.279-38.605-40.242
				c-0.88-118.799,97.76-195.69,199.13-228.87c48.14-15.76,97-29.57,145.45-44.34V348.67L752.375,348.67z"/>
		</g>
	</g>
</g>
<g id="Layer_6">
	<g>
		<g>
			<path style="fill:#480000;" d="M752.375,1758.237c-16.073,0-29.15-13.077-29.15-29.15s13.077-29.149,29.15-29.149
				s29.149,13.076,29.149,29.149S768.448,1758.237,752.375,1758.237z"/>
			<path style="fill:#480000;" d="M752.375,1706.437c12.489,0,22.65,10.161,22.65,22.65c0,12.489-10.161,22.65-22.65,22.65
				c-12.489,0-22.65-10.161-22.65-22.65C729.725,1716.598,739.885,1706.437,752.375,1706.437 M752.375,1693.437
				c-19.689,0-35.65,15.961-35.65,35.65c0,19.689,15.961,35.65,35.65,35.65c19.689,0,35.65-15.961,35.65-35.65
				C788.024,1709.398,772.063,1693.437,752.375,1693.437L752.375,1693.437z"/>
		</g>
	</g>
	<g>
		<g>
			<path style="fill:#480000;" d="M752.375,278.11c-16.073,0-29.15-13.076-29.15-29.149s13.077-29.15,29.15-29.15
				s29.149,13.077,29.149,29.15S768.448,278.11,752.375,278.11z"/>
			<path style="fill:#480000;" d="M752.375,226.31c12.489,0,22.65,10.161,22.65,22.65s-10.161,22.65-22.65,22.65
				c-12.489,0-22.65-10.161-22.65-22.65S739.885,226.31,752.375,226.31 M752.375,213.31c-19.689,0-35.65,15.961-35.65,35.65
				s15.961,35.65,35.65,35.65c19.689,0,35.65-15.961,35.65-35.65S772.063,213.31,752.375,213.31L752.375,213.31z"/>
		</g>
	</g>
	<g>
		<g>
			<rect x="747.875" y="255.46" style="fill:#480000;" width="9" height="1467.13"/>
			<polygon style="fill:#480000;" points="763.375,248.96 741.375,248.96 741.375,1729.09 763.375,1729.09 763.375,248.96 			"/>
		</g>
	</g>
	<g>
		<g>
			<path style="fill:#480000;" d="M1279.332,204.726c-1.35,7.974-2.652,12.351-3.452,13.968
				c-2.739,5.526-6.282,10.649-10.559,15.273l-220.715,67.299c-50.004,15.258-83.6,60.627-83.6,112.893v56.06v259.12v370.09v316.18
				c0,135.616-3.449,257.625-45.834,377.464c-26.418,74.682-64.961,128.861-85.602,154.53
				c-24.095,29.958-74.233,92.297-161.695,132.915c-59.673,27.718-120.542,40.627-191.56,40.627
				c-16.508,0-33.408-0.635-54.794-2.061c-32.576-2.175-71.081-5.693-109.677-15.292c-40.749-10.135-77.787-25.968-113.231-48.402
				c-73.987-46.834-115.902-111.811-138.078-158.242l-0.773-1.924l-0.394-0.981l-0.52-0.921
				c-13.59-24.066-24.156-49.303-31.407-75.009c-11.144-39.51-14.164-79.164-8.976-117.869
				c4.119-30.72,10.345-77.145,47.567-117.028c34.101-36.534,76.495-48.562,98.725-52.479c5.621-0.989,18.785-3.304,35.429-3.304
				c32.03,0,60.904,8.305,85.836,24.696c13.582,8.937,54.914,36.131,62.864,88.279c0.974,6.426,8.38,63.797-31.153,98.886
				c-13.727,12.186-31.375,20.136-50.872,23.111c7.431-10.025,12.714-21.008,15.516-32.514c3.203-13.098,8.239-46.643-14.129-75.181
				c-23.355-29.801-59.311-31.31-66.282-31.31c-0.582,0-1.006,0.009-1.277,0.016c-32.58,0.888-59.032,15.23-76.496,41.475
				c-37.164,55.85-26.207,154.922-7.101,204.293c34.707,89.694,105.37,162.722,193.871,200.36
				c43.785,18.619,93.806,28.46,144.655,28.46c64.917,0,128.738-15.335,184.565-44.348
				c99.031-51.474,160.145-151.926,181.642-298.566c9.233-62.967,8.479-126.278,7.75-187.504
				c-0.158-13.284-0.322-27.02-0.381-40.536c-0.547-125.864-0.116-254.105,0.3-378.123c0.276-81.947,0.56-166.683,0.56-249.967
				V341.709L1279.332,204.726 M1298.155,182.26l-484.1,147.6c0,0,0,405.34,0,569.3c0,209.31-1.77,419.06-0.86,628.16
				c0.33,75.64,3.83,150.43-7.2,225.65c-17.18,117.19-63.97,229.92-173.19,286.69c-53.543,27.826-115.531,42.545-177.186,42.545
				c-47.693,0-95.193-8.813-138.394-27.185c-83.92-35.69-152.3-106.36-185.21-191.41c-24.95-64.47-35.08-221.16,69.11-224
				c0.17-0.004,0.453-0.01,0.841-0.01c5.806,0,34.905,1.212,53.689,25.18c19.97,25.48,12.42,56.44,11.18,61.51
				c-5.02,20.62-19.55,38.69-40.3,51.75c7.641,1.257,15.265,1.879,22.795,1.879c29.732,0,57.912-9.716,79.025-28.459
				c46.27-41.07,37.36-106.59,36.35-113.25c-9.03-59.23-55.73-89.93-69.91-99.26c-33.531-22.043-68.266-27.316-94.609-27.316
				c-17.205,0-30.832,2.25-38.2,3.546c-20.77,3.66-68.68,15.57-107.65,57.32c-40.71,43.62-47.44,93.84-51.73,125.83
				c-12.61,94.07,23.67,169.85,42.31,202.86l0.96,2.39c23.03,48.37,66.74,116.31,144.18,165.33
				c80.81,51.15,156.86,61.23,230.4,66.14c17.572,1.171,36.214,2.096,55.86,2.096c58.216,0,125.139-8.134,198.3-42.116
				c90.87-42.2,142.58-106.51,167.44-137.42c21.26-26.44,60.99-82.28,88.2-159.2c44.08-124.63,46.75-252.65,46.75-382.8
				c0-105.39,0-210.79,0-316.18c0-123.36,0-246.73,0-370.09c0-91.37,0-167.75,0-259.12c0-18.69,0-37.37,0-56.06
				c0-44.88,29.34-84.49,72.27-97.59l224.62-68.49c5.87-5.7,11.74-13.04,16.32-22.28
				C1294.985,216.16,1297.365,191.5,1298.155,182.26L1298.155,182.26z"/>
		</g>
	</g>
	<g>
		<g>
			<path style="fill:#480000;" d="M736.375,370.092v25.14c-12.42,3.748-24.919,7.465-37.102,11.088
				c-31.968,9.507-65.024,19.339-97.325,29.913c-102.22,33.458-211.108,115.179-210.152,244.195
				c0.214,28.849,26.751,56.124,54.605,56.124c4.485,0,8.897-0.695,13.122-2.066c19.941-6.484,31.282-25.335,31.914-51.255
				c7.36,2.986,14.251,7.267,20.432,12.737c10.776,9.538,19.087,22.547,23.403,36.631c4.147,13.533,4.551,27.47,1.168,40.307
				c-3.692,14.008-11.627,26.095-23.584,35.924c-14.321,11.772-33.641,18.255-54.403,18.255c-21.714,0-43.041-6.807-60.049-19.167
				c-16.321-11.864-29.807-28.842-39.002-49.098c-8.877-19.556-13.589-41.582-13.626-63.697
				c-0.035-21.063,3.781-43.046,11.343-65.336c6.912-20.374,16.961-41.08,29.869-61.541
				c27.659-43.842,65.954-82.246,110.745-111.061c57.503-36.994,128.407-56.535,196.976-75.433
				C708.447,377.966,722.498,374.094,736.375,370.092 M752.375,348.67c-87.38,26.65-185.86,45.24-263.3,95.06
				c-46.26,29.76-86.24,69.41-115.62,115.98c-25.65,40.66-43.76,87.36-43.68,135.44c0.08,48.08,20.33,97.44,59.22,125.71
				c19.929,14.482,44.873,22.225,69.457,22.225c23.39,0,46.455-7.01,64.563-21.895c63.1-51.87,24.35-151.7-49.39-158.6
				c4.01,21.09,2.97,49.52-19.05,56.68c-2.693,0.875-5.435,1.282-8.175,1.282c-19.316,0-38.457-20.279-38.605-40.242
				c-0.88-118.799,97.76-195.69,199.13-228.87c48.14-15.76,97-29.57,145.45-44.34V348.67L752.375,348.67z"/>
		</g>
	</g>
	<g>
		<g>
			<path style="fill:#480000;" d="M458.519,2177.38c-2.043,0-4.089-0.009-6.141-0.026c-93.51-0.798-177.677-19.594-250.161-55.864
				C117.58,2079.137,50.56,2009.956,8.403,1921.423c-1.067-2.24-0.112-4.931,2.128-5.998c0.611-0.291,1.26-0.438,1.927-0.438
				c1.73,0,3.328,1.008,4.071,2.567c41.288,86.705,106.891,154.442,189.717,195.888c71.246,35.65,154.083,54.126,246.211,54.913
				c2,0.017,4.008,0.025,6,0.025c85.366,0,163.322-15.449,231.703-45.918c214.13-95.412,315.637-355.569,319.333-556.91
				c2.831-154.218,2.3-311.534,1.786-463.67l-0.001-0.427c-0.202-59.871-0.411-121.78-0.411-182.608V439.454
				c0-22.995,7.233-44.917,20.918-63.396s32.544-31.792,54.539-38.499l175.235-53.433c41.719-12.722,98.831-38.397,133.996-88.47
				c18.382-26.174,27.234-61.972,23.101-93.422c-2.84-21.604-11.788-41.638-25.195-56.411c-17.238-18.991-43.273-30.33-69.647-30.33
				c-4.051,0-8.126,0.266-12.11,0.79c-29.517,3.885-57.366,22.577-72.681,48.783c-5.236,8.963-11.31,22.8-10.503,37.824
				c0.79,14.75,8.512,29.65,20.653,39.856c9.73,8.179,21.88,12.87,33.334,12.87c1.751,0,3.495-0.11,5.186-0.327
				c13.853-1.778,26.144-11.497,29.891-23.634c3.942-12.767-2.367-27.736-13.777-32.688c-1.103-0.479-1.953-1.358-2.395-2.477
				s-0.421-2.341,0.058-3.443c0.715-1.647,2.337-2.711,4.133-2.711c0.612,0,1.212,0.126,1.784,0.375
				c15.686,6.807,24.117,26.365,18.797,43.6c-4.83,15.64-19.837,27.658-37.343,29.905c-2.112,0.271-4.282,0.408-6.449,0.408
				c-13.655,0-27.51-5.323-39.009-14.989c-14.222-11.954-22.915-28.816-23.851-46.263c-0.732-13.654,3.32-28.47,11.721-42.846
				c16.687-28.554,47.063-48.926,79.276-53.166c4.337-0.571,8.774-0.861,13.191-0.861c28.932,0,57.494,12.439,76.406,33.274
				c14.627,16.117,24.378,37.883,27.454,61.288c4.415,33.594-5.034,71.823-24.659,99.767
				c-36.636,52.167-95.667,78.772-138.736,91.905l-175.235,53.433c-41.32,12.6-69.082,50.088-69.082,93.287v479.392
				c0,61.342,0.21,123.181,0.412,182.983c0.514,152.206,1.045,309.571-1.788,463.888c-2.07,112.804-32.381,229.701-85.348,329.158
				c-59.003,110.795-141.759,192.335-239.32,235.807C624.282,2161.668,545.115,2177.379,458.519,2177.38z"/>
			<path style="fill:#480000;" d="M1323.717,0c-4.679,0-9.372,0.302-14.04,0.916c-34.16,4.496-66.362,26.08-84.04,56.331
				c-9.043,15.477-13.399,31.547-12.599,46.474c1.031,19.235,10.565,37.784,26.158,50.891c12.72,10.692,28.12,16.513,43.192,16.513
				c2.438,0,4.868-0.152,7.276-0.461c19.988-2.566,37.158-16.403,42.727-34.435c6.267-20.301-3.789-43.395-22.418-51.479
				c-1.426-0.62-2.911-0.913-4.374-0.913c-4.249,0-8.297,2.477-10.096,6.624c-2.419,5.573,0.138,12.051,5.712,14.47
				c8.368,3.632,13.113,15.225,10.154,24.808c-3.021,9.784-13.098,17.64-24.506,19.104c-1.432,0.184-2.887,0.274-4.36,0.274
				c-9.892,0-20.504-4.077-29.151-11.345c-10.791-9.071-17.649-22.24-18.346-35.229c-0.72-13.417,4.837-26.001,9.625-34.196
				c14.323-24.51,40.347-41.99,67.916-45.618c3.747-0.493,7.509-0.734,11.263-0.734c24.498,0,48.581,10.292,64.833,28.198
				c12.527,13.802,20.896,32.586,23.564,52.89c3.93,29.903-4.491,63.944-21.976,88.84c-34.104,48.561-89.83,73.564-130.572,85.988
				l-175.235,53.432c-23.338,7.116-43.348,21.241-57.867,40.848c-14.52,19.607-22.194,42.867-22.194,67.265v479.392
				c0,60.977,0.21,123.027,0.412,183.035c0.513,152.108,1.045,309.396-1.785,463.551c-3.66,199.349-103.944,456.836-315.479,551.092
				c-67.584,30.114-144.598,45.355-229.059,45.355c-1.973,0-3.96-0.008-5.941-0.025c-91.128-0.778-173.005-19.022-243.358-54.227
				c-81.518-40.791-146.098-107.484-186.757-192.87c-1.885-3.958-5.828-6.272-9.939-6.272c-1.585,0-3.195,0.344-4.722,1.071
				c-5.485,2.612-7.814,9.176-5.202,14.661c42.787,89.853,110.831,160.078,196.775,203.084
				c73.378,36.719,158.505,55.745,253.015,56.552c2.07,0.017,4.134,0.026,6.195,0.026c87.521-0.001,167.547-15.891,237.948-47.26
				c98.897-44.066,182.721-126.604,242.412-238.688c53.439-100.345,84.02-218.285,86.109-332.095
				c2.834-154.394,2.302-311.803,1.789-464.029c-0.203-59.99-0.412-122.021-0.412-182.961V439.454
				c0-40.319,25.912-75.31,64.478-87.069l175.235-53.433c44.045-13.43,104.462-40.707,142.16-94.386
				c20.522-29.222,30.402-69.207,25.784-104.35c-3.247-24.704-13.576-47.721-29.086-64.809
				C1384.533,12.926,1354.365-0.001,1323.717,0L1323.717,0z"/>
		</g>
	</g>
</g>
</svg>
