<?xml version="1.0" encoding="iso-8859-1"?>
<!-- Generator: Adobe Illustrator 24.0.1, SVG Export Plug-In . SVG Version: 6.00 Build 0)  -->
<svg version="1.1" xmlns="http://www.w3.org/2000/svg" xmlns:xlink="http://www.w3.org/1999/xlink" x="0px" y="0px"
	 viewBox="0 0 1776.489 2189.413" style="enable-background:new 0 0 1776.489 2189.413;" xml:space="preserve">
<g id="Layer_5">
	<linearGradient id="SVGID_1_" gradientUnits="userSpaceOnUse" x1="766.6194" y1="1046.4463" x2="816.6194" y2="279.7796">
		<stop  offset="0" style="stop-color:#8B1D1A"/>
		<stop  offset="0.25" style="stop-color:#550000"/>
		<stop  offset="0.5" style="stop-color:#3A0000"/>
		<stop  offset="0.75" style="stop-color:#1E0000"/>
		<stop  offset="1" style="stop-color:#000000"/>
	</linearGradient>
	<path style="fill:url(#SVGID_1_);" d="M944.755,1393.001c1.659-42.477,1.977-85.43,1.977-129.113c0-115.272,0-230.545,0-345.817
		c0-149.711-12.1-303.259,12.087-451.582c9.07-55.62,22.24-132.72,66.06-222.29c33.53-68.54,60.35-118.52,121.63-153.24
		c18.54-10.5,66.83-34.4,130.02-30.41c20.55,1.3,57.93,4.13,96.47,29.36c44.58,29.19,62.21,66.71,68.15,80.89
		c8.32,19.86,17.728,51.901,9.44,84.93c-2.06,8.211-9.1,23.38-25.17,31.46c-15.54,7.81-36.58,6.79-49.28-4.2
		c-11.24-9.74-16.11-27.45-12.12-45.71c-17.43,8.87-40.25,25.56-51.84,55.15c-16.2,41.34-3.55,90.21,29.36,117.44
		c32.66,27.01,72.48,22.11,81.79,20.97c41.03-5.06,66.36-30.73,74.44-39.85c34.96-39.4,36.23-90.01,34.41-123.73
		c-0.68-12.61-0.01-77.23-44.28-141.45c-13.6-19.73-64.38-91.91-152.94-116.15c-51.43-14.07-97.446-11.323-143.36-1
		c-78.974,17.757-137.08,46.38-164.62,61.77c-48.28,26.96-96.81,69.66-145.75,106.66c-22.58,17.07-33.41,26.02-54.52,38.79
		c-21.07,12.75-59.8,35.78-115.34,49.29c-19.42,4.72-37.97,7.57-55.3,9.09c33.99,36.77,66.51,80.92,93.04,133.51
		c42.79,84.81,56.09,164,62.92,206.56c11.85,73.94,11.25,131.91,7.63,181.65c-42.97-4.29-75.27-14.65-97.85-24.02
		c-26.7-11.09-42.84-22.06-93.43-42.41c-49.56-19.93-64.6-21.69-73.31-22.28c-15.46-1.04-59.27,2.19-94.27,29.72
		c-18.99,14.94-28.99,33.07-34.04,44.67c15.35-4.21,34.71-4.79,50.31-1.57c5.86,1.21,11.82,3.04,16.31,7.01
		c4.87,4.31,7.44,10.62,9.33,16.85c7.15,23.59,6.73,48.71,6.4,73.36c-0.34,24.65-0.45,49.82,7.23,73.24
		c7.68,23.42,24.65,45.2,48.3,52.14c13.13,3.84,27.26,2.88,40.59-0.24c16.28-3.8,32.02-10.89,44.45-22.08
		c15.4-13.87,24.94-25.32,30.1-45.41c4.9-19.1,6.827-29.169,6.35-48.4c-10.73,6.82-22.94,11.3-35.54,12.98
		c-4.58,0.62-9.34,0.85-13.71-0.64c-9.48-3.22-14.61-13.62-16.33-23.49c-3.51-20.15,5.11-45.39,23.76-53.83
		c10.37-4.69,22.4-4.37,33.48-1.78c11.08,2.59,21.53,7.31,32.2,11.28c34.06,12.67,68.29,18.71,104.54,22.43
		c-1.16,10.85-2.37,14.7-3.46,23.47c-9.09,73.09-22.75,122.51-36.59,166.57l-1.35,2.27c-12.37,27.09-29.84,58.17-54.75,89.59
		c-15.37,19.39-31.59,36.4-48.04,51.32c14.69,21.27,29.05,45.27,42.07,72.11c42.58,87.82,63.09,185.43,66.86,282.62
		c3.66,94.26-4.92,196.32-38.71,285c-4.34,11.37-9.08,22.58-14.21,33.62c-21,45.2-76.98,159.42-206.06,226.95
		c-36.68,19.189-120,58.645-213.01,40.8c-35.2-6.75-102.69-22.77-154.3-82.6c-47.55-55.12-57.39-114.97-62.71-147.32
		c-3.73-22.69-10.39-65.9,2.98-118.46c8.72-34.23,24.1-94.7,70.68-109.49c21.99-6.99,51.35-3.92,71.67,13.93
		c24.15,21.22,23.96,53.16,23.89,65.7c-0.06,10.29-0.21,34.69-17.92,56.74c-9.11,11.35-20.02,18.51-30.12,23.04
		c21.07,10.48,44.46,14.27,66.95,9.81c64.75-12.85,83.75-86.49,86.61-97.55c12.58-48.78-5.41-89.47-10.95-101.54
		c-2.98-6.47-16.95-35.71-48.78-60.72c-30.1-23.66-59.61-30.52-65.7-31.85c-8.1-1.78-39.93-8.08-78.64,2.98
		c-37.12,10.62-60.19,31.39-73.66,43.8c-29.19,26.9-43.1,54.79-53.75,76.65c-7.61,15.61-26.18,56.96-31.86,114.47
		c-7.01,71.08,9.76,125.58,18.92,154.3c13.45,42.18,33.96,106.52,94.56,162.25c66.24,60.91,140.55,75.91,173.21,81.63
		c85.71,15,154.98-2.57,189.14-12.93c89.32-27.09,146.38-76.18,188.68-112.59c67.95-58.48,104.52-118.39,130.12-157.19
		c10.86-16.46,56.69-87.19,94.37-192.93C927.965,1603.297,940.589,1499.65,944.755,1393.001z"/>
	<linearGradient id="SVGID_2_" gradientUnits="userSpaceOnUse" x1="1369.3853" y1="1085.7571" x2="1419.3853" y2="319.0904">
		<stop  offset="0" style="stop-color:#8B1D1A"/>
		<stop  offset="0.25" style="stop-color:#550000"/>
		<stop  offset="0.5" style="stop-color:#3A0000"/>
		<stop  offset="0.75" style="stop-color:#1E0000"/>
		<stop  offset="1" style="stop-color:#000000"/>
	</linearGradient>
	<path style="fill:url(#SVGID_2_);" d="M1668.949,1996.559c-3.76,10.56-9.57,23.08-18.66,35.83c-7.72,10.84-22.77,31.96-48.57,42.75
		c-35.22,14.72-69.87,1.58-89.39-5.83c-51.54-19.55-79.32-59.49-92.3-78.7c-15.39-22.75-23.64-43.45-28.18-56.35
		c-46.09-131.04-81.89-382.23-92.3-452.76c-0.87-5.92-6.11-40.3-20.4-83.56c-11.79-35.66-21.9-65.26-47.61-94.24
		c-14.61-16.47-35.44-39.95-69.96-45.67c-7.61-1.26-25.35-3.25-57.32,7.77c-46.8,16.15-81.97,45.62-106.4,72.66v-60.07
		c21.65-10.73,47.14-24.98,74.34-43.68c37-25.43,87.87-61.06,132.13-124.36c19.86-28.39,67.28-98.02,71.9-193.35
		c2.97-61.16-13.24-100.88-17.49-110.76c-6.83-15.89-17.01-39.57-37.89-58.3c-17.16-15.39-37.41-23.71-57.45-27.79
		c25.02-10.76,54.45-25.6,85.63-46.05c30.91-20.28,55.59-36.47,76.75-63.15c28.31-35.7,39.6-76.64,43.43-111.67
		c18.69,9.35,38.34,22.11,56.65,39.77c117.08,112.95,91.45,341.57,7.77,486.77c-57.64,100.01-141.79,150.67-206.38,183.77
		c16.39,2.58,34.62,9.97,53.84,17.21c19.39,7.3,81.82,35.81,121.45,95.36c11.5,17.28,6.95,16.37,47.61,105.9
		c17.72,39.03,26.58,58.55,31.09,65.1c13,18.89,39.37,44.22,98.83,57.47c-17.25,18.23-37.54,43.55-55.11,76.61
		c-18.15,34.15-41.61,91.99-40.81,165.17c0.37,33.82,0.89,80.95,30.12,129.22c10.51,17.35,29.4,48.55,67.04,66.07
		C1612.259,2002.109,1643.659,2001.569,1668.949,1996.559z"/>
</g>
<g id="Layer_7">
	<g>
		<path style="fill:#BFCBC2;" d="M222.219,1668.363c35.374,7.202,72.692-33.809,38.147-64.57
			c-27.984-19.275-63.314,12.996-42.987,46.821c-46.693-35.804,13.637-106.833,65.209-61.115
			C322.349,1632.755,272.444,1698.669,222.219,1668.363z"/>
	</g>
	<g>
		<path style="fill:#BFCBC2;" d="M38.115,1719.134c77.629-24.007,42.369-88.221,79.983-128.344
			c50.758-53.471,107.052,30.201,50.242,50.972c33.282-31.173-15.153-70.22-36.214-21.245
			C116.845,1674.449,104.875,1725.133,38.115,1719.134z"/>
	</g>
	<g>
		<path style="fill:#BFCBC2;" d="M267.265,1751.598c14.567,45.001,72.452-36.187,59.233-65.429
			c-14.977-27.778-50.866-7.972-44.093,21.574c-29.778-52.196,57.537-79.361,69.987-19.027
			C356.777,1779.712,254.69,1793.996,267.265,1751.598z"/>
	</g>
	<g>
		<path style="fill:#BFCBC2;" d="M1366.519,1426.676c-55.055-17.695-24.343-92.893-38.288-122.76
			c-23.381-42.85-60.596,4.106-35.47,45.032c-90.204-87.703,110.569-156.444,57.751,35.813
			C1349.11,1400.015,1354.672,1418.723,1366.519,1426.676z"/>
	</g>
	<g>
		<path style="fill:#BFCBC2;" d="M922.644,1039.438c-136.719,74.594-14.768,183.571-85.284,254.654
			c20.45-48.836-16.693-99.399-15.321-151.095C821.358,1088.714,871.092,1038.449,922.644,1039.438z"/>
	</g>
	<g>
		<path style="fill:#BFCBC2;" d="M930.381,968.774c-15.366,16.664-41.681,21.508-63.713,31.273
			c-46.721,20.637-60.454,81.021-57.311,126.655c-26.353-51.603-14.462-122.214,44.819-144.237
			C878.679,973.701,905.188,978.641,930.381,968.774z"/>
	</g>
	<g>
		<path style="fill:#BFCBC2;" d="M889.17,842.794c63.049-13.774,53.11,91.549,19.542,119.691
			c-41.086,36.924-88.183-1.557-68.303-33.177c-4.599,28.933,29.592,40.413,49.848,18.809
			C911.195,926.077,937.568,846.96,889.17,842.794z"/>
	</g>
	<g>
		<path style="fill:#BFCBC2;" d="M918.289,837.344c-6.415-46.659-58.634-22.165-63.963,13.099
			c-11.926,35.472,23.775,73.921,54.052,40.988c-26.338,60.05-99.465,2.308-77.549-50.368
			C854.759,768.283,935.214,793.203,918.289,837.344z"/>
	</g>
	<g>
		<path style="fill:#BFCBC2;" d="M918.002,772.68c-11.919-52.772-66.833-14.617-76.688,19.744
			C843.314,713.519,931.93,724.717,918.002,772.68z"/>
	</g>
	<g>
		<path style="fill:#BFCBC2;" d="M829.842,617.275c90.17,39.804,70.264,130.141,15.254,129.925
			C905.193,717.393,861.976,648.418,829.842,617.275z"/>
	</g>
	<g>
		<path style="fill:#BFCBC2;" d="M947.71,541.648c-48.265-19.335-81.102,114.35-65.303,144.98
			C821.316,597.855,925.017,502.485,947.71,541.648z"/>
	</g>
	<g>
		<path style="fill:#BFCBC2;" d="M925.694,624.339c-43.046,0.777-66.942,59.407-16.592,84.792
			C847.629,706.558,855.615,605.117,925.694,624.339z"/>
	</g>
	<g>
		<path style="fill:#BFCBC2;" d="M834.559,558.469c-67.648-24.214-3.835-112.192,40.094-46.345
			c20.399,31.031,20.573,80.721-2.337,111.101c6.536-33.112,1.58-86.704-31.056-111.825
			C825.328,503.965,803.908,532.369,834.559,558.469z"/>
	</g>
	<g>
		<path style="fill:#BFCBC2;" d="M931.083,482.893c31.118-97.793-72.142-51.908-61.116,45.992
			c-23.764-36.716-11.531-103.527,35.294-120.194C955.222,396.465,962.793,454.607,931.083,482.893z"/>
	</g>
	<g>
		<path style="fill:#BFCBC2;" d="M818.006,420.168c-38.542-55.396,39.298-101.606,64.827-31.733
			c11.755,29.229,4.546,70.705-19.163,92.495C898.826,387.712,809.458,325.549,818.006,420.168z"/>
	</g>
	<g>
		<path style="fill:#BFCBC2;" d="M902.658,391.523c-3.881-129.73-196.753-55.964-72.444,73.662
			c-91.22-34.169-94.027-145.785-16.867-170.286C867.254,274.991,932.053,331.468,902.658,391.523z"/>
	</g>
	<g>
		<path style="fill:#BFCBC2;" d="M904.379,232.693c0.366-50.606,75.46-36.167,78.232,17.853
			c7.562,75.721-70.953,114.203-106.642,59.425c-10.648-18.002-6.824-43.505,11.586-57.108
			c-22.011,37.135,22.906,78.721,52.943,41.715C982.258,233.197,924.18,188.854,904.379,232.693z"/>
	</g>
	<g>
		<path style="fill:#BFCBC2;" d="M819.431,312.415c20.639-16.828,24.553-67.936-16.483-57.615
			c-21.69,5.822-65.732,63.757-22.724,72.444c-57.454,6.031-25.171-84.527,13.661-94.297
			C852.971,213.999,871.904,292.329,819.431,312.415z"/>
	</g>
	<g>
		<path style="fill:#BFCBC2;" d="M1008.467,131.094c52.45,13.816,12.325,95.587-33.379,91.737
			c-51.396-6.646-42.062-79.974,4.429-89.392c-18.973,11.188-35.84,57.697-4.195,66.457
			C1002.615,201.478,1040.928,151.905,1008.467,131.094z"/>
	</g>
	<g>
		<path style="fill:#BFCBC2;" d="M1059.689,83.499c-22.719,1.222-38.301,34.192-7.97,49.659
			C1017.441,132.681,1018.435,75.1,1059.689,83.499z"/>
	</g>
	<g>
		<path style="fill:#BFCBC2;" d="M1436.642,400.839c27.976-15.686,28.297-62.435-13.057-67.366
			c-39.924-0.037-50.909,48.273-25.565,74.895c-53.524-26.37-28.258-105.211,30.491-99.15
			C1479.509,314.896,1492.415,389.044,1436.642,400.839z"/>
	</g>
	<g>
		<path style="fill:#BFCBC2;" d="M1510.045,278.099c-67.438-10.894-57.703,82.166-4.785,51.309
			c-10.288,21.991-49.425,18.535-56.462-7.4C1436.582,284.249,1478.734,256.184,1510.045,278.099z"/>
	</g>
	<g>
		<path style="fill:#BFCBC2;" d="M1357.521,310.189c11.242-25.637,46.622-3.15,36.74,24.215
			c-6.091,23.751-47.449,46.936-59.107,16.326C1370.726,385.015,1409.543,284.308,1357.521,310.189z"/>
	</g>
	<g>
		<path style="fill:#BFCBC2;" d="M1345.407,873.725c12.083,22.304,30.351,43.735,47.249,66.261
			c-78.553-31.483-80.082,63.639-18.474,56.526c-60.637,32.502-93.62-69.732-23.249-82.752c0.697,0.25-0.205,0.079,3.963,1.498
			C1352.917,902.27,1345.327,886.924,1345.407,873.725z"/>
	</g>
	<g>
		<path style="fill:#BFCBC2;" d="M1301.881,787.733c0.63,44.345,55.034,53.838,83.298,80.625
			c29.884,26.546,32.082,75.718,4.903,103.42C1424.559,862.579,1275.619,872.486,1301.881,787.733z"/>
	</g>
	<g>
		<path style="fill:#BFCBC2;" d="M1407.744,747.481c-58.937,28.806,4.508,88.234,24.49,118.51
			c19.27,26.892,21.999,77.709-16.626,88.884c44.702-41.234-21.337-87.234-40.817-124.855
			C1355.773,800.486,1365.467,745.302,1407.744,747.481z"/>
	</g>
	<g>
		<path style="fill:#BFCBC2;" d="M1448.815,742.203c-54.243-68.934-131.668,40.286-87.017,99.378
			C1262.527,757.372,1420.383,640.07,1448.815,742.203z"/>
	</g>
	<g>
		<path style="fill:#BFCBC2;" d="M1247.646,776.696c-37.59-89.948,102.99-94.085,68.646,15.267
			C1311.894,704.879,1244.547,709.515,1247.646,776.696z"/>
	</g>
	<g>
		<path style="fill:#BFCBC2;" d="M1362.082,631.251c24.719-60.181,110.427,18.716,41.165,86.903
			c-59.771,50.391-120.325-26.756-70.559-57.042c-26.435,36.7,23.375,66.643,52.808,35.078
			C1426.505,653.324,1395.644,598.133,1362.082,631.251z"/>
	</g>
	<g>
		<path style="fill:#BFCBC2;" d="M1478.375,632.822c-33.978,14.173-52.536,62.912-16.161,96.783
			C1415.541,713.93,1417.969,635.741,1478.375,632.822z"/>
	</g>
	<g>
		<path style="fill:#BFCBC2;" d="M1473.487,806.096c-2.116-33.102-45.06-38.397-51.202-0.741
			c-4.147,28.301,12.351,55.35,7.875,82.082C1345.993,735.39,1493.453,743.722,1473.487,806.096z"/>
	</g>
	<path style="fill:#BFCBC2;" d="M1347.582,667.334c1.549-24.725,35.137-22.233,35.711,0.001
		C1381.745,692.059,1348.156,689.567,1347.582,667.334z"/>
	<path style="fill:#BFCBC2;" d="M871.43,873.667c1.309-21.784,31.125-19.833,31.743,0.001
		C901.865,895.451,872.049,893.5,871.43,873.667z"/>
	<path style="fill:#BFCBC2;" d="M1432.893,373.707c-1.549-24.725-35.137-22.233-35.711,0.001
		C1398.73,398.432,1432.318,395.94,1432.893,373.707z"/>
	<g>
		<path style="fill:#BFCBC2;" d="M623.945,950.995c-33.453,50.261-89.095-9.133-77.963-55.746
			c36.656-132.612-12.637-94.539-17.431-59.5c-15.035-51.638,45.918-74.227,57.686-16.287c5.842,34.81-15.702,69.675-13.399,104.551
			C574.401,950.819,601.495,970.163,623.945,950.995z"/>
	</g>
	<g>
		<path style="fill:#BFCBC2;" d="M589.23,832.108c1.93-83.739-57.322-89.948-67.751-53.335
			C520.36,715.127,626.805,745.174,589.23,832.108z"/>
	</g>
	<g>
		<path style="fill:#BFCBC2;" d="M604.684,829.428c13.674-33.667-1.133-71.714-26.881-88.685
			C618.118,749.01,633.505,800.75,604.684,829.428z"/>
	</g>
</g>
<g id="Layer_4">
	<g>
		<g>
			<path style="fill:#FFB400;" d="M1118.691,66.806c-61.39,38.511-90.959,91.913-125.252,162.012
				c-46.988,96.045-60.333,177.884-69.164,232.038c-18.668,114.476-16.318,231.831-14.044,345.322
				c0.738,36.825,1.5,74.904,1.5,111.892v345.817c0,38.488-0.232,83.764-1.95,127.748c-4.807,123.051-20.87,216.986-52.082,304.576
				c-33.611,94.322-74.567,161.08-90.615,185.403c-2.09,3.167-4.251,6.473-6.496,9.906c-14.533,22.225-32.224,49.28-56.291,78.085
				c28.559-40.465,45.136-76.145,53.792-94.776c5.462-11.754,10.565-23.829,15.175-35.907
				c31.663-83.099,45.45-183.636,40.978-298.819c-4.237-109.24-27.903-209.008-70.343-296.539
				c-8.569-17.664-18.099-34.997-28.469-51.789c10.712-11.055,20.874-22.634,30.375-34.621
				c23.017-29.032,42.645-61.001,58.356-95.041l0.4-0.673l2.086-3.508l1.223-3.894c14.142-45.021,28.525-97.108,37.931-172.742
				c0.373-3,0.773-5.322,1.236-8.01c0.711-4.13,1.518-8.812,2.293-16.057l2.445-22.87l0.181,0.018l0.39-5.363l0.72-6.736
				l-0.228-0.023l1.728-23.737c3.261-44.808,5.301-106.867-7.98-189.736c-6.532-40.702-20.124-125.397-66.229-216.778
				c-16.449-32.608-35.973-63.865-58.324-93.417c60.609-15.134,102.519-40.495,122.791-52.761
				c19.075-11.539,30.734-20.427,46.869-32.729c3.276-2.497,6.785-5.173,10.643-8.089c13.971-10.562,27.973-21.63,41.514-32.333
				c34.888-27.576,67.842-53.623,100.202-71.694C1059.472,92.365,1084.982,79.412,1118.691,66.806 M1486.371,201.187
				c9.425,29.309,10.31,53.513,10.698,64.107c0.053,1.447,0.099,2.697,0.161,3.852c0.686,12.698,1.146,31.783-2.752,50.831
				c-3.936,19.231-11.422,34.861-22.906,47.803c-6.533,7.374-24.729,24.895-52.52,28.322c-2.503,0.307-6.692,0.819-12.272,0.819
				c-17.238,0-31.683-4.718-42.928-14.018c-10.292-8.516-17.919-20.958-21.474-35.034c-3.623-14.34-2.774-29.494,2.391-42.675
				c0.399-1.018,0.82-2.013,1.26-2.986c2.216,2.584,4.62,5.006,7.208,7.248c13.28,11.491,31.097,17.82,50.17,17.82
				c13.21,0,26.256-3.048,37.735-8.816c31.633-15.905,41.212-45.514,43.395-54.212
				C1490.105,242.053,1489.651,220.442,1486.371,201.187 M549.69,742.105c1.461,0,2.453,0.046,3.012,0.084
				c4.375,0.296,15.995,1.084,62.615,19.832c20.88,8.399,35.539,15.08,47.702,20.912c-0.163-0.001-0.326-0.001-0.489-0.001
				c-11.746,0-22.73,2.273-32.651,6.761c-35.997,16.29-49.439,59.416-43.811,91.726c4.313,24.75,19.1,43.674,39.517,50.609
				c5.364,1.829,11.146,2.827,17.208,2.972c-2.946,6.083-7.612,11.324-16.531,19.358c-7.105,6.396-17.129,11.24-29.01,14.013
				c-5.181,1.213-9.936,1.828-14.133,1.828c-3.243,0-6.156-0.371-8.625-1.093c-10.241-3.005-20.014-14.57-24.898-29.462
				c-6.088-18.564-5.771-41.561-5.491-61.865l0.011-0.81c0.344-25.614,0.734-54.646-7.915-83.18
				c-2.765-9.113-7.807-22.439-19.639-32.91c-4.26-3.766-8.765-6.602-13.186-8.766C525.501,742.466,546.682,742.105,549.69,742.105
				 M206.713,1579.119c8.892,0,17.66,0.894,25.396,2.594c6.34,1.385,28.793,7.293,51.545,25.177
				c23.45,18.426,34.816,39.595,38.595,47.799c15.365,33.476,13.303,61.002,8.868,78.201c-4.62,17.868-11.258,30.799-16.013,38.5
				c-8.505,13.775-18.31,23.313-29.722,28.851c8.94-21.83,9.053-41.419,9.106-50.475c0.083-14.946,0.337-60.427-35.79-92.172
				c-19.16-16.832-44.627-26.101-71.711-26.101c-11.669,0-22.994,1.719-33.65,5.107c-65.08,20.664-83.886,94.488-93.99,134.15
				l-0.018,0.071c-15.443,60.707-7.141,111.203-3.595,132.775c4.263,25.922,12.136,73.796,41.314,123.41
				c-5.625-8.579-10.829-17.589-15.648-27.079c-13.103-25.798-21.063-50.763-27.466-70.842
				c-7.751-24.303-23.88-74.873-17.435-140.225c4.518-45.743,17.987-81.028,28.494-102.581
				c9.393-19.281,21.083-43.276,46.001-66.239c11.097-10.224,29.671-27.336,59.559-35.888
				C182.245,1580.812,194.411,1579.118,206.713,1579.119 M1263.738,0c-24.567-0.001-48.364,3.313-72.139,8.659
				c-78.974,17.756-137.08,46.38-164.62,61.77c-48.28,26.96-96.81,69.66-145.75,106.66c-22.58,17.07-33.41,26.02-54.52,38.79
				c-21.07,12.75-59.8,35.78-115.34,49.29c-19.42,4.72-37.97,7.57-55.3,9.09c33.99,36.77,66.51,80.92,93.04,133.51
				c42.79,84.81,56.09,163.999,62.92,206.56c11.85,73.939,11.25,131.91,7.63,181.65c-42.97-4.29-75.27-14.65-97.85-24.02
				c-26.7-11.09-42.84-22.06-93.43-42.41c-49.56-19.93-64.6-21.69-73.31-22.281c-1.528-0.103-3.333-0.164-5.379-0.164
				c-18.655,0-57.35,5.075-88.891,29.884c-18.99,14.94-28.99,33.07-34.04,44.67c8.783-2.409,18.88-3.629,28.834-3.629
				c7.442,0,14.802,0.682,21.476,2.06c5.86,1.21,11.82,3.04,16.31,7.01c4.87,4.31,7.44,10.62,9.33,16.85
				c7.15,23.59,6.73,48.71,6.4,73.36c-0.34,24.65-0.45,49.82,7.23,73.24c7.68,23.42,24.65,45.199,48.3,52.14
				c6.008,1.757,12.226,2.509,18.48,2.509c7.414,0,14.879-1.057,22.11-2.749c16.28-3.8,32.02-10.89,44.45-22.08
				c15.4-13.87,24.94-25.32,30.1-45.41c4.9-19.1,6.827-29.169,6.35-48.4c-10.73,6.82-22.94,11.3-35.54,12.98
				c-2.06,0.279-4.157,0.479-6.238,0.479c-2.545,0-5.068-0.299-7.472-1.119c-9.48-3.22-14.61-13.62-16.33-23.49
				c-3.51-20.15,5.11-45.39,23.76-53.83c5.715-2.585,11.935-3.648,18.221-3.648c5.121,0,10.285,0.705,15.259,1.868
				c11.08,2.59,21.53,7.31,32.2,11.28c34.06,12.669,68.29,18.71,104.54,22.429c-1.16,10.85-2.37,14.7-3.46,23.47
				c-9.09,73.09-22.75,122.51-36.59,166.57l-1.35,2.27c-12.37,27.09-29.84,58.17-54.75,89.59c-15.37,19.39-31.59,36.4-48.04,51.32
				c14.69,21.27,29.05,45.27,42.07,72.11c42.58,87.82,63.09,185.429,66.86,282.62c3.66,94.26-4.92,196.32-38.71,285
				c-4.34,11.37-9.08,22.58-14.21,33.62c-21,45.199-76.98,159.419-206.06,226.949c-30.19,15.794-91.989,45.321-164.767,45.321
				c-15.646,0-31.786-1.363-48.243-4.52c-35.2-6.75-102.69-22.77-154.3-82.6c-47.55-55.12-57.39-114.97-62.71-147.32
				c-3.73-22.69-10.39-65.9,2.98-118.46c8.72-34.23,24.1-94.7,70.68-109.49c7.101-2.257,14.972-3.466,23.058-3.466
				c16.953,0,34.854,5.31,48.612,17.396c24.15,21.22,23.96,53.16,23.89,65.7c-0.06,10.29-0.21,34.689-17.92,56.74
				c-9.11,11.35-20.02,18.51-30.12,23.04c15.22,7.57,31.655,11.65,48.082,11.65c6.314,0,12.624-0.602,18.868-1.84
				c64.75-12.85,83.75-86.49,86.61-97.55c12.58-48.78-5.41-89.47-10.95-101.54c-2.98-6.47-16.95-35.71-48.78-60.72
				c-30.1-23.66-59.61-30.52-65.7-31.85c-4.526-0.994-16.463-3.4-32.865-3.4c-12.955,0-28.693,1.5-45.775,6.38
				c-37.12,10.62-60.19,31.39-73.66,43.801c-29.19,26.9-43.1,54.79-53.75,76.65c-7.61,15.61-26.18,56.96-31.86,114.47
				c-7.01,71.08,9.76,125.58,18.92,154.3c13.45,42.18,33.96,106.52,94.56,162.25c66.24,60.91,140.55,75.91,173.21,81.63
				c23.755,4.157,46.256,5.813,67.088,5.813c54.331,0,97.36-11.255,122.052-18.743c89.32-27.09,146.38-76.18,188.68-112.59
				c67.95-58.48,104.52-118.39,130.12-157.19c10.86-16.46,56.69-87.189,94.37-192.929c37.296-104.663,49.92-208.31,54.086-314.959
				c1.659-42.478,1.977-85.43,1.977-129.114c0-115.272,0-230.544,0-345.817c0-149.711-12.1-303.259,12.087-451.582
				c9.07-55.62,22.24-132.72,66.06-222.29c33.53-68.54,60.35-118.52,121.63-153.24c17.135-9.704,59.684-30.854,115.917-30.855
				c4.613,0,9.313,0.142,14.103,0.445c20.55,1.3,57.93,4.13,96.47,29.36c44.58,29.19,62.21,66.71,68.15,80.89
				c8.32,19.86,17.728,51.901,9.44,84.93c-2.061,8.211-9.1,23.38-25.17,31.46c-6.686,3.36-14.393,5.086-22.013,5.086
				c-10.091,0-20.031-3.025-27.267-9.286c-11.24-9.74-16.11-27.45-12.12-45.71c-17.43,8.87-40.25,25.56-51.84,55.15
				c-16.2,41.34-3.55,90.21,29.36,117.44c22.438,18.556,48.258,22.052,65.24,22.052c7.737,0,13.636-0.725,16.55-1.082
				c41.03-5.06,66.36-30.73,74.44-39.85c34.96-39.4,36.23-90.01,34.41-123.73c-0.68-12.61-0.01-77.23-44.28-141.45
				c-13.6-19.73-64.38-91.91-152.94-116.15C1310.16,2.875,1286.614,0.001,1263.738,0L1263.738,0z"/>
		</g>
	</g>
	<g>
		<g>
			<path style="fill:#FFB400;" d="M1393.048,556.536c2.928,2.488,5.766,5.056,8.51,7.702c23.82,22.98,41.773,52.868,53.362,88.834
				c11.101,34.454,16.188,73.615,15.12,116.395c-1.009,40.43-7.765,83.79-19.536,125.393
				c-11.485,40.59-27.806,79.832-47.199,113.482c-23.77,41.242-53.941,76.313-92.238,107.215
				c-35.373,28.542-71.905,48.599-99.78,62.884l-33.879,17.362c18.592-18.1,37.552-39.579,55.601-65.391
				c18.049-25.802,72.975-104.318,78.18-211.715c3.003-61.845-11.428-105.67-20.293-126.279
				c-7.5-17.448-20.052-46.652-46.677-70.535c-0.808-0.725-1.623-1.44-2.447-2.146c8.973-5.234,17.805-10.699,26.477-16.387
				c32.353-21.226,60.293-39.558,84.956-70.655C1370.896,610.384,1384.217,584.897,1393.048,556.536 M1217.545,1243.492l4.262,0.671
				c10.942,1.722,25.229,7.148,40.355,12.893c2.183,0.829,4.38,1.663,6.596,2.498c6.839,2.575,67.88,26.751,104.645,81.996
				c3.872,5.817,4.499,7.243,10.08,20.855c5.522,13.468,14.764,36.009,34.798,80.123l0.078,0.172
				c20.224,44.545,27.791,61.212,34.049,70.301c15.928,23.145,38.774,41.497,68.229,54.87
				c-9.794,13.723-18.678,28.069-26.583,42.942c-20.96,39.438-45.765,103.022-44.902,181.979
				c0.394,36.042,0.99,90.507,35.193,146.989c11.334,18.71,34.917,57.643,82.192,79.647c12.284,5.719,25.19,9.854,38.599,12.377
				c-4.782,4.346-10.385,8.31-16.913,11.04c-6.394,2.672-13.143,3.971-20.633,3.971c-15.891,0-31.466-5.913-42.847-10.233
				c-17.653-6.696-33.945-17.345-48.424-31.65c-13.143-12.986-22.345-26.604-27.299-33.936
				c-10.008-14.795-17.909-30.613-24.153-48.352c-43.137-122.645-77.904-359.238-89.328-436.985
				c-0.495-3.364-0.949-6.461-1.361-9.25c-1.458-9.919-7.337-45.684-21.797-89.458c-11.626-35.164-23.648-71.525-54.658-106.479
				C1248.418,1269.985,1235.546,1255.473,1217.545,1243.492 M1369.209,499.279c-3.83,35.03-15.12,75.97-43.43,111.67
				c-21.16,26.68-45.84,42.87-76.75,63.15c-31.18,20.45-60.61,35.29-85.63,46.05c20.04,4.08,40.29,12.4,57.45,27.79
				c20.88,18.73,31.06,42.41,37.89,58.3c4.25,9.88,20.46,49.6,17.49,110.76c-4.62,95.33-52.04,164.96-71.9,193.35
				c-44.26,63.3-95.13,98.93-132.13,124.36c-27.2,18.7-52.69,32.95-74.34,43.68v60.07c24.43-27.04,59.6-56.51,106.4-72.66
				c20.444-7.047,35.066-8.774,44.945-8.773c5.569,0,9.632,0.549,12.375,1.003c34.52,5.72,55.35,29.2,69.96,45.67
				c25.71,28.98,35.82,58.58,47.61,94.24c14.29,43.26,19.53,77.64,20.4,83.56c10.41,70.53,46.21,321.72,92.3,452.76
				c4.54,12.9,12.79,33.6,28.18,56.35c12.98,19.21,40.76,59.15,92.3,78.7c13.084,4.967,32.965,12.508,55.26,12.508
				c10.967,0,22.518-1.825,34.13-6.678c25.8-10.79,40.85-31.91,48.57-42.75c9.09-12.75,14.9-25.27,18.66-35.83
				c-9.759,1.933-20.427,3.201-31.628,3.201c-17.827,0-37.005-3.211-56.012-12.061c-37.64-17.52-56.53-48.72-67.04-66.07
				c-29.23-48.27-29.75-95.4-30.12-129.22c-0.8-73.18,22.66-131.02,40.81-165.17c17.57-33.06,37.86-58.38,55.11-76.61
				c-59.46-13.25-85.83-38.58-98.83-57.47c-4.51-6.55-13.37-26.07-31.09-65.1c-40.66-89.53-36.11-88.62-47.61-105.9
				c-39.63-59.55-102.06-88.06-121.45-95.36c-19.22-7.24-37.45-14.63-53.84-17.21c64.59-33.1,148.74-83.76,206.38-183.77
				c83.68-145.2,109.31-373.82-7.77-486.77C1407.549,521.389,1387.899,508.629,1369.209,499.279L1369.209,499.279z"/>
		</g>
	</g>
</g>
<g id="Layer_6">
	<g>
		<g>
			<path style="fill:#480000;" d="M997.86,813.949c-16.073,0-29.15-13.077-29.15-29.15s13.077-29.15,29.15-29.15
				s29.149,13.077,29.149,29.15S1013.933,813.949,997.86,813.949z"/>
			<path style="fill:#480000;" d="M997.86,762.149c12.489,0,22.65,10.161,22.65,22.65c0,12.489-10.161,22.65-22.65,22.65
				s-22.65-10.161-22.65-22.65C975.21,772.31,985.37,762.149,997.86,762.149 M997.86,749.149c-19.689,0-35.65,15.961-35.65,35.65
				c0,19.689,15.961,35.65,35.65,35.65s35.65-15.961,35.65-35.65C1033.509,765.11,1017.548,749.149,997.86,749.149L997.86,749.149z"
				/>
		</g>
	</g>
	<g>
		<g>
			<path style="fill:#480000;" d="M997.86,2034.327c-16.073,0-29.15-13.076-29.15-29.149s13.077-29.15,29.15-29.15
				s29.149,13.077,29.149,29.15S1013.933,2034.327,997.86,2034.327z"/>
			<path style="fill:#480000;" d="M997.86,1982.528c12.489,0,22.65,10.161,22.65,22.65c0,12.489-10.161,22.65-22.65,22.65
				s-22.65-10.161-22.65-22.65C975.21,1992.688,985.37,1982.528,997.86,1982.528 M997.86,1969.528
				c-19.689,0-35.65,15.961-35.65,35.65c0,19.689,15.961,35.65,35.65,35.65s35.65-15.961,35.65-35.65
				C1033.509,1985.489,1017.548,1969.528,997.86,1969.528L997.86,1969.528z"/>
		</g>
	</g>
	<g>
		<g>
			<rect x="993.359" y="783.007" style="fill:#480000;" width="9" height="1230.776"/>
			<polygon style="fill:#480000;" points="1008.859,776.507 986.859,776.507 986.859,2020.283 1008.859,2020.283 1008.859,776.507 
							"/>
		</g>
	</g>
	<g>
		<g>
			<path style="fill:#480000;" d="M993.359,682.271l-0.008-0.161c-2.343-47.266-1.592-95.261,2.232-142.653
				c4.066-50.535,9.634-119.743,37.824-204.823c26.905-81.172,58.183-125.339,71.54-144.199l0.38-0.538
				c39.482-55.777,69.576-74.077,88.777-82.99c31.621-14.692,60.508-16.886,74.913-16.886c0.508,0,0.999,0.002,1.476,0.007
				c15.325,0.159,47.212,0.489,79.941,21.07c34.569,21.725,50.668,49.875,54.778,57.985c16.33,32.242,13.815,59.519,12.313,75.815
				l-0.026,0.289c-0.13,1.407-0.253,2.748-0.355,4.02c-0.189,2.314-2.158,4.13-4.482,4.13c-0.124,0-0.248-0.005-0.374-0.015
				c-1.193-0.097-2.281-0.656-3.06-1.572c-0.778-0.916-1.152-2.08-1.055-3.278c0.113-1.387,0.248-2.854,0.391-4.399
				c1.504-16.326,3.776-40.996-11.38-70.922c-2.739-5.403-18.092-33.413-51.54-54.433c-30.575-19.227-60.742-19.54-75.24-19.69
				c-0.476-0.005-0.972-0.008-1.482-0.008c-13.626,0-40.973,2.085-71.027,16.049c-10.525,4.886-42.559,19.755-85.222,80.029
				l-0.379,0.535c-13.128,18.538-43.863,61.939-70.343,141.831c-27.848,84.052-33.367,152.637-37.396,202.715
				c-3.774,46.776-4.53,94.15-2.248,140.805l0.386,7.879l7.66-1.885c8.455-2.081,16.996-4.273,25.384-6.517
				c52.626-14.081,103.72-28.522,150.288-50.279c25.325-11.835,58.908-33.106,75.078-67.23
				c18.684-39.425,9.593-92.212-22.107-128.367c-9.703-11.073-25.53-25.227-45.818-29.765c-4.354-0.973-8.895-1.466-13.499-1.466
				c-18.346,0-37.161,7.947-50.33,21.259c-15.96,16.117-24.607,40.208-23.127,64.441c1.079,17.581,7.283,33.452,17.472,44.692
				c9.766,10.764,23.581,17.188,36.958,17.188c1.88,0,3.76-0.126,5.589-0.375c15.976-2.188,29.412-14.446,31.956-29.148
				c1.794-10.384-1.409-21.2-9.791-33.067c-0.694-0.982-0.964-2.175-0.76-3.36s0.856-2.219,1.838-2.912
				c0.765-0.54,1.66-0.826,2.588-0.826c1.486,0,2.829,0.694,3.684,1.904c9.695,13.725,13.5,27.114,11.31,39.794
				c-3.193,18.462-19.849,33.827-39.604,36.532c-2.186,0.298-4.439,0.45-6.694,0.45c-15.95,0-32.301-7.527-43.74-20.135
				c-11.557-12.749-18.585-30.574-19.789-50.188c-1.633-26.751,7.979-53.414,25.714-71.322
				c14.804-14.965,36.085-23.898,56.93-23.898c5.216,0,10.35,0.556,15.259,1.653c17.934,4.011,35.438,15.29,50.622,32.616
				c16.099,18.36,27.424,41.822,31.892,66.065c4.715,25.588,1.804,50.516-8.419,72.088c-13.706,28.925-41.162,53.66-79.401,71.53
				c-47.231,22.068-98.743,36.631-151.772,50.82c-13.03,3.485-26.211,6.794-39.175,9.834l-5.528,1.296V682.271z"/>
			<path style="fill:#480000;" d="M1269.017,83.522c-15.666,0-45.242,2.433-77.649,17.49c-19.876,9.226-50.969,28.087-91.347,85.131
				l-0.379,0.536c-13.524,19.097-45.196,63.82-72.405,145.911c-28.435,85.823-34.04,155.483-38.132,206.345
				c-3.847,47.671-4.603,95.947-2.246,143.498v26.055l13.512-3.168c13.032-3.056,26.278-6.381,39.372-9.883
				c53.321-14.267,105.134-28.919,152.844-51.211c39.626-18.519,68.162-44.327,82.523-74.635
				c10.811-22.813,13.901-49.111,8.938-76.049c-4.677-25.378-16.537-49.944-33.396-69.171c-16.099-18.37-34.803-30.36-54.094-34.675
				c-5.452-1.218-11.045-1.81-16.676-1.81c-22.359,0.001-45.238,9.336-61.549,25.825c-19.017,19.202-29.328,47.722-27.583,76.293
				c1.293,21.083,8.915,40.315,21.462,54.158c12.809,14.119,30.865,22.267,48.554,22.267c2.538,0,5.069-0.168,7.576-0.51
				c22.486-3.079,41.464-20.685,45.127-41.865c2.495-14.442-1.679-29.465-12.405-44.65c-2.143-3.034-5.541-4.654-8.993-4.654
				c-2.194,0-4.41,0.655-6.338,2.017c-4.962,3.505-6.143,10.369-2.638,15.331c7.336,10.385,10.181,19.613,8.695,28.209
				c-2.04,11.793-13.403,22.032-26.427,23.815c-1.557,0.212-3.13,0.316-4.712,0.316c-11.526,0-23.489-5.517-32.142-15.054
				c-9.201-10.15-14.812-24.613-15.8-40.723c-1.369-22.416,6.578-44.647,21.261-59.474c12.205-12.337,29.203-19.331,45.709-19.33
				c4.083,0,8.138,0.428,12.08,1.309c18.575,4.155,33.282,17.359,42.35,27.707c30.043,34.265,38.729,84.144,21.121,121.298
				c-15.341,32.375-47.598,52.741-71.956,64.124c-46.088,21.534-96.881,35.886-149.216,49.889
				c-8.389,2.244-16.842,4.414-25.258,6.485c-2.27-46.384-1.518-93.465,2.234-139.966c4.003-49.749,9.485-117.884,37.087-201.191
				c26.176-78.975,56.519-121.821,69.476-140.117l0.382-0.539c41.665-58.863,72.516-73.182,82.656-77.889
				c28.571-13.275,54.544-15.444,68.288-15.444c0.486,0,0.958,0.003,1.413,0.008c13.901,0.144,42.828,0.443,71.851,18.694
				c31.999,20.109,46.6,46.736,49.2,51.867c14.312,28.257,12.142,51.806,10.706,67.389c-0.145,1.568-0.281,3.058-0.396,4.467
				c-0.494,6.055,4.015,11.364,10.069,11.858c0.302,0.024,0.601,0.036,0.898,0.036c5.667,0,10.49-4.352,10.96-10.105
				c0.108-1.336,0.239-2.75,0.376-4.237c1.566-16.995,4.187-45.439-12.988-79.351c-4.302-8.487-21.135-37.937-57.116-60.549
				c-34.285-21.56-67.412-21.902-83.334-22.067C1270.062,83.525,1269.548,83.522,1269.017,83.522L1269.017,83.522z"/>
		</g>
	</g>
	<g>
		<g>
			<path style="fill:#480000;" d="M1263.738,16c22.722,0,44.637,2.974,66.997,9.092c38.407,10.512,94.564,38.095,143.99,109.798
				c16.428,23.831,28.17,50.525,34.9,79.34c5.441,23.298,6.11,41.582,6.431,50.369c0.052,1.419,0.096,2.598,0.146,3.522
				c1.704,31.559,0.405,77.53-30.409,112.257c-7.966,8.991-30.189,30.359-64.432,34.582c-2.741,0.336-7.842,0.96-14.582,0.96
				c-14.97,0-36.672-3.189-55.04-18.379c-27.814-23.013-38.186-64.765-24.662-99.277c5.19-13.251,13.144-23.468,21.67-31.263
				c2.884,11.123,8.646,20.915,16.922,28.087c9.827,8.504,23.229,13.187,37.737,13.187c10.262,0,20.358-2.348,29.2-6.792
				c19.403-9.756,30.028-28.02,33.501-41.861c9.164-36.522-0.49-71.824-10.201-95.006c-14.934-35.65-40.572-66.112-74.144-88.095
				c-42.862-28.06-84.306-30.682-104.225-31.942c-5.007-0.316-10.092-0.477-15.113-0.477
				c-57.124,0.001-102.084,20.634-123.803,32.934c-64.074,36.303-92.326,86.972-128.115,160.13
				c-45.755,93.524-58.828,173.695-67.479,226.746c-18.389,112.768-16.056,229.243-13.8,341.883
				c0.739,36.919,1.504,75.094,1.504,112.273v345.817c0,38.671-0.234,84.178-1.964,128.489
				c-4.885,125.057-21.283,220.73-53.17,310.213c-34.306,96.272-76.224,164.586-92.654,189.488c-2.076,3.146-4.223,6.43-6.453,9.84
				c-25.318,38.719-59.993,91.746-120.75,144.035c-21.176,18.228-45.178,38.887-75.064,58.55
				c-34.445,22.663-69.714,39.298-107.822,50.855c-40.059,12.149-78.464,18.054-117.409,18.054c-21.554,0-43.198-1.875-64.328-5.573
				c-24.655-4.318-99.684-17.459-165.14-77.647c-57.468-52.849-77.13-114.512-90.147-155.335
				c-8.138-25.515-25.071-78.608-18.241-147.866c4.795-48.549,19.134-86.088,30.321-109.035c9.56-19.623,22.653-46.498,50.207-71.89
				c11.528-10.621,32.987-30.39,67.214-40.183c13.39-3.825,27.312-5.765,41.379-5.764c10.242,0,20.419,1.047,29.451,3.031
				c9.406,2.055,34.007,8.974,59.229,28.8c26.701,20.98,39.758,45.335,44.124,54.813c17.692,38.546,15.203,70.691,9.995,90.883
				c-5.828,22.537-24.726,76.015-74.226,85.838c-5.135,1.019-10.436,1.535-15.756,1.535c-4.115,0-8.273-0.312-12.435-0.927
				c2.449-2.444,4.767-5.027,6.948-7.744c21.21-26.408,21.381-55.656,21.445-66.688c0.079-14.158,0.289-51.766-29.33-77.792
				c-15.691-13.784-36.705-21.375-59.171-21.375c-9.713,0-19.101,1.419-27.9,4.216c-55.023,17.47-72.135,84.643-81.328,120.731
				l-0.017,0.064c-14.463,56.859-6.898,102.882-3.261,125.007c5.554,33.774,15.893,96.642,66.382,155.168
				c58.427,67.733,137.438,82.884,163.401,87.863c16.623,3.189,33.869,4.806,51.258,4.806c55.224,0,111.546-15.42,172.184-47.143
				c137.736-72.058,194.5-194.236,213.153-234.385c5.276-11.354,10.204-23.014,14.652-34.666
				c30.746-80.692,44.119-178.706,39.747-291.317c-4.135-106.603-27.166-203.83-68.453-288.983
				c-10.46-21.563-22.403-42.618-35.589-62.754c14.2-13.709,27.516-28.381,39.701-43.753c22.282-28.106,41.255-59.082,56.402-92.089
				l0.912-1.534l0.953-1.603l0.559-1.779c13.874-44.168,27.983-95.259,37.203-169.391c0.428-3.443,0.884-6.09,1.367-8.893
				c0.663-3.849,1.415-8.211,2.125-14.85l1.708-15.977l-15.984-1.64c-40.85-4.192-71.875-10.825-100.594-21.509
				c-2.644-0.984-5.263-2.011-8.036-3.1c-8.249-3.238-16.779-6.585-26.103-8.765c-6.494-1.518-12.853-2.288-18.9-2.288
				c-9.028,0-17.377,1.706-24.818,5.071c-27.286,12.347-37.329,45.875-32.926,71.154c3.102,17.798,13.175,31.215,26.93,35.887
				c3.897,1.329,8.03,1.975,12.634,1.975c2.579,0,5.244-0.198,8.353-0.619c5.356-0.714,10.674-1.864,15.883-3.422
				c-0.97,5.661-2.393,11.552-4.304,19.003c-4.178,16.268-11.491,25.054-25.308,37.499c-9.482,8.536-22.408,14.895-37.392,18.393
				c-6.599,1.545-12.811,2.328-18.463,2.328c-5.048,0-9.755-0.628-13.975-1.862c-19.501-5.723-32.21-25.331-37.602-41.773
				c-7.076-21.577-6.735-46.258-6.435-68.04l0.011-0.81c0.341-25.417,0.694-51.699-7.099-77.409
				c-2.271-7.487-5.92-17.002-14.043-24.191c-7.593-6.714-16.64-9.241-23.674-10.693c-7.068-1.459-14.672-2.256-22.629-2.374
				c3.701-4.3,8.012-8.543,13.016-12.48c32.019-25.185,71.424-26.46,78.999-26.46c1.575,0,3.064,0.044,4.297,0.127
				c6.168,0.418,19.002,1.288,68.421,21.161c29.72,11.955,47.064,20.482,62.367,28.006c10.574,5.199,19.706,9.688,30.902,14.338
				c31.458,13.054,65.908,21.52,102.393,25.163l16.354,1.633l1.193-16.393c3.186-43.782,5.181-104.415-7.79-185.346
				c-6.38-39.757-19.656-122.483-64.432-211.231c-20.414-40.465-45.719-78.789-75.426-114.267c9.138-1.538,18.217-3.401,27.182-5.58
				c59.058-14.366,100.112-39.209,119.84-51.147c18.202-11.011,28.936-19.194,45.184-31.582c3.294-2.512,6.825-5.203,10.703-8.135
				c13.807-10.439,27.729-21.442,41.191-32.083c33.939-26.826,69.034-54.565,102.715-73.373
				c26.926-15.047,83.559-42.867,160.325-60.127C1219.859,18.705,1242.308,16,1263.738,16 M1263.738,0
				c-24.568,0-48.364,3.313-72.139,8.659c-78.974,17.757-137.08,46.38-164.62,61.77c-48.28,26.96-96.81,69.66-145.75,106.66
				c-22.58,17.07-33.41,26.02-54.52,38.79c-21.07,12.75-59.8,35.78-115.34,49.29c-19.42,4.72-37.97,7.57-55.3,9.09
				c33.99,36.77,66.51,80.92,93.04,133.51c42.79,84.81,56.09,164,62.92,206.56c11.85,73.94,11.25,131.91,7.63,181.65
				c-42.97-4.29-75.27-14.65-97.85-24.02c-26.7-11.09-42.84-22.06-93.43-42.41c-49.56-19.93-64.6-21.69-73.31-22.28
				c-1.528-0.103-3.334-0.164-5.379-0.164c-18.655,0-57.35,5.074-88.891,29.884c-18.99,14.94-28.99,33.07-34.04,44.67
				c8.783-2.409,18.88-3.629,28.834-3.629c7.442,0,14.802,0.682,21.476,2.06c5.86,1.209,11.82,3.04,16.31,7.01
				c4.87,4.31,7.44,10.62,9.33,16.85c7.15,23.59,6.73,48.71,6.4,73.36c-0.34,24.65-0.45,49.82,7.23,73.24
				c7.68,23.42,24.65,45.2,48.3,52.14c6.008,1.757,12.226,2.509,18.48,2.509c7.414,0,14.88-1.057,22.11-2.749
				c16.28-3.8,32.02-10.89,44.45-22.08c15.4-13.87,24.94-25.32,30.1-45.41c4.9-19.1,6.827-29.169,6.35-48.4
				c-10.73,6.82-22.94,11.3-35.54,12.98c-2.06,0.279-4.158,0.479-6.239,0.479c-2.545,0-5.067-0.299-7.471-1.119
				c-9.48-3.22-14.61-13.62-16.33-23.49c-3.51-20.15,5.11-45.39,23.76-53.83c5.715-2.585,11.935-3.648,18.222-3.648
				c5.121,0,10.285,0.705,15.258,1.867c11.08,2.59,21.53,7.31,32.2,11.281c34.06,12.67,68.29,18.709,104.54,22.43
				c-1.16,10.85-2.37,14.7-3.46,23.47c-9.09,73.09-22.75,122.51-36.59,166.57l-1.35,2.271c-12.37,27.09-29.84,58.17-54.75,89.59
				c-15.37,19.39-31.59,36.4-48.04,51.32c14.69,21.27,29.05,45.27,42.07,72.11c42.58,87.82,63.09,185.43,66.86,282.62
				c3.66,94.26-4.92,196.32-38.71,285c-4.34,11.37-9.08,22.58-14.21,33.62c-21,45.199-76.98,159.42-206.06,226.949
				c-30.19,15.794-91.989,45.321-164.767,45.321c-15.646,0-31.786-1.363-48.243-4.52c-35.2-6.75-102.69-22.771-154.3-82.6
				c-47.55-55.12-57.39-114.97-62.71-147.32c-3.73-22.69-10.39-65.9,2.98-118.46c8.72-34.23,24.1-94.7,70.68-109.49
				c7.101-2.257,14.973-3.466,23.058-3.466c16.953,0,34.854,5.31,48.612,17.396c24.15,21.22,23.96,53.16,23.89,65.7
				c-0.06,10.29-0.21,34.689-17.92,56.74c-9.11,11.35-20.02,18.51-30.12,23.04c15.22,7.57,31.655,11.65,48.082,11.65
				c6.314,0,12.624-0.602,18.868-1.84c64.75-12.85,83.75-86.49,86.61-97.55c12.58-48.78-5.41-89.47-10.95-101.54
				c-2.98-6.47-16.95-35.71-48.78-60.72c-30.1-23.66-59.61-30.52-65.7-31.85c-4.526-0.994-16.463-3.4-32.865-3.4
				c-12.955,0-28.693,1.5-45.775,6.38c-37.12,10.62-60.19,31.39-73.66,43.8c-29.19,26.9-43.1,54.791-53.75,76.65
				c-7.61,15.61-26.18,56.96-31.86,114.47c-7.01,71.08,9.76,125.58,18.92,154.3c13.45,42.18,33.96,106.52,94.56,162.25
				c66.24,60.91,140.55,75.91,173.21,81.63c23.755,4.157,46.256,5.813,67.088,5.813c54.331,0,97.36-11.255,122.052-18.743
				c89.32-27.09,146.38-76.18,188.68-112.59c67.95-58.48,104.52-118.39,130.12-157.19c10.86-16.46,56.69-87.19,94.37-192.929
				c37.296-104.663,49.92-208.31,54.086-314.959c1.659-42.478,1.977-85.431,1.977-129.114c0-115.272,0-230.544,0-345.817
				c0-149.711-12.1-303.259,12.087-451.582c9.07-55.62,22.24-132.72,66.06-222.29c33.53-68.54,60.35-118.52,121.63-153.24
				c17.135-9.704,59.683-30.854,115.917-30.855c4.612,0,9.313,0.142,14.104,0.445c20.55,1.3,57.93,4.13,96.47,29.36
				c44.58,29.19,62.21,66.71,68.15,80.89c8.32,19.86,17.728,51.901,9.44,84.93c-2.061,8.211-9.1,23.38-25.17,31.46
				c-6.686,3.36-14.393,5.086-22.013,5.086c-10.091,0-20.031-3.025-27.267-9.286c-11.24-9.74-16.11-27.45-12.12-45.71
				c-17.43,8.87-40.25,25.56-51.84,55.15c-16.2,41.34-3.55,90.21,29.36,117.44c22.438,18.556,48.258,22.052,65.24,22.052
				c7.737,0,13.636-0.725,16.55-1.082c41.03-5.06,66.36-30.73,74.44-39.85c34.96-39.4,36.23-90.01,34.41-123.73
				c-0.68-12.61-0.01-77.23-44.28-141.45c-13.6-19.73-64.38-91.91-152.94-116.15C1310.16,2.875,1286.615,0.001,1263.738,0
				L1263.738,0z"/>
		</g>
	</g>
	<g>
		<g>
			<path style="fill:#480000;" d="M1381.536,524.575c12.093,7.645,23.21,16.341,33.213,25.99
				c26.097,25.176,45.697,57.704,58.255,96.681c11.758,36.493,17.151,77.774,16.029,122.695
				c-1.063,42.596-7.875,86.365-20.248,130.092c-11.905,42.075-28.855,82.808-49.02,117.797
				c-24.961,43.31-56.615,80.113-96.769,112.514c-36.723,29.632-74.359,50.306-103.046,65.007l-43.721,22.405l48.53,7.639
				c12.89,2.029,28.073,7.795,44.146,13.9c2.167,0.823,4.348,1.651,6.544,2.479c5.674,2.136,26.037,10.352,49.833,26.382
				c26.576,17.903,48.086,39.055,63.934,62.868c5.029,7.556,6.202,10.418,11.842,24.174c5.472,13.346,14.63,35.682,34.519,79.476
				l0.078,0.173c19.163,42.208,27.094,59.679,32.4,67.384c17.685,25.698,45.555,44.836,83.046,57.082
				c-15.41,18.79-28.906,39.028-40.274,60.418c-19.923,37.486-43.5,97.903-42.681,172.854c0.372,33.974,0.933,85.315,32.445,137.353
				c11.157,18.418,31.924,52.7,73.961,72.268c19.32,8.995,40.437,13.555,62.765,13.555c1.608,0,3.225-0.024,4.847-0.072
				c-1.552,2.529-3.19,5.004-4.912,7.419c-7.028,9.868-20.108,28.236-41.707,37.269c-8.759,3.661-17.905,5.441-27.96,5.441
				c-19.376,0-37.553-6.9-49.585-11.468c-47.864-18.155-73.689-56.377-84.722-72.705c-10.932-16.159-19.547-33.397-26.339-52.694
				c-43.745-124.374-78.712-362.332-90.202-440.527c-0.494-3.36-0.948-6.453-1.361-9.25c-1.402-9.536-7.06-43.939-21.039-86.256
				c-11.529-34.871-22.419-67.808-50.832-99.835c-15.61-17.597-39.2-44.191-79.315-50.838c-3.158-0.523-8.148-1.218-14.989-1.219
				c-14.711,0-31.587,3.245-50.165,9.649c-30.579,10.552-59.108,27.222-85.18,49.732v-12.179
				c23.245-11.992,45.878-25.533,67.403-40.331c35.585-24.458,89.361-61.418,136.178-128.375
				c17.272-24.69,69.831-99.823,74.771-201.745c2.818-58.025-10.552-98.748-18.771-117.854
				c-7.326-17.046-18.398-42.805-41.907-63.894c-7.855-7.044-16.571-13.063-26.093-18.029c17.979-9.25,35.499-19.458,52.386-30.534
				c30.979-20.325,57.732-37.878,80.491-66.574C1359.793,593.806,1374.283,561.491,1381.536,524.575 M1369.209,499.279
				c-3.83,35.03-15.12,75.97-43.43,111.67c-21.16,26.68-45.84,42.87-76.75,63.15c-31.18,20.45-60.61,35.29-85.63,46.05
				c20.04,4.08,40.29,12.4,57.45,27.79c20.88,18.73,31.06,42.41,37.89,58.3c4.25,9.88,20.46,49.6,17.49,110.76
				c-4.62,95.33-52.04,164.96-71.9,193.35c-44.26,63.3-95.13,98.93-132.13,124.36c-27.2,18.7-52.69,32.95-74.34,43.68v60.07
				c24.43-27.04,59.6-56.51,106.4-72.66c20.444-7.047,35.066-8.774,44.945-8.773c5.569,0,9.632,0.549,12.375,1.003
				c34.52,5.72,55.35,29.2,69.96,45.67c25.71,28.98,35.82,58.58,47.61,94.24c14.29,43.26,19.53,77.64,20.4,83.56
				c10.41,70.53,46.21,321.72,92.3,452.76c4.54,12.9,12.79,33.6,28.18,56.35c12.98,19.21,40.76,59.15,92.3,78.7
				c13.084,4.967,32.965,12.508,55.26,12.508c10.967,0,22.518-1.825,34.13-6.678c25.8-10.79,40.85-31.91,48.57-42.75
				c9.09-12.75,14.9-25.27,18.66-35.83c-9.76,1.934-20.425,3.201-31.628,3.201c-17.826,0-37.007-3.212-56.012-12.061
				c-37.64-17.52-56.53-48.72-67.04-66.07c-29.23-48.27-29.75-95.4-30.12-129.22c-0.8-73.18,22.66-131.02,40.81-165.17
				c17.57-33.06,37.86-58.38,55.11-76.61c-59.46-13.25-85.83-38.58-98.83-57.47c-4.51-6.55-13.37-26.07-31.09-65.1
				c-40.66-89.53-36.11-88.62-47.61-105.9c-39.63-59.55-102.06-88.06-121.45-95.36c-19.22-7.24-37.45-14.63-53.84-17.21
				c64.59-33.1,148.74-83.76,206.38-183.77c83.68-145.2,109.31-373.82-7.77-486.77
				C1407.549,521.389,1387.899,508.629,1369.209,499.279L1369.209,499.279z"/>
		</g>
	</g>
	<g>
		<g>
			<path style="fill:#480000;" d="M1573.362,2123.804c-8.401,0-17.091-0.559-25.826-1.661c-23.601-2.974-46.867-9.836-69.154-20.397
				c-118.296-56.067-146.128-184.743-170.684-298.272l-1.288-5.95c-14.727-68.009-22.113-102.118-29.723-145.1
				c-9.567-54.016-19.862-105.402-40.372-207.779c-1.06-5.299-3.877-19.377-10.499-37.339
				c-11.612-31.507-29.161-79.122-67.096-89.887c-5.117-1.452-10.54-2.188-16.118-2.188c-12.618,0-24.383,3.667-34.763,6.901
				c-16.357,5.103-28.308,12.347-55.598,33.702c-17.173,13.426-34.472,27.769-51.415,42.629c-1.053,0.925-2.192,1.118-2.962,1.118
				c-1.317,0-2.521-0.545-3.389-1.534c-0.792-0.903-1.186-2.062-1.107-3.261s0.62-2.296,1.523-3.089
				c17.064-14.967,34.494-29.418,51.806-42.952c25.43-19.899,39.171-29.188,58.451-35.201c10.435-3.252,23.424-7.301,37.535-7.301
				c6.476,0,12.526,0.823,18.495,2.518c42.337,12.015,60.838,62.209,73.081,95.424c6.861,18.612,9.782,33.2,10.883,38.691
				c20.521,102.433,30.82,153.847,40.408,207.979c7.579,42.815,14.954,76.871,29.647,144.719l1.298,5.997
				c25.294,116.945,51.45,237.873,165.74,292.043c21.426,10.152,43.774,16.747,66.426,19.602c8.391,1.059,16.719,1.595,24.752,1.595
				c23.107,0,43.862-4.288,61.688-12.746c61.944-29.363,116.781-113.211,124.838-190.887c4.015-38.695-1.338-92.518-49.63-129.183
				c-18.596-14.117-41.417-21.892-64.259-21.892c-12.753,0-24.863,2.396-35.993,7.12c-22.199,9.418-39.341,27.72-48.267,51.533
				c-9.437,25.174-8.318,53.049,3.065,76.478c15.31,31.469,51.388,55.198,83.923,55.198c5.87,0,11.643-0.734,17.156-2.183
				c22.046-5.792,32.522-22.213,37.429-34.97c9.566-24.867,6.215-57.565-8.15-79.516c-9.054-13.838-24.347-22.779-38.959-22.779
				c-1.85,0-3.688,0.145-5.466,0.43c-11.14,1.778-21.622,9.441-26.701,19.521c-5.661,11.215-3.906,21.936,1.037,36.662
				c0.383,1.14,0.299,2.36-0.236,3.437s-1.458,1.879-2.598,2.262c-0.468,0.157-0.95,0.237-1.434,0.237
				c-1.934,0-3.647-1.234-4.264-3.07c-4.556-13.569-8.351-28.11-0.542-43.58c6.435-12.771,19.201-22.103,33.318-24.356
				c2.243-0.358,4.558-0.54,6.88-0.54c17.843,0,35.659,10.288,46.495,26.85c16.103,24.605,19.728,59.839,9.02,87.675
				c-8.004,20.808-23.467,35.17-43.542,40.442c-6.114,1.606-12.549,2.421-19.124,2.421c-15.246,0-31.224-4.394-46.203-12.708
				c-20.045-11.124-36.859-28.437-46.133-47.497c-12.458-25.637-13.697-56.099-3.398-83.572
				c9.799-26.146,28.685-46.268,53.178-56.659c12.168-5.165,25.423-7.784,39.398-7.784c24.909,0,49.701,8.407,69.812,23.673
				c40.277,30.58,59.149,79.334,53.14,137.279c-8.489,81.841-64.349,167.001-129.934,198.09
				C1619.925,2119.225,1597.856,2123.803,1573.362,2123.804L1573.362,2123.804z"/>
			<path style="fill:#480000;" d="M1142.683,1299.742c-15.1,0-28.675,4.231-39.469,7.595c-20.259,6.318-34.435,15.873-60.52,36.285
				c-17.406,13.608-34.932,28.139-52.088,43.187c-4.567,4.006-5.022,10.955-1.017,15.522c2.175,2.48,5.218,3.749,8.275,3.749
				c2.575,0,5.161-0.9,7.248-2.732c16.847-14.775,34.05-29.039,51.135-42.396c26.556-20.781,38.06-27.791,53.525-32.615
				c10.12-3.154,21.201-6.607,32.83-6.607c4.7,0,9.492,0.565,14.343,1.941c34.753,9.862,51.613,55.605,62.772,85.883
				c6.441,17.471,9.19,31.197,10.225,36.366c20.5,102.329,30.79,153.693,40.345,207.636c7.633,43.115,15.031,77.278,29.771,145.342
				l1.287,5.948c24.873,114.995,53.064,245.334,174.254,302.773c22.912,10.857,46.842,17.913,71.124,20.973
				c9.072,1.145,17.968,1.712,26.64,1.712c25.228-0.001,48.514-4.811,68.379-14.235c67.469-31.982,124.91-119.38,133.614-203.293
				c6.254-60.291-13.519-111.121-55.675-143.128c-21.611-16.405-47.982-24.996-73.741-24.995
				c-14.492,0.001-28.795,2.721-41.937,8.301c-26.149,11.094-46.296,32.53-56.727,60.361c-10.921,29.135-9.594,61.462,3.641,88.697
				c9.843,20.231,27.638,38.579,48.823,50.337c16.103,8.937,33.072,13.525,49.357,13.525c7.098,0,14.066-0.872,20.775-2.634
				c22.151-5.818,39.183-21.585,47.957-44.396c11.423-29.694,7.546-67.297-9.646-93.567c-12.1-18.493-32.215-29.792-51.935-29.792
				c-2.649,0-5.291,0.204-7.905,0.622c-16.143,2.578-30.741,13.251-38.096,27.847c-8.937,17.704-4.592,34.357,0.183,48.577
				c1.543,4.597,5.828,7.502,10.426,7.502c1.161,0,2.342-0.185,3.503-0.575c5.759-1.934,8.86-8.17,6.927-13.929
				c-4.502-13.411-6.059-22.429-1.395-31.669c4.17-8.275,12.775-14.567,21.925-16.028c1.458-0.234,2.94-0.347,4.437-0.347
				c12.304,0.001,25.573,7.692,33.521,19.839c13.291,20.31,16.385,50.585,7.522,73.623c-4.361,11.339-13.63,25.924-33.014,31.016
				c-5.111,1.343-10.303,1.969-15.505,1.969c-32.292,0-64.772-24.19-78.076-51.539c-10.609-21.833-11.64-47.841-2.825-71.355
				c8.294-22.129,24.175-39.115,44.72-47.831c10.459-4.44,21.86-6.604,33.453-6.604c20.965,0,42.557,7.077,60.328,20.568
				c45.885,34.837,50.938,86.299,47.096,123.335c-7.846,75.636-61.063,157.198-121.159,185.686
				c-16.916,8.026-36.962,12.118-58.901,12.118c-7.76,0-15.762-0.512-23.939-1.544c-21.967-2.768-43.652-9.169-64.454-19.026
				c-111.398-52.799-137.21-172.136-162.172-287.544l-1.288-5.953c-14.681-67.791-22.05-101.817-29.609-144.521
				c-9.598-54.187-19.903-105.631-40.436-208.121c-1.127-5.627-4.121-20.576-11.157-39.662
				c-12.697-34.45-31.886-86.513-77.405-99.43C1155.979,1300.528,1149.19,1299.742,1142.683,1299.742L1142.683,1299.742z"/>
		</g>
	</g>
	<g>
		<g>
			<path style="fill:#480000;" d="M997.861,1227.012c-1.852,0-3.542-1.163-4.205-2.895c-0.43-1.122-0.396-2.345,0.093-3.442
				s1.378-1.938,2.5-2.368c26.668-10.21,52.114-23.534,75.631-39.603c29.495-20.165,55.948-44.645,78.626-72.76
				c17.228-21.369,48.98-66.866,68.087-131.501c9.767-33.06,20.835-70.529,12.946-117.966c-4.602-27.604-10.9-65.399-40.315-79.849
				c-8.606-4.229-19.071-6.557-29.464-6.557c-17.995,0-33.367,6.671-42.174,18.304c-9.453,12.475-9.459,27.922-8.622,36.021
				c0.124,1.196-0.226,2.368-0.983,3.301c-0.758,0.933-1.834,1.515-3.03,1.639c-0.162,0.017-0.322,0.025-0.479,0.025
				c-2.304,0-4.221-1.736-4.459-4.037c-1.682-16.261,2.011-31.312,10.4-42.382c10.461-13.818,28.503-21.742,49.503-21.742
				c11.809,0,23.627,2.61,33.277,7.351c33.564,16.489,40.576,58.557,45.216,86.395c8.239,49.536-3.64,89.742-13.184,122.048
				c-14.485,49.005-39.243,96.808-69.712,134.601c-23.23,28.8-50.332,53.879-80.554,74.54
				c-24.096,16.465-50.168,30.117-77.491,40.577C998.946,1226.911,998.407,1227.012,997.861,1227.012z"/>
			<path style="fill:#480000;" d="M1161.915,754.699c-20.754,0.001-41.871,7.392-54.684,24.317
				c-9.387,12.388-13.537,29.071-11.685,46.976c0.585,5.657,5.357,9.869,10.925,9.869c0.379,0,0.763-0.02,1.148-0.06
				c6.043-0.625,10.435-6.03,9.81-12.073c-0.739-7.146-0.769-20.729,7.339-31.429c8.215-10.851,22.562-15.728,36.992-15.728
				c9.386,0,18.809,2.065,26.598,5.891c26.42,12.979,32.396,48.845,36.77,75.082c7.644,45.96-3.2,82.67-12.768,115.057
				c-18.789,63.56-49.989,108.271-66.914,129.263c-22.279,27.621-48.265,51.669-77.233,71.474
				c-23.098,15.782-48.092,28.87-74.288,38.899c-5.673,2.172-8.512,8.532-6.34,14.205c1.677,4.38,5.849,7.07,10.275,7.07
				c1.308,0,2.638-0.234,3.931-0.73c27.796-10.642,54.319-24.53,78.835-41.281c30.746-21.02,58.315-46.53,81.945-75.826
				c30.989-38.438,56.164-87.035,70.886-136.839c9.733-32.946,21.846-73.95,13.362-124.956
				c-4.858-29.15-12.199-73.201-48.762-91.163C1187.524,757.541,1174.791,754.698,1161.915,754.699L1161.915,754.699z"/>
		</g>
	</g>
	<g>
		<g>
			<path style="fill:#480000;" d="M372.479,2093.689c-70.47,0-139.979-30.916-185.937-82.699
				c-27.202-30.652-46.557-68.873-55.973-110.531c-9.392-41.557-8.423-84.413,2.802-123.936
				c3.918-13.797,10.844-33.757,25.689-47.739c10.14-9.55,23.293-15.026,36.089-15.026c6.151,0,11.926,1.24,17.164,3.688
				c9.389,4.388,16.194,12.867,18.671,23.265c2.729,11.457,0.057,23.772-7.149,32.944c-0.859,1.094-2.152,1.721-3.546,1.721
				c-0.706,0-1.76-0.167-2.771-0.962c-0.947-0.743-1.546-1.81-1.689-3.003c-0.144-1.193,0.187-2.371,0.929-3.316
				c5.442-6.927,7.539-16.62,5.472-25.298c-1.079-4.531-4.298-12.79-13.728-17.196c-4.083-1.909-8.552-2.877-13.281-2.877
				c-12.237,0-23.515,6.516-29.989,12.614c-10.065,9.479-17.438,23.348-23.202,43.646c-21.997,77.448-1.882,166.172,51.245,226.033
				c44.286,49.9,111.214,79.691,179.034,79.691c13.288,0,26.529-1.159,39.355-3.444c53.149-9.473,105.614-37.57,155.937-83.511
				c23.82-21.747,45.679-46.323,64.967-73.049c118.417-164.071,105.908-366.485,74.563-507.397
				c-12.052-54.177-25.249-88.927-27.771-95.343c-18.505-47.052-43.477-91.243-74.22-131.347l-3.884-5.065l-5.135,3.791
				c-1.569,1.158-3.141,2.302-4.714,3.426c-1.093,0.782-2.185,1.593-3.283,2.409c-6.524,4.845-13.192,9.797-21.744,10.973
				c-1.443,0.199-2.915,0.3-4.378,0.3c-17.575,0-31.874-14.299-31.875-31.874c0-11.552,6.579-22.298,17.17-28.046
				c4.758-2.583,9.983-3.948,15.112-3.948c5.696,0,11.269,1.665,16.116,4.815c5.041,3.275,9.002,7.644,12.95,12.207
				c2.385,2.757,4.777,5.577,7.109,8.382l4.148,4.99l5.71-4.732c3.388-2.818,6.828-5.781,10.229-8.811
				c61.339-54.649,106.436-129.038,134.037-221.101c2.142-7.146,4.086-13.277,5.802-18.687c3.659-11.54,6.545-20.641,8.678-31.314
				l1.327-6.639l-6.688-1.055c-7.58-1.196-15.038-2.652-22.933-4.193c-4.814-0.94-9.722-1.899-14.854-2.838
				c-23.682-4.345-47.352-9.859-70.349-16.387c-2.387-0.678-3.777-3.171-3.1-5.559c0.547-1.926,2.326-3.272,4.327-3.272
				c0.413,0,0.828,0.059,1.235,0.174c22.726,6.451,46.114,11.899,69.509,16.192c5.15,0.942,10.07,1.903,14.827,2.831
				c11.525,2.251,22.353,4.366,33.551,5.644l4.577,0.522l-0.629,4.564c-2.365,17.137-5.944,28.426-10.899,44.05
				c-1.701,5.363-3.628,11.441-5.76,18.551c-13.322,44.437-31.061,85.538-52.721,122.162
				c-23.464,39.671-51.709,74.351-83.95,103.075c-3.479,3.1-6.996,6.129-10.454,9.004l-1.026,0.852l-4.84,3.992l3.819,4.979
				c31.312,40.81,56.739,85.789,75.578,133.689c2.566,6.525,15.984,41.854,28.181,96.683c20.949,94.174,26.679,183.74,17.03,266.214
				c-11.065,94.587-42.382,178.163-93.08,248.406c-19.647,27.222-41.919,52.263-66.197,74.429
				c-51.6,47.105-105.575,75.947-160.425,85.723C399.967,2092.489,386.252,2093.689,372.479,2093.689z M562.472,1151.598
				c-4.666,0-8.493,1.545-10.882,2.84c-6.026,3.271-12.464,10.277-12.464,20.138c0,12.613,10.262,22.874,22.875,22.874
				c1.058,0,2.12-0.073,3.157-0.217c6.26-0.86,11.732-4.925,17.525-9.227c1.171-0.871,2.33-1.73,3.487-2.559
				c1.303-0.933,2.608-1.878,3.91-2.836l5.568-4.092l-4.425-5.308c-2.161-2.592-4.367-5.189-6.556-7.72
				c-3.646-4.213-6.994-7.915-11.049-10.549C570.204,1152.724,566.453,1151.598,562.472,1151.598z"/>
			<path style="fill:#480000;" d="M654.917,841.887c-4.795,0-9.205,3.157-10.58,7.998c-1.659,5.844,1.734,11.927,7.578,13.586
				c23.195,6.584,47.065,12.145,70.954,16.528c5.084,0.93,9.978,1.886,14.71,2.81c7.904,1.543,15.515,3.029,23.233,4.247
				c-2.064,10.329-4.811,18.989-8.5,30.624c-1.723,5.433-3.675,11.59-5.832,18.785c-27.25,90.893-71.707,164.277-132.135,218.114
				c-3.341,2.977-6.724,5.891-10.056,8.662c-0.236,0.196-0.473,0.393-0.71,0.589c-2.368-2.849-4.763-5.673-7.191-8.479
				c-4.267-4.932-8.573-9.667-14.324-13.404c-6.007-3.903-12.784-5.865-19.658-5.865c-6.155,0-12.389,1.573-18.213,4.735
				c-12.687,6.886-20.569,19.821-20.569,33.759c0,21.159,17.215,38.374,38.374,38.374c1.757,0,3.529-0.121,5.264-0.36
				c10.205-1.403,17.887-7.109,24.664-12.143c1.091-0.811,2.174-1.616,3.256-2.391c1.6-1.144,3.2-2.307,4.795-3.484
				c30.4,39.655,55.006,83.181,73.33,129.771c2.492,6.336,15.528,40.665,27.476,94.375
				c31.057,139.613,43.517,340.067-73.488,502.183c-19.027,26.362-40.586,50.604-64.079,72.052
				c-49.4,45.099-100.774,72.658-152.695,81.912c-12.622,2.249-25.41,3.344-38.215,3.344c-65.186,0-130.59-28.398-174.173-77.506
				c-51.69-58.243-71.259-144.576-49.854-219.943c5.43-19.12,12.233-32.05,21.406-40.689c6.322-5.955,15.976-10.846,25.533-10.846
				c3.583,0,7.154,0.688,10.529,2.266c6.955,3.25,9.349,9.423,10.156,12.813c1.618,6.794-0.014,14.372-4.26,19.776
				c-3.753,4.777-2.923,11.692,1.854,15.445c2.015,1.584,4.41,2.352,6.788,2.352c3.26,0,6.487-1.443,8.658-4.205
				c8.42-10.718,11.546-25.098,8.361-38.466c-2.939-12.338-11.046-22.415-22.243-27.647c-6.2-2.896-12.984-4.299-19.915-4.299
				c-14.162,0-28.932,5.857-40.545,16.795c-16.015,15.084-23.356,36.156-27.485,50.695c-11.521,40.564-12.52,84.53-2.889,127.144
				c9.657,42.727,29.523,81.943,57.451,113.413c47.733,53.784,119.371,84.885,190.798,84.885c14.037,0,28.068-1.201,41.905-3.668
				c56.081-9.995,111.146-39.375,163.668-87.322c24.605-22.465,47.176-47.841,67.084-75.425
				c51.354-71.152,83.069-155.754,94.265-251.455c9.733-83.198,3.966-173.494-17.141-268.38
				c-12.303-55.305-25.88-91.047-28.477-97.65c-19.102-48.571-44.762-93.94-76.469-135.268c0.349-0.288,0.698-0.578,1.045-0.867
				c3.522-2.929,7.096-6.007,10.622-9.148c32.743-29.172,61.415-64.371,85.221-104.62c21.929-37.076,39.879-78.662,53.352-123.604
				c2.107-7.028,4.031-13.097,5.729-18.452c5.052-15.931,8.702-27.441,11.142-45.127l1.539-11.155l-11.188-1.277
				c-10.937-1.249-21.645-3.339-32.981-5.553c-4.795-0.936-9.754-1.904-14.961-2.857c-23.199-4.257-46.384-9.658-68.911-16.053
				C656.92,842.023,655.91,841.887,654.917,841.887L654.917,841.887z M562,1190.949c-9.029,0-16.374-7.346-16.374-16.374
				c0-7.008,4.682-12.046,9.063-14.424c1.464-0.794,4.331-2.054,7.783-2.054c2.35,0,4.972,0.584,7.606,2.296
				c3.344,2.173,6.36,5.521,9.674,9.352c2.184,2.524,4.345,5.069,6.479,7.629c-1.28,0.94-2.562,1.87-3.844,2.787
				c-1.189,0.851-2.379,1.733-3.577,2.624c-5.106,3.792-9.929,7.374-14.546,8.009C563.518,1190.897,562.756,1190.949,562,1190.949
				L562,1190.949z"/>
		</g>
	</g>
</g>
</svg>
