<?xml version="1.0" encoding="iso-8859-1"?>
<!-- Generator: Adobe Illustrator 24.0.1, SVG Export Plug-In . SVG Version: 6.00 Build 0)  -->
<svg version="1.1" xmlns="http://www.w3.org/2000/svg" xmlns:xlink="http://www.w3.org/1999/xlink" x="0px" y="0px"
	 viewBox="0 0 1663.401 2185.604" style="enable-background:new 0 0 1663.401 2185.604;" xml:space="preserve">
<g id="Layer_5">
	<linearGradient id="SVGID_1_" gradientUnits="userSpaceOnUse" x1="410.3027" y1="1168.8527" x2="485.7979" y2="-51.6521">
		<stop  offset="0" style="stop-color:#8B1D1A"/>
		<stop  offset="0.25" style="stop-color:#550000"/>
		<stop  offset="0.5" style="stop-color:#3A0000"/>
		<stop  offset="0.75" style="stop-color:#1E0000"/>
		<stop  offset="1" style="stop-color:#000000"/>
	</linearGradient>
	<path style="fill:url(#SVGID_1_);" d="M289.645,2126.398c14.94-33.7,30.82-75.18,44.23-123.54
		c6.87-24.78,27.08-101.87,30.69-181.99c7.609-168.923-57.937-343.845-161.395-475.974c-13.625-17.406-27.365-33.246-40.875-47.626
		c12.15-11.38,24.49-24.19,36.63-38.55c39.29-46.5,61.91-92.13,74.87-124.31l0.9-1.897c4.842-9.126,10.96-22.399,15.571-39.171
		c4.09-14.876,5.517-27.136,6.569-40.144c1.606-19.859,3.037-50.148,1.216-89.776l-0.237-1.363c2.04-69.73,0.63-128.32-1.41-172.34
		c-4.12-88.73-11.3-129.13-14.13-144.09c-5.7-30.17-11.9-63-26.84-103.12c-35.49-95.32-92.45-156.96-122.9-189.29
		c-15.4-16.35-35.94-36.46-62.01-57.79c34.12-2.09,61.37-8.53,80.37-14.25c48.12-14.52,81.79-36.1,115.84-57.92
		c16.45-10.55,18.62-12.95,94.65-70.63c75.96-57.64,83.56-62.65,91.82-67.81c45.11-28.19,82.73-43.97,113.01-56.51
		c37.52-15.53,56.79-23.37,81.93-26.84c0,0,46.2-6.26,94.65,7.07c56.23,15.47,98.63,55.58,127.35,92.69
		c-54.08-29.29-132.46-57.11-208.52-31.54c-41.78,14.05-75.56,41.75-78.94,44.56c-46.34,38.59-65.79,83.43-85.3,129.86
		c-25.26,60.14-33.65,108.56-42.43,161.27c-12.29,73.7-13.86,131.49-15.28,192.25c-1.33,56.89,2.58,108.54,1.13,142.38v996.12
		l0.84,4.8c1.81,41.97-1.02,92.27-14.99,147.02C400.095,1992.028,343.835,2070.798,289.645,2126.398z"/>
	<linearGradient id="SVGID_2_" gradientUnits="userSpaceOnUse" x1="1092.3986" y1="1211.0442" x2="1167.8937" y2="-9.4606">
		<stop  offset="0" style="stop-color:#8B1D1A"/>
		<stop  offset="0.25" style="stop-color:#550000"/>
		<stop  offset="0.5" style="stop-color:#3A0000"/>
		<stop  offset="0.75" style="stop-color:#1E0000"/>
		<stop  offset="1" style="stop-color:#000000"/>
	</linearGradient>
	<path style="fill:url(#SVGID_2_);" d="M505.745,1759.308c14.48,25.64,30.76,50.3,52.45,70.5c4.68,4.36,9.76,8.59,15.883,10.451
		c20.9,6.348,45.601-19.729,59.492-31.881c91.659-80.185,179.961-164.499,269.728-246.81
		c60.349-55.337,133.748-94.732,213.502-113.263c61.683-14.332,133.814-14.635,211.225,5.743
		c82.849,21.809,159.335,69.511,213.867,134.36c47.292,56.239,71.952,128.309,67.633,198.39c-4.88,79.01-51.61,140.26-71.14,162.93
		c-21.05,24.43-75.57,87.73-165.23,95.62c-18.11,1.59-83.1,6.3-141.52-38.25c-13.01-9.92-55.4-43.27-68.84-104.03
		c-1.44-6.5-17.68-86.31,37.48-150.69c8.19-9.56,16.86-17.5,25.46-24.09c-1.06,66.22,25.2,123.08,69.39,149.54
		c24.63,14.74,64.29,25.72,105.57,14.53c46.88-12.7,71.31-47.35,81.08-61.2c6.25-8.86,46.29-67.63,26.77-138.45
		c-10.91-39.62-35.17-63.78-45.89-74.2c-36.37-35.33-77.18-44.82-92.56-48.19c-11.23-2.46-56.98-11.46-126.22,11.47
		c-51.5,17.06-93.74,44.41-157.58,101.74c-94.72,85.06-169.1,151.86-227.18,270.03c-20.78,42.27-35.16,82.33-45.24,117.73
		c-65.29-16.3-141.24-44.74-217.14-94.79c-35.27-23.25-65.43-47.81-90.99-71.66V1759.308z"/>
</g>
<g id="Layer_7">
	<g>
		<path style="fill:#BFCBC2;" d="M1279.868,1887.948c57.532,5.654,54.619,146.658,158.363,120.291
			C1321.713,2061.553,1315.06,1886.271,1279.868,1887.948z"/>
	</g>
	<g>
		<path style="fill:#BFCBC2;" d="M1227.782,1858.973c89.63,9.075,40.854,204.087,147.239,163.197
			c-21.782,26.643-75.867,14.773-92.87-40.807C1267.582,1938.718,1274.432,1880.004,1227.782,1858.973z"/>
	</g>
	<g>
		<path style="fill:#BFCBC2;" d="M1208.578,1833.879c73.368,36.585,4.755,173.084,92.261,190.951
			C1193.52,2020.871,1261.656,1874.352,1208.578,1833.879z"/>
	</g>
	<g>
		<path style="fill:#BFCBC2;" d="M1507.5,1941.481c-17.554,81.825-143.914,77.384-144.34-18.219
			C1378.042,1990.281,1468.179,2013.281,1507.5,1941.481z"/>
	</g>
	<g>
		<path style="fill:#BFCBC2;" d="M1531.791,1793.71c87.01,96.564-47.318,220.371-136.3,131.478
			C1491.085,1980.019,1581.322,1882.788,1531.791,1793.71z"/>
	</g>
	<g>
		<path style="fill:#BFCBC2;" d="M1526.908,1793.326c20.155,101.046-56.447,145.489-100.664,122.02
			C1497.988,1925.007,1524.22,1848.216,1526.908,1793.326z"/>
	</g>
	<g>
		<path style="fill:#BFCBC2;" d="M368.961,1164.31c-45.148-63.871-55.867-154.713-25.5-231.461
			c10.099-28.811,30.33-50.832,36.55-82.003c2.167-74.741-77.151-43.573-61.095,31.573c-46.689-97.034,79.519-141.855,93.872-38.984
			C415.201,915.118,311.595,991.158,368.961,1164.31z"/>
	</g>
	<g>
		<path style="fill:#BFCBC2;" d="M398.527,612.057c-19.187-81.016-119.28-15.533-56.996,26.275
			c87.483,29.338,83.325,106.47,47.776,138.515c-22.47,23.335-70.496,15.226-65.571-22.198c20.608,75.166,134.08-44.485,0.851-91.93
			c-10.081-6.47-17.794-13.745-23.316-25.57C267.004,549.091,403.611,524.83,398.527,612.057z"/>
	</g>
	<g>
		<path style="fill:#BFCBC2;" d="M405.109,577.312c13.127-86.555-101.951-83.486-123.257-5.578
			C294.257,454.87,446.509,492.809,405.109,577.312z"/>
	</g>
	<g>
		<path style="fill:#BFCBC2;" d="M393.411,452.223c2.951-107.277-164.701-7.862-10.004,53.436
			c11.23,8.302,21.728,23.539,16.519,38.248c0.546-13.699-10.965-26.053-26.042-31.569c-92.834-16.868-90.578-90.15-49.93-115.728
			C367.759,369.01,413.331,414.089,393.411,452.223z"/>
	</g>
	<g>
		<path style="fill:#BFCBC2;" d="M252.299,482.381c-42.946-33.379,22.865-76.652,52.682-37.115
			c36.983,48.135-13.41,110.335-47.138,73.039c40.016,25.137,59.029-38.395,34.2-64.952
			C269.322,426.474,226.981,452.951,252.299,482.381z"/>
	</g>
	<g>
		<path style="fill:#BFCBC2;" d="M285.524,369.609c-29.606,67.963-114.246-42.013-19.565-71.766
			c140.604-0.878,51.175,207.298-64.358,108.885c49.065,28.823,122.825,1.938,107.011-58.751
			c-12.758-33.965-61.329-34.615-67.906,3.886C236.707,378.026,270.443,396.325,285.524,369.609z"/>
	</g>
	<g>
		<path style="fill:#BFCBC2;" d="M350.924,365.047c16.118-184.484-193.566-94.232-139.499,34.236
			C105.461,235.793,417.968,151.559,350.924,365.047z"/>
	</g>
	<g>
		<path style="fill:#BFCBC2;" d="M404.616,417.911c105.917-84.601-64.952-158.43-44.925-50.009
			c-28.52-34.597,14.348-90.796,66.217-61.872C472.857,335.972,453.725,404.77,404.616,417.911z"/>
	</g>
	<g>
		<path style="fill:#BFCBC2;" d="M357.264,245.934c-54.6-93.502,117.127-86.82,23.522,26.639
			c-12.739,18.766-19.955,36.652-25.303,56.682c0.327-69.658,28.445-66.509,36.924-113.112
			C388.626,170.299,337.28,202.335,357.264,245.934z"/>
	</g>
	<g>
		<path style="fill:#BFCBC2;" d="M428.273,295.411c51.472-38.585-58.301-100.053-68.015,39.585
			C337.69,170.658,509.937,248.41,428.273,295.411z"/>
	</g>
	<g>
		<path style="fill:#BFCBC2;" d="M420.124,184.835c-36.212-98.232,139.975-67.801-15.216,47.745
			c-13.276,10.763-24.864,21.367-33.205,37.449c8.087-43.862,56.172-65.539,76.269-105.311
			C470.917,116.402,406.615,142.365,420.124,184.835z"/>
	</g>
	<g>
		<path style="fill:#BFCBC2;" d="M633.714,29.526c-39.925,45.647-133.07,31.801-196.102,171.445
			C464.752,43.437,599.134,55.971,633.714,29.526z"/>
	</g>
	<path style="fill:#BFCBC2;" d="M251.269,357.405c1.26-20.969,29.96-19.091,30.555,0.001
		C280.564,378.374,251.864,376.496,251.269,357.405z"/>
	<g>
		<path style="fill:#BFCBC2;" d="M1063.115,1517.198c-90.507,4.134-7.794,113.985,15.215,31.743
			c8.039,33.179-38.618,54.856-59.409,25.589C994.361,1543.154,1027.245,1502.585,1063.115,1517.198z"/>
	</g>
	<g>
		<path style="fill:#BFCBC2;" d="M1093.118,1550.522c26.138-36.079,68.593,27.35,21.774,61.13
			c-37.704,25.085-78.396-27.225-38.062-47.965c-26.827,20.936,5.375,58.11,33.972,34.518
			C1136.858,1576.838,1123.079,1527.801,1093.118,1550.522z"/>
	</g>
	<g>
		<path style="fill:#BFCBC2;" d="M1121,1522.003c-36.999-22.7,12.183-65.165,40.934-36.41
			c30.642,31.125-11.211,87.375-58.183,56.971c28.151,12.089,72.575-13.389,48.559-48.286
			C1132.504,1474.563,1097.563,1499.648,1121,1522.003z"/>
	</g>
	<g>
		<path style="fill:#BFCBC2;" d="M967.808,1604.285c-32.414,39.86,24.494,75.919,65.734,45.506
			c33.162-22.119,13.866-74.683-25.307-56.482c50.308-35.949,79.656,47.934,30.331,74.041
			C974.29,1705.344,922.897,1633.319,967.808,1604.285z"/>
	</g>
	<g>
		<path style="fill:#BFCBC2;" d="M785.025,1843.833c9.342-80.464,108.318-80.895,145.327-129.744
			c44.656-55.605-32.985-108.408-72.691-52.883c51.812-114.004,230.666,59.547-16.843,130.241
			C815.894,1802.628,794.37,1817.785,785.025,1843.833z"/>
	</g>
	<g>
		<path style="fill:#BFCBC2;" d="M975.115,1538.945c15.302-53.149,120.051,52.41-108.52,83.043
			c47.539-21.262,113.172-41.336,130.98-63.989C1011.058,1541.718,989.331,1514.669,975.115,1538.945z"/>
	</g>
	<g>
		<path style="fill:#BFCBC2;" d="M1346.612,1481.069c21.465,66.972-69.613,80.789-88.607,12.127
			c-2.916-5.078-4.42-8.295-10.009-12.607c-49.359-29.732-86.024,50.463-25.487,82.757
			c-86.161-22.257-41.163-146.285,37.178-102.706c19.135,11.079,20.339,37.863,34.371,54.53
			C1320.559,1538.181,1352.785,1510.929,1346.612,1481.069z"/>
	</g>
	<path style="fill:#BFCBC2;" d="M1239.223,1513.413c-1.26-20.969-29.96-19.091-30.555,0.001
		C1209.927,1534.382,1238.627,1532.504,1239.223,1513.413z"/>
	<path style="fill:#BFCBC2;" d="M918.392,1689.106c-2.315-35.507-50.22-31.752-50.925,0
		C869.781,1724.613,917.687,1720.859,918.392,1689.106z"/>
	<path style="fill:#BFCBC2;" d="M348.027,609.486c0.798-16.97,24.789-16.209,25.463,0.001
		C372.692,626.457,348.7,625.695,348.027,609.486z"/>
	<path style="fill:#BFCBC2;" d="M372.69,440.404c-1.352-23.539-33.709-21.512-34.329,0.001
		C339.713,463.943,372.07,461.916,372.69,440.404z"/>
</g>
<g id="Layer_4">
	<g>
		<path style="fill:#FFB400;" d="M650.545,36.489c-0.026,0.009-0.051,0.017-0.076,0.026c-46.398,15.603-83.244,45.071-90.181,50.839
			c-53.837,44.833-75.796,97.091-95.172,143.202c-27.381,65.19-36.178,118.001-44.684,169.066
			c-12.954,77.683-14.374,138.436-15.747,197.189c-0.716,30.644,0.036,59.498,0.701,84.955c0.585,22.441,1.091,41.822,0.452,56.744
			l-0.032,0.749v0.75v996.12v3.039l0.524,2.994l0.44,2.515c1.566,40.618-1.946,80.741-10.447,119.519
			c1.46-13.686,2.573-27.673,3.208-41.752c7.675-170.394-53.851-352.318-168.799-499.123c-6.558-8.378-13.346-16.665-20.319-24.809
			c5.221-5.622,10.311-11.365,15.248-17.204c33.628-39.799,60.609-84.487,80.2-132.83l0.134-0.281
			c7.634-14.514,13.696-29.844,18.022-45.579c4.631-16.847,6.431-30.813,7.707-46.601c2.379-29.422,2.813-61.116,1.294-94.203
			l-0.101-2.208l-0.013-0.072c1.593-57.429,1.078-115.09-1.534-171.439c-4.385-94.431-12.151-135.482-14.707-148.995
			c-5.837-30.893-12.452-65.909-28.425-108.803C249.56,426.42,187.728,360.771,158.013,329.221
			c-3.411-3.622-6.872-7.215-10.378-10.776c4.486-1.173,8.946-2.426,13.371-3.758c52.778-15.925,89.286-39.32,124.624-61.966
			c13.161-8.441,18-12.129,49.48-36.127c11.284-8.602,26.737-20.383,47.432-36.083c76.65-58.163,82.749-61.974,89.211-66.01
			c43.592-27.241,80.734-42.623,107.847-53.852C615.234,45.899,631.278,39.465,650.545,36.489 M675.664,0
			c-16.68,0-27.519,1.469-27.519,1.469c-25.14,3.47-44.41,11.31-81.93,26.84c-30.28,12.54-67.9,28.32-113.01,56.51
			c-8.26,5.16-15.86,10.17-91.82,67.81c-76.03,57.68-78.2,60.08-94.65,70.63c-34.05,21.82-67.72,43.4-115.84,57.92
			c-19,5.72-46.25,12.16-80.37,14.25c26.07,21.33,46.61,41.44,62.01,57.79c30.45,32.33,87.41,93.97,122.9,189.29
			c14.94,40.12,21.14,72.95,26.84,103.12c2.83,14.96,10.01,55.36,14.13,144.09c2.04,44.02,3.45,102.61,1.41,172.34l0.237,1.363
			c1.821,39.628,0.389,69.917-1.216,89.777c-1.052,13.007-2.479,25.267-6.569,40.144c-4.611,16.771-10.729,30.044-15.571,39.17
			l-0.9,1.897c-12.96,32.18-35.58,77.81-74.87,124.31c-12.14,14.36-24.48,27.17-36.63,38.55c13.51,14.38,27.25,30.22,40.875,47.626
			c103.458,132.129,169.005,307.051,161.395,475.974c-3.61,80.12-23.82,157.21-30.69,181.99c-13.41,48.36-29.29,89.84-44.23,123.54
			c54.19-55.6,110.45-134.37,137.01-238.45c13.97-54.75,16.8-105.05,14.99-147.02l-0.84-4.8v-996.12
			c1.45-33.84-2.46-85.49-1.13-142.38c1.42-60.76,2.99-118.55,15.28-192.25c8.78-52.71,17.17-101.13,42.43-161.27
			c19.51-46.43,38.96-91.27,85.3-129.86c3.38-2.81,37.16-30.51,78.94-44.56c21.048-7.076,42.264-10.063,63.104-10.063
			c54.466,0,106.302,20.418,145.416,41.603c-28.72-37.11-71.12-77.22-127.35-92.69C717.81,1.664,693.425,0,675.664,0L675.664,0z"/>
	</g>
	<g>
		<path style="fill:#FFB400;" d="M1208.162,1473.08c36.28,0,73.61,4.985,110.954,14.815c37.923,9.983,74.216,25.744,107.869,46.846
			c33.757,21.167,63.405,46.802,88.121,76.194c41.562,49.425,63.244,112.74,59.487,173.706
			c-1.801,29.158-10.59,58.921-26.122,88.462c-12.596,23.957-26.857,42.47-36.617,53.799c-10.003,11.609-26.745,31.04-50.884,48.492
			c-28.309,20.468-58.886,32.273-90.876,35.088c-2.815,0.247-9.406,0.826-17.757,0.826c-26.214,0-64.751-5.559-99.48-32.042
			c-4.505-3.435-16.473-12.561-28.279-27.142c-13.773-17.011-23.062-36.059-27.612-56.626c-0.467-2.105-8.603-40.514,6.956-81.578
			c14.22,40.728,39.425,73.699,73.229,93.941c15.032,8.996,46.556,24.089,88.786,24.089c14.917,0,29.692-1.955,43.91-5.809
			c59.042-15.995,89.175-58.713,100.528-74.807c13.19-18.698,54.473-86.069,31.914-167.917
			c-13.654-49.584-43.865-78.95-55.247-90.013c-44.251-42.986-93.328-53.74-109.458-57.274c-13.992-3.065-29.348-4.62-45.639-4.62
			c-31.568-0.001-64.901,5.737-99.076,17.055c-56.212,18.621-102.276,48.142-169.959,108.924
			c-97.289,87.366-174.133,156.374-235.205,280.63c-14.33,29.15-26.794,59.457-37.212,90.455
			c-62.507-18.793-121.07-46.066-174.495-81.295c-26.294-17.333-51.55-36.764-75.253-57.886v-28.359
			c6.221,5.05,13.712,9.845,23.16,12.717c5.443,1.654,11.137,2.492,16.923,2.492c30.155,0,54.556-22.231,70.704-36.942
			c1.869-1.702,3.634-3.31,5.083-4.578c62.996-55.111,125.235-112.919,185.425-168.825c27.797-25.818,56.54-52.515,84.912-78.531
			c56.397-51.713,124.784-88.01,197.769-104.968C1151.329,1476.215,1179.403,1473.08,1208.162,1473.08 M1208.162,1438.08
			c-32.332,0-62.955,3.625-91.361,10.225c-79.754,18.531-153.153,57.926-213.503,113.262
			c-89.767,82.311-178.07,166.625-269.728,246.811c-12.419,10.865-33.481,32.862-52.741,32.862c-2.281,0-4.538-0.309-6.751-0.981
			c-6.123-1.861-11.203-6.091-15.883-10.451c-21.69-20.2-37.97-44.86-52.45-70.5v145.53c25.56,23.85,55.72,48.41,90.99,71.66
			c75.9,50.05,151.85,78.49,217.14,94.79c10.08-35.4,24.46-75.46,45.24-117.73c58.08-118.17,132.46-184.97,227.18-270.03
			c63.84-57.33,106.08-84.68,157.58-101.74c36.374-12.046,66.26-15.28,88.07-15.279c19.707,0,32.82,2.642,38.15,3.809
			c15.38,3.37,56.19,12.86,92.56,48.19c10.72,10.42,34.98,34.58,45.89,74.2c19.52,70.82-20.52,129.59-26.77,138.45
			c-9.77,13.85-34.2,48.5-81.08,61.2c-11.824,3.205-23.515,4.591-34.758,4.591c-28.009,0-53.237-8.604-70.812-19.121
			c-44.19-26.46-70.45-83.32-69.39-149.54c-8.6,6.59-17.27,14.53-25.46,24.09c-55.16,64.38-38.92,144.19-37.48,150.69
			c13.44,60.76,55.83,94.11,68.84,104.03c44.186,33.695,92.125,39.21,120.701,39.21c9.206,0,16.406-0.573,20.819-0.96
			c89.66-7.89,144.18-71.19,165.23-95.62c19.53-22.67,66.26-83.92,71.14-162.93c4.319-70.081-20.34-142.15-67.633-198.39
			c-54.532-64.849-131.018-112.551-213.867-134.36C1286.263,1443.055,1246.039,1438.08,1208.162,1438.08L1208.162,1438.08z"/>
	</g>
</g>
<g id="Layer_6">
	<g>
		<g>
			<circle style="fill:#480000;" cx="505.748" cy="2149.954" r="29.15"/>
			<path style="fill:#480000;" d="M505.748,2127.304c12.489,0,22.65,10.161,22.65,22.65c0,12.489-10.161,22.65-22.65,22.65
				c-12.489,0-22.65-10.161-22.65-22.65C483.098,2137.465,493.258,2127.304,505.748,2127.304 M505.748,2114.304
				c-19.689,0-35.65,15.961-35.65,35.65c0,19.689,15.961,35.65,35.65,35.65c19.689,0,35.65-15.961,35.65-35.65
				C541.397,2130.265,525.436,2114.304,505.748,2114.304L505.748,2114.304z"/>
		</g>
	</g>
	<g>
		<g>
			<path style="fill:#480000;" d="M505.748,552.135c-16.073,0-29.15-13.077-29.15-29.15c0-16.073,13.077-29.149,29.15-29.149
				c16.073,0,29.15,13.076,29.15,29.149C534.897,539.058,521.821,552.135,505.748,552.135z"/>
			<path style="fill:#480000;" d="M505.748,500.335c12.489,0,22.65,10.161,22.65,22.65c0,12.489-10.161,22.65-22.65,22.65
				c-12.489,0-22.65-10.161-22.65-22.65C483.098,510.496,493.258,500.335,505.748,500.335 M505.748,487.335
				c-19.689,0-35.65,15.961-35.65,35.65c0,19.689,15.961,35.65,35.65,35.65c19.689,0,35.65-15.961,35.65-35.65
				C541.397,503.296,525.436,487.335,505.748,487.335L505.748,487.335z"/>
		</g>
	</g>
	<g>
		<g>
			<rect x="501.248" y="529.485" style="fill:#480000;" width="9" height="1611.711"/>
			<polygon style="fill:#480000;" points="516.747,522.985 494.748,522.985 494.748,2147.696 516.747,2147.696 516.747,522.985 			
				"/>
		</g>
	</g>
	<g>
		<g>
			<path style="fill:#480000;" d="M222.797,2145.369c-0.715,0-1.405-0.169-2.051-0.501c-1.069-0.551-1.859-1.483-2.226-2.628
				s-0.266-2.364,0.285-3.434c9.755-18.949,18.875-38.594,27.108-58.387c46.023-110.645,58.289-209.608,60.474-273.145
				c5.115-148.731-43.835-289.973-145.491-419.798c-14.253-18.201-29.564-35.855-45.507-52.474
				c-11.367-11.843-23.293-23.415-35.449-34.396l-4.078-3.685l4.417-3.271c14.514-10.749,28.476-22.436,41.499-34.735
				c12.33-11.647,24.104-24.084,34.993-36.964c58.138-68.81,85.539-137.876,86.234-217.358c0.092-10.492,0.207-21.081,0.322-31.748
				c1.291-118.947,2.626-241.944-24.889-353.392c-6.426-26.029-26.585-94.342-74.863-166.335
				c-24.908-37.143-50.445-65.033-72.977-89.64c-19.915-21.749-40.987-42.822-62.634-62.634c-0.887-0.812-1.404-1.919-1.458-3.12
				c-0.053-1.201,0.365-2.351,1.176-3.237c0.863-0.943,2.042-1.462,3.322-1.462c1.125,0,2.203,0.419,3.035,1.181
				c21.843,19.992,43.104,41.253,63.193,63.194c22.747,24.841,48.529,52.997,73.817,90.707
				c49.074,73.18,69.584,142.699,76.125,169.191c27.79,112.559,26.388,241.704,25.151,355.647
				c-0.116,10.66-0.23,21.242-0.322,31.728c-0.715,81.698-28.792,152.586-88.36,223.089c-11.11,13.142-23.118,25.824-35.687,37.696
				c-10.112,9.552-20.851,18.801-31.916,27.489l-5.953,4.675l5.521,5.178c8.968,8.414,17.808,17.151,26.274,25.972
				c16.148,16.833,31.659,34.718,46.1,53.156c49.667,63.43,87.382,130.675,112.097,199.866
				c26.067,72.977,37.945,148.943,35.302,225.789c-2.21,64.282-14.615,164.397-61.158,276.293
				c-8.323,20.013-17.547,39.879-27.416,59.05C226.031,2144.432,224.495,2145.369,222.797,2145.369z"/>
			<path style="fill:#480000;" d="M11.003,286.527c-2.979,0-5.948,1.203-8.117,3.573c-4.102,4.482-3.794,11.439,0.687,15.541
				c21.505,19.684,42.442,40.62,62.229,62.229c22.376,24.438,47.738,52.135,72.373,88.87
				c47.703,71.135,67.607,138.578,73.951,164.273c27.316,110.645,25.986,233.223,24.7,351.764
				c-0.116,10.671-0.23,21.265-0.322,31.761c-0.681,77.881-27.595,145.633-84.698,213.218
				c-10.733,12.695-22.339,24.954-34.493,36.435c-12.836,12.124-26.598,23.643-40.903,34.237l-10.797,7.995l9.969,9.007
				c12.043,10.88,23.858,22.345,35.116,34.073c15.793,16.462,30.96,33.951,45.08,51.98
				c100.687,128.589,149.173,268.406,144.112,415.567c-2.166,62.997-14.33,161.13-59.979,270.872
				c-8.165,19.631-17.211,39.114-26.885,57.908c-2.781,5.402-0.656,12.035,4.745,14.815c1.611,0.829,3.331,1.222,5.026,1.222
				c3.989,0,7.837-2.177,9.789-5.968c9.946-19.321,19.245-39.35,27.638-59.528c46.918-112.796,59.424-213.743,61.653-278.565
				c2.671-77.669-9.333-154.446-35.677-228.199c-24.95-69.85-63.003-137.707-113.101-201.688
				c-14.572-18.606-30.225-36.656-46.527-53.649c-8.572-8.931-17.456-17.711-26.517-26.211
				c11.234-8.821,22.082-18.163,32.365-27.876c12.749-12.042,24.924-24.903,36.188-38.227
				c60.602-71.726,89.166-143.928,89.895-227.227c0.092-10.481,0.206-21.059,0.322-31.715c1.241-114.33,2.647-243.915-25.34-357.276
				c-6.623-26.826-27.387-97.214-77.037-171.253c-25.559-38.115-51.518-66.463-74.421-91.476
				c-20.22-22.083-41.618-43.481-63.599-63.599C16.316,287.48,13.655,286.527,11.003,286.527L11.003,286.527z"/>
		</g>
	</g>
	<g>
		<g>
			<path style="fill:#480000;" d="M675.664,16c15.481,0,38.958,1.382,62.886,7.965c21.65,5.956,42.75,16.434,62.809,31.181
				c-26.278-7.661-51.886-11.52-76.63-11.52c-23.748,0-46.694,3.666-68.204,10.897c-43.198,14.526-77.609,42.052-84.079,47.43
				c-50.275,41.867-71.28,91.854-89.813,135.959c-26.522,63.144-35.133,114.842-43.461,164.834
				c-12.732,76.352-14.136,136.419-15.493,194.508c-0.705,30.174,0.041,58.779,0.699,84.016c0.595,22.793,1.109,42.477,0.441,58.053
				l-0.015,0.343v0.343v996.12v1.389l0.239,1.369l0.659,3.767c1.979,48.184-2.915,95.734-14.552,141.339
				c-11.836,46.382-30.78,91.142-56.304,133.037c-4.996,8.2-10.258,16.314-15.774,24.327c3.634-11.353,7.043-22.767,10.22-34.222
				c10.21-36.827,27.847-109.903,31.255-185.545c7.474-165.927-52.586-343.271-164.78-486.556
				c-9.899-12.647-20.339-25.084-31.152-37.116c9.226-9.246,18.112-18.913,26.53-28.871c32.447-38.401,58.456-81.536,77.308-128.208
				l0.543-1.144c7.082-13.405,12.699-27.571,16.696-42.11c4.239-15.418,5.9-28.379,7.089-43.096
				c2.314-28.623,2.735-59.509,1.252-91.799l-0.046-1.008l-0.134-0.77c1.645-57.593,1.151-115.429-1.467-171.933
				c-2.869-61.773-7.71-111.003-14.397-146.349c-5.696-30.149-12.152-64.32-27.562-105.701
				C233.095,436.65,173.042,372.89,144.182,342.248c-11.324-12.023-23.202-23.717-35.522-34.979
				c15.929-2.579,31.596-6.179,46.858-10.773c50.244-15.161,85.619-37.83,119.855-59.77c12.513-8.025,17.269-11.651,48.219-35.244
				c11.291-8.607,26.755-20.396,47.466-36.108c77.337-58.685,83.495-62.532,90.627-66.987c44.932-28.079,82.917-43.81,110.65-55.295
				c37.701-15.605,55.336-22.641,77.963-25.769C650.862,17.251,660.804,16,675.664,16 M675.664,0
				c-16.68,0-27.519,1.469-27.519,1.469c-25.14,3.47-44.41,11.31-81.93,26.84c-30.28,12.54-67.9,28.32-113.01,56.51
				c-8.26,5.16-15.86,10.17-91.82,67.81c-76.03,57.68-78.2,60.08-94.65,70.63c-34.05,21.82-67.72,43.4-115.84,57.92
				c-19,5.72-46.25,12.16-80.37,14.25c26.07,21.33,46.61,41.44,62.01,57.79c30.45,32.33,87.41,93.97,122.9,189.29
				c14.94,40.12,21.14,72.95,26.84,103.12c2.83,14.96,10.01,55.36,14.13,144.09c2.04,44.02,3.45,102.61,1.41,172.34l0.237,1.363
				c1.821,39.628,0.389,69.916-1.216,89.776c-1.052,13.008-2.479,25.267-6.569,40.144c-4.611,16.771-10.729,30.044-15.571,39.17
				l-0.9,1.897c-12.96,32.18-35.58,77.81-74.87,124.31c-12.14,14.36-24.48,27.17-36.63,38.55c13.51,14.38,27.25,30.22,40.875,47.626
				c103.458,132.129,169.004,307.051,161.395,475.974c-3.61,80.12-23.82,157.21-30.69,181.99c-13.41,48.36-29.29,89.84-44.23,123.54
				c54.19-55.6,110.45-134.37,137.01-238.45c13.97-54.75,16.8-105.05,14.99-147.02l-0.84-4.8v-996.12
				c1.45-33.84-2.46-85.49-1.13-142.38c1.42-60.76,2.99-118.55,15.28-192.25c8.78-52.71,17.17-101.13,42.43-161.27
				c19.51-46.43,38.96-91.27,85.3-129.86c3.38-2.81,37.16-30.51,78.94-44.56c21.048-7.076,42.264-10.063,63.104-10.063
				c54.466,0,106.302,20.418,145.416,41.603c-28.72-37.11-71.12-77.22-127.35-92.69C717.81,1.664,693.425,0,675.664,0L675.664,0z"/>
		</g>
	</g>
	<g>
		<g>
			<path style="fill:#480000;" d="M505.698,832.418c-2.48-0.027-4.478-2.068-4.451-4.549c1.099-101.57,29.555-186.646,82.29-246.029
				c52.589-59.217,120.519-104.236,197.415-152.802c31.934-20.168,63.479-44.731,77.95-87.53
				c15.942-47.171,2.429-86.995-2.011-100.081c-6.737-19.852-20.728-48.58-49.121-72.711c-29.57-25.13-66.889-38.97-105.082-38.97
				c-4.37,0-8.78,0.188-13.108,0.558c-37.467,3.202-69.651,19.715-93.073,47.754c-37.513,44.909-42.131,113.458-10.98,162.993
				c14.218,22.609,34.134,37.86,54.642,41.843c4.072,0.791,8.322,1.192,12.629,1.192c16.373,0,34.399-5.745,53.58-17.075
				c17.74-10.48,40.456-28.352,47.938-53.979c8.008-27.434-7.146-49.585-25.716-59.368c-7.208-3.796-15.125-5.803-22.898-5.803
				c-9.645,0-23.692,3.117-35.839,17.966c-0.858,1.049-2.13,1.65-3.49,1.651c-0.729,0-1.814-0.177-2.842-1.018
				c-0.931-0.761-1.509-1.839-1.628-3.035c-0.12-1.196,0.234-2.367,0.995-3.298c11.279-13.787,26.511-21.379,42.892-21.379
				c9.163,0,18.249,2.339,27.006,6.953c25.797,13.59,38.2,42.314,30.161,69.853c-6.574,22.519-24.555,42.992-51.999,59.205
				c-20.589,12.163-40.151,18.331-58.141,18.331c-4.876,0-9.709-0.458-14.363-1.362c-23.278-4.522-44.78-20.818-60.544-45.887
				c-33.169-52.744-28.252-125.734,11.691-173.553c24.637-29.495,59.872-47.59,99.214-50.952c4.566-0.39,9.22-0.588,13.832-0.588
				c40.354,0,79.758,14.6,110.952,41.11c29.959,25.46,44.713,55.749,51.814,76.674c12.564,37.024,13.242,72.64,2.015,105.857
				c-15.369,45.457-48.334,71.205-81.669,92.258c-62.138,39.245-139.471,88.087-195.492,151.169
				c-51.275,57.738-78.945,140.781-80.02,240.15c-0.027,2.454-2.044,4.451-4.498,4.451H505.698z"/>
			<path style="fill:#480000;" d="M702.646,114.248c-4.794,0-9.599,0.203-14.385,0.612c-41.083,3.511-77.893,22.426-103.649,53.262
				c-41.699,49.921-46.832,126.118-12.205,181.181c16.731,26.606,39.747,43.939,64.808,48.808
				c5.088,0.988,10.291,1.481,15.602,1.481c19.188,0,39.787-6.438,61.448-19.235c28.891-17.068,47.887-38.846,54.932-62.98
				c8.915-30.54-4.808-62.378-33.371-77.425c-9.83-5.179-20.05-7.702-30.036-7.702c-17.967,0-35.169,8.175-47.923,23.763
				c-3.847,4.702-3.154,11.632,1.548,15.479c2.044,1.672,4.509,2.487,6.959,2.487c3.185,0,6.346-1.377,8.52-4.035
				c9.293-11.36,20.367-15.582,30.808-15.582c7.187,0.001,14.075,2.002,19.869,5.054c16.232,8.551,29.486,27.883,22.506,51.795
				c-6.886,23.588-28.274,40.32-45.003,50.204c-18.211,10.757-35.065,16.172-50.274,16.172c-3.906,0-7.706-0.358-11.39-1.073
				c-18.752-3.642-37.114-17.829-50.379-38.923c-29.693-47.217-25.292-112.557,10.466-155.365
				c22.285-26.679,52.936-42.394,88.638-45.445c4.181-0.357,8.366-0.534,12.555-0.534c36.32,0.001,72.494,13.305,100.872,37.423
				c27.262,23.169,40.701,50.771,47.174,69.845c4.266,12.571,17.247,50.826,2.009,95.912c-13.822,40.88-44.341,64.587-75.263,84.117
				c-77.322,48.835-145.651,94.129-198.804,153.982c-53.791,60.571-82.813,147.115-83.93,250.275
				c-0.065,6.075,4.806,11.053,10.88,11.119c0.041,0,0.081,0,0.122,0c6.02,0,10.932-4.847,10.997-10.881
				c1.058-97.781,28.162-179.355,78.381-235.905c55.409-62.394,132.311-110.963,194.102-149.99
				c34.347-21.692,68.339-48.296,84.356-95.672c11.694-34.601,11.016-71.619-2.018-110.027
				c-7.365-21.701-22.669-53.116-53.76-79.539C785.454,129.408,744.163,114.246,702.646,114.248L702.646,114.248z"/>
		</g>
	</g>
	<g>
		<g>
			<path style="fill:#480000;" d="M1208.162,1454.08c37.911,0,76.869,5.195,115.79,15.441c39.783,10.472,77.844,27,113.126,49.123
				c35.435,22.219,66.579,49.156,92.569,80.062c44.67,53.121,67.964,121.319,63.909,187.106
				c-1.967,31.856-11.478,64.199-28.268,96.133c-13.429,25.541-28.634,45.28-39.04,57.359c-10.547,12.241-28.2,32.728-54.145,51.487
				c-31.126,22.505-64.889,35.498-100.346,38.618c-4.766,0.418-11.28,0.899-19.419,0.899c-29.142,0-72.054-6.234-111-35.933
				c-5.001-3.813-18.285-13.942-31.525-30.295c-15.643-19.321-26.206-41.011-31.396-64.472c-0.481-2.174-4.634-22.012-2.174-48.712
				c3.109-33.738,15.052-63.107,35.503-87.309c7.42,56.406,34.677,103.728,75.163,127.97c22.717,13.595,51.522,21.392,79.028,21.392
				c13.238,0,26.341-1.732,38.942-5.148c52.431-14.204,79.697-52.856,89.97-67.42c11.976-16.977,49.468-78.104,29.122-151.92
				c-12.282-44.605-39.803-71.355-50.167-81.429c-40.369-39.214-85.465-49.096-100.285-52.343
				c-12.661-2.773-26.648-4.179-41.574-4.18c-29.534-0.001-60.858,5.413-93.101,16.091
				c-53.466,17.711-97.708,46.176-163.239,105.024c-95.761,85.995-171.398,153.918-230.848,274.876
				c-16.612,33.791-30.649,69.179-41.819,105.399c-71.01-19.342-137.352-49.165-197.396-88.759
				c-29.423-19.396-57.585-41.345-83.796-65.304v-84.58c7.52,9.737,15.989,19.362,25.544,28.26
				c6.061,5.646,12.938,11.257,22.14,14.053c3.652,1.109,7.488,1.671,11.4,1.671c22.798,0,43.091-18.488,57.909-31.988
				c1.941-1.769,3.775-3.439,5.367-4.832c62.785-54.926,124.92-112.638,185.01-168.451c27.817-25.837,56.581-52.554,84.997-78.609
				c58.804-53.92,130.145-91.774,206.31-109.47C1148.437,1457.381,1177.957,1454.08,1208.162,1454.08 M1208.162,1438.08
				c-32.332,0-62.955,3.625-91.361,10.225c-79.754,18.531-153.153,57.926-213.503,113.262
				c-89.767,82.311-178.07,166.625-269.728,246.811c-12.419,10.865-33.481,32.862-52.741,32.862c-2.281,0-4.537-0.309-6.751-0.981
				c-6.123-1.861-11.203-6.091-15.883-10.451c-21.69-20.2-37.97-44.86-52.45-70.5v145.53c25.56,23.85,55.72,48.41,90.99,71.66
				c75.9,50.05,151.85,78.49,217.14,94.79c10.08-35.4,24.46-75.46,45.24-117.73c58.08-118.17,132.46-184.97,227.18-270.03
				c63.84-57.33,106.08-84.68,157.58-101.74c36.374-12.046,66.26-15.28,88.07-15.279c19.706,0,32.82,2.642,38.15,3.809
				c15.38,3.37,56.19,12.86,92.56,48.19c10.72,10.42,34.98,34.58,45.89,74.2c19.52,70.82-20.52,129.59-26.77,138.45
				c-9.77,13.85-34.2,48.5-81.08,61.2c-11.824,3.205-23.515,4.592-34.758,4.592c-28.009,0-53.237-8.604-70.812-19.122
				c-44.19-26.46-70.45-83.32-69.39-149.54c-8.6,6.59-17.27,14.53-25.46,24.09c-55.16,64.38-38.92,144.19-37.48,150.69
				c13.44,60.76,55.83,94.11,68.84,104.03c44.186,33.695,92.125,39.21,120.702,39.21c9.206,0,16.406-0.573,20.818-0.96
				c89.66-7.89,144.18-71.19,165.23-95.62c19.53-22.67,66.26-83.92,71.14-162.93c4.319-70.081-20.34-142.15-67.633-198.39
				c-54.532-64.849-131.018-112.551-213.867-134.36C1286.263,1443.055,1246.039,1438.08,1208.162,1438.08L1208.162,1438.08z"/>
		</g>
	</g>
	<g>
		<g>
			<path style="fill:#480000;" d="M1350.481,2090.598c-31.044,0.001-61.08-5.668-89.276-16.849
				c-9.357-3.711-34.216-13.568-60.968-33.362c-33.81-25.015-57.902-56.296-71.607-92.975
				c-18.113-48.471-16.656-102.515,4.214-156.291c11.061-28.499,27.604-54.397,49.174-76.976c0.856-0.897,2.013-1.392,3.255-1.392
				c1.163,0,2.267,0.442,3.108,1.246c0.868,0.83,1.362,1.949,1.39,3.151c0.027,1.201-0.415,2.342-1.245,3.211
				c-20.75,21.722-36.661,46.623-47.291,74.015c-20.059,51.685-21.502,103.514-4.175,149.885
				c20.255,54.202,64.331,96.085,127.463,121.12c27.063,10.732,55.962,16.175,85.893,16.175c45.113,0,91.863-12.434,138.953-36.954
				c67.379-35.084,103.326-86.773,115.654-107.367c59.889-100.059,40.43-202.323,38.014-213.654
				c-11.217-52.595-29.751-96.643-58.329-138.62c-12.624-18.545-49.705-67.018-121.18-116.463
				c-68.079-47.095-138.594-56.805-176.478-62.021c-3.682-0.506-7.076-0.974-10.159-1.431c-23.307-3.452-47.04-5.202-70.542-5.202
				c-64.098,0-126.374,12.579-185.101,37.387c-69.579,29.39-120.642,77.326-174.703,128.077
				c-9.667,9.076-19.643,18.44-29.672,27.637c-18.214,16.701-36.608,33.83-54.396,50.396c-21.437,19.963-43.533,40.542-65.59,60.628
				c-23.037,20.979-43.476,39.1-62.486,55.397c-1.459,1.251-3.045,2.651-4.735,4.146c-12.391,10.95-31.119,27.501-48.879,27.503
				c-2.746,0-5.445-0.398-8.022-1.183c-6.942-2.108-12.577-6.748-17.632-11.448c-24.081-22.427-41.137-50.035-53.306-71.583
				c-1.22-2.16-0.455-4.911,1.706-6.131c0.685-0.387,1.427-0.583,2.204-0.583c1.625,0,3.13,0.877,3.927,2.287
				c11.852,20.985,28.427,47.84,51.599,69.421c4.93,4.582,9.215,7.937,14.122,9.427c1.707,0.52,3.543,0.784,5.453,0.784
				c14.315,0,31.499-15.189,42.87-25.24c1.726-1.525,3.345-2.955,4.837-4.234c18.939-16.236,39.312-34.299,62.282-55.218
				c21.966-20.003,44.071-40.589,65.449-60.497l0.252-0.235c17.741-16.521,36.086-33.604,54.263-50.27
				c9.987-9.157,19.938-18.5,29.563-27.534c54.694-51.347,106.329-99.82,177.394-129.838c40.54-17.125,83.603-28.63,127.991-34.194
				c20.294-2.543,40.911-3.832,61.277-3.832c23.81,0,47.763,1.76,71.194,5.23c2.987,0.442,6.27,0.895,9.821,1.384l0.246,0.034
				c38.629,5.318,110.527,15.219,180.37,63.536c51.199,35.417,96.213,78.718,123.5,118.799
				c29.257,42.975,48.224,88.035,59.69,141.808c2.493,11.685,22.569,117.132-39.092,220.153
				c-12.721,21.251-49.803,74.581-119.221,110.729C1445.089,2077.808,1396.962,2090.597,1350.481,2090.598z"/>
			<path style="fill:#480000;" d="M1207.013,1384.414c-20.687,0-41.427,1.294-62.085,3.883
				c-44.98,5.639-88.622,17.299-129.712,34.656c-72.135,30.47-124.182,79.33-179.285,131.06c-9.62,9.03-19.566,18.368-29.535,27.509
				c-18.281,16.762-36.72,33.934-54.552,50.539c-21.367,19.898-43.462,40.475-65.396,60.448
				c-22.933,20.885-43.258,38.904-62.137,55.089c-1.515,1.299-3.158,2.75-4.911,4.299c-10.237,9.048-26.718,23.611-38.565,23.611
				c-1.242,0-2.436-0.16-3.564-0.504c-3.714-1.128-7.319-4.002-11.581-7.964c-22.521-20.975-38.748-47.283-50.369-67.859
				c-2.022-3.581-5.748-5.592-9.587-5.592c-1.832,0-3.691,0.458-5.4,1.423c-5.29,2.987-7.156,9.697-4.169,14.987
				c12.399,21.956,29.803,50.11,54.539,73.147c5.627,5.231,11.966,10.415,20.164,12.905c3.312,1.009,6.623,1.465,9.917,1.465
				c20.219-0.002,39.673-17.193,53.185-29.134c1.663-1.471,3.223-2.85,4.66-4.081c19.048-16.33,39.535-34.492,62.632-55.526
				c22.023-20.056,44.164-40.674,65.576-60.614c17.802-16.577,36.209-33.719,54.427-50.424c10.063-9.228,20.058-18.61,29.724-27.685
				c53.626-50.343,104.279-97.895,172.788-126.833c57.833-24.43,119.911-36.874,182.572-36.874c23.178,0,46.438,1.703,69.588,5.132
				c3.104,0.46,6.521,0.931,10.225,1.44c37.347,5.143,106.863,14.715,173.667,60.928c70.573,48.821,107.084,96.529,119.505,114.775
				c28.088,41.258,46.31,84.573,57.345,136.317c2.361,11.075,21.384,111.025-37.233,208.96
				c-12.044,20.12-47.171,70.622-113.079,104.94c-51.712,26.928-97.447,36.22-135.951,36.22c-33.634,0-61.753-7.094-83.496-15.717
				c-61.378-24.34-104.177-64.92-123.771-117.354c-16.761-44.854-15.327-95.083,4.146-145.258
				c10.32-26.593,25.774-50.775,45.932-71.876c4.196-4.393,4.037-11.356-0.355-15.553c-2.131-2.035-4.866-3.046-7.597-3.046
				c-2.9,0-5.795,1.14-7.955,3.401c-22.161,23.198-39.163,49.816-50.533,79.114c-21.456,55.285-22.924,110.93-4.243,160.918
				c14.153,37.877,38.994,70.15,73.83,95.925c27.431,20.296,52.863,30.382,62.438,34.179c23.914,9.483,54.807,17.307,91.664,17.307
				c0.002,0,0.006,0,0.008,0c41.591-0.001,90.772-9.965,146.045-38.747c70.89-36.913,108.791-91.43,121.796-113.155
				c62.937-105.151,42.419-212.906,39.872-224.847c-11.648-54.625-30.929-100.417-60.675-144.11
				c-27.719-40.715-73.343-84.631-125.175-120.486c-71.119-49.2-144.019-59.237-183.182-64.63
				c-3.623-0.499-6.966-0.959-10.002-1.408C1255.305,1386.181,1231.195,1384.414,1207.013,1384.414L1207.013,1384.414z"/>
		</g>
	</g>
</g>
</svg>
