<?xml version="1.0" encoding="iso-8859-1"?>
<!-- Generator: Adobe Illustrator 24.0.1, SVG Export Plug-In . SVG Version: 6.00 Build 0)  -->
<svg version="1.1" xmlns="http://www.w3.org/2000/svg" xmlns:xlink="http://www.w3.org/1999/xlink" x="0px" y="0px"
	 viewBox="0 0 2543.45 2196.846" style="enable-background:new 0 0 2543.45 2196.846;" xml:space="preserve">
<g id="Layer_5">
	<linearGradient id="SVGID_1_" gradientUnits="userSpaceOnUse" x1="2002.5736" y1="1208.0475" x2="2047.0179" y2="74.7141">
		<stop  offset="0" style="stop-color:#8B1D1A"/>
		<stop  offset="0.25" style="stop-color:#550000"/>
		<stop  offset="0.5" style="stop-color:#3A0000"/>
		<stop  offset="0.75" style="stop-color:#1E0000"/>
		<stop  offset="1" style="stop-color:#000000"/>
	</linearGradient>
	<path style="fill:url(#SVGID_1_);" d="M2029.283,1539.412c-25.62,12.734-54.016,19.039-86.509,16.238
		c-30.65-2.65-54.77-12.89-70.8-21.84c19.72-6.43,45.66-17.72,71.871-37.901c45.719-35.212,79.653-87.081,85.387-145.173
		c11.095-112.405,3.34-225.464,0.804-338.077c-2.542-112.862-1.168-226.124-1.332-339.057c-0.142-98.232,0.34-196.475,2.66-294.682
		c1.01-42.75-2.49-87.14-22.92-124.71c-20.44-37.57-61.39-66.61-103.88-61.82c-31.92,3.59-58.85,24.73-82.61,46.34
		c-142.25,129.38-211.48,299.18-292.35,467.45V364.99c16.85-23.2,37.06-49.01,60.95-76.12c23.39-26.54,64.35-72.57,127.44-121.69
		c30.15-23.47,80.07-61.85,154.27-95.81c96.05-43.98,177.78-55.38,203.13-58.45c39.84-4.83,121.81-14.01,220.39,11.49
		c31.84,8.24,61.68,16.21,96.77,37.37c68.67,41.41,101.4,99.55,114.03,122.65c32.09,58.7,35.77,106.73,36.41,116.9
		c2.44,38.75-5.58,60.54-8.62,68.03c-10.18,25.05-25.67,40.37-36.42,50.79c-13.01,12.61-37.38,35.62-76.65,44.07
		c-12.3,2.65-38.95,8.03-69.95-2.87c-37.73-13.27-56.84-41.87-63.24-51.74c-6.28-9.69-28.02-44.37-21.08-88.16
		c3.89-24.51,15.97-46.89,33.78-64.86c5.72,18.38,15.15,35,30.42,44.74c7.12,4.54,24,15.31,43.12,10.54
		c16.53-4.12,25.74-17.63,28.74-22.04c10.92-16.01,10.74-32.71,10.54-51.74c-0.15-14.98-0.34-32.28-9.58-51.74
		c-9.8-20.64-24.22-32-38.33-43.12c-8.9-7.01-27.75-20.55-56.53-30.66c-16.18-5.69-34.39-9.9-88.15-12.46
		c-15.37-0.73-33.73-1.34-54.67-1.46c0,18.01,0,36.03,0,54.04c0,53.65,0,107.29,0,160.94c0,229.236-3.507,458.785,0.257,687.988
		c0.453,27.563,1.607,55.137,4.713,82.542c3.35,29.57,10.17,59.23,24.83,85.14c11.18,19.74,28.75,38.03,51.25,40.98
		c22.51,2.95,45.16-7.7,67.82-7.89c22.67-0.19,45.14,1.5,67.08,7.6c27.21,7.56,47.76,30.43,62.97,56.78
		c-46.57-6.26-105.18-5.01-156.85,24.3c-52.674,29.879-94.836,74.908-132.831,121.333
		C2117.337,1459.173,2085.258,1511.59,2029.283,1539.412z"/>
	<linearGradient id="SVGID_2_" gradientUnits="userSpaceOnUse" x1="761.2902" y1="1159.3698" x2="805.7346" y2="26.0364">
		<stop  offset="0" style="stop-color:#8B1D1A"/>
		<stop  offset="0.25" style="stop-color:#550000"/>
		<stop  offset="0.5" style="stop-color:#3A0000"/>
		<stop  offset="0.75" style="stop-color:#1E0000"/>
		<stop  offset="1" style="stop-color:#000000"/>
	</linearGradient>
	<path style="fill:url(#SVGID_2_);" d="M1466.574,1973.11V417.35c-19.63-29.43-42.27-62.12-67.9-97.13
		c-27.34-37.34-77.22-105.13-146.17-182.44c-35.65-39.97-80.41-86.99-135.01-137.78c-44.1,81.59-91.51,138.41-125.3,174.06
		c-8.66,9.12-53.37,55.84-121.63,106.68c-19.24,14.33-72.71,53.1-148.29,91.75c-28.65,14.66-57.79,29.42-99.22,43.75
		c-8.26,2.85-16.32,5.45-24.16,7.83c22.98,20.58,40.32,40.23,52.97,56.18c132.18,166.65,117.96,378.58,116.75,578.73
		c-0.64,105.67,1.1,211.12,1.1,316.99c0,46.67,0,93.34,0,140.01c0.01,90.77,7.01,185.77-30.18,271.17
		c-24.38,55.98-53.33,109.43-95.14,154.71c-40.54,43.91-194.685,144.165-305.13,135.3c-16.401-1.316-119.55-2.95-191.1-92.49
		c-58.29-72.95-77.49-171.67-48.94-246.58c7.42-19.49,21.86-55.78,57.61-70.41c4.66-1.92,43.13-16.96,73.61,5.33
		c23.98,17.54,26.93,46.42,27.74,54.41c3.32,32.61-13.57,56.35-19.2,64.01c-5.44,7.4-11.47,13.45-17.6,18.39
		c29.12,7.49,58.85,5.13,83.74-7.72c46.57-24.05,59.09-76.02,59.75-78.95c9.21-40.98-6.97-73.57-13.87-87.48
		c-23.05-46.43-63.26-66.56-77.88-73.61c-12.15-5.86-60.67-27.57-120.56-12.81c-61.95,15.27-95.4,59.55-108.82,77.88
		c-43.59,59.55-43.69,123.64-43.74,163.24c-0.05,28.86-0.73,126.54,70.54,217.64c15.08,19.26,72.36,87.64,168.44,117.22
		c52,16.02,95.37,15.91,125.89,14.87c13.38-0.45,79.66-3.31,160.03-35.21c18.1-7.18,74.39-30.92,134.29-77.81
		c16.77-13.13,85.45-71.23,145.16-172.7c97.02-164.87,107.95-346.35,107.97-532.53c0.02-216.01,0.06-432.03,0.06-648.05
		c0.03-90.19-13.1-191.07,27.82-274.82c13.69-28.01,30.55-48.15,32.85-50.86c14.57-17.2,48.93-57.97,108.07-72.05
		c72.09-17.17,129.05,15.43,144.1,24.37c149.28,88.64,114.9,300.69,114.9,445.62c0,234.36,0,468.71,0,703.07
		c0,107.73,0,215.47,0,323.2c10.15,10.25,20.36,21.38,30.47,33.45C1419.524,1864.22,1448.774,1924.12,1466.574,1973.11z"/>
</g>
<g id="Layer_7">
	<g>
		<path style="fill:#BFCBC2;" d="M855.254,1074.117c-82.927-68.56-16.923-184.648-6.991-244.136
			c7.542-47.752-44.649-34.08-51.859,2.418c-0.475-60.788,78.958-64.909,73.266,2.608
			C862.13,911.901,801.27,1004.1,855.254,1074.117z"/>
	</g>
	<g>
		<path style="fill:#BFCBC2;" d="M767.185,599.502c-33.832,135.257,150.181,123.414,113.412,250.639
			C883.397,723.775,701.531,747.924,767.185,599.502z"/>
	</g>
	<g>
		<path style="fill:#BFCBC2;" d="M754.601,529.063c-48.185,151.576,132.662,117.953,129.883,257.678
			c-27.655-87.864-79.878-88.947-119.052-123.943C728.114,628.886,722.967,567.917,754.601,529.063z"/>
	</g>
	<g>
		<path style="fill:#BFCBC2;" d="M823.654,474.914c-115.342,173.984,38.682,131.037,55.382,250.54
			c-34.166-70.017-73.227-64.227-101.78-98.374C735.399,570.853,785.238,505.748,823.654,474.914z"/>
	</g>
	<g>
		<path style="fill:#BFCBC2;" d="M885.658,570.728c13.991-74.421-136.683-40.365-18.126,73.597
			c10.113,13.704,19.775,31.827,16.77,50.267c-2.248-16.473-13.483-31.599-27.559-44.153
			C701.931,532.413,917.915,461.83,885.658,570.728z"/>
	</g>
	<g>
		<path style="fill:#BFCBC2;" d="M833.941,496.682c42.505-39.835,81.13,30.112,70.014,69.528
			c-3.971,29.58-43.929,55.633-64.586,23.355C910.84,637.588,906.414,457.052,833.941,496.682z"/>
	</g>
	<g>
		<path style="fill:#BFCBC2;" d="M902.274,462.001c-64.153-31.591-133.043,22.691-173.925,69.801
			C757.548,469.639,834.526,408.787,902.274,462.001z"/>
	</g>
	<g>
		<path style="fill:#BFCBC2;" d="M892.069,353.055c-3.038,78.766-96.888,133.827-170.236,79.98
			C786.159,458.465,866.352,430.177,892.069,353.055z"/>
	</g>
	<g>
		<path style="fill:#BFCBC2;" d="M863.476,381.858c-11.889-29.648-58.209-9.147-55.018,22.195
			c0.947,21.176,28.484,33.112,43.376,12.571c-13.7,34.142-61.873,11.565-53.865-23.73
			C802.191,361.451,855.089,342.834,863.476,381.858z"/>
	</g>
	<g>
		<path style="fill:#BFCBC2;" d="M687.526,466.881c3.342-36.79,53.364-44.181,70.074-9.277
			c16.092,35.868-24.84,70.928-57.205,48.806C790.712,521.077,734.025,391.43,687.526,466.881z"/>
	</g>
	<g>
		<path style="fill:#BFCBC2;" d="M790.891,380.199c-51.252-19.244-73.824,57.848-16.484,66.419
			C704.336,452.081,728.718,342.242,790.891,380.199z"/>
	</g>
	<g>
		<path style="fill:#BFCBC2;" d="M918.387,265.926c13.234,54.807,14.891,127.842-43.155,160.116
			C917.158,387.46,916.085,318.831,918.387,265.926z"/>
	</g>
	<g>
		<path style="fill:#BFCBC2;" d="M1372.246,1279.427c-50.535,79.937,105.839,139.269,60.124,221.961
			C1452.548,1423.139,1295.62,1356.148,1372.246,1279.427z"/>
	</g>
	<g>
		<path style="fill:#BFCBC2;" d="M1390.766,1186.866c-74.328,112.495,80.157,148.807,46.878,237.413
			C1450.717,1348.299,1283.698,1293.994,1390.766,1186.866z"/>
	</g>
	<g>
		<path style="fill:#BFCBC2;" d="M1456.614,1130.324c-108.291,122.053-15.006,134.584-12.894,206.341
			c-6.991-25.969-31.518-45.91-45.281-70.203C1364.937,1208.558,1415.671,1156.704,1456.614,1130.324z"/>
	</g>
	<g>
		<path style="fill:#BFCBC2;" d="M1442.275,1013.384c32.719,135.785-61.567,117.104-79.679,185.065
			C1367.411,1122.354,1447.157,1143.171,1442.275,1013.384z"/>
	</g>
	<g>
		<path style="fill:#BFCBC2;" d="M1411.861,906.913c-7.41,23.054,14.85,44.829,20.645,68.352
			c19.877,63.931-13.924,129.981-68.911,154.334C1476.742,1020.813,1383.963,936.947,1411.861,906.913z"/>
	</g>
	<g>
		<path style="fill:#BFCBC2;" d="M1425.008,800.974c-103.598,104.755,36.979,194.668-56.083,258.252
			C1438.492,981.607,1287.594,892.921,1425.008,800.974z"/>
	</g>
	<g>
		<path style="fill:#BFCBC2;" d="M1465.553,788.858c-82.093,88.814-29.395,98.879-30.307,159.497
			C1399.672,868.276,1388.749,841.357,1465.553,788.858z"/>
	</g>
	<g>
		<path style="fill:#BFCBC2;" d="M1433.887,644.024c30.433,78.667-55.896,147.062-80.35,201.783
			C1364.123,775.244,1442.052,720.063,1433.887,644.024z"/>
	</g>
	<g>
		<path style="fill:#BFCBC2;" d="M1416.96,503.767c-33.493,61.989,104.923,145.039-5.749,289.592
			C1481.287,629.781,1363.854,562.367,1416.96,503.767z"/>
	</g>
	<g>
		<path style="fill:#BFCBC2;" d="M1414.871,447.626c-87.738,103.579,67.203,233.918-47.821,300.944
			C1453.859,669.081,1291.161,543.467,1414.871,447.626z"/>
	</g>
	<g>
		<path style="fill:#BFCBC2;" d="M1463.845,428.068c-25.362,29.043-38.663,73.304-30.457,113.397
			C1414.403,505.113,1426.212,451.489,1463.845,428.068z"/>
	</g>
	<g>
		<path style="fill:#BFCBC2;" d="M1443.847,387.36c-49.03,20.724-78.621,69.675-82.046,112.582
			C1351.902,445.279,1392.51,393.674,1443.847,387.36z"/>
	</g>
	<g>
		<path style="fill:#BFCBC2;" d="M1345.74,299.321c-20.353-41.178-70.133,36.798-20.817,38.409
			c109.452-20.849,90.264,109.773,17.374,80.834c45.314,10.549,66.573-57.417,12.609-62.916
			c-19.744,0.614-38.062,6.244-55.656-7.474C1260.943,312.542,1332.207,248.822,1345.74,299.321z"/>
	</g>
	<g>
		<path style="fill:#BFCBC2;" d="M1227.979,198.548c-17.816,59.445,33.938,17.988,60.376,31.603
			c41.253,20.161,19.405,82.682-25.033,68.177c33.735,4.532,52.452-45.304,14.195-57.668
			C1267.905,236.916,1193.76,261.508,1227.979,198.548z"/>
	</g>
	<g>
		<path style="fill:#BFCBC2;" d="M1260.286,187.426c-51.153-58.523-107.639,114.34,16.312,94.131
			c-40.72,28.011-101.567-12.214-90.441-63.545C1188.259,183.326,1242.558,143.051,1260.286,187.426z"/>
	</g>
	<g>
		<path style="fill:#BFCBC2;" d="M1165.306,198.265c-25.641,47.495-79.292-32.715-8.529-48.537
			c71.084-4.491,43.88,103.641-16.466,93.321c57.7-8.424,58.028-98.115,4.471-72.768
			C1118.196,185.957,1144.242,224.626,1165.306,198.265z"/>
	</g>
	<g>
		<path style="fill:#BFCBC2;" d="M1179.856,99.505c-15.934-22.013-51.762,2.427-31.546,28.857
			c20.634,18.572,46.079,22.277,38.87,59.914c-0.79-40.313-34.52-31.577-52.019-60.224
			C1118.977,98.836,1161.322,65.107,1179.856,99.505z"/>
	</g>
	<g>
		<path style="fill:#BFCBC2;" d="M1114.792,243.142c-46.66,24.711-65.668-48.775-42.138-80.925
			c20.343-37.148,77.902-43.109,94.059-0.112C1094.894,84.444,1032.19,256.073,1114.792,243.142z"/>
	</g>
	<g>
		<path style="fill:#BFCBC2;" d="M1023.355,196.204c-111.279,29.68-38.097,119.205-85.234,153.58
			c20.223-26.869-0.005-62.562,5.712-94.603C949.366,218.959,988.968,190.237,1023.355,196.204z"/>
	</g>
	<g>
		<path style="fill:#BFCBC2;" d="M1094.35,127.513c-119.376,49.625-68.703,155.236-117.875,185.139
			C1011.762,277.523,952.292,154.572,1094.35,127.513z"/>
	</g>
	<g>
		<path style="fill:#BFCBC2;" d="M1126.24,121.522c-102.247,29.269-50.666,122.411-110.505,160.263
			C1056.114,237.776,1014.281,125.322,1126.24,121.522z"/>
	</g>
	<g>
		<path style="fill:#BFCBC2;" d="M1146.987,47.807c13.861,52.449-61.609,66.853-53.8,37.731
			C1095.303,112.85,1152.685,81.63,1146.987,47.807z"/>
	</g>
	<g>
		<path style="fill:#BFCBC2;" d="M2482.634,371.844c-42.843,64.742-153.25,40.993-153.413-48.815
			C2344.75,386.697,2422.115,422.51,2482.634,371.844z"/>
	</g>
	<g>
		<path style="fill:#BFCBC2;" d="M2404.747,459.757c-6.629-47.238-50.233-89.797-108.589-83.159
			C2345.747,355.527,2412.347,394.458,2404.747,459.757z"/>
	</g>
	<g>
		<path style="fill:#BFCBC2;" d="M2475.11,370.199c15.643-35.25-26.071-59.831-58.649-38.749
			c-30.636,18.309-29.767,60.658,5.418,70.157c-47.886-0.352-50.011-63.874-10.313-84.369
			C2448.781,294.224,2504.525,328.526,2475.11,370.199z"/>
	</g>
	<g>
		<path style="fill:#BFCBC2;" d="M2504.416,345.32c19.116-74.979-114.372-65.891-111.814,42.339
			C2357.115,265.502,2546.446,248.594,2504.416,345.32z"/>
	</g>
	<g>
		<path style="fill:#BFCBC2;" d="M2515.078,313.415c7.026-72.426-61.453-68.46-92.165-20.181
			C2448.873,218.882,2542.58,240.433,2515.078,313.415z"/>
	</g>
	<g>
		<path style="fill:#BFCBC2;" d="M2419.329,170.79c-25.52-46.032,76.146-51.005,31.444,35.885
			c-2.778,7.413-5.317,12.865-4.364,22.482c15.663,42.637,62.119-15.355,22.633-21.833c52.758-2.828,1.567,93.599-37.635,30.047
			c-11.348-28.018,17.344-47.725,16.308-75.926C2445.799,136.829,2410.126,145.825,2419.329,170.79z"/>
	</g>
	<g>
		<path style="fill:#BFCBC2;" d="M2085.434,637.893c-75.536,24.085-1.05,98.767,25.432,126.742
			c26.342,29.9,34.03,86.949-12.576,99.422c61.51-42.057-19.401-98.749-45.746-137.644
			C2028.396,693.048,2037.121,634.353,2085.434,637.893z"/>
	</g>
	<g>
		<path style="fill:#BFCBC2;" d="M2144.148,651.732c-25.338-10.269-71.344,2.039-50.726,36.362
			c29.306,33.613,51.089,52.576,40.708,102.1c2.101-48.311-42.555-76.489-55.819-99.024
			C2059.124,646.697,2113.208,628.39,2144.148,651.732z"/>
	</g>
	<g>
		<path style="fill:#BFCBC2;" d="M2143.886,638.284c-22.966-31.935-72.227-36.161-99.019-0.669
			C2061.309,595.093,2125.167,590.928,2143.886,638.284z"/>
	</g>
	<g>
		<path style="fill:#BFCBC2;" d="M2129.457,506.915c-11.91-41.449-70.727-23.33-55.847,8.709
			c96.929,17.774,62.625,101.87,15.231,90.7c29.548-0.733,47.507-38.049,20.026-59.469c-15.373-14.132-42.727-1.504-53.067-26.725
			C2040.508,465.998,2126.897,450.938,2129.457,506.915z"/>
	</g>
	<g>
		<path style="fill:#BFCBC2;" d="M2063.07,524.604c-8.55,13.527-13.423,35.134-6.911,53.582
			c12.252,41.639,63.193-18.628,17.8-23.783c38.475-8,29.811,54.153-8.085,48.864
			C2038.594,596.936,2036.952,547.363,2063.07,524.604z"/>
	</g>
	<g>
		<path style="fill:#BFCBC2;" d="M2097.709,444.005c-49.693,14.89-40.286-72.642,15.836-47.514
			c55.384,37.083-16.943,120.386-56.436,55.365c47.569,45.253,83.603-27.79,43.231-44.474
			C2067.809,398.643,2064.622,448.399,2097.709,444.005z"/>
	</g>
	<g>
		<path style="fill:#BFCBC2;" d="M2136.676,408.99c-7.108-63.4-70.396-48.884-89.278-0.11
			C2063.999,325.611,2151.053,354.223,2136.676,408.99z"/>
	</g>
	<g>
		<path style="fill:#BFCBC2;" d="M2090.879,325.695c-44.906,21.523-23.917-71.443,25.356-31.225
			c39.194,55.185-60.522,105.348-58.785,42.692c2.391,27.765,37.469,25.361,47.642,0.882c14.168-22.113-2.781-55.813-28.349-33.47
			C2067.64,313.622,2076.067,333.543,2090.879,325.695z"/>
	</g>
	<g>
		<path style="fill:#BFCBC2;" d="M2124.539,349.371c31.217-114.89-88.966-82.68-79.47-46.312
			C2029.799,237.813,2186.156,236.198,2124.539,349.371z"/>
	</g>
	<g>
		<path style="fill:#BFCBC2;" d="M2046.426,68.387c45.426-15.843,84.149,44.628,52.82,79.445
			c-28.66,31.188-73.871-6.664-45.233-32.399c-17.607,24.212,19.515,47.886,37.461,21.006
			C2110.89,106.065,2079.721,64.523,2046.426,68.387z"/>
	</g>
	<g>
		<path style="fill:#BFCBC2;" d="M2101.486,215.276c-52.622,34-114.099-16.24-103.607-72.653
			c11.105-66.393,81.124-68.717,89.192-26.123C2019.236,34.068,1964.076,242.534,2101.486,215.276z"/>
	</g>
	<g>
		<path style="fill:#BFCBC2;" d="M2106.737,50.974c125.567,83.462-52.115,224.028-72.956,111.445
			C2065.409,244.984,2190.812,132.479,2106.737,50.974z"/>
	</g>
	<g>
		<path style="fill:#BFCBC2;" d="M1980.081,180.449c-38.644-19.436-10.047-95.206,17.412-114.903
			c27.483-25.662,86.88-40.618,99.823-2.52C2050.537,6.803,1934.008,133.393,1980.081,180.449z"/>
	</g>
	<g>
		<path style="fill:#BFCBC2;" d="M2143.81,187.312c-13.825,47.587-69.308,70.475-111.41,49.745
			C2079.365,245.526,2123.882,220.46,2143.81,187.312z"/>
	</g>
	<g>
		<path style="fill:#BFCBC2;" d="M1984.473,46.364c-50.334,30.223-67.195,103.391-16.316,152.302
			C1907.844,167.36,1907.818,69.681,1984.473,46.364z"/>
	</g>
	<g>
		<path style="fill:#BFCBC2;" d="M1909.915,136.607c-18.739,35.954-59.275,8.221-32.756-25.444
			c22.577-23.27,62.19-0.232,49.293,30.651c4.634-21.473-22.793-42.63-41.862-23.649
			C1866.702,141.677,1887.119,160.085,1909.915,136.607z"/>
	</g>
	<g>
		<path style="fill:#BFCBC2;" d="M1887.276,163.594c-3.319,52.333-85.982-1.848-32.278-52.515
			C1822.742,155.676,1874.405,205.336,1887.276,163.594z"/>
	</g>
	<g>
		<path style="fill:#BFCBC2;" d="M1810.981,196.3c-24.862,13.688-44.857-24.374-20.085-43.766
			c20.618-17.479,62.377-5.908,60.356,24.075C1824.787,112.855,1747.004,193.552,1810.981,196.3z"/>
	</g>
	<g>
		<path style="fill:#BFCBC2;" d="M1814.845,216.449c-32.402,45.123-76.793-16.823-47.794-52.847
			C1750.949,210.933,1790.278,243.641,1814.845,216.449z"/>
	</g>
	<g>
		<path style="fill:#BFCBC2;" d="M1732.652,263.695c-38.311,26.165-61.822-29.533-25.384-57.881
			c41.077-31.607,79.199,14.993,55.554,54.67c9.551-35.293-17.769-70.142-50.127-41.412
			C1689.062,238.848,1698.772,276.628,1732.652,263.695z"/>
	</g>
	<g>
		<path style="fill:#BFCBC2;" d="M1767.239,266.279c-48.421,94.979-137.996,23.47-91.042-26.819
			C1649.041,313.304,1732.452,316.356,1767.239,266.279z"/>
	</g>
	<g>
		<path style="fill:#BFCBC2;" d="M1735.182,222.25c29.666,5.142,20.726,61.322,0.832,76.547
			C1746.006,284.429,1758.719,229.99,1735.182,222.25z"/>
	</g>
	<g>
		<path style="fill:#BFCBC2;" d="M1633.428,371.801c64.505-4.673,28.997-124.171-17.349-66.383
			c5.57-30.028,49.197-30.048,60.983,3.209C1687.667,336.246,1667.038,381.817,1633.428,371.801z"/>
	</g>
	<g>
		<path style="fill:#BFCBC2;" d="M1677.88,378.37c-6.78,50.341-96.133,24.353-95.813-22.791
			c-5.736-60.973,76.789-72.327,69.275-25.751c-2.455-40.807-69.908-12.733-50.376,34.995
			C1609.736,395.462,1670.773,409.247,1677.88,378.37z"/>
	</g>
	<g>
		<path style="fill:#BFCBC2;" d="M1664.543,405.609c-35.903,69.744-137.836,18.526-104.418-51.013
			C1547.751,417.496,1622.658,454.504,1664.543,405.609z"/>
	</g>
	<g>
		<path style="fill:#BFCBC2;" d="M1573.642,562.031c-19.349-6.321-30.515-34.223-16.763-53.412
			c9.592-15.025,24.842-20.247,32.87-37.946c19.908-44.315-29.775-44.762-36.711-5.05c-5.421-51.304,73.289-56.14,51.143,9.158
			C1589.943,510.828,1530.984,518.938,1573.642,562.031z"/>
	</g>
	<g>
		<path style="fill:#BFCBC2;" d="M2445.452,388.409c-28.534,8.946-52.621-32.065-21.124-51.359
			C2406.405,353.342,2413.945,388.528,2445.452,388.409z"/>
	</g>
	<path style="fill:#BFCBC2;" d="M845.312,564.785c0.814-17.304,25.276-16.527,25.963,0.001
		C870.461,582.089,845.999,581.312,845.312,564.785z"/>
	<path style="fill:#BFCBC2;" d="M730.3,474.736c-0.74-15.731-22.978-15.024-23.602,0.001
		C707.438,490.466,729.676,489.76,730.3,474.736z"/>
	<path style="fill:#BFCBC2;" d="M1158.043,188.327c-0.027-8.109-13.199-9.876-14.161,0.001
		C1143.91,196.436,1157.081,198.203,1158.043,188.327z"/>
	<path style="fill:#BFCBC2;" d="M2059.654,124.601c0.701-14.079,20.572-13.545,21.242,0.001
		C2080.195,138.68,2060.323,138.146,2059.654,124.601z"/>
	<path style="fill:#BFCBC2;" d="M1817.729,175.346c-0.269-10.193-15.669-11.031-16.522,0.001
		C1801.476,185.539,1816.877,186.377,1817.729,175.346z"/>
	<path style="fill:#BFCBC2;" d="M1617.83,342.923c0.701-14.079,20.572-13.545,21.242,0.001
		C1638.371,357.002,1618.5,356.468,1617.83,342.923z"/>
	<path style="fill:#BFCBC2;" d="M2433.751,358.264c0.74-15.731,22.978-15.024,23.602,0.001
		C2456.614,373.995,2434.375,373.289,2433.751,358.264z"/>
	<path style="fill:#BFCBC2;" d="M2456.173,224.911c0.301-11.907,18.138-12.443,18.882,0.001
		C2474.754,236.818,2456.917,237.354,2456.173,224.911z"/>
	<path style="fill:#BFCBC2;" d="M2366.124,420.351c-1.816-27.91-39.516-24.927-40.124,0
		C2327.816,448.261,2365.516,445.278,2366.124,420.351z"/>
	<path style="fill:#BFCBC2;" d="M2086.796,424.351c0.027-8.109,13.199-9.876,14.161,0.001
		C2100.93,432.46,2087.758,434.226,2086.796,424.351z"/>
	<path style="fill:#BFCBC2;" d="M2093.877,312.24c-0.023-6.757-11-8.23-11.801,0.001
		C2082.099,318.997,2093.075,320.469,2093.877,312.24z"/>
	<path style="fill:#BFCBC2;" d="M2104.498,675.716c0.701-14.079,20.572-13.545,21.242,0.001
		C2125.039,689.795,2105.168,689.261,2104.498,675.716z"/>
	<path style="fill:#BFCBC2;" d="M827.61,396.028c0.269-10.193,15.669-11.031,16.522,0.001
		C843.863,406.222,828.463,407.059,827.61,396.028z"/>
	<g>
		<path style="fill:#BFCBC2;" d="M196.368,1638.103c-0.03-0.033,0.106,0.49,0,1.26
			C196.398,1639.397,196.262,1638.874,196.368,1638.103z"/>
	</g>
	<g>
		<path style="fill:none;stroke:#F1F3F1;stroke-miterlimit:10;" d="M188.805,1617.936"/>
	</g>
	<g>
		<path style="fill:#BFCBC2;" d="M230.18,1661.468c40.25,2.796,47.342-53.869,15.078-73.102
			c-30.765-18.331-67.549,16.091-44.277,48.808c-40.212-36.197,13.402-89.552,55.911-59.778
			C298.781,1608.179,274.022,1676.563,230.18,1661.468z"/>
	</g>
	<g>
		<path style="fill:#BFCBC2;" d="M282.033,1701.017c22.818,37.028,53.821-13.95,34.052-40.953
			c-23.113-41.557-60.11-8.631-41.757,28.572c-36.975-44.603,24.89-92.369,55.878-33.453
			C356.436,1714.594,289.073,1741.253,282.033,1701.017z"/>
	</g>
	<g>
		<path style="fill:#BFCBC2;" d="M24.877,1709.877c9.206,35.511,54.219,13.838,56.433-15.805
			c0.778-26.669-18.289-54.451,0.06-81.243c41.372-64.133,111.316-4.354,68.448,26.109c29.934-38.16-41.612-62.522-55.098-5.442
			c-2.173,9.35-0.78,19.252,2.45,30.415C119.57,1737.214,23.73,1761.407,24.877,1709.877z"/>
	</g>
	<g>
		<path style="fill:#BFCBC2;" d="M179.943,1638.106c-4.122-19.433-12.941-41.23-26.101-59.555
			C170.06,1591.389,181.938,1614.788,179.943,1638.106z"/>
	</g>
	<g>
		<path style="fill:#BFCBC2;" d="M199.202,1566.438c-31.457,9.978-25.214,49.94-18.575,75.243
			C165.557,1617.619,159.788,1570.706,199.202,1566.438z"/>
	</g>
	<g>
		<path style="fill:#BFCBC2;" d="M343.983,1729.534c-45.155,50.158-95.044-27.172-59.779-70.31
			C264.063,1718.455,311.097,1757.991,343.983,1729.534z"/>
	</g>
	<g>
		<path style="fill:#BFCBC2;" d="M241.36,1660.659c19.897-20.615,12.556-58.366-19.847-65.808
			C255.022,1593.18,274.317,1639.169,241.36,1660.659z"/>
	</g>
	<g>
		<path style="fill:#BFCBC2;" d="M175.484,1640.535c-44.843,42.655-84.585,7.467-67.794-17.649
			C100.075,1665.405,153.099,1655.114,175.484,1640.535z"/>
	</g>
</g>
<g id="Layer_4">
	<g>
		<path style="fill:#FFB400;" d="M2159.167,42.275c43.742,0,86.758,5.39,127.849,16.019c28.81,7.456,56.023,14.499,87.465,33.459
			c25.995,15.676,49.187,35.956,68.93,60.278c17.058,21.014,27.464,40.045,32.463,49.189
			c26.267,48.048,31.261,87.553,32.189,102.311c1.321,20.984-0.852,39.689-6.114,52.653c-7.611,18.728-19.601,30.35-28.355,38.835
			c-10.265,9.949-29.372,28.469-59.662,34.987c-5.04,1.086-13.474,2.903-23.805,2.903c-9.388,0-18.527-1.54-27.161-4.576
			c-27.202-9.567-40.964-30.791-45.481-37.757c-13.651-21.064-19.143-43.073-15.884-63.639c0.191-1.205,0.412-2.406,0.662-3.601
			c3.221,2.741,6.607,5.245,10.161,7.511c7.385,4.709,27.001,17.216,52.143,17.216c6.174,0,12.317-0.752,18.251-2.232
			c19.584-4.881,36.142-17.099,49.19-36.279c17.115-25.092,16.854-49.91,16.624-71.813c-0.169-16.859-0.401-39.948-12.961-66.401
			c-13.313-28.038-32.696-43.313-48.291-55.603c-19.457-15.326-41.86-27.501-66.575-36.183c-20.757-7.3-42.538-11.757-98.101-14.403
			c-18.966-0.901-37.327-1.391-56.13-1.499l-35.201-0.202V98.65v54.04v160.94c0,74.493-0.377,150.316-0.742,223.643
			c-0.758,152.362-1.542,309.912,1.004,464.92c0.563,34.294,2.084,60.789,4.931,85.906c4.472,39.479,14.006,71.678,29.153,98.448
			c19.063,33.658,46.463,54.411,77.157,58.435c4.115,0.539,8.409,0.813,12.76,0.813c13.615,0,26.147-2.624,37.204-4.939
			c8.387-1.756,16.309-3.415,22.702-3.469c1.01-0.009,2.022-0.013,3.032-0.013c3.466,0,6.822,0.052,10.077,0.157
			c-20.524,5.316-39.724,13.024-57.476,23.094c-60.158,34.125-105.868,84.668-142.647,129.61
			c-7.864,9.608-15.449,19.411-22.784,28.891c-27.929,36.095-54.31,70.189-92.039,88.942c-14.555,7.235-29.349,11.449-44.938,12.777
			c54.443-43.337,89.094-103.844,95.296-166.673c8.918-90.349,5.956-181.397,3.092-269.448c-0.778-23.916-1.583-48.646-2.128-72.856
			c-1.816-80.626-1.619-163.001-1.429-242.664c0.075-31.351,0.152-63.769,0.106-95.656c-0.171-118.379,0.646-208.992,2.65-293.805
			c0.973-41.187-1.235-94.577-27.166-142.263c-26.64-48.966-75.853-80.609-125.376-80.612c-4.39,0-8.821,0.248-13.16,0.737
			c-41.755,4.696-75.119,30.554-102.248,55.229c-106.959,97.282-174.586,217.207-233.8,338.461V376.468
			c16.5-22.184,34.027-43.825,52.208-64.457c21.292-24.16,60.926-69.132,122.681-117.213c26.335-20.5,75.354-58.658,147.342-91.606
			c83.142-38.07,156.462-51.13,192.771-55.527C2095.148,45.781,2124.077,42.275,2159.167,42.275 M2159.167,7.275
			c-35.756,0-64.633,3.325-83.772,5.646c-25.35,3.07-107.08,14.47-203.13,58.45c-74.2,33.96-124.12,72.34-154.271,95.81
			c-63.09,49.12-104.05,95.15-127.44,121.69c-23.89,27.11-44.1,52.92-60.95,76.12v341.19c80.87-168.27,150.1-338.07,292.35-467.45
			c23.76-21.61,50.69-42.75,82.61-46.34c3.094-0.349,6.175-0.518,9.245-0.518c39.095,0.002,75.683,27.504,94.635,62.338
			c20.43,37.57,23.93,81.96,22.92,124.71c-2.32,98.208-2.802,196.451-2.66,294.682c0.163,112.933-1.21,226.195,1.332,339.057
			c2.536,112.613,10.291,225.672-0.804,338.077c-5.734,58.092-39.667,109.962-85.387,145.173c-26.21,20.18-52.151,31.47-71.871,37.9
			c16.03,8.95,40.15,19.19,70.8,21.84c5.117,0.441,10.13,0.656,15.048,0.656c26.316,0,49.875-6.166,71.46-16.894
			c55.975-27.822,88.054-80.239,126.33-127.008c37.995-46.426,80.158-91.454,132.831-121.333
			c36.353-20.621,76.133-27.352,112.746-27.352c15.427,0,30.299,1.196,44.104,3.052c-15.21-26.35-35.76-49.22-62.97-56.78
			c-20.866-5.801-42.209-7.614-63.751-7.614c-1.109,0-2.22,0.005-3.33,0.014c-19.907,0.167-39.803,8.406-59.608,8.406
			c-2.738,0-5.478-0.158-8.212-0.516c-22.5-2.95-40.07-21.24-51.25-40.98c-14.66-25.91-21.48-55.57-24.83-85.14
			c-3.106-27.405-4.26-54.979-4.713-82.542c-3.764-229.203-0.257-458.752-0.257-687.988c0-53.65,0-107.29,0-160.94
			c0-18.01,0-36.03,0-54.04c20.94,0.12,39.3,0.73,54.67,1.46c53.76,2.56,71.97,6.77,88.15,12.46
			c28.78,10.11,47.63,23.65,56.53,30.66c14.11,11.12,28.53,22.48,38.33,43.12c9.24,19.46,9.43,36.76,9.58,51.74
			c0.2,19.03,0.38,35.73-10.54,51.74c-3,4.41-12.21,17.92-28.74,22.04c-3.345,0.834-6.619,1.193-9.787,1.193
			c-14.939,0-27.459-7.987-33.333-11.733c-15.27-9.74-24.7-26.36-30.42-44.74c-17.81,17.97-29.89,40.35-33.78,64.86
			c-6.94,43.79,14.8,78.47,21.08,88.16c6.4,9.87,25.51,38.47,63.24,51.74c14.149,4.975,27.387,6.558,38.773,6.558
			c13.56,0,24.49-2.248,31.177-3.688c39.27-8.45,63.64-31.46,76.65-44.07c10.75-10.42,26.24-25.74,36.42-50.79
			c3.04-7.49,11.06-29.28,8.62-68.03c-0.64-10.17-4.32-58.2-36.41-116.9c-12.63-23.1-45.36-81.24-114.03-122.65
			c-35.09-21.16-64.93-29.13-96.77-37.37C2244.563,11.161,2197.839,7.275,2159.167,7.275L2159.167,7.275z"/>
	</g>
	<g>
		<path style="fill:#FFB400;" d="M1125.678,56.064c34.973,33.965,68.728,69.159,100.706,105.012
			c69.195,77.585,119.754,146.636,144.05,179.818c20.864,28.5,41.401,57.756,61.141,87.095v1400.401
			c-10.641-15.571-22.032-30.613-34.149-45.085c-7.163-8.552-14.632-16.959-22.301-25.108V1449.13V746.06
			c0-21.409,0.774-44.424,1.594-68.79c4.814-143.087,10.804-321.165-133.619-406.922c-47.583-28.265-91.627-34.197-120.197-34.196
			c-16.75,0-33.535,1.975-49.884,5.87c-70.098,16.689-111.081,65.072-126.509,83.285l-0.14,0.165
			c-5.086,5.992-22.828,27.895-37.612,58.143c-36.77,75.257-34.414,161.581-32.335,237.744c0.498,18.229,0.968,35.448,0.962,52.441
			c0,144.015-0.018,288.03-0.036,432.041c-0.009,72.003-0.018,144.005-0.024,216.005c-0.009,86.073-2.091,178.175-17.135,268.511
			c-15.648,93.967-43.779,174.523-86,246.272c-24.154,41.047-52.48,79.214-84.191,113.44c-26.428,28.524-46.774,45.063-52.378,49.45
			c-51.838,40.579-100.956,63.052-125.628,72.839c-5.361,2.128-10.652,4.118-15.865,5.98c16.579-7.149,31.937-14.687,45.459-21.84
			c52.144-27.582,103.793-64.111,128.522-90.895c39.115-42.361,70.423-93.088,101.515-164.48
			c35.116-80.638,34.219-165.848,33.352-248.252c-0.128-12.156-0.26-24.725-0.261-36.892v-140.01
			c0-44.861-0.317-90.32-0.622-134.283c-0.416-59.835-0.847-121.707-0.479-182.495c0.097-16.142,0.284-32.704,0.465-48.721
			c2.155-191.298,4.383-389.109-124.791-551.97c-5.305-6.688-10.809-13.259-16.498-19.697
			c30.328-12.078,53.984-24.183,75.421-35.152c54.111-27.671,107.108-60.467,153.261-94.842
			c64.85-48.3,109.792-93.471,126.126-110.673C1057.907,155.609,1094.145,107.957,1125.678,56.064 M194.269,1579.199
			c29.432,0.001,52.513,9.013,63.653,14.387c10.768,5.192,43.537,20.994,61.738,57.657c5.693,11.477,17.535,35.347,11.083,64.156
			c-0.305,1.248-9.894,39.188-41.675,55.601c-0.325,0.168-0.651,0.333-0.979,0.495c5.772-18.507,6.197-35.032,4.916-47.606
			c-4.387-43.281-25.206-66.92-41.901-79.131c-16.833-12.311-37.49-18.818-59.735-18.818c-22.615,0-40.95,6.532-47.828,9.362
			c-50.513,20.692-69.093,69.493-77.023,90.323c-32.865,86.232-11.043,199.114,54.303,280.894
			c9.768,12.224,21.856,25.21,36.608,37.752c-29.411-22.198-49.325-45.063-59.319-57.827
			c-26.904-34.389-45.491-73.897-55.245-117.426c-7.941-35.436-7.888-64.166-7.862-77.972l0.001-0.631
			c0.046-36.734,0.116-92.248,36.98-142.609c10.42-14.232,38.098-52.037,88.955-64.573
			C171.802,1580.556,183.015,1579.199,194.269,1579.199 M1117.494,0c-44.1,81.59-91.51,138.41-125.3,174.06
			c-8.66,9.12-53.37,55.84-121.63,106.68c-19.24,14.33-72.71,53.1-148.29,91.75c-28.65,14.66-57.79,29.42-99.22,43.75
			c-8.26,2.85-16.32,5.45-24.16,7.83c22.98,20.58,40.32,40.23,52.97,56.18c132.18,166.65,117.96,378.58,116.75,578.73
			c-0.64,105.67,1.1,211.12,1.1,316.99c0,46.67,0,93.34,0,140.01c0.01,90.77,7.01,185.77-30.18,271.17
			c-24.38,55.98-53.33,109.43-95.14,154.71c-38.838,42.066-181.953,135.852-291.01,135.852c-4.78,0-9.482-0.179-14.12-0.552
			c-16.401-1.316-119.55-2.95-191.1-92.49c-58.29-72.95-77.49-171.67-48.94-246.58c7.42-19.49,21.86-55.78,57.61-70.41
			c2.727-1.123,17.031-6.739,34.536-6.739c12.411,0,26.429,2.822,39.074,12.069c23.98,17.54,26.93,46.42,27.74,54.41
			c3.32,32.61-13.57,56.35-19.2,64.01c-5.44,7.4-11.47,13.45-17.6,18.39c10.938,2.813,21.962,4.237,32.784,4.237
			c17.988,0,35.415-3.934,50.956-11.957c46.57-24.05,59.09-76.02,59.75-78.95c9.21-40.98-6.97-73.57-13.87-87.48
			c-23.05-46.43-63.26-66.56-77.88-73.61c-9.165-4.42-39.03-17.86-78.855-17.861c-12.97,0-26.992,1.425-41.705,5.051
			c-61.95,15.27-95.4,59.55-108.82,77.88c-43.59,59.55-43.69,123.64-43.74,163.24c-0.05,28.86-0.73,126.54,70.54,217.64
			c15.08,19.26,72.36,87.64,168.44,117.22c41.212,12.697,77.004,15.261,105.274,15.261c7.4,0,14.284-0.176,20.615-0.391
			c13.38-0.45,79.66-3.31,160.03-35.21c18.1-7.18,74.39-30.92,134.29-77.81c16.77-13.13,85.45-71.23,145.16-172.7
			c97.02-164.87,107.95-346.35,107.97-532.53c0.02-216.01,0.06-432.03,0.06-648.05c0.03-90.19-13.1-191.07,27.82-274.82
			c13.69-28.01,30.55-48.15,32.85-50.86c14.57-17.2,48.93-57.97,108.07-72.05c14.621-3.482,28.626-4.917,41.779-4.918
			c51.698-0.001,90.324,22.161,102.321,29.288c149.28,88.64,114.9,300.69,114.9,445.62c0,234.36,0,468.71,0,703.07
			c0,107.73,0,215.47,0,323.2c10.15,10.25,20.36,21.38,30.47,33.45c48.93,58.44,78.18,118.34,95.98,167.33V417.35
			c-19.63-29.43-42.27-62.12-67.9-97.13c-27.34-37.34-77.22-105.13-146.17-182.44C1216.854,97.81,1172.094,50.79,1117.494,0
			L1117.494,0z"/>
	</g>
</g>
<g id="Layer_6">
	<g>
		<g>
			<path style="fill:#480000;" d="M1529.6,2029.312c-16.073,0-29.15-13.076-29.15-29.149s13.077-29.15,29.15-29.15
				s29.149,13.077,29.149,29.15S1545.673,2029.312,1529.6,2029.312z"/>
			<path style="fill:#480000;" d="M1529.6,1977.512c12.489,0,22.65,10.161,22.65,22.65c0,12.489-10.161,22.65-22.65,22.65
				c-12.489,0-22.65-10.161-22.65-22.65C1506.95,1987.673,1517.111,1977.512,1529.6,1977.512 M1529.6,1964.512
				c-19.689,0-35.65,15.961-35.65,35.65c0,19.689,15.961,35.65,35.65,35.65c19.689,0,35.65-15.961,35.65-35.65
				C1565.25,1980.473,1549.289,1964.512,1529.6,1964.512L1529.6,1964.512z"/>
		</g>
	</g>
	<g>
		<g>
			<path style="fill:#480000;" d="M1529.6,267.172c-16.073,0-29.15-13.076-29.15-29.149s13.077-29.15,29.15-29.15
				s29.149,13.077,29.149,29.15S1545.673,267.172,1529.6,267.172z"/>
			<path style="fill:#480000;" d="M1529.6,215.372c12.489,0,22.65,10.161,22.65,22.65c0,12.489-10.161,22.65-22.65,22.65
				c-12.489,0-22.65-10.161-22.65-22.65C1506.95,225.533,1517.111,215.372,1529.6,215.372 M1529.6,202.372
				c-19.689,0-35.65,15.961-35.65,35.65c0,19.689,15.961,35.65,35.65,35.65c19.689,0,35.65-15.961,35.65-35.65
				C1565.25,218.333,1549.289,202.372,1529.6,202.372L1529.6,202.372z"/>
		</g>
	</g>
	<g>
		<g>
			<rect x="1525.1" y="244.522" style="fill:#480000;" width="9" height="1749.14"/>
			<polygon style="fill:#480000;" points="1540.6,238.023 1518.6,238.023 1518.6,2000.162 1540.6,2000.162 1540.6,238.023 			"/>
		</g>
	</g>
	<g>
		<g>
			<path style="fill:#480000;" d="M1794.948,1509.771c-6.582,0-13.355-0.347-20.131-1.028c-14.55-1.466-34.477-3.473-56.353-16.325
				c-13.4-7.873-32.034-22.401-44.708-46.9c-17.602-34.021-12.39-66.738-9.885-82.461c2.017-12.653,5.39-33.827,20.698-55.377
				c6.064-8.537,23.513-29.663,54.496-41.446c7.456-2.835,24.909-9.471,45.68-9.471c14.586,0,28.317,3.255,40.812,9.675
				c11.959,6.145,40.521,24.372,47.452,60.833c0.723,3.8,6.393,37.984-16.596,67.562c-5.037,6.482-16.832,21.66-38.153,26.78
				c-2.712,0.651-8.314,1.743-15.374,1.744c-13.891,0-25.905-4.062-35.708-12.072c-5.265-4.301-22.222-20.024-19.442-41.802
				c0.687-5.369,4.205-23.391,20.647-29.834c3.544-1.388,7.328-2.092,11.249-2.092c10.146,0,20.099,4.638,27.306,12.725
				c0.8,0.897,1.202,2.053,1.133,3.253s-0.601,2.301-1.498,3.1c-1.059,0.944-2.21,1.143-2.989,1.143
				c-1.304,0-2.498-0.535-3.364-1.507c-5.515-6.188-12.984-9.737-20.495-9.737c-2.811,0-5.521,0.503-8.056,1.495
				c-11.831,4.637-14.476,18.463-15.005,22.591c-2.193,17.186,11.852,30.137,16.208,33.697c8.072,6.595,18.431,10.081,29.957,10.081
				c6.039,0,10.942-0.962,13.329-1.535c18.255-4.384,28.692-17.816,33.149-23.552c20.928-26.928,15.117-59.008,14.86-60.36
				c-6.364-33.478-34.31-50.184-42.723-54.506c-11.252-5.782-23.636-8.713-36.807-8.713c-18.927,0-34.759,6.021-42.368,8.914
				c-29.491,11.214-46.004,32.109-50.363,38.247c-14.092,19.837-17.134,38.938-19.146,51.577
				c-2.534,15.908-7.251,45.521,8.989,76.913c12.304,23.784,31.141,37.323,41.273,43.276c20.175,11.854,38.203,13.67,52.689,15.13
				c4.081,0.41,10.894,1.097,19.711,1.097c25.986,0,50.619-5.855,73.214-17.402c36.918-18.869,55.457-46.543,65.417-61.41
				c17.441-26.039,24.018-48.856,29.82-68.987c14.457-50.171,14.271-104.073,14.09-156.2l-0.001-0.154
				c-0.038-11.23-0.079-22.843,0.034-34.172c0.592-59.832,0.896-124.593,0.956-203.807c0.039-50.371-0.025-101.492-0.088-150.93
				c-0.106-84.122-0.216-171.108,0.179-256.803c0.363-78.482,0.738-159.637-17.383-237.347
				c-7.076-30.336-18.416-47.875-34.668-53.619c-3.864-1.367-8.078-2.061-12.521-2.061c-8.941,0-18.809,2.73-29.328,8.114
				c-25.883,13.233-46.182,35.895-64.262,58.411c-82.897,103.277-142.599,225.298-200.334,343.303
				c-27.679,56.569-56.27,115.004-87.008,170.529c-0.793,1.434-2.305,2.323-3.946,2.323c-0.763,0-1.493-0.189-2.171-0.564
				c-2.17-1.202-2.958-3.946-1.757-6.117c30.634-55.337,59.18-113.681,86.786-170.104
				c57.962-118.466,117.888-240.946,201.412-345.003c18.704-23.296,39.79-46.785,67.181-60.79c11.785-6.032,23.044-9.09,33.468-9.09
				c5.464,0,10.673,0.863,15.481,2.564c28.799,10.179,37.555,47.723,40.432,60.06c18.361,78.741,17.983,160.432,17.618,239.434
				c-0.395,85.668-0.285,172.641-0.179,256.749c0.063,49.442,0.127,100.568,0.088,150.95c-0.061,79.28-0.364,144.066-0.957,203.887
				c-0.111,11.201-0.072,22.714-0.034,33.849l0.001,0.352c0.184,52.76,0.374,107.315-14.439,158.724
				c-5.688,19.74-12.768,44.304-30.993,71.511c-9.672,14.438-29.798,44.483-68.798,64.415
				C1849.008,1503.623,1822.837,1509.771,1794.948,1509.771z"/>
			<path style="fill:#480000;" d="M1914.514,242.504c-11.377,0.001-23.705,3.291-36.427,9.803
				c-28.479,14.561-50.133,38.647-69.291,62.508c-83.977,104.621-144.063,227.43-202.172,346.196
				c-27.574,56.356-56.086,114.632-86.644,169.833c-2.942,5.314-1.019,12.009,4.296,14.951c1.689,0.935,3.516,1.378,5.319,1.378
				c3.871,0,7.626-2.048,9.633-5.675c30.827-55.687,59.463-114.216,87.158-170.818c57.58-117.686,117.12-239.379,199.565-342.092
				c17.627-21.953,37.355-44.015,62.155-56.695c7.208-3.689,16.83-7.401,26.366-7.4c3.504,0,6.998,0.501,10.355,1.689
				c13.994,4.946,23.972,20.964,30.504,48.967c17.947,76.964,17.574,157.732,17.213,235.841
				c-0.395,85.624-0.285,172.665-0.179,256.841c0.063,49.466,0.127,100.615,0.088,150.917c-0.061,79.198-0.364,143.94-0.956,203.747
				c-0.113,11.422-0.072,23.106-0.033,34.406c0.179,51.673,0.364,105.104-13.834,154.378c-5.671,19.676-12.098,41.978-28.977,67.176
				c-9.632,14.378-27.56,41.14-62.975,59.24c-27.115,13.858-52.721,16.69-70.256,16.69c-8.493,0-15.094-0.665-19.053-1.063
				c-13.857-1.396-31.104-3.133-50.055-14.268c-9.529-5.599-27.24-18.326-38.793-40.658c-15.258-29.493-10.761-57.73-8.344-72.904
				c1.918-12.042,4.817-30.24,18.027-48.836c4.091-5.76,19.598-25.373,47.369-35.934c7.356-2.797,22.327-8.492,40.063-8.492
				c10.633,0,22.263,2.048,33.836,7.995c7.751,3.982,33.494,19.355,39.308,49.94c0.235,1.235,5.531,30.531-13.607,55.156
				c-4.381,5.638-13.497,17.368-29.536,21.22c-2.143,0.515-6.465,1.355-11.81,1.355c-7.659,0-17.415-1.727-25.844-8.614
				c-3.702-3.025-15.644-13.973-13.874-27.838c0.414-3.23,2.423-14.031,10.928-17.364c1.805-0.707,3.726-1.048,5.685-1.048
				c5.507,0,11.31,2.698,15.643,7.562c2.173,2.439,5.188,3.682,8.217,3.682c2.604,0,5.217-0.919,7.314-2.789
				c4.535-4.041,4.936-10.994,0.894-15.53c-8.575-9.623-20.447-14.901-32.158-14.901c-4.637,0-9.249,0.828-13.62,2.541
				c-19.771,7.747-23.922,28.791-24.724,35.063c-3.203,25.095,15.858,42.823,21.776,47.658
				c13.298,10.866,28.293,13.539,39.822,13.539c7.675,0,13.813-1.184,16.891-1.923c23.537-5.652,36.313-22.092,41.768-29.111
				c24.743-31.835,18.628-68.67,17.85-72.765c-7.465-39.272-38.059-58.819-50.867-65.4c-15.126-7.772-30.201-10.393-43.782-10.393
				c-21.965,0-40.015,6.863-47.99,9.895c-32.65,12.417-51.077,34.737-57.484,43.757c-16.19,22.792-19.713,44.904-21.818,58.119
				c-2.614,16.409-8.052,50.553,10.53,86.47c13.387,25.877,33.05,41.211,47.188,49.519c23.102,13.572,43.847,15.662,58.994,17.188
				c7.027,0.708,13.956,1.062,20.782,1.062c28.951,0,56.034-6.358,80.743-18.987c40.503-20.7,61.264-51.692,71.24-66.586
				c18.791-28.052,26.025-53.156,31.839-73.328c15.069-52.296,14.879-107.327,14.693-160.546
				c-0.038-11.228-0.079-22.838,0.033-34.113c0.593-59.874,0.896-124.68,0.957-203.946c0.039-50.325-0.025-101.486-0.088-150.963
				c-0.106-84.144-0.216-171.152,0.179-256.711c0.367-79.379,0.746-161.46-17.788-240.94c-3.077-13.194-12.443-53.348-44.594-64.711
				C1926.619,243.478,1920.708,242.503,1914.514,242.504L1914.514,242.504z"/>
		</g>
	</g>
	<g>
		<g>
			<path style="fill:#480000;" d="M1776.432,1674.249c-1.671,0-3.196-0.913-3.98-2.384c-12.951-24.285-11.886-52.377,3.166-83.497
				c13.583-28.081,35.59-52.412,51.66-67.878c17.098-16.454,29.516-27.197,40.261-34.833c5.454-3.877,11.076-7.689,16.709-11.332
				c0.733-0.474,1.574-0.724,2.436-0.724c1.538,0,2.953,0.769,3.786,2.057c0.654,1.012,0.875,2.214,0.623,3.39
				c-0.252,1.175-0.947,2.181-1.956,2.834c-5.519,3.569-11.03,7.308-16.383,11.11c-10.229,7.27-22.696,18.067-39.234,33.982
				c-25.46,24.503-81.603,87.259-53.126,140.655c0.565,1.061,0.685,2.278,0.334,3.428c-0.35,1.149-1.126,2.095-2.187,2.66
				C1777.878,1674.07,1777.169,1674.249,1776.432,1674.249z"/>
			<path style="fill:#480000;" d="M1886.682,1467.101c-2.046,0-4.117,0.571-5.965,1.766c-5.71,3.692-11.411,7.559-16.944,11.491
				c-11.021,7.831-23.666,18.764-41.004,35.448c-16.451,15.833-39.002,40.783-53.004,69.731
				c-16.006,33.093-17.032,63.166-3.05,89.385c1.979,3.713,5.783,5.826,9.716,5.826c1.746,0,3.519-0.417,5.166-1.296
				c5.361-2.858,7.389-9.521,4.53-14.882c-26.391-49.485,27.502-109.435,51.897-132.913c16.299-15.685,28.529-26.287,38.492-33.367
				c5.273-3.747,10.706-7.432,16.147-10.951c5.102-3.299,6.563-10.108,3.263-15.21
				C1893.823,1468.875,1890.291,1467.101,1886.682,1467.101L1886.682,1467.101z"/>
		</g>
	</g>
	<g>
		<g>
			<path style="fill:#480000;" d="M352.642,2190.346c-70.549,0-133.611-13.973-192.79-42.715
				c-55.999-27.198-106.574-67.53-146.259-116.634c-1.56-1.93-1.258-4.769,0.671-6.329c1.022-0.825,2.099-0.999,2.821-0.999
				c1.37,0,2.648,0.609,3.507,1.672c38.858,48.081,88.373,87.568,143.191,114.194c57.925,28.133,119.772,41.81,189.076,41.81
				c5.337,0,9.979-0.067,14.074-0.127c100.673-1.434,172.531-33.607,207.065-49.069c100.903-45.178,192.617-122.276,258.25-217.096
				c118.816-171.653,117.736-389.202,116.782-581.142c-0.879-177.053-0.676-357.075-0.48-531.171l0-0.396
				c0.085-74.695,0.172-151.933,0.172-228.75l0.04-2.969c3.793-42.14,9.659-90.942,24.327-133.675
				c16.217-47.242,44.531-84.282,79.726-104.295c23.08-13.125,50.817-20.063,80.214-20.063c2.618,0,5.284,0.055,7.923,0.165
				c28.599,1.184,54.226,8.839,74.11,22.137c36.722,24.56,53.658,67.095,61.399,98.454c9.694,39.275,9.753,77.299,0.171,109.963
				c-11.226,38.268-35.931,69.598-67.78,85.956c-17.114,8.79-36.743,13.436-56.765,13.437c-6.215,0-12.471-0.454-18.595-1.35
				c-28.335-4.145-54.372-17.526-73.314-37.682c-19.55-20.804-30.894-48.61-31.122-76.289c-0.189-23.008,6.99-46.582,20.764-68.171
				c14.736-23.099,34.329-38.234,55.17-42.617c4.464-0.938,9.129-1.414,13.867-1.414c15.542,0,31.877,5.047,47.241,14.595
				c14.403,8.952,25.571,20.372,32.296,33.026c7.969,14.994,9.759,31.923,4.91,46.448c-6.717,20.115-26.983,34.786-48.19,34.882
				l-0.208,0c-21.119,0-41.431-14.485-48.297-34.441c-0.391-1.137-0.316-2.358,0.211-3.438c0.527-1.08,1.443-1.89,2.58-2.281
				c0.479-0.165,0.972-0.249,1.466-0.249c1.918,0,3.627,1.221,4.252,3.039c5.656,16.439,22.388,28.371,39.786,28.371h0.104
				c17.25-0.079,34.315-12.431,39.759-28.732c4.012-12.018,2.396-26.736-4.32-39.374c-5.98-11.253-16.043-21.491-29.1-29.606
				c-13.941-8.665-28.619-13.245-42.447-13.245c-4.127,0-8.184,0.413-12.058,1.228c-24.899,5.236-41.66,26.463-49.435,38.65
				c-12.835,20.119-19.527,41.993-19.352,63.256c0.209,25.44,10.664,51.027,28.681,70.2c17.555,18.68,41.725,31.089,68.057,34.94
				c5.716,0.836,11.551,1.26,17.342,1.26c18.558,0,36.748-4.305,52.604-12.448c29.665-15.236,52.721-44.571,63.256-80.483
				c9.135-31.139,9.04-67.542-0.274-105.273c-7.359-29.813-23.337-70.171-57.665-93.129c-18.507-12.378-42.533-19.511-69.479-20.626
				c-2.519-0.104-5.064-0.157-7.563-0.157c-27.831,0-54.025,6.531-75.752,18.886c-33.287,18.928-60.157,54.227-75.661,99.394
				c-14.44,42.065-20.333,92.271-23.854,131.312l-0.026,0.291v2.119c0,76.821-0.087,154.063-0.172,228.761l0,0.395
				c-0.196,174.082-0.399,354.091,0.48,531.116c0.441,88.95,0.99,199.634-14.387,303.267
				c-16.88,113.748-50.897,206.332-103.996,283.043c-66.554,96.149-159.59,174.347-261.97,220.186
				c-32.343,14.481-108.085,48.395-210.618,49.856C362.817,2190.278,358.044,2190.346,352.642,2190.346z"/>
			<path style="fill:#480000;" d="M1133.03,306.092c-30.569,0-59.266,7.173-83.426,20.912
				c-36.573,20.797-65.929,59.094-82.66,107.835c-14.923,43.473-20.848,92.866-24.676,135.449l-0.044,3.305
				c0,76.245-0.087,153.77-0.172,228.743c-0.196,174.234-0.4,354.399,0.48,531.606c0.949,190.979,2.023,407.441-115.627,577.41
				c-64.966,93.855-155.726,170.162-255.56,214.861c-34.136,15.284-105.168,47.089-204.505,48.504
				c-4.034,0.058-8.711,0.125-13.979,0.125c-38.683,0-108.981-3.634-186.238-41.156c-53.964-26.211-102.713-65.09-140.975-112.434
				c-2.174-2.69-5.354-4.086-8.562-4.086c-2.428,0-4.872,0.8-6.908,2.445c-4.725,3.819-5.46,10.745-1.641,15.47
				c40.281,49.841,91.622,90.781,148.475,118.395c81.477,39.573,155.17,43.368,195.63,43.368c5.463,0,10.323-0.069,14.512-0.129
				c103.873-1.48,180.472-35.777,213.182-50.423c103.448-46.317,197.438-125.308,264.658-222.419
				c53.679-77.549,88.051-171.031,105.08-285.788c15.452-104.129,14.9-215.092,14.458-304.253
				c-0.88-177.14-0.676-357.271-0.48-531.472c0.085-74.979,0.172-152.511,0.172-228.768v-1.827
				c3.498-38.786,9.344-88.466,23.528-129.785c14.989-43.667,40.817-77.709,72.727-95.854c20.84-11.851,45.788-18.036,72.539-18.036
				c2.416,0,4.851,0.051,7.294,0.152c25.751,1.066,48.62,7.821,66.134,19.535c32.597,21.8,47.884,60.586,54.968,89.284
				c9.039,36.618,9.159,71.849,0.347,101.886c-10.036,34.21-31.901,62.105-59.988,76.531c-15.028,7.719-32.205,11.73-49.634,11.73
				c-5.461,0-10.95-0.394-16.401-1.192c-24.886-3.64-47.708-15.345-64.261-32.96c-16.911-17.995-26.722-41.979-26.918-65.802
				c-0.165-20.003,6.174-40.65,18.332-59.707c7.226-11.327,22.719-31.038,45.292-35.785c3.466-0.729,7.051-1.089,10.721-1.089
				c12.534,0,26.042,4.202,39.016,12.266c12.083,7.51,21.348,16.894,26.792,27.136c5.897,11.095,7.353,23.904,3.895,34.264
				c-4.602,13.782-19.029,24.225-33.558,24.291c-0.047,0-0.093,0-0.139,0c-14.483,0-28.927-10.29-33.639-23.984
				c-1.568-4.56-5.834-7.425-10.4-7.425c-1.187,0-2.395,0.194-3.58,0.602c-5.745,1.976-8.799,8.235-6.823,13.98
				c7.752,22.532,30.621,38.827,54.443,38.827c0.079,0,0.159,0,0.237,0c23.907-0.109,46.754-16.647,54.326-39.323
				c5.41-16.206,3.466-34.998-5.335-51.557c-7.263-13.665-19.229-25.939-34.605-35.496c-16.489-10.248-34.018-15.575-50.672-15.575
				c-5.171,0-10.26,0.514-15.205,1.553c-22.564,4.746-43.628,20.898-59.312,45.482c-14.451,22.652-21.984,47.452-21.784,71.721
				c0.241,29.295,12.227,58.704,32.885,80.687c19.943,21.221,47.328,35.306,77.11,39.662c6.49,0.949,13.024,1.418,19.536,1.418
				c20.922,0,41.601-4.841,59.734-14.155c33.426-17.168,59.322-49.938,71.047-89.908c9.905-33.765,9.872-72.961-0.098-113.351
				c-8.017-32.474-25.644-76.581-64.097-102.298c-20.877-13.963-47.661-21.995-77.454-23.229
				C1138.476,306.149,1135.748,306.092,1133.03,306.092L1133.03,306.092z"/>
		</g>
	</g>
	<g>
		<g>
			<path style="fill:#480000;" d="M2159.167,23.275c45.346,0,89.963,5.594,132.609,16.625c30.189,7.813,58.703,15.192,92.516,35.582
				c27.884,16.815,52.737,38.54,73.87,64.574c18.148,22.356,29.114,42.412,34.383,52.05c28.095,51.392,33.472,94.207,34.48,110.231
				c1.519,24.118-1.067,45.214-7.474,61.001c-9.116,22.433-23.329,36.209-32.733,45.325c-11.631,11.273-33.281,32.257-68.884,39.918
				c-5.4,1.164-15.451,3.329-27.807,3.329c-11.54,0-22.799-1.902-33.465-5.652c-13.917-4.895-26.535-12.803-37.504-23.504
				c-9.399-9.17-15.16-18.054-17.618-21.844c-16.243-25.063-22.711-51.674-18.704-76.951c2.046-12.895,6.773-25.304,13.915-36.719
				c6.928,11.781,15.583,21.013,25.889,27.587c6.682,4.26,22.328,14.237,41.928,14.237c4.624,0,9.22-0.562,13.656-1.668
				c14.916-3.718,27.734-13.328,38.089-28.55c13.749-20.159,13.531-40.871,13.321-60.916c-0.16-15.935-0.359-35.766-11.125-58.442
				c-11.404-24.018-28.119-37.191-42.884-48.827c-17.811-14.029-38.377-25.195-61.122-33.185
				c-19.056-6.702-39.473-10.814-92.698-13.348c-18.7-0.888-36.801-1.371-55.338-1.478l-16.092-0.092V98.65v54.04v160.94
				c0,74.539-0.377,150.386-0.742,223.735c-0.758,152.263-1.541,309.71,1.001,464.516c0.553,33.659,2.037,59.59,4.813,84.08
				c4.179,36.891,12.947,66.729,26.806,91.224c16.052,28.342,38.459,45.729,63.093,48.959c3.3,0.433,6.762,0.652,10.292,0.652
				c11.647,0,22.66-2.306,33.31-4.536c9.337-1.955,18.156-3.802,26.433-3.871c1.065-0.009,2.131-0.013,3.195-0.013
				c23.321,0,42.216,2.234,59.468,7.03c12.063,3.352,23.48,10.887,34.139,22.502c-3.698-0.127-7.363-0.19-10.99-0.19
				c-45.619,0-86.208,9.903-120.64,29.435c-57.441,32.584-101.649,81.532-137.319,125.117c-7.699,9.407-15.203,19.106-22.46,28.484
				c-29.301,37.868-56.978,73.637-98.609,94.329c-20.608,10.243-41.653,15.222-64.34,15.222c-4.477,0-9.077-0.201-13.669-0.597
				c-10.48-0.906-20.756-2.829-30.77-5.75c14.145-7.169,27.593-15.648,40.225-25.374c52.356-40.323,85.723-97.284,91.547-156.278
				c8.795-89.109,5.854-179.525,3.01-266.964c-0.78-23.962-1.585-48.74-2.133-73.045c-1.821-80.859-1.624-163.349-1.434-243.124
				c0.075-31.337,0.152-63.741,0.106-95.595c-0.171-118.544,0.648-209.304,2.656-294.281c0.917-38.826-1.079-89.001-24.861-132.734
				c-23.362-42.941-66.025-70.689-108.688-70.692c-3.681,0-7.395,0.208-11.034,0.618c-36.273,4.079-65.456,26.636-91.588,50.403
				c-126.462,115.02-197.44,263.87-265.584,408.257V370.21c17.899-24.38,37.042-48.165,56.954-70.761
				c21.704-24.627,62.104-70.468,125.264-119.643c26.946-20.976,77.103-60.02,151.103-93.888
				c85.482-39.141,160.991-52.584,198.395-57.114C2093.258,26.871,2122.925,23.275,2159.167,23.275 M2159.167,7.274
				c-35.756,0-64.633,3.325-83.772,5.646c-25.35,3.07-107.08,14.47-203.13,58.45c-74.2,33.96-124.12,72.34-154.27,95.81
				c-63.09,49.12-104.05,95.15-127.44,121.69c-23.89,27.11-44.1,52.92-60.95,76.12v341.19c80.87-168.27,150.1-338.07,292.35-467.45
				c23.76-21.61,50.69-42.75,82.61-46.34c3.094-0.349,6.174-0.518,9.245-0.518c39.095,0.003,75.684,27.504,94.635,62.338
				c20.43,37.57,23.93,81.96,22.92,124.71c-2.32,98.208-2.802,196.451-2.66,294.682c0.163,112.933-1.21,226.195,1.332,339.057
				c2.536,112.613,10.291,225.672-0.804,338.077c-5.734,58.093-39.667,109.962-85.387,145.173
				c-26.211,20.181-52.151,31.471-71.871,37.901c16.03,8.95,40.15,19.19,70.8,21.84c5.116,0.441,10.129,0.656,15.048,0.656
				c26.317,0,49.876-6.165,71.461-16.894c55.975-27.822,88.054-80.239,126.33-127.008c37.995-46.426,80.157-91.454,132.831-121.333
				c36.353-20.621,76.133-27.352,112.746-27.352c15.427,0,30.299,1.196,44.104,3.052c-15.21-26.35-35.76-49.22-62.97-56.78
				c-20.866-5.801-42.21-7.614-63.751-7.614c-1.109,0-2.219,0.005-3.329,0.014c-19.908,0.167-39.804,8.406-59.608,8.406
				c-2.738,0-5.478-0.158-8.212-0.516c-22.5-2.95-40.07-21.24-51.25-40.98c-14.66-25.91-21.48-55.57-24.83-85.14
				c-3.106-27.405-4.26-54.979-4.713-82.542c-3.764-229.203-0.257-458.752-0.257-687.988c0-53.65,0-107.29,0-160.94
				c0-18.01,0-36.03,0-54.04c20.94,0.12,39.3,0.73,54.67,1.46c53.76,2.56,71.97,6.77,88.15,12.46
				c28.78,10.11,47.63,23.65,56.53,30.66c14.11,11.12,28.53,22.48,38.33,43.12c9.24,19.46,9.43,36.76,9.58,51.74
				c0.2,19.03,0.38,35.73-10.54,51.74c-3,4.41-12.21,17.92-28.74,22.04c-3.344,0.834-6.619,1.193-9.787,1.193
				c-14.939,0-27.459-7.987-33.333-11.733c-15.27-9.74-24.7-26.36-30.42-44.74c-17.81,17.97-29.89,40.35-33.78,64.86
				c-6.94,43.79,14.8,78.47,21.08,88.16c6.4,9.87,25.51,38.47,63.24,51.74c14.149,4.975,27.387,6.558,38.773,6.558
				c13.56,0,24.491-2.248,31.177-3.688c39.27-8.45,63.64-31.46,76.65-44.07c10.75-10.42,26.24-25.74,36.42-50.79
				c3.04-7.49,11.06-29.28,8.62-68.03c-0.64-10.17-4.32-58.2-36.41-116.9c-12.63-23.1-45.36-81.24-114.03-122.65
				c-35.09-21.16-64.93-29.13-96.77-37.37C2244.563,11.16,2197.839,7.274,2159.167,7.274L2159.167,7.274z"/>
		</g>
	</g>
	<g>
		<g>
			<path style="fill:#480000;" d="M1121.505,25.721c41.517,39.394,81.503,80.602,119.058,122.708
				c69.804,78.268,120.729,147.818,145.201,181.242c22.154,30.262,43.943,61.371,64.81,92.533V1897.01
				c-18.93-36.322-41.575-70.284-67.714-101.504c-8.528-10.181-17.502-20.15-26.736-29.701V1449.13V746.06
				c0-21.729,0.779-44.899,1.604-69.429c4.646-138.082,10.426-309.929-124.333-389.947c-43.872-26.061-84.297-31.532-110.486-31.532
				c-0.002,0-0.005,0-0.007,0c-15.27,0-30.573,1.802-45.484,5.353c-64.031,15.244-100.737,58.578-116.411,77.082l-0.152,0.179
				c-3.363,3.963-20.858,25.198-35.027,54.189c-34.721,71.063-32.531,151.294-30.413,228.884c0.501,18.364,0.975,35.71,0.969,52.96
				c0,144.016-0.018,288.031-0.036,432.044c-0.009,72.002-0.018,144.004-0.024,216.004c-0.009,86.888-2.123,179.932-17.393,271.63
				c-16.037,96.307-44.943,178.994-88.367,252.788c-59.861,101.728-128.152,157.974-141.233,168.216
				c-53.715,42.049-104.711,65.375-130.33,75.538c-71.772,28.488-132.072,33.33-154.672,34.091
				c-7.763,0.264-13.953,0.382-20.071,0.382c-22.893,0-58.224-1.508-100.567-14.553c-86.837-26.735-141.206-87.086-160.546-111.787
				c-28.655-36.628-48.445-78.677-58.821-124.979c-8.405-37.506-8.349-67.668-8.322-82.163l0.001-0.62
				c0.025-19.683,0.056-44.179,5.253-71.129c6.047-31.356,17.626-58.401,35.397-82.679c11.535-15.756,42.177-57.608,99.739-71.796
				c12.348-3.043,25.092-4.586,37.876-4.586c33.209,0.001,59.305,10.195,71.905,16.272c12.22,5.892,49.405,23.824,70.506,66.328
				c6.668,13.443,20.545,41.417,12.585,76.834c-0.106,0.472-11.088,47.388-51.481,68.249c-13.077,6.751-27.751,10.174-43.617,10.174
				c-0.083,0-0.167,0-0.251,0c15.951-22.861,22.741-47.153,20.186-72.251c-3.682-36.321-20.637-55.781-34.214-65.711
				c-13.75-10.056-30.074-15.154-48.519-15.154c-19.805,0-36.106,6.082-40.596,7.931c-42.913,17.561-59.444,60.983-66.501,79.52
				c-30.552,80.164-9.9,185.56,51.392,262.266c32.886,41.154,94.134,91.604,199.171,98.239c1.273,0.081,2.329,0.146,3.149,0.212
				c4.987,0.4,10.168,0.603,15.4,0.603c63.821,0,132.741-29.37,179.319-54.008c58.238-30.806,103.965-65.888,123.447-86.99
				c37.608-40.73,67.849-89.821,98.054-159.176c33.494-76.914,32.619-160.059,31.773-240.467
				c-0.128-12.204-0.261-24.823-0.262-37.092v-140.01c0-44.794-0.316-90.221-0.622-134.151
				c-0.417-59.896-0.848-121.831-0.479-182.742c0.098-16.192,0.285-32.779,0.465-48.82c2.117-187.985,4.307-382.369-120.679-539.949
				c-10.842-13.67-22.555-26.833-34.995-39.336c42.81-14.894,73.261-30.476,100.154-44.237
				c53.183-27.196,105.246-59.412,150.563-93.163c63.67-47.421,107.7-91.671,123.685-108.505
				C1048.431,137.986,1087.962,84.457,1121.505,25.721 M1117.494,0c-44.1,81.59-91.51,138.41-125.3,174.06
				c-8.66,9.12-53.37,55.84-121.63,106.68c-19.24,14.33-72.71,53.1-148.29,91.75c-28.65,14.66-57.79,29.42-99.22,43.75
				c-8.26,2.85-16.32,5.45-24.16,7.83c22.98,20.58,40.32,40.23,52.97,56.18c132.18,166.65,117.96,378.58,116.75,578.73
				c-0.64,105.67,1.1,211.12,1.1,316.99c0,46.67,0,93.34,0,140.01c0.01,90.77,7.01,185.77-30.18,271.17
				c-24.38,55.98-53.33,109.43-95.14,154.71c-38.838,42.066-181.953,135.852-291.01,135.852c-4.78,0-9.482-0.179-14.12-0.552
				c-16.401-1.316-119.55-2.95-191.1-92.49c-58.29-72.95-77.49-171.67-48.94-246.58c7.42-19.49,21.86-55.78,57.61-70.41
				c2.727-1.123,17.031-6.739,34.536-6.739c12.411,0,26.429,2.822,39.074,12.069c23.98,17.54,26.93,46.42,27.74,54.41
				c3.32,32.61-13.57,56.35-19.2,64.01c-5.44,7.4-11.47,13.45-17.6,18.39c10.938,2.813,21.962,4.237,32.784,4.237
				c17.988,0,35.415-3.934,50.956-11.957c46.57-24.05,59.09-76.02,59.75-78.95c9.21-40.98-6.97-73.57-13.87-87.48
				c-23.05-46.43-63.26-66.56-77.88-73.61c-9.165-4.42-39.03-17.86-78.855-17.861c-12.97,0-26.992,1.425-41.705,5.051
				c-61.95,15.27-95.4,59.55-108.82,77.88c-43.59,59.55-43.69,123.64-43.74,163.24c-0.05,28.86-0.73,126.54,70.54,217.64
				c15.08,19.26,72.36,87.64,168.44,117.22c41.212,12.697,77.004,15.261,105.274,15.261c7.4,0,14.284-0.176,20.615-0.391
				c13.38-0.45,79.66-3.31,160.03-35.21c18.1-7.18,74.39-30.92,134.29-77.81c16.77-13.13,85.45-71.23,145.16-172.7
				c97.02-164.87,107.95-346.35,107.97-532.53c0.02-216.01,0.06-432.03,0.06-648.05c0.03-90.19-13.1-191.07,27.82-274.82
				c13.69-28.01,30.55-48.15,32.85-50.86c14.57-17.2,48.93-57.97,108.07-72.05c14.621-3.482,28.626-4.917,41.779-4.918
				c51.698-0.001,90.324,22.161,102.321,29.288c149.28,88.64,114.9,300.69,114.9,445.62c0,234.36,0,468.71,0,703.07
				c0,107.73,0,215.47,0,323.2c10.15,10.25,20.36,21.38,30.47,33.45c48.93,58.44,78.18,118.34,95.98,167.33V417.35
				c-19.63-29.43-42.27-62.12-67.9-97.13c-27.34-37.34-77.22-105.13-146.17-182.44C1216.854,97.81,1172.094,50.79,1117.494,0
				L1117.494,0z"/>
		</g>
	</g>
</g>
</svg>
