<?xml version="1.0" encoding="iso-8859-1"?>
<!-- Generator: Adobe Illustrator 24.0.1, SVG Export Plug-In . SVG Version: 6.00 Build 0)  -->
<svg version="1.1" xmlns="http://www.w3.org/2000/svg" xmlns:xlink="http://www.w3.org/1999/xlink" x="0px" y="0px"
	 viewBox="0 0 1888.358 2196.62" style="enable-background:new 0 0 1888.358 2196.62;" xml:space="preserve">
<g id="Layer_5">
	<linearGradient id="SVGID_1_" gradientUnits="userSpaceOnUse" x1="1249.108" y1="1232.843" x2="1232.4413" y2="-56.0458">
		<stop  offset="0" style="stop-color:#8B1D1A"/>
		<stop  offset="0.25" style="stop-color:#550000"/>
		<stop  offset="0.5" style="stop-color:#3A0000"/>
		<stop  offset="0.75" style="stop-color:#1E0000"/>
		<stop  offset="1" style="stop-color:#000000"/>
	</linearGradient>
	<path style="fill:url(#SVGID_1_);" d="M1210.136,1771.872c-0.861-10.016-1.243-20.118-1.125-30.287c0.241-20.732,0-41.481,0-62.214
		c0-66.981,0-133.961,0-200.942c0-88.135,0-176.27,0-264.404c0-93.867,0-187.734,0-281.601c0-84.178,0-168.355,0-252.533
		c0-59.066,0-118.133,0-177.199c0-18.96,0-37.921,0-56.881c0-31.16-7.63-61.87-22.36-89.33c-17.45-32.57-35.2-58.56-49.94-78.08
		c-32.05-42.45-80.63-105.33-167.31-148.56c-29.4-14.66-57.24-24.1-81.26-30.28l-282.21,187.93c0,0,0,76.84,0,76.84
		c11.813-7.866,23.627-15.733,35.44-23.599c25.495-16.977,50.989-33.953,76.484-50.93c24.328-16.2,48.655-32.399,72.983-48.599
		c24.064-16.024,47.398-32.312,73.543-44.842c15.26-7.32,26.81-12.86,43.34-13.98c7.57-0.52,23.55-1.42,40.55,6.99
		c17.09,8.45,25.73,21.63,33.55,33.55c11.81,18,15.89,34.21,19.57,48.93c4.15,16.57,5.94,40.09,6.3,71.53v0.11v1165.82
		c7.04,2.34,14.26,5.44,21.5,9.51c29.77,16.74,44.23,41.14,50.17,51.46c13.74,23.84,16.86,45.13,19.3,61.75
		c4.85,33.05,0.82,59.01-2.57,79.76c-1.81,11.13-4.07,21.32-6.47,30.46c12.02,28.29,27.32,61.44,46.51,97.7
		c18.17,34.34,38.6,72.61,70.76,117.07c38.95,53.85,63.89,88.34,109.35,120.93c75,53.78,152.94,64.44,189.11,66.9
		c61.1,4.15,107.17-8.06,119.64-11.58c78.82-22.22,127.61-67.17,150.52-88.77c25.41-23.95,67.22-64.27,92.63-132.5
		c10.82-29.06,30.08-93.83,14.15-173.68c-4.78-23.94-23.14-109.38-100.35-174.96c-20.7-17.58-70.08-58.37-145.37-65.61
		c-63.7-6.12-111.84,15.05-132.5,24.44c-26.69,12.14-81.65,38.07-117.07,100.35c-8.98,15.77-38.77,70.17-27.02,140.22
		c4.02,23.98,12.94,77.16,60.46,110.64c51.33,36.16,109.65,22.54,123.51,19.3c19.55-4.57,65.85-15.39,88.76-57.89
		c4.36-8.08,7.24-16.14,9.11-23.79c-39.47,12.46-78.52,8.45-104.31-12.23c-29.5-23.66-37.71-66-39.88-77.19
		c-2.5-12.91-6.13-32.77,0-56.61c13.01-50.52,58.39-74.21,64.33-77.19c46.29-23.24,91.83-8.9,111.92-2.57
		c63.33,19.95,95.85,69.12,106.78,86.2c35.42,55.33,35.09,110.19,34.73,128.64c-1.63,83.2-46.71,139.7-65.61,163.39
		c-17.45,21.86-65.78,80.69-153.09,104.2c-98.43,26.51-178.65-10.11-200.69-20.58c-76.42-36.32-114.88-94.69-132.511-122.221
		C1233.695,1878.321,1214.821,1826.363,1210.136,1771.872z"/>
	<linearGradient id="SVGID_2_" gradientUnits="userSpaceOnUse" x1="325.2377" y1="1244.7897" x2="308.571" y2="-44.0992">
		<stop  offset="0" style="stop-color:#8B1D1A"/>
		<stop  offset="0.25" style="stop-color:#550000"/>
		<stop  offset="0.5" style="stop-color:#3A0000"/>
		<stop  offset="0.75" style="stop-color:#1E0000"/>
		<stop  offset="1" style="stop-color:#000000"/>
	</linearGradient>
	<path style="fill:url(#SVGID_2_);" d="M370.172,781.094V240.25c-11.89-0.45-23.8-0.17-35.65,0.82c-43.9,3.7-87,17.22-124.98,39.55
		c-32.07,18.85-61.97,46.17-70.91,82.28c-3.24,13.13-3.54,26.97-0.87,40.22c2.67,13.26,8.85,26.56,20.17,33.97
		c11.4,7.47,26.69,7.68,39.15,2.16c15.55-6.9,26.84-21.92,34.18-38.36c8.48,5.27,17.44,12.84,24.62,23.7
		c17.38,26.27,12.77,54.29,10.49,68.15c-6.59,40.04-32.41,64.65-43,74.45c-10.97,10.16-40.44,37.46-82.83,38.8
		c-68.99,2.18-111.87-66.3-117.44-75.5c-30.62-50.59-23.1-102.7-19.92-124.78c8.39-58.16,34.14-102.43,72.38-143.51
		c41.33-44.41,97.2-70.06,152.84-87.89c48.04-15.39,98.1-27.89,141.77-52.44c7.26-4.08,14.35-8.49,21.22-13.31
		c39.6-27.76,69.02-66.77,94.12-108.56v265.73v1.4c0.21,11.01,4.47,21.1,11.4,29.51c14.06,17.07,36.93,23.99,58.43,18.83
		c6.16-1.49,12.63-3.89,19.04-7.2v0.23v76.83l-80.55,53.64c-5.2,3.46-8.32,9.29-8.32,15.54v954.66
		c-0.04,51.37,2.02,94.55,4.19,126.87c4.71,69.87,10.29,93.42,13.64,105.91c12.23,45.7,30.94,79.64,38.79,92.27
		c24.5,39.41,64.41,66.09,105.42,84.08c-16.1,4.2-30.15,6.66-41.46,8.19c-33.33,4.51-68.91,8.85-104.85-9.44
		c-16.47-8.37-27.06-18.86-48.23-39.84c-28.6-28.33-36.9-43.64-66.06-79.69c-19.07-23.57-42.89-53.02-74.45-81.79
		c-33-30.08-66.46-52.11-82.83-60.81c-40.45-21.48-89.24-21.38-135.01-12.53c4.04-8.14,9.41-16.37,16.52-24.17
		c17.57-19.27,41.44-30.94,67.62-31.71c28.84-0.86,56.93,9.41,85.84,7.07c19.41-1.57,38.29-9.08,53.47-21.28
		c20.63-16.58,33.78-41,41.25-66.39c12.9-43.87,14.12-90.77,12.07-136.46l-1.26-33.13v-201.479l-0.124-2.891
		c-0.82-19.99-4.91-51.82-23.07-84.58c-8.78-15.86-18.73-28.07-29.45-38.8c10.72-10.73,20.67-22.94,29.45-38.8
		c18.16-32.76,22.25-64.59,23.07-84.58L370.172,781.094z"/>
</g>
<g id="Layer_7">
	<g>
		<path style="fill:#BFCBC2;" d="M1084.233,589.072c33.21-10.343,53.279-53.989,32.086-85.917
			c-15.323-21.288-43.674-32.633-45.94-63.382c-6.309-67.809,87.29-66.081,72.586-10.833c-0.656-48.79-69.454-30.944-50.045,16.384
			c4.741,11.211,12.718,17.096,22.713,25.969C1163.084,509.6,1143.055,583.813,1084.233,589.072z"/>
	</g>
	<g>
		<path style="fill:#BFCBC2;" d="M1104.285,320.618c-34.84,42.024-36.03,99.751-16.759,138.458
			C1050.274,416.57,1060.859,350.314,1104.285,320.618z"/>
	</g>
	<g>
		<path style="fill:#BFCBC2;" d="M1070.733,539.867c-33.17-65.954-53.131-165.821,25.855-210.742
			C1039.51,380.815,1058.49,473.208,1070.733,539.867z"/>
	</g>
	<g>
		<path style="fill:#BFCBC2;" d="M1056.026,577.574c-29.515-60.676-50.315-141.768,3.297-197.525
			C1025.694,437.97,1045.224,515.744,1056.026,577.574z"/>
	</g>
	<g>
		<path style="fill:#BFCBC2;" d="M1138.794,343.182c-15.028-2.378-34.158,16.535-18.457,33.962
			c24.727,17.551,45.99,40.336,16.884,67.888c20.269-28.716-2.499-43.828-25.812-64.157
			C1098.746,363.559,1113.825,334.252,1138.794,343.182z"/>
	</g>
	<g>
		<path style="fill:#BFCBC2;" d="M1110.561,750.683c-85.646-96.368,99.285-196.42,35.262-287.138
			C1239.918,557.176,1054.212,660.357,1110.561,750.683z"/>
	</g>
	<g>
		<path style="fill:#BFCBC2;" d="M1056.43,771.423c-23.469,45.751,44.274,59.734,14.598-54.031
			C1133.414,839.337,1010.048,831.251,1056.43,771.423z"/>
	</g>
	<g>
		<path style="fill:#BFCBC2;" d="M1139.415,783.737c13.805-12.596,36.486,12.31,14.884,27.495
			c-55.58,20.166-41.34-54.352-33.789-83.73c2.044,7.734,1.755,20.317,0.767,30.742
			C1115.531,848.042,1190.74,782.547,1139.415,783.737z"/>
	</g>
	<g>
		<path style="fill:#BFCBC2;" d="M1078.371,857.064c-17.23,44.261,73.62,32.164,17.736-48.417
			C1181.512,891.68,1045.693,917.141,1078.371,857.064z"/>
	</g>
	<g>
		<path style="fill:#BFCBC2;" d="M1116.712,1154.777c-78.195-90.117,7.583-161.428,17.804-204.482
			c17.494-54.877-44.663-58.118-38.936-5.299c-23.326-65.329,70.701-71.906,62.024,2.579
			C1134.949,1036.353,1069.403,1062.577,1116.712,1154.777z"/>
	</g>
	<g>
		<path style="fill:#BFCBC2;" d="M1034.83,943.964c-22.263,22.477,28.427,49.666,45.588-14.19
			c9.545-34.495-36.72-54.121-42.61-16.553c-5.496-48.062,75.821-32.752,53.511,29.643
			C1061.884,1012.922,1001.363,965.593,1034.83,943.964z"/>
	</g>
	<g>
		<path style="fill:#BFCBC2;" d="M1155.047,857.049c14.635-11.232,41.049,7,24.953,28.895
			c-22.698,23.024-51.211-8.355-39.908-42.939C1145.574,930.676,1212.887,853.983,1155.047,857.049z"/>
	</g>
	<g>
		<path style="fill:#BFCBC2;" d="M1211.198,575.522c-145.313,161.774-5.306,131.374-37.166,220.954
			C1189.612,732.494,1033.615,701.832,1211.198,575.522z"/>
	</g>
	<g>
		<path style="fill:#BFCBC2;" d="M1032.357,544.821c-15.657,58.046,132.193,51.423,0.802,194.131
			C1130.818,575.348,1005.885,623.3,1032.357,544.821z"/>
	</g>
	<g>
		<path style="fill:#BFCBC2;" d="M1156.002,348.046c-23.476-70.711-107.076-36.055-124.583,19.627
			C1043.662,274.568,1155.973,277.557,1156.002,348.046z"/>
	</g>
	<g>
		<path style="fill:#BFCBC2;" d="M1124.971,285.813c-23.539-60.552-85.917-10.847-98.008,29.996
			C1038.811,228.7,1126.085,235.266,1124.971,285.813z"/>
	</g>
	<g>
		<path style="fill:#BFCBC2;" d="M64.123,548.608c19.691,54.801,67.847-31.721,61.35-60.824
			c-13.297-65.893-74.987-25.207-88.775,18.231c9.949-88.95,104.635-90.746,109.256-16.65
			C140.819,572.299,62.173,598.573,64.123,548.608z"/>
	</g>
	<g>
		<path style="fill:#BFCBC2;" d="M187.555,523.051c22.682-25.236-12.153-58.685-39.589-31.356
			c-23.152,25.939-4.051,77.697,33.449,68.379c-45.769,22.867-75.683-48.974-42.945-79.398
			C174.096,445.847,225.49,493.611,187.555,523.051z"/>
	</g>
	<g>
		<path style="fill:#BFCBC2;" d="M89.111,400.235c-24.394,51.069-94.848-14.065-37.2-51.298
			c44.323-22.354,86.593,28.287,65.341,72.337c-16.144,38.42-75.112,43.137-84.115-2.662
			c47.615,73.892,111.194-56.738,30.499-53.159C24.436,378.345,57.747,436.009,89.111,400.235z"/>
	</g>
	<g>
		<path style="fill:#BFCBC2;" d="M115.674,371.51c13.684-55.038-21.086-94.811-62.23-38.436
			C83.621,258.438,150.466,311.113,115.674,371.51z"/>
	</g>
	<g>
		<path style="fill:#BFCBC2;" d="M142.268,320.823c24.45-47.125-3.056-88.981-49.912-40.558
			C128.362,215.027,188.492,267.92,142.268,320.823z"/>
	</g>
	<g>
		<path style="fill:#BFCBC2;" d="M495.697,354.186c-20.276,40.502-91.254,18.157-91.608-47.206
			c-3.232-46.198,29.246-81.437,26.241-128.305c-7.998-35.06-69.63-2.817-31.87,45.348c-65.21-49.738,31.592-122.279,56.12-48.124
			c10.654,49.401-29.164,92.287-27.01,142.063C428.082,354.406,465.203,382.167,495.697,354.186z"/>
	</g>
	<g>
		<path style="fill:#BFCBC2;" d="M540.376,321.925c-17.074,122.642-155.769,107.672-145.943,25.625
			C417.163,439.426,521.243,387.893,540.376,321.925z"/>
	</g>
	<g>
		<path style="fill:#BFCBC2;" d="M443.951,609.688c-36.613,9.671-55.857-34.085-43.711-65.022
			c11.196-37.513,48.07-57.131,55.36-95.664c6.512-57.615-74.68-40.806-48.323,11.046c-47.557-55.244,62.332-102.408,71.516-16.493
			c2.412,46.618-43.249,71.557-62.022,108.248C403.159,577.155,414.509,609.787,443.951,609.688z"/>
	</g>
	<g>
		<path style="fill:#BFCBC2;" d="M469.209,642.627c-34.898,47.486-81.265-11.033-80.61-50.565
			C400.465,626.943,433.515,675.801,469.209,642.627z"/>
	</g>
	<g>
		<path style="fill:#BFCBC2;" d="M377.844,727.496c53.639,2.215,89.098,61.325,70.472,110.777
			c-22.08,48.664-55.898,70.699-13.941,122.012c-55.368-36.024-27.143-85.644-4.501-128.612
			C445.57,791.057,420.471,740.901,377.844,727.496z"/>
	</g>
	<g>
		<path style="fill:#BFCBC2;" d="M392.941,632.078c-31.713,65.796,100.596,67.935,62.899,190.565
			C468.902,717.964,342.936,689.181,392.941,632.078z"/>
	</g>
	<g>
		<path style="fill:#BFCBC2;" d="M390.824,638.618c-11.908,28.959,102.248,36.109,69.049,137.987
			C464.673,668.984,371.835,677.187,390.824,638.618z"/>
	</g>
	<g>
		<path style="fill:#BFCBC2;" d="M1379.668,1730.001c11.1,98.216,118.29,116.512,195.557,118.818
			C1431.454,1883.329,1365.16,1791.685,1379.668,1730.001z"/>
	</g>
	<g>
		<path style="fill:#BFCBC2;" d="M1400.117,1657.39c-29.464,85.62,87.905,170.931,152.27,189.187l-1.087,1.491
			c-1.681-4.513-2.52-6.935-2.52-6.935c-0.188-0.272,3.161,4.308,5.515,7.629C1443.042,1845.329,1349.676,1730.02,1400.117,1657.39z
			"/>
	</g>
	<g>
		<path style="fill:#BFCBC2;" d="M1454.393,1565.769c-47.745,91.356-23.067,208.582,75.14,268.285
			C1416.149,1802.804,1368.621,1658.095,1454.393,1565.769z"/>
	</g>
	<g>
		<path style="fill:#BFCBC2;" d="M1524.471,1529.584c-81.344,89.203-80.302,225.209,12.905,311.944
			C1416.424,1779.338,1404.412,1605.256,1524.471,1529.584z"/>
	</g>
</g>
<g id="Layer_4">
	<g>
		<g>
			<path style="fill:#FFB400;" d="M894.683,140.859c3.715,1.132,7.411,2.322,11.085,3.567c-0.208,0.014-0.413,0.028-0.615,0.042
				c-7.601,0.515-14.428,1.658-20.759,3.244L894.683,140.859 M1013.941,202.606c11.354,8.86,22.329,18.491,33.013,28.955
				c26.019,25.482,46.125,52.114,59.432,69.738c17.34,22.963,33.075,47.566,46.779,73.144
				c11.675,21.765,17.846,46.443,17.846,71.367v56.881v177.199v252.533v281.601v264.404v200.942c0,6.984,0.028,14.05,0.054,20.882
				c0.052,13.453,0.106,27.363-0.051,40.892c-0.131,11.286,0.294,22.719,1.262,33.982c2.478,28.821,8.419,57.105,17.76,84.664
				c-7.394-13.19-14.009-25.693-20.318-37.615c-14.372-27.156-27.858-55.124-40.175-83.304c1.563-6.982,2.919-13.993,4.051-20.954
				c3.373-20.644,8.47-51.842,2.66-91.434c-2.635-17.948-6.616-45.07-23.959-75.16c-6.182-10.74-24.993-43.423-64.483-65.628
				c-0.704-0.396-1.411-0.786-2.121-1.171V343.49v-0.11v-0.218l-0.002-0.217c-0.42-36.698-2.714-61.471-7.432-80.312
				C1034.373,247.096,1029.064,225.862,1013.941,202.606 M1613.802,1534.658c6.357,0,12.795,0.309,19.132,0.918
				c23.203,2.231,45.823,8.531,67.409,18.758c-4.926-1.957-9.943-3.741-15.041-5.347c-13.268-4.181-37.966-11.963-68.193-11.963
				c-25.682,0-49.972,5.657-72.187,16.811c-11.104,5.571-67.344,36.654-84.093,101.692c-8.384,32.605-3.258,59.077-0.502,73.309
				c8.649,44.602,26.619,78.111,53.413,99.6c12.179,9.766,26.279,17.046,41.803,21.677c-7.701,2.654-14.833,4.321-20.241,5.585
				c-5.385,1.259-17.998,4.208-33.918,4.208c-22.637,0-42.507-5.911-59.055-17.569c-34.558-24.348-41.266-64.361-44.87-85.862
				c-6.4-38.155,1.403-77.966,22.575-115.148c12.633-22.213,29.881-41.434,51.264-57.131c17.685-12.982,34.312-20.958,48.498-27.411
				C1534.364,1550.163,1568.481,1534.657,1613.802,1534.658 M1825.171,1916.578c-11.388,25.069-25.126,45.241-38.555,61.539
				C1797.304,1964.294,1812.172,1943.532,1825.171,1916.578 M888.142,99.56l-282.21,187.93v76.84
				c11.813-7.866,23.627-15.733,35.44-23.599c25.495-16.977,50.989-33.953,76.484-50.93c24.328-16.2,48.655-32.399,72.983-48.599
				c24.064-16.024,47.397-32.312,73.543-44.842c15.26-7.32,26.81-12.86,43.34-13.98c2.075-0.142,4.784-0.314,7.97-0.314
				c8.439,0,20.239,1.199,32.58,7.304c17.09,8.45,25.729,21.63,33.55,33.55c11.81,18,15.89,34.21,19.57,48.93
				c4.15,16.57,5.94,40.09,6.3,71.53v0.11v1165.82c7.04,2.34,14.26,5.44,21.5,9.51c29.77,16.74,44.23,41.14,50.17,51.46
				c13.74,23.84,16.86,45.13,19.3,61.75c4.85,33.05,0.82,59.01-2.57,79.76c-1.81,11.13-4.07,21.32-6.47,30.46
				c12.02,28.29,27.32,61.44,46.51,97.7c18.17,34.34,38.6,72.61,70.76,117.07c38.95,53.85,63.89,88.34,109.35,120.93
				c75,53.78,152.94,64.44,189.11,66.9c8.697,0.591,17.091,0.85,25.125,0.85c48.411,0,83.82-9.411,94.515-12.43
				c78.82-22.22,127.61-67.17,150.52-88.77c25.41-23.95,67.22-64.27,92.63-132.5c10.82-29.06,30.08-93.83,14.15-173.68
				c-4.781-23.94-23.14-109.38-100.35-174.96c-20.7-17.58-70.08-58.37-145.37-65.61c-7.83-0.752-15.43-1.092-22.768-1.092
				c-52.356-0.001-91.612,17.297-109.732,25.532c-26.69,12.14-81.65,38.07-117.071,100.35c-8.979,15.77-38.77,70.17-27.02,140.22
				c4.02,23.98,12.94,77.16,60.46,110.64c27.629,19.464,57.285,24.505,80.941,24.505c20.292,0,36.169-3.709,42.569-5.205
				c19.55-4.57,65.85-15.39,88.76-57.89c4.36-8.08,7.24-16.14,9.11-23.79c-14.895,4.702-29.733,7.059-43.818,7.059
				c-23.239,0-44.435-6.413-60.492-19.289c-29.5-23.66-37.709-66-39.88-77.19c-2.5-12.91-6.13-32.77,0-56.61
				c13.01-50.52,58.39-74.21,64.33-77.19c19.085-9.582,38.048-12.776,55.147-12.776c24.374,0,44.966,6.486,56.773,10.206
				c63.33,19.95,95.85,69.12,106.78,86.2c35.42,55.33,35.09,110.19,34.73,128.64c-1.63,83.2-46.71,139.7-65.61,163.39
				c-17.45,21.86-65.781,80.69-153.09,104.2c-25.244,6.799-49.293,9.446-71.468,9.446c-64.286,0-112.835-22.241-129.223-30.026
				c-76.42-36.32-114.88-94.69-132.511-122.221c-29.796-46.538-48.67-98.496-53.354-152.987
				c-0.861-10.016-1.243-20.118-1.125-30.287c0.241-20.732,0-41.481,0-62.214c0-66.981,0-133.961,0-200.942
				c0-88.135,0-176.27,0-264.404c0-93.867,0-187.734,0-281.601c0-84.177,0-168.355,0-252.533c0-59.066,0-118.133,0-177.199
				c0-18.96,0-37.921,0-56.881c0-31.16-7.63-61.87-22.36-89.33c-17.45-32.57-35.2-58.56-49.94-78.08
				c-32.05-42.45-80.63-105.33-167.31-148.56C940.001,115.18,912.162,105.74,888.142,99.56L888.142,99.56z"/>
		</g>
	</g>
	<g>
		<g>
			<path style="fill:#FFB400;" d="M447.512,111.347V265.73v1.4v0.362l0.007,0.362c0.365,19.153,7.304,37.463,20.062,52.945
				c16.964,20.596,41.827,32.903,68.801,34.224v9.957l-63.601,42.353c-15.823,10.528-25.269,28.165-25.269,47.177v954.63
				c-0.034,43.14,1.405,86.692,4.276,129.456c4.588,68.064,10.082,95.418,14.846,113.178
				c14.374,53.711,36.718,92.038,43.226,102.509c7.908,12.721,17.305,24.684,28.16,35.866c-6.947-1.525-13.386-3.832-19.563-6.975
				c-10.666-5.42-17.789-12.234-38.704-32.961c-17.386-17.222-26.087-28.621-39.256-45.875c-6.626-8.681-14.136-18.52-24.004-30.72
				l-0.051-0.063c-19.906-24.603-44.679-55.223-78.342-85.909c-26.409-24.072-53.031-43.402-73.043-56.001
				c0.89-0.055,1.773-0.118,2.648-0.188c26.86-2.173,53.215-12.662,74.211-29.537c24.683-19.837,43.321-49.328,53.902-85.29
				c15.555-52.9,15.437-107.241,13.583-148.713l-1.229-32.323v-200.753v-0.812l-0.035-0.812l-0.124-2.891h0
				c-1.516-36.728-10.869-70.837-27.79-101.361c-3.962-7.157-8.214-13.905-12.87-20.395c4.653-6.486,8.902-13.229,12.859-20.377
				c16.941-30.561,26.295-64.692,27.803-101.446l0.008-0.205l0.006-0.205l0.124-4.096l0.017-0.573v-0.573V240.25v-36.588
				l-36.562-1.384c-4.134-0.157-8.333-0.236-12.482-0.236c-9.209,0-18.553,0.39-27.797,1.163
				c-49.709,4.19-98.483,19.632-141.044,44.656c-47.714,28.045-78.33,64.667-88.548,105.936
				c-4.566,18.505-4.991,38.156-1.229,56.825c5.13,25.475,18.131,46.167,36.596,58.254c12.188,7.986,26.67,12.207,41.879,12.207
				c11.441,0,23.021-2.451,33.51-7.098c6.292-2.792,12.262-6.346,17.871-10.617c0.92,8.557-0.442,16.837-1.489,23.202
				c-4.612,28.021-24.011,45.973-31.331,52.747c-8.983,8.32-30.019,27.803-58.202,28.694c-0.676,0.021-1.356,0.032-2.022,0.032
				c-45.743,0-78.167-51.374-81.711-57.227c-23.566-38.936-17.66-79.95-14.818-99.678c6.589-45.678,25.891-83.626,62.587-123.048
				c30.59-32.87,74.002-57.525,136.616-77.59c9.382-3.005,19.131-5.986,28.56-8.869c40.183-12.285,81.733-24.989,120.233-46.632
				c8.597-4.832,16.816-9.989,24.416-15.321C425.092,131.343,436.479,121.956,447.512,111.347 M485.512,0
				c-25.1,41.79-54.52,80.8-94.12,108.56c-6.87,4.82-13.96,9.23-21.22,13.31c-43.67,24.55-93.73,37.05-141.77,52.44
				c-55.64,17.83-111.51,43.48-152.84,87.89c-38.24,41.08-63.99,85.35-72.38,143.51c-3.18,22.08-10.7,74.19,19.92,124.78
				c5.483,9.056,47.114,75.551,114.22,75.551c1.065,0,2.142-0.017,3.22-0.051c42.39-1.34,71.86-28.64,82.83-38.8
				c10.59-9.8,36.41-34.41,43-74.45c2.28-13.86,6.89-41.88-10.49-68.15c-7.18-10.86-16.14-18.43-24.62-23.7
				c-7.34,16.44-18.63,31.46-34.18,38.36c-5.659,2.507-11.901,3.832-18.097,3.832c-7.448,0-14.83-1.915-21.053-5.992
				c-11.32-7.41-17.5-20.71-20.17-33.97c-2.67-13.25-2.37-27.09,0.87-40.22c8.94-36.11,38.84-63.43,70.91-82.28
				c37.98-22.33,81.08-35.85,124.98-39.55c8.182-0.684,16.392-1.029,24.606-1.029c3.682,0,7.364,0.069,11.044,0.209v540.844
				l-0.124,4.096c-0.82,19.99-4.91,51.82-23.07,84.58c-8.78,15.86-18.73,28.07-29.45,38.8c10.72,10.73,20.67,22.94,29.45,38.8
				c18.16,32.76,22.25,64.59,23.07,84.58l0.124,2.891v201.479l1.26,33.13c2.05,45.69,0.83,92.59-12.07,136.46
				c-7.47,25.39-20.62,49.81-41.25,66.39c-15.18,12.2-34.06,19.71-53.47,21.28c-2.97,0.24-5.93,0.348-8.884,0.348
				c-24.644,0-48.802-7.469-73.466-7.469c-1.161,0-2.326,0.017-3.49,0.051c-26.18,0.77-50.05,12.44-67.62,31.71
				c-7.11,7.8-12.48,16.03-16.52,24.17c17.974-3.475,36.409-5.601,54.627-5.601c28.173,0,55.818,5.086,80.383,18.131
				c16.37,8.7,49.83,30.73,82.83,60.81c31.56,28.77,55.38,58.22,74.45,81.79c29.16,36.05,37.46,51.36,66.06,79.69
				c21.17,20.98,31.76,31.47,48.23,39.84c20.106,10.232,40.095,13.381,59.645,13.381c15.395,0,30.521-1.954,45.205-3.941
				c11.31-1.53,25.36-3.99,41.46-8.19c-41.01-17.99-80.92-44.67-105.42-84.08c-7.85-12.63-26.56-46.57-38.79-92.27
				c-3.35-12.49-8.93-36.04-13.64-105.91c-2.17-32.32-4.23-75.5-4.19-126.87V454.51c0-6.25,3.12-12.08,8.32-15.54l80.55-53.64V308.5
				v-0.23c-6.41,3.31-12.88,5.71-19.04,7.2c-4.674,1.122-9.409,1.672-14.109,1.672c-16.915,0-33.318-7.144-44.321-20.502
				c-6.93-8.41-11.19-18.5-11.4-29.51v-1.4V0L485.512,0z"/>
		</g>
	</g>
</g>
<g id="Layer_6">
	<g>
		<g>
			<path style="fill:#480000;" d="M605.93,253.028c-16.073,0-29.15-13.076-29.15-29.149s13.077-29.15,29.15-29.15
				s29.15,13.077,29.15,29.15S622.004,253.028,605.93,253.028z"/>
			<path style="fill:#480000;" d="M605.93,201.229c12.489,0,22.65,10.161,22.65,22.65s-10.161,22.65-22.65,22.65
				c-12.489,0-22.65-10.161-22.65-22.65S593.441,201.229,605.93,201.229 M605.93,188.229c-19.689,0-35.65,15.961-35.65,35.65
				s15.961,35.65,35.65,35.65c19.689,0,35.65-15.961,35.65-35.65S625.619,188.229,605.93,188.229L605.93,188.229z"/>
		</g>
	</g>
	<g>
		<g>
			<path style="fill:#480000;" d="M605.93,1562.31c-16.073,0-29.15-13.076-29.15-29.149s13.077-29.15,29.15-29.15
				s29.15,13.077,29.15,29.15S622.004,1562.31,605.93,1562.31z"/>
			<path style="fill:#480000;" d="M605.93,1510.51c12.489,0,22.65,10.161,22.65,22.65c0,12.489-10.161,22.65-22.65,22.65
				c-12.489,0-22.65-10.161-22.65-22.65C583.281,1520.671,593.441,1510.51,605.93,1510.51 M605.93,1497.51
				c-19.689,0-35.65,15.961-35.65,35.65c0,19.689,15.961,35.65,35.65,35.65c19.689,0,35.65-15.961,35.65-35.65
				C641.58,1513.471,625.619,1497.51,605.93,1497.51L605.93,1497.51z"/>
		</g>
	</g>
	<g>
		<g>
			<rect x="601.432" y="230.38" style="fill:#480000;" width="9" height="1296.28"/>
			<polygon style="fill:#480000;" points="616.932,223.88 594.932,223.88 594.932,1533.16 616.932,1533.16 616.932,223.88 			"/>
		</g>
	</g>
	<g>
		<g>
			<path style="fill:#480000;" d="M1548.819,2190.12c-26.348-0.39-52.879-2.827-78.871-7.243
				c-27.546-4.694-92.059-15.688-155.192-53.59c-36.997-22.216-68.516-51-105.392-96.244
				c-63.682-78.148-118.17-174.292-161.95-285.758l-0.511-1.302l0.315-1.36c13.749-59.222,10.606-101.734-10.188-137.847
				c-5.242-9.109-19.167-33.305-48.476-49.784c-9.421-5.294-19.571-9.291-30.171-11.881l-3.433-0.838l-0.001-1238.657
				c-0.882-27.694-6.638-45.911-18.115-57.33c-4.252-4.229-13.092-13.022-26.099-14.81c-0.893-0.123-1.863-0.186-2.882-0.186
				c-8.075,0-20.673,4.07-31.349,10.127l-0.202,0.114L608.426,421.906c-0.743,0.494-1.602,0.756-2.485,0.756
				c-1.514,0-2.917-0.75-3.755-2.007c-0.666-1-0.903-2.201-0.667-3.379c0.236-1.178,0.917-2.194,1.917-2.86l268.144-178.549
				l0.289-0.164c9.668-5.518,24.197-11.403,36.028-11.403c1.43,0,2.797,0.088,4.064,0.262c15.994,2.199,26.663,12.812,31.219,17.344
				c13.235,13.168,19.836,33.39,20.771,63.641l-0.001,1231.619l4.557,1.427c8.511,2.667,16.739,6.218,24.457,10.555
				c31.463,17.691,46.285,43.442,51.865,53.136c27.838,48.349,20.989,100.783,11.913,141.063l-0.441,1.956l0.738,1.864
				c43.224,109.248,96.82,203.519,159.3,280.193c36.181,44.39,66.999,72.565,103.048,94.213
				c61.683,37.029,125.021,47.823,152.069,52.433c25.537,4.34,51.604,6.733,77.481,7.116c2.48,0.037,4.469,2.086,4.433,4.567
				c-0.036,2.444-2.054,4.433-4.497,4.433H1548.819z"/>
			<path style="fill:#480000;" d="M907.898,217.799c-12.989,0-28.38,6.054-39.234,12.248l-0.491,0.278L599.835,409.004
				c-5.056,3.367-6.426,10.196-3.059,15.253c2.119,3.183,5.609,4.905,9.166,4.905c2.094,0,4.213-0.597,6.087-1.845l267.685-178.244
				c9.75-5.532,21.262-9.281,28.141-9.281c0.718,0,1.387,0.041,1.997,0.125c10.854,1.492,18.363,8.963,22.4,12.978
				c10.226,10.175,15.377,26.996,16.202,52.929l-0.002,1243.554l8.389,2.049c10.025,2.449,19.624,6.229,28.528,11.232
				c27.753,15.604,41.029,38.675,46.028,47.361c19.91,34.577,22.837,75.637,9.489,133.133l-0.773,3.328l1.25,3.181
				c44.026,112.093,98.854,208.817,162.962,287.488c37.379,45.862,69.404,75.084,107.084,97.711
				c64.183,38.53,129.537,49.668,157.449,54.425c26.318,4.472,53.183,6.939,79.849,7.334c0.056,0.001,0.111,0.001,0.166,0.001
				c5.999,0,10.907-4.818,10.996-10.837c0.09-6.075-4.761-11.072-10.836-11.162c-25.544-0.378-51.278-2.741-76.485-7.024
				c-26.687-4.548-89.182-15.198-149.814-51.598c-35.368-21.238-65.68-48.977-101.355-92.747
				c-62.067-76.168-115.315-169.848-158.295-278.479c9.502-42.168,15.966-96.086-12.619-145.73
				c-5.823-10.117-21.291-36.993-54.315-55.563c-8.135-4.572-16.749-8.287-25.698-11.091V306.162l0.004-0.606l-0.006-0.21
				c-0.99-32.013-8.197-53.635-22.683-68.048c-5.018-4.991-16.768-16.68-34.92-19.175
				C911.248,217.902,909.594,217.799,907.898,217.799L907.898,217.799z"/>
		</g>
	</g>
	<g>
		<path style="fill:#480000;" d="M890.998,116.881c24.651,6.811,48.591,15.972,71.263,27.277
			c36.873,18.389,69.612,41.838,100.087,71.685c27.193,26.632,47.896,54.053,61.595,72.198
			c18.022,23.867,34.375,49.435,48.609,76.001c13.385,24.952,20.459,53.226,20.459,81.767v56.881v177.199v252.533v281.601v264.404
			v200.942c0,6.942,0.027,13.985,0.053,20.797c0.052,13.536,0.107,27.533-0.052,41.231c-0.123,10.575,0.275,21.289,1.183,31.843
			c4.814,55.996,23.594,109.91,55.822,160.245c17.059,26.638,57.008,89.02,139.119,128.045
			c44.103,20.951,89.889,31.574,136.088,31.574c25.556,0,51.001-3.363,75.628-9.996c94.123-25.345,144.786-88.812,161.439-109.674
			c20.157-25.265,67.361-84.431,69.097-173.053c0.997-51.121-11.537-97.409-37.25-137.576
			c-30.031-46.93-68.874-78.165-115.448-92.836c-12.14-3.825-34.738-10.946-61.581-10.946c-22.223,0-43.192,4.871-62.321,14.474
			c-9.61,4.821-58.28,31.698-72.652,87.507c-7.151,27.808-2.637,51.115-0.211,63.641c7.629,39.344,22.964,68.489,45.578,86.626
			c18.607,14.92,42.986,22.806,70.501,22.806c5.655,0,11.373-0.333,17.131-0.996c-8.263,12.614-20.114,22.899-35.314,30.634
			c-15.154,7.71-30.398,11.273-39.511,13.404c-6.125,1.432-20.47,4.785-38.927,4.785c-27.263,0-51.395-7.262-71.726-21.584
			c-42.066-29.638-50.056-77.3-53.896-100.207c-7.247-43.207,1.448-88.042,25.148-129.663
			c33.571-59.029,86.98-83.322,109.782-93.694c15.866-7.211,53.022-24.099,103.112-24.098c7.055,0,14.2,0.343,21.237,1.019
			c71.814,6.906,118.841,46.844,136.543,61.878c48.76,41.416,81.616,98.782,95.017,165.896
			c13.832,69.333,0.319,127.978-13.453,164.966c-24.631,66.138-66.251,105.366-88.613,126.442
			c-20.125,18.975-67.255,63.409-143.891,85.014c-15.648,4.417-48.171,11.828-90.167,11.828c-8.007,0-16.096-0.273-24.041-0.813
			c-25.791-1.754-51.568-6.332-76.617-13.606c-37.989-11.033-73.066-27.968-104.257-50.333
			c-43.329-31.063-66.794-63.504-105.67-117.25l-0.039-0.054c-32.177-44.483-52.917-83.68-69.582-115.177
			c-15.772-29.802-30.498-60.567-43.812-91.527c2.164-8.819,3.984-17.735,5.421-26.57c3.342-20.458,7.92-48.476,2.605-84.691
			c-2.535-17.268-6.007-40.916-21.259-67.38c-6.011-10.444-21.978-38.184-56.197-57.426c-4.316-2.426-8.777-4.627-13.341-6.584
			V343.49v-0.11v-0.091l-0.001-0.092c-0.4-34.908-2.49-58.111-6.776-75.227c-3.731-14.922-8.373-33.492-21.729-53.849
			c-8.395-12.796-18.843-28.721-39.819-39.092c-12.022-5.947-25.37-8.963-39.674-8.963c-3.476,0-6.412,0.169-9.052,0.35
			c-19.598,1.328-33.306,7.904-49.173,15.515c-24.101,11.55-45.937,26.171-67.053,40.31c-2.808,1.88-5.621,3.764-8.444,5.643
			l-72.983,48.599l-19.154,12.755l-57.329,38.175l-10.572,7.04v-38.395L890.998,116.881 M888.142,99.56l-282.21,187.93v76.84
			c11.813-7.867,23.627-15.733,35.44-23.599c25.494-16.977,50.989-33.953,76.483-50.93c24.328-16.199,48.655-32.399,72.983-48.599
			c24.064-16.024,47.398-32.312,73.543-44.842c15.26-7.32,26.81-12.86,43.34-13.98c2.075-0.142,4.784-0.314,7.97-0.314
			c8.439,0,20.239,1.199,32.58,7.304c17.09,8.45,25.73,21.63,33.55,33.55c11.81,18,15.89,34.21,19.57,48.93
			c4.15,16.57,5.94,40.09,6.3,71.53v0.11v1165.82c7.04,2.34,14.26,5.44,21.5,9.51c29.77,16.74,44.23,41.14,50.17,51.46
			c13.74,23.84,16.86,45.13,19.3,61.75c4.85,33.05,0.82,59.01-2.57,79.76c-1.81,11.13-4.07,21.32-6.47,30.46
			c12.02,28.29,27.32,61.44,46.51,97.7c18.17,34.34,38.6,72.61,70.76,117.07c38.95,53.85,63.89,88.34,109.35,120.93
			c75,53.78,152.94,64.44,189.11,66.9c8.697,0.59,17.092,0.85,25.126,0.85c48.411,0,83.818-9.411,94.514-12.43
			c78.82-22.22,127.61-67.17,150.52-88.77c25.41-23.95,67.22-64.27,92.63-132.5c10.82-29.06,30.08-93.83,14.15-173.68
			c-4.78-23.94-23.14-109.38-100.35-174.96c-20.7-17.58-70.08-58.37-145.37-65.61c-7.83-0.752-15.43-1.092-22.768-1.092
			c-52.356-0.001-91.612,17.297-109.732,25.532c-26.69,12.14-81.65,38.07-117.07,100.35c-8.98,15.77-38.77,70.17-27.02,140.22
			c4.02,23.98,12.94,77.16,60.46,110.64c27.629,19.464,57.285,24.505,80.941,24.505c20.292,0,36.169-3.709,42.569-5.205
			c19.55-4.57,65.85-15.39,88.76-57.89c4.36-8.08,7.24-16.14,9.11-23.79c-14.895,4.702-29.733,7.059-43.818,7.059
			c-23.239,0-44.435-6.413-60.492-19.289c-29.5-23.66-37.71-66-39.88-77.19c-2.5-12.91-6.13-32.77,0-56.61
			c13.01-50.52,58.39-74.21,64.33-77.19c19.085-9.582,38.048-12.776,55.147-12.776c24.374,0,44.966,6.486,56.773,10.206
			c63.33,19.95,95.85,69.12,106.78,86.2c35.42,55.33,35.09,110.19,34.73,128.64c-1.63,83.2-46.71,139.7-65.61,163.39
			c-17.45,21.86-65.78,80.69-153.09,104.2c-25.244,6.799-49.293,9.446-71.468,9.446c-64.286,0-112.835-22.241-129.223-30.026
			c-76.42-36.32-114.88-94.69-132.511-122.221c-29.796-46.538-48.67-98.496-53.354-152.987c-0.861-10.016-1.243-20.118-1.125-30.287
			c0.241-20.732,0-41.481,0-62.214c0-66.981,0-133.961,0-200.942c0-88.135,0-176.27,0-264.404c0-93.867,0-187.734,0-281.601
			c0-84.178,0-168.355,0-252.533c0-59.066,0-118.133,0-177.199c0-18.96,0-37.921,0-56.881c0-31.16-7.63-61.87-22.36-89.33
			c-17.45-32.57-35.2-58.56-49.94-78.08c-32.05-42.45-80.63-105.33-167.31-148.56C940.002,115.18,912.162,105.74,888.142,99.56
			L888.142,99.56z"/>
	</g>
	<g>
		<path style="fill:#480000;" d="M469.512,52.845V265.73v1.4v0.153l0.003,0.152c0.27,14.142,5.474,27.759,15.047,39.377
			c13.782,16.733,34.438,26.33,56.671,26.33c5.749,0,11.506-0.654,17.149-1.951v45.571l-73.413,48.888
			c-9.678,6.44-15.457,17.229-15.457,28.861v954.648c-0.033,42.645,1.389,85.695,4.226,127.958
			c4.461,66.175,9.656,92.224,14.148,108.97c13.591,50.785,34.555,86.763,40.658,96.581c16.432,26.433,40.232,49.385,71.024,68.554
			c-13.629,1.805-26.141,3.21-38.68,3.21c-20.136,0-36.782-3.699-52.397-11.645c-14.246-7.24-23.638-16.548-44.219-36.944
			c-18.468-18.294-28.029-30.82-41.263-48.157c-6.537-8.565-13.947-18.273-23.618-30.229l-0.051-0.063
			c-19.438-24.025-43.63-53.926-76.059-83.488c-36.048-32.858-71.082-55.133-86.104-63.116c-24.99-13.271-54.559-20-87.887-20
			c-6.015,0-12.182,0.22-18.479,0.659c13.822-11.77,30.693-18.422,48.47-18.945c0.982-0.03,1.995-0.044,3.012-0.044
			c11.118,0,22.392,1.725,34.329,3.552c12.587,1.926,25.602,3.917,39.138,3.917c3.472,0,6.895-0.134,10.174-0.4
			c22.514-1.821,44.605-10.614,62.203-24.757c21.166-17.01,37.271-42.719,46.577-74.348
			c14.652-49.827,14.489-101.865,12.706-141.642l-1.246-32.765v-201.175v-0.341l-0.015-0.341l-0.122-2.865
			c-1.366-33.3-9.799-64.146-25.059-91.673c-6.208-11.214-13.226-21.32-21.611-31.051c8.385-9.731,15.403-19.836,21.607-31.043
			c15.264-27.536,23.697-58.382,25.063-91.681l0.003-0.087l0.003-0.087l0.123-4.096l0.007-0.241v-0.241V240.25v-15.406
			l-15.395-0.583c-3.861-0.146-7.78-0.22-11.649-0.22c-8.6,0-17.327,0.365-25.949,1.085c-46.446,3.915-92.003,18.334-131.744,41.7
			c-42.492,24.975-69.579,56.868-78.336,92.24c-3.794,15.374-4.147,31.701-1.021,47.212c5.073,25.193,17.533,37.941,27.086,44.194
			c8.595,5.632,18.908,8.609,29.822,8.609c8.396,0,16.895-1.799,24.587-5.207c12.524-5.557,23.549-15.306,32.5-28.618
			c2.394,2.543,4.552,5.266,6.466,8.161c13.917,21.036,10.098,44.251,8.046,56.723c-5.838,35.468-29.262,57.145-38.089,65.315
			c-9.861,9.132-36.053,33.391-72.457,34.542c-0.908,0.029-1.822,0.043-2.716,0.043c-56.596,0-93.675-56.51-100.532-67.836
			C9.147,476.534,16.062,428.52,19.018,407.995c7.269-50.389,28.32-91.991,68.257-134.894
			c33.262-35.741,79.658-62.291,146.009-83.553c9.521-3.05,19.342-6.053,28.84-8.957c39.064-11.943,79.458-24.293,115.887-44.772
			c7.962-4.474,15.556-9.238,22.566-14.157C425.233,104.377,447.717,82.007,469.512,52.845 M485.512,0
			c-25.1,41.79-54.52,80.8-94.12,108.56c-6.87,4.82-13.96,9.23-21.22,13.31c-43.67,24.55-93.73,37.05-141.77,52.44
			c-55.64,17.83-111.51,43.48-152.84,87.89c-38.24,41.08-63.99,85.35-72.38,143.51c-3.18,22.08-10.7,74.19,19.92,124.78
			c5.483,9.056,47.114,75.551,114.22,75.551c1.065,0,2.142-0.017,3.22-0.051c42.39-1.34,71.86-28.64,82.83-38.8
			c10.59-9.8,36.41-34.41,43-74.45c2.28-13.86,6.89-41.88-10.49-68.15c-7.18-10.86-16.14-18.43-24.62-23.7
			c-7.34,16.44-18.63,31.46-34.18,38.36c-5.659,2.507-11.901,3.832-18.097,3.832c-7.448,0-14.83-1.915-21.053-5.992
			c-11.32-7.41-17.5-20.71-20.17-33.97c-2.67-13.25-2.37-27.09,0.87-40.22c8.94-36.11,38.84-63.43,70.91-82.28
			c37.98-22.33,81.08-35.85,124.98-39.55c8.182-0.684,16.392-1.029,24.606-1.029c3.682,0,7.364,0.069,11.044,0.209v540.844
			l-0.123,4.096c-0.82,19.99-4.91,51.82-23.07,84.58c-8.78,15.86-18.73,28.07-29.45,38.8c10.72,10.73,20.67,22.94,29.45,38.8
			c18.16,32.76,22.25,64.59,23.07,84.58l0.123,2.891v201.479l1.26,33.13c2.05,45.69,0.83,92.59-12.07,136.46
			c-7.47,25.39-20.62,49.81-41.25,66.39c-15.18,12.2-34.06,19.71-53.47,21.28c-2.97,0.24-5.929,0.348-8.883,0.348
			c-24.644,0-48.803-7.469-73.467-7.469c-1.161,0-2.326,0.017-3.489,0.051c-26.18,0.77-50.05,12.44-67.62,31.71
			c-7.11,7.8-12.48,16.03-16.52,24.17c17.974-3.475,36.409-5.601,54.627-5.601c28.173,0,55.818,5.086,80.383,18.131
			c16.37,8.7,49.83,30.73,82.83,60.81c31.56,28.77,55.38,58.22,74.45,81.79c29.16,36.05,37.46,51.36,66.06,79.69
			c21.17,20.98,31.76,31.47,48.23,39.84c20.106,10.232,40.095,13.381,59.645,13.381c15.395,0,30.521-1.954,45.205-3.941
			c11.31-1.53,25.36-3.99,41.46-8.19c-41.01-17.99-80.92-44.67-105.42-84.08c-7.85-12.63-26.56-46.57-38.79-92.27
			c-3.35-12.49-8.93-36.04-13.64-105.91c-2.17-32.32-4.23-75.5-4.19-126.87V454.51c0-6.25,3.12-12.08,8.32-15.54l80.55-53.64V308.5
			v-0.23c-6.41,3.31-12.88,5.71-19.04,7.2c-4.674,1.122-9.409,1.672-14.109,1.672c-16.915,0-33.318-7.144-44.321-20.502
			c-6.93-8.41-11.19-18.5-11.4-29.51v-1.4V0L485.512,0z"/>
	</g>
	<g>
		<g>
			<path style="fill:#480000;" d="M201.338,1456.091c-2.242,0-4.154-1.683-4.448-3.913c-0.324-2.46,1.413-4.725,3.873-5.049
				c5.45-0.719,11.299-1.053,18.408-1.053c4.631,0,9.3,0.141,13.816,0.277c4.74,0.143,9.146,0.274,13.583,0.274
				c3.319,0,6.296-0.076,9.102-0.231c31.649-1.743,53.361-20.552,62.785-54.395c14.9-53.514,13.639-106.917,12.305-163.456
				c-0.364-15.402-0.74-31.329-0.74-47.026l-0.004-149.465l-0.006-0.137c-1.26-29.994-8.831-57.706-22.5-82.366
				c-7.689-13.889-16.809-25.901-28.698-37.801l-3.178-3.181l3.178-3.18c11.891-11.902,21.01-23.913,28.697-37.799
				c13.686-24.689,21.258-52.436,22.505-82.467l0.006-0.27V293.891l-11.011,10.614c-2.574,2.481-13.96,13.431-17.017,16.375
				c-8.091,7.794-17.62,13.93-29.989,19.31l-7.383,3.211l4.695,6.54c18.206,25.363,29.996,53.402,35.042,83.341
				c2.873,17.007,11.612,68.75-18.375,120.436c-23.683,40.843-59.297,59.542-71,65.686c-13.489,7.088-41.553,21.834-78.376,21.835
				c-6.59,0-13.247-0.483-19.785-1.436c-32.669-4.774-55.894-20.302-65.812-26.932c-15.435-10.309-29.181-22.971-40.86-37.638
				c-0.749-0.94-1.087-2.116-0.951-3.31c0.135-1.194,0.728-2.265,1.668-3.013c1.018-0.811,2.082-0.981,2.796-0.981
				c1.383,0,2.668,0.619,3.527,1.698c11.099,13.938,24.159,25.969,38.819,35.761c9.413,6.292,31.458,21.03,62.112,25.51
				c6.014,0.876,12.155,1.32,18.255,1.32c34.871,0,61.569-14.028,74.4-20.77c12.32-6.468,45.041-23.647,67.421-62.244
				c28.356-48.876,20.024-98.211,17.286-114.423c-5.156-30.588-17.684-59.073-37.236-84.66l-2.728-3.57l-4.303,1.29
				c-8.107,2.43-16.428,4.166-24.732,5.158c-1.956,0.236-3.668,0.395-4.787,0.494l-0.12,0.009c-0.675,0.049-1.312,0.075-1.896,0.075
				c-0.192,0-0.382-0.002-0.569-0.008l-0.173-0.008c-5.922-0.31-11.497-2.879-15.632-7.232c-4.162-4.355-6.447-10.071-6.447-16.108
				c0-6.207,2.471-12.078,6.958-16.531c4.451-4.417,10.294-6.85,16.453-6.85l0.146,0c3.799,0.029,7.516,0.994,10.786,2.791
				c3.102,1.706,5.553,3.98,7.997,6.357c0.89,0.867,1.798,1.717,2.706,2.567l0.082,0.077c1.149,1.077,2.338,2.19,3.498,3.341
				c3.407,3.382,6.762,6.94,9.971,10.577l3.002,3.402l4.229-1.645c9.682-3.766,22.189-9.433,33.063-19.908l8.72-8.391
				c11.805-11.353,21.13-20.319,26.813-26.212l7.738-8.023l-0.023,513.98c-1.34,31.346-9.285,60.347-23.615,86.199
				c-6.477,11.699-14.013,22.252-23.042,32.265l-3.925,4.353l3.925,4.353c9.029,10.013,16.567,20.568,23.043,32.268
				c14.378,25.938,22.327,55.043,23.627,86.511l0.006,0.302l0.004,29.402v120.114c0,15.558,0.374,31.414,0.735,46.748
				c1.293,54.775,2.629,111.347-12.63,166.149c-10.406,37.368-35.606,59.02-70.958,60.966c-2.959,0.165-6.101,0.245-9.609,0.245
				c-4.671,0-9.334-0.142-13.843-0.279c-4.702-0.142-9.129-0.274-13.596-0.274c-6.66,0-12.119,0.31-17.18,0.977
				C201.738,1456.077,201.536,1456.091,201.338,1456.091z M220.214,315.839c-3.729,0-7.299,1.505-10.053,4.237
				c-2.772,2.751-4.299,6.354-4.299,10.144c0,3.71,1.407,7.227,3.963,9.901c2.477,2.607,5.818,4.189,9.396,4.44l0.237,0.016l0.238,0
				c0.242-0.001,0.693-0.013,1.186-0.048l0.115-0.009c1.599-0.142,3.043-0.292,4.417-0.457c4.342-0.519,8.735-1.262,13.05-2.208
				l11.416-2.502l-8.147-8.378c-0.855-0.879-1.718-1.75-2.584-2.611c-1.047-1.039-2.146-2.07-3.31-3.161
				c-1.008-0.944-1.97-1.845-2.915-2.764c-1.981-1.927-3.936-3.754-6.054-4.919c-1.969-1.081-4.21-1.661-6.486-1.678
				L220.214,315.839z"/>
			<path style="fill:#480000;" d="M345.522,255.669l-18.918,19.615c-5.593,5.8-14.881,14.732-26.64,26.04
				c-2.754,2.649-5.664,5.447-8.724,8.395c-9.425,9.079-20.495,14.479-30.91,18.531c-3.307-3.748-6.746-7.397-10.265-10.89
				c-1.242-1.233-2.481-2.392-3.678-3.514c-0.89-0.833-1.78-1.666-2.654-2.517c-2.664-2.591-5.584-5.296-9.397-7.394
				c-4.212-2.314-8.994-3.557-13.832-3.594c-0.077-0.001-0.153-0.001-0.23-0.001c-7.888,0-15.349,3.097-21.031,8.736
				c-5.726,5.683-8.88,13.192-8.879,21.145c0,7.718,2.932,15.038,8.234,20.585c5.286,5.565,12.415,8.85,20.073,9.25l0.254,0.011
				c0.25,0.007,0.503,0.011,0.759,0.011c0.751,0,1.538-0.031,2.42-0.096l0.171-0.014c1.161-0.103,2.942-0.268,4.984-0.515
				c8.695-1.04,17.352-2.846,25.827-5.386c18.912,24.75,31.008,52.23,35.992,81.795c2.641,15.64,10.681,63.233-16.5,110.081
				c-21.44,36.976-52.939,53.513-64.819,59.75c-12.103,6.359-38.11,20.025-71.38,20.025c-5.577,0-11.362-0.384-17.315-1.251
				c-29.203-4.268-50.39-18.432-59.441-24.483c-14.101-9.417-26.665-20.993-37.345-34.404c-2.172-2.728-5.377-4.149-8.612-4.149
				c-2.401,0-4.82,0.783-6.845,2.396c-4.752,3.784-5.537,10.705-1.753,15.457c12.098,15.193,26.341,28.313,42.332,38.992
				c10.283,6.875,34.365,22.974,68.488,27.961c7.159,1.043,14.076,1.503,20.722,1.503c38.425,0,67.722-15.394,81.397-22.579
				c12.114-6.36,48.979-25.714,73.601-68.179c31.166-53.716,22.131-107.205,19.162-124.778
				c-5.221-30.977-17.371-59.861-36.172-86.051c11.046-4.804,22.031-11.076,31.906-20.589c3.055-2.943,5.96-5.737,8.71-8.381
				c2.965-2.851,5.732-5.512,8.308-7.996v475.668c-1.205,29.014-8.505,55.788-21.698,79.589
				c-7.386,13.342-16.159,24.893-27.609,36.353l-7.767,7.774l7.767,7.775c11.45,11.459,20.222,23.011,27.612,36.358
				c13.176,23.769,20.473,50.51,21.691,79.488l0.004,149.328c0,15.763,0.377,31.734,0.742,47.18
				c1.323,56.043,2.572,108.978-12.068,161.56c-8.729,31.347-27.866,48.05-56.884,49.647c-2.898,0.161-5.803,0.222-8.742,0.222
				c-4.364,0-8.799-0.134-13.386-0.272c-4.61-0.139-9.286-0.281-14.013-0.281c-6.342,0-12.775,0.254-19.257,1.109
				c-6.023,0.794-10.262,6.32-9.468,12.343c0.73,5.535,5.456,9.563,10.892,9.563c0.479,0,0.964-0.031,1.452-0.096
				c5.346-0.704,10.77-0.921,16.331-0.921c4.373,0,8.83,0.135,13.398,0.272c4.602,0.14,9.296,0.282,14.042,0.282
				c3.301,0,6.628-0.069,9.966-0.255c38.354-2.111,65.651-25.448,76.863-65.713c15.517-55.732,14.171-112.796,12.868-167.979
				c-0.361-15.318-0.735-31.158-0.735-46.661v-120.115l-0.004-29.473l-0.009-0.433c-1.333-32.513-9.556-62.612-24.437-89.457
				c-6.733-12.163-14.451-22.99-23.903-33.473c9.453-10.482,17.17-21.309,23.9-33.467c14.846-26.782,23.064-56.797,24.43-89.214
				L345.522,255.669L345.522,255.669z M219.674,338.076c-1.954-0.137-3.771-0.994-5.15-2.446c-1.395-1.459-2.163-3.381-2.163-5.411
				c0-2.044,0.844-4.008,2.377-5.529c1.513-1.502,3.485-2.352,5.476-2.352c0.04,0,0.08,0,0.12,0.001
				c1.184,0.009,2.393,0.32,3.402,0.874c1.407,0.774,3.005,2.279,4.655,3.884c0.975,0.948,1.965,1.877,2.957,2.805
				c1.133,1.062,2.204,2.065,3.22,3.072c0.84,0.834,1.675,1.678,2.504,2.53c-4.121,0.903-8.274,1.606-12.437,2.104
				c-1.692,0.204-3.199,0.346-4.212,0.435C220.112,338.067,219.827,338.076,219.674,338.076L219.674,338.076z"/>
		</g>
	</g>
</g>
</svg>
