<?xml version="1.0" encoding="iso-8859-1"?>
<!-- Generator: Adobe Illustrator 24.0.1, SVG Export Plug-In . SVG Version: 6.00 Build 0)  -->
<svg version="1.1" xmlns="http://www.w3.org/2000/svg" xmlns:xlink="http://www.w3.org/1999/xlink" x="0px" y="0px"
	 viewBox="0 0 1596.947 2209.112" style="enable-background:new 0 0 1596.947 2209.112;" xml:space="preserve">
<g id="Layer_5">
	<linearGradient id="SVGID_1_" gradientUnits="userSpaceOnUse" x1="739.3886" y1="1559.0005" x2="739.3886" y2="124.7954">
		<stop  offset="0" style="stop-color:#8B1D1A"/>
		<stop  offset="0.25" style="stop-color:#550000"/>
		<stop  offset="0.5" style="stop-color:#3A0000"/>
		<stop  offset="0.75" style="stop-color:#1E0000"/>
		<stop  offset="1" style="stop-color:#000000"/>
	</linearGradient>
	<path style="fill:url(#SVGID_1_);" d="M676.327,437.689c-10.82,0-19.85-0.02-27.08-0.05c-4.78-0.02-9.1-0.04-15.36,0
		c-15.92,0.1-34.85,0.54-43.88,1.1c-24.36,1.5-44.51,8.03-60.32,13.16c-65.6,21.27-114.86,62.58-117.37,64.71
		c-46.33,39.52-68.8,81.35-88.84,119.56c-29.4,56.04-40.77,101.76-55.94,164.53c-8.25,34.11-22.63,99.5-31.81,189.76
		c-9.04,88.82-8.27,154.95-6.58,268.73c1.3,87.95,1.95,131.93,6.58,184.28c10.11,114.37,17.75,200.75,59.23,300.54
		c32.47,78.1,72.92,175.42,170.01,224.85c60.71,30.92,133.96,38.22,148.07,39.49c19.67,1.77,39.47,2.18,63.29,1.85
		c18.88-0.25,40.29-0.98,66.15-1.85c32.57-1.1,49.17-1.7,64.71-4.39c10.23-1.76,60.81-11.08,115.18-46.06
		c57.58-37.06,88.2-82.85,110.78-117.37c51.38-78.56,68.4-150.87,85.55-223.76c15.88-67.47,21.03-120.03,25.23-164.53
		c5.52-58.45,6.69-105.87,5.49-220.47c-1.89-179.86-2.84-269.79-12.07-363.06c-7.82-79-13.17-133.07-29.61-207.31
		c-24.16-109.05-49.66-224.18-133.82-338.93c-37.09-50.56-87.75-119.64-182.08-162.34c-83.87-37.96-162.06-36.87-210.6-36.19
		c-39.81,0.55-101.64,1.98-174.4,30.71c-44.91,17.73-109.53,43.25-148.08,108.59c-11.83,20.06-32.17,55.71-25.23,102.01
		c3.44,22.94,12.54,41.6,22.08,55.7c-9.17,6.49-20.89,11.95-35.24,13.4c-30.32,3.07-55.89-13.46-69.1-30.71
		c-31.9-41.67-5.46-105.62,4.39-129.43c33-79.82,101.23-120.56,139.3-142.6c68.71-39.78,129.28-49.42,190.85-59.23
		c47.44-7.55,130.88-20.08,236.93,0c93.69,17.75,159.36,52.32,179.88,63.62c59.73,32.92,98.1,67.83,131.63,98.72
		c15.75,14.52,77.57,72.6,139.3,165.63c47.44,71.49,73.65,131.72,91.04,172.2c7.38,17.19,32.13,75.92,54.84,155.76
		c16.48,57.95,25.58,104.84,30.71,131.62c10.3,53.75,15.58,81.28,19.75,120.66c2.03,19.24,4.31,46.04,12.06,83.36
		c4.28,20.6,9.13,39.08,10.97,44.97c8.05,25.76,32.53,47.27,61.25,64.44c7.96,4.77,16.26,9.2,24.61,13.3
		c-8.52,4.69-16.52,9.48-23.96,14.33c-33.52,21.84-55.78,44.87-63,65.88c-9.06,26.42-13.16,54.84-13.16,54.84
		c-3.1,21.5-1.9,29.63-4.39,59.23c0,0-2.4,28.54-7.67,60.33c-4.42,26.57-9.79,48.77-19.75,84.46
		c-19.92,71.42-29.87,107.13-46.07,146.98c-8.47,20.87-24.29,59.38-49.36,100.91c-0.01,0.017-0.02,0.033-0.03,0.05
		c-107.79,178.568-289.89,265.425-494.855,275.276c-143.107,6.878-302.091,1.514-428.675-71.306c-3.72-2.14-44.54-25.78-82.26-58.13
		c-112.36-96.36-154.63-213.88-185.37-302.74c-67.53-195.21-62.11-360.88-58.14-455.2c4.35-103.24,9.17-217.83,64.72-356.48
		c33.67-84.06,84.97-212.09,216.08-304.93c65.15-46.12,156.87-88.43,231.44-94.33c13.56-1.07,60.27-3.61,115.17-4.39
		c17.78-0.25,33.61-0.27,46.83-0.21V437.689z"/>
</g>
<g id="Layer_7">
	<g>
		<path style="fill:#BFCBC2;" d="M125.206,1287.052c7.546-48.057,0.041-101.793-24.706-146.579
			c-28.312-50.057-79.654-97.498-58.328-160.456c9.984-27.722,34.279-51.507,67.228-52.936
			c71.591-1.173,85.04,80.899,35.182,101.372c59.211-57.086-45.984-115.947-69.778-35.859
			C62.482,1075.827,191.542,1132.382,125.206,1287.052z"/>
	</g>
	<g>
		<path style="fill:#BFCBC2;" d="M62.29,893.654c70.515-38.987,153.688,17.098,145.9,99.872
			c-10.645,83.322-100.044,94.2-117.24,39.734c32.749,45.706,88.954,10.899,92.632-38.165
			C192.105,927.984,125.809,875.826,62.29,893.654z"/>
	</g>
	<g>
		<path style="fill:#BFCBC2;" d="M238.246,825.838c8.037-60.437-69.463-61.684-89.237-12.59
			c-29.074,59.788,21.515,124.273,70.442,87.21c-60.188,65.818-129.087-39.976-90.131-99.514
			C172.082,724.346,266.163,769.707,238.246,825.838z"/>
	</g>
	<g>
		<path style="fill:#BFCBC2;" d="M153.965,668.638c34.219,68.783-0.064,162.872-84.601,185.689
			C129.709,818.767,168.442,746.336,153.965,668.638z"/>
	</g>
	<g>
		<path style="fill:#BFCBC2;" d="M322.23,587.471c-20.852-30.028-78.386-20.254-72.658,25.788
			c16.684,42.313,42.655,59.048,22.676,104.353c-53.137,128.561-174.515,20.512-67.267-45.155
			c-65.569,66.23,7.069,126.482,40.853,29.909c5.326-14.218,4.206-25.803-3.285-40.11
			C184.693,574.037,289.688,520.763,322.23,587.471z"/>
	</g>
	<g>
		<path style="fill:#BFCBC2;" d="M235.535,688.544c-36.367-91.993-93.016-12.819-105.672,45.104
			C122.011,653.542,217.285,579.566,235.535,688.544z"/>
	</g>
	<g>
		<path style="fill:#BFCBC2;" d="M128.064,1437.965c-31.157-109.748,79.481-239.532,1.954-339.527
			C243.562,1191.089,125.143,1345.485,128.064,1437.965z"/>
	</g>
	<g>
		<path style="fill:#BFCBC2;" d="M99.324,1322.86c-6.493-80.621-33.421-165.834-76.034-236.462
			C85.819,1144.063,116.803,1238.746,99.324,1322.86z"/>
	</g>
	<g>
		<path style="fill:#BFCBC2;" d="M183.302,810.334c14.619-33.903,59.296,6.006,44.384,50.866
			c-9.033,31.922-55.927,43.519-67.391,7.911c13.591,24.211,51.14,15.404,56.999-15.409
			C223.663,833.377,209.768,783.499,183.302,810.334z"/>
	</g>
	<g>
		<path style="fill:#BFCBC2;" d="M1248.902,1291.537c-55.159-164.19,85.027-218.045,70.724-290.84
			c-18.446-80.379-127.722-28.486-72.013,31.519c-57.825-33.141-13.861-109.176,45.222-98.282
			c30.252,4.618,52.946,28.915,60.84,59.028c16.146,61.618-41.141,110.169-71.684,156.889
			C1255.002,1193.968,1245.325,1240.072,1248.902,1291.537z"/>
	</g>
	<g>
		<path style="fill:#BFCBC2;" d="M1339.106,903.487c-62.261-19.858-126.891,19.156-128.207,88.898
			c-0.974,56.825,56.496,89.854,89.879,48.369c-34.147,67.224-117.575,13.359-114.204-50.324
			C1183.398,912.619,1274.283,858.413,1339.106,903.487z"/>
	</g>
	<g>
		<path style="fill:#BFCBC2;" d="M1168.31,823.561c-21.378-76.435,88-80.533,110.398-17.233
			c37.401,88.242-58.79,152.651-96.854,92.982c54.209,44.635,101.119-34.947,75.214-84.767
			C1232.855,758.584,1162.599,771.754,1168.31,823.561z"/>
	</g>
	<g>
		<path style="fill:#BFCBC2;" d="M1263.352,672.624c-17.539,67.811,6.273,146.422,71.442,191.138
			C1261.965,839.307,1219.694,748.525,1263.352,672.624z"/>
	</g>
	<g>
		<path style="fill:#BFCBC2;" d="M1101.158,579.916c23.886-47.107,96.634-27.293,95.395,29.351
			c0.417,33.18-40.932,58.52-26.328,93.629c30.479,99.534,100.365,33.818,41.968-30.022
			c103.669,74.895-27.529,169.966-70.256,40.351c-18.983-58.142,20.699-68.898,30.61-105.773
			C1176.633,566.937,1128.751,549.968,1101.158,579.916z"/>
	</g>
	<g>
		<path style="fill:#BFCBC2;" d="M1180.591,686.791c27.701-110.122,115.985-22.96,102.268,52.365
			C1274.92,681.654,1223.587,597.399,1180.591,686.791z"/>
	</g>
	<g>
		<path style="fill:#BFCBC2;" d="M1235.523,1441.883c4.444-106.56-94.57-259.669,21.735-338.836
			C1173.02,1197.798,1274.266,1334.612,1235.523,1441.883z"/>
	</g>
	<g>
		<path style="fill:#BFCBC2;" d="M1272.223,1329.063c-11.321-84.504,25.222-176.921,92.343-230.583
			C1318.115,1164.712,1284.487,1247.475,1272.223,1329.063z"/>
	</g>
	<g>
		<path style="fill:#BFCBC2;" d="M1224.201,811.928c-24.272-31.031-46.803,28.145-34.259,50.704
			c8.232,22.028,37.22,31.824,53.11,9.535c-14.319,36.189-64.153,17.945-67.681-17.475
			C1168.238,815.695,1208.126,776.152,1224.201,811.928z"/>
	</g>
	<g>
		<path style="fill:#BFCBC2;" d="M1439.27,1196.484c-53.259-7.1-112.669,24.386-128.504,87.295
			C1308.771,1222.303,1373.473,1169.019,1439.27,1196.484z"/>
	</g>
	<g>
		<path style="fill:#BFCBC2;" d="M1252.279,595.201c-74.434,46.458-43.846-112.675-154.478-61.546
			C1218.918,456.136,1183.339,626.87,1252.279,595.201z"/>
	</g>
	<g>
		<path style="fill:#BFCBC2;" d="M1167.033,418.526c-9.097,42.424-2.972,92.239,18.965,132.258
			C1153.71,518.307,1143.611,461.042,1167.033,418.526z"/>
	</g>
	<g>
		<path style="fill:#BFCBC2;" d="M1055.975,459.656c-7.627-62.839,139.046-34.026,105.758,61.15
			C1168.409,432.184,1055.667,415.928,1055.975,459.656z"/>
	</g>
	<g>
		<path style="fill:#BFCBC2;" d="M1095.136,311.127c-44.015,47.917-0.92,106.492,41.393,134.613
			C1051.911,415.322,1052.187,333.429,1095.136,311.127z"/>
	</g>
	<g>
		<path style="fill:#BFCBC2;" d="M1062.713,486.316c41.044-34.805,92.73,7.378,107.409,45.347
			C1144.361,501.405,1105.7,465.541,1062.713,486.316z"/>
	</g>
	<g>
		<path style="fill:#BFCBC2;" d="M1431.727,1190.214c-29.359,6.73-66.196-12.159-75.051-44.136
			C1371.99,1169.782,1400.993,1188.644,1431.727,1190.214z"/>
	</g>
</g>
<g id="Layer_4">
	<g>
		<g>
			<path style="fill:#FFB400;" d="M833.184,141.604c22.595,9.337,40.388,18.356,52.54,25.048c57.21,31.531,94.692,66.062,124.8,93.8
				c27.116,24.998,80.563,78.928,133.861,159.249c46.644,70.291,72.56,130.618,88.042,166.656
				c11.327,26.383,33.318,81.151,53.336,151.526c16.42,57.74,25.254,103.856,30,128.634l0.039,0.202
				c10.167,53.055,15.27,79.685,19.279,117.543c0.214,2.026,0.43,4.138,0.656,6.338c1.965,19.152,4.656,45.38,11.943,80.47
				c4.458,21.459,9.602,41.155,11.831,48.289c7.75,24.8,25.674,47.771,53.398,68.509c-28.085,21.904-46.274,44.584-54.199,67.648
				c-10.01,29.19-14.507,59.903-14.694,61.199c-2.031,14.085-2.446,23.277-2.927,33.92c-0.328,7.264-0.699,15.498-1.698,27.364
				c-0.023,0.273-2.364,27.633-7.319,57.527c-3.984,23.951-8.762,44.338-18.938,80.8l-0.116,0.415
				c-19.474,69.821-29.248,104.866-44.672,142.806c-7.353,18.117-22.647,55.801-46.839,95.895l-0.028,0.045l-0.057,0.094
				c-48.783,80.815-115.242,144.112-197.532,188.133c-18.938,10.131-38.756,19.243-59.32,27.283
				c50.119-38.318,78.35-81.474,97.867-111.311c54.758-83.725,72.841-160.578,90.328-234.899
				c16.747-71.153,22.098-127.856,26.006-169.257c5.646-59.786,6.859-107.963,5.643-224.129
				c-1.898-180.619-2.851-271.278-12.239-366.14l-0.007-0.068c-7.764-78.434-13.374-135.103-30.271-211.406
				c-24.025-108.438-51.255-231.344-139.762-352.021l-0.03-0.04C966.375,253.017,918.646,187.95,833.184,141.604 M299.694,169.411
				c-26.136,18.311-51.341,42.584-71.085,76.05c-11.555,19.594-38.613,65.478-29.695,124.979c1.46,9.738,3.778,19.282,6.938,28.589
				c-11.989-2.304-21.657-9.958-26.793-16.665c-7.581-9.903-9.831-24.917-6.689-44.627c3.208-20.123,11.288-39.655,15.632-50.156
				c12.43-30.065,31.59-56.269,58.577-80.11C265.094,191.115,284.583,178.482,299.694,169.411 M427.119,462.775
				c-21.176,13.587-34.691,24.808-37.448,27.148l-0.034,0.029l-0.034,0.029c-52.434,44.727-77.212,91.971-97.119,129.928
				c-32.006,61.007-44.5,112.706-58.965,172.562c-14.697,60.764-25.669,126.186-32.611,194.444
				c-9.432,92.667-8.367,164.325-6.756,272.797c1.311,88.692,1.969,133.211,6.712,186.839
				c10.179,115.154,18.22,206.109,61.791,310.93c29.078,69.939,67.671,162.753,151.378,221.491
				c-24.567-8.868-47.37-19.389-68.724-31.673c-4.209-2.421-42.129-24.515-76.926-54.358
				c-46.682-40.035-84.398-87.231-115.302-144.285c-26.051-48.094-43.14-95.241-59.776-143.33
				c-15.268-44.135-27.68-89.779-36.893-135.663c-7.925-39.469-13.709-80.276-17.191-121.29
				c-6.662-78.453-3.846-145.358-2.163-185.332l0.002-0.051c2.159-51.245,4.392-104.235,12.818-161.301
				c9.477-64.186,25.643-124.237,49.422-183.588c16.458-41.089,36.941-92.227,68.788-143.796
				c36.903-59.756,81.071-107.377,135.023-145.581c31.508-22.305,69.009-43.108,105.596-58.577
				C414.902,467.528,421.046,465.069,427.119,462.775 M607.14,61.53c-51.467,0-92.879,6.321-121.333,10.849
				c-61.57,9.81-122.14,19.45-190.85,59.23c-38.07,22.04-106.3,62.78-139.3,142.6c-9.85,23.81-36.29,87.76-4.39,129.43
				c12.134,15.844,34.692,31.08,61.784,31.08c2.403,0,4.845-0.12,7.316-0.37c14.35-1.45,26.07-6.91,35.24-13.4
				c-9.54-14.1-18.64-32.76-22.08-55.7c-6.94-46.3,13.4-81.95,25.23-102.01c38.55-65.34,103.17-90.86,148.08-108.59
				c72.76-28.73,134.59-30.16,174.4-30.71c6.9-0.097,14.39-0.202,22.419-0.202c48.456,0,116.233,3.827,188.18,36.391
				c94.33,42.7,144.99,111.78,182.08,162.34c84.16,114.75,109.66,229.88,133.82,338.93c16.44,74.24,21.79,128.31,29.61,207.31
				c9.23,93.27,10.18,183.199,12.07,363.06c1.199,114.6,0.03,162.02-5.49,220.47c-4.2,44.5-9.35,97.06-25.23,164.53
				c-17.15,72.89-34.17,145.2-85.551,223.76c-22.58,34.52-53.199,80.31-110.78,117.37c-54.37,34.98-104.949,44.301-115.179,46.061
				c-15.541,2.689-32.14,3.29-64.71,4.39c-25.86,0.87-47.27,1.6-66.15,1.85c-4.888,0.068-9.606,0.104-14.189,0.104
				c-17.751,0-33.467-0.548-49.101-1.954c-14.11-1.27-87.36-8.57-148.07-39.49c-97.09-49.43-137.54-146.75-170.01-224.85
				c-41.48-99.79-49.12-186.17-59.23-300.54c-4.63-52.35-5.28-96.331-6.58-184.28c-1.69-113.781-2.46-179.91,6.58-268.73
				c9.18-90.26,23.56-155.65,31.81-189.76c15.17-62.771,26.54-108.49,55.94-164.53c20.04-38.21,42.51-80.04,88.84-119.56
				c2.51-2.13,51.77-43.44,117.37-64.71c15.81-5.13,35.959-11.66,60.32-13.16c9.03-0.56,27.96-1,43.88-1.1
				c2.646-0.017,4.945-0.023,7.079-0.023c2.915,0,5.521,0.011,8.281,0.023c7.23,0.03,16.26,0.05,27.08,0.05v-36.46
				c-3.88-0.018-7.982-0.028-12.295-0.028c-10.383,0-21.973,0.062-34.535,0.239c-54.9,0.78-101.61,3.32-115.17,4.39
				c-74.57,5.9-166.29,48.21-231.44,94.33c-131.11,92.84-182.41,220.87-216.08,304.93c-55.55,138.65-60.37,253.24-64.72,356.48
				c-3.97,94.32-9.39,259.99,58.14,455.2c30.74,88.86,73.01,206.38,185.37,302.74c37.72,32.35,78.54,55.99,82.26,58.13
				c101.891,58.615,224.765,73.524,343.464,73.524c28.766,0,57.296-0.876,85.211-2.218
				c204.965-9.851,387.065-96.707,494.854-275.276c0.01-0.016,0.02-0.033,0.031-0.05c25.07-41.53,40.89-80.04,49.36-100.91
				c16.2-39.85,26.15-75.561,46.07-146.98c9.96-35.69,15.33-57.89,19.75-84.46c5.27-31.79,7.67-60.33,7.67-60.33
				c2.49-29.6,1.29-37.73,4.39-59.23c0,0,4.1-28.42,13.16-54.84c7.22-21.01,29.48-44.04,63-65.88c7.44-4.85,15.44-9.64,23.96-14.33
				c-8.35-4.1-16.65-8.53-24.61-13.3c-28.72-17.17-53.2-38.68-61.25-64.44c-1.84-5.89-6.69-24.37-10.97-44.969
				c-7.75-37.32-10.03-64.12-12.061-83.36c-4.17-39.38-9.449-66.91-19.75-120.66c-5.13-26.78-14.23-73.67-30.709-131.62
				c-22.71-79.84-47.46-138.57-54.84-155.76c-17.39-40.48-43.6-100.71-91.04-172.2c-61.73-93.03-123.55-151.11-139.3-165.63
				c-33.53-30.89-71.9-65.8-131.63-98.72c-20.52-11.3-86.189-45.87-179.88-63.62C680.295,64.343,641.481,61.53,607.14,61.53
				L607.14,61.53z"/>
		</g>
	</g>
</g>
<g id="Layer_6">
	<g>
		<g>
			<circle style="fill:#480000;" cx="676.328" cy="308.51" r="29.15"/>
			<path style="fill:#480000;" d="M676.328,285.86c12.489,0,22.65,10.161,22.65,22.65c0,12.489-10.161,22.65-22.65,22.65
				c-12.489,0-22.65-10.161-22.65-22.65C653.678,296.021,663.838,285.86,676.328,285.86 M676.328,272.86
				c-19.689,0-35.65,15.961-35.65,35.65c0,19.689,15.961,35.65,35.65,35.65c19.689,0,35.65-15.961,35.65-35.65
				C711.977,288.821,696.016,272.86,676.328,272.86L676.328,272.86z"/>
		</g>
	</g>
	<g>
		<g>
			<path style="fill:#480000;" d="M676.328,2202.612c-16.073,0-29.15-13.076-29.15-29.149s13.077-29.15,29.15-29.15
				s29.15,13.077,29.15,29.15S692.401,2202.612,676.328,2202.612z"/>
			<path style="fill:#480000;" d="M676.328,2150.813c12.489,0,22.65,10.161,22.65,22.65c0,12.489-10.161,22.65-22.65,22.65
				c-12.489,0-22.65-10.161-22.65-22.65C653.678,2160.973,663.838,2150.813,676.328,2150.813 M676.328,2137.813
				c-19.689,0-35.65,15.961-35.65,35.65c0,19.689,15.961,35.65,35.65,35.65c19.689,0,35.65-15.961,35.65-35.65
				C711.977,2153.773,696.016,2137.813,676.328,2137.813L676.328,2137.813z"/>
		</g>
	</g>
	<g>
		<g>
			<rect x="671.827" y="315.01" style="fill:#480000;" width="9" height="1860.34"/>
			<polygon style="fill:#480000;" points="687.327,308.509 665.327,308.509 665.327,2181.849 687.327,2181.849 687.327,308.509 			
				"/>
		</g>
	</g>
	<g>
		<g>
			<path style="fill:#480000;" d="M670.214,918.418c-27.186,0-52.986-5.204-76.685-15.469
				c-40.812-17.668-75.317-50.697-94.67-90.616c-19.427-40.047-23.907-87.597-12.294-130.459
				c12.372-45.717,43.379-85.599,82.947-106.685c21.619-11.527,46.119-17.62,70.852-17.62c12.68,0,25.168,1.609,37.12,4.782
				c9.167,2.436,18.019,5.813,26.308,10.04c52.635,26.856,83.129,90.705,70.93,148.518c-4.472,21.171-13.772,39.155-26.895,52.006
				c-16.433,16.09-40.85,25.318-66.99,25.318c-1.554,0-3.133-0.033-4.693-0.097c-1.202-0.049-2.312-0.563-3.126-1.448
				c-0.814-0.884-1.235-2.033-1.186-3.233c0.1-2.419,2.069-4.315,4.484-4.315l0.194,0.004c1.45,0.06,2.915,0.09,4.355,0.09
				c23.788,0,45.899-8.292,60.665-22.749c14.97-14.66,21.524-33.887,24.386-47.435c11.388-53.968-17.078-113.571-66.213-138.642
				c-7.725-3.938-15.977-7.087-24.531-9.359c-11.233-2.982-22.961-4.495-34.861-4.495c-23.209,0-46.228,5.732-66.565,16.576
				c-37.416,19.94-66.759,57.733-78.494,101.096c-11.053,40.796-6.787,86.059,11.705,124.18
				c18.428,38.009,51.286,69.459,90.149,86.284c22.563,9.773,47.157,14.729,73.1,14.729c1.981,0,3.998-0.029,5.994-0.087
				c49.382-1.402,100.04-20.921,138.978-53.551c59.696-50.05,99.495-131.063,103.867-211.425
				c4.027-74.051-7.717-149.051-33.963-216.891c-26.407-68.252-67.799-128.234-119.7-173.461
				c-30.341-26.44-57.541-39.293-83.153-39.293c-1.544,0-3.104,0.048-4.635,0.142c-16.998,1.038-34.721,8.311-49.902,20.479
				c-17.238,13.81-29.163,32.044-33.578,51.342c-8.452,36.962,10.634,68.469,47.494,78.401c10.86,2.929,22.665,4.477,34.137,4.477
				l0.595-0.001c9.773-0.02,19.128-1.095,27.788-3.194c0.352-0.085,0.712-0.128,1.068-0.128c2.079,0,3.874,1.415,4.365,3.442
				c0.585,2.412-0.901,4.849-3.313,5.434c-9.347,2.266-19.411,3.425-29.911,3.447h-0.228c-12.495,0-25.235-1.655-36.844-4.786
				c-19.779-5.33-36.042-17.06-45.794-33.029c-9.831-16.096-12.718-36.008-8.13-56.068c4.865-21.269,17.907-41.284,36.723-56.358
				c16.618-13.321,36.143-21.29,54.98-22.44c1.737-0.107,3.499-0.161,5.239-0.161c27.843,0,56.958,13.578,89.011,41.51
				c53,46.183,95.249,107.388,122.18,176.999c26.704,69.022,38.653,145.314,34.557,220.627
				c-4.502,82.767-45.529,166.236-107.071,217.834c-40.463,33.907-93.133,54.191-144.504,55.65
				C674.381,918.387,672.282,918.418,670.214,918.418L670.214,918.418z"/>
			<path style="fill:#480000;" d="M682.282,199.207c-1.883,0-3.761,0.058-5.635,0.173c-20.165,1.231-40.994,9.704-58.648,23.855
				c-19.956,15.987-33.804,37.289-38.995,59.982c-4.968,21.723-1.8,43.354,8.919,60.905c10.625,17.397,28.258,30.153,49.649,35.917
				c12.157,3.279,25.476,5.01,38.536,5.01c0.08,0,0.16,0,0.241,0c11.01-0.022,21.584-1.244,31.429-3.63
				c5.904-1.431,9.53-7.377,8.099-13.282c-1.22-5.034-5.722-8.411-10.683-8.411c-0.858,0-1.729,0.101-2.599,0.312
				c-8.164,1.979-17.01,2.992-26.287,3.011c-0.189,0.001-0.376,0.001-0.565,0.001c-11.024,0-22.238-1.5-32.445-4.253
				c-33.248-8.959-50.467-37.361-42.849-70.676c4.089-17.874,15.206-34.821,31.307-47.72c14.143-11.336,30.561-18.106,46.236-19.063
				c1.406-0.087,2.817-0.13,4.236-0.13c23.964,0.001,49.823,12.37,78.882,37.693c51.108,44.536,91.88,103.634,117.908,170.906
				c25.917,66.989,37.513,141.056,33.535,214.193c-4.277,78.625-43.19,157.865-101.551,206.796
				c-37.838,31.708-87.039,50.674-134.993,52.036c-1.943,0.056-3.877,0.085-5.804,0.085c-25.062,0-48.762-4.77-70.518-14.194
				c-37.456-16.216-69.124-46.525-86.883-83.156c-17.817-36.73-21.929-80.339-11.279-119.646
				c11.274-41.663,39.415-77.945,75.277-97.058c19.576-10.438,41.613-15.812,63.507-15.811c11.219,0,22.403,1.412,33.192,4.277
				c8.11,2.154,15.932,5.138,23.245,8.867c46.608,23.781,73.609,80.318,62.807,131.508c-2.676,12.67-8.765,30.612-22.573,44.134
				c-13.67,13.385-33.94,20.894-56.117,20.894c-1.354,0-2.717-0.028-4.085-0.084c-0.156-0.006-0.31-0.01-0.464-0.01
				c-5.86,0-10.735,4.633-10.979,10.548c-0.25,6.07,4.468,11.193,10.538,11.443c1.66,0.068,3.314,0.103,4.961,0.103
				c27.907,0,53.763-9.77,71.538-27.174c14.042-13.751,23.968-32.875,28.707-55.308c12.785-60.589-19.172-127.503-74.337-155.651
				c-8.699-4.435-17.982-7.978-27.593-10.531c-12.615-3.35-25.682-5-38.788-5c-25.5,0-51.148,6.248-73.909,18.384
				c-41.122,21.915-73.333,63.307-86.164,110.721c-12.017,44.354-7.381,93.559,12.719,134.995
				c20.022,41.299,55.719,75.468,97.936,93.745c24.543,10.63,51.179,16.005,79.269,16.004c2.132,0,4.277-0.031,6.426-0.093
				c52.806-1.5,106.93-22.335,148.495-57.167c62.875-52.715,104.789-137.958,109.386-222.462
				c4.146-76.226-7.951-153.452-34.984-223.326c-27.312-70.591-70.181-132.68-123.972-179.554
				C742.331,213.356,711.747,199.207,682.282,199.207L682.282,199.207z"/>
		</g>
	</g>
	<g>
		<g>
			<path style="fill:#480000;" d="M696.257,1978.512c-6.839,0-13.645-0.22-20.227-0.652c-7.654-0.508-15.05-1.299-21.98-2.352
				c-24.234-3.656-47.116-7.107-70.883-22.62c-53.467-34.901-62.573-96.149-63.435-103.019c-3.077-24.581,0.191-50.908,9.203-74.128
				c10.331-26.619,27.937-48.75,50.915-64.003c23.032-15.285,50.984-23.703,78.705-23.703c6.187,0,12.375,0.423,18.392,1.257
				c20.089,2.787,38.232,10.008,53.925,21.462c8.561,6.255,51.17,40.285,49.014,95.948c-0.418,10.34-4.827,63.188-50.681,87.174
				c-13.894,7.268-29.854,11.109-46.154,11.109c-2.347,0-4.714-0.083-7.036-0.247c-22.061-1.557-40.973-10.477-53.254-25.118
				c-19.883-23.72-15.789-53.973-15.257-57.345c3.804-23.691,15.984-41.635,34.293-50.507c7.94-3.851,16.509-5.803,25.469-5.803
				c3.172,0,6.443,0.246,9.723,0.731c2.453,0.362,4.155,2.655,3.792,5.109c-0.324,2.19-2.236,3.842-4.448,3.842
				c-0.221,0-0.446-0.017-0.669-0.049c-2.798-0.415-5.601-0.626-8.321-0.626c-7.651,0-14.925,1.646-21.62,4.894
				c-21.033,10.193-27.402,31.821-29.327,43.807c-0.189,1.195-4.361,29.139,13.262,50.164
				c10.699,12.754,27.386,20.539,46.989,21.922c2.047,0.145,4.144,0.218,6.231,0.218c14.763,0,29.734-3.578,42.156-10.076
				c42.343-22.148,45.625-73.744,45.859-79.555c1.979-51.098-37.412-82.54-45.328-88.324c-14.48-10.569-31.253-17.235-49.853-19.816
				c-5.644-0.782-11.444-1.179-17.239-1.179c-25.911,0-52.065,7.888-73.645,22.21c-49.323,32.739-61.082,90.229-56.164,129.513
				c0.323,2.574,8.496,63.356,59.424,96.602c22.126,14.441,43.063,17.6,67.306,21.257c6.694,1.017,13.839,1.781,21.233,2.271
				c6.399,0.421,13.013,0.634,19.661,0.634c28.932,0,58.103-3.896,86.703-11.58c76.661-20.584,126.993-62.112,145.075-79.012
				c51-47.629,75.835-102.795,97.433-170.972c52.752-166.479,55.566-344.453,58.287-516.567l0.124-7.774
				c2.794-176.678-2.767-407.605-71.138-626.949c-28.937-92.814-62.736-161.849-106.368-217.255
				c-44.406-56.402-118.963-123.821-221.973-124.695c-1.202-0.01-2.328-0.488-3.171-1.345s-1.301-1.991-1.291-3.192
				c0.021-2.461,2.039-4.462,4.498-4.462c44.404,0.376,87.581,12.896,128.369,37.211c36.341,21.665,70.2,52.253,100.639,90.915
				c44.333,56.297,78.616,126.249,107.891,220.145c68.75,220.563,74.348,452.419,71.544,629.771l-0.124,7.773
				c-2.732,172.768-5.557,351.409-58.706,519.145c-22.025,69.526-47.437,125.864-99.869,174.829
				c-18.576,17.362-70.268,60.018-148.884,81.128C755.967,1974.513,726,1978.512,696.257,1978.512z"/>
			<path style="fill:#480000;" d="M684.465,199.209c-6.031,0-10.946,4.864-10.998,10.907c-0.052,6.074,4.832,11.042,10.906,11.093
				c100.43,0.851,173.396,66.931,216.922,122.216c43.126,54.764,76.576,123.136,105.27,215.168
				c68.096,218.463,73.63,448.72,70.844,624.911l-0.124,7.775c-2.714,171.646-5.521,349.136-57.984,514.707
				c-21.289,67.202-45.705,121.52-95.675,168.186c-17.726,16.566-67.078,57.279-142.323,77.483
				c-33.044,8.878-62.462,11.358-85.018,11.358c-7.13,0-13.574-0.248-19.23-0.62c-7.221-0.479-14.177-1.223-20.687-2.212
				c-23.495-3.544-43.785-6.604-64.728-20.273c-48.443-31.622-56.221-89.521-56.528-91.966
				c-4.687-37.44,6.462-92.194,53.308-123.289c20.709-13.745,45.528-21.126,70.051-21.126c5.479,0,10.946,0.369,16.345,1.117
				c17.526,2.432,33.311,8.699,46.912,18.626c7.45,5.443,44.52,35.02,42.668,82.814c-0.219,5.426-3.271,53.602-42.377,74.057
				c-11.532,6.032-25.519,9.336-39.143,9.336c-1.934,0-3.862-0.067-5.774-0.202c-17.83-1.258-32.911-8.225-42.465-19.614
				c-15.745-18.784-11.992-43.907-11.826-44.958c1.724-10.736,7.361-30.078,25.746-38.988c5.82-2.823,12.111-4.242,18.783-4.242
				c2.41,0,4.871,0.185,7.376,0.557c0.543,0.08,1.082,0.119,1.615,0.119c5.364,0,10.068-3.924,10.877-9.39
				c0.89-6.01-3.261-11.603-9.271-12.492c-3.613-0.534-7.172-0.8-10.673-0.8c-9.961,0-19.446,2.158-28.304,6.453
				c-20.274,9.825-33.723,29.464-37.878,55.343c-0.58,3.671-5.037,36.607,16.697,62.536c13.423,16.003,33.941,25.742,57.775,27.424
				c2.493,0.176,4.994,0.264,7.496,0.264c17.179,0,34.392-4.122,49.166-11.85c49.023-25.644,53.719-81.688,54.163-92.682
				c2.284-58.953-42.643-94.85-51.677-101.45c-16.57-12.095-35.702-19.715-56.864-22.65c-6.375-0.884-12.82-1.318-19.284-1.318
				c-28.84,0-58,8.662-82.299,24.788c-24.102,15.998-42.561,39.189-53.379,67.066c-9.395,24.207-12.801,51.654-9.592,77.289
				c0.9,7.174,10.411,71.149,66.332,107.652c24.953,16.286,48.521,19.841,73.46,23.603c7.109,1.08,14.688,1.892,22.53,2.412
				c6.076,0.399,12.995,0.666,20.653,0.666c24.121,0,55.537-2.647,90.753-12.109c80.03-21.489,132.705-64.963,151.635-82.654
				c53.465-49.931,79.295-107.116,101.629-177.616c53.438-168.646,56.27-347.773,59.009-521.005l0.124-7.774
				c2.812-177.834-2.812-410.359-71.838-631.808c-29.518-94.677-64.149-165.292-108.988-222.231
				c-30.934-39.291-65.393-70.405-102.418-92.478c-41.791-24.913-86.068-37.742-131.602-38.127
				C684.529,199.209,684.497,199.209,684.465,199.209L684.465,199.209z"/>
		</g>
	</g>
	<g>
		<g>
			<path style="fill:#480000;" d="M607.139,77.53c37.688,0,75.58,3.556,112.62,10.569c83.175,15.758,145.432,45.556,175.135,61.912
				c59.223,32.641,97.642,68.035,128.508,96.471c27.746,25.58,82.416,80.734,136.813,162.713
				c47.594,71.721,73.934,133.035,89.669,169.666c11.507,26.802,33.844,82.427,54.153,153.824
				c16.647,58.539,25.584,105.191,30.385,130.255l0.04,0.206c10.266,53.574,15.42,80.465,19.513,119.121
				c0.216,2.043,0.434,4.173,0.662,6.392c1.923,18.742,4.557,44.411,11.645,78.544c4.328,20.828,9.25,39.722,11.364,46.488
				c8.303,26.57,31.287,51.265,68.297,73.392c0.157,0.094,0.315,0.189,0.473,0.283c-0.111,0.072-0.222,0.145-0.333,0.217
				c-37.037,24.131-61.034,49.749-69.4,74.095c-9.438,27.523-13.685,56.524-13.861,57.747c-1.898,13.162-2.294,21.923-2.752,32.067
				c-0.336,7.437-0.716,15.865-1.746,28.104c-0.023,0.28-2.416,28.322-7.51,59.047c-4.109,24.703-8.999,45.593-19.378,82.787
				l-0.115,0.414c-19.668,70.518-29.54,105.913-45.369,144.848c-7.538,18.575-23.224,57.222-48.188,98.585l-0.011,0.017
				l-0.064,0.106c-50.574,83.782-119.49,149.412-204.836,195.067c-40.467,21.648-84.776,38.783-131.698,50.931
				c-45.876,11.877-94.792,19.132-145.391,21.564c-30.792,1.48-58.414,2.199-84.442,2.199c-66.337,0-123.597-4.743-175.054-14.501
				c-61.769-11.713-114.247-30.323-160.432-56.891c-4.369-2.513-43.724-25.448-79.822-56.406
				c-48.476-41.573-87.61-90.527-119.64-149.658c-26.735-49.357-44.122-97.305-61.025-146.168
				c-15.546-44.94-28.185-91.415-37.566-138.134c-8.066-40.171-13.952-81.696-17.495-123.422
				c-6.764-79.654-3.916-147.314-2.214-187.739l0.002-0.051c2.18-51.733,4.434-105.228,13.005-163.276
				c9.697-65.676,26.242-127.131,50.58-187.878c33.127-82.705,83.19-207.69,210.471-297.82
				c32.592-23.072,71.364-44.583,109.174-60.57c41.545-17.567,81.064-28.241,114.279-30.869c13.724-1.083,59.68-3.568,114.137-4.342
				c9.986-0.14,20.264-0.219,30.605-0.234v4.469c-3.868-0.008-7.546-0.02-11.014-0.034l-0.55-0.002
				c-2.583-0.011-5.06-0.021-7.808-0.021c-2.162,0-4.492,0.006-7.17,0.023c-14.676,0.092-34.767,0.51-44.762,1.13
				c-26.417,1.627-48.298,8.727-64.271,13.91c-68.756,22.293-120.614,65.886-122.819,67.757
				c-49.642,42.346-73.476,87.788-92.625,124.3c-30.914,58.926-42.568,107.15-57.323,168.202
				c-14.495,59.929-25.321,124.494-32.176,191.902c-9.32,91.567-8.262,162.785-6.66,270.586c1.304,88.23,1.958,132.517,6.64,185.452
				c10.035,113.524,17.962,203.193,60.408,305.308c33.496,80.567,75.183,180.835,177.509,232.93
				c60.449,30.787,133.077,39.294,153.896,41.168c15.302,1.377,31.359,2.019,50.531,2.019c4.561,0,9.276-0.034,14.405-0.106
				c18.599-0.246,39.943-0.965,64.657-1.797l1.822-0.061c32.233-1.088,49.989-1.688,66.883-4.612
				c18.854-3.244,68.397-14.45,121.126-48.374c61.598-39.646,94.042-89.245,115.511-122.067
				c52.929-80.929,70.623-156.129,87.734-228.852c16.448-69.884,21.514-123.561,25.585-166.691
				c5.573-59.009,6.768-106.759,5.56-222.143c-1.892-180.061-2.842-270.44-12.147-364.468l-0.006-0.066
				c-7.699-77.779-13.262-133.975-29.913-209.169c-24.773-111.817-50.39-227.441-136.531-344.893l-0.03-0.041
				c-38.078-51.906-90.227-122.993-188.354-167.411c-74.053-33.517-142.994-37.815-194.782-37.815
				c-8.167,0-15.856,0.108-22.636,0.203c-38.545,0.533-103.059,1.424-180.055,31.826c-45.65,18.022-114.636,45.257-155.987,115.345
				c-11.422,19.369-35.191,59.674-27.271,112.51c2.468,16.455,7.714,32.305,15.645,47.308c-4.698,1.822-9.574,2.993-14.595,3.5
				c-1.892,0.192-3.811,0.289-5.704,0.289c-22.204,0-40.316-13.364-49.078-24.806c-26.306-34.362-2.494-91.92,6.471-113.591
				c13.373-32.345,34.756-61.646,63.556-87.089c25.763-22.76,52.813-38.42,68.975-47.777
				c66.115-38.278,123.999-47.501,185.28-57.265l0.068-0.011C513.35,84.197,555.24,77.53,607.139,77.53 M607.139,61.531
				c-51.467,0-92.878,6.32-121.332,10.849c-61.57,9.81-122.14,19.45-190.85,59.23c-38.07,22.04-106.3,62.78-139.3,142.6
				c-9.85,23.81-36.29,87.76-4.39,129.43c12.133,15.844,34.691,31.08,61.783,31.08c2.403,0,4.846-0.12,7.317-0.37
				c14.35-1.45,26.07-6.91,35.24-13.4c-9.54-14.1-18.64-32.76-22.08-55.7c-6.94-46.3,13.4-81.95,25.23-102.01
				c38.55-65.34,103.17-90.86,148.08-108.59c72.76-28.73,134.59-30.16,174.4-30.71c6.897-0.097,14.39-0.202,22.416-0.202
				c48.456,0,116.231,3.825,188.184,36.391c94.33,42.7,144.99,111.78,182.08,162.34c84.16,114.75,109.66,229.88,133.82,338.93
				c16.44,74.24,21.79,128.31,29.61,207.31c9.23,93.27,10.18,183.2,12.07,363.06c1.2,114.6,0.03,162.02-5.49,220.47
				c-4.2,44.5-9.35,97.06-25.23,164.53c-17.15,72.89-34.17,145.2-85.55,223.76c-22.58,34.52-53.2,80.31-110.78,117.37
				c-54.37,34.98-104.95,44.3-115.18,46.06c-15.54,2.69-32.14,3.29-64.71,4.39c-25.86,0.87-47.27,1.6-66.15,1.85
				c-4.889,0.068-9.609,0.104-14.193,0.104c-17.749,0-33.464-0.548-49.097-1.955c-14.11-1.27-87.36-8.57-148.07-39.49
				c-97.09-49.43-137.54-146.75-170.01-224.85c-41.48-99.79-49.12-186.17-59.23-300.54c-4.63-52.35-5.28-96.33-6.58-184.28
				c-1.69-113.78-2.46-179.91,6.58-268.73c9.18-90.26,23.56-155.65,31.81-189.76c15.17-62.77,26.54-108.49,55.94-164.53
				c20.04-38.21,42.51-80.04,88.84-119.56c2.51-2.13,51.77-43.44,117.37-64.71c15.81-5.13,35.96-11.66,60.32-13.16
				c9.03-0.56,27.96-1,43.88-1.1c2.642-0.017,4.938-0.023,7.069-0.023c2.919,0,5.528,0.012,8.291,0.023
				c7.23,0.03,16.26,0.05,27.08,0.05v-36.46c-3.887-0.018-7.998-0.028-12.319-0.028c-10.376,0-21.958,0.062-34.511,0.238
				c-54.9,0.78-101.61,3.32-115.17,4.39c-74.57,5.9-166.29,48.21-231.44,94.33c-131.11,92.84-182.41,220.87-216.08,304.93
				c-55.55,138.65-60.37,253.24-64.72,356.48c-3.97,94.32-9.39,259.99,58.14,455.2c30.74,88.86,73.01,206.38,185.37,302.74
				c37.72,32.35,78.54,55.99,82.26,58.13c101.891,58.615,224.766,73.523,343.465,73.523c28.766,0,57.295-0.876,85.211-2.218
				c204.966-9.851,387.065-96.708,494.854-275.276c0.01-0.017,0.021-0.033,0.03-0.049c25.07-41.531,40.89-80.041,49.36-100.91
				c16.2-39.85,26.15-75.56,46.07-146.98c9.96-35.69,15.33-57.89,19.75-84.46c5.27-31.79,7.67-60.33,7.67-60.33
				c2.49-29.6,1.29-37.73,4.39-59.23c0,0,4.1-28.42,13.16-54.84c7.22-21.01,29.48-44.041,63-65.88c7.44-4.85,15.44-9.64,23.96-14.33
				c-8.35-4.1-16.65-8.53-24.61-13.3c-28.72-17.17-53.2-38.68-61.25-64.44c-1.84-5.89-6.69-24.37-10.97-44.97
				c-7.75-37.32-10.03-64.12-12.06-83.36c-4.17-39.38-9.45-66.91-19.75-120.66c-5.13-26.78-14.229-73.67-30.71-131.62
				c-22.71-79.84-47.46-138.57-54.84-155.76c-17.39-40.48-43.6-100.71-91.04-172.2c-61.73-93.03-123.55-151.11-139.3-165.63
				c-33.53-30.89-71.9-65.8-131.63-98.72c-20.52-11.3-86.19-45.87-179.88-63.62C680.295,64.343,641.48,61.531,607.139,61.531
				L607.139,61.531z"/>
		</g>
	</g>
	<g>
		<g>
			<path style="fill:#480000;" d="M1056.367,2035.361c-1.655,0-3.175-0.901-3.964-2.353c-1.185-2.18-0.376-4.918,1.805-6.104
				c88.506-48.128,164.229-112.631,225.063-191.719c93.488-121.543,119.14-238.738,141.771-342.139
				c7.963-36.36,14.376-73.307,19.063-109.812c0.368-2.86,0.725-5.711,1.069-8.552c3.283-27.02,9.5-53.101,18.479-77.517
				c2.966-8.066,5.572-14.194,7.748-18.213c19.302-35.656,49.083-65.255,88.518-87.977l8.922-5.141l-8.479-5.843
				c-42.685-29.422-75.463-66.697-97.423-110.789l-0.309-0.622c-13.391-27.028-22.305-56.284-26.493-86.955
				c-2.172-15.899-4.351-31.084-6.953-48.993l-4.459-30.544c-22.159-150.279-49.68-299.074-141.834-467.048
				c-57.323-104.488-119.914-205.735-254.398-295.796C904.756,59.068,752.453,14.91,595.641,14.91
				c-125.602,0-241.064,28.542-333.906,82.541c-98.643,57.37-192.75,165.746-180.626,278.538
				c6.07,56.476,53.197,104.887,105.054,107.915c2.477,0.145,4.375,2.278,4.23,4.756c-0.139,2.375-2.118,4.236-4.504,4.236
				c-0.088,0-0.176-0.002-0.265-0.007c-27.893-1.629-55.066-14.958-76.5-37.531c-20.75-21.853-33.878-49.698-36.963-78.407
				c-5.958-55.432,12.008-113.815,51.957-168.838c33.254-45.803,80.521-87.866,133.093-118.442
				c54.726-31.83,117.277-54.933,185.919-68.667C491.228,11.38,541.677,6.5,593.075,6.5c18.18,0,36.736,0.616,55.155,1.831
				c140.875,9.295,276.28,53.133,381.271,123.439c136.169,91.188,199.399,193.441,257.281,298.945
				c92.871,169.284,120.563,318.949,142.847,470.068l4.463,30.572c2.593,17.842,4.77,33.015,6.962,49.056
				c4.057,29.702,12.683,58.021,25.638,84.171l0.309,0.62c23.814,47.817,60.691,87.255,109.607,117.22l6.932,4.246l-7.278,3.619
				c-45.974,22.867-79.937,54.142-100.946,92.953c-1.972,3.643-4.399,9.373-7.215,17.033c-8.739,23.767-14.792,49.169-17.991,75.498
				c-0.349,2.86-0.707,5.732-1.078,8.612c-4.719,36.762-11.177,73.969-19.197,110.588c-21.704,99.16-48.715,222.563-143.43,345.701
				c-35.535,46.198-76.832,88.108-122.741,124.563c-32.861,26.094-68.241,49.502-105.155,69.575
				C1057.837,2035.177,1057.117,2035.361,1056.367,2035.361z"/>
			<path style="fill:#480000;" d="M593.075,0c-51.885,0-102.554,4.892-151.221,14.63C372.51,28.505,309.288,51.862,253.942,84.052
				c-53.337,31.021-101.311,73.723-135.085,120.242c-40.911,56.348-59.293,116.292-53.159,173.351
				c3.237,30.119,16.986,59.307,38.712,82.188c22.576,23.774,51.288,37.818,80.849,39.545c0.212,0.012,0.422,0.018,0.631,0.018
				c5.79,0,10.65-4.505,10.992-10.357c0.354-6.065-4.275-11.269-10.34-11.623c-48.826-2.851-93.224-48.663-98.97-102.121
				c-11.812-109.896,80.603-215.91,177.431-272.225c94.209-54.794,210.857-81.66,330.639-81.66
				c149.349,0,303.569,41.766,425.235,123.239c133.265,89.244,195.394,189.766,252.316,293.521
				c91.635,167.029,119.033,315.204,141.101,464.86l4.458,30.541c2.602,17.899,4.779,33.071,6.945,48.937
				c4.284,31.369,13.404,61.298,27.11,88.963l0.314,0.632c22.487,45.15,55.926,83.172,99.553,113.243
				c-40.518,23.346-71.076,53.729-90.989,90.514c-2.323,4.291-5.059,10.705-8.133,19.064c-9.152,24.89-15.487,51.462-18.831,78.977
				c-0.343,2.826-0.697,5.661-1.064,8.508c-4.662,36.32-11.043,73.075-18.965,109.249
				c-22.487,102.734-47.973,219.176-140.574,339.565c-60.277,78.363-135.311,142.28-223.015,189.972
				c-5.337,2.902-7.312,9.582-4.409,14.919c1.995,3.668,5.773,5.747,9.674,5.747c1.775,0,3.576-0.431,5.245-1.339
				c37.245-20.253,72.939-43.87,106.092-70.194c46.323-36.784,87.993-79.073,123.852-125.692
				c95.603-124.291,122.785-248.484,144.627-348.273c8.06-36.8,14.552-74.196,19.295-111.149c0.372-2.894,0.732-5.78,1.083-8.657
				c3.139-25.832,9.073-50.742,17.64-74.04c3.375-9.182,5.577-13.865,6.831-16.181c20.359-37.612,53.373-67.969,98.124-90.228
				l17.792-8.849l-16.944-10.38c-47.859-29.317-83.924-67.869-107.184-114.572l-0.304-0.611
				c-12.642-25.517-21.061-53.162-25.021-82.165c-2.179-15.944-4.362-31.169-6.971-49.115l-4.464-30.582
				c-22.373-151.728-50.189-302.018-143.579-472.246c-58.283-106.237-121.977-209.215-259.364-301.219
				C927.192,55.437,790.655,11.214,648.657,1.845C629.998,0.614,611.462,0,593.075,0L593.075,0z"/>
		</g>
	</g>
</g>
</svg>
