<?xml version="1.0" encoding="iso-8859-1"?>
<!-- Generator: Adobe Illustrator 24.0.1, SVG Export Plug-In . SVG Version: 6.00 Build 0)  -->
<svg version="1.1" xmlns="http://www.w3.org/2000/svg" xmlns:xlink="http://www.w3.org/1999/xlink" x="0px" y="0px"
	 viewBox="0 0 1224.266 2175.366" style="enable-background:new 0 0 1224.266 2175.366;" xml:space="preserve">
<g id="Layer_5">
	<linearGradient id="SVGID_1_" gradientUnits="userSpaceOnUse" x1="612.1328" y1="1306.2163" x2="612.1328" y2="183.774">
		<stop  offset="0" style="stop-color:#8B1D1A"/>
		<stop  offset="0.25" style="stop-color:#550000"/>
		<stop  offset="0.5" style="stop-color:#3A0000"/>
		<stop  offset="0.75" style="stop-color:#1E0000"/>
		<stop  offset="1" style="stop-color:#000000"/>
	</linearGradient>
	<path style="fill:url(#SVGID_1_);" d="M1208.825,354.818c-13.913-80.865-41.864-161.252-94.488-224.208
		C1026.66,25.718,877.7-16.713,742.877,5.918S487.793,109.36,397.632,212.124c-40.761,46.458-80.174,100.367-139.376,118.115
		c-35.779,10.726-74.061,6.503-111.372,8.256c-15.794,0.742-31.632,2.88-46.815,7.389c-20.655,6.134-37.543,18.065-54.443,31.026
		c-6.456,4.951-10.638,11.396-14.447,18.507c-3.397,6.342-6.67,12.753-10.004,19.128c-1.744,3.336-3.489,6.672-5.233,10.008
		c-0.874,1.672-2.828,7.668-4.428,8.469c88.455-43.284,200.735,2.103,260.554,80.331s77.706,180.387,84.13,278.656
		c5.246,80.239,4.097,160.62,0.982,241.009H305.4c-17.48-0.98-43.96-2.69-76.3-7.04c-48.44-6.51-61.81-11.93-90.96-9.7
		c-17.28,1.32-45.44,3.79-75.2,21.83c-37.89,22.97-53.91,56.35-57,63.07c-2.36,5.12-4.32,10.19-5.94,15.17
		c22.53-3.51,40.14-1.44,50.81,0.59c23.21,4.43,31.77,12.2,35.18,15.77c8.91,9.35,11.25,20.06,13.34,29.11
		c6.02,26.07,14.26,56.58,19.4,71.56c6.43,18.71,17.04,49.64,46.09,69.13c6.9,4.63,26.46,17.75,50.94,15.76
		c42.55-3.45,67.42-49.91,76.41-66.7c21.81-40.75,21.67-82.56,17.7-110.97c-3.33,16.26-17.71,28.49-34.96,28.49
		c-19.7,0-35.68-15.98-35.68-35.68c0-19.71,15.98-35.68,35.68-35.68h79.425c-1.811,37.77-3.793,75.534-5.492,113.279
		c-3.391,75.337-6.095,152.801-36.165,221.96c-30.943,71.168-90.883,129.216-163.006,157.861
		c194.319,109.163,298.314,357.614,239.696,572.65c135.757-183.426,140.16-429.402,139.047-657.599
		c-1.727-354.202-3.454-708.404-5.18-1062.605c-0.341-69.968-0.4-141.651,23.469-207.423
		c24.58-67.733,75.768-126.592,142.006-154.953c66.238-28.362,146.951-23.839,206.595,16.59
		c57.075,38.688,89.943,104.094,112.524,169.246c34.993,100.968,39.46,214.122,34.296,319.93
		c-5.588,114.501-25.366,229.144-93.409,324.564c-77.774,109.067-219.073,134.549-345.513,129.131
		c-0.094,22.111-0.188,44.223-0.282,66.334c-0.011,1.943,136.715-0.5,149.151-1.116c50.108-2.481,100.2-8.448,148.92-20.691
		c4.616-1.16,9.22-2.377,13.81-3.652c43.734-12.152,86.099-29.606,124.573-53.816c41.517-26.125,78.252-60.06,104.668-101.639
		c42.09-66.249,61.871-155.215,71.084-233.162C1228.39,580.399,1227.985,466.178,1208.825,354.818z"/>
</g>
<g id="Layer_7">
	<g>
		<path style="fill:#BFCBC2;" d="M257.818,1221.645c-51.607-84.735-117.934,62.052-7.97,50.955
			c-41.796,23.337-92.805-19.703-67.49-65.821C201.609,1170.474,256.275,1184.219,257.818,1221.645z"/>
	</g>
	<g>
		<path style="fill:#BFCBC2;" d="M150.755,1134.106c33.305-15.881,71.179,21.475,53.207,56.229
			c-13.375,32.489-63.041,31.922-75.37-1.578C185.932,1248.995,235.602,1131.513,150.755,1134.106z"/>
	</g>
	<g>
		<path style="fill:#BFCBC2;" d="M196.179,1120.269c10.565-48.593-50.637-72.118-80.533-29.485
			c-26.526,37.268-1.611,108.004,48.779,89.48c-60.462,38.03-101.677-60.67-63.049-104.385
			C146.452,1020.646,223.242,1067.824,196.179,1120.269z"/>
	</g>
	<g>
		<path style="fill:#BFCBC2;" d="M443.563,1147.291c-80.768-120.573,10.858-200.622,14.177-238.195
			c11.994-65.889-78.143-56.51-57.076,4.43c-44.019-64.391,76.831-106.988,84.298-13.018
			C485.693,975.996,396.463,1009.515,443.563,1147.291z"/>
	</g>
	<g>
		<path style="fill:#BFCBC2;" d="M375.354,653.482c-40.608-93.87,121.207-99.699,102.915,7.111
			c-3.125,15.71-10.815,27.756-22.866,39.912c-121.352,87.344-0.943,166.202,26.18,93.334
			c-14.155,102.716-206.838,7.583-38.273-129.476C478.849,591.291,358.431,575.002,375.354,653.482z"/>
	</g>
	<g>
		<path style="fill:#BFCBC2;" d="M440.396,328.754c-133.575,133.13,10.641,158.317,55.511,228.603
			c52.306,79.536-9.587,158.665-70.496,205.794c121.088-165.963,27.233-193.912-30.337-252.36
			C321.496,438.557,370.1,364.493,440.396,328.754z"/>
	</g>
	<g>
		<path style="fill:#BFCBC2;" d="M456.297,255.685c-26.744,37.367-77.469,56.053-105.725,94.184
			c-53.664,75.514-21.674,170.512,60.033,205.735c-118.485-16.367-152.087-165.341-65.409-236.694
			C379.431,290.672,421.275,282.078,456.297,255.685z"/>
	</g>
	<g>
		<path style="fill:#BFCBC2;" d="M542.827,123.624c-4.866,102.603-77.126,198.48-170.438,232.751
			C447.596,301.325,512.499,213.294,542.827,123.624z"/>
	</g>
	<g>
		<path style="fill:#BFCBC2;" d="M523.501,336.381c-93.971-21.892-122.292,123.496-40.47,160.305
			C349.617,454.107,444.134,282.64,523.501,336.381z"/>
	</g>
	<g>
		<path style="fill:#BFCBC2;" d="M281.716,337.66c-32.144,37.578-39.048,101.347-11.894,146.027
			C229.317,446.466,233.227,369.639,281.716,337.66z"/>
	</g>
	<g>
		<path style="fill:#BFCBC2;" d="M1179.906,665.388c-34.125-42.749-86.852,50.718-61.887,89.361
			C1039.831,682.547,1171.286,595.436,1179.906,665.388z"/>
	</g>
	<g>
		<path style="fill:#BFCBC2;" d="M1049.858,575.669c2.183-33.267,50.848-45.338,74.454-20.19
			c42.091,44.056,3.489,108.931-51.18,116.364C1156.499,599.972,1088.767,529.883,1049.858,575.669z"/>
	</g>
	<g>
		<path style="fill:#BFCBC2;" d="M1208.169,543.73c-26.635-51.91-84.89-2.97-41.046,86.753
			C1049.224,529.026,1211.064,453.23,1208.169,543.73z"/>
	</g>
	<g>
		<path style="fill:#BFCBC2;" d="M1077.67,431.882c81.746-72.134,128.078,118.398-19.674,96.292
			C1181.276,520.175,1145.559,390.487,1077.67,431.882z"/>
	</g>
	<g>
		<path style="fill:#BFCBC2;" d="M1069.229,357.651c75.993-34.131,160.916,57,105.267,133.849
			C1182.142,430.459,1141.94,366.277,1069.229,357.651z"/>
	</g>
	<g>
		<path style="fill:#BFCBC2;" d="M1075.742,244.201c40.028-35.03,99.272,8.942,84.672,57.665
			c-13.133,52.208-83.379,58.855-101.939,10.139C1132.342,364.521,1169.261,235.16,1075.742,244.201z"/>
	</g>
	<g>
		<path style="fill:#BFCBC2;" d="M1125.912,205.323c-25.492-58.898-106.374,21.782-73.156,90.726
			C955.445,204.812,1125.212,107.067,1125.912,205.323z"/>
	</g>
	<path style="fill:#BFCBC2;" d="M414.634,899.755c1.273-21.188,30.273-19.29,30.875,0.001
		C444.236,920.943,415.236,919.045,414.634,899.755z"/>
	<path style="fill:#BFCBC2;" d="M167.635,1106.055c-1.065-19.068-27.45-17.637-28.068,0.001
		C140.632,1125.123,167.017,1123.693,167.635,1106.055z"/>
	<path style="fill:#BFCBC2;" d="M208.124,1234.379c1.582-25.263,35.902-22.717,36.488,0.001
		C243.03,1259.641,208.711,1257.095,208.124,1234.379z"/>
	<path style="fill:#BFCBC2;" d="M1079.655,285.87c1.273-21.188,30.273-19.29,30.875,0.001
		C1109.256,307.058,1080.257,305.161,1079.655,285.87z"/>
	<path style="fill:#BFCBC2;" d="M458.543,409.949c1.826-29.203,41.47-26.267,42.102,0
		C498.82,439.153,459.175,436.216,458.543,409.949z"/>
</g>
<g id="Layer_4">
	<g>
		<g>
			<path style="fill:#FFB400;" d="M842.881,36.015c42.918,3.053,85.047,12.949,123.277,29.071
				c23.852,10.059,46.154,22.506,66.286,36.996c20.706,14.904,39.224,32.054,55.04,50.974
				c42.707,51.093,71.928,120.972,86.848,207.697c17.612,102.365,19.643,212.636,6.036,327.752
				c-5.006,42.353-12.455,81.238-22.14,115.573c-11.479,40.697-26.192,75.326-43.727,102.927
				c-22.323,35.136-53.871,65.68-93.767,90.785c-33.383,21.006-72.177,37.734-115.302,49.716c-4.264,1.185-8.627,2.339-12.969,3.43
				c-42.157,10.594-88.646,17.031-142.123,19.678c-3.15,0.156-17.893,0.5-36.968,0.846
				c117.91-14.305,208.247-61.954,263.841-139.916c79.087-110.907,94.916-241.659,99.87-343.179
				c6.675-136.764-4.823-242.608-36.184-333.097c-19.715-56.884-54.222-138.131-125.956-186.756
				C893.125,53.724,868.813,42.804,842.881,36.015 M612.23,86.11c-43.794,34.528-78.283,82.288-98.428,137.798
				c-26.285,72.431-25.904,150.581-25.568,219.533l5.181,1062.605c0.569,116.586-0.363,230.313-17.765,339.93
				c-8.702,54.817-20.713,103.418-36.645,148.214c-12.956-156.07-93.378-306.447-219.834-399.976
				c55.029-35.435,99.346-86.905,125.603-147.295c31.825-73.195,35.348-151.971,38.755-228.153l0.278-6.188
				c1.053-23.402,2.238-47.248,3.383-70.308c0.698-14.045,1.419-28.567,2.105-42.868l1.505-31.386h0.05l1.304-33.645
				c2.593-66.91,4.819-155.184-1.03-244.647c-5.934-90.772-21.669-206.635-91.253-297.632
				c-48.521-63.453-122.655-104.6-196.81-110.188c2.292-0.939,4.614-1.768,6.973-2.469c11.226-3.334,23.818-5.29,38.493-5.979
				c9.856-0.463,19.895-0.475,30.524-0.489c28.907-0.035,58.799-0.072,89.256-9.203c61.238-18.359,102.97-67.145,139.79-110.189
				c5.453-6.375,10.604-12.397,15.844-18.369c44.683-50.928,94.455-93.47,147.934-126.443
				C585.208,100.542,598.665,92.989,612.23,86.11 M150.839,1050.765c10.629,0,20.086,1.559,35.755,4.14
				c9.858,1.624,22.127,3.646,37.84,5.757c12.222,1.644,23.655,2.929,34.213,3.95c-31.16,7.365-54.417,35.414-54.417,68.792
				c0,38.326,30.664,69.625,68.746,70.654c-2.43,10.24-6.164,20.712-11.666,30.992c-6.147,11.481-24.855,46.421-48.386,48.329
				c-0.725,0.059-1.467,0.089-2.204,0.089c-11.455,0-21.926-7.026-26.4-10.029c-19.25-12.916-26.893-35.154-32.474-51.393
				l-0.011-0.032c-4.677-13.632-12.589-42.898-18.403-68.077l-0.117-0.507c-2.481-10.757-6.634-28.761-22.016-44.902
				c-11.647-12.193-28.037-20.451-50.039-25.185c5.509-5.327,12.076-10.613,19.823-15.31c23.215-14.073,45.185-15.751,59.727-16.863
				C144.397,1050.899,147.678,1050.765,150.839,1050.765 M814.359,0c-23.995,0-47.947,1.967-71.482,5.918
				C608.053,28.549,487.793,109.36,397.632,212.124c-40.761,46.458-80.175,100.366-139.376,118.115
				c-35.779,10.726-74.061,6.503-111.372,8.256c-15.794,0.742-31.631,2.88-46.815,7.389c-20.655,6.134-37.543,18.065-54.443,31.026
				c-6.456,4.951-10.638,11.396-14.448,18.506c-3.397,6.342-6.67,12.753-10.004,19.129c-1.744,3.336-3.489,6.672-5.233,10.008
				c-0.874,1.672-2.828,7.668-4.428,8.469c23.561-11.529,48.828-16.77,74.328-16.77c70.235,0,142.34,39.709,186.226,97.1
				c59.818,78.228,77.706,180.387,84.13,278.656c5.246,80.239,4.097,160.62,0.982,241.009H305.4c-17.48-0.98-43.96-2.689-76.3-7.04
				c-40.871-5.493-56.778-10.21-78.26-10.21c-3.978,0-8.145,0.162-12.699,0.51c-17.28,1.321-45.44,3.79-75.2,21.831
				c-37.89,22.97-53.91,56.35-57,63.07c-2.36,5.12-4.32,10.19-5.94,15.17c8.828-1.375,16.901-1.894,24.097-1.894
				c11.168,0,20.224,1.249,26.713,2.484c23.21,4.43,31.77,12.2,35.18,15.77c8.91,9.35,11.25,20.06,13.34,29.11
				c6.02,26.07,14.26,56.58,19.4,71.561c6.43,18.71,17.04,49.639,46.09,69.13c6.419,4.308,23.797,15.964,45.9,15.964
				c1.654,0,3.335-0.065,5.04-0.204c42.55-3.45,67.42-49.909,76.41-66.7c21.81-40.75,21.67-82.56,17.7-110.969
				c-3.33,16.26-17.71,28.49-34.96,28.49c-19.7,0-35.68-15.98-35.68-35.68c0-19.71,15.98-35.68,35.68-35.68h79.425
				c-1.811,37.77-3.793,75.534-5.492,113.279c-3.391,75.337-6.095,152.801-36.165,221.959
				c-30.943,71.168-90.883,129.216-163.006,157.861c194.319,109.164,298.314,357.614,239.696,572.65
				c135.757-183.426,140.16-429.402,139.048-657.599c-1.727-354.202-3.454-708.404-5.181-1062.605
				c-0.341-69.968-0.399-141.651,23.469-207.422c24.58-67.733,75.768-126.592,142.007-154.954
				c28.017-11.996,58.632-18.11,89.138-18.11c41.618,0,83.041,11.372,117.457,34.7c57.075,38.688,89.943,104.094,112.524,169.246
				c34.993,100.968,39.459,214.122,34.295,319.93c-5.588,114.501-25.366,229.144-93.409,324.564
				c-71.399,100.126-196.342,129.811-314.171,129.811c-10.521,0-20.978-0.237-31.342-0.681c-0.094,22.112-0.189,44.222-0.282,66.333
				c-0.003,0.534,10.344,0.737,25.597,0.737c40.205,0,114.538-1.407,123.554-1.853c50.108-2.481,100.2-8.448,148.921-20.691
				c4.616-1.16,9.22-2.377,13.809-3.652c43.735-12.152,86.099-29.606,124.573-53.816c41.517-26.125,78.252-60.06,104.668-101.639
				c42.09-66.249,61.871-155.215,71.084-233.161c13.264-112.215,12.858-226.436-6.302-337.795
				c-13.913-80.865-41.864-161.252-94.488-224.208C1041.965,44.028,927.824,0,814.359,0L814.359,0z"/>
		</g>
	</g>
</g>
<g id="Layer_6">
	<g>
		<g>
			<circle style="fill:#480000;" cx="600.965" cy="359.016" r="29.15"/>
			<path style="fill:#480000;" d="M600.965,336.366c12.489,0,22.65,10.161,22.65,22.65c0,12.489-10.161,22.65-22.65,22.65
				c-12.489,0-22.65-10.161-22.65-22.65C578.315,346.527,588.475,336.366,600.965,336.366 M600.965,323.366
				c-19.689,0-35.65,15.961-35.65,35.65c0,19.689,15.961,35.65,35.65,35.65c19.689,0,35.65-15.961,35.65-35.65
				C636.614,339.327,620.653,323.366,600.965,323.366L600.965,323.366z"/>
		</g>
	</g>
	<g>
		<g>
			<path style="fill:#480000;" d="M600.965,1832.436c-16.073,0-29.15-13.076-29.15-29.149s13.077-29.15,29.15-29.15
				s29.15,13.077,29.15,29.15S617.038,1832.436,600.965,1832.436z"/>
			<path style="fill:#480000;" d="M600.965,1780.636c12.489,0,22.65,10.161,22.65,22.65c0,12.489-10.161,22.65-22.65,22.65
				c-12.489,0-22.65-10.161-22.65-22.65C578.315,1790.797,588.475,1780.636,600.965,1780.636 M600.965,1767.636
				c-19.689,0-35.65,15.961-35.65,35.65c0,19.689,15.961,35.65,35.65,35.65c19.689,0,35.65-15.961,35.65-35.65
				C636.614,1783.597,620.653,1767.636,600.965,1767.636L600.965,1767.636z"/>
		</g>
	</g>
	<g>
		<g>
			<rect x="596.465" y="365.516" style="fill:#480000;" width="9" height="1407.427"/>
			<polygon style="fill:#480000;" points="611.965,359.016 589.965,359.016 589.965,1779.443 611.965,1779.443 611.965,359.016 			
				"/>
		</g>
	</g>
	<g>
		<g>
			<path style="fill:#480000;" d="M651.571,1004.512c-17.999,0-35.705-1.092-51.204-3.156c-1.192-0.158-2.25-0.771-2.981-1.727
				c-0.73-0.954-1.045-2.136-0.886-3.328c0.296-2.229,2.201-3.908,4.43-3.908c0.202,0,0.408,0.014,0.611,0.041
				c3.8,0.506,24.07,3.02,51.339,3.02c28.619,0,70.813-2.845,109.295-16.401c65.29-22.999,102.529-63.892,116.548-79.285
				c37.152-40.786,51.856-79.622,67.425-120.739l0.354-0.937c28.232-74.581,32.919-137.691,36.02-179.454
				c4.77-64.247-0.001-109.527-8.663-191.728c-9.734-92.402-21.269-132.315-36.724-166.762
				c-20.924-46.6-41.878-68.958-52.506-78.137c-31.664-27.357-66.107-41.818-99.604-41.818c-6.879,0-13.8,0.607-20.571,1.804
				c-34.724,6.139-59.166,21.071-72.648,44.381c-19.919,34.441-14.232,82.429,12.417,104.791
				c1.883,1.577,18.937,15.379,38.959,15.38c5.747,0,11.221-1.15,16.276-3.419c21.284-9.542,30.247-35.89,26.615-55.849
				c-1.559-8.627-5.471-16.686-11.625-23.946c-0.777-0.917-1.151-2.082-1.052-3.279c0.099-1.198,0.657-2.286,1.574-3.063
				c1.041-0.882,2.154-1.067,2.905-1.067c1.328,0,2.581,0.579,3.437,1.589c7.09,8.362,11.798,18.1,13.616,28.161
				c4.194,23.049-5.521,53.891-31.787,65.667c-6.271,2.814-12.966,4.241-19.897,4.241c-23.222,0-42.664-15.725-44.804-17.518
				c-15.042-12.622-24.627-32.069-26.985-54.757c-2.224-21.396,2.354-43.789,12.56-61.436
				c14.874-25.717,41.408-42.115,78.866-48.737c7.303-1.291,14.743-1.945,22.116-1.945c20.594,0,41.527,5.069,62.221,15.066
				c22.217,10.733,37.529,23.962,43.293,28.943c19.327,16.692,38.801,45.552,54.836,81.264
				c15.818,35.258,27.603,75.908,37.46,169.472c8.718,82.745,13.521,128.321,8.691,193.364
				c-3.14,42.285-7.884,106.179-36.579,181.98l-0.354,0.934c-15.182,40.096-30.88,81.558-69.188,123.613
				c-14.437,15.853-52.782,57.962-120.211,81.714C725.347,1001.568,681.414,1004.512,651.571,1004.512z"/>
			<path style="fill:#480000;" d="M784.996,104.69c-7.777,0-15.533,0.681-23.248,2.045c-39.435,6.972-67.482,24.429-83.36,51.884
				c-10.877,18.808-15.761,42.631-13.399,65.362c2.533,24.375,12.928,45.35,29.276,59.067c2.866,2.401,23.642,19.036,48.978,19.036
				c7.249,0,14.874-1.363,22.556-4.81c29.284-13.129,40.158-47.29,35.524-72.754c-2.021-11.183-7.227-21.975-15.054-31.207
				c-2.175-2.566-5.275-3.887-8.396-3.887c-2.513,0-5.041,0.857-7.108,2.609c-4.634,3.929-5.206,10.87-1.277,15.504
				c5.405,6.376,8.833,13.406,10.188,20.906c3.184,17.496-4.503,40.515-22.882,48.755c-4.528,2.032-9.132,2.85-13.614,2.849
				c-17.981-0.001-33.954-13.167-34.781-13.86c-24.383-20.459-29.406-64.677-10.969-96.557
				c12.477-21.572,35.404-35.445,68.153-41.235c6.443-1.139,12.928-1.705,19.44-1.705c32.019,0.001,64.626,13.688,95.355,40.238
				c10.221,8.828,30.415,30.425,50.824,75.878c15.193,33.864,26.546,73.236,36.19,164.783c8.622,81.828,13.371,126.903,8.646,190.56
				c-3.073,41.389-7.717,103.936-35.617,177.639l-0.354,0.934c-15.343,40.521-29.834,78.795-66.152,118.666
				c-13.718,15.063-50.157,55.077-113.902,77.531c-36.474,12.849-76.459,16.032-107.135,16.032c-26.671,0-46.305-2.407-50.468-2.961
				c-0.499-0.067-0.993-0.1-1.482-0.1c-5.424,0-10.138,4.029-10.873,9.551c-0.802,6.022,3.43,11.554,9.452,12.355
				c14.728,1.962,32.637,3.213,52.062,3.213c36.963,0,79.401-4.534,115.754-17.341c68.971-24.295,108.12-67.284,122.857-83.468
				c39.143-42.972,55.064-85.022,70.462-125.689l0.354-0.934c29.03-76.686,33.815-141.146,36.982-183.8
				c4.872-65.626,0.049-111.399-8.71-194.526c-9.947-94.424-21.912-135.607-37.994-171.454
				c-16.416-36.559-36.486-66.22-56.514-83.518c-5.942-5.134-21.726-18.77-44.718-29.878
				C828.396,109.944,806.606,104.69,784.996,104.69L784.996,104.69z"/>
		</g>
	</g>
	<g>
		<g>
			<path style="fill:#480000;" d="M231.485,2168.866c-19.113,0.001-37.82-5.186-54.099-14.997
				c-16.322-9.839-29.024-23.643-36.733-39.918c-14.324-30.27-11.415-66.635,7.412-92.643c4.28-5.914,27.536-35.412,65.147-35.412
				c23.018,0,50.886,8.464,60.132,32.217c6.668,17.13,3.516,42.181-15.41,56.914c-8.429,6.561-18.601,9.888-30.232,9.889
				c-8.438,0-14.646-1.792-15.805-2.151c-1.147-0.356-2.088-1.139-2.648-2.202s-0.672-2.281-0.316-3.429
				c0.588-1.896,2.313-3.17,4.292-3.17c0.449,0,0.898,0.068,1.337,0.205c0.993,0.304,6.186,1.789,13.115,1.789
				c9.426,0,17.978-2.777,24.729-8.032c15.288-11.901,17.877-32.865,12.551-46.547c-9.812-25.206-44.811-26.482-51.727-26.482
				c-33.255,0-54.044,26.397-57.875,31.688c-16.93,23.39-19.507,56.171-6.568,83.516c17.383,36.702,55.708,49.725,83.246,49.725
				c3.406,0,6.789-0.186,10.055-0.553c17.964-2.012,35.693-9.701,49.918-21.653c15.766-13.238,24.313-31.439,31.201-49.137
				c15.294-39.277,19.807-87.952,13.412-144.673c-8.883-78.823-40.873-134.303-54.534-157.994l-0.045-0.078
				c-60.454-104.79-160.088-160.27-233.027-188.362l-11.376-4.382l11.495-4.061c107.224-37.874,181.395-97.887,214.497-173.551
				c9.211-21.054,15.419-43.917,18.453-67.957l1.848-14.644l-12.05,8.523c-23.764,16.809-46.98,24.979-70.978,24.979
				c-3.488,0-7.022-0.183-10.504-0.543c-38.918-4.022-64.232-29.289-80.983-46.009c-13.052-13.027-24.143-27.972-32.968-44.419
				c-1.173-2.187-0.349-4.92,1.838-6.094c0.662-0.355,1.375-0.536,2.116-0.536c1.667,0,3.19,0.91,3.976,2.375
				c8.407,15.668,18.963,29.894,31.374,42.282c16.809,16.778,39.827,39.754,75.573,43.449c3.108,0.321,6.273,0.485,9.406,0.485
				c33.984,0,60.111-19.031,69.946-26.195c5.192-3.783,10.167-7.981,14.796-12.489l8.007-7.796l-0.371,11.169
				c-1.154,34.813-8.299,67.458-21.235,97.025c-31.232,71.39-98.259,129.69-193.834,168.597l-14.195,5.778l14.021,6.188
				c41.487,18.312,79.175,40.831,112.017,66.934c41.363,32.876,74.99,71.48,99.947,114.74l0.045,0.079
				c12.75,22.111,46.595,80.811,55.688,161.496c6.652,59.004,2.083,107.724-13.968,148.946
				c-6.972,17.911-16.439,38.187-33.799,52.764c-15.569,13.079-34.996,21.498-54.703,23.705
				C239.256,2168.648,235.352,2168.866,231.485,2168.866L231.485,2168.866z"/>
			<path style="fill:#480000;" d="M80.4,1262.184c-1.755,0-3.536,0.421-5.19,1.309c-5.354,2.873-7.365,9.541-4.492,14.895
				c9.127,17.01,20.594,32.461,34.102,45.944c17.401,17.368,43.696,43.616,84.909,47.876c3.809,0.394,7.535,0.577,11.172,0.577
				c34.733,0,61.339-16.7,74.731-26.173c-2.959,23.45-8.971,45.621-17.959,66.165c-32.362,73.975-105.224,132.769-210.706,170.027
				l-28.101,9.926l27.811,10.711c71.961,27.716,170.229,82.402,229.724,185.529l0.053,0.093
				c13.458,23.34,44.974,77.999,53.706,155.476c6.275,55.664,1.898,103.3-13.01,141.587c-6.575,16.893-14.678,34.219-29.325,46.518
				c-13.255,11.137-29.755,18.3-46.462,20.171c-3.019,0.339-6.139,0.512-9.329,0.512c-28.302,0-62.036-13.627-77.37-46.005
				c-11.94-25.233-9.602-55.429,5.958-76.925c3.506-4.844,22.514-29,52.594-29c0.004,0,0.011,0,0.015,0
				c6.174,0,37.393,1.077,45.669,22.34c4.474,11.494,2.32,29.091-10.486,39.059c-6.813,5.303-14.571,6.662-20.737,6.662
				c-6.219,0-10.817-1.383-11.188-1.497c-1.086-0.337-2.184-0.498-3.264-0.498c-4.692,0-9.038,3.028-10.501,7.745
				c-1.8,5.802,1.445,11.965,7.248,13.765c1.435,0.445,8.401,2.443,17.731,2.443c9.998,0,22.709-2.296,34.225-11.26
				c21.434-16.687,25.015-45.028,17.474-64.4c-10.435-26.808-41.023-36.359-66.168-36.359c-0.007,0-0.013,0-0.021,0
				c-40.767,0-65.806,31.736-70.413,38.101c-20.196,27.901-23.345,66.853-8.021,99.237c16.905,35.693,55.53,58.635,96.707,58.633
				c4.089,0,8.208-0.227,12.329-0.689c20.966-2.349,41.622-11.294,58.159-25.188c18.483-15.521,28.407-36.707,35.677-55.383
				c16.442-42.227,21.143-91.957,14.37-152.032c-9.245-82.031-43.582-141.583-56.508-164.001l-0.054-0.095
				c-55.77-96.672-143.328-152.752-214.969-184.372c97.332-39.622,165.276-98.723,197.339-172.012
				c13.268-30.326,20.594-63.773,21.776-99.415l0.905-27.302l-19.573,19.056c-4.409,4.293-9.144,8.29-14.078,11.884
				c-9.732,7.089-34.251,24.958-66.13,24.958c-2.854,0-5.772-0.144-8.738-0.451c-33.455-3.458-55.519-25.482-71.65-41.584
				c-11.959-11.938-22.133-25.649-30.238-40.756C88.118,1264.286,84.322,1262.184,80.4,1262.184L80.4,1262.184z"/>
		</g>
	</g>
	<g>
		<g>
			<path style="fill:#480000;" d="M814.358,16c55.148,0,110.192,10.92,159.182,31.579c25.164,10.612,48.716,23.761,70.003,39.082
				c21.996,15.832,41.684,34.07,58.518,54.21c44.884,53.696,75.499,126.591,90.996,216.66
				c17.922,104.167,20.001,216.273,6.18,333.204c-5.123,43.34-12.768,83.21-22.723,118.502
				c-11.981,42.475-27.45,78.797-45.977,107.958c-23.846,37.532-57.385,70.059-99.685,96.677
				c-34.945,21.989-75.431,39.465-120.334,51.942c-4.406,1.224-8.923,2.418-13.426,3.55
				c-43.383,10.902-91.078,17.518-145.813,20.228c-8.773,0.434-83.605,1.834-122.768,1.834c-3.752,0-6.895-0.013-9.527-0.034
				l0.076-17.802l0.071-16.719c5.183,0.109,10.332,0.164,15.412,0.164c150.367,0,263.51-47.208,327.199-136.522
				c76.219-106.885,91.534-234.146,96.363-333.074c6.552-134.259-4.62-237.831-35.159-325.949
				c-29.921-86.333-67.628-142.656-118.664-177.251c-36.151-24.504-79.871-37.457-126.435-37.457
				c-32.792,0-65.793,6.709-95.436,19.402c-67.582,28.938-123.937,90.322-150.749,164.204
				c-25.128,69.244-24.757,145.595-24.428,212.959l5.18,1062.605c0.573,117.4-0.374,231.975-18,343.001
				c-14.529,91.517-39.138,169.564-74.704,236.401c17.85-190.487-74.652-387.815-235.898-492.568
				c63.485-32.976,114.901-87.582,143.538-153.446c30.425-69.976,33.868-146.97,37.198-221.43l0.277-6.19
				c1.055-23.439,2.24-47.298,3.386-70.373c0.698-14.044,1.419-28.567,2.104-42.859l0.804-16.766h-16.786H274.91
				c-28.497,0-51.68,23.183-51.68,51.68s23.183,51.68,51.68,51.68c7.272,0,14.267-1.537,20.633-4.327
				c-1.246,19.758-5.99,41.79-17.482,63.261c-8.135,15.194-29.745,55.553-63.596,58.298c-1.236,0.1-2.496,0.151-3.745,0.151
				c-17.24,0-31.584-9.626-36.986-13.25c-24.556-16.475-33.763-43.266-39.856-60.994l-0.015-0.042
				c-4.86-14.163-13.004-44.243-18.944-69.968l-0.118-0.512c-2.306-9.998-5.465-23.691-17.241-36.049
				c-9.499-9.944-23.81-16.629-43.759-20.436c-9.219-1.755-18.756-2.682-28.369-2.761c7.261-12.357,21.646-32.025,45.802-46.669
				c27.095-16.425,52.779-18.387,68.126-19.559c4.076-0.312,7.831-0.463,11.479-0.463c12.182,0,22.789,1.748,38.843,4.393
				c9.734,1.604,21.849,3.6,37.285,5.674c31.758,4.271,58.119,6.069,77.537,7.158l0.448,0.025h0.448h51.78h15.392l0.596-15.381
				c2.575-66.45,4.788-154.085-1.004-242.672c-5.76-88.102-20.897-200.38-87.386-287.331
				c-48.023-62.802-126.11-103.381-198.936-103.381c-14.261,0-28.118,1.492-41.486,4.458c0.309-0.582,0.618-1.161,0.927-1.738
				c3.076-5.741,5.967-10.211,10.081-13.367c15.424-11.829,30.797-22.901,49.26-28.384c12.715-3.776,26.784-5.982,43.011-6.744
				c10.29-0.483,21.018-0.497,31.392-0.51c27.543-0.034,56.024-0.069,83.823-8.403c55.887-16.754,93.974-61.28,130.808-104.339
				c5.252-6.139,10.682-12.487,16-18.549c45.931-52.351,97.154-96.118,152.244-130.086c59.257-36.536,121.036-60.388,183.622-70.893
				C768.044,17.917,791.203,16,814.358,16 M814.358,0c-23.995,0-47.947,1.967-71.482,5.918
				C608.053,28.549,487.793,109.36,397.632,212.124c-40.761,46.458-80.174,100.367-139.376,118.115
				c-35.779,10.726-74.061,6.503-111.372,8.256c-15.794,0.742-31.632,2.88-46.815,7.389c-20.655,6.134-37.543,18.065-54.443,31.026
				c-6.456,4.951-10.638,11.396-14.448,18.507c-3.397,6.342-6.67,12.753-10.004,19.128c-1.744,3.336-3.489,6.672-5.234,10.008
				c-0.874,1.672-2.828,7.668-4.428,8.469c23.561-11.529,48.828-16.77,74.328-16.77c70.235,0,142.34,39.709,186.226,97.1
				c59.818,78.228,77.706,180.388,84.13,278.656c5.246,80.239,4.097,160.62,0.982,241.009H305.4c-17.48-0.98-43.96-2.69-76.3-7.04
				c-40.871-5.493-56.778-10.21-78.26-10.21c-3.978,0-8.145,0.161-12.7,0.51c-17.28,1.32-45.44,3.79-75.2,21.83
				c-37.89,22.969-53.91,56.35-57,63.07c-2.36,5.12-4.32,10.19-5.94,15.17c8.827-1.375,16.901-1.894,24.096-1.894
				c11.17,0,20.224,1.249,26.714,2.484c23.21,4.43,31.77,12.2,35.18,15.77c8.91,9.35,11.25,20.06,13.34,29.11
				c6.02,26.07,14.26,56.58,19.4,71.561c6.43,18.709,17.04,49.64,46.09,69.13c6.42,4.308,23.797,15.964,45.9,15.964
				c1.655,0,3.335-0.065,5.04-0.204c42.55-3.45,67.42-49.91,76.41-66.7c21.81-40.75,21.67-82.56,17.7-110.97
				c-3.33,16.26-17.71,28.49-34.96,28.49c-19.7,0-35.68-15.979-35.68-35.68c0-19.71,15.98-35.68,35.68-35.68h79.425
				c-1.811,37.77-3.793,75.534-5.492,113.279c-3.391,75.336-6.095,152.801-36.165,221.959
				c-30.943,71.168-90.882,129.215-163.007,157.861c194.32,109.163,298.314,357.614,239.697,572.65
				c135.757-183.426,140.16-429.402,139.047-657.599c-1.727-354.202-3.454-708.404-5.18-1062.605
				c-0.341-69.968-0.4-141.651,23.469-207.422c24.58-67.733,75.768-126.592,142.006-154.953
				c28.017-11.996,58.632-18.111,89.138-18.111c41.618,0,83.041,11.372,117.457,34.701
				c57.075,38.688,89.944,104.094,112.524,169.246c34.993,100.968,39.459,214.122,34.296,319.93
				c-5.588,114.501-25.366,229.144-93.409,324.564c-71.399,100.127-196.343,129.811-314.171,129.811
				c-10.521,0-20.977-0.236-31.342-0.681c-0.094,22.111-0.188,44.223-0.282,66.334c-0.003,0.534,10.34,0.737,25.592,0.737
				c40.205,0,114.543-1.407,123.559-1.853c50.108-2.481,100.2-8.448,148.92-20.691c4.616-1.16,9.22-2.377,13.81-3.652
				c43.734-12.152,86.099-29.606,124.573-53.816c41.517-26.125,78.252-60.06,104.668-101.639
				c42.09-66.249,61.871-155.215,71.084-233.162c13.264-112.215,12.859-226.436-6.301-337.795
				c-13.913-80.865-41.864-161.252-94.488-224.208C1041.965,44.028,927.824,0,814.358,0L814.358,0z"/>
		</g>
	</g>
</g>
</svg>
