<?xml version="1.0" encoding="iso-8859-1"?>
<!-- Generator: Adobe Illustrator 24.0.1, SVG Export Plug-In . SVG Version: 6.00 Build 0)  -->
<svg version="1.1" xmlns="http://www.w3.org/2000/svg" xmlns:xlink="http://www.w3.org/1999/xlink" x="0px" y="0px"
	 viewBox="0 0 2314.067 2185.767" style="enable-background:new 0 0 2314.067 2185.767;" xml:space="preserve">
<g id="Layer_5">
	<linearGradient id="SVGID_1_" gradientUnits="userSpaceOnUse" x1="1157.0337" y1="1370.2067" x2="1157.0337" y2="41.6853">
		<stop  offset="0" style="stop-color:#8B1D1A"/>
		<stop  offset="0.25" style="stop-color:#550000"/>
		<stop  offset="0.5" style="stop-color:#3A0000"/>
		<stop  offset="0.75" style="stop-color:#1E0000"/>
		<stop  offset="1" style="stop-color:#000000"/>
	</linearGradient>
	<path style="fill:url(#SVGID_1_);" d="M2199.563,1789.205c2.78,15.24,4.49,33.43,3.24,53.77c-1.19,19.35-3.71,60.33-27.58,94.12
		c-48.43,68.54-158.65,70.62-215.01,55.17c-15.83-4.34-48.76-15.93-84.38-34.89c-17.58-9.36-30.3-17.59-35.7-21.1
		c-148.91-96.77-223.36-145.16-294.52-194.72c-12.26-8.54-34.58-24.01-64.67-43.62l0,0l0,0c26.68-29.58,45.33-55.75,57.26-72.74
		c77.5-110.33,103.13-215.47,122.78-296.03c4.5-18.47,29.5-121,29.83-173.26c0.03-5.01-0.07-24.72,4.59-50.49
		c0,0,4.23-23.43,11.47-43.6c8.16-22.74,38.31-54.61,85.46-86.26c-12.07-5.44-23.24-11.53-32.67-18.15
		c-9.65-6.77-28.71-20.14-42.46-44.75c-5.49-9.83-8.97-19.37-13.77-37.87c-11.26-43.44-14.7-78.14-14.91-80.32
		c-4.17-42.05-8.21-82.8-14.92-121.62c-7.72-44.67-17.68-79.33-29.83-121.63c-12.29-42.74-23.29-74.74-25.25-80.32
		c-83-236.91-306.36-352.25-306.36-352.25c-108.74-56.16-209.74-71.97-247.84-73.53c-32.29-1.32-60.21-6.45-79.36-5.24h-26.98
		h-26.98c-19.15-1.21-47.07,3.92-79.36,5.24c-38.1,1.56-139.1,17.37-247.84,73.53c0,0-223.36,115.34-306.36,352.25
		c-1.96,5.58-12.96,37.58-25.25,80.32c-12.15,42.3-22.11,76.96-29.83,121.63c-6.71,38.82-10.75,79.57-14.92,121.62
		c-0.21,2.18-3.65,36.88-14.91,80.32c-4.8,18.5-8.28,28.04-13.77,37.87c-13.75,24.61-32.81,37.98-42.46,44.75
		c-9.43,6.62-20.6,12.71-32.67,18.15c47.15,31.65,77.3,63.52,85.46,86.26c7.24,20.17,11.47,43.6,11.47,43.6
		c4.66,25.77,4.56,45.48,4.59,50.49c0.33,52.26,25.33,154.79,29.83,173.26c8.192,33.583,17.426,71.448,31.025,112.176
		c-23.87,9.368-47.302,19.899-70.184,31.664c-51.741,26.59-108.251,56.47-154.971,120.89c-20.43,28.16-61.22,86.11-60.85,168.76
		c0.09,19.61,2.63,72.51,34.89,127.38c37.85,64.39,94.47,93.79,124.13,108.72c173.45,87.25,415.83,38.82,504.66,17.54
		c75.545-18.095,177.771-52.985,293.425-109.42h0.875h29.43c36.58,0,85.33-0.92,140.02-10.48c96.71-16.89,165.58-56.57,189.32-69.25
		c46.87-25.03,85.7-53.95,117.44-82.48l0,0c0.001,0,0.001,0.001,0.002,0.001c29.909,21.629,54.469,40.659,73.288,55.309
		c93.19,72.57,178.49,150.91,178.49,150.91c80.98,74.36,98.11,98.85,159.03,140.36c94.72,64.55,164.77,81.3,192.29,86.81
		c82.47,16.53,131.08,1.87,141.98-1.62c17.93-5.74,54.31-17.88,86-51.92c0,0,32.69-35.11,45.44-88.44
		C2326.653,1969.406,2285.163,1875.326,2199.563,1789.205z M449.953,1113.636c-3.25-64.81-7.59-156.65-0.7-278.91
		c5.21-92.56,10.32-176.35,35.65-285.2c24.2-104.02,52.3-168.35,65.71-197.13c40.74-87.46,78.84-132.16,103.45-157.28
		c32.95-33.63,59.15-49.93,72-57.32c39.79-22.86,75.03-27.8,97.17-32.65c25.84-5.66,63.39-8.51,109.08-8.25l0.16-0.02h25.51h25.51
		l0.16,0.02c45.69-0.26,83.24,2.59,109.08,8.25c22.14,4.85,57.38,9.79,97.17,32.65c12.85,7.39,39.05,23.69,72,57.32
		c24.61,25.12,62.71,69.82,103.45,157.28c13.41,28.78,41.51,93.11,65.71,197.13c25.33,108.85,30.44,192.64,35.65,285.2
		c6.89,122.26,2.55,214.1-0.7,278.91c-8.37,167.07-27,254.31-32.15,277.52c-13.04,58.68-27.46,101.9-33.56,119.53
		c-6.57,19.01-23.32,67.44-44.73,109.05c-0.21,0.41-0.43,0.84-0.66,1.27l0,0c-176.995-100.78-357.069-189.575-559.987-223.954
		c-102.382-17.346-209.027-20.476-312.885-6.178C476.806,1367.258,458.29,1280.057,449.953,1113.636z M502.421,1972.333
		c-69.996,3.599-141.874-0.979-206.696-27.633c-99.832-41.05-172.905-141.619-148.874-252.628
		c13.734-63.414,61.034-112.132,113.443-147.059c17.039-11.355,35.203-21.598,54.151-30.789
		c16.231,35.858,36.723,73.116,63.317,110.972c28.75,40.95,96.6,135.27,221.45,201.95c23.74,12.68,92.61,52.36,189.32,69.25
		c9.738,1.704,19.277,3.058,28.602,4.151C715.921,1939.786,612.039,1966.697,502.421,1972.333z M1126.283,1830.536
		c-17.5,6.05-42.15,11.27-73.41,14.36h-0.01c-20.33,2.02-43.47,3.13-69.25,2.99l-0.12-0.01h-25.51h-25.51l-0.12,0.01
		c-65.43,0.36-113.78-7.37-142.67-17.35c-141.91-49.02-209.38-172.12-229.29-210.8c-21.41-41.61-38.16-90.04-44.73-109.05
		c-3.453-9.995-9.591-28.208-16.632-52.794c11.264-1.851,22.457-3.451,33.52-4.794c99.63-12.1,201.267-4.539,299.071,17.116
		c12.528,2.774,25.008,5.768,37.434,8.965c103.653,26.671,203.082,67.52,299.244,114.108
		c52.337,25.356,105.062,51.871,156.04,81.098C1288.771,1729.096,1225.87,1796.135,1126.283,1830.536z"/>
</g>
<g id="Layer_7">
	<g>
		<path style="fill:#BFCBC2;" d="M346.489,925.701c73.691-40.297,86.193,109.458-0.041,98.558
			c-14.273-2.969-26.398-13.874-33.874-28.162c-41.406-122.444-114.384,22.01-56.106,14.561
			c-55.339,22.28-37.947-116.074,43.676-80.161c24.355,13.346,26.883,43.017,43.769,63.229
			C391.125,1025.96,416.159,907.268,346.489,925.701z"/>
	</g>
	<g>
		<path style="fill:#BFCBC2;" d="M395.496,1250.377c-93.342-36.56-93.209-115.714-72.955-191.851
			c1.473-44.754-59.778-42.317-55.816,3.829c-18.411-55.069,64.879-71.206,76.094-14.05
			C348.635,1118.191,296.902,1172.548,395.496,1250.377z"/>
	</g>
	<g>
		<path style="fill:#BFCBC2;" d="M249.466,810.547c26.63-41.175,74.988,13.788,72.391,49.522
			c-4.53,62.283-36.231,84.688,12.007,140.613c-50.059-30.959-45.781-77.464-30.664-128.496
			C312.598,836.214,279.398,781.344,249.466,810.547z"/>
	</g>
	<g>
		<path style="fill:#BFCBC2;" d="M404.972,889.3c34.222-60.434-10.507-88.656-47.991-59.346
			c-48.999,47.629-71.11,147.436,3.912,179.018c-97.357-13.622-82.395-153.422-17.771-199.709
			C408.715,767.479,461.213,837.68,404.972,889.3z"/>
	</g>
	<g>
		<path style="fill:#BFCBC2;" d="M255.799,690.457c89.299-27.147,115.011,129.945,54.829,174.543
			C357.495,787.17,309.286,676.628,255.799,690.457z"/>
	</g>
	<g>
		<path style="fill:#BFCBC2;" d="M283.153,621.5c115.165-69.027,168.134,176.271,69.151,199.947
			c-13.536,6.192-31.36,19.859-27.971,37.535c-14.451-35.415,34.708-49.348,50.249-75.175
			C390.96,722.334,373.279,592.67,283.153,621.5z"/>
	</g>
	<g>
		<path style="fill:#BFCBC2;" d="M273.112,658.756c79.625-19.819,132.485,73.306,106.924,147.144
			C381.197,740.195,351.976,661.585,273.112,658.756z"/>
	</g>
	<g>
		<path style="fill:#BFCBC2;" d="M462.202,565.142c3.259-76.974-128.289-26.623-69.54,134.655
			c-35.873-41.859-43.86-120.83-4.76-164.741C414.777,501.353,480.814,517.093,462.202,565.142z"/>
	</g>
	<g>
		<path style="fill:#BFCBC2;" d="M342.2,573.46c-44.854-13.959-29.444-85.152,11.183-98.769
			c28.906-9.104,51.627,20.849,49.029,48.844c-2.051,25.322-17.846,44.595-24.137,72.185c-7.037,31.164-6.005,54.397,2.165,85.241
			c-53.545-93.656,13.323-140.635-4.559-175.682C359.818,465.319,295.627,543.607,342.2,573.46z"/>
	</g>
	<g>
		<path style="fill:#BFCBC2;" d="M459.448,376.005c43.13,19.547,21.142,106.37-26.965,111.668
			c-74.585,6.556-88.1-93.12-19.26-113.278c-70.595,45.329-2.019,133.102,45.03,75.268
			C471.401,430.453,481.529,393.576,459.448,376.005z"/>
	</g>
	<g>
		<path style="fill:#BFCBC2;" d="M507.349,432.25c0.663-77.087-64.719-121.507-113.912-83.452
			C450.442,283.133,531.882,364.492,507.349,432.25z"/>
	</g>
	<g>
		<path style="fill:#BFCBC2;" d="M480.086,289.209c-30.273,36.659,42.973,53.235,31.739,2.61
			c-25.762-51.805-89.981,3.545-48.693,41.681c-70.397-48.934,39.742-124.401,66.536-44.605
			C539.499,369.298,429.02,331.667,480.086,289.209z"/>
	</g>
	<g>
		<path style="fill:#BFCBC2;" d="M550.946,307.38c17.985-51.695-27.035-95.184-62.385-63.458
			C528.989,192.717,585.378,263.321,550.946,307.38z"/>
	</g>
	<g>
		<path style="fill:#BFCBC2;" d="M652.399,117.054c11.609,70.159-65.218,53.88-85.948,70.397
			c-29.08,19.547-0.964,59.705,22.08,33.555c-24.491,41.577-70.362-16.906-30.307-45.61
			C587.33,150.099,646.615,182.909,652.399,117.054z"/>
	</g>
	<g>
		<path style="fill:#BFCBC2;" d="M470.751,574.389c-114.786-1.291-38.415,158.992-90.241,214.615
			c19.336-44.836-3.48-98.387,3.378-147.645C387.922,598.806,426.133,554.731,470.751,574.389z"/>
	</g>
	<g>
		<path style="fill:#BFCBC2;" d="M241.167,902.468c-33.49-27.598,17.516-77.015,50-26.821c19.57,31.42,3.064,81.99,31.879,109.688
			c-38.938-22.322-25.982-70.928-46.37-105.691C258.789,849.456,221.11,874.219,241.167,902.468z"/>
	</g>
	<g>
		<path style="fill:#BFCBC2;" d="M445.628,961.243c-43.129,64.084-104.026,137.257-78.557,222.482
			C316.377,1106.386,382.765,1008.369,445.628,961.243z"/>
	</g>
	<g>
		<path style="fill:#BFCBC2;" d="M371.636,857.2c-8.412,24.314,17.856,65.583,43.627,37.895
			c15.133-28.493-2.645-97.747-44.241-78.143c45.652-34.826,82.006,52.569,56.302,87.471
			C395.615,941.198,348.796,894.672,371.636,857.2z"/>
	</g>
	<path style="fill:#BFCBC2;" d="M252.674,985.746c1.063-19.043,27.414-17.614,28.031,0.001
		C279.642,1004.788,253.291,1003.359,252.674,985.746z"/>
	<path style="fill:#BFCBC2;" d="M447.385,420.622c-1.744-26.81-37.958-23.944-38.542,0
		C410.587,447.432,446.801,444.566,447.385,420.622z"/>
	<path style="fill:#BFCBC2;" d="M485.431,301.748c0.027-8.025,13.063-9.774,14.015,0.001
		C499.419,309.773,486.383,311.521,485.431,301.748z"/>
	<path style="fill:#BFCBC2;" d="M332.014,895.646c1.063-19.043,27.414-17.614,28.031,0.001
		C358.982,914.689,332.631,913.26,332.014,895.646z"/>
	<g>
		<path style="fill:#BFCBC2;" d="M1578.387,925.701c-69.989-19.553-43.54,104.715,4.064,66.438
			c75.938-173.463,170.074,36.333,85.956,18.52c57.824,7.317-13.461-136.196-56.104-14.561
			c-7.263,13.235-17.554,24.573-33.877,28.162C1489.808,1033.406,1506.603,885.134,1578.387,925.701z"/>
	</g>
	<g>
		<path style="fill:#BFCBC2;" d="M1529.38,1250.377c106.124-79.956,39.762-167.872,52.675-202.072
			c12.122-58.469,94.751-40.335,76.095,14.05c5.359-42.381-58.08-52.792-55.745-1.584
			C1626.17,1143.888,1615.234,1217.165,1529.38,1250.377z"/>
	</g>
	<g>
		<path style="fill:#BFCBC2;" d="M1675.409,810.547c-31.039-29.261-60.383,26.525-54.573,55.836
			c13.186,56.449,24.693,98.745-29.825,134.299c51.97-54.898,9.515-101.953,12.145-143.443
			C1605.148,811.904,1653.79,774.331,1675.409,810.547z"/>
	</g>
	<g>
		<path style="fill:#BFCBC2;" d="M1519.903,889.3c-61.769-62.557,8.102-119.982,64.323-78.231
			c68.805,57.572,70.628,185.29-20.244,197.903c74.993-29.256,52.944-138.828-0.801-182.61
			C1510.378,797.279,1494.553,850.506,1519.903,889.3z"/>
	</g>
	<g>
		<path style="fill:#BFCBC2;" d="M1669.076,690.457c-77.252-7.603-89.179,129.507-54.829,174.543
			C1535.895,787.208,1610.125,658.919,1669.076,690.457z"/>
	</g>
	<g>
		<path style="fill:#BFCBC2;" d="M1641.723,621.5c-88.649-30.032-110.546,104.356-90.053,164.813
			c14.869,22.071,62.86,37.71,48.873,72.669c3.041-18.8-15.609-32.679-33.395-40.165
			C1469.918,783.902,1536.079,552.174,1641.723,621.5z"/>
	</g>
	<g>
		<path style="fill:#BFCBC2;" d="M1651.763,658.756c-73.29-0.384-110.494,82.415-106.924,147.144
			C1521.938,736.051,1564.513,640.285,1651.763,658.756z"/>
	</g>
	<g>
		<path style="fill:#BFCBC2;" d="M1462.673,565.142c-20.057-45.59,48.723-67.08,78.223-25.574
			c33.924,45.063,26.922,117.86-8.683,160.229C1590.509,540.349,1460.732,486.626,1462.673,565.142z"/>
	</g>
	<g>
		<path style="fill:#BFCBC2;" d="M1582.676,573.46c45.365-24.638-15.456-114.561-35.62-63.089
			c-7.247,41.009,47.136,89.331-2.62,170.591c8.223-28.788,9.442-60.014,0.521-91.441c-53.394-107.531,7.451-127.464,35.793-110.638
			C1612.117,497.088,1625.874,559.778,1582.676,573.46z"/>
	</g>
	<g>
		<path style="fill:#BFCBC2;" d="M1465.428,376.005c-23.115,15.138-11.344,65.167,8.655,81.827
			c48.041,39.158,104.219-39.74,37.57-83.437c69.734,20.103,53.258,120.317-19.261,113.28
			C1439.346,480.013,1425.392,392.366,1465.428,376.005z"/>
	</g>
	<g>
		<path style="fill:#BFCBC2;" d="M1417.527,432.25c-23.957-89.413,71.972-139.866,113.912-83.452
			C1470.289,304.698,1413.864,373.897,1417.527,432.25z"/>
	</g>
	<g>
		<path style="fill:#BFCBC2;" d="M1444.789,289.209c48.984,41.005-52.382,78.284-50.469,5.013
			c21.601-89.943,139.962-9.638,67.424,39.278c45.912-48.613-38.58-93.583-50.116-33.863
			C1411.815,340.926,1473.114,323.356,1444.789,289.209z"/>
	</g>
	<g>
		<path style="fill:#BFCBC2;" d="M1373.929,307.38c-37.574-58.769,33.518-108.684,62.385-63.458
			C1393.72,209.169,1356.693,266.554,1373.929,307.38z"/>
	</g>
	<g>
		<path style="fill:#BFCBC2;" d="M1272.477,117.054c5.96,63.581,55.338,32.551,94.178,58.338
			c43.008,34.923-10.193,84.686-30.31,45.614c18.561,22.987,46.91-5.794,28.325-27.77
			C1343.107,164.491,1261.338,193.961,1272.477,117.054z"/>
	</g>
	<g>
		<path style="fill:#BFCBC2;" d="M1454.124,574.389c44.525-20.057,84.798,26.438,87.268,70.135
			c5.972,48.437-16.297,98.784,2.973,144.48C1492.224,732.417,1569.291,573.457,1454.124,574.389z"/>
	</g>
	<g>
		<path style="fill:#BFCBC2;" d="M1683.709,902.468c20.324-28.11-18.655-53.878-36.897-20.635
			c-17.939,33.458-7.92,83.683-44.982,103.502c10.077-9.32,16.519-26.385,18.3-42.755
			C1622.097,799.488,1728.811,864.188,1683.709,902.468z"/>
	</g>
	<g>
		<path style="fill:#BFCBC2;" d="M1479.248,961.243c63.462,51.031,129.125,138.159,78.557,222.482
			C1583.901,1103.977,1522.157,1022.778,1479.248,961.243z"/>
	</g>
	<g>
		<path style="fill:#BFCBC2;" d="M1553.24,857.2c23.644,42.877-29.308,83.426-57.284,44.893
			c-22.625-35.774,12.567-119.576,57.898-85.141c-40.745-20.057-61.266,52.206-42.674,80.283
			C1534.99,919.784,1561.961,883.507,1553.24,857.2z"/>
	</g>
	<path style="fill:#BFCBC2;" d="M1672.201,985.746c-1.063-19.043-27.414-17.614-28.031,0.001
		C1645.234,1004.788,1671.584,1003.359,1672.201,985.746z"/>
	<path style="fill:#BFCBC2;" d="M1477.491,420.622c1.744-26.81,37.958-23.944,38.542,0
		C1514.289,447.432,1478.074,444.566,1477.491,420.622z"/>
	<path style="fill:#BFCBC2;" d="M1439.445,301.748c-0.027-8.025-13.063-9.774-14.015,0.001
		C1425.457,309.773,1438.493,311.521,1439.445,301.748z"/>
	<path style="fill:#BFCBC2;" d="M1592.861,895.646c-1.063-19.043-27.414-17.614-28.031,0.001
		C1565.894,914.689,1592.244,913.26,1592.861,895.646z"/>
	<g>
		<path style="fill:#BFCBC2;" d="M2229.407,2122.605c54.257-57.87-32.77-119.774-58.803-53.99
			C2189.072,1977.988,2311.512,2067.106,2229.407,2122.605z"/>
	</g>
	<g>
		<path style="fill:#BFCBC2;" d="M2153.474,2156.438c95.075-35.071,57.415-109.59,16.406-89.019
			C2228.245,2028.57,2260.007,2147.616,2153.474,2156.438z"/>
	</g>
	<g>
		<path style="fill:#BFCBC2;" d="M2120.025,2138.435c18.82,35.163,90.128-30.668,51.345-72.067
			C2229.64,2110.397,2136.474,2188.493,2120.025,2138.435z"/>
	</g>
	<g>
		<path style="fill:#BFCBC2;" d="M2099.272,2040.329c-43.981,50.328,47.91,95.278,73.158,22.103
			C2158.227,2160.71,2030.707,2091.743,2099.272,2040.329z"/>
	</g>
	<g>
		<path style="fill:#BFCBC2;" d="M2186.997,1979.963c-83.013,15.709-68.438,123.71-13.205,86.279
			c-19.97,30.697-64.905,6.629-57.669-33.979C2119.395,2004.832,2160.016,1971.248,2186.997,1979.963z"/>
	</g>
	<g>
		<path style="fill:#BFCBC2;" d="M2234.812,1982.04c-66.844-12.523-104.193,71.982-60.432,91.073
			C2108.364,2053.414,2170.275,1947.84,2234.812,1982.04z"/>
	</g>
	<g>
		<path style="fill:#BFCBC2;" d="M2274.347,2057.91c2.049-45.028-56.704-77.507-91.983-29.398
			C2200.345,1974.466,2290.158,1990.786,2274.347,2057.91z"/>
	</g>
	<g>
		<path style="fill:#BFCBC2;" d="M2287.135,2044.159c-4.46-66.109-56.855-105.663-98.147-71.524
			C2236.916,1914.909,2303.672,1986.713,2287.135,2044.159z"/>
	</g>
	<g>
		<path style="fill:#BFCBC2;" d="M2099.48,2013.619c-82.7,19.309-40.758,125.523,14.362,153.339
			C1999.316,2127.929,2033.43,2002.133,2099.48,2013.619z"/>
	</g>
	<g>
		<path style="fill:#BFCBC2;" d="M2000.707,2122.361c-12.597,46.121-82.537-12.103-16.176-52.707
			c59.915-29.477,87.568,65.383,26.659,75.449c15.606-5.793,28.691-25.709,21.684-44.622c-12.218-35.245-55.05-19.684-63.691,8.224
			C1963.764,2130.888,1990.593,2143.334,2000.707,2122.361z"/>
	</g>
	<g>
		<path style="fill:#BFCBC2;" d="M2030.847,2004.682c-64.853,19.165-29.551,104.725,25.105,43.93
			C2006.773,2136.014,1938.734,2014.192,2030.847,2004.682z"/>
	</g>
	<g>
		<path style="fill:#BFCBC2;" d="M1910.717,2068.43c1.603,19.686-31.307,23.158-34.97-4.949
			c-1.944-32.304,37.512-52.977,66.271-39.892c83.678,55.26-30.559,115.319-17.996,50.743c3.104,56.048,74.499-20.028-1.869-37.81
			C1863.838,2039.108,1890.975,2104.568,1910.717,2068.43z"/>
	</g>
	<g>
		<path style="fill:#BFCBC2;" d="M1904.616,2010.711c-23.146-44.521-91.465,46.002-30.126,67.665l-0.059,1.306
			c-3.094-0.351-4.74-0.582-4.74-0.582s1.638-0.281,4.72-0.728l-0.059,1.306C1789.591,2061.892,1883.34,1946.953,1904.616,2010.711z
			"/>
	</g>
	<g>
		<path style="fill:#BFCBC2;" d="M1753.028,1911.091c-8.079,18.084-19.619,61.473,12.698,64.128
			c25.518-2.336,46.823-28.686,74.828-16.12c54.595,29.203-6.325,109.421-44.454,72.501c39.29,22.542,72.839-52.756,28.831-56.166
			C1717.369,2023.082,1722.454,1946.401,1753.028,1911.091z"/>
	</g>
</g>
<g id="Layer_4">
	<g>
		<g>
			<path style="fill:#FFB400;" d="M658,137.001c-10.948,9.137-21.801,19.191-32.51,30.121
				c-41.951,42.82-78.304,97.899-111.135,168.379c-27.471,58.956-50.488,127.915-68.412,204.958
				c-26.633,114.448-31.714,204.719-36.627,292.015c-7.15,126.879-2.434,220.929,0.687,283.162
				c5.638,112.532,17.352,213.354,32.985,283.892l5.781,26.083l-0.563,0.093l2.583,9.018l0.179,0.806l0.05-0.007l9.56,33.382
				c5.437,18.984,11.089,36.924,17.28,54.848c6.623,19.162,24.215,70.065,46.971,114.29c42.141,81.869,98.9,146.005,166.799,189.228
				c-31.173-12.479-54.541-25.123-68.284-32.559c-1.95-1.055-3.713-2.008-5.286-2.849
				c-119.045-63.58-183.349-155.171-207.563-189.66c-23.304-33.173-42.802-67.347-59.607-104.473l-14.944-33.016l0.035-0.014
				l-12.029-36.027c-13.064-39.127-22.109-76.208-30.09-108.924l-0.013-0.052l-0.022-0.088
				c-18.031-74.007-28.482-133.767-28.672-163.943l-0.003-0.602c-0.032-7.068-0.127-28.575-5.223-56.755
				c-0.197-1.09-4.916-26.97-13.184-50.003c-8.96-24.971-30.367-49.121-52.843-69.118c12.112-9.934,27.56-25.145,39.786-47.028
				c8.256-14.783,12.693-28.548,17.568-47.338c11.805-45.542,15.578-82.113,15.999-86.457c4.147-41.823,8.065-81.327,14.526-118.708
				c7.343-42.489,16.824-75.498,28.828-117.289l0.028-0.099c12.906-44.883,24.078-76.782,24.558-78.148
				c17.459-49.834,43.182-98.043,76.453-143.286c26.92-36.605,58.824-71.385,94.827-103.372
				c61.649-54.773,114.655-82.738,115.726-83.299C633.955,148.094,645.894,142.371,658,137.001 M1257.965,137.001
				c12.111,5.372,24.058,11.099,35.82,17.173c1.565,0.822,54.357,28.781,115.707,83.289c36.003,31.988,67.907,66.767,94.827,103.372
				c33.272,45.244,58.994,93.452,76.464,143.317c0.469,1.336,11.641,33.235,24.544,78.107l0.031,0.111
				c12.004,41.791,21.485,74.799,28.829,117.29c6.455,37.345,10.372,76.814,14.52,118.642c0.389,4.035,4.14,40.748,16.008,86.531
				c4.873,18.78,9.309,32.545,17.569,47.334c12.224,21.879,27.673,37.09,39.783,47.022c-22.476,19.996-43.882,44.145-52.842,69.114
				c-8.269,23.037-12.989,48.917-13.184,49.996c-5.096,28.182-5.193,49.69-5.225,56.758l-0.003,0.597
				c-0.191,30.189-10.641,89.949-28.672,163.956l-0.019,0.078l-0.018,0.074c-19.379,79.448-43.497,178.325-116.637,282.449
				c-9.765,13.907-27.942,39.794-54.227,68.936l-23.201,25.723l-0.325-0.163l-20.261,18.212
				c-33.548,30.155-70.404,56.043-109.545,76.946c-1.572,0.84-3.335,1.793-5.285,2.848c-13.281,7.186-35.558,19.238-65.173,31.302
				c62.509-39.633,104.233-89.538,130.427-129.828l23.056-35.464l-1.454-0.834l10.706-20.016c0.349-0.653,0.685-1.305,1.004-1.928
				l0,0c22.731-44.199,40.302-95.043,46.916-114.179c13.287-38.401,25.323-81.256,34.81-123.945
				c11.085-49.961,25.817-139.82,33.049-284.181c3.121-62.235,7.837-156.285,0.687-283.162
				c-4.914-87.299-9.995-177.57-36.627-292.016c-17.924-77.044-40.941-146.003-68.41-204.956
				c-32.832-70.483-69.185-125.562-111.138-168.384C1279.765,156.192,1268.913,146.139,1257.965,137.001 M278.233,1487.787
				c-14.104,7.54-27.541,15.555-40.122,23.94c-71.203,47.453-116.278,106.887-130.355,171.881
				c-26.152,120.809,46.503,246.172,172.756,298.086c31.842,13.094,66.555,22.057,104.93,27.03
				c-82.415-2.192-152.458-17.539-208.436-45.697c-12.045-6.063-32.203-16.21-52.692-31.866
				c-22.708-17.352-41.193-38.009-54.941-61.398c-25.326-43.076-29.273-85.71-29.372-107.286
				c-0.134-29.967,6.3-59.665,19.125-88.271c10.628-23.707,23.176-41.76,34.106-56.826c42.084-58.028,94.568-85,140.88-108.801
				C248.386,1501.241,263.156,1494.281,278.233,1487.787 M1621.806,1841.467c50.072,33.172,111.097,72.829,196.527,128.346
				c5.267,3.424,19.259,12.518,38.705,22.872c36.476,19.416,71.75,32.441,92.6,38.157c21.831,5.985,48.337,9.28,74.636,9.28
				c80.792,0,147.717-29.138,183.62-79.948c14.599-20.666,22.904-42.977,27.74-62.968c8.254,13.136,15.317,26.213,21.074,39.072
				c15.667,34.997,20.89,66.289,15.102,90.496c-9.76,40.825-34.646,69.171-35.921,70.6c-25.197,27.004-54.648,36.431-68.813,40.966
				c-14.955,4.788-34.987,7.426-56.405,7.426c-20.53,0-42.573-2.332-65.525-6.932c-7.703-1.542-31.144-6.235-64.11-19.25
				c-36.934-14.58-75.122-35.235-113.509-61.395c-38.827-26.456-57.943-44.882-92.645-78.332
				c-15.972-15.396-35.85-34.556-61.852-58.433C1710.706,1919.291,1673.548,1885.23,1621.806,1841.467 M991.223,39.692
				c-2.179,0-4.267,0.057-6.261,0.183h-26.98h-26.98c-1.993-0.126-4.083-0.183-6.261-0.183c-18.75,0-44.17,4.241-73.099,5.423
				c-38.1,1.56-139.1,17.37-247.84,73.53c0,0-223.36,115.34-306.36,352.25c-1.96,5.58-12.96,37.58-25.25,80.32
				c-12.15,42.3-22.11,76.96-29.83,121.63c-6.71,38.82-10.75,79.57-14.92,121.62c-0.21,2.18-3.65,36.88-14.91,80.32
				c-4.8,18.5-8.28,28.04-13.77,37.87c-13.75,24.61-32.81,37.98-42.46,44.75c-9.43,6.62-20.6,12.71-32.67,18.15
				c47.15,31.65,77.3,63.52,85.46,86.26c7.24,20.17,11.47,43.6,11.47,43.6c4.66,25.77,4.56,45.48,4.59,50.49
				c0.33,52.26,25.33,154.79,29.83,173.26c8.192,33.583,17.426,71.448,31.025,112.175c-23.87,9.368-47.302,19.9-70.184,31.664
				c-51.741,26.59-108.251,56.47-154.971,120.89c-20.43,28.16-61.22,86.11-60.85,168.76c0.09,19.61,2.63,72.51,34.89,127.38
				c37.85,64.39,94.47,93.79,124.13,108.72c75.471,37.964,164.013,50.242,247.257,50.242c108.069,0,207.224-20.682,257.403-32.702
				c75.545-18.095,177.771-52.985,293.425-109.42h0.875h29.43c36.58,0,85.33-0.92,140.02-10.48
				c96.71-16.89,165.58-56.57,189.32-69.25c46.87-25.03,85.7-53.95,117.44-82.48c0.001,0,0.001,0.001,0.002,0.001
				c29.909,21.629,54.468,40.659,73.288,55.309c93.19,72.57,178.49,150.91,178.49,150.91c80.98,74.36,98.11,98.85,159.03,140.36
				c94.72,64.55,164.77,81.3,192.29,86.81c28.576,5.728,53.093,7.711,73.378,7.711c38.258,0,61.479-7.05,68.602-9.331
				c17.93-5.74,54.31-17.88,86-51.92c0,0,32.69-35.11,45.44-88.44c15.94-66.67-25.55-160.75-111.15-246.87
				c2.781,15.24,4.49,33.43,3.24,53.77c-1.189,19.35-3.709,60.33-27.58,94.12c-33.506,47.418-96.59,63.027-150.949,63.027
				c-24.213,0-46.693-3.096-64.061-7.857c-15.83-4.34-48.76-15.93-84.38-34.89c-17.58-9.36-30.3-17.59-35.7-21.1
				c-148.91-96.77-223.36-145.16-294.52-194.72c-12.26-8.54-34.581-24.01-64.67-43.62c26.68-29.58,45.33-55.75,57.26-72.74
				c77.5-110.33,103.13-215.47,122.78-296.03c4.5-18.47,29.5-121,29.83-173.26c0.031-5.01-0.07-24.72,4.59-50.49
				c0,0,4.23-23.43,11.47-43.6c8.16-22.74,38.31-54.61,85.46-86.26c-12.07-5.44-23.24-11.53-32.67-18.15
				c-9.65-6.77-28.71-20.14-42.46-44.75c-5.49-9.83-8.97-19.37-13.77-37.87c-11.26-43.44-14.7-78.14-14.91-80.32
				c-4.17-42.05-8.21-82.8-14.92-121.62c-7.72-44.67-17.68-79.33-29.83-121.63c-12.29-42.74-23.29-74.74-25.25-80.32
				c-83-236.91-306.36-352.25-306.36-352.25c-108.74-56.16-209.74-71.97-247.84-73.53
				C1035.395,43.933,1009.973,39.693,991.223,39.692L991.223,39.692z M932.312,96.896l0.16-0.02h25.51h25.51l0.16,0.02
				c1.913-0.011,3.814-0.016,5.698-0.016c43.118,0,78.624,2.843,103.382,8.266c22.14,4.85,57.38,9.79,97.17,32.65
				c12.85,7.39,39.05,23.69,72,57.32c24.61,25.12,62.71,69.82,103.45,157.28c13.41,28.78,41.51,93.11,65.71,197.13
				c25.33,108.85,30.44,192.64,35.65,285.2c6.89,122.26,2.55,214.1-0.7,278.91c-8.37,167.07-27,254.31-32.15,277.52
				c-13.041,58.68-27.46,101.9-33.561,119.53c-6.57,19.01-23.32,67.44-44.73,109.05c-0.209,0.41-0.43,0.84-0.66,1.27
				c-176.995-100.78-357.069-189.575-559.987-223.954c-58.658-9.938-118.735-15.21-178.866-15.211
				c-44.822-0.001-89.665,2.927-134.019,9.033c-5.234-23.615-23.75-110.817-32.088-277.238c-3.25-64.81-7.59-156.65-0.7-278.91
				c5.21-92.56,10.32-176.35,35.65-285.2c24.2-104.02,52.3-168.35,65.71-197.13c40.74-87.46,78.84-132.16,103.45-157.28
				c32.95-33.63,59.15-49.93,72-57.32c39.79-22.86,75.031-27.8,97.17-32.65c24.756-5.423,60.268-8.266,103.382-8.266
				C928.501,96.879,930.397,96.885,932.312,96.896L932.312,96.896z M927.975,1847.898c-63.215,0-110.05-7.605-138.293-17.362
				c-141.91-49.02-209.38-172.12-229.29-210.8c-21.41-41.61-38.16-90.04-44.73-109.05c-3.453-9.995-9.591-28.208-16.632-52.794
				c11.263-1.851,22.457-3.451,33.52-4.794c32.12-3.901,64.462-5.759,96.803-5.759c67.976-0.001,135.994,8.201,202.268,22.875
				c12.529,2.774,25.008,5.768,37.434,8.965c103.653,26.671,203.082,67.52,299.244,114.108
				c52.337,25.356,105.063,51.871,156.04,81.098c-35.569,54.712-98.471,121.751-198.058,156.152c-17.5,6.05-42.15,11.27-73.41,14.36
				h-0.01c-19.183,1.906-40.868,3.002-64.911,3.002c-1.438,0-2.884-0.004-4.339-0.012l-0.12-0.01h-25.51h-25.51l-0.12,0.01
				C930.887,1847.894,929.424,1847.898,927.975,1847.898L927.975,1847.898z M462.478,1973.403c-57.049,0-114.215-7.1-166.753-28.704
				c-99.832-41.05-172.905-141.618-148.874-252.628c13.734-63.414,61.034-112.132,113.443-147.059
				c17.039-11.355,35.203-21.598,54.152-30.789c16.231,35.858,36.723,73.116,63.317,110.972c28.75,40.95,96.6,135.27,221.45,201.95
				c23.74,12.68,92.61,52.36,189.32,69.25c9.738,1.704,19.277,3.058,28.602,4.151c-101.213,39.24-205.095,66.15-314.713,71.786
				C489.156,1973.015,475.818,1973.403,462.478,1973.403L462.478,1973.403z"/>
		</g>
	</g>
</g>
<g id="Layer_6">
	<g>
		<g>
			<circle style="fill:#480000;" cx="957.984" cy="206.838" r="29.15"/>
			<path style="fill:#480000;" d="M957.984,184.188c12.489,0,22.65,10.161,22.65,22.65c0,12.489-10.161,22.65-22.65,22.65
				c-12.489,0-22.65-10.161-22.65-22.65C935.334,194.349,945.495,184.188,957.984,184.188 M957.984,171.188
				c-19.689,0-35.65,15.961-35.65,35.65s15.961,35.65,35.65,35.65c19.689,0,35.65-15.961,35.65-35.65
				S977.673,171.188,957.984,171.188L957.984,171.188z"/>
		</g>
	</g>
	<g>
		<g>
			<circle style="fill:#480000;" cx="957.984" cy="2038.319" r="29.15"/>
			<path style="fill:#480000;" d="M957.984,2015.669c12.489,0,22.65,10.161,22.65,22.65c0,12.489-10.161,22.65-22.65,22.65
				c-12.489,0-22.65-10.161-22.65-22.65C935.334,2025.83,945.495,2015.669,957.984,2015.669 M957.984,2002.669
				c-19.689,0-35.65,15.961-35.65,35.65c0,19.689,15.961,35.65,35.65,35.65c19.689,0,35.65-15.961,35.65-35.65
				C993.634,2018.63,977.673,2002.669,957.984,2002.669L957.984,2002.669z"/>
		</g>
	</g>
	<g>
		<g>
			<rect x="953.484" y="213.338" style="fill:#480000;" width="9" height="1818.481"/>
			<polygon style="fill:#480000;" points="968.984,206.838 946.984,206.838 946.984,2038.319 968.984,2038.319 968.984,206.838 			
				"/>
		</g>
	</g>
	<g>
		<g>
			<path style="fill:#480000;" d="M924.742,55.692c1.895,0,3.662,0.051,5.251,0.151l0.504,0.032h0.505h26.98h26.98h0.505
				l0.504-0.032c1.591-0.1,3.357-0.151,5.251-0.151c8.838,0,19.638,1.06,32.143,2.287c12.076,1.185,25.763,2.528,40.302,3.123
				c9.05,0.37,42.582,2.605,94.115,15.803c50.929,13.043,100.4,31.87,147.03,55.952c0.547,0.284,55.466,29.003,119.53,85.697
				c37.466,33.157,70.7,69.271,98.778,107.338c34.944,47.376,61.961,97.942,80.307,150.305c0.479,1.363,11.873,33.898,24.967,79.435
				l0.032,0.111c12.205,42.491,21.845,76.052,29.41,119.827c6.609,38.235,10.568,78.158,14.76,120.429
				c0.37,3.842,3.945,38.81,15.349,82.804c5.174,19.94,9.031,30.45,15.29,41.656c15.533,27.801,36.945,42.823,47.235,50.041
				c3.493,2.452,7.238,4.865,11.219,7.229c-36.615,27.673-61.612,55.653-69.875,78.681c-7.602,21.179-11.974,45.153-12.155,46.158
				c-4.723,26.118-4.813,46.047-4.842,52.596l-0.003,0.64c-0.202,31.971-10.901,93.746-29.354,169.486l-0.021,0.084l-0.018,0.074
				c-9.809,40.214-20.927,85.794-39.156,135.063c-21.022,56.814-47.568,107.675-81.156,155.49
				c-10.06,14.327-28.785,40.994-56.047,71.218l-12.538,13.9l15.683,10.221c28.011,18.255,49.056,32.753,64.262,43.345
				c71.547,49.83,146.206,98.347,294.944,195.006c5.027,3.268,18.381,11.948,36.902,21.809
				c34.776,18.511,68.96,31.068,87.668,36.197c19.822,5.434,44.075,8.427,68.291,8.427c72.893,0,132.675-25.439,164.017-69.796
				c26.494-37.503,29.188-81.315,30.482-102.37c0.198-3.215,0.329-6.435,0.395-9.66c25.611,30.499,45.858,61.826,59.444,92.175
				c17.849,39.87,23.569,76.483,16.54,105.883c-11.542,48.277-41.314,80.959-41.589,81.258
				c-29.496,31.683-64.304,42.826-79.169,47.584c-17.507,5.606-39.542,8.569-63.723,8.569c-22.109,0-45.739-2.49-70.236-7.4
				c-22.372-4.479-44.684-11.171-68.211-20.459c-38.586-15.232-78.358-36.726-118.211-63.885
				c-40.506-27.6-61.314-47.658-95.787-80.887c-15.879-15.306-35.64-34.354-61.43-58.036c-0.858-0.788-86.85-79.614-179.484-151.751
				c-19.581-15.242-42.699-33.113-70.558-53.342l-0.635-1.268l-4.77-2.385l-9.747-4.873l-8.105,7.285
				c-34.986,31.448-73.436,58.453-114.282,80.266c-1.538,0.822-3.264,1.755-5.171,2.787
				c-27.349,14.798-91.397,49.452-179.366,64.815c-51.625,9.024-98.359,10.241-137.265,10.241h-29.43h-0.875h-3.695l-3.321,1.621
				c-100.569,49.074-203.608,87.514-290.136,108.24c-88.103,21.106-175.822,32.262-253.675,32.262
				c-95.273,0-176.044-16.33-240.063-48.534c-26.395-13.286-81.319-40.933-117.531-102.538
				c-28.18-47.931-32.573-95.346-32.683-119.343c-0.15-33.41,6.991-66.448,21.225-98.197c12.534-27.958,28.174-49.515,36.577-61.098
				c19.916-27.462,43.447-50.685,71.938-70.997c24.547-17.5,49.573-30.759,77.396-45.058c21.99-11.306,45.109-21.736,68.713-30.999
				l14.143-5.55l-4.812-14.411c-13.379-40.068-22.549-77.661-30.639-110.829l-0.016-0.067l-0.022-0.088
				c-18.453-75.739-29.152-137.514-29.354-169.48l-0.003-0.64c-0.029-6.549-0.118-26.477-4.841-52.597
				c-0.182-1.01-4.554-24.983-12.156-46.161c-8.263-23.029-33.26-51.008-69.875-78.682c3.981-2.364,7.726-4.776,11.218-7.228
				c10.29-7.219,31.703-22.241,47.237-50.044c6.257-11.203,10.115-21.714,15.289-41.657c11.403-43.99,14.978-78.958,15.349-82.803
				c4.192-42.268,8.151-82.191,14.76-120.427c7.565-43.774,17.205-77.336,29.41-119.827l0.031-0.106
				c13.096-45.542,24.49-78.076,24.973-79.451c18.341-52.351,45.359-102.917,80.302-150.293
				c28.078-38.067,61.312-74.181,98.778-107.338c64.063-56.695,118.983-85.414,119.522-85.693
				c46.638-24.087,96.108-42.913,147.038-55.956c51.533-13.198,85.065-15.433,94.114-15.803c14.54-0.594,28.226-1.938,40.302-3.123
				C905.103,56.752,915.903,55.692,924.742,55.692 M931.358,80.89c-1.592-0.008-3.17-0.011-4.744-0.011
				c-44.078,0-81.011,2.987-106.806,8.637c-2.802,0.614-5.902,1.245-9.184,1.914c-22.198,4.522-55.743,11.356-92.539,32.495
				c-25.343,14.575-50.729,34.759-75.452,59.993c-40.016,40.845-74.86,93.744-106.524,161.719
				c-26.77,57.454-49.242,124.832-66.791,200.261c-26.163,112.428-31.184,201.646-36.041,287.926
				c-7.078,125.603-2.401,218.885,0.695,280.611c5.573,111.234,17.096,210.637,32.447,279.899l3.192,14.4l14.611-2.011
				c42.825-5.896,87.181-8.884,131.837-8.883c58.226,0.001,117.507,5.043,176.194,14.986
				c206.068,34.912,388.401,127.37,554.742,222.083l14.277,8.129l7.749-14.487c0.276-0.515,0.541-1.031,0.779-1.496
				c21.97-42.699,39.155-92.425,45.623-111.139c12.993-37.552,24.771-79.494,34.06-121.296
				c15.387-69.348,26.932-168.853,32.51-280.184c3.095-61.727,7.773-155.008,0.695-280.611
				c-4.857-86.281-9.878-175.499-36.041-287.926c-17.548-75.43-40.02-142.808-66.79-200.261
				c-31.664-67.976-66.508-120.876-106.525-161.722c-24.723-25.233-50.109-45.417-75.458-59.996
				c-36.79-21.136-70.335-27.97-92.533-32.492c-3.282-0.669-6.382-1.3-9.184-1.914c-25.796-5.65-62.729-8.637-106.805-8.637
				c-1.571,0-3.153,0.004-4.744,0.011l-0.118-0.015h-0.996h-25.51h-25.51h-0.996L931.358,80.89 M927.975,1863.898
				c1.478,0,2.969-0.004,4.465-0.012l0.622-0.003l0.076-0.006h24.845h24.846l0.076,0.006l0.62,0.003
				c1.485,0.008,2.96,0.012,4.427,0.012c23.249,0,45.348-1.01,65.698-3.002h0.011l0.785-0.078
				c30.426-3.008,57.075-8.25,77.06-15.159c107.194-37.028,171.325-108.836,206.248-162.554l9.222-14.186l-14.678-8.416
				c-55.301-31.706-112.964-60.272-157.022-81.616c-112.431-54.47-208.468-91.077-302.234-115.204
				c-12.686-3.264-25.458-6.323-37.962-9.091c-69.687-15.43-138.898-23.253-205.727-23.253c-33.416,0-66.634,1.977-98.733,5.876
				c-11.265,1.368-22.767,3.013-34.185,4.889l-17.736,2.914l4.948,17.279c5.318,18.569,10.843,36.106,16.891,53.615
				c6.469,18.72,23.655,68.446,45.626,111.147c55.819,108.441,138.219,184.032,238.292,218.6
				C818.507,1857.42,869.475,1863.898,927.975,1863.898 M462.478,1989.403c12.959,0,26.674-0.367,40.765-1.092
				c102.228-5.256,206.795-29.085,319.675-72.847l60.114-23.306l-64.036-7.504c-9.642-1.13-18.704-2.445-27.711-4.021
				c-87.967-15.363-152.014-50.017-179.364-64.815c-1.907-1.031-3.632-1.965-5.171-2.787
				c-124.093-66.276-190.786-161.269-215.895-197.034c-24.176-34.414-44.402-69.863-61.833-108.373l-6.776-14.969l-14.784,7.171
				c-20.041,9.721-38.896,20.444-56.041,31.87c-65.911,43.926-107.478,98.211-120.208,156.988
				c-26.84,123.987,59.383,230.086,158.427,270.812C338.581,1979.621,395.116,1989.403,462.478,1989.403 M991.223,39.692
				c-2.179,0-4.267,0.057-6.261,0.183h-26.98h-26.98c-1.993-0.126-4.083-0.183-6.261-0.183c-18.75,0-44.17,4.241-73.099,5.423
				c-38.1,1.56-139.1,17.37-247.84,73.53c0,0-223.36,115.34-306.36,352.25c-1.96,5.58-12.96,37.58-25.25,80.32
				c-12.15,42.3-22.11,76.96-29.83,121.63c-6.71,38.82-10.75,79.57-14.92,121.62c-0.21,2.18-3.65,36.88-14.91,80.32
				c-4.8,18.5-8.28,28.04-13.77,37.87c-13.75,24.61-32.81,37.98-42.46,44.75c-9.43,6.62-20.6,12.71-32.67,18.15
				c47.15,31.65,77.3,63.52,85.46,86.26c7.24,20.17,11.47,43.6,11.47,43.6c4.66,25.77,4.56,45.48,4.59,50.49
				c0.33,52.26,25.33,154.79,29.83,173.26c8.192,33.583,17.426,71.448,31.025,112.176c-23.87,9.368-47.302,19.899-70.184,31.664
				c-51.741,26.59-108.251,56.47-154.971,120.89c-20.43,28.16-61.22,86.11-60.85,168.76c0.09,19.61,2.63,72.51,34.89,127.38
				c37.85,64.39,94.47,93.79,124.13,108.72c75.471,37.964,164.013,50.242,247.257,50.242c108.069,0,207.224-20.682,257.403-32.702
				c75.545-18.095,177.771-52.985,293.425-109.42h0.875h29.43c36.58,0,85.33-0.92,140.02-10.48
				c96.71-16.89,165.58-56.57,189.32-69.25c46.87-25.03,85.7-53.95,117.44-82.48c0.001,0,0.001,0.001,0.002,0.001
				c29.909,21.629,54.469,40.659,73.288,55.309c93.19,72.57,178.49,150.91,178.49,150.91c80.98,74.36,98.11,98.85,159.03,140.36
				c94.72,64.55,164.77,81.3,192.29,86.81c28.576,5.728,53.093,7.711,73.378,7.711c38.258,0,61.479-7.05,68.602-9.331
				c17.93-5.74,54.31-17.88,86-51.92c0,0,32.69-35.11,45.44-88.44c15.94-66.67-25.55-160.75-111.15-246.87
				c2.781,15.24,4.49,33.43,3.24,53.77c-1.19,19.35-3.709,60.33-27.58,94.12c-33.506,47.418-96.589,63.027-150.949,63.027
				c-24.214,0-46.693-3.096-64.061-7.857c-15.83-4.34-48.76-15.93-84.38-34.89c-17.58-9.36-30.3-17.59-35.7-21.1
				c-148.91-96.77-223.36-145.16-294.52-194.72c-12.26-8.54-34.58-24.01-64.67-43.62c26.68-29.58,45.33-55.75,57.26-72.74
				c77.5-110.33,103.13-215.47,122.78-296.03c4.5-18.47,29.5-121,29.83-173.26c0.031-5.01-0.07-24.72,4.59-50.49
				c0,0,4.23-23.43,11.47-43.6c8.16-22.74,38.31-54.61,85.46-86.26c-12.07-5.44-23.24-11.53-32.67-18.15
				c-9.65-6.77-28.71-20.14-42.46-44.75c-5.49-9.83-8.97-19.37-13.77-37.87c-11.26-43.44-14.7-78.14-14.91-80.32
				c-4.17-42.05-8.21-82.8-14.92-121.62c-7.72-44.67-17.68-79.33-29.83-121.63c-12.29-42.74-23.29-74.74-25.25-80.32
				c-83-236.91-306.36-352.25-306.36-352.25c-108.74-56.16-209.74-71.97-247.84-73.53
				C1035.395,43.933,1009.973,39.693,991.223,39.692L991.223,39.692z M932.312,96.896l0.16-0.02h25.51h25.51l0.16,0.02
				c1.913-0.011,3.814-0.016,5.698-0.016c43.118,0,78.624,2.843,103.382,8.266c22.14,4.85,57.38,9.79,97.17,32.65
				c12.85,7.39,39.05,23.69,72,57.32c24.61,25.12,62.71,69.82,103.45,157.28c13.41,28.78,41.51,93.11,65.71,197.13
				c25.33,108.85,30.44,192.64,35.65,285.2c6.89,122.26,2.55,214.1-0.7,278.91c-8.37,167.07-27,254.31-32.15,277.52
				c-13.04,58.68-27.46,101.9-33.56,119.53c-6.57,19.01-23.32,67.44-44.729,109.051c-0.21,0.41-0.43,0.84-0.66,1.27
				c-176.995-100.78-357.069-189.575-559.987-223.954c-58.658-9.938-118.735-15.209-178.867-15.211
				c-44.821-0.001-89.665,2.927-134.019,9.033c-5.234-23.615-23.75-110.817-32.088-277.238c-3.25-64.81-7.59-156.65-0.7-278.91
				c5.21-92.56,10.32-176.35,35.65-285.2c24.2-104.02,52.3-168.35,65.71-197.13c40.74-87.46,78.84-132.16,103.45-157.28
				c32.95-33.63,59.15-49.93,72-57.32c39.79-22.86,75.031-27.8,97.17-32.65c24.757-5.423,60.268-8.266,103.382-8.266
				C928.501,96.879,930.397,96.885,932.312,96.896L932.312,96.896z M927.975,1847.898c-63.215,0-110.05-7.605-138.293-17.362
				c-141.91-49.02-209.38-172.12-229.29-210.8c-21.41-41.61-38.16-90.04-44.73-109.051c-3.453-9.994-9.591-28.208-16.632-52.793
				c11.264-1.851,22.457-3.451,33.52-4.794c32.12-3.901,64.463-5.759,96.804-5.759c67.976-0.001,135.994,8.201,202.268,22.875
				c12.528,2.774,25.007,5.768,37.434,8.965c103.653,26.671,203.082,67.52,299.244,114.108
				c52.337,25.356,105.062,51.871,156.04,81.098c-35.569,54.712-98.471,121.751-198.058,156.152c-17.5,6.05-42.15,11.27-73.41,14.36
				h-0.01c-19.182,1.906-40.868,3.002-64.911,3.002c-1.439,0-2.884-0.004-4.339-0.012l-0.12-0.01h-25.51h-25.51l-0.12,0.01
				C930.887,1847.894,929.424,1847.898,927.975,1847.898L927.975,1847.898z M462.478,1973.403
				c-57.049,0-114.215-7.101-166.753-28.704c-99.832-41.05-172.905-141.619-148.874-252.628
				c13.734-63.414,61.034-112.131,113.443-147.059c17.039-11.356,35.203-21.598,54.151-30.789
				c16.231,35.858,36.723,73.116,63.317,110.972c28.75,40.95,96.6,135.27,221.45,201.95c23.74,12.68,92.61,52.36,189.32,69.25
				c9.738,1.704,19.277,3.058,28.602,4.151c-101.214,39.24-205.095,66.15-314.713,71.786
				C489.156,1973.015,475.817,1973.403,462.478,1973.403L462.478,1973.403z"/>
		</g>
	</g>
	<g>
		<g>
			<path style="fill:#480000;" d="M373.834,1930.557c-0.305,0-0.614-0.031-0.917-0.094c-46.839-9.619-89.714-30.672-123.99-60.882
				c-22.147-19.521-52.479-46.254-63.455-90.963c-6.694-27.259-5.019-55.933,4.978-85.227c8.009-23.468,19.087-40.754,24.411-49.062
				c25.413-39.638,60.543-62.508,94.721-81.317c57.785-31.8,121.765-55.54,190.162-70.563c51.014-11.203,87.703-13.717,97.732-14.22
				c10.929-0.548,22.002-0.825,32.914-0.825c107.786,0,191.383,27.013,241.331,43.153c29.892,9.661,59.526,21.01,88.092,33.736
				c1.098,0.489,1.94,1.376,2.37,2.498c0.431,1.123,0.398,2.346-0.091,3.444c-0.723,1.622-2.339,2.671-4.117,2.671
				c-0.626,0-1.24-0.132-1.823-0.393c-28.283-12.599-57.616-23.832-87.185-33.389c-49.448-15.979-132.191-42.72-238.699-42.72
				c-10.727,0-21.608,0.273-32.342,0.812c-14.861,0.746-149.087,9.432-284.005,83.679c-38.297,21.078-68.51,42.457-91.481,78.287
				c-10.637,16.598-43.007,67.104-28.228,127.287c10.304,41.971,38.227,66.581,60.664,86.355
				c33.102,29.177,74.546,49.516,119.852,58.819c2.43,0.499,4.002,2.883,3.502,5.313
				C377.803,1929.045,375.954,1930.557,373.834,1930.557z"/>
			<path style="fill:#480000;" d="M630.391,1470.906c-10.822,0-21.913,0.266-33.24,0.833c-10.156,0.51-47.294,3.052-98.801,14.363
				c-69.003,15.155-133.568,39.115-191.901,71.217c-34.93,19.224-70.863,42.645-97.06,83.505
				c-5.462,8.522-16.827,26.257-25.09,50.469c-10.405,30.489-12.134,60.392-5.139,88.876c11.462,46.688,42.676,74.199,65.469,94.289
				c35.124,30.958,79.033,52.526,126.98,62.373c0.747,0.153,1.491,0.227,2.224,0.227c5.113,0,9.695-3.585,10.764-8.789
				c1.222-5.951-2.611-11.766-8.562-12.988c-44.198-9.076-84.607-28.899-116.861-57.328c-21.756-19.175-48.831-43.039-58.649-83.029
				c-14.113-57.472,17.122-106.212,27.388-122.229c22.232-34.677,51.715-55.501,89.143-76.101
				c133.646-73.546,266.49-82.143,281.197-82.881c10.91-0.547,21.579-0.803,32.016-0.803c105.49,0,186.49,26.178,236.7,42.404
				c29.359,9.489,58.474,20.641,86.538,33.142c1.454,0.648,2.974,0.955,4.469,0.955c4.211,0,8.231-2.432,10.055-6.526
				c2.472-5.55-0.022-12.053-5.572-14.524c-28.773-12.818-58.625-24.251-88.724-33.979
				C822.242,1497.74,739.211,1470.906,630.391,1470.906L630.391,1470.906z"/>
		</g>
	</g>
	<g>
		<g>
			<path style="fill:#480000;" d="M2026.646,1952.096c-1.358,0-2.66-0.005-3.901-0.01c-41.932-0.188-75.966-13.975-127.884-41.06
				c-86.924-45.348-145.345-86.592-145.925-87.003c-61.596-43.723-123.681-90.372-184.53-138.652l-3.413-2.708l2.596-3.499
				c13.048-17.583,25.553-35.921,37.167-54.503c33.774-53.993,52.434-97.436,64.782-126.182
				c13.626-31.707,41.977-97.678,60.942-187.157c7.92-37.366,14.089-76.634,18.858-120.048c1.133-10.317,1.783-20.981,2.412-31.295
				c1.815-29.772,3.692-60.56,17.245-88.82c17.86-37.269,52.889-63.035,77.682-79.175c4.635-3.018,7.954-5.023,10.882-6.793
				l0.132-0.08c1.122-0.677,2.168-1.309,3.193-1.943l10.215-6.314l-10.873-5.099c-2.523-1.184-4.977-2.299-7.401-3.401
				c-7.37-3.351-14.976-6.809-23.674-11.807c-1.642-0.941-3.286-1.882-4.935-2.822c-23.21-13.258-47.209-26.966-61.954-49.992
				c-18.037-28.173-21.668-62.846-24.586-90.707c-1.621-15.493-4-31.117-6.3-46.226c-2.035-13.374-4.132-27.154-5.714-40.848
				c-4.274-37.029-9.248-60.751-14.059-83.692c-1.556-7.417-3.318-15.819-4.951-24.305c-6.601-34.34-15.06-68.34-25.141-101.054
				l-0.107-0.35c-2.987-9.83-18.899-61.038-38.528-103.03c-51.95-111.153-122.638-186.553-172.79-230.233
				c-66.375-57.801-150.37-105.623-236.512-134.659c-36.735-12.375-111.51-33.133-199.571-33.133
				c-18.564,0-37.081,0.924-55.037,2.746c-29.167,2.96-53.739,7.877-78.859,22.258c-76.821,43.972-86.292,131.75-86.657,135.465
				c-2.337,24.139-5.217,105.931,55.776,145.401c18.686,12.094,40.348,18.227,64.385,18.227c29.592,0,56.935-9.302,74.662-17.105
				c16.832-7.415,56.246-24.777,74.918-68.568c12.62-29.604,10.262-57.903,6.061-76.43c-0.266-1.172-0.059-2.378,0.582-3.395
				c0.641-1.017,1.639-1.723,2.812-1.989c0.331-0.075,0.669-0.113,1.004-0.113c2.077,0,3.919,1.475,4.379,3.506
				c4.495,19.822,7.005,50.13-6.559,81.95c-20.066,47.061-63.271,66.095-79.536,73.261c-18.561,8.169-47.244,17.909-78.47,17.91
				c-25.676,0.001-48.934-6.626-69.129-19.697c-65.258-42.23-62.304-128.42-59.844-153.831c0.383-3.895,10.33-96.145,91.144-142.403
				c26.499-15.17,52.113-20.326,82.421-23.401c18.229-1.85,37.029-2.788,55.879-2.788c89.418,0,165.261,21.052,202.512,33.601
				c111.807,37.687,191.979,94.977,239.549,136.401c50.807,44.25,122.416,120.629,175.032,233.208
				c19.883,42.538,35.967,94.291,38.989,104.233l0.091,0.301c10.18,33.028,18.717,67.341,25.382,102.012
				c1.589,8.265,3.192,15.915,4.891,24.013l0.029,0.138c4.853,23.141,9.87,47.069,14.191,84.512
				c1.565,13.548,3.652,27.262,5.67,40.524c2.317,15.22,4.713,30.955,6.354,46.644c2.965,28.317,6.325,60.412,23.215,86.792
				c13.552,21.161,35.549,33.727,58.838,47.029c1.655,0.945,3.307,1.889,4.952,2.834c8.336,4.788,15.417,8.008,22.913,11.416
				c7.399,3.364,15.044,6.839,24.268,12.012l5.878,3.296l-5.298,4.166c-9.171,7.213-13.568,9.871-19.137,13.236
				c-2.886,1.743-6.145,3.712-10.669,6.658c-23.886,15.549-57.594,40.295-74.477,75.522c-12.791,26.674-14.533,55.237-16.377,85.478
				c-0.636,10.428-1.293,21.199-2.448,31.729c-4.805,43.72-11.02,83.277-19.001,120.933
				c-19.151,90.348-47.737,156.869-61.476,188.838c-11.705,27.248-31.289,72.835-65.422,127.405
				c-9.855,15.768-20.393,31.431-31.319,46.556l-3.647,5.049l4.889,3.859c58.048,45.832,117.208,90.172,175.838,131.79
				c0.584,0.413,58.771,41.439,144.876,86.359c51.726,26.985,83.438,39.86,123.759,40.04c1.236,0.004,2.469,0.009,3.74,0.009
				c17.456,0,53.779,0,84.23-25.527c14.205-11.903,37.971-37.448,37.53-74.788c-0.26-22.483-10.233-63.985-45.96-76.912
				c-7.014-2.536-14.608-3.822-22.576-3.822c-12.638,0-25.431,3.24-36.994,9.372c-16.04,8.505-27.339,21.65-30.998,36.066
				c-4.449,17.516-0.35,47.005,22.695,57.723c5.291,2.461,11.104,3.71,17.279,3.71c13.682,0,27.426-6.102,37.709-16.738
				c0.855-0.886,2.004-1.372,3.236-1.372c1.173,0,2.283,0.448,3.127,1.264c1.784,1.725,1.832,4.58,0.107,6.364
				c-12.011,12.426-28.047,19.554-43.996,19.555c-7.514,0.001-14.666-1.555-21.257-4.622c-12.436-5.782-21.487-16.512-26.181-31.031
				c-3.864-11.953-4.391-25.464-1.443-37.066c4.282-16.873,17.223-32.109,35.504-41.804c12.814-6.795,27.084-10.387,41.269-10.387
				c9.037,0,17.644,1.455,25.579,4.326c35.318,12.778,51.515,52.033,51.899,85.27c0.483,41.052-25.323,68.865-40.75,81.791
				C2087.488,1948.812,2054.796,1952.096,2026.646,1952.096z"/>
			<path style="fill:#480000;" d="M1029.938,0c-18.322,0-37.233,0.862-56.535,2.822c-31.134,3.159-57.502,8.489-84.994,24.227
				c-83.683,47.9-93.985,143.36-94.384,147.417c-2.549,26.334-5.556,115.691,62.782,159.914
				c23.713,15.349,48.927,20.741,72.66,20.741c32.288,0,61.83-9.984,81.091-18.462c16.907-7.449,61.82-27.235,82.895-76.66
				c14.246-33.42,11.625-65.178,6.918-85.936c-1.157-5.107-5.693-8.569-10.719-8.569c-0.805,0-1.623,0.089-2.441,0.274
				c-5.925,1.343-9.639,7.236-8.295,13.16c3.988,17.59,6.237,44.438-5.701,72.443c-17.664,41.425-55.409,58.055-71.558,65.169
				c-17.178,7.562-43.595,16.555-72.044,16.555c-20.119,0-41.256-4.499-60.854-17.184c-57.913-37.477-55.084-116.116-52.839-139.308
				c0.352-3.579,9.476-88.137,83.418-130.461c24.125-13.811,47.944-18.557,76.285-21.433c18.564-1.884,36.747-2.713,54.38-2.713
				c85.619,0.001,158.186,19.551,197.496,32.793c85.354,28.77,168.571,76.146,234.319,133.401
				c49.679,43.268,119.701,117.96,171.17,228.083c19.438,41.582,35.232,92.41,38.201,102.177l0.111,0.365
				c10.011,32.485,18.412,66.253,24.97,100.368c1.624,8.439,3.325,16.556,4.972,24.405c4.78,22.798,9.724,46.373,13.964,83.109
				c1.596,13.826,3.706,27.681,5.745,41.08c2.29,15.045,4.657,30.601,6.261,45.923c2.989,28.543,6.709,64.066,25.577,93.536
				c15.607,24.373,40.313,38.484,64.205,52.132c1.643,0.938,3.284,1.876,4.919,2.814c8.973,5.154,16.726,8.679,24.223,12.088
				c2.402,1.092,4.832,2.196,7.331,3.368c-1.038,0.642-2.098,1.281-3.237,1.97c-2.979,1.8-6.355,3.84-11.098,6.928
				c-25.449,16.566-61.431,43.072-79.997,81.812c-14.102,29.406-16.019,60.838-17.872,91.235
				c-0.624,10.236-1.269,20.821-2.385,30.98c-4.747,43.204-10.883,82.264-18.756,119.41
				c-18.834,88.854-47.014,154.426-60.557,185.939c-12.271,28.566-30.814,71.735-64.321,125.302
				c-11.525,18.439-23.933,36.634-36.875,54.075l-6.346,8.552l8.343,6.62c60.941,48.354,123.12,95.073,184.81,138.862
				c0.582,0.413,59.175,41.813,146.679,87.464c52.845,27.57,87.594,41.604,130.864,41.797c1.25,0.005,2.561,0.01,3.928,0.01
				c22.699,0,60.996-1.431,94.061-29.148c16.309-13.665,43.59-43.119,43.074-86.849c-0.41-35.479-17.942-77.47-56.188-91.307
				c-8.731-3.158-18.167-4.714-27.79-4.714c-14.984,0-30.417,3.774-44.314,11.145c-19.899,10.552-34.026,27.299-38.759,45.945
				c-3.24,12.756-2.673,27.579,1.559,40.666c5.264,16.285,15.508,28.362,29.622,34.925c7.571,3.524,15.738,5.23,24,5.23
				c17.355,0,35.127-7.527,48.67-21.538c4.222-4.368,4.104-11.332-0.264-15.554c-2.135-2.064-4.892-3.091-7.645-3.091
				c-2.878,0-5.752,1.122-7.91,3.355c-9.216,9.533-21.468,14.755-33.035,14.755c-5.084,0-10.036-1.009-14.538-3.104
				c-19.459-9.049-22.923-35.321-19.136-50.229c3.208-12.64,13.319-24.275,27.742-31.923c10.739-5.694,22.57-8.615,33.949-8.615
				c7.087,0,14,1.133,20.364,3.435c32.384,11.717,41.432,50.063,41.673,70.876c0.408,34.661-21.882,58.564-35.207,69.73
				c-27.213,22.814-59.265,24.009-80.056,24.009c-1.28,0-2.519-0.005-3.709-0.009c-38.979-0.174-70.005-12.813-120.781-39.303
				c-86.079-44.906-143.551-85.494-144.12-85.897c-58.573-41.577-117.599-85.817-175.573-131.591
				c11.02-15.255,21.611-30.997,31.562-46.916c34.399-54.995,54.106-100.871,65.881-128.28c13.82-32.16,42.579-99.08,61.865-190.062
				c8.026-37.867,14.275-77.634,19.103-121.571c1.173-10.69,1.835-21.545,2.476-32.043c1.804-29.588,3.508-57.535,15.75-83.064
				c16.178-33.756,48.932-57.763,72.162-72.885c4.433-2.887,7.642-4.825,10.472-6.535c5.762-3.482,10.314-6.232,19.805-13.697
				l12.949-10.185l-14.369-8.057c-9.464-5.307-17.235-8.84-24.751-12.257c-7.354-3.344-14.301-6.502-22.37-11.137
				c-1.65-0.948-3.307-1.895-4.966-2.842c-22.576-12.896-43.899-25.075-56.589-44.891c-16.058-25.082-19.334-56.365-22.224-83.964
				c-1.657-15.834-4.064-31.649-6.393-46.943c-2.01-13.206-4.088-26.862-5.639-40.293c-4.355-37.739-9.404-61.816-14.287-85.101
				c-1.702-8.119-3.311-15.787-4.898-24.045c-6.708-34.896-15.304-69.446-25.545-102.674l-0.092-0.302
				c-3.045-10.017-19.252-62.162-39.319-105.095c-53.098-113.608-125.371-190.695-176.652-235.358
				c-48.013-41.811-128.928-99.633-241.742-137.659C1193.83,20.233,1118.712,0,1029.938,0L1029.938,0z"/>
		</g>
	</g>
</g>
</svg>
