<?xml version="1.0" encoding="iso-8859-1"?>
<!-- Generator: Adobe Illustrator 24.0.1, SVG Export Plug-In . SVG Version: 6.00 Build 0)  -->
<svg version="1.1" xmlns="http://www.w3.org/2000/svg" xmlns:xlink="http://www.w3.org/1999/xlink" x="0px" y="0px"
	 viewBox="0 0 1386.02 2184.365" style="enable-background:new 0 0 1386.02 2184.365;" xml:space="preserve">
<g id="Layer_5">
	<linearGradient id="SVGID_1_" gradientUnits="userSpaceOnUse" x1="693.01" y1="1332.6433" x2="693.01" y2="81.8534">
		<stop  offset="0" style="stop-color:#8B1D1A"/>
		<stop  offset="0.25" style="stop-color:#550000"/>
		<stop  offset="0.5" style="stop-color:#3A0000"/>
		<stop  offset="0.75" style="stop-color:#1E0000"/>
		<stop  offset="1" style="stop-color:#000000"/>
	</linearGradient>
	<path style="fill:url(#SVGID_1_);" d="M1324.68,1853.875c-21.62-10.76-48.33-24.06-69.9-53.13
		c-28.35-38.19-31.58-81.72-34.95-127.22c-1.32-17.81-0.52-21.76,0-65.72c0.82-69.62,5.1-140.39-4.42-209.98
		c-10.14-74.1-32.46-146.56-66.25-213.3c-21.05-41.58-47.47-73.43-90.25-93.75c-24.099-11.445-49.608-19.959-75.653-25.68
		c-11.455-2.522-22.368-5.235-30.755-6.377c-3-0.408-20.152-4.193-20.152-4.193s19.248-8.81,42.658-17.069
		c52.18-18.41,119.62-49.629,165.132-116.091c34.83-50.86,46.66-101.82,60.12-157.98c17.25-72.01,17.6-127.37,18.17-219.49
		c0.57-91.99,0.86-137.99-11.18-198.53c-12.23-61.45-26.38-132.58-81.09-204.11c-17.02-22.26-60.95-78.29-139.81-113.24
		c-80.18-35.54-151.22-29.22-212.5-23.77c-47.81,4.25-127.89,11.37-209.71,60.12c-65.54,39.04-144.92,112.35-198.53,181.74
		c-5.41,7.02-45.25,58.89-95.06,76.9c-18.11,6.54-37.84,13.67-61.52,11.18c-6.76-0.71-16.46-2.48-32.15-2.8
		c-4.3-0.08-16.93-0.22-30.76,1.4c-10.26,1.2-36.77,4.55-65.71,19.58c-18.53,9.62-40.57,21.07-55.92,46.13
		c-6.27,10.23-10.14,20.64-12.44,30.47c16.89-6.96,40.12-14,68.26-15.66c12.05-0.71,48.99-1.84,91.12,14.84
		c72.73,28.8,108.25,89.85,125.02,118.66c26.04,44.76,34.62,84.92,38.14,101.71c26.22,125.16,29.18,254.66,23.9,380.8H305.4
		c-17.48-0.98-43.96-2.69-76.3-7.04c-48.44-6.51-61.81-11.93-90.96-9.7c-17.28,1.32-45.44,3.79-75.2,21.83
		c-37.89,22.97-53.91,56.35-57,63.07c-2.36,5.12-4.32,10.19-5.94,15.17c22.53-3.51,40.14-1.44,50.81,0.59
		c23.21,4.43,31.77,12.2,35.18,15.77c8.91,9.35,11.25,20.06,13.34,29.11c6.02,26.07,14.26,56.58,19.4,71.56
		c6.43,18.71,17.04,49.64,46.09,69.13c6.9,4.63,26.46,17.75,50.94,15.76c42.55-3.45,67.42-49.91,76.41-66.7
		c21.81-40.75,21.67-82.56,17.7-110.97c-3.502,17.099-19.224,29.742-37.654,28.391c-17.521-1.285-31.681-15.507-32.898-33.033
		c-1.449-20.863,15.049-38.228,35.591-38.228h80.2c-5.1,83.2-12.73,164.32-18.4,241.05c-1.46,19.68-4.61,63.73-29.67,112.31
		c-21.17,41.05-47.97,65.9-61.45,78.4c-29.03,26.92-63.3,47.58-97.66,63.39c28.24,13.76,59.89,32.87,91.3,59.51
		c89.59,75.98,122.74,166.95,137.74,209.79c38.79,110.76,32.04,218,13.56,301.64c31.97-49.3,65.12-111.33,91.12-186.01
		c26.13-75.04,38.19-143.16,43.68-197.8l0.07-0.56v-681.72v-64.71v-699.2l-0.03-0.57c0.04-1.45,0.11-3.53,0.23-6.03
		c3.01-60.51,28.67-143.62,96.58-202.63c20.5-17.81,69.11-58.82,143.15-62.53c7.59-0.38,94.96-3.41,161.24,59.24
		c23.89,22.58,35.43,44.61,54.3,80.62c15.74,30.04,33.95,71.89,49.36,136.56c11.47,48.14,25.23,125.06,23.03,225.41
		c-1.86,85.1-3.56,162.74-41.13,255.03c-25.46,62.53-57.55,153.39-148.08,190.86c-82.36,34.08-174.27,23.24-261.28,23.24v64.71
		h131.87c16.8-0.51,41.39,0.4,68.57,6.3c67.2,14.58,110.57,50.43,128.62,65.71c15.1,12.78,53.93,46.34,79.69,102.05
		c6.81,14.75,21.45,47.2,23.76,90.88c0.61,11.33,0.19,19.83,0,23.76c-1.9,40.91-1.27,119.08,0,275.42
		c0.45,55.26,0.68,82.89,1.4,92.27c1.2,15.54,7.08,85.46,34.95,180.35c7.1,24.15,16.52,56.23,30.76,89.48
		c16.77,39.16,48.6,99.51,110.87,164.12c1.84-38.32,9.26-84.02,28.94-131.97c33.04-80.5,88.45-137.59,143.82-177.34
		C1366.92,1871.085,1346.04,1864.506,1324.68,1853.875z"/>
</g>
<g id="Layer_7">
	<g>
		<path style="fill:#BFCBC2;" d="M219.765,1146.037c-26.099-19.688-74.308-8.041-67.887,33.285
			c7.175,27.618,44.221,33.971,61.583,4.632c-0.649,54.441-87.086,57.905-94.906-8.475
			C115.699,1115.914,195.311,1094.255,219.765,1146.037z"/>
	</g>
	<g>
		<path style="fill:#BFCBC2;" d="M210.671,1116.399c-20.301-33.522-73.798-50.839-111.978-9.745
			C110.329,1047.993,205.361,1045.777,210.671,1116.399z"/>
	</g>
	<g>
		<path style="fill:#BFCBC2;" d="M235.416,1184.682c22.57,45.27-25.627,105.616-80.568,79.777
			C200.679,1261.067,232.713,1223.632,235.416,1184.682z"/>
	</g>
	<g>
		<path style="fill:#BFCBC2;" d="M1008.739,1219.966c37.186,9.81,66.594-41.847,39.898-70.377
			c-23.579-23.528-62.874-2.511-50.74,34.824c-47.866-51.486,36.502-106.604,79.815-55.965
			C1124.522,1185.997,1052.012,1259.601,1008.739,1219.966z"/>
	</g>
	<g>
		<path style="fill:#BFCBC2;" d="M1132.401,1358.573c2.089-49.584-69.212-44.422-89.325-86.437
			c-30.354-54.338,44.99-95.668,67.081-45.574c-21.696-19.186-60.875,2.544-37.053,32.598
			C1098.263,1286.613,1161.024,1312.675,1132.401,1358.573z"/>
	</g>
	<g>
		<path style="fill:#BFCBC2;" d="M1087.837,1490.802c29.767-3.444,52.126-39.753,26.868-66.072
			c-23.414-16.512-77.366-45.318-44.03-77.443c-12.136,38.888,48.15,35.458,67.043,58.823
			C1173.077,1442.838,1140.657,1509.367,1087.837,1490.802z"/>
	</g>
	<g>
		<path style="fill:#BFCBC2;" d="M1111.393,1631.583c11.958-58.666,5.183-128.085-19.207-184.295
			C1151.972,1488.857,1159.633,1581.093,1111.393,1631.583z"/>
	</g>
	<g>
		<path style="fill:#BFCBC2;" d="M1192.009,1374.808c-56.528-40.667-53.413,87.171-3.913,54.121
			c-18.934,41.344-68.478-3.204-60.55-38.165C1132.36,1346.324,1185.469,1344.346,1192.009,1374.808z"/>
	</g>
	<g>
		<path style="fill:#BFCBC2;" d="M369.645,703.216c70.353-7.036,137.164,64.958,119.025,137.741
			C470.814,784.698,424.12,729.844,369.645,703.216z"/>
	</g>
	<g>
		<path style="fill:#BFCBC2;" d="M347.604,576.833c-9.854,51.595,130.545,7.41,112.999,186.703
			c-16.7-34.13-31.353-79.724-61.149-109.688C380.515,633.157,321.732,614.1,347.604,576.833z"/>
	</g>
	<g>
		<path style="fill:#BFCBC2;" d="M499.869,600.981c29.142,44.579-27.069,93.393-69.403,65.547
			c-49.12-31.063-22.045-97.208,25.344-92.037C375.703,623.327,495.615,693.055,499.869,600.981z"/>
	</g>
	<g>
		<path style="fill:#BFCBC2;" d="M430.399,1178.41c-86.162-75.293,15.846-204.546,19.571-256.723
			c6.015-38.527-46.86-46.639-34.9,11.135c-32.755-57.159,44.002-82.825,56.767-17.879
			C476.692,1003.391,371.649,1093.64,430.399,1178.41z"/>
	</g>
	<g>
		<path style="fill:#BFCBC2;" d="M399.014,792.205c3.199-59.794,87.24-34.08,79.302,27.841
			c-13.838,99.727-89.904,84.542-78.442,15.745c16.28,92.391,70.382,11.256,58.368-39.092
			C449.575,761.545,406.31,759.336,399.014,792.205z"/>
	</g>
	<g>
		<path style="fill:#BFCBC2;" d="M1100.668,776.532c21.92-166.342,53.813-227.396,46.411-255.633
			c-9.728-43.606-57.072-28.955-49.17,1.191c-18.281-39.284,42.205-58.52,63.825-16.759
			C1197.332,550.713,1101.957,773.939,1100.668,776.532z"/>
	</g>
	<g>
		<path style="fill:#BFCBC2;" d="M1156.527,518.495c38.95,73.21-85.508,105.247-81.601,165.317
			C1056.082,613.248,1177.123,585.509,1156.527,518.495z"/>
	</g>
	<g>
		<path style="fill:#BFCBC2;" d="M1188.034,567.623c1.483-118.515-79.626-153.719-117.408-56.644
			C1093.887,374.119,1227.476,451.564,1188.034,567.623z"/>
	</g>
	<g>
		<path style="fill:#BFCBC2;" d="M1116.549,269.084c-19.231,6.962-52.342,41.993-19.317,57.425
			c30.892,5.811,55.427,4.883,73.088,31.891c47.503,76.371-74.528,127.657-85.433,44.627c23.454,62.9,103.74,11.642,62.466-36.778
			c-18.094-21.725-47.915-10.558-68.459-30.596C1054.255,306.61,1083.443,272.615,1116.549,269.084z"/>
	</g>
	<g>
		<path style="fill:#BFCBC2;" d="M1043.084,298.318c-31.892-40.762,5.381-100.506,55.252-91.843
			c52.708,6.986,69.647,71.945,28.96,103.194C1186.702,209.863,1012.283,185.743,1043.084,298.318z"/>
	</g>
	<g>
		<path style="fill:#BFCBC2;" d="M283.533,489.867c110.9-12.378,137.383,65.825,127.922,150.048
			C393.969,536.241,375.379,505.305,283.533,489.867z"/>
	</g>
	<g>
		<path style="fill:#BFCBC2;" d="M439.763,416.843c-30.372,80.664-128.038-11.948-69.408-70.891
			c54.971-45.533,97.677,43.301,39.063,47.564c40.649-12.5,8.644-64.239-24.897-35.672
			C342.408,405.609,408.494,471.008,439.763,416.843z"/>
	</g>
	<g>
		<path style="fill:#BFCBC2;" d="M472.882,436.083c-28.415,135.176-228.697,26.611-129.285-90.922
			C286.503,445.505,422.981,540.383,472.882,436.083z"/>
	</g>
	<g>
		<path style="fill:#BFCBC2;" d="M333.797,307.838c106.429-82.164,204.721,63.332,151.421,161.335
			C505.153,340.15,410.95,267.155,333.797,307.838z"/>
	</g>
	<g>
		<path style="fill:#BFCBC2;" d="M334.767,318.177c-53.367,25.897-75.151,99.108-25.249,150.292
			C249.091,434.626,255.464,334.906,334.767,318.177z"/>
	</g>
	<g>
		<path style="fill:#BFCBC2;" d="M493.877,202.147c32.856,96.262-44.389,127.039-73.173,91.453
			c-21.021-29.816,4.347-72.064,40.203-71.87C361.925,270.618,502.095,358.979,493.877,202.147z"/>
	</g>
	<g>
		<path style="fill:#BFCBC2;" d="M530.513,108.618c-26.307,15.658-11.433,118.627-18.375,124.995
			C511.662,224.102,490.062,120.86,530.513,108.618z"/>
	</g>
	<g>
		<path style="fill:#BFCBC2;" d="M510.683,514.174c-40.245-57.69-98.458,35.93-24.265,43.257
			C391.391,564.997,468.654,428.944,510.683,514.174z"/>
	</g>
	<g>
		<path style="fill:#BFCBC2;" d="M1124.118,172.908c-52.677-0.615-91.871,43.004-86.509,93.771
			C999.411,214.904,1059.023,136.099,1124.118,172.908z"/>
	</g>
	<g>
		<path style="fill:#BFCBC2;" d="M1099.513,158.477c-33.722-9.49-74.763-8.277-109.295,5.868
			C1013.586,131.493,1070.604,125.562,1099.513,158.477z"/>
	</g>
	<g>
		<path style="fill:#BFCBC2;" d="M1044.171,71.962c-15.48,34.893-29.853,74.458-40.444,112.99
			C991.716,145.557,1007.88,95.773,1044.171,71.962z"/>
	</g>
	<g>
		<path style="fill:#BFCBC2;" d="M953.786,107.265c15.565-17.734,45.431-25.639,68.947-13.783
			C1001.402,95.75,976.886,100.329,953.786,107.265z"/>
	</g>
	<path style="fill:#BFCBC2;" d="M195.846,1168.585c-1.087-19.462-28.017-18.002-28.648,0.001
		C168.284,1188.047,195.215,1186.587,195.846,1168.585z"/>
	<path style="fill:#BFCBC2;" d="M1009.308,1178.909c1.815-27.899,39.5-24.916,40.107,0
		C1047.6,1206.807,1009.915,1203.825,1009.308,1178.909z"/>
	<path style="fill:#BFCBC2;" d="M392.515,371.176c0.756-15.19,22.196-14.614,22.918,0.001
		C414.677,386.366,393.238,385.79,392.515,371.176z"/>
	<path style="fill:#BFCBC2;" d="M441.217,265.179c0.756-15.19,22.196-14.614,22.918,0.001
		C463.379,280.37,441.939,279.793,441.217,265.179z"/>
	<path style="fill:#BFCBC2;" d="M1105.846,534.469c0.756-15.19,22.196-14.614,22.918,0.001
		C1128.008,549.659,1106.568,549.083,1105.846,534.469z"/>
	<path style="fill:#BFCBC2;" d="M1140.223,394.094c-1.087-19.462-28.017-18.002-28.648,0.001
		C1112.662,413.556,1139.593,412.096,1140.223,394.094z"/>
	<path style="fill:#BFCBC2;" d="M478.459,608.953c-1.354-23.572-33.756-21.542-34.377,0.001
		C445.436,632.524,477.838,630.495,478.459,608.953z"/>
</g>
<g id="Layer_4">
	<g>
		<g>
			<path style="fill:#FFB400;" d="M888.702,43.339c28.772,3.432,55.17,10.695,81.035,22.16c29.74,13.18,57.304,31.365,81.927,54.049
				c21.265,19.59,35.219,37.84,41.928,46.615c21.69,28.359,38.14,59.21,50.29,94.318c10.987,31.747,17.17,62.813,23.154,92.88
				c11.222,56.43,10.963,98.341,10.394,190.169l-0.001,0.11c-0.57,92.037-0.883,142.735-17.042,210.188l-0.664,2.771
				c-12.575,52.491-23.436,97.824-53.414,141.6c-17.423,25.443-39.723,46.572-68.175,64.594
				c-21.673,13.727-46.067,25.166-76.77,35.998c-6.921,2.442-13.493,4.924-19.392,7.242
				c56.826-48.045,84.146-115.862,103.802-164.654c1.469-3.647,2.908-7.22,4.328-10.706c40.424-99.301,42.232-182.019,44.146-269.59
				c1.792-81.733-6.329-161.072-24.136-235.812c-13.44-56.401-30.258-102.82-52.947-146.124
				c-19.492-37.198-33.576-64.074-62.432-91.348C933.722,67.938,910.948,53.633,888.702,43.339 M584.041,100.236
				c-58.378,56.302-95.242,137.861-99.39,221.242l-0.002,0.035l-0.002,0.036c-0.113,2.346-0.201,4.656-0.261,6.865l-0.045,1.644
				l0.06,1.136v698.121v64.71v679.517c-6.519,63.834-20.47,126.772-41.47,187.082c-0.125,0.36-0.252,0.723-0.378,1.082
				c-4.692-40.025-13.657-79.008-26.885-116.781c-13.671-39.044-49.986-142.759-149.917-227.509
				c-11.396-9.665-23.27-18.799-35.572-27.369c15.769-10.668,30.23-22.088,43.294-34.202c14.784-13.709,45.547-42.236,70.006-89.665
				c28.757-55.746,32.499-106.206,34.096-127.753l0.025-0.331c2.1-28.41,4.427-56.916,6.892-87.095
				c4.089-50.063,8.316-101.83,11.543-154.468l1.607-26.219h0.169l0.365-8.719l0.525-8.571h-0.167l0.921-21.995
				c6.494-155.149-1.366-279.367-24.737-390.927c-3.612-17.23-13.208-63-42.848-113.949
				c-17.786-30.555-59.438-102.111-145.347-136.13c-17.826-7.057-34.968-11.478-50.458-14.177
				c6.726-1.393,11.957-2.005,14.825-2.341c8.216-0.962,16.189-1.164,21.43-1.164c1.268,0,2.51,0.011,3.798,0.036v0
				c9.758,0.203,16.469,1.066,22.391,1.828c2.147,0.277,4.176,0.537,6.235,0.754c4.625,0.486,9.333,0.733,13.992,0.733
				c26.624,0,48.3-7.828,65.756-14.131c54.938-19.864,97.7-69.804,113.535-90.353l0.029-0.037
				C449.242,204.917,523.829,136.39,584.041,100.236 M150.839,1053.065c10.137,0,19.412,1.528,34.778,4.06
				c9.898,1.631,22.216,3.66,38.017,5.784c3.814,0.513,7.553,0.991,11.21,1.438c-5.859,3.584-11.256,7.962-16.008,13.055
				c-14.448,15.485-21.89,36.513-20.42,57.691c2.531,36.451,30.988,66.193,66.905,70.697c-2.242,7.571-5.276,15.208-9.302,22.73
				c-3.981,7.435-10.643,19.878-20.025,30.359c-8.269,9.237-16.192,14.224-23.554,14.821c-0.567,0.046-1.146,0.069-1.722,0.069
				c-9.628,0-19.037-6.313-23.057-9.011c-17.575-11.791-24.838-32.927-30.142-48.359l-0.01-0.03
				c-4.62-13.464-12.458-42.473-18.232-67.479l-0.116-0.505c-2.619-11.356-7.004-30.362-23.522-47.696
				c-10.387-10.875-24.153-18.805-41.828-24.042c3.178-2.491,6.634-4.908,10.382-7.179c21.991-13.331,43.101-14.943,57.074-16.011
				C144.702,1053.193,147.833,1053.065,150.839,1053.065 M886.168,1086.32l37.346,8.242c18.795,4.148,22.065,4.593,23.46,4.783
				c4.6,0.626,11.656,2.226,19.126,3.919c2.729,0.619,5.519,1.251,8.359,1.876c23.613,5.187,46.108,12.815,66.859,22.67
				c30.615,14.542,51.927,37.041,71.262,75.235c31.638,62.49,52.567,129.893,62.208,200.337
				c7.181,52.492,5.98,108.025,4.818,161.728c-0.299,13.822-0.608,28.114-0.774,42.21c-0.156,13.219-0.336,22.647-0.48,30.222
				c-0.333,17.481-0.471,24.717,0.589,39.012c3.502,47.286,7.472,100.881,42.912,148.623c26.758,36.061,58.822,52.581,82.754,64.506
				c-44.115,42.821-77.742,92.094-100.337,147.146c-6.853,16.698-12.638,33.829-17.339,51.328
				c-18.794-27.025-34.459-55.112-46.852-84.052c-13.245-30.926-22.014-60.753-29.06-84.719l-0.051-0.173
				c-24.652-83.932-31.577-148.212-33.409-171.934c-0.618-8.053-0.882-40.441-1.281-89.465
				c-1.261-155.228-1.894-233.198-0.046-273.107l0.004-0.09c0.21-4.344,0.702-14.518-0.014-27.815
				c-2.77-52.384-20.721-91.264-27.489-105.922c-30.094-65.083-75.497-103.51-90.414-116.135
				C940.972,1120.057,917.329,1101.862,886.168,1086.32 M847.507,0c-25.928,0-50.486,2.185-73.657,4.245
				c-47.81,4.25-127.89,11.37-209.71,60.12c-65.54,39.04-144.92,112.35-198.53,181.74c-5.41,7.02-45.25,58.89-95.06,76.9
				c-15.578,5.625-32.357,11.688-51.815,11.688c-3.163,0-6.394-0.16-9.705-0.508c-6.76-0.71-16.46-2.48-32.15-2.8
				c-1.054-0.02-2.61-0.043-4.56-0.043c-6.005,0-15.76,0.22-26.2,1.443c-10.26,1.2-36.77,4.55-65.71,19.58
				c-18.53,9.62-40.57,21.07-55.92,46.13c-6.27,10.23-10.14,20.64-12.44,30.47c16.89-6.959,40.12-14,68.26-15.66
				c2.671-0.157,6.569-0.335,11.472-0.335c17.214,0,46.858,2.193,79.648,15.176c72.73,28.8,108.25,89.85,125.02,118.66
				c26.04,44.76,34.62,84.92,38.14,101.71c26.22,125.16,29.18,254.66,23.9,380.8H305.4c-17.48-0.98-43.96-2.69-76.3-7.04
				c-40.871-5.493-56.778-10.21-78.26-10.21c-3.978,0-8.145,0.162-12.7,0.51c-17.28,1.32-45.44,3.79-75.2,21.83
				c-37.89,22.97-53.91,56.35-57,63.07c-2.36,5.12-4.32,10.19-5.94,15.17c8.827-1.375,16.901-1.894,24.096-1.894
				c11.17,0,20.224,1.249,26.714,2.484c23.21,4.43,31.77,12.2,35.18,15.771c8.91,9.35,11.25,20.06,13.34,29.11
				c6.02,26.07,14.26,56.58,19.4,71.56c6.43,18.71,17.04,49.64,46.09,69.13c6.419,4.308,23.797,15.964,45.9,15.964
				c1.655,0,3.335-0.065,5.04-0.204c42.55-3.45,67.42-49.91,76.41-66.7c21.81-40.75,21.67-82.56,17.7-110.97
				c-3.33,16.259-17.711,28.49-34.96,28.49c-0.891,0-1.788-0.032-2.694-0.099c-17.521-1.284-31.681-15.507-32.898-33.033
				c-1.448-20.863,15.049-38.228,35.592-38.228h80.2c-5.1,83.2-12.73,164.32-18.4,241.05c-1.46,19.68-4.61,63.73-29.67,112.31
				c-21.17,41.05-47.97,65.9-61.45,78.4c-29.03,26.92-63.3,47.58-97.66,63.39c28.24,13.76,59.89,32.87,91.3,59.51
				c89.59,75.98,122.74,166.95,137.74,209.79c38.79,110.76,32.04,218,13.56,301.64c31.97-49.3,65.12-111.33,91.12-186.01
				c26.13-75.04,38.19-143.16,43.68-197.8l0.07-0.56v-681.72v-64.71v-699.2l-0.03-0.57c0.04-1.45,0.11-3.53,0.23-6.03
				c3.01-60.51,28.67-143.62,96.58-202.63c20.5-17.81,69.11-58.82,143.15-62.53c0.932-0.047,3.07-0.133,6.221-0.133
				c22.512,0,96.878,4.417,155.019,59.373c23.89,22.58,35.43,44.61,54.3,80.62c15.74,30.04,33.95,71.89,49.36,136.56
				c11.47,48.14,25.23,125.06,23.03,225.41c-1.86,85.1-3.56,162.74-41.13,255.03c-25.46,62.53-57.55,153.39-148.081,190.86
				c-50.333,20.828-104.247,24.879-158.416,24.879c-34.467,0-69.03-1.639-102.864-1.639v64.71h131.87
				c2.535-0.077,5.25-0.122,8.122-0.122c16.161,0,37.369,1.412,60.448,6.422c67.2,14.58,110.57,50.43,128.62,65.71
				c15.1,12.78,53.93,46.34,79.69,102.05c6.81,14.75,21.45,47.2,23.76,90.88c0.61,11.33,0.19,19.83,0,23.76
				c-1.9,40.91-1.27,119.08,0,275.42c0.45,55.26,0.68,82.89,1.4,92.27c1.2,15.54,7.08,85.46,34.95,180.35
				c7.1,24.15,16.52,56.23,30.76,89.48c16.77,39.16,48.6,99.51,110.87,164.12c1.84-38.32,9.26-84.02,28.94-131.97
				c33.04-80.5,88.45-137.59,143.82-177.34c-19.1-3.97-39.98-10.55-61.34-21.18c-21.62-10.76-48.33-24.06-69.9-53.13
				c-28.35-38.19-31.58-81.72-34.95-127.22c-1.32-17.81-0.52-21.76,0-65.72c0.82-69.62,5.1-140.39-4.42-209.98
				c-10.14-74.1-32.46-146.56-66.25-213.3c-21.05-41.58-47.47-73.43-90.25-93.75c-24.099-11.445-49.608-19.958-75.653-25.68
				c-11.455-2.522-22.368-5.235-30.755-6.377c-3-0.408-20.152-4.193-20.152-4.193s19.248-8.81,42.658-17.069
				c52.18-18.41,119.62-49.629,165.132-116.091c34.83-50.86,46.66-101.82,60.12-157.98c17.25-72.01,17.6-127.37,18.17-219.49
				c0.57-91.99,0.86-137.99-11.18-198.53c-12.23-61.45-26.38-132.58-81.09-204.11c-17.02-22.26-60.95-78.29-139.81-113.24
				C936.487,5.914,890.151,0,847.507,0L847.507,0z"/>
		</g>
	</g>
</g>
<g id="Layer_6">
	<g>
		<g>
			<circle style="fill:#480000;" cx="600.964" cy="355.316" r="29.15"/>
			<path style="fill:#480000;" d="M600.964,332.666c12.489,0,22.65,10.161,22.65,22.65s-10.161,22.65-22.65,22.65
				c-12.489,0-22.65-10.161-22.65-22.65S588.475,332.666,600.964,332.666 M600.964,319.666c-19.689,0-35.65,15.961-35.65,35.65
				s15.961,35.65,35.65,35.65c19.689,0,35.65-15.961,35.65-35.65S620.653,319.666,600.964,319.666L600.964,319.666z"/>
		</g>
	</g>
	<g>
		<g>
			<path style="fill:#480000;" d="M600.964,1834.289c-16.073,0-29.15-13.077-29.15-29.15s13.077-29.149,29.15-29.149
				s29.15,13.076,29.15,29.149S617.038,1834.289,600.964,1834.289z"/>
			<path style="fill:#480000;" d="M600.964,1782.489c12.489,0,22.65,10.161,22.65,22.65c0,12.489-10.161,22.65-22.65,22.65
				c-12.489,0-22.65-10.161-22.65-22.65C578.315,1792.65,588.475,1782.489,600.964,1782.489 M600.964,1769.489
				c-19.689,0-35.65,15.961-35.65,35.65c0,19.689,15.961,35.65,35.65,35.65c19.689,0,35.65-15.961,35.65-35.65
				C636.614,1785.45,620.653,1769.489,600.964,1769.489L600.964,1769.489z"/>
		</g>
	</g>
	<g>
		<g>
			<rect x="596.464" y="361.816" style="fill:#480000;" width="9" height="1407.427"/>
			<polygon style="fill:#480000;" points="611.964,355.316 589.964,355.316 589.964,1775.743 611.964,1775.743 611.964,355.316 			
				"/>
		</g>
	</g>
	<g>
		<g>
			<path style="fill:#480000;" d="M651.547,1000.811c-17.979,0-35.677-1.091-51.181-3.155c-1.192-0.158-2.25-0.771-2.98-1.726
				c-0.73-0.955-1.045-2.137-0.886-3.327c0.296-2.229,2.203-3.909,4.435-3.909c0.202,0,0.408,0.014,0.612,0.041
				c3.794,0.505,24.062,3.019,51.331,3.019c28.622,0,70.816-2.846,109.297-16.401c65.295-23.001,102.53-63.892,116.548-79.286
				c37.156-40.791,51.861-79.63,67.429-120.75l0.35-0.924c28.233-74.581,32.92-137.691,36.021-179.454
				c4.77-64.238-0.001-109.513-8.661-191.704c-9.735-92.417-21.271-132.334-36.727-166.786
				c-20.926-46.604-41.878-68.959-52.505-78.137c-31.663-27.358-66.105-41.819-99.601-41.819c-6.88,0-13.803,0.607-20.575,1.805
				c-34.724,6.14-59.167,21.072-72.647,44.382c-19.919,34.44-14.233,82.429,12.417,104.79c1.881,1.577,18.933,15.382,38.955,15.382
				c5.745,0,11.223-1.151,16.28-3.42c21.284-9.542,30.247-35.89,26.615-55.849c-1.561-8.63-5.472-16.689-11.625-23.946
				c-0.777-0.917-1.151-2.082-1.053-3.279c0.099-1.198,0.658-2.286,1.575-3.063c1.041-0.883,2.155-1.068,2.905-1.068
				c1.328,0,2.58,0.579,3.437,1.589c7.089,8.361,11.797,18.099,13.617,28.161c4.194,23.048-5.522,53.891-31.788,65.667
				c-6.273,2.815-12.968,4.242-19.9,4.242c-23.227,0.001-42.662-15.726-44.801-17.519c-15.043-12.623-24.628-32.07-26.985-54.756
				c-2.224-21.396,2.354-43.789,12.561-61.436c14.874-25.717,41.408-42.115,78.865-48.737c7.303-1.291,14.744-1.946,22.117-1.946
				c20.594,0,41.527,5.069,62.22,15.066c22.219,10.734,37.529,23.962,43.293,28.942c19.325,16.69,38.799,45.549,54.836,81.265
				c15.819,35.26,27.604,75.91,37.46,169.472c8.719,82.744,13.521,128.323,8.692,193.364c-3.14,42.285-7.884,106.179-36.58,181.98
				l-0.35,0.923c-15.181,40.099-30.879,81.563-69.191,123.625c-14.438,15.854-52.786,57.964-120.212,81.714
				c-39.816,14.026-83.751,16.971-113.596,16.971H651.547z"/>
			<path style="fill:#480000;" d="M784.997,100.99c-7.777,0-15.534,0.681-23.249,2.045c-39.435,6.972-67.481,24.429-83.36,51.884
				c-10.878,18.808-15.762,42.631-13.399,65.362c2.533,24.375,12.929,45.35,29.275,59.066c2.865,2.401,23.64,19.039,48.977,19.038
				c7.25,0,14.875-1.363,22.559-4.811c29.285-13.129,40.159-47.29,35.525-72.754c-2.022-11.185-7.228-21.976-15.055-31.207
				c-2.175-2.567-5.275-3.887-8.395-3.887c-2.514,0-5.042,0.857-7.109,2.61c-4.634,3.929-5.205,10.87-1.276,15.504
				c5.405,6.375,8.832,13.404,10.188,20.906c3.184,17.496-4.503,40.515-22.881,48.755c-4.53,2.033-9.136,2.851-13.619,2.851
				c-17.983,0-33.949-13.168-34.777-13.862c-24.383-20.459-29.406-64.676-10.968-96.556c12.476-21.572,35.403-35.445,68.152-41.235
				c6.445-1.14,12.929-1.706,19.444-1.706c32.017,0.002,64.626,13.69,95.352,40.239c10.219,8.826,30.411,30.419,50.823,75.878
				c15.193,33.866,26.547,73.239,36.192,164.802c8.621,81.819,13.37,126.889,8.645,190.54
				c-3.073,41.389-7.717,103.936-35.618,177.639l-0.35,0.924c-15.343,40.524-29.835,78.801-66.156,118.676
				c-13.717,15.063-50.155,55.076-113.901,77.531c-36.475,12.849-76.46,16.032-107.137,16.032c-26.667,0-46.303-2.407-50.466-2.961
				c-0.497-0.067-0.99-0.099-1.477-0.099c-5.429,0-10.143,4.025-10.878,9.551c-0.802,6.021,3.43,11.554,9.452,12.354
				c14.724,1.96,32.62,3.212,52.037,3.212c0.007,0,0.016,0,0.023,0c36.964,0,79.405-4.534,115.756-17.34
				c68.973-24.295,108.121-67.285,122.857-83.468c39.145-42.976,55.067-85.03,70.465-125.7l0.35-0.923
				c29.031-76.686,33.816-141.146,36.983-183.8c4.872-65.621,0.05-111.389-8.711-194.527
				c-9.946-94.42-21.911-135.605-37.994-171.453c-16.418-36.563-36.489-66.225-56.513-83.518
				c-5.941-5.133-21.723-18.77-44.718-29.879C828.395,106.244,806.606,100.989,784.997,100.99L784.997,100.99z"/>
		</g>
	</g>
	<g>
		<g>
			<path style="fill:#480000;" d="M890.669,1445.403c-19.44,0-39.611-5.665-55.34-15.542
				c-16.748-10.517-27.528-24.907-31.176-41.615c-3.37-15.473-1.511-37.538,13.814-53.052c10.283-10.407,24.389-16.376,38.7-16.376
				c5.505,0,10.801,0.899,15.741,2.673c18.555,6.645,24.679,17.878,26.55,26.131c2.795,12.366-1.975,25.829-12.451,35.13
				c-1.056,0.938-2.205,1.134-2.983,1.134c-1.307,0-2.503-0.537-3.37-1.513c-1.647-1.855-1.478-4.705,0.378-6.354
				c8.023-7.121,11.72-17.242,9.647-26.411c-1.996-8.806-8.996-15.414-20.807-19.646c-3.952-1.418-8.216-2.137-12.672-2.137
				c-11.772,0-23.858,5.119-32.33,13.693c-16.519,16.721-12.415,40.26-11.424,44.809c3.942,18.056,16.951,29.494,27.169,35.912
				c14.332,9,32.771,14.161,50.59,14.161c6.426,0,12.549-0.684,18.199-2.032c17.622-4.205,30.479-13.324,39.306-27.878
				c13.848-22.827,16.283-59.672,6.515-98.56c-5.73-22.815-16.318-45.156-31.469-66.402c-27.01-37.885-60.192-56.078-82.15-68.117
				c-52.285-28.656-100.074-33.89-131.697-37.353c-11.269-1.234-24.113-1.859-38.178-1.859c-26.728,0-52.702,2.213-69.786,4.069
				c-0.168,0.019-0.334,0.027-0.5,0.027c-2.294,0-4.211-1.726-4.46-4.015c-0.268-2.467,1.521-4.692,3.987-4.96
				c17.27-1.877,43.568-4.115,70.789-4.115c14.422,0,27.586,0.642,39.126,1.905c32.336,3.543,81.196,8.895,135.044,38.407
				c22.678,12.435,56.949,31.228,85.151,70.784c15.805,22.165,26.863,45.525,32.87,69.436c4.966,19.769,14.171,69.613-7.549,105.42
				c-10,16.485-25.11,27.239-44.912,31.964C904.658,1444.635,897.821,1445.403,890.669,1445.403z"/>
			<path style="fill:#480000;" d="M671.263,1118.707c-27.889,0-54.845,2.344-71.491,4.153c-6.04,0.656-10.403,6.084-9.747,12.124
				c0.612,5.635,5.381,9.812,10.922,9.812c0.397,0,0.798-0.021,1.202-0.065c16.138-1.754,42.27-4.032,69.084-4.031
				c12.665,0,25.486,0.509,37.47,1.821c31.113,3.407,78.131,8.558,129.279,36.591c21.439,11.755,53.838,29.521,79.983,66.191
				c14.676,20.581,24.924,42.186,30.457,64.213c9.354,37.237,7.197,72.23-5.769,93.604c-7.88,12.992-19.413,21.146-35.257,24.927
				c-5.241,1.251-10.883,1.854-16.69,1.854c-16.191,0-33.647-4.698-47.133-13.166c-9.164-5.755-20.815-15.942-24.275-31.79
				c-0.865-3.974-4.465-24.522,9.697-38.857c7.447-7.537,17.844-11.762,27.707-11.762c3.623,0,7.174,0.57,10.48,1.756
				c9.582,3.433,15.188,8.468,16.659,14.959c1.55,6.859-1.371,14.568-7.623,20.118c-4.543,4.034-4.957,10.986-0.923,15.529
				c2.174,2.449,5.195,3.698,8.231,3.698c2.596,0,5.204-0.914,7.298-2.774c12.247-10.873,17.794-26.744,14.475-41.428
				c-2.231-9.841-9.367-23.174-30.693-30.812c-5.739-2.06-11.81-3.055-17.937-3.055c-15.648,0-31.648,6.492-43.324,18.308
				c-17.152,17.362-19.275,41.862-15.541,59.007c4.029,18.452,15.81,34.267,34.07,45.733c17.041,10.701,38.491,16.537,58.796,16.537
				c7.529,0,14.903-0.803,21.833-2.458c21.555-5.143,38.027-16.891,48.961-34.915c22.989-37.9,13.46-89.813,8.295-110.375
				c-6.205-24.701-17.605-48.8-33.881-71.625c-29.066-40.769-64.122-59.99-87.32-72.711c-54.983-30.135-104.616-35.57-137.46-39.168
				C698.293,1119.248,684.673,1118.706,671.263,1118.707L671.263,1118.707z"/>
		</g>
	</g>
	<g>
		<g>
			<path style="fill:#480000;" d="M847.507,16c49.293,0,91.351,8.466,132.36,26.643c32.244,14.29,62.099,33.979,88.737,58.518
				c22.865,21.064,37.711,40.481,44.847,49.814c52.443,68.566,66.074,137.056,78.106,197.511
				c11.718,58.921,11.436,104.465,10.874,195.2l0,0.11c-0.562,90.801-0.901,145.609-17.73,215.86l-0.663,2.768
				c-13.153,54.902-24.512,102.316-57.099,149.901c-44.157,64.485-110.895,93.687-157.254,110.042
				c-23.817,8.403-43.181,17.237-43.994,17.609l-43.432,19.879l46.643,10.293c5.35,1.181,18.149,3.975,21.443,4.424
				c5.688,0.774,13.265,2.492,21.288,4.311c2.678,0.607,5.415,1.228,8.191,1.839c25.462,5.593,49.761,13.838,72.222,24.505
				c18.772,8.917,34.609,20.476,48.416,35.339c12.588,13.551,23.848,30.294,34.424,51.185
				c32.896,64.974,54.655,135.037,64.672,208.241c7.449,54.448,6.226,110.983,5.043,165.657c-0.297,13.761-0.605,27.99-0.77,41.965
				c-0.157,13.309-0.338,22.787-0.483,30.402c-0.326,17.14-0.448,23.553,0.525,36.689c3.41,46.041,6.936,93.65,38.057,135.572
				c23.864,32.161,53.778,47.049,75.62,57.92c10.704,5.327,21.792,9.937,33.177,13.799
				c-56.002,46.042-97.421,101.196-123.331,164.322c-13.103,31.925-22.061,65.554-26.759,100.371
				c-35.508-41.519-63.541-86.043-83.541-132.745c-13.829-32.292-23.213-64.207-30.063-87.51l-0.053-0.18
				c-25.317-86.198-32.455-152.547-34.349-177.066c-0.684-8.906-0.921-38.128-1.354-91.175
				c-1.265-155.787-1.901-233.982-0.018-274.518l0.004-0.09c0.208-4.299,0.641-13.243-0.008-25.287
				c-2.517-47.587-19.004-83.298-25.215-96.75c-27.774-60.065-70-95.804-83.875-107.547
				c-17.256-14.608-63.094-53.411-135.564-69.134c-25.837-5.608-48.979-6.786-63.842-6.786c-2.805,0-5.615,0.041-8.356,0.122H618.77
				v-32.599c11.542,0.149,23.191,0.427,34.575,0.698c17.102,0.408,34.785,0.83,52.289,0.83c50.177,0,108.964-3.1,164.535-26.095
				c91.631-37.925,126.764-125.139,152.418-188.82c1.481-3.677,2.932-7.279,4.362-10.791
				c38.686-95.031,40.445-175.51,42.307-260.712c1.745-79.6-6.149-156.805-23.462-229.469
				c-17.009-71.377-37.111-114.243-50.772-140.315c-19.052-36.358-31.639-60.377-57.462-84.783
				c-62.575-59.149-142.885-63.746-166.009-63.746c-3.436,0-5.873,0.096-7.022,0.153c-81.052,4.062-133.208,49.374-152.844,66.432
				c-88.664,77.044-100.538,183.209-102.067,213.94c-0.105,2.177-0.186,4.316-0.242,6.356l-0.018,0.642l0.034,0.641l0.008,0.148
				v698.781v64.71v680.783c-6.66,66.209-21.08,131.489-42.86,194.037c-13.118,37.677-28.948,74.472-47.317,110.031
				c6.791-79.039-2.278-154.661-27.152-225.687c-14.286-40.8-47.741-136.348-142.492-216.705
				c-20.694-17.552-43.057-33.256-66.759-46.898c28.181-15.351,52.868-32.796,73.652-52.07
				c13.741-12.742,42.335-39.257,64.787-82.794c26.42-51.217,29.898-98.115,31.383-118.141l0.024-0.325
				c2.107-28.507,4.438-57.059,6.907-87.288c4.078-49.939,8.296-101.577,11.506-153.962l1.041-16.979H355.11h-80.2
				c-14.276,0-28.051,5.989-37.794,16.432c-9.736,10.436-14.751,24.616-13.759,38.905c1.766,25.434,22.268,46.019,47.692,47.883
				c1.285,0.094,2.584,0.142,3.861,0.142c7.273,0,14.267-1.537,20.634-4.327c-1.246,19.758-5.991,41.79-17.483,63.262
				c-8.135,15.193-29.745,55.552-63.595,58.297c-1.236,0.1-2.496,0.151-3.745,0.151c-17.239,0-31.584-9.626-36.986-13.25
				c-24.556-16.475-33.763-43.266-39.856-60.994l-0.014-0.042c-4.859-14.163-13.004-44.242-18.944-69.968l-0.118-0.512
				c-2.306-9.998-5.465-23.691-17.241-36.048c-9.499-9.945-23.81-16.629-43.759-20.437c-9.219-1.755-18.756-2.682-28.369-2.761
				c7.261-12.357,21.646-32.025,45.802-46.669c27.095-16.425,52.779-18.387,68.126-19.559c4.076-0.312,7.831-0.463,11.479-0.463
				c12.182,0,22.789,1.748,38.843,4.393c9.734,1.604,21.849,3.6,37.285,5.674c31.758,4.271,58.119,6.069,77.537,7.158l0.448,0.025
				h0.448h53.09h15.344l0.642-15.331c6.405-153.022-1.293-275.279-24.226-384.752c-3.386-16.149-12.379-59.048-39.987-106.501
				c-17.879-30.716-55.083-94.63-132.943-125.462c-34.026-13.471-65.297-16.299-85.539-16.299c-4.209,0-8.269,0.119-12.413,0.363
				c-13.078,0.771-26.02,2.668-38.729,5.667c12.85-18.631,30.267-27.673,47.146-36.435c26.957-14,51.974-16.926,60.197-17.888
				c9.413-1.102,18.431-1.334,24.338-1.334c1.425,0,2.819,0.013,4.234,0.039c11.144,0.228,18.908,1.227,25.146,2.029
				c1.999,0.257,3.886,0.5,5.658,0.686c3.76,0.396,7.589,0.596,11.378,0.596c22.251,0,40.834-6.711,57.255-12.641
				c48.753-17.628,87.736-63.289,102.233-82.103l0.047-0.062c53.234-68.903,131.219-140.346,194.058-177.777
				c78.686-46.883,156.466-53.797,202.957-57.93C798.398,18.125,822.296,16,847.507,16 M847.507,0
				c-25.928,0-50.486,2.185-73.657,4.245c-47.81,4.25-127.89,11.37-209.71,60.12c-65.54,39.04-144.92,112.35-198.53,181.74
				c-5.41,7.02-45.25,58.89-95.06,76.9c-15.578,5.625-32.357,11.688-51.815,11.688c-3.163,0-6.394-0.16-9.705-0.508
				c-6.76-0.71-16.46-2.48-32.15-2.8c-1.054-0.02-2.61-0.043-4.56-0.043c-6.005,0-15.76,0.22-26.2,1.443
				c-10.26,1.2-36.77,4.55-65.71,19.58c-18.53,9.62-40.57,21.07-55.92,46.13c-6.27,10.23-10.14,20.64-12.44,30.47
				c16.89-6.96,40.12-14,68.26-15.66c2.671-0.157,6.568-0.335,11.471-0.335c17.214,0,46.858,2.193,79.649,15.176
				c72.73,28.8,108.25,89.85,125.02,118.66c26.04,44.76,34.62,84.92,38.14,101.71c26.22,125.16,29.18,254.66,23.9,380.8H305.4
				c-17.48-0.98-43.96-2.69-76.3-7.04c-40.871-5.493-56.778-10.21-78.26-10.21c-3.978,0-8.145,0.162-12.7,0.51
				c-17.28,1.32-45.44,3.79-75.2,21.83c-37.89,22.97-53.91,56.35-57,63.07c-2.36,5.12-4.32,10.19-5.94,15.17
				c8.827-1.375,16.901-1.894,24.096-1.894c11.17,0,20.224,1.25,26.714,2.484c23.21,4.43,31.77,12.199,35.18,15.77
				c8.91,9.35,11.25,20.06,13.34,29.11c6.02,26.07,14.26,56.58,19.4,71.56c6.43,18.71,17.04,49.64,46.09,69.13
				c6.419,4.308,23.797,15.964,45.9,15.964c1.655,0,3.335-0.065,5.04-0.204c42.55-3.45,67.42-49.91,76.41-66.7
				c21.81-40.75,21.67-82.56,17.7-110.97c-3.33,16.259-17.711,28.49-34.96,28.49c-0.891,0-1.788-0.032-2.693-0.099
				c-17.521-1.284-31.681-15.507-32.898-33.033c-1.449-20.863,15.049-38.228,35.591-38.228h80.2c-5.1,83.2-12.73,164.32-18.4,241.05
				c-1.46,19.68-4.61,63.73-29.67,112.31c-21.17,41.05-47.97,65.9-61.45,78.4c-29.03,26.92-63.3,47.58-97.66,63.39
				c28.24,13.76,59.89,32.87,91.3,59.51c89.59,75.98,122.74,166.95,137.74,209.79c38.79,110.76,32.04,218,13.56,301.64
				c31.97-49.3,65.12-111.33,91.12-186.01c26.13-75.04,38.19-143.16,43.68-197.8l0.07-0.56v-681.72v-64.71v-699.2l-0.03-0.57
				c0.04-1.45,0.11-3.53,0.23-6.03c3.01-60.51,28.67-143.62,96.58-202.63c20.5-17.81,69.11-58.82,143.15-62.53
				c0.932-0.047,3.07-0.133,6.221-0.133c22.512,0,96.878,4.417,155.018,59.373c23.89,22.58,35.43,44.61,54.301,80.62
				c15.74,30.04,33.949,71.89,49.36,136.56c11.47,48.14,25.23,125.06,23.03,225.41c-1.86,85.1-3.56,162.74-41.13,255.031
				c-25.46,62.53-57.55,153.39-148.08,190.86c-50.334,20.828-104.247,24.879-158.416,24.879c-34.467,0-69.03-1.639-102.864-1.639
				v64.71h131.87c2.535-0.077,5.25-0.122,8.122-0.122c16.161,0,37.369,1.412,60.448,6.422c67.2,14.58,110.57,50.43,128.62,65.71
				c15.1,12.78,53.93,46.34,79.69,102.05c6.81,14.75,21.45,47.2,23.76,90.88c0.61,11.33,0.19,19.83,0,23.76
				c-1.9,40.91-1.27,119.08,0,275.42c0.45,55.26,0.68,82.89,1.4,92.27c1.2,15.54,7.08,85.46,34.95,180.35
				c7.1,24.15,16.52,56.23,30.76,89.48c16.77,39.16,48.6,99.51,110.87,164.12c1.84-38.32,9.26-84.02,28.94-131.97
				c33.04-80.5,88.45-137.59,143.82-177.34c-19.1-3.97-39.98-10.55-61.34-21.18c-21.62-10.76-48.33-24.06-69.9-53.13
				c-28.35-38.19-31.58-81.72-34.95-127.22c-1.32-17.81-0.52-21.76,0-65.72c0.82-69.62,5.1-140.39-4.42-209.98
				c-10.14-74.1-32.46-146.56-66.25-213.3c-21.05-41.58-47.47-73.43-90.25-93.75c-24.099-11.445-49.608-19.958-75.653-25.68
				c-11.455-2.522-22.368-5.236-30.755-6.377c-3-0.408-20.152-4.193-20.152-4.193s19.247-8.81,42.658-17.069
				c52.18-18.41,119.621-49.629,165.132-116.091c34.83-50.86,46.66-101.82,60.12-157.98c17.25-72.01,17.6-127.37,18.17-219.49
				c0.57-91.99,0.86-137.99-11.18-198.53c-12.23-61.45-26.38-132.58-81.09-204.11c-17.02-22.26-60.95-78.29-139.81-113.24
				C936.487,5.914,890.151,0,847.507,0L847.507,0z"/>
		</g>
	</g>
	<g>
		<g>
			<path style="fill:#480000;" d="M231.485,2165.166c-19.113,0.001-37.82-5.186-54.099-14.998
				c-16.322-9.838-29.024-23.642-36.733-39.917c-14.324-30.27-11.415-66.635,7.412-92.644c4.281-5.913,27.542-35.412,65.147-35.412
				c23.018,0,50.886,8.464,60.132,32.217c6.668,17.13,3.516,42.181-15.41,56.914c-8.429,6.562-18.601,9.889-30.232,9.889
				c-8.432,0-14.647-1.792-15.807-2.151c-2.368-0.734-3.698-3.261-2.962-5.632c0.587-1.896,2.314-3.168,4.296-3.168
				c0.449,0,0.899,0.068,1.337,0.204c0.583,0.182,5.963,1.789,13.111,1.789c9.427,0,17.979-2.777,24.73-8.033
				c15.288-11.9,17.876-32.864,12.551-46.547c-9.812-25.204-44.811-26.481-51.727-26.481c-33.249,0-54.044,26.397-57.875,31.689
				c-16.929,23.389-19.507,56.171-6.567,83.516c17.384,36.703,55.708,49.726,83.245,49.726c3.407,0,6.79-0.187,10.056-0.554
				c17.964-2.012,35.692-9.701,49.917-21.653c15.766-13.237,24.313-31.439,31.201-49.137
				c15.294-39.275,19.807-87.951,13.412-144.673c-8.883-78.824-40.873-134.304-54.534-157.995l-0.044-0.077
				c-60.454-104.789-160.088-160.27-233.028-188.362l-11.376-4.382l11.495-4.061c107.223-37.873,181.395-97.887,214.497-173.551
				c9.211-21.054,15.419-43.917,18.453-67.957l1.848-14.644l-12.05,8.523c-23.762,16.808-46.978,24.979-70.974,24.979
				c-3.488,0-7.023-0.183-10.508-0.543c-38.919-4.021-64.233-29.289-80.983-46.009c-13.051-13.027-24.143-27.972-32.968-44.419
				c-1.173-2.187-0.349-4.92,1.837-6.093c0.666-0.356,1.378-0.538,2.12-0.538c1.665,0,3.188,0.91,3.974,2.375
				c8.406,15.668,18.962,29.895,31.374,42.283c16.809,16.777,39.828,39.754,75.573,43.449c3.106,0.321,6.269,0.484,9.398,0.484
				c33.999,0,60.127-19.036,69.964-26.202c5.182-3.773,10.156-7.973,14.787-12.481l8.007-7.796l-0.371,11.169
				c-1.154,34.813-8.299,67.458-21.235,97.025c-31.232,71.39-98.259,129.689-193.834,168.597l-14.195,5.779l14.021,6.188
				c41.487,18.312,79.175,40.831,112.017,66.934c41.363,32.876,74.99,71.48,99.947,114.74l0.045,0.078
				c12.75,22.111,46.595,80.811,55.688,161.497c6.652,59.005,2.083,107.726-13.968,148.946
				c-6.971,17.911-16.438,38.186-33.799,52.764c-15.569,13.079-34.996,21.498-54.703,23.705
				C239.256,2164.948,235.353,2165.166,231.485,2165.166L231.485,2165.166z"/>
			<path style="fill:#480000;" d="M80.402,1258.483c-1.755,0-3.537,0.422-5.192,1.31c-5.353,2.872-7.364,9.54-4.492,14.894
				c9.127,17.01,20.594,32.461,34.103,45.946c17.4,17.368,43.695,43.615,84.907,47.874c3.812,0.394,7.537,0.577,11.177,0.577
				c34.731,0,61.336-16.701,74.727-26.173c-2.959,23.45-8.971,45.621-17.959,66.165c-32.362,73.974-105.224,132.769-210.706,170.027
				l-28.101,9.926l27.811,10.711c71.961,27.716,170.23,82.402,229.725,185.529l0.053,0.092
				c13.458,23.34,44.974,77.999,53.706,155.477c6.275,55.664,1.898,103.301-13.01,141.587c-6.575,16.893-14.678,34.22-29.325,46.518
				c-13.255,11.137-29.755,18.3-46.462,20.171c-3.018,0.339-6.14,0.512-9.331,0.512c-28.301,0-62.034-13.627-77.369-46.005
				c-11.94-25.233-9.602-55.429,5.957-76.924c3.507-4.844,22.518-29.001,52.595-29.001c0.004,0,0.011,0,0.015,0
				c6.174,0,37.393,1.077,45.669,22.34c4.474,11.494,2.32,29.091-10.486,39.06c-6.812,5.303-14.571,6.662-20.737,6.662
				c-6.219,0-10.817-1.383-11.188-1.498c-1.085-0.336-2.182-0.496-3.26-0.496c-4.694,0-9.041,3.025-10.504,7.744
				c-1.799,5.803,1.445,11.966,7.248,13.766c1.436,0.445,8.402,2.442,17.73,2.442c9.998,0,22.709-2.296,34.225-11.26
				c21.434-16.687,25.015-45.028,17.474-64.4c-10.435-26.808-41.023-36.359-66.168-36.359c-0.007,0-0.013,0-0.021,0
				c-40.762,0-65.805,31.736-70.413,38.101c-20.196,27.901-23.345,66.854-8.021,99.237c16.905,35.693,55.53,58.635,96.707,58.633
				c4.089,0,8.208-0.227,12.329-0.689c20.966-2.349,41.622-11.294,58.159-25.188c18.483-15.521,28.407-36.706,35.677-55.383
				c16.442-42.226,21.143-91.957,14.37-152.032c-9.245-82.032-43.582-141.584-56.508-164.002l-0.054-0.094
				c-55.77-96.672-143.328-152.752-214.969-184.372c97.331-39.622,165.275-98.723,197.338-172.012
				c13.268-30.326,20.594-63.773,21.776-99.415l0.905-27.302l-19.573,19.056c-4.409,4.293-9.144,8.29-14.078,11.884
				c-9.733,7.09-34.255,24.957-66.138,24.957c-2.851,0-5.766-0.143-8.73-0.45c-33.454-3.458-55.518-25.481-71.65-41.584
				c-11.958-11.937-22.132-25.648-30.238-40.756C88.119,1260.587,84.325,1258.483,80.402,1258.483L80.402,1258.483z"/>
		</g>
	</g>
</g>
</svg>
