<?xml version="1.0" encoding="iso-8859-1"?>
<!-- Generator: Adobe Illustrator 24.0.1, SVG Export Plug-In . SVG Version: 6.00 Build 0)  -->
<svg version="1.1" xmlns="http://www.w3.org/2000/svg" xmlns:xlink="http://www.w3.org/1999/xlink" x="0px" y="0px"
	 viewBox="0 0 1045.641 2055.212" style="enable-background:new 0 0 1045.641 2055.212;" xml:space="preserve">
<g id="Layer_5">
	<linearGradient id="SVGID_1_" gradientUnits="userSpaceOnUse" x1="496.4678" y1="1282.7356" x2="496.4678" y2="143.7248">
		<stop  offset="0" style="stop-color:#8B1D1A"/>
		<stop  offset="0.25" style="stop-color:#550000"/>
		<stop  offset="0.5" style="stop-color:#3A0000"/>
		<stop  offset="0.75" style="stop-color:#1E0000"/>
		<stop  offset="1" style="stop-color:#000000"/>
	</linearGradient>
	<path style="fill:url(#SVGID_1_);" d="M358.106,226.085c-40.261,26.871-74.509,65.847-82.7,114.888
		c-5.806,34.759,2.733,68.356,18.151,99.407c17.85,35.89,42.44,56.09,79.69,86.68c16.25,13.35,28.67,21.94,74.09,51.73
		c19.38,12.7,35.02,22.96,48.53,31.78c21.53,14.06,37.67,24.47,54.93,35.33c58.6,36.88,164.49,103.51,262.83,209.71
		c31.68,34.2,63.98,69.49,96.47,124.42c22.25,37.62,66.71,114.56,79.69,222.3c3.23,26.84,17.42,162.75-58.72,310.36
		c-21.47,41.62-79.97,142.07-199.92,216.7c-29.86,18.58-117.28,69.01-235.28,81.44c-33.9,3.57-70.33,4.01-108.64-0.35
		c-32.32-3.68-107.82-13.06-188.74-61.51c-51.34-30.74-83.43-64.37-93.67-75.5c-31.52-34.23-75.69-93.22-95.07-176.15
		c-15.67-67.08-8.84-122.87-4.19-160.78c5.77-47.09,16.72-86.91,27.54-117.76c29.49-16.05,56.23-28.21,78.71-37.43
		c48.08-19.71,80.46-32.99,127.22-37.74c57.37-5.84,101.97,4.64,123.03,9.78c12.88,3.15,56.13,14.4,106.25,43.34
		c9.93,5.73,19.11,11.57,27.56,17.35v285.14c-21.05-34.12-50.13-71.71-89.07-102.56c-34.5-27.33-61.38-37.21-71.3-40.55
		c-42.49-14.3-78.86-11.38-96.47-9.78c-17.2,1.55-44.86,4.31-76.89,19.57c-14.18,6.75-39.53,19.16-61.52,46.13
		c-8.65,10.62-20.66,25.67-26.56,48.94c-8.56,33.72,1.52,61.81,5.59,72.7c7.7,20.58,21.97,41.86,29.01,51.02l0.53,1.05
		c19.72,30.74,62.19,86.81,134.04,126.88c92.1,51.35,179.56,47.4,227.88,44.73c6.67-0.36,15.02-0.86,24.76-1.77
		c46.33-4.31,123.97-17.89,200.33-70.92c26.89-18.68,74.61-52.64,109.05-116.04c37.01-68.16,37.75-131.84,37.74-171.96
		c-0.02-83.56-24.83-145.06-37.74-176.16c-38.66-93.13-94.42-150.17-146.8-202.72c-57.58-57.77-111.27-97.64-162.58-132.18
		c-16.88-11.36-33.5-22.14-49.92-32.79c-68.97-44.73-131.26-85.74-255.85-167.77c-8.75-5.76-29.17-19.36-51.73-41.94
		c-18.14-18.16-49.77-49.82-64.31-95.07c-14.51-45.16-5.34-83.15,6.99-134.21c5.46-22.6,14.5-52.48,30.24-86.3l308.08-206.55
		L599.796,0c6.95,15.44,16.39,32.7,29.29,50.33c12.05,16.47,35.73,48.15,76.89,71.3c0,0,47.9,26.92,116.04,27.96
		c47.37,0.72,102.35-16.79,158.73-50.31c-7.75,20.99-17.61,42.6-30.11,64.29c-40.76,70.75-92.5,112.69-116.03,131.42
		c-28.19,22.43-55.76,39.41-80.32,52.25c-41.31-7.58-87.13-21.3-133.59-45.26c-72.83-37.57-121.08-86.8-141.2-107.65
		c-9.91-10.26-18.95-20.4-27.2-30.22l-24.835,16.65c0,0-27.459,18.409-27.459,18.409
		C386.425,208.272,371.977,216.827,358.106,226.085z"/>
</g>
<g id="Layer_7">
	<g>
		<path style="fill:#BFCBC2;" d="M832.241,1107.95c-73.405-125.871-99.117-205.909-174.612-246.814
			c-47.813-26.851-99.265-39.685-118.018-32.791c23.407-13.623,93.784,7.379,109.769,15.087
			C759.636,885.603,796.052,1030.708,832.241,1107.95z"/>
	</g>
	<g>
		<path style="fill:#BFCBC2;" d="M681.845,868.558c-47.81-0.012-75.598-67.958-27.435-99.282
			C631.447,806.995,647.944,851.503,681.845,868.558z"/>
	</g>
	<g>
		<path style="fill:#BFCBC2;" d="M781.381,842.72c-113.074,95.72-155.484-16.026-103.973-64.022
			C649.221,897.575,749.557,846.001,781.381,842.72z"/>
	</g>
	<g>
		<path style="fill:#BFCBC2;" d="M719.333,822.196c14.314,21.028-1.493,56.082-33.103,39.929
			c-20.016-12.383-12.082-48.059,15.316-43.054C657.287,837.024,719.757,883.416,719.333,822.196z"/>
	</g>
	<g>
		<path style="fill:#BFCBC2;" d="M567.813,906.245c54.533-27.035-10.829-111.104-57.398-56.332
			C560.087,768.844,642.241,888.734,567.813,906.245z"/>
	</g>
	<g>
		<path style="fill:#BFCBC2;" d="M731.231,962.266c-49.643,10.906-69.577-23.435-78.768-70.078
			c-15.922-23.803-49.824-1.576-35.331,25.966c-26.247-28.699,16.652-65.855,44.713-35.937
			C682.112,923.04,668.125,955.866,731.231,962.266z"/>
	</g>
	<g>
		<path style="fill:#BFCBC2;" d="M572.859,701.718c-46.337-0.649-63.71,94.665-19.742,104.646
			c41.454-1.838,38.626-65.379,0.527-40.436c30.107-40.288,74.237,38.747,3.924,57.795
			C483.469,829.055,505.543,686.873,572.859,701.718z"/>
	</g>
	<g>
		<path style="fill:#BFCBC2;" d="M477.919,619.838c-41.526,46.937,68.426,80.547,40.261,165.739
			C523.198,703.262,420.967,664.288,477.919,619.838z"/>
	</g>
	<g>
		<path style="fill:#BFCBC2;" d="M400.52,631.555c113.14,63.132,72.754,170.632,6.814,162.441
			C497.085,770.484,446.022,669.407,400.52,631.555z"/>
	</g>
	<g>
		<path style="fill:#BFCBC2;" d="M422.336,769.078c34.409-53.063-77.727-59.51-49.949-2.542
			c-23.166-19.449,1.272-55.366,30.681-50.267C430.229,718.358,446.644,751.875,422.336,769.078z"/>
	</g>
	<g>
		<path style="fill:#BFCBC2;" d="M429.43,761.264c14.755-46.396-35.285-98.262-88.593-60.971
			C378.353,650.817,464.73,696.185,429.43,761.264z"/>
	</g>
	<g>
		<path style="fill:#BFCBC2;" d="M289.837,721.015c3.056-62.283,120.944-115.063,139.79-32.417
			C402.742,626.515,306.447,672.511,289.837,721.015z"/>
	</g>
	<g>
		<path style="fill:#BFCBC2;" d="M311.374,623.464c38.269-46.621,117.187-35.58,139.03,23.614
			C410.443,609.659,352.503,604.746,311.374,623.464z"/>
	</g>
	<g>
		<path style="fill:#BFCBC2;" d="M192.425,459.34c53.209,40.001-33.05,145.15-98.268,74.715
			C158.688,578.287,225.866,500.119,192.425,459.34z"/>
	</g>
	<g>
		<path style="fill:#BFCBC2;" d="M177.831,511.172c3.526-23.458-26.662-46.699-48.33-26.137
			c-20.159,21.877-0.875,48.665,23.08,27.272c5.676-4.485,3.259-15.844-5.642-14.793c41.628,0.272-26.275,69.223-38.382,7.632
			C108.319,447.317,193.106,457.85,177.831,511.172z"/>
	</g>
	<g>
		<path style="fill:#BFCBC2;" d="M157.543,469.056c-48.102-4.407-49.588-53.853-17.116-62.026
			c27.489-4.049,36.841,32.613,7.893,39.156c16.916-6.751,16.444-36.008-8.59-29.083
			C110.688,434.63,137.388,462.947,157.543,469.056z"/>
	</g>
	<g>
		<path style="fill:#BFCBC2;" d="M177.658,449.89c13.111,18.738,38.286-14.272,27.473-31.188
			c-7.925-18.756-39.862-6.839-24.273,13.885c-25.364-19.127,18.606-49.702,33.667-14.556
			C224.873,436.611,193.065,478.111,177.658,449.89z"/>
	</g>
	<g>
		<path style="fill:#BFCBC2;" d="M217.957,552.965c50.454-50.295-44.402-100.408-49.2-108.115
			C268.961,481.83,241.801,548.44,217.957,552.965z"/>
	</g>
	<g>
		<path style="fill:#BFCBC2;" d="M268.466,575.518c5.083-113.641-65.359-79.694-83.88-122.694
			C200.873,478.076,302.584,464.954,268.466,575.518z"/>
	</g>
	<g>
		<path style="fill:#BFCBC2;" d="M146.755,625.966c34.472,0.935,65.221-88.587,67.325-108.349
			C232.739,575.861,180.744,643.314,146.755,625.966z"/>
	</g>
	<g>
		<path style="fill:#BFCBC2;" d="M189.864,667.033c30.573-36.797,52.977-86.325,59.396-135.784
			C268.278,581.526,242.156,646.003,189.864,667.033z"/>
	</g>
	<g>
		<path style="fill:#BFCBC2;" d="M239.973,702.287c16.484-47.587,70.898-80.445,122.166-70.162
			C318.936,645.461,274.686,670.138,239.973,702.287z"/>
	</g>
	<g>
		<path style="fill:#BFCBC2;" d="M268.439,611.363c13.308-31.139,19.557-69.521,15.138-105.169
			C305.274,536.811,300.087,586.788,268.439,611.363z"/>
	</g>
	<g>
		<path style="fill:#BFCBC2;" d="M290.151,617.225c17.845-37.409,65.75-61.538,108.017-50.224
			C361.214,576.16,322.357,593.658,290.151,617.225z"/>
	</g>
	<g>
		<path style="fill:#BFCBC2;" d="M304.33,581.851c8.463-24.553,12.457-53.94,9.123-82.005
			C329.559,522.999,327.67,561.103,304.33,581.851z"/>
	</g>
	<g>
		<path style="fill:#BFCBC2;" d="M316.17,742.115c11.84-28.887,50.774-47.273,81.954-33.62
			C370.323,711.232,339.624,722.767,316.17,742.115z"/>
	</g>
	<g>
		<path style="fill:#BFCBC2;" d="M211.761,460.205c43.849-50.614-18.117-108.366-48.244-58.989
			C187.531,333.152,280.121,409.648,211.761,460.205z"/>
	</g>
	<g>
		<path style="fill:#BFCBC2;" d="M215.961,371.18c-19.1-42.31-86.394-21.857-73.343,25.628
			C94.662,339.6,211.641,292.757,215.961,371.18z"/>
	</g>
	<g>
		<path style="fill:#BFCBC2;" d="M233.025,396.408c-5.466-33.672-12.442-65.24-48.285-79.331
			C229.576,310.993,249.709,359.172,233.025,396.408z"/>
	</g>
	<g>
		<path style="fill:#BFCBC2;" d="M654.917,154.753c67.606,17.186,26.947,86.558,72.365,104.943
			c63.588,19.341,43.65-76.154,16.265-34.709c6.041-31.915,51.434-3.687,30.135,31.62c-17.72,30.002-63.078,21.798-77.312-8.057
			c-10.727-18.347-4.221-38.591-9.695-58.692C682.001,174.162,670.206,161.416,654.917,154.753z"/>
	</g>
	<g>
		<path style="fill:#BFCBC2;" d="M601.706,131.075c66.995,24.729,108.666,100.54,97.703,167.031
			C691.795,235.104,653.935,169.374,601.706,131.075z"/>
	</g>
	<g>
		<path style="fill:#BFCBC2;" d="M493.036,176.327c18.483-44.966,164.32-75.236,122.262,91.684
			c-0.563-47.727-3.878-125.768-72.671-111.946C524.364,157.906,505.636,160.469,493.036,176.327z"/>
	</g>
	<g>
		<path style="fill:#BFCBC2;" d="M585.668,126.968c58.22,28.001,86.475,103.404,64.247,161.077
			C654.748,231.041,629.529,165.98,585.668,126.968z"/>
	</g>
	<g>
		<path style="fill:#BFCBC2;" d="M511.792,184.829c43.644-49.956,101.987-8.297,60.656,48.353
			C594.852,178.943,559.746,152.781,511.792,184.829z"/>
	</g>
	<g>
		<path style="fill:#BFCBC2;" d="M841.481,245.193c-14.031,35.255-70,26.412-69.26-14.89
			C786.214,257.486,820.83,262.306,841.481,245.193z"/>
	</g>
	<g>
		<path style="fill:#BFCBC2;" d="M873.016,175.754c-1.858,78.509-108.186,74.187-96.518,43.349
			C788.427,247.342,866.676,199.714,873.016,175.754z"/>
	</g>
	<g>
		<path style="fill:#BFCBC2;" d="M818.368,153.614c16.578,33.021-11.432,72.377-46.479,69.196
			C796.045,212.043,817.531,180.687,818.368,153.614z"/>
	</g>
	<g>
		<path style="fill:#BFCBC2;" d="M736.471,146.482c33.893,9.799,55.965,54.411,38.566,88.491
			C771.953,204.723,758.19,170.871,736.471,146.482z"/>
	</g>
	<g>
		<path style="fill:#BFCBC2;" d="M755.745,158.128c-30.735,21.41-33.553,63.002-12.991,88.019
			C701.775,230.501,705.375,163.826,755.745,158.128z"/>
	</g>
	<g>
		<path style="fill:#BFCBC2;" d="M739.972,322.45c9.383-5.588,17.613-62.657-6.284-53.446
			C746.827,245.228,782.336,303.274,739.972,322.45z"/>
	</g>
	<g>
		<path style="fill:#BFCBC2;" d="M718.196,318.436c7.039-17.445,6.857-40.787-3.443-59.222
			C734.315,269.604,739.075,303.865,718.196,318.436z"/>
	</g>
	<g>
		<path style="fill:#BFCBC2;" d="M466.039,141.744c45.523-48.798,130.54-54.147,181.749-10.853
			C592.614,106.211,519.177,109.838,466.039,141.744z"/>
	</g>
	<g>
		<path style="fill:#BFCBC2;" d="M474.058,135.965c59.379-38.171,148.628-22.127,187.279,48.048
			C615.139,136.557,541.981,115.346,474.058,135.965z"/>
	</g>
	<g>
		<path style="fill:#BFCBC2;" d="M590.032,49.393c30.61,2.168,18.139,55.223-9.368,58.506
			c-31.507,8.479-53.445-39.407-16.099-48.458c-24.601,9.1-11.552,48.707,18.608,37.018C601.124,89.848,611.274,55.2,590.032,49.393
			z"/>
	</g>
	<g>
		<path style="fill:#BFCBC2;" d="M210.327,679.615c13.459-19.053,37.491-43.62,57.383-57.891
			C259.792,644.541,234.197,671.162,210.327,679.615z"/>
	</g>
	<g>
		<path style="fill:#BFCBC2;" d="M264.202,1226.726c38.121-23.54,57.761,37.047,86.266,41.408
			c44.545,5.432,47.156-60.896,12.274-43.767c68.513-37.636,20.48,141.213-64.927,12.619
			C289.909,1228.133,277.07,1221.759,264.202,1226.726z"/>
	</g>
	<g>
		<path style="fill:#BFCBC2;" d="M231.08,1204.247c-17.548,41.754,63.964,20.559,67.311,64.45
			C291.126,1235.961,203.002,1250.265,231.08,1204.247z"/>
	</g>
	<g>
		<path style="fill:#BFCBC2;" d="M33.333,1314.328c50.518-48.967,128.867-74.642,199.871-63.39
			C165.89,1259.699,94.769,1281.895,33.333,1314.328z"/>
	</g>
	<g>
		<path style="fill:#BFCBC2;" d="M205.464,1185.533c-51.154,25.378,5.611,71.407,42.192,68.827
			C169.928,1267.568,160.278,1187.405,205.464,1185.533z"/>
	</g>
	<g>
		<path style="fill:#BFCBC2;" d="M391.355,1197.182c52.575,24.285,38.781,74.294-9.328,90.47
			C421.727,1259.954,430.532,1229.989,391.355,1197.182z"/>
	</g>
	<g>
		<path style="fill:#BFCBC2;" d="M444.943,1216.759c33.811,25.579,11.413,91.182-41.755,75.85
			C440.034,1295.348,471.06,1255.134,444.943,1216.759z"/>
	</g>
	<g>
		<path style="fill:#BFCBC2;" d="M223.087,1194.421c75.34-11.823,101.996,39.99,124.975,60.546
			C296.448,1220.152,277.927,1198.891,223.087,1194.421z"/>
	</g>
	<g>
		<path style="fill:#BFCBC2;" d="M151.457,1220.207c-3.405,27.721-48.106,1.619-11.843-21.57
			c40.451-18.93,57.808,41.199,1.982,59.846c43.43-26.345,25.838-74.539-7.387-43.129
			C127.025,1226.053,146.247,1235.305,151.457,1220.207z"/>
	</g>
	<g>
		<path style="fill:#BFCBC2;" d="M84.561,1261.702c-54.709-28.395,50.569-93.578,31.638-13.887
			c-3.255,15.41-23.569,18.218-26.176,34.179c-1.119-4.338-0.261-9.596,4.492-15.205
			C150.301,1193.167,42.806,1222.642,84.561,1261.702z"/>
	</g>
	<g>
		<path style="fill:#BFCBC2;" d="M143.63,1304.243c18.443-3.985,16.911-35.374-10.518-32.584
			c-14.658,1.272-38.022,26.555-14.699,35.248l-0.183,0.618c-1.11-1.098-1.746-1.728-1.746-1.728c0.365,0.2,0.571,0.312,2.988,1.632
			c-30.28,0.916-12.593-48.43,19.755-44.606C161.952,1263.439,173.665,1301.025,143.63,1304.243z"/>
	</g>
	<g>
		<path style="fill:#BFCBC2;" d="M403.136,1196.411c-49.999-28.785-86.836,43.172-33.1,58.14
			C300.844,1249.911,346.984,1146.64,403.136,1196.411z"/>
	</g>
	<g>
		<path style="fill:#BFCBC2;" d="M328.615,1220.623c-4.885-24.325-41.383-24.899-51.888-47.352
			C289.821,1189.25,329.82,1192.403,328.615,1220.623z"/>
	</g>
	<g>
		<path style="fill:#BFCBC2;" d="M331.038,1165.693c-22.828,18.503-2.039,31.051-4.287,55.68
			C328.88,1209.737,298.526,1182.73,331.038,1165.693z"/>
	</g>
	<g>
		<path style="fill:#BFCBC2;" d="M252.511,412.153c6.318,16.503-1.318,40.283-20.198,48.328
			C241.293,447.004,248.993,429.928,252.511,412.153z"/>
	</g>
	<g>
		<path style="fill:#BFCBC2;" d="M299.848,500.617c-19.804-13.443-41.37-42.46-67.284-40.157
			C258.357,441.927,292.235,475.29,299.848,500.617z"/>
	</g>
	<path style="fill:#BFCBC2;" d="M408.719,752.414c-1.041-18.651-26.85-17.251-27.454,0.001
		C382.306,771.064,408.114,769.665,408.719,752.414z"/>
	<path style="fill:#BFCBC2;" d="M568.293,199.907c-1.274-21.195-30.283-19.297-30.885,0.001
		C538.682,221.102,567.691,219.204,568.293,199.907z"/>
	<path style="fill:#BFCBC2;" d="M570.009,877.672c-1.786-28.564-40.563-25.692-41.18,0
		C530.614,906.236,569.391,903.363,570.009,877.672z"/>
	<path style="fill:#BFCBC2;" d="M365.822,1238.002c-0.061-5.383,9.289-7.538,10.295,0.001
		C376.178,1243.385,366.828,1245.54,365.822,1238.002z"/>
	<path style="fill:#BFCBC2;" d="M141.476,584.691c0.753-16.01,23.387-15.291,24.022,0.001
		C164.745,600.702,142.111,599.983,141.476,584.691z"/>
</g>
<g id="Layer_4">
	<g>
		<g>
			<path style="fill:#FFB400;" d="M587.133,50.629c4.307,6.975,8.881,13.774,13.706,20.368
				c11.777,16.097,39.356,53.792,87.99,81.145c2.271,1.277,56.513,31.282,132.66,32.444c1.108,0.017,2.23,0.025,3.346,0.025
				c25.004,0,51.609-4.265,79.139-12.581c-34.783,50.696-73.302,81.357-91.16,95.572c-20.066,15.966-41.58,30.355-64.088,42.874
				c-39.476-8.309-77.094-21.608-111.984-39.601c-69.18-35.687-114.862-83.027-132.072-100.861
				c-8.672-8.978-17.277-18.54-25.576-28.418l-9.96-11.855L587.133,50.629 M270.692,262.786
				c-15.402,22.592-25.573,47.064-29.809,72.421c-6.452,38.625,0.723,79.248,21.335,120.76
				c21.192,42.609,49.557,65.903,88.811,98.138c17.982,14.773,31.786,24.224,77.124,53.96l11.458,7.509
				c14.142,9.27,26.356,17.274,37.119,24.301c23.056,15.057,39.115,25.385,55.425,35.647l0.048,0.03
				c29.21,18.384,69.215,43.561,114.154,77.243c52.841,39.605,100.479,82.198,141.594,126.6
				c29.866,32.242,60.749,65.581,92.021,118.453c9.063,15.323,25.932,43.845,41.119,80.45c17.3,41.698,28.722,84.837,33.947,128.214
				c3.765,31.286,3.878,66.638,0.326,102.234c-6.608,66.221-25.248,129.439-55.402,187.898c-16.26,31.52-36.13,61.769-59.058,89.908
				c-5.918,7.263-12.009,14.348-18.268,21.25c4.603-7.095,9.079-14.583,13.369-22.481c42.01-77.368,41.992-149.772,41.982-188.67
				c-0.022-92.266-28.327-160.453-40.415-189.57c-42.094-101.403-104.33-163.841-154.336-214.009
				c-62.814-63.021-120.086-104.37-167.828-136.509c-17.138-11.533-34.055-22.506-50.417-33.118
				c-69.042-44.776-131.404-85.836-255.65-167.639c-7.035-4.631-25.722-16.933-46.221-37.449
				c-16.378-16.396-43.79-43.838-55.742-81.033c-11.504-35.804-3.868-67.424,7.689-115.284
				c5.825-24.112,13.886-47.955,23.998-71.005L270.692,262.786 M272.992,1176.889c37.733,0,66.798,7.094,80.75,10.499
				c18.394,4.499,55.464,15.632,97.072,39.657c3.361,1.939,6.717,3.945,10.053,6.008v165.02
				c-10.392-10.383-21.178-20.007-32.337-28.847c-26.891-21.302-55.199-37.308-81.869-46.287
				c-25.605-8.617-52.76-12.987-80.712-12.988c-13.325,0-24.23,0.991-30.063,1.521c-17.62,1.588-50.417,4.543-88.792,22.827
				c-14.99,7.135-46.181,21.983-73.614,55.629c-8.889,10.913-25.435,31.228-33.347,62.432c-0.672,2.647-1.258,5.267-1.763,7.853
				c-6.817-48.115-1.86-88.535,1.927-119.414c4.053-33.079,11.286-65.87,21.533-97.668c20.627-10.752,41.85-20.616,63.253-29.394
				l0.061-0.025c47.223-19.359,75.726-31.043,117.428-35.28C252.616,1177.408,262.851,1176.889,272.992,1176.889 M599.796,0
				l-180.43,120.97l-308.08,206.55c-15.74,33.82-24.78,63.7-30.24,86.3c-12.33,51.06-21.5,89.05-6.99,134.21
				c14.54,45.25,46.17,76.91,64.31,95.07c22.56,22.58,42.98,36.18,51.73,41.94c124.59,82.03,186.88,123.04,255.85,167.77
				c16.42,10.65,33.04,21.43,49.92,32.79c51.31,34.54,105,74.41,162.58,132.18c52.38,52.55,108.14,109.59,146.8,202.72
				c12.91,31.1,37.72,92.6,37.74,176.16c0.01,40.12-0.73,103.8-37.74,171.96c-34.44,63.4-82.16,97.36-109.05,116.04
				c-76.36,53.03-154,66.61-200.33,70.92c-9.74,0.91-18.09,1.41-24.76,1.77c-11.649,0.644-25.562,1.362-41.278,1.362
				c-49.471,0-116.706-7.121-186.602-46.092c-71.85-40.07-114.32-96.14-134.04-126.88l-0.53-1.05
				c-7.04-9.16-21.31-30.44-29.01-51.02c-4.07-10.89-14.15-38.98-5.59-72.7c5.9-23.27,17.91-38.32,26.56-48.94
				c21.99-26.97,47.34-39.38,61.52-46.13c32.03-15.26,59.69-18.02,76.89-19.57c6.577-0.597,15.77-1.379,26.922-1.379
				c18.708,0,42.927,2.2,69.548,11.159c9.92,3.34,36.8,13.22,71.3,40.55c38.94,30.85,68.02,68.44,89.07,102.56v-285.14
				c-8.45-5.78-17.63-11.62-27.56-17.35c-50.12-28.94-93.37-40.19-106.25-43.34c-16.691-4.074-48.163-11.501-89.064-11.501
				c-10.707,0-22.064,0.509-33.966,1.721c-46.76,4.75-79.14,18.03-127.22,37.74c-22.48,9.22-49.22,21.38-78.71,37.43
				c-10.82,30.85-21.77,70.67-27.54,117.76c-4.65,37.91-11.48,93.7,4.19,160.78c19.38,82.93,63.55,141.92,95.07,176.15
				c10.24,11.13,42.33,44.76,93.67,75.5c80.92,48.45,156.42,57.83,188.74,61.51c19.047,2.168,37.627,3.149,55.665,3.149
				c18.242,0,35.93-1.004,52.975-2.799c118-12.43,205.42-62.86,235.28-81.44c119.95-74.63,178.45-175.08,199.92-216.7
				c76.14-147.61,61.95-283.52,58.72-310.36c-12.98-107.74-57.44-184.68-79.69-222.3c-32.49-54.93-64.79-90.22-96.47-124.42
				c-98.34-106.2-204.23-172.83-262.83-209.71c-17.26-10.86-33.4-21.27-54.93-35.33c-13.51-8.82-29.15-19.08-48.53-31.78
				c-45.42-29.79-57.84-38.38-74.09-51.73c-37.25-30.59-61.84-50.79-79.69-86.68c-15.418-31.052-23.957-64.649-18.151-99.407
				c8.191-49.04,42.439-88.017,82.7-114.887c13.871-9.258,28.319-17.813,41.897-26.916c0,0,27.459-18.409,27.459-18.409
				l24.835-16.65c8.25,9.82,17.29,19.96,27.2,30.22c20.12,20.85,68.37,70.08,141.2,107.65c46.46,23.96,92.28,37.68,133.59,45.26
				c24.56-12.84,52.13-29.82,80.32-52.25c23.53-18.73,75.27-60.67,116.03-131.42c12.5-21.69,22.36-43.3,30.11-64.29
				c-55.269,32.859-109.184,50.331-155.911,50.331c-0.94,0-1.885-0.007-2.819-0.021c-68.14-1.04-116.04-27.96-116.04-27.96
				c-41.16-23.15-64.84-54.83-76.89-71.3C616.186,32.7,606.746,15.44,599.796,0L599.796,0z"/>
		</g>
	</g>
</g>
<g id="Layer_6">
	<g>
		<g>
			<path style="fill:#480000;" d="M495.866,413.611c-16.073,0-29.15-13.076-29.15-29.149s13.077-29.15,29.15-29.15
				s29.15,13.077,29.15,29.15S511.939,413.611,495.866,413.611z"/>
			<path style="fill:#480000;" d="M495.866,361.812c12.489,0,22.65,10.161,22.65,22.65c0,12.489-10.161,22.65-22.65,22.65
				c-12.489,0-22.65-10.161-22.65-22.65C473.216,371.972,483.377,361.812,495.866,361.812 M495.866,348.812
				c-19.689,0-35.65,15.961-35.65,35.65c0,19.689,15.961,35.65,35.65,35.65c19.689,0,35.65-15.961,35.65-35.65
				C531.516,364.773,515.555,348.812,495.866,348.812L495.866,348.812z"/>
		</g>
	</g>
	<g>
		<g>
			<path style="fill:#480000;" d="M495.866,1979.745c-16.073,0-29.15-13.077-29.15-29.15s13.077-29.149,29.15-29.149
				s29.15,13.076,29.15,29.149S511.939,1979.745,495.866,1979.745z"/>
			<path style="fill:#480000;" d="M495.866,1927.946c12.489,0,22.65,10.161,22.65,22.65c0,12.489-10.161,22.65-22.65,22.65
				c-12.489,0-22.65-10.161-22.65-22.65C473.216,1938.106,483.377,1927.946,495.866,1927.946 M495.866,1914.946
				c-19.689,0-35.65,15.961-35.65,35.65c0,19.689,15.961,35.65,35.65,35.65c19.689,0,35.65-15.961,35.65-35.65
				C531.516,1930.907,515.555,1914.946,495.866,1914.946L495.866,1914.946z"/>
		</g>
	</g>
	<g>
		<g>
			<rect x="491.366" y="396.92" style="fill:#480000;" width="9" height="1541.08"/>
			<polygon style="fill:#480000;" points="506.866,390.42 484.866,390.42 484.866,1944.5 506.866,1944.5 506.866,390.42 			"/>
		</g>
	</g>
	<g>
		<g>
			<path style="fill:#480000;" d="M495.857,1172.642c-0.736,0-1.443-0.178-2.102-0.528c-6.744-3.583-13.625-7.112-20.454-10.49
				c-34.107-16.875-66.316-32.811-108.111-43.002c-35.211-8.585-63.351-9.768-88.516-9.768c-5.217,0-10.295,0.054-15.207,0.105
				c-25.328,0.277-63.6,0.696-112.137,13.824c-36.771,9.944-72.119,25.295-105.061,45.626c-0.714,0.44-1.527,0.673-2.354,0.673
				c-1.578,0-3.013-0.8-3.84-2.14c-0.63-1.021-0.826-2.229-0.549-3.398c0.277-1.17,0.992-2.162,2.015-2.793
				c33.68-20.787,69.828-36.484,107.439-46.655c49.646-13.429,90.16-13.871,114.365-14.135c4.814-0.052,9.777-0.104,14.949-0.104
				c24.69,0,54.813,1.19,91.027,10.021c42.767,10.428,76.93,27.331,109.969,43.678c6.916,3.421,13.876,6.99,20.687,10.609
				c2.191,1.164,3.026,3.895,1.862,6.086C499.057,1171.726,497.53,1172.642,495.857,1172.642z"/>
			<path style="fill:#480000;" d="M276.295,1093.358c-5.212,0-10.215,0.053-15.019,0.104c-24.517,0.268-65.551,0.717-115.991,14.36
				c-38.218,10.335-74.943,26.282-109.156,47.398c-5.17,3.19-6.774,9.968-3.583,15.138c2.08,3.369,5.683,5.225,9.371,5.225
				c1.971,0,3.966-0.53,5.767-1.642c32.406-20,67.176-35.102,103.345-44.883c47.737-12.912,85.5-13.325,110.508-13.599
				c4.924-0.052,9.958-0.106,15.138-0.106c24.706,0,52.663,1.217,86.975,9.583c41.099,10.021,72.997,25.804,106.769,42.513
				c6.783,3.355,13.608,6.856,20.286,10.404c1.645,0.874,3.411,1.288,5.152,1.288c3.938,0,7.746-2.12,9.723-5.84
				c2.851-5.365,0.813-12.025-4.552-14.876c-6.865-3.647-13.881-7.246-20.854-10.695c-33.356-16.504-67.849-33.569-111.312-44.167
				C332.184,1094.62,301.744,1093.358,276.295,1093.358L276.295,1093.358z"/>
		</g>
	</g>
	<g>
		<g>
			<path style="fill:#480000;" d="M175.721,1114.562c-28.325,0-57-7.135-82.925-20.634c-26.028-13.552-46.887-32.302-60.322-54.222
				c-12.658-20.652-20.962-46.208-22.781-70.114c-2.316-30.421,5.685-57.77,23.136-79.088c21.508-26.275,55.08-41.961,89.805-41.961
				c13.458,0,26.359,2.378,38.346,7.068c12.181,4.766,52.615,23.727,61.49,67.608c5.001,24.73,0.595,61.251-28.283,82.792
				c-13.315,9.931-30.847,15.684-48.101,15.783l-0.465,0.001c-18.31,0-34.447-6.273-45.44-17.665
				c-14.358-14.879-23.07-41.132-11.938-62.522c6.265-12.04,20.509-24.998,36.976-24.998c1.299,0,2.615,0.08,3.909,0.239
				c2.032,0.248,20.063,2.906,27.341,19.429c2.802,6.361,3.39,13.835,1.655,21.043c-0.489,2.032-2.282,3.451-4.36,3.451
				c-0.353,0-0.71-0.043-1.061-0.128c-1.175-0.282-2.165-1.002-2.792-2.026c-0.627-1.025-0.818-2.233-0.537-3.402
				c0.739-3.072,1.574-9.146-1.141-15.309c-5.307-12.046-19.574-14.043-20.179-14.122c-0.949-0.116-1.87-0.173-2.786-0.173
				c-12.749,0-23.992,10.445-29.042,20.151c-9.071,17.432-1.396,39.862,10.431,52.117c9.243,9.578,22.992,14.854,38.715,14.854
				c15.496,0,31.733-5.21,43.434-13.938c23.869-17.804,29.676-49.891,24.843-73.792c-7.973-39.424-44.839-56.667-55.948-61.013
				c-10.75-4.205-22.416-6.338-34.673-6.338c-31.875,0-63.769,14.772-83.234,38.552c-33.285,40.66-23.148,100.451,0.354,138.798
				c25.455,41.53,81.354,70.536,135.937,70.536c5.456,0,10.899-0.295,16.178-0.877c0.159-0.018,0.326-0.026,0.492-0.026
				c2.299,0,4.224,1.722,4.475,4.005c0.132,1.195-0.209,2.37-0.961,3.308c-0.751,0.938-1.823,1.527-3.018,1.659
				C187.511,1114.241,181.614,1114.562,175.721,1114.562L175.721,1114.562z"/>
			<path style="fill:#480000;" d="M122.633,842.043c-35.6,0-71.614,15.979-94.834,44.344c-18.53,22.637-27.032,51.579-24.587,83.698
				c1.896,24.901,10.542,51.516,23.721,73.018c28.784,46.963,89.251,77.96,148.789,77.959c6.101,0,12.195-0.326,18.242-0.993
				c6.039-0.666,10.394-6.102,9.727-12.141c-0.621-5.634-5.397-9.792-10.936-9.792c-0.398,0-0.8,0.021-1.204,0.065
				c-5.112,0.563-10.276,0.838-15.466,0.838c-51.758,0-105.797-27.301-130.395-67.432c-22.34-36.449-32.141-93.08-0.867-131.284
				c18.828-23.002,48.954-36.171,78.204-36.169c11.117,0.001,22.111,1.904,32.305,5.892c10.335,4.043,44.624,20.05,51.945,56.247
				c4.427,21.893-0.769,51.19-22.358,67.294c-10.591,7.899-25.312,12.647-39.547,12.647c-12.888,0-25.38-3.894-34.038-12.867
				c-10.396-10.772-16.733-30.401-9.342-44.604c4.356-8.37,13.775-16.652,23.276-16.651c0.647,0,1.296,0.039,1.943,0.118
				c0.112,0.015,11.248,1.614,15.073,10.297c1.945,4.417,1.317,8.893,0.77,11.168c-1.421,5.906,2.215,11.847,8.121,13.268
				c0.867,0.209,1.735,0.31,2.589,0.31c4.964,0,9.467-3.391,10.68-8.431c2.065-8.584,1.346-17.527-2.027-25.184
				c-8.727-19.811-30.09-22.966-32.5-23.261c-1.584-0.194-3.151-0.287-4.699-0.287c-19.143,0-35.328,14.251-42.742,28.497
				c-12.549,24.114-2.945,53.486,13.027,70.037c12.24,12.684,30.021,19.651,50.118,19.651c0.167,0,0.336,0,0.503-0.001
				c18.612-0.107,37.547-6.331,51.949-17.073c31.314-23.357,36.146-62.698,30.768-89.29c-9.527-47.105-52.537-67.305-65.493-72.374
				C150.36,844.476,136.53,842.043,122.633,842.043L122.633,842.043z"/>
		</g>
	</g>
	<g>
		<g>
			<path style="fill:#480000;" d="M593.484,23.496c6.688,12.644,14.284,24.794,22.69,36.282
				c11.049,15.102,36.924,50.469,81.964,75.801c2.1,1.18,52.258,28.921,123.635,30.01c1.014,0.016,2.041,0.023,3.062,0.023
				c37.732,0,79.681-10.569,123.122-30.834c-3.532,7.059-7.263,14.002-11.184,20.805c-16.907,29.347-37.804,56.962-62.11,82.078
				c-21.045,21.746-39.894,36.75-50.018,44.809c-22.719,18.077-47.218,34.21-72.894,48.006
				c-43.674-8.527-85.27-22.887-123.719-42.715c-71.965-37.124-119.229-86.103-137.027-104.546
				c-8.976-9.293-17.878-19.183-26.458-29.396l-9.235-10.993l-11.925,7.995l-24.835,16.65c0,0-15.784,10.583-23.416,15.699
				l-4.042,2.71c-6.691,4.486-13.517,8.783-20.743,13.332c-6.936,4.366-14.108,8.882-21.126,13.565
				c-49.807,33.241-81.627,77.833-89.599,125.56c-5.779,34.598,0.815,71.325,19.606,109.169
				c19.381,38.968,46.428,61.179,83.86,91.918c17.287,14.202,30.827,23.465,75.477,52.75l11.459,7.51
				c14.135,9.264,26.341,17.265,37.092,24.284c22.961,14.994,38.941,25.272,55.156,35.475l0.048,0.03
				c56.855,35.782,162.684,102.385,259.567,207.011c29.122,31.438,62.129,67.071,94.436,121.692
				c19.37,32.751,64.731,109.447,77.576,216.067c3.928,32.645,4.056,69.434,0.368,106.391
				c-6.846,68.613-26.166,134.127-57.422,194.722c-16.862,32.686-37.457,64.043-61.214,93.2
				c-37.876,46.484-82.603,85.933-132.939,117.251c-39.769,24.746-122.338,67.929-228.503,79.113
				c-17.082,1.799-34.341,2.711-51.299,2.711c-17.974,0-36.094-1.025-53.855-3.046c-28.106-3.2-102.765-11.701-182.331-59.34
				c-33.476-20.043-65.479-45.829-90.12-72.611c-19.224-20.877-36.077-43.461-50.09-67.127
				c-19.044-32.16-32.895-66.419-41.169-101.825c-15.032-64.35-8.327-119.017-3.889-155.194
				c4.515-36.844,12.836-73.344,24.752-108.588c23.28-12.431,47.368-23.77,71.686-33.744l0.061-0.025
				c47.135-19.323,78.274-32.088,122.711-36.602c10.68-1.087,21.563-1.638,32.345-1.638c40.018,0,70.582,7.46,85.263,11.043
				c19.379,4.739,58.406,16.453,102.054,41.656c6.572,3.792,13.123,7.825,19.557,12.036v225.578
				c-19.309-24.646-40.432-46.097-63.135-64.084c-25.192-19.957-51.517-34.885-76.132-43.173
				c-23.65-7.959-48.766-11.995-74.652-11.995c-12.469,0-22.813,0.94-28.358,1.444c-16.434,1.481-47.024,4.238-82.331,21.059
				c-13.737,6.539-42.323,20.146-67.049,50.472c-8.521,10.461-22.782,27.97-29.662,55.107c-9.961,39.237,2.136,71.603,6.113,82.244
				c9.316,24.898,25.887,47.929,30.364,53.914l0.25,0.495l0.445,0.694c24.742,38.569,69.066,92.815,139.716,132.216
				c58.072,32.378,121.659,48.117,194.393,48.117c15.759,0,29.469-0.685,42.141-1.385c6.964-0.376,15.426-0.886,25.38-1.815
				c78.026-7.259,147.999-32.058,207.976-73.711c25-17.367,77.022-53.506,113.982-121.546
				c39.706-73.125,39.688-142.388,39.679-179.599c-0.021-88.483-27.31-154.219-38.963-182.291
				c-40.655-97.934-101.42-158.897-150.245-207.881C608.118,944.621,551.78,903.951,504.8,872.326
				c-17.004-11.444-33.853-22.372-50.147-32.94c-69.097-44.813-131.478-85.884-255.758-167.71c-7.479-4.923-27.344-18-49.216-39.892
				c-17.591-17.611-47.033-47.085-60.388-88.648c-13.137-40.887-4.56-76.403,7.31-125.558c6.519-26.982,15.71-53.63,27.343-79.279
				L428.276,134.26L593.484,23.496 M599.796,0l-180.43,120.97l-308.08,206.55c-15.74,33.82-24.78,63.7-30.24,86.3
				c-12.33,51.06-21.5,89.05-6.99,134.21c14.54,45.25,46.17,76.91,64.31,95.07c22.56,22.58,42.98,36.18,51.73,41.94
				c124.59,82.03,186.88,123.04,255.85,167.77c16.42,10.65,33.04,21.43,49.92,32.79c51.31,34.54,105,74.41,162.58,132.18
				c52.38,52.55,108.14,109.59,146.8,202.72c12.91,31.1,37.72,92.6,37.74,176.16c0.01,40.12-0.73,103.8-37.74,171.96
				c-34.44,63.4-82.16,97.36-109.05,116.04c-76.36,53.03-154,66.61-200.33,70.92c-9.74,0.91-18.09,1.41-24.76,1.77
				c-11.649,0.644-25.562,1.362-41.278,1.362c-49.471,0-116.706-7.121-186.602-46.092c-71.85-40.07-114.32-96.14-134.04-126.88
				l-0.53-1.05c-7.04-9.16-21.31-30.44-29.01-51.02c-4.07-10.89-14.15-38.98-5.59-72.7c5.9-23.27,17.91-38.32,26.56-48.94
				c21.99-26.97,47.34-39.38,61.52-46.13c32.03-15.26,59.69-18.02,76.89-19.57c6.577-0.597,15.77-1.379,26.922-1.379
				c18.708,0,42.927,2.2,69.548,11.159c9.92,3.34,36.8,13.22,71.3,40.55c38.94,30.85,68.02,68.44,89.07,102.56v-285.14
				c-8.45-5.78-17.63-11.62-27.56-17.35c-50.12-28.94-93.37-40.19-106.25-43.34c-16.691-4.074-48.163-11.501-89.064-11.501
				c-10.707,0-22.064,0.509-33.966,1.721c-46.76,4.75-79.14,18.03-127.22,37.74c-22.48,9.22-49.22,21.38-78.71,37.43
				c-10.82,30.85-21.77,70.67-27.54,117.76c-4.65,37.91-11.48,93.7,4.19,160.78c19.38,82.93,63.55,141.92,95.07,176.15
				c10.24,11.13,42.33,44.76,93.67,75.5c80.92,48.45,156.42,57.83,188.74,61.51c19.047,2.168,37.627,3.149,55.665,3.149
				c18.242,0,35.93-1.004,52.975-2.799c118-12.43,205.42-62.86,235.28-81.44c119.95-74.63,178.45-175.08,199.92-216.7
				c76.14-147.61,61.95-283.52,58.72-310.36c-12.98-107.74-57.44-184.68-79.69-222.3c-32.49-54.93-64.79-90.22-96.47-124.42
				c-98.34-106.2-204.23-172.83-262.83-209.71c-17.26-10.86-33.4-21.27-54.93-35.33c-13.51-8.82-29.15-19.08-48.53-31.78
				c-45.42-29.79-57.84-38.38-74.09-51.73c-37.25-30.59-61.84-50.79-79.69-86.68c-15.418-31.052-23.957-64.649-18.151-99.407
				c8.191-49.041,42.439-88.017,82.7-114.887c13.871-9.258,28.319-17.813,41.897-26.916c0,0,27.459-18.409,27.459-18.409
				l24.835-16.65c8.25,9.82,17.29,19.96,27.2,30.22c20.12,20.85,68.37,70.08,141.2,107.65c46.46,23.96,92.28,37.68,133.59,45.26
				c24.56-12.84,52.13-29.82,80.32-52.25c23.53-18.73,75.27-60.67,116.03-131.42c12.5-21.69,22.36-43.3,30.11-64.29
				c-55.269,32.859-109.184,50.331-155.911,50.331c-0.94,0-1.885-0.007-2.819-0.021c-68.14-1.04-116.04-27.96-116.04-27.96
				c-41.16-23.15-64.84-54.83-76.89-71.3C616.186,32.7,606.746,15.44,599.796,0L599.796,0z"/>
		</g>
	</g>
	<g>
		<g>
			<path style="fill:#480000;" d="M496.532,2048.712c-55.257,0-100.212-44.955-100.212-100.212c0-0.643,0.006-1.285,0.019-1.928
				c0.213-11.378,2.325-22.517,6.276-33.104c3.824-10.247,9.282-19.756,16.22-28.263c6.881-8.438,15.03-15.662,24.219-21.471
				c10.582-6.688,22.639-11.436,35.838-14.109c11.468-2.322,22.701-4.783,33.385-7.313c12.678-3.001,25.875-6.306,39.222-9.821
				c29.369-7.737,53.929-14.594,78.339-22.911c223.063-76.003,375.341-261.102,397.409-483.06
				c16.212-163.044-36.176-323.191-147.511-450.941c-35.538-40.777-80.93-84.824-134.914-130.918
				c-74.403-63.528-157.399-119.377-246.684-165.997c-2.2-1.148-3.055-3.873-1.906-6.072c0.779-1.492,2.312-2.419,3.999-2.419
				c0.724,0,1.42,0.172,2.072,0.513C592.19,617.62,675.751,673.85,750.667,737.817c54.319,46.38,100.028,90.741,135.855,131.85
				c112.983,129.642,166.142,292.205,149.683,457.743c-11.266,113.294-55.508,218.826-127.946,305.19
				c-70.391,83.924-165.662,148.069-275.518,185.5c-24.659,8.402-49.395,15.31-78.949,23.095
				c-13.413,3.533-26.683,6.856-39.441,9.876c-10.774,2.551-22.103,5.032-33.672,7.375c-12.124,2.457-23.164,6.796-32.815,12.896
				c-8.368,5.29-15.789,11.868-22.054,19.552c-6.316,7.743-11.284,16.397-14.763,25.721c-3.594,9.631-5.515,19.77-5.709,30.133
				c-0.011,0.586-0.017,1.169-0.017,1.752c0,50.294,40.917,91.212,91.212,91.212s91.212-40.918,91.212-91.212
				c0-2.481,2.019-4.5,4.5-4.5s4.5,2.019,4.5,4.5C596.744,2003.757,551.789,2048.712,496.532,2048.712z"/>
			<path style="fill:#480000;" d="M500.233,563.674c-3.966,0-7.799,2.151-9.761,5.911c-2.812,5.385-0.726,12.03,4.66,14.842
				c88.852,46.394,171.44,101.968,245.472,165.179c53.743,45.888,98.906,89.709,134.234,130.246
				c110.146,126.385,161.976,284.787,145.943,446.027c-21.813,219.392-172.417,402.379-393.038,477.551
				c-24.218,8.252-48.656,15.074-77.898,22.777c-13.298,3.503-26.44,6.794-39.064,9.782c-10.604,2.511-21.766,4.956-33.178,7.267
				c-13.978,2.832-26.77,7.875-38.02,14.986c-9.784,6.185-18.458,13.875-25.783,22.856c-7.389,9.059-13.201,19.186-17.273,30.099
				c-4.208,11.277-6.458,23.141-6.686,35.256c-0.013,0.683-0.02,1.365-0.02,2.048c0,58.841,47.871,106.712,106.712,106.712
				s106.712-47.871,106.712-106.712c0-6.075-4.925-11-11-11s-11,4.925-11,11c0,46.71-38.001,84.712-84.712,84.712
				s-84.712-38.002-84.712-84.712c0-0.542,0.005-1.084,0.016-1.63c0.181-9.627,1.964-19.041,5.301-27.982
				c3.23-8.656,7.843-16.692,13.71-23.886c5.822-7.14,12.716-13.251,20.49-18.165c8.981-5.677,19.287-9.721,30.632-12.02
				c11.645-2.358,23.044-4.855,33.879-7.421c12.801-3.03,26.125-6.366,39.6-9.916c29.695-7.822,54.559-14.767,79.39-23.228
				c110.978-37.813,207.247-102.641,278.401-187.476c73.282-87.37,118.039-194.125,129.434-308.724
				c16.639-167.342-37.076-331.649-151.25-462.657c-36.036-41.348-81.973-85.935-136.535-132.523
				C679.6,668.59,595.631,612.084,505.314,564.925C503.688,564.076,501.948,563.674,500.233,563.674L500.233,563.674z"/>
		</g>
	</g>
</g>
</svg>
