<?xml version="1.0" encoding="iso-8859-1"?>
<!-- Generator: Adobe Illustrator 24.0.1, SVG Export Plug-In . SVG Version: 6.00 Build 0)  -->
<svg version="1.1" xmlns="http://www.w3.org/2000/svg" xmlns:xlink="http://www.w3.org/1999/xlink" x="0px" y="0px"
	 viewBox="0 0 1453.836 2185.751" style="enable-background:new 0 0 1453.836 2185.751;" xml:space="preserve">
<g id="Layer_5">
	<linearGradient id="SVGID_1_" gradientUnits="userSpaceOnUse" x1="748.0864" y1="1446.8457" x2="803.642" y2="130.1791">
		<stop  offset="0" style="stop-color:#8B1D1A"/>
		<stop  offset="0.25" style="stop-color:#550000"/>
		<stop  offset="0.5" style="stop-color:#3A0000"/>
		<stop  offset="0.75" style="stop-color:#1E0000"/>
		<stop  offset="1" style="stop-color:#000000"/>
	</linearGradient>
	<path style="fill:url(#SVGID_1_);" d="M530.183,505.578c-85.12,91.77-136.7,180.36-167.14,242.09
		c-35.47,71.92-94.84,195.12-98.76,364.55c-1.16,49.91-2.53,152.04,43.57,273.05c44.97,118.05,111.22,191.33,127.81,209.14
		c29.99,32.21,102.3,108.07,225.12,152.5c37.61,13.61,116.31,37.42,217.85,31.95c25.95-1.39,129.2-8.78,244-71.16
		c102.52-55.72,162.41-127.12,184.46-155.41c84.09-107.9,106.44-215.73,117.64-273.05c11.51-58.92,14.2-112.34,12.93-157.2
		c9.64,39.81,16.86,88.04,16.12,142.68c-1.25,92.13-24.57,159.51-40.67,204.78c-19.98,56.2-64.2,176.16-180.09,286.12
		c-40.01,37.96-139.39,122.96-293.39,164.12c-47.85,12.8-274.22,67.66-503.97-58.09c-170.81-93.48-249.68-235.44-283.22-297.74
		c-68.57-127.39-84.08-242.16-88.59-289.02c-4.87-50.51-15.86-218.16,72.62-403.77c26.38-55.35,82.94-170.51,210.59-267.24
		C411.133,555.328,475.353,524.878,530.183,505.578z"/>
	<linearGradient id="SVGID_2_" gradientUnits="userSpaceOnUse" x1="668.1599" y1="1443.4733" x2="723.7154" y2="126.8066">
		<stop  offset="0" style="stop-color:#8B1D1A"/>
		<stop  offset="0.25" style="stop-color:#550000"/>
		<stop  offset="0.5" style="stop-color:#3A0000"/>
		<stop  offset="0.75" style="stop-color:#1E0000"/>
		<stop  offset="1" style="stop-color:#000000"/>
	</linearGradient>
	<path style="fill:url(#SVGID_2_);" d="M658.303,1541.558c8.41-7.85,16.83-16.81,24.9-27.03c18.03-22.84,28.82-45.04,36.31-63.91
		c49.14-123.79,45.03-251.26,45.03-251.26c-4.03-124.76-0.99-412.44-0.13-804.04c25.56,6.33,52.78,12.94,81.46,19.75
		c94.42,22.42,135.71,30.14,191.72,23.24c73.88-9.1,126.91-37.91,168.47-61c65.07-36.14,140.66-78.14,190.27-167.02
		c23.68-42.43,35.59-85.1,40.94-123.44c-39.06,55.13-98.21,114.55-184.73,149.58c-26.59,10.77-136.7,55.34-257.07,17.43
		c-63.63-20.04-113.26-57.82-136.53-75.53c-20.74-15.78-38.63-31.75-53.87-46.9c-22.54,45.81-67.91,71.23-136.26,66
		c-98.45-7.52-195.23-31.17-293.8-36.91c-98.57-5.74-203.24,8.69-281.67,68.67c-72.57,55.49-113.81,157.92-83.05,242.08v0.01v-0.01
		c1.24-27.96,8.28-65.71,32.41-102.67c35.15-53.83,85.5-73.75,101.67-79.88c48.5-18.4,91.33-14.32,124.91-10.17
		c124.62,15.4,224.22,44.44,261.42,55.19c0,0,55.07,15.92,147.05,39.68c-26.4,25.87-59.97,50.88-102.02,69.25
		c-18.75,8.19-36.94,14.07-54.02,18.27c13.54,10.1,27.63,21.85,41.57,35.41c5.71,5.56,11.39,11.41,17,17.59
		c27.21,29.91,52.68,67.22,70.97,113.18c44.96,112.99,20.53,213.14,10.17,255.62c-13.69,56.11-34.22,140.31-111.83,197.53
		c-31.31,23.07-63.75,35.75-91.48,42.79h-0.01h0.01c21.63,10.08,44.82,23.1,68.24,39.99c18.38,13.26,79.99,58.57,116.19,127.81
		C688.303,1378.368,677.443,1473.458,658.303,1541.558z"/>
</g>
<g id="Layer_7">
	<g>
		<path style="fill:#BFCBC2;" d="M258.793,1525.562c-105.023-154.473-126.489-364.203-53.268-537.582
			C159.102,1164.432,177.78,1359.955,258.793,1525.562z"/>
	</g>
	<g>
		<path style="fill:#BFCBC2;" d="M222.691,1080.476c-14.814-34.549-71.507-35.926-76.376,7.406
			c-5.528,42.744,47.579,56.715,72.071,26.341c-24.085,43.926-91.765,22.182-84.039-27.87
			C141.469,1033.4,210.7,1033.593,222.691,1080.476z"/>
	</g>
	<g>
		<path style="fill:#BFCBC2;" d="M185.069,1344.404c-22.191-122.034-22.168-165.756-72.22-235.179
			C198.005,1179.178,188.057,1266.944,185.069,1344.404z"/>
	</g>
	<g>
		<path style="fill:#BFCBC2;" d="M195.254,1366.626c-20.453-65.317-36.549-149.183-92.657-196.833
			C181.614,1208.505,193.798,1302.843,195.254,1366.626z"/>
	</g>
	<g>
		<path style="fill:#BFCBC2;" d="M191.87,1353.469c-38.093-68.605-38.826-156.173,33.408-199.299
			C165.495,1212.117,179.794,1303.886,191.87,1353.469z"/>
	</g>
	<g>
		<path style="fill:#BFCBC2;" d="M208.586,1404.751c-50.575-55.624-40.026-157.695,27.525-200.259
			C190.441,1256.271,176.842,1339.387,208.586,1404.751z"/>
	</g>
	<g>
		<path style="fill:#BFCBC2;" d="M100.879,1088.698c-21.735-97.545,121.167-117.31,127.274-18.225
			C207.575,986.88,96.748,1004.282,100.879,1088.698z"/>
	</g>
	<g>
		<path style="fill:#BFCBC2;" d="M175.775,893.718c-70.005,62.753,86.868,117.509,44.922,186.998
			c15.162-43.954-35.175-75.091-58.132-109.193C145.854,947.887,144.39,905.858,175.775,893.718z"/>
	</g>
	<g>
		<path style="fill:#BFCBC2;" d="M273.473,819.998c-10.276-34.177-66.647-25.412-52.524,15.893
			c13.564,19.264,42.745,30.845,41.091,61.689c-6.431,86.23-122.189,63.16-81.479,13.664
			c-26.407,52.254,70.324,42.458,64.738-17.073c-1.604-12.94-7.597-19.373-17.609-28.257
			C162.538,817.23,253.404,750.281,273.473,819.998z"/>
	</g>
	<g>
		<path style="fill:#BFCBC2;" d="M153.036,891.035c32.318-64.98,119.761-32.192,98.294,24.719
			C258.964,854.781,181.872,847.4,153.036,891.035z"/>
	</g>
	<g>
		<path style="fill:#BFCBC2;" d="M235.023,757.32c64.585-31.448,90.869,92.3,10.227,94.378
			C318.603,833.38,284.441,737.874,235.023,757.32z"/>
	</g>
	<g>
		<path style="fill:#BFCBC2;" d="M297.025,700.634c-58.544,26.407,4.88,68.36-6.709,98.323
			C297.424,777.999,227.267,720.736,297.025,700.634z"/>
	</g>
	<g>
		<path style="fill:#BFCBC2;" d="M288.329,701.903c16.91-42.792,68.492,3.277,46.876,38.996
			c-15.544,32.115-67.794,16.202-50.092-18.439c-8.968,27.545,32.261,39.233,42.16,7.419
			C335.746,705.492,307.772,673.327,288.329,701.903z"/>
	</g>
	<g>
		<path style="fill:#BFCBC2;" d="M376.579,658.499c29.649,34.697-68.181,75.743-54.877,5.334
			C321.086,721.261,393.463,686.316,376.579,658.499z"/>
	</g>
	<g>
		<path style="fill:#BFCBC2;" d="M385.249,665.109c9.864-17.381-14.132-36.044-32.042-20.243
			c-14.9,10.305-15.286,42.226,10.534,35.617c-23.984,15.474-41.453-25.712-13.737-44.066
			C369.756,620.624,403.525,641.851,385.249,665.109z"/>
	</g>
	<g>
		<path style="fill:#BFCBC2;" d="M397.268,654.737c-0.796-12.611-2.474-37.487-23.391-36.068
			C392.597,611.809,402.951,636.349,397.268,654.737z"/>
	</g>
	<g>
		<path style="fill:#BFCBC2;" d="M237.654,1048.194c-1.681-16.159-14.409-79.536-33.151-74.364
			C230.51,964.473,243.821,1033.677,237.654,1048.194z"/>
	</g>
	<g>
		<path style="fill:#BFCBC2;" d="M269.878,922.972c-4.696,24.98-27.956,76.943-61.754,48.939
			C239.784,989.293,257.86,943.456,269.878,922.972z"/>
	</g>
	<g>
		<path style="fill:#BFCBC2;" d="M412.197,180.344c-80.264-22.38-146.753,68.759-224.494,70.329
			C257.692,227.452,331.693,134.15,412.197,180.344z"/>
	</g>
	<g>
		<path style="fill:#BFCBC2;" d="M769.307,267.352c10.331-55.726,111.626-25.456,82.924,28.241
			c-27.816,43.691-72.729,0.205-40.864-14.692c-27.023,25.632,35.755,38.275,31.336-7.609
			C834.215,243.914,781.165,236.588,769.307,267.352z"/>
	</g>
	<g>
		<path style="fill:#BFCBC2;" d="M884.807,297.321c-4.858,35.458-56.089,61.471-88.012,39.77
			c-34.118-20.687-20.699-75.527,19.43-66.674C740.337,286.108,829.505,384.187,884.807,297.321z"/>
	</g>
	<g>
		<path style="fill:#BFCBC2;" d="M785.754,360.165c-69.937-49.948-63.711-121.103,20.546-138.053
			C727.749,261.047,742.809,304.983,785.754,360.165z"/>
	</g>
	<g>
		<path style="fill:#BFCBC2;" d="M871.263,308.184c13.031-55.019-33.145-118.507-99.023-92.691
			C827.059,173.02,907.445,235.907,871.263,308.184z"/>
	</g>
	<g>
		<path style="fill:#BFCBC2;" d="M849.173,363.874c40.243-16.123,64.032-61.945,50.634-105.526
			C925.475,298.622,901.471,357.65,849.173,363.874z"/>
	</g>
	<g>
		<path style="fill:#BFCBC2;" d="M755.94,229.724c-42.726,29.58-51.337,98.909,3.667,134.255
			C699.86,346.735,687.34,256.39,755.94,229.724z"/>
	</g>
	<g>
		<path style="fill:#BFCBC2;" d="M924.781,308.782c-7.73,54.08-60.323,91.423-110.756,84.774
			C866.074,385.851,908.192,347.712,924.781,308.782z"/>
	</g>
	<g>
		<path style="fill:#BFCBC2;" d="M931.715,244.748c20.472,26.4,19.877,70.8-5.345,96.397
			C940.907,313.318,944.109,275.939,931.715,244.748z"/>
	</g>
	<g>
		<path style="fill:#BFCBC2;" d="M991.819,399.546c43.403-21.434-16.109-73.182-27.944-19.947
			C963.686,313.315,1056.404,375.088,991.819,399.546z"/>
	</g>
	<g>
		<path style="fill:#BFCBC2;" d="M1008.624,288.988c36.406,23.504-10.612,66.233-38.56,35.97
			C998.219,343.028,1033.753,313.219,1008.624,288.988z"/>
	</g>
	<g>
		<path style="fill:#BFCBC2;" d="M1065.998,313.849c-31.254-7.886-55.873,50.678-13.884,47.236
			C1008.296,377.235,1018.425,296.419,1065.998,313.849z"/>
	</g>
	<g>
		<path style="fill:#BFCBC2;" d="M985.936,340.918c-62.788,13.596-45.392,92.893,20.605,64.006
			C934.458,457.707,903.832,339.986,985.936,340.918z"/>
	</g>
	<g>
		<path style="fill:#BFCBC2;" d="M1029.697,317.723c26.429-63.284-104.021-27.836-67.512,20.309
			c-33.996-23.271,12.999-69.229,44.78-65.846C1030.159,272.311,1049.778,299.049,1029.697,317.723z"/>
	</g>
	<g>
		<path style="fill:#BFCBC2;" d="M1022.311,377.479c65.645,33.952,88.728-86.263,23.604-72.698
			C1126.574,273.045,1099.666,436.473,1022.311,377.479z"/>
	</g>
	<g>
		<path style="fill:#BFCBC2;" d="M916.274,416.58c-31.06-8.836,1.979-59.222,14.416-69.918
			C925.682,379.755,900.877,400.244,916.274,416.58z"/>
	</g>
	<g>
		<path style="fill:#BFCBC2;" d="M1075.135,413.305c25.856-22.888,57.776-89.107,18.831-113.425
			C1144.937,318.763,1114.382,396.231,1075.135,413.305z"/>
	</g>
	<g>
		<path style="fill:#BFCBC2;" d="M1120.229,407.444c27.5-33.671,26.035-81.337,6.454-111.137
			C1160.182,326.535,1156.249,382.238,1120.229,407.444z"/>
	</g>
	<g>
		<path style="fill:#BFCBC2;" d="M335.186,182.943c27.445,92.936,66.576,89.961,149.996,72.846
			c90.768-21.302,223.412-54.059,219.502,74.743C679.574,116.383,361.167,419.404,335.186,182.943z"/>
	</g>
	<g>
		<path style="fill:#BFCBC2;" d="M613.623,347.21c-41.513-13.644-36.69-114.547-95.015-88.949
			C581.082,214.868,588.259,334.497,613.623,347.21z"/>
	</g>
	<g>
		<path style="fill:#BFCBC2;" d="M611.05,340.561c-48.474,6.683-102.082-23.15-85.957-71.374
			C530.314,309.253,578.716,325.164,611.05,340.561z"/>
	</g>
	<g>
		<path style="fill:#BFCBC2;" d="M530.376,189.833c6.643,42.414-29.814,81.892-72.088,78.802
			C499.134,260.219,526.903,223.861,530.376,189.833z"/>
	</g>
	<g>
		<path style="fill:#BFCBC2;" d="M536.042,189.193c-34.965,5.484-67.254,34.393-78.102,62.822
			C462.145,213.811,499.872,185.057,536.042,189.193z"/>
	</g>
	<g>
		<path style="fill:#BFCBC2;" d="M620.182,329.599c8.176-26.223-15.153-55.939-34.089-72.237
			C617.505,261.931,646.523,301.65,620.182,329.599z"/>
	</g>
	<g>
		<path style="fill:#BFCBC2;" d="M725.497,230.16c-11.546,15.871-37.743,22.817-56.479,10.645
			C686.888,240.822,707.06,237.506,725.497,230.16z"/>
	</g>
	<g>
		<path style="fill:#BFCBC2;" d="M431.803,212.294c-6.384,16.785-34.073,1.337-17.546-15.867
			c24.441-18.557,51.803,20.212,27.538,41.207c-20.989,22.301-85.285,5.221-74.889-28.405c10.328-29.466,48.112-6.252,24.546,5.993
			c21.817-34.847-60.354,7.173,21.666,16.801c8.904,0.002,17.076-1.818,22.763-10.851c10.327-13.498-23.934-31.627-18.454-7.73
			C419.893,217.497,428.704,217.649,431.803,212.294z"/>
	</g>
	<g>
		<path style="fill:#BFCBC2;" d="M326.31,196.073c-9.176,27.189-36.692,51.185-67.951,53.601
			C283.742,239.664,309.494,220.664,326.31,196.073z"/>
	</g>
	<g>
		<path style="fill:#BFCBC2;" d="M326.966,192.354c-6.776,34.012,12.383,69.405,38.64,83.594
			C330.371,267.293,310.357,225.304,326.966,192.354z"/>
	</g>
	<g>
		<path style="fill:#BFCBC2;" d="M322.057,201.84c2.984,24.977-14.202,54.225-41.156,61.253
			C300.922,250.615,317.958,227.659,322.057,201.84z"/>
	</g>
	<g>
		<path style="fill:#BFCBC2;" d="M326.731,172.831c-108.845,23.216-123.221,69.265-180.908,91.403
			C210.458,205.614,246.744,166.508,326.731,172.831z"/>
	</g>
	<g>
		<path style="fill:#BFCBC2;" d="M696.993,362.3c-39.125-12.923-17.561-77.564-70.712-96.574
			C696.539,281.185,663.709,343.469,696.993,362.3z"/>
	</g>
	<g>
		<path style="fill:#BFCBC2;" d="M1279.51,247.392c24.162,14.669,29.986,92.249-78.371,57.435
			c-45.752-2.447-54.686,53.004-14.762,56.477c-23.349,6.683-43.008-20.361-33.839-42.832
			c25.745-57.672,85.868-16.897,105.463-19.135C1282.943,300.516,1296.811,266.339,1279.51,247.392z"/>
	</g>
	<g>
		<path style="fill:#BFCBC2;" d="M1282.253,307.336c-27.134,28.091-45.736,25.62-78.593,21.451
			c-15.658-2.091-30.852,18.939-10.634,25.879c-22.369,0-15.851-33.15,8.071-34.394
			C1240.991,322.132,1252.857,326.11,1282.253,307.336z"/>
	</g>
	<g>
		<path style="fill:#BFCBC2;" d="M1289.914,234.314c-4.442,22.293-24.022,75.407-51.726,43.045
			C1267.255,300.052,1277.231,251.584,1289.914,234.314z"/>
	</g>
	<g>
		<path style="fill:#BFCBC2;" d="M1320.858,224.999c2.806,18.175-1.966,41.398-14.946,57.68
			C1312.497,265.985,1318.33,244.92,1320.858,224.999z"/>
	</g>
	<g>
		<path style="fill:#BFCBC2;" d="M689.503,1194.132c-9.993-15.134-40.553,3.009-33.916,21.758
			c12.287,16.601,39.27-3.107,43.502-19.849c14.079-49.325-53.602-74.304-87.675-48.628c-19.088,10.741-2.003,46.253,15.441,20.808
			c-4.74,29.371-54.517,7.612-27.924-29.912c38.909-43.272,116.323-23.956,126.644,33.126
			c10.987,54.184-56.007,92.925-82.359,53.765C629.054,1199.049,675.511,1166.048,689.503,1194.132z"/>
	</g>
	<g>
		<path style="fill:#BFCBC2;" d="M702.102,1082.753c-26.733,14.853-35.972-36.377,2.222-38.404
			c51.154,4.408,40.421,71.285-2.879,84.675c-46.18,20.228-119.674-10.297-88.763-66.261c12.378-24.05,60.364-5.938,31.363,14.59
			c13.177-8.824-1.72-28.057-17.24-12.188c-22.926,36.205,28.433,54.424,59.316,44.179c29.906-4.054,48.846-44.237,15.557-51.307
			C683.22,1055.644,678.239,1088.481,702.102,1082.753z"/>
	</g>
	<g>
		<path style="fill:#BFCBC2;" d="M581.842,1075.32c26.493,24.994,17.048,71.847-18.124,83.814
			C592.596,1139.368,597.579,1100.281,581.842,1075.32z"/>
	</g>
	<g>
		<path style="fill:#BFCBC2;" d="M743.286,1091.128c-1.388-83.618-118.175-69.963-151.545-12.769
			C624.764,984.059,765.973,1006.61,743.286,1091.128z"/>
	</g>
	<g>
		<path style="fill:#BFCBC2;" d="M703.642,958.351c50.505,19.948-39.205,73.011-37.131-2.819
			c17.028-54.118,90.406-24.577,80.801,25.473c-6.74,52.577-89.505,67.37-94.725,18.18c14.974,38.476,75.702,14.155,74.636-24.559
			c0.218-35.924-56.656-35.592-41.162,2.418C698.356,995.734,728.374,972.111,703.642,958.351z"/>
	</g>
	<g>
		<path style="fill:#BFCBC2;" d="M736.744,940.987c19.568-62.573-78.519-56.155-71.788,20.312
			C640.135,857.358,779.617,876.724,736.744,940.987z"/>
	</g>
	<g>
		<path style="fill:#BFCBC2;" d="M642.794,483.573c-16.758,80.371,106.948,28.496,49.653-10.747
			c-18.545-5.64-27.924,15.115-22.363,32.277c-27.163-51.892,55.076-61.848,51.94-5.946
			C709.169,570.662,607.86,536.984,642.794,483.573z"/>
	</g>
	<g>
		<path style="fill:#BFCBC2;" d="M734.068,507.134c15.483-43.155-29.973-76.064-68.714-58.173
			c-44.925,19.757-60.01,88.2-9.925,106.279c-66.832-7.526-52.76-101.363-0.909-122.835
			C704.603,406.478,766.355,456.391,734.068,507.134z"/>
	</g>
	<g>
		<path style="fill:#BFCBC2;" d="M744.386,510.886c6.675,47.79-45.849,99.751-92.401,60.684
			C692.456,593.961,738.841,556.302,744.386,510.886z"/>
	</g>
	<g>
		<path style="fill:#BFCBC2;" d="M711.445,414.174c21.925-6.439,20.241-41.676-7.451-16.646
			c-19.69,20.567,13.622,44.596,28.217,18.279c-12.942,41.026-68.455,0.435-30.94-29.093
			C729.176,363.563,751.605,406.546,711.445,414.174z"/>
	</g>
	<g>
		<path style="fill:#BFCBC2;" d="M701.754,769.302c-7.908,14.679,20.331,23.159,25.601-4.514
			c5.858-14.094-12.811-38.273-25.203-16.521c3.068-24.062,45.451-11.461,30.373,25.209
			C724.982,796.89,689.125,791.159,701.754,769.302z"/>
	</g>
	<g>
		<path style="fill:#BFCBC2;" d="M743.354,769.207c0.979-87.266-55.319-58.61-45.524,2.718
			C665.286,691.221,769.43,673.782,743.354,769.207z"/>
	</g>
	<g>
		<path style="fill:#BFCBC2;" d="M742.679,757.372c25.24,124.808-79.733,126.037-42.988,17.605
			c2.494,10.677-7.363,96.13,29.797,54.179C738.119,807.967,738.957,778.742,742.679,757.372z"/>
	</g>
	<g>
		<path style="fill:#BFCBC2;" d="M744.378,733.554c28.289,109.712-75.638,140.461-43.365-3.926
			C707.52,891.236,748.138,776.036,744.378,733.554z"/>
	</g>
	<g>
		<path style="fill:#BFCBC2;" d="M739.118,937.928c1.263-101.025-45.265-71.665-56.816-29.617
			C681.399,844.362,765.915,834.243,739.118,937.928z"/>
	</g>
	<g>
		<path style="fill:#BFCBC2;" d="M688.42,659.083c-11.334,46.441,58.783,19.471,24.835-4.187
			c-17.08-0.066-32.943-9.689-37.322-27.388c-4.397-69.099,77.614-33.292,36.744-14.076c15.419-5.474,1.725-27.061-14.021-15.192
			c-19.284,15.382-7.767,41.674,17.738,40.858c7.014,1.159,12.099,3.983,16.361,11.101
			C754.587,708.294,662.94,706.253,688.42,659.083z"/>
	</g>
	<g>
		<path style="fill:#BFCBC2;" d="M738.456,523.065c2.981,36.051,24.877,112.456-35.172,106.411
			C756.606,623.679,727.187,553.499,738.456,523.065z"/>
	</g>
	<g>
		<path style="fill:#BFCBC2;" d="M277.505,812.933c-41.596-90.705-97.283,32.118-121.286,55.462
			C220.92,701.498,282.777,789.975,277.505,812.933z"/>
	</g>
	<g>
		<path style="fill:#BFCBC2;" d="M161.307,992.126c-60.748,3.471-61.696,81.745-81.401,119.612
			C85.354,1061.256,96.218,980.413,161.307,992.126z"/>
	</g>
	<g>
		<path style="fill:#BFCBC2;" d="M164.562,991.459c-26.347,10.634-53.115-77.747,2.2-125.302l0.838,0.905
			c-2.539,1.487-3.91,2.242-3.91,2.242c0.102-0.143,5.592-5.684,7.167-7.253C152.858,878.209,123.665,981.797,164.562,991.459z"/>
	</g>
	<g>
		<path style="fill:#BFCBC2;" d="M745.116,1171.253c23.284,140.917-96.442,156.192-100.217,84.099
			C692.9,1345.716,748.458,1222.248,745.116,1171.253z"/>
	</g>
	<g>
		<path style="fill:#BFCBC2;" d="M749.846,1172.254c-2.887,92.311-96.223,146.712-136.785,39.515
			C670.765,1297.393,723.54,1246.349,749.846,1172.254z"/>
	</g>
	<g>
		<path style="fill:#BFCBC2;" d="M681.843,1339.505c53.539-52.499,69.349-126.867,58.288-184.45
			C772.791,1221.43,745.843,1304.675,681.843,1339.505z"/>
	</g>
	<path style="fill:#BFCBC2;" d="M830.4,284.146c-0.025-7.436-12.104-9.056-12.986,0.001
		C817.439,291.582,829.518,293.202,830.4,284.146z"/>
	<path style="fill:#BFCBC2;" d="M694.042,495.175c-0.264-10.015-15.395-10.838-16.233,0.001
		C678.073,505.191,693.205,506.013,694.042,495.175z"/>
	<path style="fill:#BFCBC2;" d="M993.542,376.674c-0.028-8.366-13.617-10.188-14.61,0.001
		C978.96,385.04,992.549,386.863,993.542,376.674z"/>
	<path style="fill:#BFCBC2;" d="M985.425,310.931c0.284-11.261,17.153-11.767,17.856,0.001
		C1002.997,322.191,986.129,322.698,985.425,310.931z"/>
	<path style="fill:#BFCBC2;" d="M1056.85,340.15c-0.028-8.366-13.617-10.188-14.61,0.001
		C1042.269,348.516,1055.858,350.338,1056.85,340.15z"/>
	<path style="fill:#BFCBC2;" d="M641.285,1163.164c0.75-15.063,22.01-14.492,22.726,0.001
		C663.261,1178.227,642.002,1177.656,641.285,1163.164z"/>
	<path style="fill:#BFCBC2;" d="M651.837,1085.246c0.387,12.391,18.714,12.761,19.48-0.001
		C670.929,1072.855,652.602,1072.484,651.837,1085.246z"/>
	<path style="fill:#BFCBC2;" d="M213.545,913.176c-0.763-16.229-23.706-15.5-24.35,0.001
		C189.959,929.404,212.901,928.675,213.545,913.176z"/>
	<path style="fill:#BFCBC2;" d="M195.689,1093.362c-1.343-23.374-33.473-21.361-34.089,0.001
		C162.943,1116.736,195.073,1114.723,195.689,1093.362z"/>
	<path style="fill:#BFCBC2;" d="M237.895,824.706c0.75-15.063,22.01-14.492,22.726,0.001
		C259.871,839.769,238.611,839.197,237.895,824.706z"/>
	<path style="fill:#BFCBC2;" d="M315.813,722.438c-0.387-12.391-18.714-12.761-19.48,0.001
		C296.721,734.829,315.048,735.199,315.813,722.438z"/>
	<path style="fill:#BFCBC2;" d="M371.817,660.752c-0.028-8.366-13.617-10.188-14.61,0.001
		C357.236,669.118,370.825,670.94,371.817,660.752z"/>
	<path style="fill:#BFCBC2;" d="M694.042,969.18c1.351-8.973,14.532,0.082,4.058,4.059
		C696.716,973.147,694.78,972.257,694.042,969.18z"/>
</g>
<g id="Layer_4">
	<g>
		<path style="fill:#FFB400;" d="M405.779,605.393c-27.726,40.575-52.495,82.928-74.126,126.794
			c-34.317,69.582-98.193,199.099-102.361,379.218c-1.088,46.806-3.635,156.417,45.854,286.323
			c42.456,111.452,102.747,186.012,134.901,220.531c28.862,30.999,105.529,113.341,238.826,161.561
			c62.986,22.793,132.128,34.841,199.951,34.841c10.524,0,21.187-0.287,31.681-0.852c49.782-2.667,149.607-16.003,258.842-75.358
			c81.778-44.447,139.71-98.954,177.39-142.733c-29.834,49.7-66.026,94.87-107.803,134.51c-29.86,28.33-63.036,54.134-98.606,76.694
			c-55.989,35.512-116.459,62.092-179.74,79.005c-37.057,9.913-96.894,21.729-171.514,21.729c-49.398,0-98.148-5.316-144.893-15.799
			c-56.686-12.712-111.095-33.206-161.715-60.913c-69.59-38.085-131.117-89.262-182.871-152.109
			c-44.849-54.462-72.869-106.508-86.333-131.517c-58.403-108.501-78.225-209.86-84.57-275.79
			c-4.472-46.385-4.047-94.871,1.263-144.111c9.098-84.349,32.014-165.514,68.113-241.242
			c22.938-48.127,76.653-160.833,200.133-254.403C380.412,622.522,392.944,613.725,405.779,605.393 M530.183,505.578
			c-54.83,19.3-119.05,49.75-183.12,98.3c-127.65,96.73-184.21,211.89-210.59,267.24c-88.48,185.61-77.49,353.26-72.62,403.77
			c4.51,46.86,20.02,161.63,88.59,289.02c33.54,62.3,112.41,204.26,283.22,297.74c116.235,63.62,231.585,81.009,323.411,81.009
			c89.677,0,156.917-16.594,180.559-22.918c154-41.16,253.38-126.16,293.39-164.12c115.89-109.96,160.11-229.92,180.09-286.12
			c16.1-45.27,39.42-112.65,40.67-204.78c0.74-54.64-6.48-102.87-16.12-142.68c1.27,44.86-1.42,98.28-12.93,157.2
			c-11.2,57.32-33.55,165.15-117.64,273.05c-22.05,28.29-81.94,99.69-184.46,155.41c-114.8,62.38-218.05,69.77-244,71.16
			c-10.176,0.548-20.11,0.802-29.809,0.802c-87.079,0-154.2-20.506-188.041-32.752c-122.82-44.43-195.13-120.29-225.12-152.5
			c-16.59-17.81-82.84-91.09-127.81-209.14c-46.1-121.01-44.73-223.14-43.57-273.05c3.92-169.43,63.29-292.63,98.76-364.55
			C393.483,685.938,445.063,597.348,530.183,505.578L530.183,505.578z"/>
	</g>
	<g>
		<path style="fill:#FFB400;" d="M810.749,184.32c8.792,7.567,17.815,14.873,27.018,21.875
			c25.239,19.209,77.757,59.178,147.193,81.047c35.026,11.031,72.157,16.625,110.364,16.625c20.765,0,83.954,0,170.355-34.997
			c27.239-11.028,53.043-24.658,77.339-40.831c-16.057,21.14-35.133,40.316-57.653,58.022
			c-31.055,24.416-64.221,42.836-96.299,60.652c-36.768,20.428-87.124,48.405-155.751,56.858
			c-11.901,1.466-22.951,2.179-33.781,2.179c-35.652,0-72.115-7.292-145.574-24.735c-27.448-6.517-54.745-13.135-81.132-19.67
			l-43.316-10.728v0.022l-43.004-11.109c-90.34-23.336-145.538-39.258-146.087-39.416l-1.359-0.393
			c-38.18-11.036-139.598-40.352-265.485-55.909c-14.867-1.837-32.38-3.797-52.116-3.797c-31.884,0-61.161,5.227-89.493,15.976
			c-12.223,4.634-23.816,9.976-34.764,16.015c5.53-5.361,11.341-10.381,17.402-15.016c28.376-21.701,62.722-37.992,102.084-48.421
			c35.59-9.43,75.701-14.211,119.218-14.21c12.051,0,24.524,0.37,37.071,1.101c50.172,2.922,101.545,10.9,151.226,18.615
			c46.174,7.17,93.919,14.585,141.938,18.252c6.746,0.516,13.443,0.778,19.906,0.778
			C738.008,233.104,780.935,216.064,810.749,184.32 M729.465,371.747l-0.052,23.494c-0.249,113.392-0.686,219.237-1.071,312.622
			c-0.966,234.172-1.664,403.365,1.218,492.588c0.009,0.305,0.864,30.99-4.045,75.671c-2.993,27.238-8.603,63.602-19.106,102.61
			c-4.72-34.396-14.857-69.682-32.849-104.089c-18.593-35.562-55.671-88.714-126.734-139.981c-2.744-1.979-5.513-3.928-8.307-5.848
			c11.069-6.098,21.693-12.894,31.844-20.373c87.816-64.744,111.126-160.285,125.054-217.369l0.011-0.047l0.001-0.002
			c11.201-45.927,37.431-153.482-11.656-276.845c-18.067-45.401-44.176-87.05-77.575-123.764
			c-4.918-5.418-10.092-10.825-15.427-16.122c41.048-18.082,78.549-43.605,111.479-75.875L729.465,371.747 M1437.273,86.848
			c-39.06,55.13-98.21,114.55-184.73,149.58c-18.918,7.663-80.129,32.439-157.22,32.439c-31.261,0-65.122-4.071-99.85-15.008
			c-63.63-20.04-113.26-57.82-136.53-75.53c-20.74-15.78-38.63-31.75-53.87-46.9c-20.588,41.843-60.229,66.676-119.024,66.676
			c-5.575,0-11.316-0.223-17.236-0.676c-98.45-7.52-195.23-31.17-293.8-36.91c-12.953-0.754-26.016-1.16-39.106-1.16
			c-86.525-0.001-174.44,17.732-242.564,69.83c-72.57,55.49-113.81,157.92-83.05,242.08v0.01v-0.01
			c1.24-27.96,8.28-65.71,32.41-102.67c35.15-53.83,85.5-73.75,101.67-79.88c27.779-10.539,53.7-13.703,77.086-13.703
			c17.445,0,33.477,1.76,47.824,3.533c124.62,15.4,224.22,44.44,261.42,55.19c0,0,55.07,15.92,147.05,39.68
			c-26.4,25.87-59.97,50.88-102.02,69.25c-18.75,8.19-36.94,14.07-54.02,18.27c13.54,10.1,27.63,21.85,41.57,35.41
			c5.71,5.56,11.39,11.41,17,17.59c27.21,29.91,52.68,67.22,70.97,113.18c44.96,112.99,20.53,213.14,10.17,255.62
			c-13.69,56.11-34.22,140.31-111.83,197.53c-31.31,23.07-63.75,35.75-91.48,42.79c21.63,10.08,44.82,23.1,68.24,39.99
			c18.38,13.26,79.99,58.57,116.19,127.81c45.76,87.51,34.9,182.6,15.76,250.7c8.41-7.85,16.83-16.81,24.9-27.03
			c18.03-22.84,28.82-45.04,36.31-63.91c49.14-123.79,45.03-251.26,45.03-251.26c-4.03-124.76-0.99-412.44-0.13-804.04
			c25.56,6.33,52.78,12.94,81.46,19.75c72.152,17.133,113.281,25.681,153.659,25.681c12.462,0,24.851-0.814,38.061-2.441
			c73.88-9.1,126.91-37.91,168.47-61c65.07-36.14,140.66-78.14,190.27-167.02C1420.013,167.858,1431.923,125.188,1437.273,86.848
			L1437.273,86.848z M458.113,1123.058h-0.01H458.113L458.113,1123.058z"/>
	</g>
</g>
<g id="Layer_6">
	<g>
		<g>
			<path style="fill:#480000;" d="M829.265,2179.252c-16.073,0-29.149-13.077-29.149-29.15s13.076-29.149,29.149-29.149
				s29.15,13.076,29.15,29.149S845.338,2179.252,829.265,2179.252z"/>
			<path style="fill:#480000;" d="M829.265,2127.452c12.489,0,22.65,10.161,22.65,22.65s-10.161,22.65-22.65,22.65
				c-12.489,0-22.65-10.161-22.65-22.65S816.776,2127.452,829.265,2127.452 M829.265,2114.452c-19.689,0-35.65,15.961-35.65,35.65
				s15.961,35.65,35.65,35.65c19.689,0,35.65-15.961,35.65-35.65S848.954,2114.452,829.265,2114.452L829.265,2114.452z"/>
		</g>
	</g>
	<g>
		<g>
			<path style="fill:#480000;" d="M829.265,573.15c-16.073,0-29.149-13.076-29.149-29.149s13.076-29.15,29.149-29.15
				s29.15,13.077,29.15,29.15S845.338,573.15,829.265,573.15z"/>
			<path style="fill:#480000;" d="M829.265,521.35c12.489,0,22.65,10.161,22.65,22.65c0,12.489-10.161,22.65-22.65,22.65
				c-12.489,0-22.65-10.161-22.65-22.65C806.615,531.511,816.776,521.35,829.265,521.35 M829.265,508.35
				c-19.689,0-35.65,15.961-35.65,35.65c0,19.689,15.961,35.65,35.65,35.65c19.689,0,35.65-15.961,35.65-35.65
				C864.915,524.311,848.954,508.35,829.265,508.35L829.265,508.35z"/>
		</g>
	</g>
	<g>
		<g>
			<rect x="824.763" y="550.498" style="fill:#480000;" width="9" height="1593.1"/>
			<polygon style="fill:#480000;" points="840.263,543.998 818.263,543.998 818.263,2150.098 840.263,2150.098 840.263,543.998 			
				"/>
		</g>
	</g>
	<g>
		<g>
			<path style="fill:#480000;" d="M1114.561,232.928c-33.43,0-68.039-5.059-100.084-14.629
				c-42.458-12.68-84.666-32.486-118.849-55.771c-29.304-19.963-55.982-43.676-79.292-70.481c-1.628-1.873-1.429-4.721,0.443-6.35
				c1.049-0.912,2.182-1.104,2.948-1.104c1.306,0,2.546,0.564,3.401,1.548c22.802,26.222,48.899,49.419,77.566,68.949
				c33.435,22.776,74.758,42.162,116.355,54.585c31.277,9.341,64.986,14.279,97.481,14.279c25.446,0,49.629-2.932,71.877-8.713
				c46.033-11.963,94.743-52.792,94.345-104.894c-0.18-23.467-10.478-47.536-28.254-66.035
				c-17.052-17.745-42.212-28.768-65.66-28.768c-12.34,0-23.569,2.983-33.378,8.866c-17.618,10.569-29.584,30.661-30.485,51.187
				c-0.765,17.478,8.012,39.213,26.266,46.94c3.701,1.567,7.766,2.362,12.082,2.362c5.834,0,11.668-1.469,16.872-4.247
				c4.533-2.42,12.43-7.997,14.378-18.149c0.406-2.119,2.259-3.655,4.405-3.655c0.286,0,0.576,0.028,0.863,0.083
				c2.435,0.467,4.037,2.83,3.569,5.267c-1.936,10.098-8.853,18.989-18.977,24.395c-6.519,3.48-13.81,5.32-21.085,5.321
				c-5.523,0-10.778-1.038-15.616-3.086c-19.762-8.365-32.816-31.238-31.748-55.622c1.045-23.825,14.397-46.245,34.847-58.511
				c11.115-6.668,24.392-10.192,38.393-10.192c6.438,0,13.022,0.739,19.569,2.198c19.665,4.382,38.201,14.816,52.195,29.378
				c19.354,20.14,30.566,46.457,30.764,72.202c0.199,25.999-10.462,51.086-30.831,72.551c-18.57,19.571-43.52,34.174-70.25,41.122
				C1165.752,229.908,1140.817,232.928,1114.561,232.928z"/>
			<path style="fill:#480000;" d="M1187.226,0c-15.126,0-29.483,3.768-41.736,11.118c-22.298,13.375-36.857,37.822-37.997,63.801
				c-1.185,27.04,13.499,52.491,35.708,61.893c5.691,2.409,11.878,3.601,18.151,3.601c8.219,0,16.582-2.048,24.146-6.087
				c11.863-6.334,19.991-16.869,22.299-28.904c1.145-5.966-2.765-11.73-8.73-12.875c-0.701-0.134-1.398-0.199-2.086-0.199
				c-5.175,0-9.78,3.665-10.789,8.93c-1.439,7.5-7.544,11.766-11.056,13.641c-4.316,2.305-9.149,3.481-13.811,3.481
				c-3.356,0-6.625-0.61-9.548-1.848c-15.525-6.572-22.973-25.434-22.306-40.669c0.808-18.405,11.537-36.421,27.335-45.898
				c9.203-5.52,19.523-7.941,30.034-7.941c22.554,0.001,45.967,11.156,60.974,26.772c16.637,17.313,26.273,39.758,26.44,61.581
				c0.373,48.811-45.823,87.207-89.479,98.553c-21.874,5.684-45.712,8.504-70.242,8.504c-31.656,0-64.46-4.7-95.621-14.007
				c-40.973-12.237-81.657-31.318-114.557-53.729c-28.206-19.215-53.884-42.04-76.321-67.842c-2.176-2.502-5.232-3.782-8.306-3.782
				c-2.56,0-5.131,0.888-7.213,2.7c-4.584,3.987-5.069,10.935-1.083,15.519c23.675,27.226,50.771,51.311,80.537,71.588
				c34.719,23.65,77.565,43.761,120.647,56.627c33.159,9.903,68.118,14.901,101.944,14.901c26.407,0,52.126-3.047,75.747-9.186
				c27.893-7.249,53.935-22.499,73.33-42.938c21.55-22.709,32.828-49.362,32.616-77.075c-0.21-27.39-12.084-55.33-32.577-76.656
				c-14.87-15.475-34.569-26.562-55.468-31.219C1201.139,0.779,1194.103,0,1187.226,0L1187.226,0z"/>
		</g>
	</g>
	<g>
		<g>
			<path style="fill:#480000;" d="M794.581,1725.925c-43.374,0.001-88.482-8.757-134.073-26.029
				c-43.192-16.364-85.807-39.886-126.66-69.911c-114.197-83.924-160.398-194.367-180.127-241.529
				c-32.9-78.655-49.361-163.878-48.923-253.302c0.373-76.25,12.889-138.519,19.613-171.971
				c19.572-97.308,56.777-190.435,110.579-276.793c39.205-62.926,87.032-122.032,142.154-175.675
				c0.845-0.822,1.959-1.275,3.138-1.275c1.226,0,2.371,0.483,3.226,1.362c1.73,1.778,1.691,4.633-0.087,6.363
				c-90.823,88.385-207.953,237.819-250.186,447.792c-14.268,70.984-47.679,237.212,28.79,420.026
				c19.44,46.473,64.966,155.303,177.154,237.75c82.642,60.739,173.442,94.19,255.672,94.19c2.549,0,5.124-0.033,7.652-0.097
				c47.318-1.204,89.605-16.241,119.073-42.34c30.393-26.921,42.702-61.589,34.661-97.618c-8.662-38.815-39.76-72.32-77.383-83.373
				c-8.581-2.52-17.305-3.798-25.929-3.798c-25.105,0-49.19,10.695-69.651,30.928c-15.857,15.682-28.227,42.608-17.916,64.674
				c10.088,21.588,36.116,29.279,57.11,29.279c2.169,0,4.35-0.08,6.483-0.238c0.128-0.01,0.244-0.015,0.358-0.015
				c2.329,0,4.289,1.831,4.462,4.169c0.184,2.474-1.68,4.637-4.154,4.82c-2.333,0.174-4.713,0.263-7.077,0.263
				c-12.041,0-23.831-2.207-34.095-6.383c-14.633-5.952-25.436-15.664-31.241-28.085c-12.224-26.156,1.107-56.457,19.741-74.883
				c22.236-21.988,48.387-33.611,75.626-33.611c9.535,0,19.231,1.429,28.817,4.245c40.669,11.946,74.277,48.133,83.632,90.048
				c8.787,39.371-4.523,77.127-37.479,106.314c-31.053,27.504-75.377,43.343-124.81,44.6
				C800.034,1725.889,797.292,1725.925,794.581,1725.925L794.581,1725.925z"/>
			<path style="fill:#480000;" d="M580.282,502.938c-2.765,0-5.532,1.036-7.671,3.117
				c-55.496,54.007-103.654,113.523-143.137,176.897c-54.216,87.022-91.708,180.874-111.435,278.949
				c-6.768,33.67-19.365,96.344-19.741,173.22c-0.441,90.302,16.189,176.38,49.427,255.843
				c19.937,47.659,66.625,159.268,182.274,244.258c41.327,30.374,84.462,54.179,128.207,70.752
				c46.363,17.565,92.191,26.451,136.367,26.451c0.003,0,0.005,0,0.008,0c2.777,0,5.553-0.035,8.316-0.105
				c50.961-1.296,96.758-17.715,128.954-46.231c34.806-30.826,48.838-70.814,39.513-112.597
				c-9.854-44.151-45.275-82.276-88.143-94.868c-10.272-3.018-20.528-4.509-30.65-4.509c-28.835,0.001-56.551,12.106-80.196,35.489
				c-20.256,20.03-34.623,53.232-21.059,82.257c6.51,13.931,18.502,24.773,34.68,31.354c11.035,4.489,23.775,6.862,36.544,6.862
				c2.523,0,5.047-0.093,7.559-0.28c6.059-0.45,10.605-5.726,10.155-11.784c-0.429-5.776-5.256-10.187-10.945-10.187
				c-0.278,0-0.558,0.01-0.84,0.032c-1.971,0.146-3.976,0.221-6.002,0.221c-20.42,0-42.832-7.579-51.221-25.531
				c-8.979-19.214,2.31-43.171,16.597-57.3c19.354-19.139,41.846-29.051,65.081-29.049c7.976,0,16.044,1.169,24.097,3.534
				c35.423,10.406,64.708,41.974,72.872,78.553c7.503,33.618-4.085,66.055-32.627,91.336
				c-28.323,25.086-69.139,39.543-114.928,40.708c-2.49,0.063-4.982,0.094-7.488,0.094c-80.934,0-170.034-32.816-251.823-92.927
				c-110.734-81.379-155.774-189.045-175.006-235.021c-75.701-180.978-42.563-345.839-28.414-416.236
				c41.906-208.343,158.183-356.671,248.347-444.416c4.354-4.237,4.449-11.201,0.212-15.555
				C586.01,504.051,583.148,502.938,580.282,502.938L580.282,502.938z"/>
		</g>
	</g>
	<g>
		<g>
			<path style="fill:#480000;" d="M473.975,545.837c-49.206,60.388-91.209,125.659-125.281,194.754
				c-33.668,68.265-96.336,195.333-100.406,371.255c-1.062,45.692-3.549,152.693,44.614,279.118
				c41.307,108.433,99.84,180.84,131.052,214.347c28.007,30.08,102.403,109.983,231.386,156.642
				c60.936,22.051,127.841,33.707,193.484,33.707c10.187,0,20.506-0.278,30.666-0.825c48.181-2.58,144.831-15.506,250.785-73.079
				c93.234-50.673,154.479-114.778,189.44-159.633c76.62-98.315,103.262-196.237,115.864-255.707
				c-6.477,70.381-25.435,123.686-37.54,157.722c-8.562,24.083-24.499,68.911-53.009,120.523
				c-32.83,59.435-74.22,113.048-123.018,159.349c-30.749,29.174-64.901,55.738-101.506,78.956
				c-57.62,36.546-119.864,63.904-185.006,81.315c-38.158,10.207-99.74,22.375-176.424,22.375
				c-50.795,0-100.943-5.47-149.051-16.259c-58.421-13.102-114.5-34.226-166.679-62.785
				c-71.724-39.252-135.116-91.973-188.417-156.698c-46.031-55.897-74.645-109.048-88.396-134.59
				c-59.903-111.289-80.24-215.306-86.753-282.972c-4.596-47.667-4.163-97.451,1.285-147.971
				c9.328-86.484,32.829-169.714,69.852-247.38c11.197-23.493,32.039-67.223,65.992-115.823
				c39.005-55.832,86.047-104.802,139.818-145.548C393.189,589,432.443,565.311,473.975,545.837 M530.183,505.578
				c-54.83,19.3-119.05,49.75-183.12,98.3c-127.65,96.73-184.21,211.89-210.59,267.24c-88.48,185.61-77.49,353.26-72.62,403.77
				c4.51,46.86,20.02,161.63,88.59,289.02c33.54,62.3,112.41,204.26,283.22,297.74c116.235,63.62,231.585,81.009,323.411,81.009
				c89.677,0,156.917-16.594,180.559-22.918c154-41.16,253.38-126.16,293.39-164.12c115.89-109.96,160.11-229.92,180.09-286.12
				c16.1-45.27,39.42-112.65,40.67-204.78c0.74-54.64-6.48-102.87-16.12-142.68c1.27,44.86-1.42,98.28-12.93,157.2
				c-11.2,57.32-33.55,165.15-117.64,273.05c-22.05,28.29-81.94,99.69-184.46,155.41c-114.8,62.38-218.05,69.77-244,71.16
				c-10.176,0.548-20.111,0.802-29.81,0.802c-87.079,0-154.199-20.506-188.04-32.752c-122.82-44.43-195.13-120.29-225.12-152.5
				c-16.59-17.81-82.84-91.09-127.81-209.14c-46.1-121.01-44.73-223.14-43.57-273.05c3.92-169.43,63.29-292.63,98.76-364.55
				C393.483,685.938,445.063,597.348,530.183,505.578L530.183,505.578z"/>
		</g>
	</g>
	<g>
		<g>
			<path style="fill:#480000;" d="M1405.635,150.555c-6.272,18.048-14.041,35.394-23.273,51.935
				c-47.404,84.927-120.009,125.252-184.07,160.832c-38.133,21.186-90.357,50.201-162.656,59.106
				c-12.678,1.562-24.488,2.321-36.104,2.321c-37.57,0-74.979-7.443-149.964-25.249c-27.507-6.531-54.864-13.164-81.31-19.714
				l-19.802-4.904l-0.045,20.4c-0.249,113.411-0.686,219.265-1.071,312.659c-0.965,233.971-1.663,403.019,1.209,491.925
				c0.01,0.312,0.921,31.761-4.069,77.592c-4.578,42.05-15.206,105.201-39.84,167.257c-5.183,13.058-10.888,24.817-17.404,35.783
				c7.85-59.762,4.359-130.361-30.516-197.054c-17.644-33.747-52.959-84.28-121.01-133.374
				c-11.711-8.446-23.907-16.338-36.487-23.616c21.483-8.651,41.516-19.79,59.863-33.309
				c82.267-60.653,103.693-148.47,117.882-206.625c10.771-44.165,35.995-147.591-10.85-265.319
				c-17.221-43.273-42.118-82.984-73.989-118.019c-5.599-6.168-11.549-12.324-17.69-18.304c-6.053-5.888-12.34-11.644-18.825-17.238
				c9.003-3.085,17.864-6.528,26.524-10.311c39.326-17.18,75.263-41.567,106.813-72.484l20.238-19.832l-27.435-7.087
				c-90.659-23.418-146.06-39.4-146.61-39.559l-1.362-0.394C496,307.052,395.634,278.04,271.246,262.669
				c-14.305-1.768-31.128-3.654-49.786-3.654c-29.54,0-56.611,4.823-82.758,14.742c-46.895,17.778-83.7,46.744-109.396,86.094
				c-3.586,5.492-6.91,11.153-9.969,16.967c2.021-10.633,4.954-21.298,8.784-31.912c14.684-40.701,41.299-77.284,74.943-103.009
				c30.374-23.229,66.966-40.622,108.76-51.695c37.177-9.85,78.925-14.845,124.084-14.844c12.422,0,25.266,0.382,38.176,1.134
				c51.082,2.974,102.913,11.023,153.038,18.807c45.814,7.114,93.188,14.471,140.472,18.083c6.264,0.479,12.474,0.723,18.457,0.723
				c54.567,0,96.5-19.664,122.547-57.15c12.998,11.997,26.618,23.425,40.676,34.121c24.383,18.557,75.12,57.172,141.395,78.045
				c33.177,10.449,68.389,15.747,104.656,15.747c80.249,0,142.704-25.296,163.225-33.608
				C1313.969,228.82,1363.226,195.068,1405.635,150.555 M1437.273,86.848c-39.06,55.13-98.21,114.55-184.73,149.58
				c-18.918,7.663-80.129,32.438-157.22,32.438c-31.261,0-65.122-4.071-99.85-15.008c-63.63-20.04-113.26-57.82-136.53-75.53
				c-20.74-15.78-38.63-31.75-53.87-46.9c-20.588,41.843-60.229,66.676-119.024,66.676c-5.575,0-11.316-0.223-17.236-0.676
				c-98.45-7.52-195.23-31.17-293.8-36.91c-12.953-0.754-26.016-1.16-39.106-1.16c-86.524-0.001-174.44,17.732-242.564,69.83
				c-72.57,55.49-113.81,157.92-83.05,242.08v0.01v-0.01c1.24-27.96,8.28-65.71,32.41-102.67c35.15-53.83,85.5-73.75,101.67-79.88
				c27.779-10.539,53.7-13.703,77.086-13.703c17.445,0,33.477,1.76,47.824,3.533c124.62,15.4,224.22,44.44,261.42,55.19
				c0,0,55.07,15.92,147.05,39.68c-26.4,25.87-59.97,50.88-102.02,69.25c-18.75,8.19-36.94,14.07-54.02,18.27
				c13.54,10.1,27.63,21.85,41.57,35.41c5.71,5.56,11.39,11.41,17,17.59c27.21,29.91,52.68,67.22,70.97,113.18
				c44.96,112.99,20.53,213.14,10.17,255.62c-13.69,56.11-34.22,140.31-111.83,197.53c-31.31,23.07-63.75,35.75-91.48,42.79
				c21.63,10.08,44.82,23.1,68.24,39.99c18.38,13.26,79.99,58.57,116.19,127.81c45.76,87.51,34.9,182.6,15.76,250.7
				c8.41-7.85,16.83-16.81,24.9-27.03c18.03-22.84,28.82-45.04,36.31-63.91c49.14-123.79,45.03-251.26,45.03-251.26
				c-4.03-124.76-0.99-412.44-0.13-804.04c25.56,6.33,52.78,12.94,81.46,19.75c72.152,17.133,113.281,25.681,153.66,25.681
				c12.462,0,24.851-0.814,38.06-2.441c73.88-9.1,126.91-37.91,168.47-61c65.07-36.14,140.66-78.14,190.27-167.02
				C1420.013,167.858,1431.923,125.188,1437.273,86.848L1437.273,86.848z M458.113,1123.058h-0.01H458.113L458.113,1123.058z"/>
		</g>
	</g>
</g>
</svg>
