<?xml version="1.0" encoding="iso-8859-1"?>
<!-- Generator: Adobe Illustrator 24.0.1, SVG Export Plug-In . SVG Version: 6.00 Build 0)  -->
<svg version="1.1" xmlns="http://www.w3.org/2000/svg" xmlns:xlink="http://www.w3.org/1999/xlink" x="0px" y="0px"
	 viewBox="0 0 1883.471 2186.313" style="enable-background:new 0 0 1883.471 2186.313;" xml:space="preserve">
<g id="Layer_5">
	<linearGradient id="SVGID_1_" gradientUnits="userSpaceOnUse" x1="1686.526" y1="1534.7867" x2="1686.526" y2="12.4733">
		<stop  offset="0" style="stop-color:#8B1D1A"/>
		<stop  offset="0.25" style="stop-color:#550000"/>
		<stop  offset="0.5" style="stop-color:#3A0000"/>
		<stop  offset="0.75" style="stop-color:#1E0000"/>
		<stop  offset="1" style="stop-color:#000000"/>
	</linearGradient>
	<path style="fill:url(#SVGID_1_);" d="M1489.581,1697.6c0.63,27.72,1.8,65.91,4.18,111.46c4.3,82.32,8.54,111.93,11.15,128.17
		c8.87,55.27,13.31,82.91,30.65,111.46c29.28,48.22,72.27,69.88,83.59,75.23c12.35,5.84,74.88,33.8,147.68,8.36
		c14.75-5.15,71.73-25.05,100.31-80.8c15.62-30.44,19.82-65.84,13.52-101.3v-0.01v0.01c-3.35,9.56-7.56,18.8-12.7,27.6
		c-23.77,40.67-68.32,70.18-115.42,69.9c-40.61-0.24-81.48-25.2-97.82-62.82c-19.08-43.96-0.17-90.96,25.47-128.12
		c20.09-29.1,46.98-53.66,78.33-69.76c-25.6-22.43-54.42-54.75-73.89-99.13c-17.81-40.61-20.9-75.58-22.29-93.35
		c-19.23-246.46-12.54-532.21-12.54-532.21c0.31-12.3,3-131.32,22.29-264.96c6.21-42.99,15.25-96.27,48.77-154.65
		c7.02-12.23,14.32-23.3,21.55-33.23c-5.19,0.74-10.71,1.21-16.51,1.29c-38.97,0.55-69.4-17.94-97.53-39.01
		c-66.57-49.87-108.66-106.91-128.18-133.75c-3.51-4.82-7.04-9.7-10.61-14.64V1697.6z"/>
	<linearGradient id="SVGID_2_" gradientUnits="userSpaceOnUse" x1="771.0161" y1="1534.7867" x2="771.0161" y2="12.4733">
		<stop  offset="0" style="stop-color:#8B1D1A"/>
		<stop  offset="0.25" style="stop-color:#550000"/>
		<stop  offset="0.5" style="stop-color:#3A0000"/>
		<stop  offset="0.75" style="stop-color:#1E0000"/>
		<stop  offset="1" style="stop-color:#000000"/>
	</linearGradient>
	<path style="fill:url(#SVGID_2_);" d="M152.941,1765.51c0,0,77.68-76.32,140.34-182.87c60.05-102.12,138.53-290.13,173.29-526.28
		c22.22-150.93,16.71-254.46,7.45-428.46c0,0-5.56-104.37-49.97-242.4c-7-21.75-19.19-56.81-48.91-91.44
		c-34.93-40.7-73.85-57.23-85.05-61.66c-17.02-6.73-34.12-13.49-57.42-12.76c-46.01,1.44-77.18,30.9-86.11,39.34
		c-13.93,13.16-23.78,27.68-30.76,41.75c-4.33-15.1-7-34.26-3.26-55.57c8.79-50.13,47.21-78.79,58.47-87.18
		c15.41-11.5,33.46-20.15,44.65-25.52c13.24-6.35,23.28-10.15,44.66-18.07c34.17-12.67,51.25-19,63.79-23.39
		c24.71-8.67,61.87-31.67,119.12-91c50.15,36.92,107.2,90.52,152.77,166.14c60.87,101.03,71.56,192.13,83.88,308.27
		c21.9,206.4-10.96,368.93-41.94,522.18c-26.39,130.54-64.72,258.92-83.89,312.46c-1.93,5.4-17.29,48.07-37.74,106.95
		c-7.85,22.6-19.11,55-23.07,67.11c-6.08,18.58-38.25,116.97-20.97,222.29c16.87,102.84,73.97,163.11,111.14,206.9
		c35.66,42.01,109.54,126.69,234.88,159.38c15.26,3.98,30.64,7.53,46.15,10.46c25.24,4.77,50.48,7.15,76.17,7.69
		c26.58,0.56,53.21-0.36,79.59-3.59c22.62-2.76,45.05-6.97,67.15-12.5c26.2-6.57,51.92-14.99,76.96-25.12
		c90.41-36.56,140.54-97.73,171.96-134.22c44.83-52.06,74.79-105.88,95-153.86v128.17c-16.16,27.46-35.75,55.55-59.52,83.15
		c-31.41,36.49-82.75,94.8-171.96,134.22c-95.06,42-204.3,48.96-247.29,48c-9.2,0.25-22.2-0.58-37.75-1
		c-21.41-0.58-90.48-3.46-190.83-31.46c-47.59-13.27-89.02-25.83-140.51-51.33c-68.64-33.99-115.54-73.14-163.57-113.24
		c-76.02-63.46-78.93-81.02-132.12-109.05c-48.31-25.46-94.5-36.57-117.43-41.94c-17.9-4.19-34.93-7.25-50.83-9.46
		C129.331,1787.94,140.701,1777.53,152.941,1765.51z"/>
</g>
<g id="Layer_7">
	<g>
		<path style="fill:#BFCBC2;" d="M482.638,229.072c-0.028,0.089,0.257-0.127,2.436,1.237
			C485.102,230.22,484.817,230.436,482.638,229.072z"/>
	</g>
	<g>
		<path style="fill:#BFCBC2;" d="M531.818,266.392c-6.439,48.298-68.169,69.373-101.992,29.301
			c-30.222-36.949,0.468-93.577,47.042-82.129C372.17,232.529,474.83,367.427,531.818,266.392z"/>
	</g>
	<g>
		<path style="fill:#BFCBC2;" d="M642.494,480.289c-66.67-125.358-174.526-125.517-203.209-149.591
			C542.442,347.635,613.488,368.806,642.494,480.289z"/>
	</g>
	<g>
		<path style="fill:#BFCBC2;" d="M546.088,376.726c54.236,22.196,46.914,99.084,10.977,135.711
			C576.526,470.124,589.982,411.976,546.088,376.726z"/>
	</g>
	<g>
		<path style="fill:#BFCBC2;" d="M504.528,357.192c68.072,3.534,61.751,88.256,24.57,123.369
			C551.687,437.605,559.826,372.848,504.528,357.192z"/>
	</g>
	<g>
		<path style="fill:#BFCBC2;" d="M483.193,348.827c44.828,13.432,59.142,82.919,6.658,108.345
			C521.384,431.046,525.469,377.172,483.193,348.827z"/>
	</g>
	<g>
		<path style="fill:#BFCBC2;" d="M584.343,388.585c33.477,31.073,43.003,89.505,16.463,130.322
			C612.887,477.657,607.688,427.356,584.343,388.585z"/>
	</g>
	<g>
		<path style="fill:#BFCBC2;" d="M550.292,694.448c-63.254-30.524-90.069-118.669-39.838-181.012
			C485.034,571.944,496.353,646.48,550.292,694.448z"/>
	</g>
	<g>
		<path style="fill:#BFCBC2;" d="M591.825,719.28c-91.926-13.115-96.234-125.225-44.466-183.744
			C515.067,606.685,522.061,692.428,591.825,719.28z"/>
	</g>
	<g>
		<path style="fill:#BFCBC2;" d="M632.25,748.243c-101.15-9.284-105.458-133.227-41.325-193.443
			C537.111,652.055,572.688,731.775,632.25,748.243z"/>
	</g>
	<g>
		<path style="fill:#BFCBC2;" d="M651.341,749.612c-67.274,46.586-86.486-119.215-15.282-180.513
			C597.71,630.655,589.36,778.093,651.341,749.612z"/>
	</g>
	<g>
		<path style="fill:#BFCBC2;" d="M652.18,820.621c-21.507-83.788-173.981-102.521-151.228-205.843
			C503.565,709.01,653.416,723.355,652.18,820.621z"/>
	</g>
	<g>
		<path style="fill:#BFCBC2;" d="M641.459,439.434c-32.534-42.536-65.976-98.777-125.093-110.795
			C578.175,323.314,623.647,387.107,641.459,439.434z"/>
	</g>
	<g>
		<path style="fill:#BFCBC2;" d="M642.903,407.255c-26.975-35.71-68.694-65.459-113.586-78.306
			C576.407,328.803,625.772,361.001,642.903,407.255z"/>
	</g>
	<g>
		<path style="fill:#BFCBC2;" d="M632.549,270.31c-13.313,40.356-61.699,69.465-105.787,57.984
			C566.535,326.709,608.688,305.182,632.549,270.31z"/>
	</g>
	<g>
		<path style="fill:#BFCBC2;" d="M643.887,282.079c-14.165,43.37-65.224,64.892-105.026,47.169
			C581.914,335.473,624.377,312.335,643.887,282.079z"/>
	</g>
	<g>
		<path style="fill:#BFCBC2;" d="M644.151,351.437c-7.051,2.503-85.84-15.465-83.274-17.386
			C567.928,331.547,646.716,349.515,644.151,351.437z"/>
	</g>
	<g>
		<path style="fill:#BFCBC2;" d="M460.536,178.179c81.007-27.111,144.549,85.305,61.329,137.657
			C572.337,266.244,544.303,175.513,460.536,178.179z"/>
	</g>
	<g>
		<path style="fill:#BFCBC2;" d="M574.016,174.091c20.218,42.515,12.654,100.849-21.311,136.635
			C572.882,270.703,581.557,220.236,574.016,174.091z"/>
	</g>
	<g>
		<path style="fill:#BFCBC2;" d="M399.295,295.291c-60.27-36.247,26.798-114.692,76.107-104.305
			C437.963,194.804,355.186,257.492,399.295,295.291z"/>
	</g>
	<g>
		<path style="fill:#BFCBC2;" d="M539.266,155.126c-70.556-5.22-144.341,31.477-179.427,102.123
			C373.975,181.336,456.864,125.682,539.266,155.126z"/>
	</g>
	<g>
		<path style="fill:#BFCBC2;" d="M374.751,119.292c18.866-52.779,94.59,4.332,44.138,58.264
			c-27.927,27.464-68.134,41.604-106.178,37.011C482.72,173.712,409.463,68.554,374.751,119.292z"/>
	</g>
	<g>
		<path style="fill:#BFCBC2;" d="M405.667,73.317c56.107,8.122,37.221,75.864,9.44,102.629
			C431.883,143.032,450.049,89.052,405.667,73.317z"/>
	</g>
	<g>
		<path style="fill:#BFCBC2;" d="M468.638,83.158c40.122-26.914,64.981,37.66,26.028,62.847
			c-30.515,23.913-78.946-12.063-48.65-44.037c-17.61,25.405,17.919,54.973,44.413,30.921
			C513.57,114.499,504.157,69.584,468.638,83.158z"/>
	</g>
	<g>
		<path style="fill:#BFCBC2;" d="M361.651,95.268c-38.733,13.919-43.963,122.547,39.497,63.208
			C327.873,242.408,291.595,111.662,361.651,95.268z"/>
	</g>
	<g>
		<path style="fill:#BFCBC2;" d="M317.57,115.42c-55.472,38.546-27.506,98.591,12.814,81.973
			C272.209,229.513,254.076,133.851,317.57,115.42z"/>
	</g>
	<g>
		<path style="fill:#BFCBC2;" d="M261.814,132.634c-27.91,9.45-37.026,50.78-2.897,67.712
			C222.354,194.423,218.85,138.082,261.814,132.634z"/>
	</g>
	<g>
		<path style="fill:#BFCBC2;" d="M472.956,290.797c56.727-9.941,54.73-78.777-10.012-61.072
			C533.702,190.995,547.566,294.988,472.956,290.797z"/>
	</g>
	<g>
		<path style="fill:#BFCBC2;" d="M636.976,887.398c-14.51-126.885-138.179-79.309-131.877-189.288
			C520.973,795.77,652.382,753.545,636.976,887.398z"/>
	</g>
	<g>
		<path style="fill:#BFCBC2;" d="M508.76,901.018c26.857,52.498,125.531-21.732,35.382-89.397
			c-11.471-10.127-22.476-19.176-31.9-32.18C702.679,876.243,523.403,978.007,508.76,901.018z"/>
	</g>
	<g>
		<path style="fill:#BFCBC2;" d="M613.355,1052.43c-16.33-22.903-50.523-32.037-63.19-60.945
			c-16.896-41.481,20.63-87.517,64.313-87.529c-29.44,8.211-59.339,40.201-53.454,75.42
			C567.359,1010.529,602.999,1022.407,613.355,1052.43z"/>
	</g>
	<g>
		<path style="fill:#BFCBC2;" d="M471.874,1127.034c99.878-54.002,86.658-135.525,31.292-149.036
			c38.839-3.941,66.981,43.226,53.67,79.518C546.411,1095.847,506.671,1119.268,471.874,1127.034z"/>
	</g>
	<g>
		<path style="fill:#BFCBC2;" d="M556.537,1207.589c-38.618-42.245-29.233-109.552,14.167-140.449
			C536.234,1110.357,536.205,1168.809,556.537,1207.589z"/>
	</g>
	<g>
		<path style="fill:#BFCBC2;" d="M526.682,1282.022c-0.354-49.589,5.221-113.265-42.051-147.531
			C541.674,1154.785,543.687,1233.173,526.682,1282.022z"/>
	</g>
	<g>
		<path style="fill:#BFCBC2;" d="M515.958,1340.515c-39.08-31.41-20.165-78.881-18.966-114.372
			c0.438-16.795-19.269-35.669-34.573-17.631c7.057-18.606,33.779-14.237,41.772,4.668
			C519.145,1254.352,484.315,1303.116,515.958,1340.515z"/>
	</g>
	<g>
		<path style="fill:#BFCBC2;" d="M432.619,1284.74c18.741-5.242,38.26-17.09,51.696-34.155
			C476.553,1269.449,455.456,1285.317,432.619,1284.74z"/>
	</g>
	<g>
		<path style="fill:#BFCBC2;" d="M415.612,1411.314c-35.397-44.823,55.724-108.334,69.833-145.535
			C463.6,1346.944,396.123,1364.471,415.612,1411.314z"/>
	</g>
	<g>
		<path style="fill:#BFCBC2;" d="M386.571,1656.838c-32.297-69.627-14.38-158.466,57.214-222.513
			c57.159-59.769,17.24-97.524,3.127-68.404c5.878-41.962,84.731,3.619,4.351,95.623
			C401.69,1514.979,375.955,1578.743,386.571,1656.838z"/>
	</g>
	<g>
		<path style="fill:#BFCBC2;" d="M475.111,1296.254c-24.361,53.561-102.69,123.392-42.467,135.326
			C342.09,1426.88,476.732,1293.836,475.111,1296.254z"/>
	</g>
	<g>
		<path style="fill:#BFCBC2;" d="M496.308,1400.535c4.045-31.372-27.98-66.231-14.265-98.828
			C477.681,1333.105,509.688,1367.889,496.308,1400.535z"/>
	</g>
	<g>
		<path style="fill:#BFCBC2;" d="M526.565,429.851c-5.994,24.686-29.995,71.58-46.908,91.305
			C488.371,497.569,512.297,450.966,526.565,429.851z"/>
	</g>
	<g>
		<path style="fill:#BFCBC2;" d="M560.219,448.464c1.007,46.525-47.751,84.317-51.95,130.142
			C499.15,530.718,548.148,491.583,560.219,448.464z"/>
	</g>
	<g>
		<path style="fill:#BFCBC2;" d="M594.675,458.194c-6.684,38.251-35.581,113.172-56.166,145.951
			C546.328,566.262,575.169,491.458,594.675,458.194z"/>
	</g>
	<g>
		<path style="fill:#BFCBC2;" d="M632.562,468.929c-3.395,46.123-23.267,111.612-46.494,152.364
			C595.477,576.386,615.066,512.045,632.562,468.929z"/>
	</g>
	<g>
		<path style="fill:#BFCBC2;" d="M1659.259,790.998c-19.585,53.254-96.065,30.672-93.872-28.896
			c3.692-65.135,85.394-82.878,90.614-52.535c-22.328-28.914-78.186,23.731-73.278,55.315
			C1581.632,801.8,1630.745,831.772,1659.259,790.998z"/>
	</g>
	<g>
		<path style="fill:#BFCBC2;" d="M1644.563,867.633c-143.437,9.418-153.923-197.518-15.79-206.75
			C1516.274,699.109,1532.116,849.507,1644.563,867.633z"/>
	</g>
	<g>
		<path style="fill:#BFCBC2;" d="M1603.085,983.51c17.579-78.55-117.222-120.298-83.08-202.497
			C1508.747,858.559,1643.633,901.019,1603.085,983.51z"/>
	</g>
	<g>
		<path style="fill:#BFCBC2;" d="M1575.266,1210.448c23.414-176.162-42.778-126.206-59.587-223.716
			c-0.738-77.155,94.782-56.059,65.571-8.808c13.73-46.016-65.244-39.945-39.398,22.368
			C1609.294,1092.222,1611.669,1116.705,1575.266,1210.448z"/>
	</g>
	<g>
		<path style="fill:#BFCBC2;" d="M1602.872,1391.032c-129.175-144.573-1.86-262.706-81.631-318.923
			C1618.28,1115.217,1519.957,1248.656,1602.872,1391.032z"/>
	</g>
	<g>
		<path style="fill:#BFCBC2;" d="M1700.115,664.372c-63.922-58.565-142.766-2.525-188.072,44.396
			C1574.26,597.924,1674.066,614.082,1700.115,664.372z"/>
	</g>
	<g>
		<path style="fill:#BFCBC2;" d="M1635.172,612.703c-51.936-10.586-101.165,15.83-124.112,52.279
			C1527.553,612.111,1589.528,588.811,1635.172,612.703z"/>
	</g>
	<g>
		<path style="fill:#BFCBC2;" d="M1532.627,591.335c-33.865-41.506,42.174-71.797,56.376-20.771
			c12.469,56.156-71.238,72.944-79.206,16.487c13.261,38.516,73.466,28.2,64.336-14.589
			C1562.518,538.447,1514.835,558.982,1532.627,591.335z"/>
	</g>
	<path style="fill:#BFCBC2;" d="M1604.239,757.987c1.769-27.195,38.503-24.288,39.095,0
		C1641.566,785.182,1604.831,782.275,1604.239,757.987z"/>
	<path style="fill:#BFCBC2;" d="M1570.031,976.678c-0.766-16.285-23.789-15.554-24.435,0.001
		C1546.362,992.963,1569.385,992.232,1570.031,976.678z"/>
	<path style="fill:#BFCBC2;" d="M530.334,875.274c1.348-23.456,33.591-21.436,34.208,0.001
		C563.195,898.729,530.952,896.709,530.334,875.274z"/>
	<path style="fill:#BFCBC2;" d="M502.235,1038.986c1.31-21.799,31.146-19.847,31.765,0.001
		C532.69,1060.785,502.854,1058.833,502.235,1038.986z"/>
	<path style="fill:#BFCBC2;" d="M582.869,966.904c1.589-25.376,36.062-22.818,36.652,0.001
		C617.932,992.28,583.459,989.722,582.869,966.904z"/>
	<path style="fill:#BFCBC2;" d="M465.026,255.298c1.02-18.26,26.287-16.89,26.878,0.001
		C490.885,273.557,465.617,272.187,465.026,255.298z"/>
	<path style="fill:#BFCBC2;" d="M369.174,138.459c0.766,16.285,23.789,15.554,24.435-0.001
		C392.843,122.174,369.82,122.905,369.174,138.459z"/>
	<path style="fill:#BFCBC2;" d="M488.795,111.689c-1.209-20.122-28.75-18.32-29.322,0.001
		C460.683,131.811,488.224,130.009,488.795,111.689z"/>
</g>
<g id="Layer_4">
	<g>
		<path style="fill:#FFB400;" d="M1524.581,524.094c21.773,23.926,49.299,50.547,82.808,75.649
			c21.095,15.801,45.693,31.847,75.104,40.176c-29.275,56.376-38.623,107.966-45.043,152.411
			c-17.88,123.874-21.835,236.754-22.621,268.399l-0.017,0.679l-0.001,0.031l-0.001,0.031c-0.067,2.875-6.51,290.362,12.637,535.759
			c1.35,17.255,4.511,57.663,25.132,104.681c12.529,28.558,29.515,55.102,50.709,79.294c-19.637,15.573-37.2,34.357-51.905,55.658
			c-39.779,57.65-49.727,113.646-28.765,161.94c21.646,49.839,73.775,83.546,129.693,83.876c0.302,0.002,0.593,0.003,0.895,0.003
			c16.974,0,33.933-3.027,50.197-8.674c-3.316,2.565-6.809,5.023-10.475,7.37c-16.209,10.377-31.223,15.619-37.644,17.861
			c-16.252,5.679-33.32,8.559-50.73,8.559c-33.956,0-60.573-10.853-70.447-15.522c-13.128-6.205-46.096-24.643-68.631-61.755
			c-13.789-22.704-17.617-46.562-26.008-98.846c-1.886-11.733-6.302-39.21-10.754-124.442c-1.909-36.532-3.299-73.552-4.132-110.031
			V524.094 M1489.581,423.34V1697.6c0.63,27.72,1.8,65.91,4.18,111.46c4.3,82.32,8.54,111.93,11.15,128.17
			c8.87,55.27,13.31,82.91,30.65,111.46c29.28,48.22,72.27,69.88,83.59,75.23c8.605,4.069,41.574,18.878,85.403,18.878
			c19.073,0,40.202-2.804,62.277-10.518c14.75-5.15,71.73-25.05,100.31-80.8c15.62-30.44,19.82-65.84,13.52-101.3
			c-3.35,9.56-7.56,18.8-12.7,27.6c-23.657,40.477-67.904,69.902-114.755,69.902c-0.224,0-0.441,0-0.665-0.002
			c-40.61-0.24-81.48-25.2-97.82-62.82c-19.08-43.959-0.17-90.959,25.47-128.12c20.09-29.1,46.98-53.66,78.33-69.76
			c-25.6-22.43-54.42-54.75-73.89-99.13c-17.81-40.61-20.9-75.58-22.29-93.35c-19.23-246.46-12.54-532.21-12.54-532.21
			c0.31-12.3,3-131.32,22.29-264.96c6.21-42.99,15.25-96.27,48.77-154.65c7.021-12.23,14.32-23.3,21.55-33.23
			c-5.19,0.74-10.71,1.21-16.51,1.29c-0.566,0.008-1.132,0.012-1.695,0.012c-38.161,0-68.114-18.258-95.835-39.022
			c-66.57-49.87-108.66-106.91-128.18-133.75C1496.681,433.16,1493.151,428.28,1489.581,423.34L1489.581,423.34z M1880.661,1950.17
			v0.01V1950.17L1880.661,1950.17z"/>
	</g>
	<g>
		<path style="fill:#FFB400;" d="M446.164,46.575c48.397,39.63,88.635,85.816,119.857,137.627
			c26.164,43.427,43.98,87.427,56.068,138.471c10.929,46.155,16.421,93.534,22.987,155.429
			c21.331,201.035-10.578,358.878-41.441,511.552c-26.075,128.98-64.463,257.123-82.542,307.616l-0.787,2.199
			c-12.158,33.912-24.626,69.255-37.056,105.047l-0.549,1.58c-7.916,22.79-18.758,54.001-22.723,66.129
			c-15.281,46.698-38.49,139.822-22.244,238.841c17.275,105.31,73.691,171.056,111.024,214.562c2.79,3.251,5.425,6.323,7.971,9.322
			c34.151,40.232,114.126,134.448,252.73,170.597c1.061,0.277,2.117,0.55,3.169,0.82c-25.9-4.814-52.614-11.014-79.305-18.461
			c-46-12.826-85.104-24.578-134.379-48.981c-64.943-32.159-109.499-69.359-156.672-108.744
			c-28.792-24.035-46.766-41.281-61.209-55.139c-23.378-22.431-40.269-38.638-77.022-58.005
			c-43.988-23.182-86.283-35.334-111.906-41.726c26.244-28.027,82.81-92.443,131.319-174.93
			c30.797-52.373,134.632-246.019,177.746-538.923c22.73-154.391,17.1-260.168,7.774-435.42
			c-0.237-4.447-6.322-110.523-51.603-251.261c-9.841-30.578-24.151-66.788-55.667-103.511
			c-36.581-42.624-77.563-63.037-98.74-71.414c-17.201-6.802-38.609-15.266-66.842-15.266c-1.5,0-3.028,0.024-4.543,0.071
			c-17.708,0.554-34.877,4.19-51.417,10.867c4.847-4.324,9.09-7.486,11.785-9.494c12.64-9.433,28.36-16.976,38.762-21.968
			l0.091-0.044c11.495-5.513,20.08-8.805,41.693-16.811c32.755-12.145,50.797-18.835,63.21-23.181
			C367.414,112.898,403.723,87.466,446.164,46.575 M443.231,0c-57.25,59.33-94.41,82.33-119.12,91
			c-12.54,4.39-29.62,10.72-63.79,23.39c-21.38,7.92-31.42,11.72-44.66,18.07c-11.19,5.37-29.24,14.02-44.65,25.52
			c-11.26,8.39-49.68,37.05-58.47,87.18c-3.74,21.31-1.07,40.47,3.26,55.57c6.98-14.07,16.83-28.59,30.76-41.75
			c8.93-8.44,40.1-37.9,86.11-39.34c1.165-0.036,2.314-0.054,3.448-0.054c21.561,0,37.802,6.421,53.972,12.814
			c11.2,4.43,50.12,20.96,85.05,61.66c29.72,34.63,41.91,69.69,48.91,91.44c44.41,138.03,49.97,242.4,49.97,242.4
			c9.26,174,14.77,277.53-7.45,428.46c-34.76,236.15-113.24,424.16-173.29,526.28c-62.66,106.55-140.34,182.87-140.34,182.87
			c-12.24,12.02-23.61,22.43-33.48,31.09c15.9,2.21,32.93,5.27,50.83,9.46c22.93,5.37,69.12,16.48,117.43,41.94
			c53.19,28.03,56.1,45.59,132.12,109.05c48.03,40.1,94.93,79.25,163.57,113.24c51.49,25.5,92.92,38.06,140.51,51.33
			c100.35,28,169.42,30.88,190.83,31.46c13.578,0.367,25.211,1.046,34.068,1.046c1.287,0,2.515-0.014,3.682-0.046
			c2.382,0.053,4.959,0.082,7.735,0.082c47.31,0,149.763-8.41,239.555-48.082c89.21-39.42,140.55-97.73,171.96-134.22
			c23.77-27.6,43.36-55.69,59.52-83.15v-128.17c-20.21,47.98-50.17,101.8-95,153.86c-31.42,36.49-81.55,97.66-171.96,134.22
			c-25.04,10.13-50.76,18.55-76.96,25.12c-22.1,5.53-44.53,9.74-67.15,12.5c-21.629,2.648-43.424,3.743-65.224,3.743
			c-4.789,0-9.579-0.053-14.366-0.154c-25.69-0.54-50.93-2.92-76.17-7.69c-15.51-2.93-30.89-6.48-46.15-10.46
			c-125.34-32.689-199.22-117.37-234.88-159.38c-37.17-43.79-94.27-104.06-111.14-206.9c-17.28-105.32,14.89-203.71,20.97-222.29
			c3.96-12.11,15.22-44.51,23.07-67.11c20.45-58.88,35.81-101.55,37.74-106.95c19.17-53.54,57.5-181.92,83.89-312.46
			c30.98-153.25,63.84-315.78,41.94-522.18c-12.32-116.14-23.01-207.24-83.88-308.27C550.431,90.52,493.381,36.92,443.231,0
			L443.231,0z"/>
	</g>
</g>
<g id="Layer_6">
	<g>
		<g>
			<path style="fill:#480000;" d="M1431.27,283.2c-16.073,0-29.149-13.076-29.149-29.149s13.076-29.15,29.149-29.15
				s29.15,13.077,29.15,29.15S1447.344,283.2,1431.27,283.2z"/>
			<path style="fill:#480000;" d="M1431.271,231.4c12.489,0,22.65,10.161,22.65,22.65c0,12.489-10.161,22.65-22.65,22.65
				c-12.489,0-22.65-10.161-22.65-22.65C1408.621,241.561,1418.782,231.4,1431.271,231.4 M1431.271,218.4
				c-19.689,0-35.65,15.961-35.65,35.65s15.961,35.65,35.65,35.65c19.689,0,35.65-15.961,35.65-35.65S1450.96,218.4,1431.271,218.4
				L1431.271,218.4z"/>
		</g>
	</g>
	<g>
		<g>
			<path style="fill:#480000;" d="M1431.269,2168.655c-16.073,0-29.15-13.076-29.15-29.149s13.077-29.15,29.15-29.15
				s29.149,13.077,29.149,29.15S1447.343,2168.655,1431.269,2168.655z"/>
			<path style="fill:#480000;" d="M1431.269,2116.856c12.489,0,22.65,10.161,22.65,22.65c0,12.489-10.161,22.65-22.65,22.65
				c-12.489,0-22.65-10.161-22.65-22.65C1408.619,2127.017,1418.78,2116.856,1431.269,2116.856 M1431.269,2103.856
				c-19.689,0-35.65,15.961-35.65,35.65c0,19.689,15.961,35.65,35.65,35.65c19.689,0,35.65-15.961,35.65-35.65
				C1466.919,2119.817,1450.958,2103.856,1431.269,2103.856L1431.269,2103.856z"/>
		</g>
	</g>
	<g>
		<g>
			<rect x="1426.77" y="260.55" style="fill:#480000;" width="9" height="1872.459"/>
			<polygon style="fill:#480000;" points="1442.27,254.05 1420.27,254.05 1420.27,2139.51 1442.27,2139.51 1442.27,254.05 			"/>
		</g>
	</g>
	<g>
		<g>
			<path style="fill:#480000;" d="M1741.086,552.702c-39.746,0-70.842-19.187-98.523-39.92
				c-68.502-51.325-110.973-109.752-129.109-134.702c-29.013-39.897-57.91-80.767-85.892-121.48
				c-0.681-0.991-0.935-2.187-0.716-3.369c0.219-1.182,0.885-2.208,1.876-2.889c0.754-0.518,1.632-0.792,2.539-0.792
				c1.488,0,2.879,0.729,3.719,1.952c27.96,40.682,56.812,81.487,85.751,121.281c17.899,24.625,59.813,82.285,127.229,132.795
				c30.551,22.883,58.071,38.124,93.087,38.124c0.56,0,1.121-0.003,1.686-0.012c17.988-0.252,35.653-4.332,52.5-12.125
				c0.599-0.276,1.232-0.417,1.882-0.417c1.752,0,3.357,1.025,4.092,2.612c1.042,2.252,0.057,4.932-2.195,5.974
				c-18,8.326-36.895,12.685-56.155,12.955C1742.264,552.698,1741.672,552.702,1741.086,552.702z"/>
			<path style="fill:#480000;" d="M1431.261,243.05c-2.147,0-4.317,0.627-6.221,1.935c-5.007,3.441-6.276,10.289-2.835,15.296
				c28.025,40.777,56.957,81.696,85.988,121.617c18.309,25.187,61.183,84.17,130.473,136.086
				c28.622,21.438,60.822,41.218,102.42,41.218c0.616,0,1.239-0.004,1.859-0.013c20.179-0.283,39.96-4.844,58.794-13.555
				c5.514-2.551,7.916-9.088,5.365-14.602c-1.859-4.019-5.835-6.384-9.991-6.384c-1.545,0-3.116,0.327-4.61,1.018
				c-16.015,7.408-32.793,11.286-49.867,11.525c-0.532,0.008-1.062,0.011-1.59,0.011c-33.165,0-59.696-14.734-89.189-36.825
				c-66.635-49.926-108.143-107.03-125.869-131.417c-28.919-39.766-57.735-80.523-85.651-121.141
				C1438.203,244.717,1434.761,243.05,1431.261,243.05L1431.261,243.05z"/>
		</g>
	</g>
	<g>
		<g>
			<path style="fill:#480000;" d="M938.591,2050.125c-78.821,0.002-142.531-22.214-184.244-64.245
				c-35.603-35.871-71.8-102.428-56.643-171.948c8.373-38.381,38.502-105.037,98.32-111.406c3.134-0.333,6.342-0.502,9.535-0.502
				c37.625,0,75.007,23.439,90.909,57c7.14,15.072,10.818,33.228,10.094,49.809c-0.898,20.55-8.331,38.259-21.494,51.215
				c-10.966,10.795-25.691,18.388-41.461,21.378c-4.684,0.888-9.401,1.338-14.02,1.338c-11.868,0-23.073-2.966-32.404-8.575
				c-13.518-8.128-34.847-28.711-29.04-54.303c4.464-19.729,22.132-34.716,42.966-36.449c0.144-0.012,0.274-0.018,0.403-0.018
				c2.306,0,4.262,1.813,4.455,4.128c0.206,2.474-1.639,4.652-4.111,4.858c-16.962,1.411-31.328,13.529-34.935,29.469
				c-4.67,20.583,13.455,37.72,24.9,44.601c8.142,4.896,17.465,7.378,27.71,7.378c17.693,0,36.555-7.747,49.224-20.219
				c24.635-24.246,22.235-64.042,9.581-90.756c-16.965-35.806-53.949-51.833-83.076-51.833c-2.803,0-5.589,0.146-8.281,0.431
				c-54.833,5.84-83.161,70.827-90.479,104.374c-14.387,65.99,20.226,129.422,54.237,163.691
				c50.513,50.898,124.715,61.582,178.068,61.582c3.957,0,7.995-0.059,12-0.174c66.854-1.92,142.319-20.164,201.868-48.804
				c141.908-68.257,241.835-221.245,274.157-419.737c0.356-2.188,2.225-3.777,4.442-3.777c0.242,0,0.489,0.021,0.733,0.06
				c2.438,0.397,4.107,2.715,3.708,5.164c-15.806,97.062-48.853,186.722-95.568,259.286c-23.807,36.98-51.243,69.821-81.547,97.61
				c-31.09,28.512-65.417,51.896-102.025,69.506c-60.63,29.158-137.456,47.733-205.51,49.689
				C946.898,2050.064,942.703,2050.125,938.591,2050.125L938.591,2050.125z"/>
			<path style="fill:#480000;" d="M1431.27,1562.13c-5.3,0-9.977,3.83-10.857,9.232c-31.977,196.367-130.592,347.602-270.56,414.925
				c-58.768,28.264-133.249,46.269-199.237,48.164c-3.844,0.111-7.781,0.171-11.814,0.171c-54.696,0-125.315-11.155-173.454-59.661
				c-32.863-33.111-66.331-94.287-52.5-157.727c6.973-31.963,33.673-93.85,84.815-99.296c2.475-0.263,5.009-0.394,7.595-0.394
				c28.158,0.002,61.815,15.638,77.202,48.115c11.702,24.703,14.106,61.321-8.266,83.342c-10.969,10.797-27.99,18.35-44.664,18.35
				c-8.493,0-16.896-1.96-24.362-6.449c-9.265-5.569-25.767-20.593-21.909-37.595c2.988-13.203,14.968-23.247,29.134-24.426
				c6.054-0.504,10.554-5.819,10.05-11.874c-0.477-5.738-5.277-10.09-10.932-10.09c-0.312,0-0.626,0.013-0.942,0.04
				c-23.629,1.966-43.683,19.028-48.766,41.488c-6.628,29.213,17.015,52.284,32.03,61.312c10.43,6.271,22.766,9.504,35.753,9.504
				c5.004,0,10.105-0.48,15.231-1.452c17.021-3.228,32.936-11.442,44.81-23.131c14.356-14.13,22.457-33.344,23.428-55.563
				c0.77-17.604-3.135-36.877-10.713-52.876c-17.232-36.37-56.797-60.717-96.783-60.717c-3.409,0-6.821,0.177-10.223,0.539
				c-63.499,6.762-95.239,76.401-103.983,116.485c-15.713,72.07,21.628,140.883,58.38,177.912
				c43.078,43.406,108.182,66.168,188.858,66.166c4.174,0,8.4-0.061,12.657-0.183c68.92-1.98,146.729-20.795,208.141-50.329
				c37.183-17.885,72.04-41.629,103.602-70.572c30.713-28.165,58.51-61.434,82.618-98.883
				c47.195-73.309,80.571-163.824,96.52-261.761c0.976-5.996-3.094-11.648-9.09-12.625
				C1432.444,1562.177,1431.853,1562.13,1431.27,1562.13L1431.27,1562.13z"/>
		</g>
	</g>
	<g>
		<g>
			<path style="fill:#480000;" d="M746.788,2179.813c-0.23,0-0.465-0.019-0.697-0.055c-56.099-8.687-111.028-25.236-163.267-49.192
				c-52.241-23.958-100.624-54.784-143.804-91.624c-20.74-17.695-40.555-37.005-59.718-55.678
				c-23.041-22.454-46.832-45.639-72.222-65.998c-79.909-64.077-187.087-80.37-281.647-94.745l-10.005-1.521l7.831-6.409
				c27.595-22.589,54.103-46.972,78.787-72.471c101.599-104.999,151.491-208.479,187.92-284.035
				c52.476-108.861,92.957-231.397,117.067-354.361c32.563-166.039,31.355-360.929-3.69-595.808
				c-13.991-93.771-39.983-194.128-126.686-227.483c-11.999-4.616-26.932-10.362-44.674-10.362c-6.257,0-12.561,0.728-18.735,2.162
				c-25.255,5.836-45.057,20.289-55.752,40.695c-11.623,22.182-11.619,49.917,0.01,72.382c8.975,17.339,31.412,43.135,56.436,43.135
				c3.279,0,6.516-0.455,9.621-1.35c17.917-5.166,35.649-25.92,32.446-47.444c-2.311-15.534-15.976-32.907-30.806-32.907
				c-0.391,0-0.78,0.012-1.169,0.037c-6.887,0.433-12.484,4.663-15.967,8.134c-0.85,0.848-1.978,1.314-3.177,1.314
				c-1.205,0-2.336-0.47-3.187-1.323c-0.849-0.851-1.315-1.982-1.313-3.184c0.002-1.202,0.472-2.332,1.323-3.18
				c6.566-6.547,14.092-10.262,21.766-10.745c0.555-0.034,1.119-0.051,1.68-0.051c19.869,0,36.897,21.387,39.753,40.581
				c3.943,26.508-16.907,51.089-38.855,57.416c-3.976,1.147-8.079,1.729-12.195,1.729c-11.327,0-22.862-4.263-34.284-12.67
				c-11.9-8.759-23.139-21.975-30.064-35.354c-13.154-25.413-13.15-55.58,0.011-80.696c11.932-22.768,33.841-38.851,61.693-45.287
				c6.783-1.575,13.723-2.373,20.633-2.373c19.595,0,36.031,6.322,48.032,10.938c41.984,16.152,74.59,49.319,96.919,98.583
				c20.025,44.179,29.46,95.874,35.444,135.975c35.2,235.912,36.384,431.803,3.621,598.867
				c-24.256,123.706-64.988,246.995-117.792,356.538c-36.694,76.107-86.949,180.342-189.56,286.386
				c-19.288,19.925-39.813,39.299-61.001,57.583l-10.63,9.172l13.871,2.171c38.337,6,83.243,13.788,125.632,26.056
				c55.712,16.121,100.304,37.999,136.325,66.884c25.732,20.634,49.683,43.975,72.845,66.547
				c19.079,18.592,38.788,37.799,59.306,55.304c86.107,73.463,190.746,121.449,302.602,138.77c2.452,0.38,4.139,2.684,3.759,5.136
				C750.886,2178.174,748.979,2179.813,746.788,2179.813z"/>
			<path style="fill:#480000;" d="M231.851,254.592c-6.969,0-14.351,0.741-22.096,2.54c-29.727,6.869-53.162,24.129-65.987,48.603
				c-14.145,26.995-14.155,59.406-0.026,86.702c7.362,14.223,19.318,28.279,31.983,37.601c12.543,9.233,25.505,13.935,38.137,13.935
				c4.725,0,9.403-0.658,13.996-1.983c24.588-7.088,47.928-34.745,43.483-64.618c-3.322-22.326-22.878-46.124-46.182-46.124
				c-0.693,0-1.39,0.021-2.089,0.064c-9.273,0.583-18.245,4.95-25.947,12.629c-4.302,4.29-4.313,11.254-0.023,15.556
				c2.149,2.155,4.969,3.233,7.79,3.233c2.81,0,5.62-1.07,7.766-3.21c2.691-2.682,6.921-5.945,11.785-6.25
				c0.254-0.016,0.508-0.024,0.762-0.024c11.026,0.001,22.502,14.765,24.376,27.364c2.631,17.684-12.516,35.831-27.819,40.242
				c-2.592,0.748-5.203,1.095-7.819,1.095c-20.725,0-41.464-21.851-50.664-39.623c-10.669-20.611-10.679-46.046-0.025-66.377
				c9.801-18.702,28.074-31.976,51.465-37.381c6.044-1.404,11.792-1.993,17.264-1.993c16.535,0.001,30.525,5.382,42.341,9.928
				c83.588,32.157,108.877,130.458,122.591,222.376c34.934,234.132,36.157,428.299,3.74,593.597
				c-24.005,122.428-64.305,244.421-116.543,352.789c-36.238,75.159-85.867,178.093-186.735,282.337
				c-24.513,25.322-50.835,49.533-78.234,71.962L0,1825.23l24.457,3.718c93.752,14.252,200.013,30.406,278.558,93.39
				c25.147,20.164,48.825,43.239,71.724,65.555c19.247,18.756,39.149,38.151,60.064,55.994
				c43.638,37.231,92.528,68.381,145.313,92.588c52.784,24.206,108.291,40.93,164.977,49.707c0.57,0.089,1.137,0.132,1.697,0.132
				c5.332-0.001,10.016-3.885,10.857-9.318c0.93-6.004-3.184-11.624-9.188-12.554c-110.665-17.136-214.188-64.611-299.377-137.291
				c-20.36-17.37-39.998-36.508-58.988-55.014c-23.274-22.681-47.339-46.133-73.316-66.963
				c-36.702-29.43-82.034-51.692-138.584-68.056c-42.381-12.265-87.232-20.098-126.434-26.234
				c21.356-18.428,41.949-37.864,61.426-57.984c103.337-106.794,153.856-211.574,190.744-288.083
				c53.042-110.035,93.954-233.867,118.315-358.109c32.909-167.805,31.741-364.419-3.57-601.077
				c-6.045-40.518-15.595-92.787-35.952-137.699c-23.059-50.874-56.872-85.18-100.499-101.964
				C269.814,261.194,252.657,254.592,231.851,254.592L231.851,254.592z"/>
		</g>
	</g>
	<g>
		<g>
			<path style="fill:#480000;" d="M1505.581,471.928c23.207,29.889,60.679,73.265,113.198,112.608
				c26.453,19.814,55.975,38.292,93.24,41.668c-1.719,2.821-3.398,5.659-5.034,8.509c-33.992,59.201-44.009,113.8-50.731,160.331
				c-17.731,122.838-21.652,234.775-22.432,266.156l-0.018,0.715c-0.067,2.865-6.489,289.388,12.584,533.833
				c1.275,16.296,4.26,54.457,23.589,98.53c14.433,32.899,35.216,62.989,61.923,89.696c-24.999,16.31-47.161,38.013-64.88,63.679
				c-35.86,51.971-45.189,101.619-26.976,143.581c18.404,42.373,64.625,72.163,112.406,72.446l0.754,0.002
				c41.411,0,82.816-20.563,111.612-54.065c-2.388,12.16-6.369,23.756-11.915,34.563c-10.816,21.099-27.548,38.998-49.73,53.199
				c-18.085,11.578-34.575,17.336-41.62,19.796c-18.271,6.385-37.448,9.622-56.999,9.622c-37.806,0-67.536-12.128-78.566-17.344
				c-14.68-6.938-51.544-27.557-76.752-69.07c-15.72-25.883-19.734-50.893-28.528-105.693
				c-1.934-12.034-6.464-40.217-10.969-126.466c-1.922-36.783-3.321-74.063-4.158-110.803V471.928 M1489.581,423.34V1697.6
				c0.63,27.72,1.8,65.91,4.18,111.46c4.3,82.32,8.54,111.93,11.15,128.17c8.87,55.27,13.31,82.91,30.65,111.46
				c29.28,48.22,72.27,69.88,83.59,75.23c8.605,4.069,41.574,18.878,85.403,18.878c19.073,0,40.202-2.804,62.277-10.518
				c14.75-5.15,71.73-25.05,100.31-80.8c15.62-30.44,19.82-65.84,13.52-101.3c-3.35,9.56-7.56,18.8-12.7,27.6
				c-23.657,40.477-67.904,69.902-114.755,69.902c-0.224,0-0.441,0-0.665-0.002c-40.61-0.24-81.48-25.2-97.82-62.82
				c-19.08-43.96-0.17-90.96,25.47-128.12c20.09-29.1,46.98-53.66,78.33-69.76c-25.6-22.43-54.42-54.75-73.89-99.13
				c-17.81-40.61-20.9-75.58-22.29-93.35c-19.23-246.46-12.54-532.21-12.54-532.21c0.31-12.3,3-131.32,22.29-264.96
				c6.21-42.99,15.25-96.27,48.77-154.65c7.02-12.23,14.32-23.3,21.55-33.23c-5.19,0.74-10.71,1.21-16.51,1.29
				c-0.566,0.008-1.132,0.012-1.695,0.012c-38.161,0-68.114-18.258-95.835-39.022c-66.57-49.87-108.66-106.91-128.18-133.75
				C1496.681,433.16,1493.151,428.28,1489.581,423.34L1489.581,423.34z M1880.661,1950.17v0.01V1950.17L1880.661,1950.17z"/>
		</g>
	</g>
	<g>
		<g>
			<path style="fill:#480000;" d="M444.824,21.238c56.073,43.293,102.283,94.766,137.472,153.159
				c27.208,45.16,45.728,90.885,58.282,143.898c11.187,47.244,16.752,95.205,23.392,157.802
				c9.677,91.208,9.307,182.005-1.133,277.579c-9.27,84.863-25.183,163.584-40.579,239.742
				c-26.459,130.884-64.295,257.24-83.274,310.246l-0.801,2.235c-12.139,33.862-24.584,69.139-36.987,104.85l-0.549,1.58
				c-7.892,22.72-18.701,53.837-22.614,65.804c-14.742,45.051-37.145,134.82-21.552,229.856
				c16.413,100.054,68.593,160.864,106.693,205.265c2.807,3.271,5.459,6.361,8.037,9.399
				c32.989,38.863,110.243,129.874,243.04,164.508c16.661,4.345,32.106,7.845,47.217,10.699c25.272,4.776,51.049,7.382,78.804,7.965
				c4.951,0.104,9.898,0.157,14.703,0.157c23.972,0,45.943-1.264,67.162-3.861c22.919-2.797,46.166-7.124,69.104-12.863
				c26.666-6.687,53.269-15.37,79.066-25.807c90.513-36.602,143.002-97.747,174.363-134.28c1.27-1.479,2.511-2.924,3.723-4.333
				c25.31-29.392,47.677-61.298,66.876-95.357v54.835c-16.315,27.233-35.022,53.156-55.646,77.104
				c-17.458,20.282-36.675,41.956-62.627,64.332c-31.826,27.441-65.739,48.929-103.673,65.691
				c-38.349,16.944-82.71,29.65-131.849,37.767c-48.904,8.078-87.091,8.95-101.24,8.95c-2.578,0-5.06-0.026-7.378-0.078
				l-0.395-0.009l-0.394,0.01c-0.983,0.027-2.076,0.04-3.249,0.04c-4.975,0-11.019-0.233-18.019-0.502
				c-4.709-0.182-10.046-0.387-15.616-0.538c-38.552-1.044-102.281-7.249-186.966-30.878
				c-45.362-12.649-87.035-25.161-137.707-50.256c-66.961-33.158-112.356-71.058-160.417-111.185
				c-29.296-24.456-47.534-41.955-62.188-56.015c-23.087-22.152-38.339-36.786-72.726-54.907
				c-51.124-26.943-100.26-38.45-121.243-43.364c-6.441-1.508-12.938-2.91-19.466-4.202c3.255-3.095,6.485-6.216,9.682-9.356
				c0.815-0.801,20.277-19.987,47.703-52.593c25.26-30.03,62.283-77.581,95.215-133.58
				c30.356-51.624,132.714-242.559,175.327-532.06c22.453-152.511,16.862-257.574,7.598-431.642
				c-0.059-1.1-1.516-27.439-8.51-71.118c-6.421-40.099-18.956-103.068-42.207-175.333c-6.079-18.888-18.728-58.191-51.999-96.958
				c-33.918-39.521-71.765-58.389-91.308-66.119c-16.519-6.532-35.243-13.935-59.855-13.935c-1.306,0-2.635,0.021-3.949,0.062
				c-34.56,1.082-67.061,15.786-96.597,43.702c-2.888,2.729-5.671,5.56-8.345,8.493c0.254-2.652,0.612-5.292,1.073-7.918
				c3.248-18.524,11.599-35.932,24.822-51.741c10.924-13.06,22.085-21.376,27.458-25.38c14.119-10.537,30.84-18.561,41.905-23.871
				l0.095-0.046c12.774-6.127,22.506-9.79,43.303-17.495c32.86-12.184,50.961-18.896,63.525-23.294
				C361.381,94.879,399.218,67.074,444.824,21.238 M443.231,0c-57.25,59.33-94.41,82.33-119.12,91
				c-12.54,4.39-29.62,10.72-63.79,23.39c-21.38,7.92-31.42,11.72-44.66,18.07c-11.19,5.37-29.24,14.02-44.65,25.52
				c-11.26,8.39-49.68,37.05-58.47,87.18c-3.74,21.31-1.07,40.47,3.26,55.57c6.98-14.07,16.83-28.59,30.76-41.75
				c8.93-8.44,40.1-37.9,86.11-39.34c1.165-0.036,2.314-0.054,3.448-0.054c21.561,0,37.802,6.421,53.972,12.814
				c11.2,4.43,50.12,20.96,85.05,61.66c29.72,34.63,41.91,69.69,48.91,91.44c44.41,138.03,49.97,242.4,49.97,242.4
				c9.26,174,14.77,277.53-7.45,428.46c-34.76,236.15-113.24,424.16-173.29,526.28c-62.66,106.55-140.34,182.87-140.34,182.87
				c-12.24,12.02-23.61,22.43-33.48,31.09c15.9,2.21,32.93,5.27,50.83,9.46c22.93,5.37,69.12,16.48,117.43,41.94
				c53.19,28.03,56.1,45.59,132.12,109.05c48.03,40.1,94.93,79.25,163.57,113.24c51.49,25.5,92.92,38.06,140.51,51.33
				c100.35,28,169.42,30.88,190.83,31.46c13.578,0.367,25.211,1.046,34.068,1.046c1.287,0,2.515-0.014,3.682-0.046
				c2.382,0.053,4.959,0.082,7.735,0.082c47.31,0,149.763-8.41,239.555-48.082c89.21-39.42,140.55-97.73,171.96-134.22
				c23.77-27.6,43.36-55.69,59.52-83.15v-128.17c-20.21,47.98-50.17,101.8-95,153.86c-31.42,36.49-81.55,97.66-171.96,134.22
				c-25.04,10.13-50.76,18.55-76.96,25.12c-22.1,5.53-44.53,9.74-67.15,12.5c-21.629,2.648-43.425,3.743-65.224,3.743
				c-4.789,0-9.579-0.053-14.366-0.154c-25.69-0.54-50.93-2.92-76.17-7.69c-15.51-2.93-30.89-6.48-46.15-10.46
				c-125.34-32.69-199.22-117.37-234.88-159.38c-37.17-43.79-94.27-104.06-111.14-206.9c-17.28-105.32,14.89-203.709,20.97-222.29
				c3.96-12.11,15.22-44.51,23.07-67.11c20.45-58.88,35.81-101.55,37.74-106.95c19.17-53.54,57.5-181.92,83.89-312.46
				c30.98-153.25,63.84-315.78,41.94-522.18c-12.32-116.14-23.01-207.24-83.88-308.27C550.431,90.52,493.381,36.92,443.231,0
				L443.231,0z"/>
		</g>
	</g>
</g>
</svg>
