<?xml version="1.0" encoding="iso-8859-1"?>
<!-- Generator: Adobe Illustrator 24.0.1, SVG Export Plug-In . SVG Version: 6.00 Build 0)  -->
<svg version="1.1" xmlns="http://www.w3.org/2000/svg" xmlns:xlink="http://www.w3.org/1999/xlink" x="0px" y="0px"
	 viewBox="0 0 1563.774 2166.436" style="enable-background:new 0 0 1563.774 2166.436;" xml:space="preserve">
<g id="Layer_5">
	<linearGradient id="SVGID_1_" gradientUnits="userSpaceOnUse" x1="734.1205" y1="1214.244" x2="784.1205" y2="103.1329">
		<stop  offset="0" style="stop-color:#8B1D1A"/>
		<stop  offset="0.25" style="stop-color:#550000"/>
		<stop  offset="0.5" style="stop-color:#3A0000"/>
		<stop  offset="0.75" style="stop-color:#1E0000"/>
		<stop  offset="1" style="stop-color:#000000"/>
	</linearGradient>
	<path style="fill:url(#SVGID_1_);" d="M875.66,2000.641c12.88-10.46,25.5-20.46,37.82-29.98c22.86-17.7,44.69-33.8,65.25-48.42
		c101.72-72.32,184.17-116.67,232.77-142.6c128.62-68.61,197.47-89.4,222.29-96.47c15.33-4.37,30.04-8.11,44.01-11.33
		c-18.39-17.97-35.92-40.46-48.81-68.35c-25.744-55.72-27.414-116.497-33.571-176.03c-4.414-42.68-3.718-85.165-6.948-127.965
		c-3.237-42.888-1.148-85.646-0.283-128.58c1.604-79.619,4.065-159.217,7.154-238.792c1.95-50.238,4.138-100.467,6.389-150.693
		c7.93-177.27,12.76-269.43,35.65-398.45c2.44-13.74,4.88-26.77,7.27-39c-47.58-29.83-96.63-64.76-145.68-105.7
		c-37.95-31.67-71.89-63.61-102.15-94.81v1364.33v9.7c-0.42,28.43-4.05,53.31-20.97,101.54c-27.43,78.18-76.21,131.62-136.31,184.54
		c-52.5,46.23-109.03,88.01-163.88,124.53c-54.85-36.52-111.38-78.3-163.88-124.53c-60.09-52.92-108.87-106.36-136.31-184.54
		c-16.92-48.23-20.55-73.11-20.97-101.54l-0.59-9.7l-0.12-1442.79c-13.89,17.47-27.02,30.23-37.03,39.06
		c-24.23,21.37-47.64,35.14-62.92,44.04c-22.96,13.36-48.79,25.72-136.31,56.62c-64.13,22.64-61.61,20.01-79.69,27.26
		c-12.98,5.21-94.73,38.92-153.08,106.95c-58.03,67.64-116.31,196.46-65.01,295.69c5.52,10.68,45.66,85.54,117.43,88.08
		c37.99,1.34,85.61-17.54,106.95-60.82c1.02-2.05,24.26-51.21-2.09-98.56c-15.85-28.48-40.92-40.62-48.24-44.04
		c-11.23-5.25-22.1-8-31.81-9.29c5.76,16.67,6.78,34.39-0.41,51.94c-3.45,8.42-9.95,16.05-18.68,18.62
		c-16.26,4.8-32.04-9.11-40.91-23.56c-23.8-38.74-25.31-87.484-6.17-127.72c26.52-55.749,77.12-100.73,135.12-130.23
		c17.51-8.91,35.45-15.57,55.09-14.9c62.73,2.14,88.67,95.66,98.45,144.12c13.28,65.76,13.57,133.26,14.84,200.07
		c2.01,105.94,3.02,158.9,2.1,213.9c-1.21,71.61-3.27,98.92-10.49,247.46c0,0-10.45,214.93-50.33,450.87
		c-3.57,21.14-11.69,65.78-46.14,104.86c-8.89,10.07-18.22,18.3-27.21,25c15.82,3.52,32.64,7.71,50.28,12.74
		c24.82,7.07,93.68,27.86,222.29,96.47c48.61,25.93,131.06,70.28,232.78,142.6c20.56,14.62,42.39,30.73,65.25,48.41
		C850.17,1980.192,862.79,1990.182,875.66,2000.641z"/>
</g>
<g id="Layer_7">
	<g>
		<path style="fill:#BFCBC2;" d="M1290.93,742.773c0,0,8.236,105.711,8.236,236.111c0,130.401-8.236,236.111-8.236,236.111
			s-8.236-105.71-8.236-236.111C1282.693,848.483,1290.93,742.773,1290.93,742.773z"/>
	</g>
	<g>
		<path style="fill:#BFCBC2;" d="M479.819,431.661c0,0,9.302,119.391,9.302,266.667c0,147.276-9.302,266.667-9.302,266.667
			s-9.302-119.391-9.302-266.667C470.516,551.052,479.819,431.661,479.819,431.661z"/>
	</g>
	<g>
		<path style="fill:#BFCBC2;" d="M1330.175,889.478c1.268-64.674-90.481-36.958-52.871,13.444
			c125.949,90.462-4.652,175.583-24.886,100.724c26.139,50.343,104.708-13.669,20.646-70.966
			c-12.455-10.413-22.735-20.672-26.438-38.658C1236.469,815.588,1350.592,821.548,1330.175,889.478z"/>
	</g>
	<g>
		<path style="fill:#BFCBC2;" d="M1346.725,933.333c43.483-162.956-154.627-133.669-112.221-7.545
			c-23.939-29.704-22.399-80.857,9.638-107.569C1331.188,755.076,1399.958,853.742,1346.725,933.333z"/>
	</g>
	<g>
		<path style="fill:#BFCBC2;" d="M1341.129,669.823c114.589,92.31-79.743,213.273-113.622,73.965
			C1277.809,846.112,1414.592,757.724,1341.129,669.823z"/>
	</g>
	<g>
		<path style="fill:#BFCBC2;" d="M1349.577,656.481c-22.477-56.481-96.042-17.436-104.206,31.642
			c-11.475,48.478,35.567,90.212,81.542,64.883c-51.862,49.139-123.818-16.884-99.931-79.94
			C1243.287,615.994,1336.593,584.558,1349.577,656.481z"/>
	</g>
	<g>
		<path style="fill:#BFCBC2;" d="M1380.022,675.359c-13.576-86.166-115.982-99.013-154.809-29.477
			C1252.405,549.362,1390.432,576.491,1380.022,675.359z"/>
	</g>
	<g>
		<path style="fill:#BFCBC2;" d="M1332.057,750.344c29.522-83.021-88.324-87.943-63.996-19.793
			C1221.518,645.869,1389.148,654.427,1332.057,750.344z"/>
	</g>
	<g>
		<path style="fill:#BFCBC2;" d="M1275.226,492.673c-69.197,28.183-42.765,121.446,22.507,99.343
			C1220.693,636.074,1186.291,504.258,1275.226,492.673z"/>
	</g>
	<g>
		<path style="fill:#BFCBC2;" d="M1339.987,510.796c35.056-11.299,65.283,31.633,64.086,64.524
			c-3.051,47.682-61.745,50.618-85.77,20.277C1414.878,645.277,1404.17,511.09,1339.987,510.796z"/>
	</g>
	<g>
		<path style="fill:#BFCBC2;" d="M1329.453,511.163c-6.725,5.329-14.607,15.666-20.851,25.788
			c-48.347,84.04-113.234,11.525-68.119-18.017c-19.158,17.241-4.37,54.893,26.61,43.615
			C1291.859,553.385,1305.18,521.044,1329.453,511.163z"/>
	</g>
	<g>
		<path style="fill:#BFCBC2;" d="M1340.875,579.573c15.17,22.385,38.783-9.524,28.365-28.696
			c-8.571-19.857-39.594-21.42-46.037,4.039c-1.592-31.214,47.503-37.835,56.719-2.709
			C1388.791,581.885,1351.643,607.646,1340.875,579.573z"/>
	</g>
	<g>
		<path style="fill:#BFCBC2;" d="M1397.267,528.813c-34.798-54.944-113.804-76.242-173.559-27.043
			C1265.76,440.146,1370.308,445.779,1397.267,528.813z"/>
	</g>
	<g>
		<path style="fill:#BFCBC2;" d="M1372.33,414.403c12.022-39.272-29.775-68.282-65.687-48.051
			c-35.741,18.435-52.431,88.014-3.932,98.558c-59.936,0.99-51.596-88.091-9.198-111.662
			C1342.041,321.911,1399.854,368.854,1372.33,414.403z"/>
	</g>
	<g>
		<path style="fill:#BFCBC2;" d="M1225.578,323.445c-4.75-66.71,83.77-73.553,81.444-11.163
			c-8.194,59.514-65.31,65.6-36.189,131.997c-49.863-58.919,22.555-103.122,17.735-140.013
			C1279.549,261.49,1228.2,289.896,1225.578,323.445z"/>
	</g>
	<g>
		<path style="fill:#BFCBC2;" d="M1260.034,450.526c-8.076,13.604-31.973,11.703-40.147-4.95
			c-21.847-36.618,49.338-107.274,50.813,2.615c-3.481-3.802-10.656-37.239-19.325-47.357
			C1218.366,397.986,1216.532,475.25,1260.034,450.526z"/>
	</g>
	<g>
		<path style="fill:#BFCBC2;" d="M1319.221,436.578c52.583-11.747,1.355-87.68-50.943-41.839
			C1323.152,325.257,1389.743,433.13,1319.221,436.578z"/>
	</g>
	<g>
		<path style="fill:#BFCBC2;" d="M1391.702,402.887c53.707,54.246-12.927,107.157-39.244,59.441
			c-14.95-30.328,31.183-53.618,33.985-32.478c-0.772-5.975-8.183-6.114-15.412-1.695
			C1323.187,472.411,1437.752,496.803,1391.702,402.887z"/>
	</g>
	<g>
		<path style="fill:#BFCBC2;" d="M416.122,592.718c-26.005,46.845,91.4,5.672,62.375,126.435
			C482.672,603.249,380.486,645.536,416.122,592.718z"/>
	</g>
	<g>
		<path style="fill:#BFCBC2;" d="M554.88,546.509c0.237,56.114-76.78,24.133-72.831,141.765
			C454.394,561.151,547.935,595.632,554.88,546.509z"/>
	</g>
	<g>
		<path style="fill:#BFCBC2;" d="M407.321,501.167c-16.934,60.703,111.69,16.161,74.365,123.259
			c-1.91,7.92-3.745,18.347-1.783,27.613c-9.59-17.81-2.071-39.864-3.379-61.376C477.497,544.863,378.12,556.127,407.321,501.167z"
			/>
	</g>
	<g>
		<path style="fill:#BFCBC2;" d="M526.631,459.484c24.949,52.668-57.02,93.356-45.14,155.59
			C454.739,535.517,538.85,512.435,526.631,459.484z"/>
	</g>
	<g>
		<path style="fill:#BFCBC2;" d="M414.909,490.5c1.122-28.808,49.21-26.225,58.307,1.121c12.724,31.863-22.6,63.049-51.92,41.654
			C500.673,549.864,453.522,435.525,414.909,490.5z"/>
	</g>
	<g>
		<path style="fill:#BFCBC2;" d="M534.927,456.034c-55.074-41.605-64.267,88.189-13.289,43.81
			c-6.291,25.468-48.096,14.714-44.42-19.724C478.104,449.509,517.166,425.728,534.927,456.034z"/>
	</g>
	<g>
		<path style="fill:#BFCBC2;" d="M414.393,403.276c51.72,9.078,80.559,66.021,60.598,111.66
			C481.626,464.702,451.685,420.525,414.393,403.276z"/>
	</g>
	<g>
		<path style="fill:#BFCBC2;" d="M440,366.969c32.514,32.911,49.614,85.768,39.886,133.105
			C475.979,455.626,462.185,407.795,440,366.969z"/>
	</g>
	<g>
		<path style="fill:#BFCBC2;" d="M541.299,334.196c-40.261,37.916-64.569,100.918-58.969,157.389
			C459.276,433.117,488.279,361.331,541.299,334.196z"/>
	</g>
	<g>
		<path style="fill:#BFCBC2;" d="M557.732,375.172c-42.013,28.843-73.844,82.172-78.196,134.497
			C468.345,454.135,505.094,392.288,557.732,375.172z"/>
	</g>
	<g>
		<path style="fill:#BFCBC2;" d="M436.127,298.516c31.956,1.273,30.5,52.94-7.421,48.765c-24.896-3.609-28.77-44.817-3.189-39.178
			c-18.878-1.157-15.258,31.651,8.973,30.937C455.248,338.433,459.381,304.329,436.127,298.516z"/>
	</g>
	<g>
		<path style="fill:#BFCBC2;" d="M433.411,283.313c23.527-7.007,26.997-45.769-5.704-47.228
			c-24.757,1.391-28.282,38.158-4.487,46.826c-35.167-6.105-30.514-57.067,7.383-57.749
			C466.465,227.867,470.831,279.19,433.411,283.313z"/>
	</g>
	<g>
		<path style="fill:#BFCBC2;" d="M484.372,369.542c10.867-32.607-6.094-67.891-32.335-81.518
			C487.081,296.023,504.869,339.184,484.372,369.542z"/>
	</g>
	<g>
		<path style="fill:#BFCBC2;" d="M505.945,353.375c0.535-33.028-25.641-60.417-53.474-64.952
			C486.636,285.317,515.95,319.348,505.945,353.375z"/>
	</g>
	<g>
		<path style="fill:#BFCBC2;" d="M524.562,226.184c6.495,38.301-29.753,72.796-67.932,63.476
			C494.254,288.359,521.84,257.402,524.562,226.184z"/>
	</g>
	<g>
		<path style="fill:#BFCBC2;" d="M509.186,195.698c14.567,42.087-14.838,88.539-58.01,93.912
			C490.575,273.12,511.991,230.83,509.186,195.698z"/>
	</g>
	<g>
		<path style="fill:#BFCBC2;" d="M368.875,333.009c-0.372-18.626,15.361-39.555,36.904-41.317
			C392.271,302.21,378.731,316.594,368.875,333.009z"/>
	</g>
	<g>
		<path style="fill:#BFCBC2;" d="M375.227,215.055c-1.887,25.517,7.147,55.259,26.494,75.596
			C372.4,283.353,354.9,241.519,375.227,215.055z"/>
	</g>
	<g>
		<path style="fill:#BFCBC2;" d="M342.88,220.733c-2.356,36.621,25.114,67.123,56.054,72.727
			C356.908,307.821,317.632,259.429,342.88,220.733z"/>
	</g>
	<g>
		<path style="fill:#BFCBC2;" d="M345.646,304.297c11.645-11.259,32.648-17.875,50.668-11.771
			C381.086,296.444,363.355,300.637,345.646,304.297z"/>
	</g>
	<g>
		<path style="fill:#BFCBC2;" d="M461.699,173.018c19.697,16.995,26.824,51.384,10.906,75.404
			C472.735,224.635,469.356,197.944,461.699,173.018z"/>
	</g>
	<g>
		<path style="fill:#BFCBC2;" d="M492.548,148.187c5.14,30.406-0.631,66.461-17.667,94.682
			C481.767,217.264,489.54,176.142,492.548,148.187z"/>
	</g>
	<g>
		<path style="fill:#BFCBC2;" d="M80.207,625.874c-5.885-30.789,41.795-29.339,42.471,3.117
			c3.224,33.686-50.165,54.443-52.877,14.688c6.491,29.114,46.424,11.369,42.96-17.315
			C111.364,606.543,81.408,602.009,80.207,625.874z"/>
	</g>
	<g>
		<path style="fill:#BFCBC2;" d="M206.355,635.392c-52.756-72.004-67.318,59.405-9.706,33.362
			c-21.46,22.431-52.501-5.561-47.072-35.565C155.62,593.325,195.86,599.199,206.355,635.392z"/>
	</g>
	<g>
		<path style="fill:#BFCBC2;" d="M148.871,695.926c15.917-17.471,5.67-54.701-25.728-46.595
			c-22.209,7.108-18.048,41.158,5.866,43.789c-33.476,2.549-40.435-45.018-5.259-55.055
			C158.268,630.831,177.232,675.666,148.871,695.926z"/>
	</g>
	<g>
		<path style="fill:#BFCBC2;" d="M93.415,580.924c-24.491,11.578-40.728,43.637-36.077,69.491
			C35.217,622.822,56.801,578.649,93.415,580.924z"/>
	</g>
	<g>
		<path style="fill:#BFCBC2;" d="M82.74,545.473c-25.411,7.932-50.3,36.998-53.797,64.039
			C15.924,575.994,46.527,538.195,82.74,545.473z"/>
	</g>
	<g>
		<path style="fill:#BFCBC2;" d="M216.824,627.394c-0.234-18.824-17.202-40.982-36.88-45.106
			C204.454,575.092,229.76,602.467,216.824,627.394z"/>
	</g>
	<g>
		<path style="fill:#BFCBC2;" d="M398.496,319.833c-14.402,33.557,37.702,51.753,41.268,83.31
			C419.733,383.691,362.848,352.119,398.496,319.833z"/>
	</g>
	<path style="fill:#BFCBC2;" d="M123.803,671.231c0.267-10.138,15.583-10.97,16.431,0.001
		C139.967,681.369,124.651,682.201,123.803,671.231z"/>
	<path style="fill:#BFCBC2;" d="M416.83,260.445c0.772-16.427,23.995-15.689,24.647,0.001
		C440.705,276.872,417.482,276.134,416.83,260.445z"/>
	<path style="fill:#BFCBC2;" d="M422.307,320.694c0.305-12.089,18.414-12.633,19.17,0.001
		C441.172,332.783,423.063,333.327,422.307,320.694z"/>
	<path style="fill:#BFCBC2;" d="M509.942,483.639c-0.267-10.138-15.583-10.97-16.431,0.001
		C493.777,493.777,509.094,494.609,509.942,483.639z"/>
	<path style="fill:#BFCBC2;" d="M441.478,501.44c0.305-12.089,18.414-12.633,19.17,0.001
		C460.342,513.529,442.233,514.072,441.478,501.44z"/>
	<path style="fill:#BFCBC2;" d="M1313.713,726.003c-1.289-22.525-32.268-20.599-32.863,0.001
		C1282.139,748.528,1313.118,746.602,1313.713,726.003z"/>
	<path style="fill:#BFCBC2;" d="M1269.896,311.109c-0.772-16.427-23.995-15.689-24.647,0.001
		C1246.021,327.536,1269.244,326.798,1269.896,311.109z"/>
	<path style="fill:#BFCBC2;" d="M1380.808,445.299c0.065-5.728-9.884-8.021-10.954,0.001
		C1369.789,451.027,1379.738,453.319,1380.808,445.299z"/>
	<path style="fill:#BFCBC2;" d="M1312.344,910.856c1.039-18.604,26.783-17.209,27.386,0.001
		C1338.691,929.461,1312.946,928.065,1312.344,910.856z"/>
</g>
<g id="Layer_4">
	<g>
		<g>
			<path style="fill:#FFB400;" d="M518.797,147.527l0.113,1360.278v1.062l0.065,1.06l0.542,8.909
				c0.518,30.903,4.512,59.302,22.928,111.798c27.961,79.664,76.419,135.201,127.117,182.028
				c-48.233-29.208-87.163-49.975-113.268-63.9c-87.22-46.53-161.894-79.201-222.106-97.187
				c30.38-42.733,37.877-87.131,40.923-105.169c20.785-122.97,33.477-240.022,40.465-316.564
				c7.578-83.011,10.206-136.215,10.314-138.44c1.637-33.671,2.98-60.545,4.165-84.255c3.941-78.861,5.416-108.369,6.361-164.319
				c0.928-55.48-0.079-108.561-2.085-214.313l-0.016-0.837c-0.09-4.719-0.174-9.441-0.259-14.166
				c-1.13-62.902-2.298-127.945-15.266-192.162c-7.917-39.23-18.908-72.45-32.668-98.737c-28.233-53.938-64.074-69.847-91.479-72.9
				c8.825-2.987,20.034-6.854,34.541-11.975c86.473-30.53,115.753-43.948,142.273-59.38
				C482.797,171.749,499.765,161.866,518.797,147.527 M1231.819,226.127c14.663,13.369,29.592,26.398,44.723,39.025
				c40.985,34.209,84.395,66.286,129.302,95.56c-0.994,5.379-1.971,10.773-2.927,16.156
				c-23.206,130.805-28.105,223.09-36.153,402.997c-2,44.629-4.323,97.458-6.397,150.902c-3.286,84.669-5.633,162.992-7.173,239.444
				c-0.16,7.946-0.367,16.065-0.567,23.916c-0.896,35.095-1.822,71.385,0.942,108.003c1.35,17.89,2.011,36.36,2.649,54.222
				c0.869,24.28,1.767,49.386,4.385,74.71c0.95,9.188,1.815,18.672,2.652,27.844c4.792,52.535,9.747,106.858,33.963,159.27
				c5.384,11.648,11.668,22.906,18.819,33.727c-60.015,18.052-134.309,50.609-221.014,96.86
				c-26.113,13.932-65.048,34.705-113.28,63.915c50.706-46.826,99.177-102.37,127.133-182.049
				c18.577-52.954,22.478-81.389,22.939-112.61l0.004-0.258v-0.258v-9.7V226.127 M48.335,473.618
				c-2.872,35.378,5.172,71.33,23.826,101.694c15.842,25.808,39.797,41.216,64.078,41.216c5.603,0,11.178-0.807,16.545-2.391
				c18.236-5.368,33.247-19.556,41.183-38.927c1.576-3.846,2.907-7.759,3.995-11.728c6.465,5.854,10.737,11.915,13.494,16.868
				c6.953,12.494,9.456,26.909,7.44,42.844c-1.657,13.1-5.837,22.503-6.224,23.351c-14.122,28.482-46.169,41.232-71.699,41.232
				c-0.862,0-1.722-0.015-2.556-0.044c-20.816-0.737-40.881-10.945-59.637-30.34c-15.682-16.217-25.349-33.822-27.94-38.835
				c-9.725-18.811-15.025-40.199-15.753-63.568c-0.684-21.944,2.607-45.592,9.779-70.288
				C45.935,481.026,47.093,477.327,48.335,473.618 M553.79,65.012c-13.89,17.47-27.02,30.23-37.03,39.06
				c-24.23,21.37-47.64,35.14-62.92,44.04c-22.96,13.36-48.79,25.72-136.31,56.62c-64.13,22.64-61.61,20.01-79.69,27.26
				c-12.98,5.21-94.73,38.92-153.08,106.95c-58.03,67.64-116.31,196.46-65.01,295.69c5.52,10.68,45.66,85.54,117.43,88.08
				c1.254,0.044,2.52,0.066,3.794,0.066c37.313,0,82.521-19.035,103.156-60.886c1.02-2.05,24.26-51.21-2.09-98.56
				c-15.85-28.48-40.92-40.62-48.24-44.04c-11.23-5.25-22.1-8-31.81-9.29c5.76,16.67,6.78,34.39-0.41,51.94
				c-3.45,8.42-9.95,16.05-18.68,18.62c-2.234,0.659-4.462,0.966-6.661,0.966c-13.808,0-26.598-12.061-34.249-24.526
				c-23.8-38.74-25.31-87.485-6.17-127.72c26.52-55.75,77.12-100.73,135.12-130.23c16.696-8.496,33.786-14.946,52.364-14.946
				c0.906,0,1.813,0.015,2.726,0.046c62.73,2.14,88.67,95.66,98.45,144.12c13.28,65.76,13.57,133.26,14.84,200.07
				c2.01,105.94,3.02,158.9,2.1,213.9c-1.21,71.61-3.27,98.92-10.49,247.46c0,0-10.45,214.93-50.33,450.87
				c-3.57,21.14-11.69,65.78-46.14,104.86c-8.89,10.07-18.22,18.3-27.21,25c15.82,3.52,32.64,7.71,50.28,12.74
				c24.82,7.07,93.68,27.86,222.29,96.47c48.61,25.93,131.06,70.28,232.78,142.6c20.56,14.62,42.39,30.73,65.25,48.41
				c12.32,9.54,24.94,19.53,37.81,29.99c12.88-10.46,25.5-20.46,37.82-29.98c22.86-17.7,44.69-33.8,65.25-48.42
				c101.72-72.32,184.17-116.67,232.77-142.6c128.62-68.61,197.47-89.4,222.29-96.47c15.33-4.37,30.04-8.11,44.01-11.33
				c-18.39-17.97-35.92-40.46-48.81-68.35c-25.744-55.72-27.414-116.497-33.571-176.03c-4.414-42.68-3.718-85.165-6.948-127.965
				c-3.237-42.888-1.148-85.647-0.282-128.58c1.604-79.619,4.065-159.217,7.154-238.792c1.95-50.239,4.138-100.468,6.389-150.693
				c7.93-177.27,12.76-269.43,35.65-398.45c2.44-13.74,4.88-26.77,7.27-39c-47.58-29.83-96.63-64.76-145.68-105.7
				c-37.95-31.67-71.89-63.61-102.15-94.81v1364.33v9.7c-0.42,28.43-4.05,53.31-20.969,101.54
				c-27.43,78.18-76.21,131.62-136.31,184.54c-52.5,46.23-109.03,88.01-163.88,124.53c-54.85-36.52-111.38-78.3-163.88-124.53
				c-60.09-52.92-108.87-106.36-136.31-184.54c-16.92-48.23-20.55-73.11-20.97-101.54l-0.59-9.7L553.79,65.012L553.79,65.012z"/>
		</g>
	</g>
</g>
<g id="Layer_6">
	<g>
		<g>
			<path style="fill:#480000;" d="M616.263,64.8c-16.073,0-29.15-13.077-29.15-29.15S600.19,6.5,616.263,6.5
				s29.149,13.077,29.149,29.15S632.337,64.8,616.263,64.8z"/>
			<path style="fill:#480000;" d="M616.263,13c12.489,0,22.65,10.161,22.65,22.65c0,12.489-10.161,22.65-22.65,22.65
				c-12.489,0-22.65-10.161-22.65-22.65C593.613,23.161,603.774,13,616.263,13 M616.263,0c-19.689,0-35.65,15.961-35.65,35.65
				c0,19.689,15.961,35.65,35.65,35.65c19.689,0,35.65-15.961,35.65-35.65C651.913,15.961,635.952,0,616.263,0L616.263,0z"/>
		</g>
	</g>
	<g>
		<g>
			<path style="fill:#480000;" d="M616.263,1576.698c-16.073,0-29.15-13.077-29.15-29.15s13.077-29.149,29.15-29.149
				s29.149,13.076,29.149,29.149S632.337,1576.698,616.263,1576.698z"/>
			<path style="fill:#480000;" d="M616.263,1524.898c12.489,0,22.65,10.161,22.65,22.65c0,12.489-10.161,22.65-22.65,22.65
				c-12.489,0-22.65-10.161-22.65-22.65C593.613,1535.058,603.774,1524.898,616.263,1524.898 M616.263,1511.898
				c-19.689,0-35.65,15.961-35.65,35.65c0,19.689,15.961,35.65,35.65,35.65c19.689,0,35.65-15.961,35.65-35.65
				C651.913,1527.859,635.952,1511.898,616.263,1511.898L616.263,1511.898z"/>
		</g>
	</g>
	<g>
		<g>
			<rect x="611.763" y="70.688" style="fill:#480000;" width="9" height="1470.359"/>
			<polygon style="fill:#480000;" points="627.263,64.188 605.263,64.188 605.263,1547.547 627.263,1547.547 627.263,64.188 			"/>
		</g>
	</g>
	<g>
		<g>
			<path style="fill:#480000;" d="M875.67,2159.936c-16.821,0-30.506-13.685-30.506-30.506c0-34.066,12.935-55.626,20.646-65.445
				l3.46-4.408l-3.849-4.071c-8.081-8.549-16.399-17.052-24.723-25.273l-2.055-2.025c-11.854-11.649-24.077-23.085-36.335-33.994
				c-97.313-86.662-191.655-135.997-254.083-168.644c-87.306-45.653-180.164-82.934-275.992-110.807
				c-2.382-0.693-3.757-3.195-3.064-5.578c0.556-1.91,2.332-3.245,4.319-3.245c0.423,0,0.848,0.062,1.264,0.183
				c96.397,28.039,189.812,65.544,277.644,111.471c62.822,32.854,157.757,82.499,255.897,169.898
				c12.377,11.016,24.711,22.556,36.662,34.3l2.062,2.033c8.053,7.952,16.106,16.172,23.933,24.429l4.719,4.979l4.718-4.981
				c7.839-8.278,15.885-16.495,23.912-24.421c0.455-0.455,0.926-0.918,1.399-1.382l0.657-0.645
				c11.95-11.745,24.288-23.289,36.674-34.313c98.162-87.418,193.09-137.053,255.907-169.897
				c52.443-27.423,194.617-83.524,310.461-122.507c4.397-1.479,8.713-2.922,12.918-4.315l10.016-3.317l-7.468-7.453
				c-4.247-4.238-8.37-8.651-12.256-13.115c-6.236-7.143-12.095-14.677-17.42-22.399c-29.342-42.52-38.251-83.302-45.471-124.813
				c-26.442-152.257-27.973-226.872-28.024-229.974c-2.69-159.041,3.017-287.851,5.595-335.85
				c7.289-135.334,18.902-272.731,33.585-397.335c7.301-61.908,15.647-124.459,24.809-185.917c0.326-2.188,2.231-3.839,4.431-3.839
				c0.226,0,0.454,0.017,0.681,0.051c2.457,0.366,4.156,2.661,3.791,5.115c-9.151,61.392-17.486,123.852-24.771,185.643
				c-14.661,124.407-26.258,261.606-33.536,396.765c-2.574,47.892-8.271,176.425-5.585,335.213
				c0.015,0.771,1.711,77.824,27.895,228.586c7.04,40.485,15.704,80.222,44.011,121.243c5.128,7.438,10.779,14.704,16.796,21.596
				c6.211,7.137,12.949,14.026,20.02,20.472c0.866,0.789,1.729,1.564,2.591,2.328c0.77,0.683,1.534,1.351,2.296,2.01l6.293,5.326
				l-12.724,4.03c-8.032,2.612-16.629,5.46-25.599,8.479c-115.479,38.858-257.057,94.706-309.161,121.953
				c-62.423,32.638-156.756,81.961-254.093,168.643c-12.272,10.923-24.499,22.362-36.339,33.999l-0.773,0.758
				c-0.424,0.416-0.846,0.831-1.265,1.25c-8.315,8.211-16.643,16.729-24.721,25.282l-3.846,4.074l3.461,4.405
				c7.71,9.811,20.645,31.359,20.645,65.449C906.175,2146.251,892.491,2159.936,875.67,2159.936z M870.338,2072.934
				c-7.378,10.605-16.173,29.016-16.173,56.496c0,11.858,9.647,21.506,21.506,21.506c11.858,0,21.505-9.647,21.505-21.506
				c0-27.495-8.792-45.899-16.167-56.497l-5.336-7.667L870.338,2072.934z"/>
			<path style="fill:#480000;" d="M1490.11,360.259c-5.36,0-10.047,3.924-10.86,9.38c-9.172,61.529-17.527,124.146-24.835,186.114
				c-14.698,124.734-26.324,262.273-33.62,397.748c-2.582,48.061-8.298,177.04-5.604,336.308
				c0.053,3.127,1.609,78.328,28.12,230.978c7.348,42.251,16.435,83.787,46.522,127.389c5.464,7.924,11.479,15.658,17.868,22.978
				c4.001,4.597,8.204,9.094,12.567,13.448c-4.215,1.396-8.54,2.842-12.947,4.325c-116.104,39.069-258.707,95.354-311.399,122.907
				c-63.101,32.993-158.458,82.853-257.217,170.802c-12.46,11.091-24.874,22.705-36.906,34.53l-0.653,0.642
				c-0.49,0.48-0.979,0.96-1.417,1.398c-8.106,8.005-16.169,16.24-24.064,24.576c-7.881-8.314-15.95-16.551-24.086-24.586
				l-2.069-2.04c-12.028-11.82-24.442-23.435-36.895-34.519c-98.742-87.935-194.104-137.804-257.208-170.804
				c-88.212-46.126-182.029-83.793-278.845-111.954c-1.026-0.297-2.058-0.439-3.075-0.439c-4.768,0-9.161,3.121-10.56,7.929
				c-1.697,5.833,1.657,11.938,7.49,13.635c95.418,27.754,187.872,64.873,274.795,110.325
				c62.145,32.498,156.059,81.609,252.774,167.739c12.186,10.846,24.333,22.211,36.094,33.769l2.05,2.021
				c8.301,8.198,16.537,16.617,24.567,25.112c-8.875,11.303-22.033,34.035-22.033,69.46c0,20.405,16.601,37.006,37.006,37.006
				c20.405,0,37.005-16.601,37.005-37.006c0-35.445-13.154-58.167-22.034-69.466c8.046-8.521,16.283-16.944,24.593-25.151
				c0.436-0.437,0.877-0.868,1.318-1.302l0.677-0.664c11.766-11.563,23.912-22.928,36.105-33.78
				c96.732-86.144,190.64-135.246,252.782-167.737c51.86-27.119,193.009-82.783,308.223-121.553
				c8.921-3.003,17.499-5.845,25.488-8.443l23.945-7.585l-15.224-12.882c-0.742-0.643-1.487-1.294-2.239-1.961
				c-0.839-0.743-1.68-1.499-2.522-2.267c-6.886-6.276-13.443-12.981-19.502-19.942c-5.853-6.704-11.351-13.772-16.343-21.013
				c-27.559-39.938-36.045-78.921-42.956-118.664c-26.17-150.684-27.786-226.838-27.8-227.584
				c-2.682-158.565,3.006-286.927,5.576-334.753c7.271-135.017,18.855-272.074,33.501-396.354
				c7.28-61.745,15.606-124.139,24.745-185.446c0.896-6.009-3.249-11.606-9.258-12.502
				C1491.2,360.299,1490.652,360.259,1490.11,360.259L1490.11,360.259z M875.67,2144.436c-8.274,0-15.006-6.731-15.006-15.006
				c0-26.229,8.53-43.472,15.009-52.784c6.478,9.308,15.002,26.543,15.002,52.784
				C890.675,2137.705,883.944,2144.436,875.67,2144.436L875.67,2144.436z"/>
		</g>
	</g>
	<g>
		<g>
			<path style="fill:#480000;" d="M537.793,106.418l0.117,1401.384v0.485l0.029,0.485l0.568,9.337
				c0.458,29.12,4.219,55.929,21.865,106.231c30.012,85.508,85.423,142.451,140.833,191.249
				c48.171,42.418,103.882,84.756,165.587,125.84l8.867,5.904l8.867-5.904c61.706-41.085,117.417-83.423,165.586-125.84
				c55.415-48.795,110.831-105.736,140.834-191.252c17.721-50.513,21.438-77.337,21.871-106.6l0.002-0.118v-0.118v-9.7V182.136
				c24.456,23.791,49.879,46.716,75.898,68.429c43.648,36.431,90.079,70.407,138.155,101.102
				c-1.799,9.447-3.556,18.999-5.246,28.519c-22.999,129.63-27.87,221.46-35.88,400.529c-1.998,44.6-4.32,97.392-6.393,150.788
				c-3.282,84.567-5.625,162.774-7.162,239.09c-0.161,7.997-0.369,16.142-0.57,24.018c-0.883,34.624-1.796,70.427,0.895,106.088
				c1.379,18.266,2.046,36.928,2.692,54.976c0.857,23.964,1.743,48.745,4.296,73.431c0.962,9.303,1.832,18.844,2.674,28.072
				c4.646,50.929,9.449,103.593,32.288,153.025c8.624,18.66,19.762,36.26,33.252,52.571c-6.152,1.613-12.265,3.285-18.312,5.009
				c-60.1,17.119-135.948,50.004-225.438,97.741c-45.407,24.226-129.927,69.321-234.51,143.677
				c-22.249,15.821-44.378,32.243-65.761,48.799c-9.198,7.108-18.591,14.505-28.035,22.078c-9.213-7.389-18.6-14.787-28.024-22.084
				c-21.588-16.696-43.715-33.113-65.768-48.794c-104.633-74.391-189.127-119.463-234.52-143.677
				c-89.475-47.732-165.323-80.617-225.433-97.74c-6.942-1.979-13.967-3.888-21.039-5.718c1.908-1.982,3.77-4.001,5.583-6.055
				c38.184-43.316,46.404-91.991,49.914-112.774c39.581-234.17,50.43-450.601,50.535-452.76c1.637-33.684,2.981-60.565,4.166-84.281
				c3.93-78.633,5.401-108.055,6.34-163.688c0.922-55.141-0.082-108.109-2.085-213.635l-0.016-0.836
				c-0.09-4.726-0.175-9.455-0.26-14.187c-1.114-62.052-2.267-126.218-14.894-188.745c-7.562-37.469-17.951-68.989-30.877-93.685
				c-21.374-40.834-49.202-62.117-82.712-63.261c-1.084-0.037-2.185-0.056-3.272-0.056c-23.78,0.001-44.353,8.918-59.617,16.685
				c-65.375,33.251-115.917,82.125-142.315,137.618c-21.762,45.749-19.086,100.531,6.983,142.963
				c12.36,20.135,30.261,32.156,47.885,32.156c3.782,0,7.547-0.545,11.179-1.618c12.672-3.73,23.23-13.9,28.967-27.903
				c4.754-11.603,6.81-23.7,6.168-36.169c1.507,0.61,2.998,1.259,4.473,1.948c22.629,10.574,34.804,26.134,41.032,37.325
				c22.39,40.234,1.937,83.26,1.746,83.652l-0.013,0.026l-0.013,0.026c-17.699,35.895-57.356,51.962-88.807,51.962
				c-1.081,0-2.167-0.019-3.227-0.056c-60.813-2.152-97.121-66.549-103.783-79.438c-11.038-21.351-17.049-45.475-17.865-71.703
				c-0.746-23.937,2.795-49.567,10.524-76.178c6.998-24.094,17.185-48.292,30.28-71.923c11.768-21.236,25.601-41.334,40.003-58.122
				c23.451-27.341,53.607-52.146,89.631-73.723c25.582-15.323,46.859-24.618,57.26-28.793c7.594-3.045,11.09-4.158,18.749-6.595
				c9.281-2.953,24.815-7.896,60.313-20.428c85.048-30.027,113.547-43.05,139.036-57.881c14.809-8.626,39.595-23.063,65.451-45.867
				C530.885,112.947,534.37,109.728,537.793,106.418 M553.79,65.012c-13.89,17.47-27.02,30.23-37.03,39.06
				c-24.23,21.37-47.64,35.14-62.92,44.04c-22.96,13.36-48.79,25.72-136.31,56.62c-64.13,22.64-61.61,20.01-79.69,27.26
				c-12.98,5.21-94.73,38.92-153.08,106.95c-58.03,67.64-116.31,196.46-65.01,295.69c5.52,10.68,45.66,85.54,117.43,88.08
				c1.252,0.044,2.521,0.066,3.793,0.066c37.314,0,82.52-19.033,103.157-60.886c1.02-2.05,24.26-51.21-2.09-98.56
				c-15.85-28.48-40.92-40.62-48.24-44.04c-11.23-5.25-22.1-8-31.81-9.29c5.76,16.67,6.78,34.39-0.41,51.94
				c-3.45,8.42-9.95,16.05-18.68,18.62c-2.234,0.659-4.462,0.966-6.661,0.966c-13.808,0-26.598-12.061-34.249-24.526
				c-23.8-38.74-25.31-87.484-6.17-127.72c26.52-55.75,77.12-100.73,135.12-130.23c16.696-8.496,33.786-14.946,52.364-14.946
				c0.906,0,1.813,0.015,2.726,0.046c62.73,2.14,88.67,95.66,98.45,144.12c13.28,65.76,13.57,133.26,14.84,200.07
				c2.01,105.94,3.02,158.9,2.1,213.9c-1.21,71.61-3.27,98.92-10.49,247.46c0,0-10.45,214.93-50.33,450.87
				c-3.57,21.14-11.69,65.78-46.14,104.86c-8.89,10.07-18.22,18.3-27.21,25c15.82,3.52,32.64,7.71,50.28,12.74
				c24.82,7.07,93.68,27.86,222.29,96.47c48.61,25.93,131.06,70.28,232.78,142.6c20.56,14.62,42.39,30.73,65.25,48.41
				c12.32,9.54,24.94,19.53,37.81,29.99c12.88-10.46,25.5-20.46,37.82-29.98c22.86-17.7,44.69-33.8,65.25-48.42
				c101.72-72.32,184.17-116.67,232.77-142.6c128.62-68.61,197.47-89.4,222.29-96.47c15.33-4.37,30.04-8.11,44.01-11.33
				c-18.39-17.97-35.92-40.46-48.81-68.35c-25.744-55.72-27.415-116.497-33.571-176.03c-4.414-42.679-3.718-85.165-6.948-127.965
				c-3.237-42.888-1.148-85.646-0.283-128.579c1.604-79.619,4.065-159.218,7.154-238.792c1.95-50.239,4.138-100.467,6.389-150.693
				c7.93-177.27,12.76-269.43,35.65-398.45c2.44-13.74,4.88-26.77,7.27-39c-47.58-29.83-96.63-64.76-145.68-105.7
				c-37.95-31.67-71.89-63.61-102.15-94.81v1364.33v9.7c-0.42,28.43-4.05,53.31-20.97,101.54
				c-27.43,78.18-76.21,131.62-136.31,184.54c-52.5,46.23-109.03,88.01-163.88,124.53c-54.85-36.52-111.38-78.3-163.88-124.53
				c-60.09-52.92-108.87-106.36-136.31-184.54c-16.92-48.23-20.55-73.11-20.97-101.54l-0.59-9.7L553.79,65.012L553.79,65.012z"/>
		</g>
	</g>
</g>
</svg>
