<?xml version="1.0" encoding="iso-8859-1"?>
<!-- Generator: Adobe Illustrator 24.0.1, SVG Export Plug-In . SVG Version: 6.00 Build 0)  -->
<svg version="1.1" xmlns="http://www.w3.org/2000/svg" xmlns:xlink="http://www.w3.org/1999/xlink" x="0px" y="0px"
	 viewBox="0 0 1857.796 2178.133" style="enable-background:new 0 0 1857.796 2178.133;" xml:space="preserve">
<g id="Layer_5">
	<g>
		<linearGradient id="SVGID_1_" gradientUnits="userSpaceOnUse" x1="813.7396" y1="1486.4991" x2="1166.0503" y2="1486.4991">
			<stop  offset="0" style="stop-color:#8B1D1A"/>
			<stop  offset="0.25" style="stop-color:#550000"/>
			<stop  offset="0.5" style="stop-color:#3A0000"/>
			<stop  offset="0.75" style="stop-color:#1E0000"/>
			<stop  offset="1" style="stop-color:#000000"/>
		</linearGradient>
		<rect x="813.74" y="1465.121" style="fill:url(#SVGID_1_);" width="352.311" height="42.755"/>
	</g>
	<linearGradient id="SVGID_2_" gradientUnits="userSpaceOnUse" x1="471.6057" y1="1356.8075" x2="510.4946" y2="79.0298">
		<stop  offset="0" style="stop-color:#8B1D1A"/>
		<stop  offset="0.25" style="stop-color:#550000"/>
		<stop  offset="0.5" style="stop-color:#3A0000"/>
		<stop  offset="0.75" style="stop-color:#1E0000"/>
		<stop  offset="1" style="stop-color:#000000"/>
	</linearGradient>
	<path style="fill:url(#SVGID_2_);" d="M632.023,1681.122c-0.61,23.32,1.63,61.87,20.27,103.46c6.57,14.65,17.44,38.91,40.54,61.51
		c7.45,7.28,10.83,9.17,31.46,27.26c0,0,19.74,16.95,39.15,35.65c20,19.28,54.26,52.56,90.87,101.36
		c14.02,18.68,30.25,42.14,46.83,70.35v-966.5l39.15-38.45l2.74,1102.37h-36.05c-19.88-45.66-46.25-93.94-81.33-141.9
		c-66.03-90.26-137.09-144.08-181.05-176.86c-20.86-15.55-62.6-40.66-146.1-90.87c-35.72-21.49-76.05-45.23-131.61-63.09
		c16.24-5.03,36.79-14.48,54.72-32.68c19.97-20.26,28.72-42.26,35.25-60.81c6.36-18.07,11.82-38.03,14.28-78.3
		c1.82-29.69,2.79-72.52-0.09-124.93l-0.5-5.09v-958.94v-24.98c0-0.23-0.01-0.47-0.05-0.69c-1.11-8.31-3.44-16.37-7.32-23.95
		c-12.89-25.24-35.36-43.83-62.25-52.26c-32.88-10.32-65.33-14.97-99.59-7.78c-48.1,10.09-99.47,37.16-134.54,71.74
		c-19.71,19.42-34.84,44.66-37.35,72.22c-2.57,28.11,8.4,56.53,26.68,78.04c15.84,18.64,37.28,32.67,60.99,38.68
		c30.82,7.82,68.16,1.75,91.95-20.43c19.49-18.17,29.39-47.27,27.45-79.42c8.34,5.65,13.68,11.16,16.59,14.42
		c45.37,50.94,10.87,131.74,6.99,140.5c-15.25,34.32-39.02,54.25-49.63,62.21c-38.13,28.59-78.01,31.28-94.37,32.16
		c-95.17,5.12-159.06-65.91-164.97-72.7c-11.94-13.71-48.83-57.34-51.03-122.33c-2.73-80.32,49.5-134.73,67.8-153.79
		c51.3-53.43,111.4-71.23,163.57-84.08c41.44-10.21,110.51-23.12,193.24-1.2c34.48,9.14,98.87,27.15,150.29,87.38
		c39.98,46.83,56.85,97.95,56.93,124.52v1150.51L632.023,1681.122z"/>
	<linearGradient id="SVGID_3_" gradientUnits="userSpaceOnUse" x1="1385.3273" y1="1384.6165" x2="1424.2162" y2="106.8387">
		<stop  offset="0" style="stop-color:#8B1D1A"/>
		<stop  offset="0.25" style="stop-color:#550000"/>
		<stop  offset="0.5" style="stop-color:#3A0000"/>
		<stop  offset="0.75" style="stop-color:#1E0000"/>
		<stop  offset="1" style="stop-color:#000000"/>
	</linearGradient>
	<path style="fill:url(#SVGID_3_);" d="M1510.483,79.572c2.47-1.75,4.98-3.47,7.52-5.17c89.29-59.79,189.85-71.54,263.3-69.52
		c-39.79,20.66-91.26,57.82-121.75,119.85c-7.29,14.82-12.57,29.33-16.38,43.05c-7.76-1.62-15.59-3.05-23.46-4.25
		c-19.58-2.99-42.19-4.97-65.01,6.29c-23.51,11.6-34.73,31.07-36.7,34.6c-3.53,6.32-5.92,12.53-7.52,18.31v0.48v1180.39l-0.5,5.09
		c-2.88,52.41-1.91,95.24-0.09,124.93c2.46,40.27,7.92,60.23,14.28,78.3c6.53,18.55,15.28,40.55,35.25,60.81
		c17.93,18.2,38.48,27.65,54.72,32.68c-55.56,17.86-95.89,41.6-131.61,63.09c-83.5,50.21-125.24,75.32-146.1,90.87
		c-43.96,32.78-115.02,86.6-181.05,176.86c-35.08,47.96-61.45,96.24-81.33,141.9h-36.05l2.74-1102.37l39.15,38.45v966.5
		c16.58-28.21,32.81-51.67,46.83-70.35c36.61-48.8,70.87-82.08,90.87-101.36c19.41-18.7,39.15-35.65,39.15-35.65
		c20.63-18.09,24.01-19.98,31.46-27.26c23.1-22.6,33.97-46.86,40.54-61.51c18.64-41.59,20.88-80.14,20.27-103.46l0.09-7.69V282.063
		c8.4-20.42,19.34-42.85,33.64-66.11C1389.583,204.832,1434.643,132.972,1510.483,79.572z"/>
</g>
<g id="Layer_7">
	<g>
		<path style="fill:#BFCBC2;" d="M550.344,667.3c0,0,8.922,114.503,8.922,255.75c0,141.247-8.922,255.75-8.922,255.75
			s-8.922-114.503-8.922-255.75C541.422,781.803,550.344,667.3,550.344,667.3z"/>
	</g>
	<g>
		<path style="fill:#BFCBC2;" d="M1423.328,555.24c0,0,10.813,138.78,10.813,309.972c0,171.193-10.813,309.972-10.813,309.972
			s-10.813-138.779-10.813-309.972C1412.515,694.02,1423.328,555.24,1423.328,555.24z"/>
	</g>
	<g>
		<path style="fill:#BFCBC2;" d="M1371.853,620.253c54.188,27.086,74.347,115.228,3.593,139.492
			C1426.251,729.953,1413.8,657.825,1371.853,620.253z"/>
	</g>
	<g>
		<path style="fill:#BFCBC2;" d="M1482.883,595.324c-65.243,57.241-70.6,93.928-7.952,146.213
			C1386.314,701.077,1409.381,629.198,1482.883,595.324z"/>
	</g>
	<g>
		<path style="fill:#BFCBC2;" d="M1439.969,606.196c-50.284,42.417-94.443-77.237-44.482-102.068
			c75.635-44.423,115.53,83.69,29.575,85.739c21.089-3.098,42.734-28.084,32.174-51.873c-12.659-30.298-51.17-28.59-63.368-0.58
			C1384.917,562.19,1401.92,627.98,1439.969,606.196z"/>
	</g>
	<g>
		<path style="fill:#BFCBC2;" d="M1396.583,434.211c-0.906-61.798,83.801-52.781,88.286,5.812
			c-0.432,78.412-102.604,100.945-107.165,10.227c30.934,86.829,93.344,24.284,87.279-13.094
			C1459.185,394.882,1403.034,393.36,1396.583,434.211z"/>
	</g>
	<g>
		<path style="fill:#BFCBC2;" d="M1476.085,238.815c68.497,137.818-85.883,101.219-101.99,198.908
			C1379.706,311.317,1512.937,377.255,1476.085,238.815z"/>
	</g>
	<g>
		<path style="fill:#BFCBC2;" d="M1482.401,258.566c-1.828-37.22-49.908-39.877-67.261-6.962
			c-33.225,63.394,16.41,90.243,56.579,47.997c-35.689,63.293-106.08,23.987-78.84-42.402
			C1416.306,194.865,1491.674,210.003,1482.401,258.566z"/>
	</g>
	<g>
		<path style="fill:#BFCBC2;" d="M1493.731,231.599c-9.241-27.419-40.249-42.907-65.469-36.98
			C1455.285,170.451,1500.657,194.593,1493.731,231.599z"/>
	</g>
	<g>
		<path style="fill:#BFCBC2;" d="M1537.392,165.824c-18.607-23.991-53.684-25.35-73.785-7.862
			C1476.961,122.373,1531.484,126.775,1537.392,165.824z"/>
	</g>
	<g>
		<path style="fill:#BFCBC2;" d="M1631.407,117.423c-7.253-69.949-105.591-29.452-53.593,26.158
			c-40.967-7.371-44.555-66.431-7.127-82.585C1608.107,42.35,1650.216,79.337,1631.407,117.423z"/>
	</g>
	<g>
		<path style="fill:#BFCBC2;" d="M287.705,612.403c-44.516,7.654-5.808,66.817,42.856,26.405
			C277.132,729.276,211.415,597.292,287.705,612.403z"/>
	</g>
	<g>
		<path style="fill:#BFCBC2;" d="M98.914,488.943c28.35,83.724-120.777,42.84-50.385-27.077
			C24.805,514.364,96.287,543.504,98.914,488.943z"/>
	</g>
	<g>
		<path style="fill:#BFCBC2;" d="M182.729,614.102c68.063,62.648,1.793,123.674-34.379,82.493
			c-14.704-25.091-12.43-54.782-21.345-83.584c-11.966-33.408-65.565-2.092-37.229,57.009
			c-55.846-65.713,29.7-127.075,59.227-64.307c10.275,26,8.34,52.316,18.581,79.016C209.513,705.56,200.959,634.251,182.729,614.102
			z"/>
	</g>
	<g>
		<path style="fill:#BFCBC2;" d="M9.957,546.431c42.531-17.823,84.821,47.925,34.07,77.203
			C62.3,597.061,52.285,554.018,9.957,546.431z"/>
	</g>
	<g>
		<path style="fill:#BFCBC2;" d="M115.385,515.219c-18.976,14.446-18.369,51.175,15.803,57.371
			C94.026,586.553,70.922,526.38,115.385,515.219z"/>
	</g>
	<g>
		<path style="fill:#BFCBC2;" d="M229.605,647.691c14.961,21.927,12.52,57.876-9.978,76.842
			C226.547,701.424,230.619,674.014,229.605,647.691z"/>
	</g>
	<g>
		<path style="fill:#BFCBC2;" d="M316.793,664.932c-1.897,57.153-97.208,54.885-85.628-12.069
			C239.797,687.337,289.061,707.141,316.793,664.932z"/>
	</g>
	<g>
		<path style="fill:#BFCBC2;" d="M474.414,606.163c81.984-13.217,112.638,114.442,20.257,132.57
			C538.68,705.326,539.422,631.582,474.414,606.163z"/>
	</g>
	<g>
		<path style="fill:#BFCBC2;" d="M587.456,497.353c-60.111-46.613-97.778,102.122-15.734,72.556
			c-28.296,42.971-85.705-0.239-75.91-43.206C504.458,471.878,573.628,452.232,587.456,497.353z"/>
	</g>
	<g>
		<path style="fill:#BFCBC2;" d="M506.885,437.596c-6.7-37.1,58.428-40.736,57.545,10.443
			c-3.364,42.954-65.237,56.443-65.911,18.575c14.149,27.744,55.628-10.335,40.994-33.648
			C534.184,420.802,512.238,419.438,506.885,437.596z"/>
	</g>
	<g>
		<path style="fill:#BFCBC2;" d="M573.739,744.985c2.042-45.369-12.061-98.521-37.677-137.815
			C586.953,631.052,604.191,701.223,573.739,744.985z"/>
	</g>
	<g>
		<path style="fill:#BFCBC2;" d="M600.003,575.729c38.973,42.01-42.184,97.773-62.857,32.141
			C557.949,634.778,609.602,623.696,600.003,575.729z"/>
	</g>
	<g>
		<path style="fill:#BFCBC2;" d="M602.858,728.271c13.112,77.269-89.823,104.578-95.587,167.036
			C479.255,815.21,587.117,783.075,602.858,728.271z"/>
	</g>
	<g>
		<path style="fill:#BFCBC2;" d="M603.746,925.757c-25.555-94.128-113.924-112.537-85.911-167.533
			C514.946,807.132,627.042,814.4,603.746,925.757z"/>
	</g>
	<path style="fill:#BFCBC2;" d="M572.033,531.744c-0.793-16.865-24.635-16.107-25.304,0.001
		C547.522,548.608,571.364,547.851,572.033,531.744z"/>
	<path style="fill:#BFCBC2;" d="M1443.209,448.602c-1.568-25.027-35.567-22.505-36.148,0.001
		C1408.628,473.63,1442.628,471.107,1443.209,448.602z"/>
	<path style="fill:#BFCBC2;" d="M1459.476,278.705c-1.568-25.027-35.567-22.505-36.148,0.001
		C1424.895,303.732,1458.894,301.21,1459.476,278.705z"/>
	<path style="fill:#BFCBC2;" d="M1578.803,114.845c1.568-25.027,35.567-22.505,36.148,0.001
		C1613.383,139.872,1579.384,137.35,1578.803,114.845z"/>
	<path style="fill:#BFCBC2;" d="M98.489,632.959c0.288-11.398,17.362-11.911,18.074,0.001
		C116.276,644.357,99.202,644.87,98.489,632.959z"/>
</g>
<g id="Layer_4">
	<g>
		<g>
			<polygon style="fill:#FFB400;" points="1166.05,1465.121 813.739,1465.121 813.739,1507.877 1166.05,1507.877 1166.05,1465.121 
							"/>
		</g>
	</g>
	<g>
		<path style="fill:#FFB400;" d="M491.743,374.248c21.73,12.526,40.736,28.249,56.642,46.88
			c19.983,23.407,31.574,45.923,37.779,60.69c7.88,18.756,10.729,33.531,10.77,41.104v1150.51v0.205l0.003,0.205l0.082,7.044
			c-0.972,40.976,7.093,81.768,23.355,118.053c0.495,1.104,1.02,2.274,1.578,3.506c-24.693-15.399-58.571-35.771-105.405-63.933
			c-19.36-11.648-42.951-25.84-71.65-39.566c0.552-0.544,1.099-1.092,1.644-1.644c23.75-24.095,34.864-49.689,43.338-73.76
			c7.871-22.364,13.638-45.851,16.199-87.778c1.687-27.513,3.042-72.226-0.077-128.992l-0.041-0.752l-0.073-0.75l-0.333-3.385
			V444.663v-24.98c0-1.973-0.135-3.859-0.413-5.729c-1.709-12.468-5.342-24.193-10.787-34.83
			C493.513,377.478,492.641,375.851,491.743,374.248 M141.668,382.375c-27.348,27.175-44.057,60.32-47.07,93.401
			c-3.298,36.072,9.41,73.939,34.864,103.891c20.885,24.577,48.963,42.313,79.053,49.941c11.322,2.873,23.144,4.329,35.139,4.329
			c34.191,0,66.734-12.059,89.286-33.084c2.519-2.349,4.925-4.817,7.216-7.396c-2.937,21.757-10.532,39.685-12.037,43.084
			c-10.704,24.089-26.926,39.63-38.642,48.42c-30.41,22.801-62.989,24.554-75.254,25.213c-2.63,0.141-5.295,0.213-7.921,0.213
			c-30.709,0-61.006-9.552-90.052-28.389c-23.171-15.028-37.194-30.804-38.724-32.561c-4.518-5.188-15.1-17.339-24.633-35.333
			c-11.061-20.878-17.053-42.813-17.811-65.199c-2.228-65.561,41.577-111.185,58.067-128.361
			C108.498,404.558,124.817,392.205,141.668,382.375 M332.567,299.035c-41.596,0-76.295,7.078-101.094,13.188
			c-52.17,12.85-112.27,30.65-163.57,84.08c-18.3,19.06-70.53,73.47-67.8,153.79c2.2,64.99,39.09,108.62,51.03,122.33
			c5.705,6.554,65.432,72.964,155.169,72.964c3.229,0,6.496-0.086,9.801-0.264c16.36-0.88,56.24-3.57,94.37-32.16
			c10.61-7.96,34.38-27.89,49.63-62.21c3.88-8.76,38.38-89.56-6.99-140.5c-2.91-3.26-8.25-8.77-16.59-14.42
			c1.94,32.15-7.96,61.25-27.45,79.42c-17.238,16.072-41.587,23.684-65.419,23.684c-9.057,0-18.044-1.101-26.531-3.254
			c-23.71-6.01-45.15-20.04-60.99-38.68c-18.28-21.51-29.25-49.93-26.68-78.04c2.51-27.56,17.64-52.8,37.35-72.22
			c35.07-34.58,86.44-61.65,134.54-71.74c11.39-2.39,22.577-3.472,33.649-3.472c22.232,0,43.992,4.363,65.941,11.252
			c26.89,8.43,49.36,27.02,62.25,52.26c3.88,7.58,6.21,15.64,7.32,23.95c0.04,0.22,0.05,0.46,0.05,0.69v24.98v958.94l0.5,5.09
			c2.88,52.41,1.91,95.24,0.09,124.93c-2.46,40.27-7.92,60.23-14.28,78.3c-6.53,18.55-15.28,40.55-35.25,60.81
			c-17.93,18.2-38.48,27.65-54.72,32.68c55.56,17.86,95.89,41.6,131.61,63.09c83.5,50.21,125.24,75.32,146.1,90.87
			c43.96,32.78,115.02,86.6,181.05,176.86c35.08,47.96,61.45,96.24,81.33,141.9h36.05l-2.74-1102.37l-39.15,38.45v966.5
			c-16.58-28.21-32.811-51.67-46.83-70.35c-36.61-48.801-70.87-82.08-90.87-101.36c-19.41-18.7-39.15-35.65-39.15-35.65
			c-20.63-18.09-24.01-19.98-31.46-27.26c-23.1-22.6-33.97-46.86-40.54-61.51c-18.64-41.59-20.88-80.14-20.27-103.46l-0.09-7.69
			V522.922c-0.08-26.57-16.95-77.69-56.93-124.52c-51.42-60.23-115.81-78.24-150.29-87.38
			C391.493,302.221,360.478,299.035,332.567,299.035L332.567,299.035z"/>
	</g>
	<g>
		<path style="fill:#FFB400;" d="M1667.74,49.64c-14.761,17.079-28.387,36.848-39.592,59.644c-3.034,6.168-5.848,12.47-8.434,18.881
			c-7.477-1.025-16.471-1.959-25.982-1.959c-20.005,0-37.837,4-54.515,12.23c-30.476,15.037-46.361,39.228-51.77,48.92
			c-4.586,8.212-8.185,16.973-10.695,26.04l-1.269,4.583v4.755v0.48v1178.673l-0.333,3.385l-0.074,0.75l-0.041,0.752
			c-3.12,56.766-1.764,101.479-0.078,128.984c2.562,41.935,8.329,65.422,16.201,87.787c8.472,24.069,19.586,49.662,43.332,73.752
			c0.547,0.555,1.096,1.104,1.65,1.65c-28.698,13.725-52.287,27.917-71.643,39.562c-46.836,28.164-80.717,48.537-105.411,63.937
			c0.565-1.247,1.096-2.431,1.596-3.548c16.243-36.241,24.307-77.03,23.336-118.003l0.083-7.052l0.002-0.205v-0.205V289.123
			c8.14-18.919,17.695-37.337,28.452-54.833c4.29-6.975,16.3-25.646,35.117-48.322c25.648-30.908,53.56-57.076,82.961-77.777
			l0.043-0.03l0.043-0.03c2.094-1.483,4.302-3.001,6.758-4.645c34.561-23.143,73.993-40.254,117.201-50.859
			C1658.996,51.566,1663.35,50.571,1667.74,49.64 M1766.036,4.672c-71.736,0.001-164.786,13.987-248.032,69.73
			c-2.541,1.7-5.051,3.42-7.52,5.17c-75.84,53.4-120.9,125.26-127.74,136.38c-14.301,23.26-25.24,45.69-33.64,66.11v1391.37
			l-0.09,7.69c0.61,23.32-1.63,61.87-20.27,103.46c-6.57,14.65-17.44,38.91-40.541,61.51c-7.449,7.28-10.83,9.17-31.459,27.26
			c0,0-19.74,16.95-39.15,35.65c-20,19.28-54.26,52.56-90.87,101.36c-14.021,18.68-30.25,42.14-46.83,70.35v-966.5l-39.15-38.45
			l-2.74,1102.37h36.05c19.88-45.66,46.25-93.94,81.33-141.9c66.03-90.26,137.09-144.08,181.05-176.86
			c20.86-15.55,62.6-40.66,146.1-90.87c35.72-21.49,76.05-45.23,131.61-63.09c-16.24-5.03-36.79-14.48-54.72-32.68
			c-19.97-20.26-28.72-42.26-35.25-60.81c-6.36-18.07-11.82-38.03-14.28-78.3c-1.82-29.69-2.79-72.52,0.09-124.93l0.5-5.09V223.212
			v-0.48c1.6-5.78,3.99-11.99,7.52-18.31c1.97-3.53,13.189-23,36.699-34.6c13.266-6.545,26.459-8.617,39.028-8.617
			c9.053,0,17.784,1.075,25.982,2.327c7.87,1.2,15.7,2.63,23.46,4.25c3.81-13.72,9.09-28.23,16.38-43.05
			c30.49-62.03,81.96-99.19,121.75-119.85C1776.332,4.746,1771.244,4.672,1766.036,4.672L1766.036,4.672z"/>
	</g>
</g>
<g id="Layer_6">
	<g>
		<g>
			<circle style="fill:#480000;" cx="989.895" cy="658.899" r="29.15"/>
			<path style="fill:#480000;" d="M989.895,636.249c12.489,0,22.65,10.161,22.65,22.65c0,12.489-10.161,22.65-22.65,22.65
				c-12.489,0-22.65-10.161-22.65-22.65C967.245,646.409,977.406,636.249,989.895,636.249 M989.895,623.249
				c-19.689,0-35.65,15.961-35.65,35.65c0,19.689,15.961,35.65,35.65,35.65c19.689,0,35.65-15.961,35.65-35.65
				C1025.545,639.21,1009.584,623.249,989.895,623.249L989.895,623.249z"/>
		</g>
	</g>
	<g>
		<g>
			<path style="fill:#480000;" d="M989.895,1949.478c-16.073,0-29.15-13.077-29.15-29.15s13.077-29.149,29.15-29.149
				s29.15,13.076,29.15,29.149S1005.968,1949.478,989.895,1949.478z"/>
			<path style="fill:#480000;" d="M989.895,1897.678c12.489,0,22.65,10.161,22.65,22.65c0,12.489-10.161,22.65-22.65,22.65
				c-12.489,0-22.65-10.161-22.65-22.65C967.245,1907.839,977.406,1897.678,989.895,1897.678 M989.895,1884.678
				c-19.689,0-35.65,15.961-35.65,35.65c0,19.689,15.961,35.65,35.65,35.65c19.689,0,35.65-15.961,35.65-35.65
				C1025.545,1900.639,1009.584,1884.678,989.895,1884.678L989.895,1884.678z"/>
		</g>
	</g>
	<g>
		<g>
			<rect x="985.395" y="665.399" style="fill:#480000;" width="9" height="1248.429"/>
			<polygon style="fill:#480000;" points="1000.895,658.899 978.895,658.899 978.895,1920.328 1000.895,1920.328 1000.895,658.899 
							"/>
		</g>
	</g>
	<g>
		<g>
			<path style="fill:#480000;" d="M318.533,1689.544c-2.199,0-4.061-1.581-4.425-3.759c-0.198-1.186,0.077-2.377,0.775-3.355
				c0.698-0.979,1.735-1.627,2.92-1.825c9.697-1.624,25.92-4.342,41.988-14.449c25.421-15.991,36.952-38.153,43.841-51.395
				c12.81-24.619,16.984-45.088,21.497-81.658c3.011-24.403,5.552-51.431,3.773-83.709l-0.011-0.362l-0.087-7.058l0-756.073
				l-11.255,12.077c-14.197,15.235-36.256,37.318-63.789,53.143c-44.931,25.823-94.322,41.663-139.074,44.602
				c-3.807,0.25-7.707,0.376-11.591,0.376c-47.803,0.001-97.187-18.449-135.491-50.619c-1.9-1.596-2.148-4.44-0.552-6.34
				c0.857-1.02,2.115-1.605,3.451-1.605c0.745,0,1.852,0.183,2.89,1.055c36.708,30.831,83.941,48.514,129.587,48.514
				c3.722,0,7.461-0.122,11.116-0.362c42.78-2.809,92.051-18.636,135.179-43.424c32.879-18.897,58.034-47.116,76.4-67.72
				l0.189-0.212c1.402-1.572,2.764-3.101,4.088-4.577l7.851-8.756l0.001,780.017l0.043,2.143l0.042,4.718l0.008,0.147
				c1.798,32.906-0.781,60.36-3.837,85.128c-3.938,31.909-7.853,56.663-22.445,84.71c-6.832,13.129-19.547,37.567-47.033,54.858
				c-17.6,11.071-35.615,14.087-45.293,15.706C319.035,1689.522,318.782,1689.544,318.533,1689.544z"/>
			<path style="fill:#480000;" d="M444.303,645.066l-19.19,21.402c-1.388,1.547-2.817,3.151-4.291,4.804
				c-18.072,20.273-42.822,48.038-74.787,66.41c-42.297,24.311-90.543,39.828-132.366,42.574c-3.543,0.233-7.106,0.348-10.689,0.348
				c-43.724,0-89.886-17.158-125.408-46.992c-2.062-1.731-4.572-2.576-7.069-2.576c-3.137,0-6.253,1.335-8.429,3.925
				c-3.907,4.652-3.303,11.591,1.349,15.498c39.424,33.111,90.827,52.142,139.672,52.142c4.024,0,8.036-0.129,12.016-0.391
				c45.724-3.002,96.113-19.145,141.888-45.453c26.658-15.322,48.151-35.939,65.305-54.347v739.644l0.088,7.115l0.016,0.51
				c1.759,31.802-0.753,58.507-3.73,82.628c-4.413,35.764-8.465,55.724-20.812,79.454c-6.585,12.656-17.607,33.84-41.536,48.893
				c-14.966,9.415-30.387,11.997-39.6,13.54c-5.992,1.003-10.036,6.674-9.033,12.665c0.9,5.377,5.559,9.186,10.836,9.186
				c0.603,0,1.215-0.05,1.83-0.153c10.129-1.695,28.982-4.853,47.681-16.615c28.978-18.229,42.223-43.685,49.338-57.36
				c15.096-29.014,19.108-54.325,23.13-86.914c3.093-25.069,5.703-52.868,3.876-86.278l-0.042-4.643l-0.043-2.143V645.066
				L444.303,645.066z"/>
		</g>
	</g>
	<g>
		<g>
			<path style="fill:#480000;" d="M907.36,2016.152c-70.32-81.078-123.985-134.979-159.507-160.206
				c-27.88-19.8-38.654-33.177-58.214-57.462c-11.62-14.426-19.561-26.54-23.252-42.349c-1.966-8.418-7.949-34.034,6.914-56.623
				c17.918-27.232,51.774-28.612,58.378-28.612c0.835,0,1.36,0.02,1.516,0.027c24.795,1.172,53.861,16.357,61.438,43.113
				c1.8,6.355,4.946,22.83-4.688,38.531c-2.688,4.382-12.889,18.846-31.276,20.99c-1.905,0.222-3.787,0.335-5.593,0.335
				c-11.548,0-18.963-4.618-23.149-8.492c-13.16-12.181-10.132-29.513-9.744-31.448c1.969-9.831,7.867-16.284,11.207-19.256
				c1.057-0.94,2.208-1.138,2.986-1.138c1.305,0,2.501,0.535,3.367,1.509c1.649,1.854,1.483,4.704-0.371,6.354
				c-2.499,2.224-6.91,7.038-8.365,14.299l-0.021,0.113c-0.262,1.439-2.291,14.313,7.054,22.962
				c4.33,4.008,10.185,6.126,16.932,6.126c2.059,0,3.745-0.196,4.651-0.302c14.36-1.675,22.499-13.25,24.65-16.758
				c7.991-13.022,4.852-27.306,3.7-31.373c-6.349-22.424-32.15-35.581-53.203-36.576c-0.076-0.003-0.474-0.02-1.179-0.02
				c-5.779,0-35.39,1.185-50.772,24.562c-12.738,19.361-7.783,40.572-5.667,49.63c2.928,12.542,8.552,22.681,21.491,38.743
				c20.292,25.196,29.554,36.695,56.421,55.776c34.481,24.488,85.549,75.279,151.788,150.966c0.007,0.459-0.062,1.237-0.111,1.789
				c-0.244,2.743-0.652,7.336,2.761,11.273c0,0,1.066,1.226,1.328,1.531C908.208,2014.798,907.729,2015.47,907.36,2016.152z"/>
			<path style="fill:#480000;" d="M731.68,1664.4c-8.561,0-44.271,1.846-63.809,31.539c-16.397,24.921-9.937,52.584-7.813,61.674
				c3.972,17.012,12.325,29.809,24.515,44.943c19.925,24.738,30.901,38.366,59.517,58.689
				c35.182,24.985,88.621,78.721,158.834,159.712c2.175,2.51,5.237,3.795,8.316,3.795c2.554,0,0.294-4.363,2.375-6.167
				c4.59-3.979,2.779-5.616-1.201-10.206c-3.196-3.686,0.775-9.149-2.354-12.725c-66.742-76.284-118.261-127.51-153.233-152.346
				c-26.132-18.559-35.217-29.838-55.123-54.554c-12.252-15.211-17.544-24.67-20.224-36.145c-1.926-8.244-6.435-27.552,4.768-44.578
				c13.561-20.609,40.191-21.635,45.342-21.635c0.539,0,0.843,0.011,0.872,0.012c18.787,0.888,41.734,12.354,47.255,31.854
				c0.97,3.425,3.621,15.435-2.986,26.202c-1.765,2.876-8.413,12.365-19.859,13.7c-0.837,0.097-2.219,0.259-3.902,0.259
				c-3.595,0-8.562-0.735-12.517-4.396c-6.929-6.412-5.143-16.649-5.074-17.027c1.083-5.405,4.419-9.036,6.312-10.72
				c4.539-4.038,4.945-10.991,0.907-15.53c-2.174-2.443-5.191-3.689-8.223-3.689c-2.601,0-5.211,0.917-7.307,2.782
				c-3.947,3.512-10.919,11.148-13.26,22.833c-0.462,2.302-4.057,22.913,11.702,37.498c5.255,4.863,14.105,10.221,27.564,10.221
				c2.011,0,4.126-0.12,6.346-0.379c21.297-2.483,32.988-19.034,36.063-24.047c10.979-17.893,7.436-36.522,5.402-43.701
				c-8.413-29.711-40.267-46.554-67.386-47.836C733.314,1664.425,732.684,1664.4,731.68,1664.4L731.68,1664.4z"/>
		</g>
	</g>
	<g>
		<g>
			<path style="fill:#480000;" d="M1072.094,2011.259c-0.139-0.18-0.287-0.355-0.446-0.528c0.607-0.792,1.479-1.787,2.135-2.535
				l0.84-0.962c5.233-6.037,5.242-11.335,5.248-14.841c0.004-2.66,0.006-3.656,1.769-5.646
				c60.762-68.606,108.033-115.083,140.498-138.139c26.865-19.081,36.127-30.58,56.421-55.774
				c12.939-16.063,18.563-26.202,21.492-38.744c2.115-9.062,7.067-30.274-5.669-49.63c-15.382-23.379-44.963-24.563-50.736-24.563
				c-0.722,0-1.173,0.021-1.316,0.027l0.1-0.006c-21.051,0.994-46.851,14.15-53.2,36.576c-1.152,4.066-4.29,18.35,3.7,31.371
				c2.15,3.507,10.286,15.085,24.646,16.758c0.906,0.105,2.593,0.303,4.652,0.303c6.747,0,12.603-2.118,16.934-6.125
				c9.355-8.657,7.308-21.581,7.043-23.025l-0.021-0.109c-1.445-7.21-5.854-12.017-8.354-14.24c-0.898-0.799-1.432-1.899-1.501-3.1
				c-0.07-1.2,0.331-2.355,1.13-3.254c0.865-0.972,2.062-1.508,3.367-1.508c0.779,0,1.93,0.197,2.987,1.138
				c3.339,2.97,9.236,9.423,11.206,19.255c0.388,1.936,3.409,19.276-9.745,31.448c-4.187,3.875-11.598,8.493-23.137,8.493
				c-1.809,0-3.693-0.112-5.603-0.336c-18.391-2.144-28.591-16.608-31.278-20.991c-9.632-15.697-6.487-32.174-4.688-38.529
				c7.577-26.757,36.643-41.942,61.438-43.113c0.158-0.008,0.684-0.027,1.52-0.027c6.604,0,40.457,1.379,58.376,28.612
				c14.861,22.587,8.879,48.203,6.913,56.621c-3.691,15.811-11.632,27.924-23.247,42.345c-19.56,24.285-30.334,37.662-58.219,57.467
				C1192.546,1880.663,1140.329,1932.902,1072.094,2011.259z"/>
			<path style="fill:#480000;" d="M1243.526,1664.401c-1.006,0-1.638,0.025-1.826,0.034c-27.117,1.281-58.971,18.123-67.385,47.836
				c-2.032,7.18-5.574,25.81,5.401,43.698c3.075,5.014,14.765,21.566,36.064,24.049c2.225,0.26,4.342,0.38,6.357,0.38
				c13.453,0,22.3-5.361,27.552-10.223c15.749-14.573,12.165-35.189,11.703-37.496c-2.342-11.688-9.313-19.323-13.26-22.835
				c-2.096-1.864-4.706-2.78-7.307-2.78c-3.031,0-6.05,1.246-8.224,3.688c-4.038,4.539-3.632,11.492,0.907,15.53
				c1.893,1.684,5.229,5.314,6.301,10.662c0.079,0.433,1.866,10.673-5.063,17.085c-3.957,3.661-8.925,4.396-12.52,4.396
				c-1.682,0-3.063-0.161-3.9-0.258c-11.447-1.334-18.094-10.823-19.858-13.701c-6.605-10.766-3.956-22.777-2.986-26.201
				c5.521-19.501,28.469-30.967,47.253-31.854c0.03-0.002,0.347-0.014,0.91-0.014c5.244,0,31.781,1.078,45.307,21.635
				c11.202,17.025,6.693,36.334,4.769,44.579c-2.68,11.475-7.972,20.934-20.224,36.145c-19.906,24.714-28.991,35.993-55.123,54.553
				c-32.912,23.374-80.48,70.12-141.6,139.129c-6.869,7.756,0.147,12.222-7.063,20.539c-3.979,4.59-7.592,8.028-3.002,12.008
				c2.082,1.805-1.354,10.206,1.201,10.206c3.079,0,2.192-1.722,4.367-4.232c70.213-80.991,123.653-134.727,158.834-159.712
				c28.616-20.324,39.593-33.951,59.518-58.689c12.189-15.134,20.542-27.931,24.515-44.943c2.123-9.091,8.582-36.755-7.813-61.673
				C1287.796,1666.25,1252.094,1664.401,1243.526,1664.401L1243.526,1664.401z"/>
		</g>
	</g>
	<g>
		<g>
			<path style="fill:#480000;" d="M1669.042,1697.435c-0.37,0-0.745-0.047-1.114-0.141c-30.599-7.732-57.366-23.257-77.407-44.895
				c-25.791-27.842-33.72-58.789-39.509-81.385c-7.885-30.799-8.157-63.431-8.699-128.441c-0.093-11.15-0.128-16.572,0.001-28.3
				c0.26-22.772,0.51-45.541,0.76-68.312c0.545-51.066,1.071-104.328,1.609-162.832c0.705-77.062,1.274-147.886,1.74-216.52
				c0.594-87.438,0.982-164.102,1.189-234.372c0.266-86.807,0.26-153.534-0.02-216.357c-0.184-40.704-0.425-83.992-1.159-126.412
				c-0.25-14.089-0.886-28.511-1.501-42.457c-1.064-24.152-2.165-49.126-1.338-73.494c1.11-33.094,12.384-58.664,31.744-72.003
				c11.091-7.646,24.185-11.362,40.033-11.362c7.142,0,14.962,0.782,23.245,2.324c10.329,1.925,20.343,4.988,26.977,7.125
				l6.969,2.245l1.403-7.186c2.525-12.924,6.067-25.237,10.528-36.595c19.757-50.271,53.37-79.202,75.613-98.346
				c25.173-21.667,53.74-39.449,84.908-52.853c0.568-0.245,1.164-0.369,1.771-0.369c1.803,0,3.429,1.069,4.14,2.724
				c0.98,2.28-0.076,4.932-2.356,5.912c-30.325,13.042-58.113,30.338-82.592,51.406c-21.572,18.568-54.169,46.625-73.107,94.816
				c-5.65,14.387-9.726,30.264-12.112,47.192l-0.759,5.381l-5.146-1.749c-11.599-3.943-24.729-8.406-37.886-10.857
				c-7.7-1.434-14.925-2.161-21.473-2.161c-14.059,0-25.523,3.193-35.05,9.762c-22.874,15.759-27.271,47.424-27.855,64.896
				c-0.816,24.024,0.276,48.817,1.334,72.794l0.007,0.157c0.614,13.965,1.25,28.406,1.5,42.538
				c0.735,42.411,0.977,85.762,1.161,126.529c0.279,62.847,0.285,129.595,0.02,216.424c-0.206,70.282-0.596,146.957-1.189,234.407
				c-0.468,68.765-1.037,139.596-1.741,216.54c-0.542,58.909-1.068,112.177-1.61,162.847c-0.25,22.772-0.5,45.543-0.76,68.313
				c-0.126,11.613-0.091,17.014,0.001,28.122c0.536,64.28,0.805,96.545,8.409,126.251c5.863,22.888,13.159,51.368,37.401,77.537
				c23.822,25.72,52.854,37.191,73.013,42.285c2.406,0.608,3.868,3.061,3.261,5.467
				C1672.891,1696.037,1671.1,1697.435,1669.042,1697.435z"/>
			<path style="fill:#480000;" d="M1846.787,0c-1.45,0-2.924,0.289-4.34,0.898c-31.775,13.666-60.905,31.799-86.58,53.897
				c-22.729,19.563-57.077,49.126-77.423,100.896c-4.618,11.757-8.255,24.402-10.857,37.725c-8.789-2.831-18.157-5.535-27.78-7.328
				c-8.707-1.621-16.837-2.434-24.435-2.434c-17.162,0-31.595,4.15-43.72,12.51c-21.102,14.538-33.372,41.934-34.553,77.135
				c-0.836,24.617,0.271,49.722,1.341,74c0.613,13.916,1.247,28.307,1.495,42.284c0.733,42.347,0.975,85.628,1.158,126.328
				c0.279,62.822,0.285,129.534,0.02,216.309c-0.206,70.141-0.595,146.796-1.189,234.347c-0.466,68.663-1.035,139.482-1.74,216.504
				c-0.545,59.232-1.072,112.492-1.609,162.82c-0.25,22.77-0.5,45.537-0.76,68.312c-0.129,11.755-0.094,17.207-0.001,28.422
				c0.547,65.54,0.821,98.437,8.901,129.999c5.962,23.271,14.126,55.142,41.038,84.193c20.897,22.563,48.764,38.738,80.586,46.78
				c0.905,0.229,1.812,0.338,2.704,0.338c4.917,0,9.396-3.322,10.656-8.308c1.488-5.891-2.08-11.872-7.97-13.36
				c-19.308-4.879-47.097-15.849-69.837-40.4c-23.124-24.962-30.188-52.542-35.873-74.732c-7.407-28.935-7.675-60.937-8.206-124.692
				c-0.092-11.067-0.127-16.447-0.001-27.994c0.26-22.771,0.51-45.543,0.76-68.318c0.538-50.343,1.065-103.613,1.61-162.856
				c0.705-77.04,1.274-147.876,1.741-216.556c0.595-87.58,0.983-164.264,1.189-234.431c0.266-86.831,0.26-153.594-0.02-216.474
				c-0.185-40.772-0.426-84.134-1.162-126.615c-0.252-14.271-0.894-28.808-1.513-42.867c-1.052-23.857-2.139-48.526-1.331-72.29
				c0.544-16.25,4.522-45.621,25.05-59.763c8.345-5.755,18.699-8.613,31.36-8.613c6.197,0,12.947,0.685,20.282,2.051
				c12.702,2.367,25.603,6.752,36.984,10.621l12.577,4.275l1.855-13.154c2.315-16.425,6.261-31.809,11.726-45.722
				c18.351-46.695,50.214-74.119,71.298-92.267c23.977-20.637,51.202-37.581,80.92-50.362c5.581-2.4,8.159-8.87,5.76-14.451
				C1855.108,2.492,1851.05,0,1846.787,0L1846.787,0z"/>
		</g>
	</g>
	<g>
		<g>
			<path style="fill:#480000;" d="M1724.259,22.329c-29.09,22.502-58.496,53.499-79.063,95.34
				c-5.023,10.21-9.402,20.822-13.084,31.689c-3.363-0.593-6.696-1.142-9.984-1.643c-8.128-1.241-17.858-2.51-28.397-2.51
				c-17.022,0-32.105,3.359-46.108,10.268c-25.691,12.676-39.043,33.001-43.589,41.146c-3.847,6.887-6.865,14.236-8.971,21.843
				l-0.58,2.095v2.174v0.48v1179.605l-0.424,4.311l-0.033,0.343l-0.019,0.344c-3.069,55.855-1.739,99.777-0.084,126.783
				c2.436,39.871,7.606,61.179,15.158,82.637c7.74,21.988,17.815,45.291,38.944,66.726c7.352,7.463,15.477,14.038,24.328,19.696
				c-41.009,16.806-73.132,36.132-98.066,51.133c-83.788,50.383-125.844,75.672-147.419,91.755
				c-40.403,30.128-115.609,86.207-184.399,180.241c-30.697,41.967-57.183,87.453-78.822,135.346h-9.604l1.626-654.216l0.04-16.04
				h-16.04h-98.302h-16.04l0.04,16.04l1.626,654.216h-9.604c-21.639-47.893-48.125-93.378-78.822-135.347
				c-68.79-94.032-143.996-150.112-184.401-180.241c-21.573-16.082-63.63-41.371-147.414-91.752
				c-24.937-15.002-57.06-34.329-98.068-51.135c8.851-5.658,16.974-12.231,24.325-19.693c21.131-21.438,31.207-44.74,38.948-66.73
				c7.552-21.458,12.722-42.767,15.157-82.633c1.656-27.012,2.985-70.936-0.084-126.787l-0.019-0.344l-0.033-0.343l-0.423-4.311
				V444.662v-24.98c0-1.052-0.072-2.043-0.218-3.012c-1.41-10.395-4.407-20.124-8.902-28.905
				c-14.81-28.998-40.278-50.395-71.708-60.248c-25.697-8.066-48.834-11.986-70.733-11.986c-12.453,0-24.88,1.283-36.933,3.813
				c-51.246,10.75-105.845,39.874-142.485,76.002c-24.492,24.131-39.427,53.312-42.054,82.16
				c-2.836,31.02,8.252,63.772,30.421,89.858c18.351,21.595,42.945,37.161,69.247,43.828c9.795,2.485,20.045,3.746,30.466,3.746
				c29.435,0,57.256-10.199,76.329-27.981c14.762-13.762,24.932-32.598,29.697-54.202c24.656,43.241-0.93,104.122-4.199,111.502
				c-12.363,27.822-31.083,45.76-44.607,55.906c-35.025,26.262-71.79,28.24-85.631,28.984c-2.968,0.16-5.976,0.24-8.942,0.24
				c-34.435,0-68.211-10.581-100.387-31.448c-24.831-16.104-39.937-32.83-42.716-36.023c-4.523-5.194-16.537-18.989-27.095-38.917
				c-12.422-23.448-19.154-48.159-20.01-73.448c-1.063-31.27,6.973-61.999,23.884-91.333c14.035-24.345,30.579-41.576,39.466-50.833
				c21.714-22.615,46.753-40.206,76.55-53.778c26.526-12.083,53.792-19.563,79.307-25.848c22.17-5.462,56.372-12.724,97.266-12.723
				c29.743,0.001,59.367,3.855,88.047,11.454c30.188,8.002,93.005,24.653,142.221,82.303c38.843,45.498,53.036,93.21,53.099,114.131
				v1150.51v0.093l0.001,0.093l0.086,7.401c-0.955,38.271,6.537,76.337,21.69,110.146c6.988,15.582,18.684,41.661,43.941,66.37
				c4.379,4.279,7.595,6.969,12.462,11.04c4.238,3.544,10.042,8.398,19.631,16.807l0.063,0.055l0.063,0.054
				c0.194,0.167,19.64,16.89,38.47,35.031c18.399,17.737,52.647,50.752,89.177,99.445c16.415,21.871,31.835,45.036,45.833,68.853
				l29.794,50.692v-58.8v-572.836v-16h-16H829.74v-10.755h71.404h16v-16v-344.197l7.244-7.115l0.874,351.351l0.04,15.96h15.96
				h98.514h15.96l0.04-15.96l0.874-351.352l7.245,7.115v344.197v16h16h70.157v10.755h-70.157h-16v16v572.836v58.801l29.794-50.693
				c13.997-23.816,29.417-46.982,45.834-68.856c36.528-48.69,70.776-81.705,89.173-99.439
				c18.833-18.144,38.278-34.867,38.472-35.034l0.063-0.054l0.062-0.054c9.589-8.408,15.393-13.262,19.631-16.807
				c4.868-4.071,8.083-6.76,12.469-11.046c25.253-24.706,36.948-50.786,43.952-66.403c15.136-33.771,22.628-71.841,21.672-110.114
				l0.087-7.392l0.001-0.094v-0.094V285.254c8.828-21.035,19.34-41.516,31.268-60.918c5.593-9.092,17.795-27.742,36.68-50.501
				c26.719-32.199,55.87-59.512,86.681-81.207c2.233-1.582,4.579-3.194,7.173-4.931c36.413-24.382,77.878-42.391,123.246-53.526
				C1673.898,28.343,1698.698,24.384,1724.259,22.329 M1766.036,4.672c-71.738,0-164.781,13.984-248.033,69.73
				c-2.54,1.7-5.05,3.42-7.52,5.17c-75.84,53.4-120.9,125.26-127.74,136.38c-14.3,23.26-25.24,45.69-33.64,66.11v1391.37l-0.09,7.69
				c0.61,23.32-1.63,61.87-20.27,103.46c-6.57,14.65-17.44,38.91-40.54,61.51c-7.45,7.28-10.83,9.17-31.46,27.26
				c0,0-19.74,16.95-39.15,35.65c-20,19.28-54.26,52.561-90.87,101.36c-14.02,18.68-30.25,42.14-46.83,70.35v-572.836h86.157
				v-42.755h-86.157v-350.909l-39.15-38.45l-0.968,389.359h-98.514l-0.968-389.359l-39.15,38.45v350.909H813.74v42.755h87.404
				v572.836c-16.58-28.21-32.81-51.67-46.83-70.35c-36.61-48.8-70.87-82.08-90.87-101.36c-19.41-18.7-39.15-35.65-39.15-35.65
				c-20.63-18.09-24.01-19.98-31.459-27.26c-23.1-22.6-33.97-46.86-40.54-61.51c-18.64-41.59-20.88-80.14-20.27-103.46l-0.09-7.69
				V522.922c-0.08-26.57-16.95-77.69-56.93-124.52c-51.42-60.23-115.81-78.24-150.29-87.38
				c-33.215-8.801-64.238-11.987-92.146-11.988c-41.602-0.001-76.292,7.077-101.094,13.188c-52.17,12.85-112.27,30.65-163.57,84.08
				c-18.3,19.06-70.53,73.47-67.8,153.79c2.2,64.99,39.09,108.62,51.03,122.33c5.704,6.554,65.442,72.964,155.169,72.964
				c3.234,0,6.49-0.085,9.801-0.264c16.36-0.88,56.24-3.57,94.37-32.16c10.61-7.96,34.38-27.89,49.63-62.21
				c3.88-8.76,38.38-89.56-6.99-140.5c-2.91-3.26-8.25-8.77-16.59-14.42c1.94,32.15-7.96,61.25-27.45,79.42
				c-17.237,16.071-41.589,23.684-65.419,23.684c-9.059,0-18.042-1.1-26.531-3.254c-23.71-6.01-45.15-20.04-60.99-38.68
				c-18.28-21.51-29.25-49.93-26.68-78.04c2.51-27.56,17.64-52.8,37.35-72.22c35.07-34.58,86.44-61.65,134.54-71.74
				c11.388-2.39,22.579-3.472,33.649-3.472c22.234,0,43.99,4.362,65.941,11.252c26.89,8.43,49.36,27.02,62.25,52.26
				c3.88,7.58,6.21,15.64,7.32,23.95c0.04,0.22,0.05,0.46,0.05,0.69v24.98v958.94l0.5,5.09c2.88,52.41,1.91,95.24,0.09,124.93
				c-2.46,40.27-7.92,60.23-14.28,78.3c-6.53,18.55-15.28,40.55-35.25,60.81c-17.93,18.2-38.48,27.65-54.72,32.68
				c55.56,17.86,95.89,41.6,131.61,63.09c83.5,50.21,125.24,75.32,146.1,90.87c43.96,32.78,115.02,86.6,181.05,176.86
				c35.08,47.96,61.45,96.24,81.33,141.9h36.05l-1.666-670.256h98.302l-1.666,670.256h36.05c19.88-45.66,46.25-93.94,81.33-141.9
				c66.03-90.26,137.09-144.08,181.05-176.86c20.86-15.55,62.6-40.66,146.1-90.87c35.72-21.49,76.051-45.23,131.61-63.09
				c-16.24-5.03-36.79-14.48-54.72-32.68c-19.97-20.26-28.72-42.26-35.25-60.81c-6.36-18.07-11.82-38.03-14.28-78.3
				c-1.82-29.69-2.79-72.52,0.09-124.93l0.5-5.09V223.212v-0.48c1.6-5.78,3.99-11.99,7.52-18.31c1.97-3.53,13.19-23,36.7-34.6
				c13.264-6.545,26.46-8.617,39.028-8.617c9.055,0,17.783,1.075,25.982,2.327c7.87,1.2,15.7,2.63,23.46,4.25
				c3.81-13.72,9.09-28.23,16.38-43.05c30.49-62.03,81.96-99.19,121.75-119.85C1776.336,4.746,1771.239,4.672,1766.036,4.672
				L1766.036,4.672z"/>
		</g>
	</g>
</g>
</svg>
