<?xml version="1.0" encoding="iso-8859-1"?>
<!-- Generator: Adobe Illustrator 24.0.1, SVG Export Plug-In . SVG Version: 6.00 Build 0)  -->
<svg version="1.1" xmlns="http://www.w3.org/2000/svg" xmlns:xlink="http://www.w3.org/1999/xlink" x="0px" y="0px"
	 viewBox="0 0 2551.333 2203.37" style="enable-background:new 0 0 2551.333 2203.37;" xml:space="preserve">
<g id="Layer_5">
	<linearGradient id="SVGID_1_" gradientUnits="userSpaceOnUse" x1="725.3346" y1="1410.5466" x2="753.1124" y2="16.1022">
		<stop  offset="0" style="stop-color:#8B1D1A"/>
		<stop  offset="0.25" style="stop-color:#550000"/>
		<stop  offset="0.5" style="stop-color:#3A0000"/>
		<stop  offset="0.75" style="stop-color:#1E0000"/>
		<stop  offset="1" style="stop-color:#000000"/>
	</linearGradient>
	<path style="fill:url(#SVGID_1_);" d="M1296.735,1072.65l-472.22,591.48l-26.45,31.46c-41.69,53.96-92.67,90.25-143.41,123.73
		c-90.59,59.75-135.88,89.63-192.93,102.76c-63.2,14.53-131.67,19.33-193.66-3.13c-84.55-30.63-135.8-113.99-138.38-202.24
		c-2.02-69.31,17.58-164.65,69.9-214.05c15.5-14.64,47.37-44.72,83.88-35.65c23.51,5.84,41.79,26.12,48.24,48.23
		c10.14,34.77-10.39,69.18-35.65,85.98c-13.73,9.13-28.12,12.56-40.75,13.29c26.33,24.92,60.54,37.42,93.17,32.85
		c66.31-9.3,91.79-84.27,94.37-92.28c19.89-61.65-10.94-113.84-16.77-123.72c-26.87-45.48-76.48-77.52-130.02-79.69
		c-42.35-1.72-73.82,15.79-90.18,25.16c-90.88,52.1-124.39,157.4-134.92,199.23c-27.38,108.73-7.819,196.724,1.831,227.974
		c16.77,54.3,53.349,129.476,124.699,176.756c54.81,36.32,113.58,40.27,138.41,41.95c42.07,2.83,71.82-3.55,123.73-14.68
		c44.43-9.53,88.94-24.66,176.15-54.53c47.08-16.12,47.56-17.02,73.4-25.16c98.07-30.91,133.02-31.19,155.19-29.36
		c14.91,1.23,28.28,3.77,39.79,6.73c-4.19-19.2-6.18-42.27-2.05-67.55c6.5-39.69,25.4-68.3,39.85-90.17
		c10.85-16.43,21.47-29.08,29.36-37.75l10.48-12.58c4.52-3.62,195.35-243.43,411.01-515.12L1296.735,1072.65z"/>
	<linearGradient id="SVGID_2_" gradientUnits="userSpaceOnUse" x1="1558.0055" y1="1427.1337" x2="1585.7832" y2="32.6893">
		<stop  offset="0" style="stop-color:#8B1D1A"/>
		<stop  offset="0.25" style="stop-color:#550000"/>
		<stop  offset="0.5" style="stop-color:#3A0000"/>
		<stop  offset="0.75" style="stop-color:#1E0000"/>
		<stop  offset="1" style="stop-color:#000000"/>
	</linearGradient>
	<path style="fill:url(#SVGID_2_);" d="M2351.195,2203.37v-357.06c-11.97-1.62-24.63-4.21-37.75-8.12
		c-14.742-4.39-32.149-9.634-44.375-19.261c-12.565-9.894-22.145-24.557-32.582-36.812c-6.368-7.478-12.736-14.956-19.105-22.434
		c-17.155-20.145-34.311-40.29-51.466-60.436c-21.869-25.681-43.739-51.361-65.608-77.042
		c-25.17-29.556-50.339-59.112-75.509-88.668c-27.056-31.772-54.113-63.544-81.169-95.316c-27.53-32.328-55.06-64.656-82.59-96.983
		c-26.59-31.224-53.18-62.448-79.769-93.672c-24.236-28.46-48.472-56.92-72.708-85.38c-20.469-24.036-40.938-48.073-61.407-72.109
		c-15.289-17.953-30.577-35.906-45.866-53.859c-8.694-10.21-17.389-20.42-26.083-30.629c-1.464-1.72-2.929-3.44-4.394-5.159
		l-17.3-20.32c227.71-287.15,450.49-568.48,450.49-568.48l8.39-10.49c7.21-10.88,17.8-26.25,31.46-44.04
		c13.94-18.15,31.72-41.3,48.23-56.62c39.27-36.43,88.61-44.53,111.15-48.23c27.55-4.53,105.72-17.36,167.76,31.45
		c9.38,7.38,40.88,32.86,54.53,77.6c2.02,6.61,9.39,32.5,4.19,65c-2.74,17.15-7.22,45.14-27.26,54.53c-0.79,0.37-16.14,7.31-27.26,0
		c-6.38-4.19-8.73-11.32-10.49-18.87c-1.92-8.23-4.03-20.73-3.9-37.41l1.17-1.55c-9.02,3.9-18.43,9.21-27.55,16.43
		c-28.61,22.64-59.85,68.33-46.14,113.25c9.96,32.65,38.8,48.93,52.43,56.62c50.07,28.26,100.71,12.53,106.95,10.48
		c34.8-11.43,54.69-34.33,62.91-44.03c28.75-33.97,34.07-70.9,37.75-96.47c2.58-17.97,8.71-64.3-10.49-115.34
		c-21.47-57.07-62.45-87.73-109.05-121.63c-24.59-17.89-60.76-40.9-108.87-60.82c-137.35,0-320.26,0-403.86,0
		c6.12,8.05,10.04,15.82,11.53,23.07c2.63,12.79,2.1,25.17,2.1,25.17c-0.95,21.94-8.99,37.83-23.07,62.91
		c-13.77,24.52-27.18,46.91-39.85,67.11l-12.58,14.67l-395.07,494.84l-20.8-24.42l-423.04-496.78c-10.57-0.93-22.56-2.49-35.57-5.09
		c-23.02-4.6-70.36-16.65-130.02-56.62c-21.18-14.19-81.34-56.97-161.48-167.77c-22.67-31.35-48.91-70.85-75.49-118.58v293.85
		c14.65,0.26,32.78,2.45,52.42,9.27c19.03,6.61,33.74,15.56,44.04,23.07l16.78,16.78l596.86,697.01l95.06,111.01l33.31,38.9
		l508.45,593.77c39.06,8.57,91.79,25.57,146.2,60.82c85.47,55.37,127.23,128.77,165.67,195.03
		C2293.305,2077.07,2327.345,2132.04,2351.195,2203.37z"/>
</g>
<g id="Layer_7">
	<g>
		<path style="fill:#BFCBC2;" d="M336.756,1514.193c35.712-0.508,74.531-42.853,40.501-75.602
			c-27.106-21.252-59.556,8.909-42.607,37.469c-30.743-31.263,14.603-81.634,56.865-45.159
			C427.932,1469.661,384.256,1526.21,336.756,1514.193z"/>
	</g>
	<g>
		<path style="fill:#BFCBC2;" d="M415.843,1477.708c20.047,39.483-32.205,79.741-65.444,47.63
			C377.812,1526.216,407.653,1506.213,415.843,1477.708z"/>
	</g>
	<g>
		<path style="fill:#BFCBC2;" d="M412.231,1545.592c5.43,34.342-46.704,52.988-62.265,16.147
			C369.29,1571.218,398.37,1565.996,412.231,1545.592z"/>
	</g>
	<g>
		<path style="fill:#BFCBC2;" d="M341.417,1387.482c-17.457,17.553-32.969,43.145-39.399,69.935
			C284.079,1430.848,304.585,1385.993,341.417,1387.482z"/>
	</g>
	<g>
		<path style="fill:#BFCBC2;" d="M304.701,1369.457c-22.059,19.597-38.404,52.561-39.487,83.952
			C235.393,1421.236,261.354,1366.656,304.701,1369.457z"/>
	</g>
	<g>
		<path style="fill:#BFCBC2;" d="M2504.095,539.962c-21.355,74.077-118.019,14.355-85.136-47.375
			C2421.686,540.324,2469.921,580.325,2504.095,539.962z"/>
	</g>
	<g>
		<path style="fill:#BFCBC2;" d="M2526.374,484.923c4.921,66.402-106.317,61.784-84.749-12.264
			C2445.791,512.838,2501.733,534.461,2526.374,484.923z"/>
	</g>
	<g>
		<path style="fill:#BFCBC2;" d="M2531.945,462.18c-8.487-53.219-68.717-27.81-87.572,4.248
			C2455.015,384.598,2555.148,408.178,2531.945,462.18z"/>
	</g>
	<g>
		<path style="fill:#BFCBC2;" d="M2534.121,388.803c-25.15-41.985-69.849-2.35-87.048,26.078
			C2452.747,338.728,2535.774,341.288,2534.121,388.803z"/>
	</g>
	<g>
		<path style="fill:#BFCBC2;" d="M2419.66,590.612c-44.561,7.321-76.452-57.595-29.047-86.004
			C2370.514,538.491,2387.386,578.289,2419.66,590.612z"/>
	</g>
	<g>
		<path style="fill:#BFCBC2;" d="M2360.396,585.091c-42.212-5.679-47.031-76.095,5.86-79.135
			C2335.091,524.495,2334.846,565.199,2360.396,585.091z"/>
	</g>
	<g>
		<path style="fill:#BFCBC2;" d="M2506.009,324.583c-29.195-6.089-56.068,15.074-59.832,41.147
			C2433.216,330.528,2476.82,299.148,2506.009,324.583z"/>
	</g>
	<g>
		<path style="fill:#BFCBC2;" d="M1702.026,766.515c-28.682,77.664-141.097,13.342-174.96,65.51
			C1545.643,744.772,1665.86,808.089,1702.026,766.515z"/>
	</g>
	<g>
		<path style="fill:#BFCBC2;" d="M1746.383,695.463c-21.47,79.546-135.602,17.739-165.359,69.391
			C1595.803,679.621,1714.564,740.617,1746.383,695.463z"/>
	</g>
	<g>
		<path style="fill:#BFCBC2;" d="M1810.358,629.132c-17.76,79.242-129.129,10.65-159.22,53.237
			C1674.759,605.801,1779.708,676.63,1810.358,629.132z"/>
	</g>
	<g>
		<path style="fill:#BFCBC2;" d="M1867.573,554.761c-53.273,94.337-122.771,3.98-159.764,54.84
			C1721.24,537.532,1814.232,602.197,1867.573,554.761z"/>
	</g>
	<g>
		<path style="fill:#BFCBC2;" d="M1925.282,486.28c-26.807,83.006-129.244,10.977-165.126,60.464
			C1778.356,466.529,1892.009,532.038,1925.282,486.28z"/>
	</g>
	<g>
		<path style="fill:#BFCBC2;" d="M1990.993,392.468c-17.983,85.27-137.003,33.721-173.846,73.885
			C1845.164,390.644,1956.625,443.283,1990.993,392.468z"/>
	</g>
	<g>
		<path style="fill:#BFCBC2;" d="M2044.874,316.422c-22.312,79.598-135.542,33.099-171.881,77.747
			C1895.904,315.117,2008.826,361.666,2044.874,316.422z"/>
	</g>
	<g>
		<path style="fill:#BFCBC2;" d="M2013.644,217.73c32.101-27.063,70.145,34.808,42.063,73.902
			c-32.053,48.21-112.035,23.518-101.548-35.984c10.328,35.172,60.258,48.85,80.97,12.895
			C2045.284,252.858,2041.776,211.129,2013.644,217.73z"/>
	</g>
	<g>
		<path style="fill:#BFCBC2;" d="M2095.488,267.103c7.723-20.628-2.961-48.737-23.517-58.09
			C2102.458,207.404,2118.903,247.036,2095.488,267.103z"/>
	</g>
	<g>
		<path style="fill:#BFCBC2;" d="M1774.629,1394.002c-488.837-484.451-522.485-632.058-618.467-638.738
			c86.872-0.807,168.512,121.065,217.039,165.364C1502.595,1052.453,1772.839,1386.155,1774.629,1394.002z"/>
	</g>
	<g>
		<path style="fill:#BFCBC2;" d="M1199.93,842.501c61.864,35.043,135.527-23.45,201.186,143.198
			C1281.371,818.911,1254.511,900.817,1199.93,842.501z"/>
	</g>
	<g>
		<path style="fill:#BFCBC2;" d="M1160.485,777.616c16.951,71.182,130.395,13.257,160.633,115.098
			C1271.999,808.947,1161.58,859.853,1160.485,777.616z"/>
	</g>
	<g>
		<path style="fill:#BFCBC2;" d="M1184.748,789.717c30.006,12.016,87.36,7.386,92.74,52.063
			C1264.122,805.218,1211.899,811.474,1184.748,789.717z"/>
	</g>
	<g>
		<path style="fill:#BFCBC2;" d="M1274.917,770.826C1107.56,586.673,952.339,635.632,920.372,520.829
			C986.289,623.742,1160.389,550.434,1274.917,770.826z"/>
	</g>
	<g>
		<path style="fill:#BFCBC2;" d="M1222.653,754.084c-76.757-26.481-183.138-36.648-214.873-127.068
			C1054.7,698.086,1157.672,707.164,1222.653,754.084z"/>
	</g>
	<g>
		<path style="fill:#BFCBC2;" d="M1005.954,532.61c-33.17-71.29,79.837-88.932,109.129-19.787
			c33.074,65.135-50.86,136.141-98.309,71.631c42.995,39.967,105.186-11.75,76.387-65.294
			C1063.639,463.643,991.139,482.657,1005.954,532.61z"/>
	</g>
	<g>
		<path style="fill:#BFCBC2;" d="M1080.118,459.295c-47.298-7.727-143.597,17.921-151.826,80.897
			C900.486,477.001,1003.464,401.511,1080.118,459.295z"/>
	</g>
	<g>
		<path style="fill:#BFCBC2;" d="M883.832,400.785c0.934-26.137,31.041-46.656,58.536-41.865
			c71.664,15.977,64.581,112.966-0.8,128.783C1005.935,420.775,929.474,344.552,883.832,400.785z"/>
	</g>
	<g>
		<path style="fill:#BFCBC2;" d="M890.192,331.787c-82.023,47.541-14.463,172.519,41.76,97.462
			c2.302,47.665-69.812,69.555-102.644,15.884C798.647,397.546,841.44,326.326,890.192,331.787z"/>
	</g>
	<g>
		<path style="fill:#BFCBC2;" d="M728.635,318.715c2.764-55.686,79.867-71.836,103.854-18.737
			c20.174,42.675-34.486,93.109-69.606,49.928C846.713,373.566,798.894,235.987,728.635,318.715z"/>
	</g>
	<g>
		<path style="fill:#BFCBC2;" d="M761.864,224.752c-43.732-0.305-69.249,40.089-57.381,76.656
			C666.157,267.227,707.644,195.128,761.864,224.752z"/>
	</g>
	<g>
		<path style="fill:#BFCBC2;" d="M634.395,212.207c-4.865-41.355,59.943-55.988,77.398-5.605c13,46.228-42.905,79.592-76.857,48.677
			C725.429,264.438,678.418,148.342,634.395,212.207z"/>
	</g>
	<g>
		<path style="fill:#BFCBC2;" d="M1334.4,771.913c-1.27,44.015-16.144,96.816,5.499,139.842
			C1292.989,882.325,1304.974,810.165,1334.4,771.913z"/>
	</g>
	<path style="fill:#BFCBC2;" d="M1031.531,537.934c1.598-25.518,36.264-22.946,36.857,0.001
		C1066.79,563.451,1032.124,560.879,1031.531,537.934z"/>
	<path style="fill:#BFCBC2;" d="M345.586,1467.542c0.77-16.376,23.921-15.641,24.571,0.001
		C369.388,1483.919,346.236,1483.183,345.586,1467.542z"/>
	<path style="fill:#BFCBC2;" d="M1983.663,255.365c1.598-25.518,36.264-22.946,36.857,0.001
		C2018.922,280.883,1984.256,278.311,1983.663,255.365z"/>
	<path style="fill:#BFCBC2;" d="M2477.134,472.411c0.77-16.376,23.921-15.641,24.571,0.001
		C2500.935,488.787,2477.784,488.052,2477.134,472.411z"/>
	<path style="fill:#BFCBC2;" d="M912.771,419.173c-0.407-13.025-19.672-13.414-20.476,0.001
		C892.702,432.198,911.966,432.587,912.771,419.173z"/>
	<path style="fill:#BFCBC2;" d="M767.391,322.936c0.407-13.025,19.671-13.414,20.476,0.001
		C787.46,335.961,768.196,336.35,767.391,322.936z"/>
	<path style="fill:#BFCBC2;" d="M652.726,220.556c0.266-10.107,15.535-10.936,16.381,0.001
		C668.84,230.663,653.571,231.493,652.726,220.556z"/>
</g>
<g id="Layer_4">
	<g>
		<path style="fill:#FFB400;" d="M1297.95,1127.226l49.313,56.422c-310.062,390.568-378.522,475.47-389.59,488.52l-0.511,0.409
			l-2.258,2.711l-10.002,12.007c-11.725,12.944-22.54,26.882-32.148,41.431c-14.924,22.587-37.477,56.72-45.19,103.821
			c-1.695,10.373-2.6,20.853-2.718,31.395c-5.157-0.375-9.929-0.551-14.839-0.551c-23.792,0-62.495,3.592-151.348,31.596
			c-15.516,4.888-22.237,7.265-34.438,11.581c-8.474,2.998-20.081,7.103-39.786,13.85c-89.352,30.604-130.605,44.509-172.169,53.424
			c-42.366,9.084-67.939,14.567-97.002,14.567c-5.547,0-11.114-0.193-17.005-0.59l-0.06-0.004
			c-22.245-1.505-74.338-5.03-121.379-36.202c-67.632-44.816-98.318-118.171-110.59-157.907
			c-3.124-10.117-10.676-37.87-13.324-76.969c-2.992-44.196,1.042-88.651,11.992-132.134c5.452-21.657,15.779-54.396,34.015-87.368
			c22.394-40.491,50.781-70.785,84.358-90.034c12.601-7.217,36.055-20.65,66.98-20.649c1.453,0,2.928,0.03,4.387,0.089
			c19.901,0.806,39.937,7.153,57.943,18.353c17.857,11.107,32.851,26.381,43.362,44.171c10.696,18.126,26.684,54.594,13.589,95.184
			c-0.616,1.914-6.371,19.185-18.422,36.001c-13.579,18.95-29.559,29.834-47.489,32.349c-2.583,0.362-5.236,0.559-7.897,0.587
			c24.988-26.084,41.859-65.746,29.582-107.848c-10.349-35.473-39.161-63.89-73.4-72.395c-7.227-1.796-14.666-2.706-22.111-2.706
			c-44.608,0-78.13,31.662-94.236,46.875c-63.118,59.595-83.005,166.812-80.857,240.521
			c3.152,107.838,66.523,199.738,161.442,234.124c32.116,11.636,67.811,17.536,106.092,17.536c33.114,0,69.226-4.442,107.341-13.205
			c63.182-14.541,110.329-45.638,204.259-107.591l0.097-0.064c51.644-34.076,105.857-72.252,151.377-130.959l25.997-30.921
			l0.286-0.339l0.277-0.347L1297.95,1127.226 M1296.735,1072.65l-472.22,591.48l-26.45,31.46
			c-41.69,53.96-92.67,90.25-143.41,123.73c-90.59,59.75-135.88,89.63-192.93,102.76c-32.306,7.427-66,12.313-99.491,12.313
			c-32.027,0-63.867-4.464-94.169-15.443c-84.55-30.63-135.8-113.99-138.38-202.24c-2.02-69.31,17.58-164.65,69.9-214.05
			c13.529-12.779,39.535-37.323,70.208-37.323c4.468,0,9.031,0.52,13.672,1.673c23.51,5.84,41.79,26.12,48.24,48.23
			c10.14,34.77-10.39,69.18-35.65,85.98c-13.73,9.13-28.12,12.56-40.75,13.29c22.738,21.521,51.355,33.779,79.754,33.779
			c4.486,0,8.965-0.306,13.416-0.929c66.31-9.3,91.79-84.27,94.37-92.28c19.89-61.65-10.94-113.84-16.77-123.72
			c-26.87-45.48-76.48-77.52-130.02-79.69c-1.957-0.08-3.895-0.118-5.805-0.118c-39.426-0.001-68.771,16.341-84.375,25.278
			c-90.88,52.1-124.39,157.4-134.92,199.23c-27.38,108.73-7.819,196.724,1.831,227.974c16.77,54.3,53.348,129.476,124.699,176.756
			c54.81,36.32,113.58,40.27,138.41,41.95c6.722,0.452,13.134,0.669,19.368,0.669c32.779,0,60.747-5.998,104.362-15.349
			c44.43-9.53,88.94-24.66,176.15-54.53c47.08-16.12,47.56-17.02,73.4-25.16c79.443-25.039,117.469-29.979,140.831-29.979
			c5.478,0,10.148,0.271,14.359,0.619c14.91,1.23,28.28,3.77,39.79,6.73c-4.19-19.2-6.18-42.27-2.05-67.55
			c6.5-39.69,25.4-68.3,39.85-90.17c10.85-16.43,21.47-29.08,29.36-37.75l10.48-12.58c4.52-3.62,195.35-243.43,411.01-515.12
			L1296.735,1072.65L1296.735,1072.65z"/>
	</g>
	<g>
		<path style="fill:#FFB400;" d="M647.715,122.006c4.002,5.741,8.044,11.435,12.131,17.086
			c57.918,80.076,115.235,139.404,170.358,176.335c47.085,31.545,95.077,52.359,142.642,61.864
			c8.153,1.629,16.454,2.987,24.807,4.06l414.017,486.184l20.8,24.42l27.518,32.307l26.479-33.165l394.688-494.361l12.179-14.202
			l1.697-1.979l1.385-2.208c14.009-22.335,27.708-45.405,40.719-68.573c15.786-28.118,26.23-48.775,27.519-78.546
			c0.043-1.006,0.249-6.782-0.283-14.738h240.807c-2.872,0.443-5.422,0.862-7.612,1.222c-24.622,4.042-82.284,13.507-129.288,57.112
			c-18.664,17.319-37.243,41.508-52.184,60.961c-11.192,14.576-21.951,29.607-31.998,44.701l-7.425,9.284l-0.052,0.066l-0.052,0.066
			c-2.228,2.813-225.377,284.605-450.475,568.461l-17.871,22.536l18.645,21.9l17.302,20.323l2.022,2.374l2.373,2.786l26.083,30.629
			l45.865,53.859l14.711,17.275l46.696,54.834l22.905,26.897l49.803,58.483l79.769,93.671l82.59,96.983l81.169,95.316l75.509,88.669
			l32.804,38.52l32.803,38.521l51.466,60.435l19.105,22.435c2.583,3.034,5.258,6.434,8.09,10.034
			c8.102,10.301,17.285,21.976,29.487,31.584c17.6,13.859,39.816,20.475,56.031,25.305c4.21,1.255,8.462,2.413,12.747,3.474v171.435
			c-2.775-4.783-5.465-9.377-8.046-13.786c-2.219-3.789-4.349-7.428-6.37-10.909l-1.722-2.969
			c-39.354-67.858-83.96-144.769-175.192-203.872c-44.751-28.992-93.854-50.136-146.118-62.937l-500.978-585.043l-33.31-38.9
			l-95.06-111.01l-596.86-697.01l-0.88-1.027l-0.956-0.957l-16.78-16.78l-1.927-1.927l-2.201-1.605
			c-16.305-11.888-34.196-21.259-53.179-27.852c-9.438-3.277-19.092-5.846-28.901-7.695V122.006 M2312.835,216.49
			c3.492,1.501,6.963,3.04,10.412,4.616c-6.45-1.82-13.058-3.359-19.819-4.616H2312.835 M2411.863,273.285
			c22.216,16.208,40.588,30.134,55.938,45.715c17.364,17.626,29.209,35.822,37.275,57.264c16.415,43.636,10.74,83.163,8.606,98.031
			c-3.369,23.409-7.561,52.542-29.809,78.828c-6.299,7.433-21.05,24.84-47.131,33.406c-2.266,0.745-14.413,4.459-30.973,4.459
			c-17.447,0-33.545-4.094-47.855-12.17c-11.323-6.388-30.273-17.079-36.153-36.354c-3.582-11.736-1.835-25.007,5.193-39.443
			c2.559-5.257,5.815-10.55,9.546-15.606c3.736,7.758,9.708,16.251,19.471,22.662c9.042,5.944,19.887,9.086,31.362,9.086
			c14.659,0,26.645-5.08,29.973-6.64c36.835-17.26,43.681-60.109,46.97-80.694c5.801-36.256-0.817-66.16-5.274-80.743
			C2452.545,329.924,2439.233,300.816,2411.863,273.285 M612.715,0v293.85c14.65,0.26,32.78,2.45,52.42,9.27
			c19.03,6.61,33.74,15.56,44.04,23.07l16.78,16.78l596.86,697.01l95.06,111.01l33.31,38.9l508.45,593.77
			c39.061,8.57,91.79,25.57,146.2,60.82c85.47,55.37,127.23,128.77,165.67,195.03c21.8,37.56,55.84,92.53,79.69,163.86v-357.06
			c-11.97-1.62-24.63-4.21-37.75-8.12c-14.741-4.39-32.148-9.634-44.375-19.26c-12.566-9.894-22.146-24.557-32.582-36.812
			c-6.368-7.478-12.737-14.956-19.104-22.434c-17.156-20.146-34.311-40.291-51.466-60.436
			c-21.869-25.68-43.739-51.361-65.608-77.042c-25.169-29.556-50.339-59.112-75.509-88.668
			c-27.056-31.772-54.113-63.544-81.169-95.316c-27.53-32.328-55.06-64.656-82.59-96.983c-26.59-31.223-53.18-62.448-79.769-93.671
			c-24.236-28.46-48.472-56.92-72.708-85.38c-20.469-24.036-40.938-48.073-61.407-72.109
			c-15.289-17.953-30.577-35.906-45.866-53.859c-8.694-10.21-17.389-20.42-26.083-30.629c-1.464-1.72-2.929-3.439-4.394-5.159
			l-17.3-20.32c227.71-287.15,450.49-568.48,450.49-568.48l8.39-10.49c7.21-10.88,17.801-26.25,31.46-44.04
			c13.94-18.15,31.72-41.3,48.23-56.62c39.27-36.43,88.61-44.53,111.15-48.23c11.005-1.81,30.09-4.944,52.996-4.944
			c34.435,0,77.507,7.082,114.764,36.394c9.38,7.38,40.88,32.86,54.53,77.6c2.02,6.61,9.39,32.5,4.19,65
			c-2.74,17.15-7.22,45.14-27.26,54.53c-0.52,0.244-7.347,3.333-15.123,3.333c-4.04,0-8.335-0.833-12.137-3.333
			c-6.38-4.19-8.73-11.32-10.49-18.87c-1.92-8.23-4.031-20.73-3.9-37.41l1.17-1.55c-9.02,3.9-18.43,9.21-27.551,16.43
			c-28.61,22.64-59.85,68.33-46.14,113.25c9.96,32.65,38.8,48.93,52.43,56.62c23.018,12.992,46.164,16.687,65.053,16.687
			c22.2,0,38.525-5.1,41.896-6.207c34.801-11.43,54.69-34.33,62.91-44.03c28.75-33.97,34.07-70.9,37.75-96.47
			c2.58-17.97,8.71-64.3-10.49-115.34c-21.47-57.07-62.45-87.73-109.05-121.63c-24.59-17.89-60.76-40.9-108.87-60.82
			c-137.35,0-320.26,0-403.86,0c6.12,8.05,10.04,15.82,11.53,23.07c2.63,12.79,2.1,25.17,2.1,25.17
			c-0.949,21.94-8.99,37.83-23.07,62.91c-13.77,24.52-27.18,46.91-39.85,67.11l-12.58,14.67l-395.07,494.84l-20.8-24.42
			l-423.04-496.78c-10.57-0.93-22.56-2.49-35.57-5.09c-23.02-4.6-70.36-16.65-130.02-56.62c-21.18-14.19-81.34-56.97-161.48-167.77
			C665.535,87.23,639.295,47.73,612.715,0L612.715,0z"/>
	</g>
</g>
<g id="Layer_6">
	<g>
		<g>
			<circle style="fill:#480000;" cx="736.872" cy="431.998" r="29.15"/>
			<path style="fill:#480000;" d="M736.872,409.348c12.489,0,22.65,10.161,22.65,22.65s-10.161,22.65-22.65,22.65
				s-22.65-10.161-22.65-22.65S724.383,409.348,736.872,409.348 M736.872,396.348c-19.689,0-35.65,15.961-35.65,35.65
				s15.961,35.65,35.65,35.65s35.65-15.961,35.65-35.65S756.561,396.348,736.872,396.348L736.872,396.348z"/>
		</g>
	</g>
	<g>
		<g>
			<path style="fill:#480000;" d="M2076.479,1994.052c-16.073,0-29.15-13.076-29.15-29.149s13.077-29.149,29.15-29.149
				s29.149,13.076,29.149,29.149S2092.552,1994.052,2076.479,1994.052z"/>
			<path style="fill:#480000;" d="M2076.478,1942.253c12.489,0,22.65,10.161,22.65,22.65c0,12.489-10.161,22.65-22.65,22.65
				c-12.489,0-22.65-10.161-22.65-22.65C2053.829,1952.413,2063.989,1942.253,2076.478,1942.253 M2076.478,1929.253
				c-19.689,0-35.65,15.961-35.65,35.65c0,19.689,15.961,35.65,35.65,35.65c19.689,0,35.65-15.961,35.65-35.65
				C2112.128,1945.214,2096.167,1929.253,2076.478,1929.253L2076.478,1929.253z"/>
		</g>
	</g>
	<g>
		<g>
			<path style="fill:#480000;" d="M2076.48,1969.4c-1.321,0-2.526-0.547-3.394-1.539l-650.319-744.16l-33.351-38.17l-96.069-109.919
				l-559.86-640.651c-0.791-0.905-1.182-2.064-1.102-3.263s0.624-2.295,1.529-3.086c1.051-0.919,2.188-1.111,2.957-1.111
				c1.321,0,2.525,0.546,3.393,1.538l559.86,640.651l96.07,109.919l33.351,38.171l650.319,744.16
				c1.633,1.868,1.44,4.717-0.428,6.351C2078.385,1969.207,2077.248,1969.4,2076.48,1969.4z"/>
			<path style="fill:#480000;" d="M736.871,421c-2.568,0-5.149,0.895-7.234,2.717c-4.574,3.997-5.042,10.947-1.044,15.521
				l559.86,640.651l96.068,109.918l33.351,38.171l650.319,744.16c2.176,2.489,5.224,3.762,8.288,3.762
				c2.567,0,5.147-0.895,7.233-2.717c4.574-3.998,5.042-10.947,1.045-15.521l-650.319-744.159l-33.351-38.172l-96.069-109.919
				l-559.86-640.65C742.983,422.273,739.936,421,736.871,421L736.871,421z"/>
		</g>
	</g>
	<g>
		<g>
			<path style="fill:#480000;" d="M1588.258,1025.42c-0.725,0-1.804-0.175-2.828-1.005c-0.934-0.758-1.516-1.833-1.641-3.028
				s0.224-2.368,0.981-3.302l451.04-556.01c0.858-1.059,2.135-1.666,3.501-1.666c0.725,0,1.804,0.175,2.829,1.006
				c1.927,1.563,2.223,4.403,0.66,6.33l-451.04,556.01C1590.902,1024.813,1589.625,1025.42,1588.258,1025.42z"/>
			<path style="fill:#480000;" d="M2039.311,453.91c-3.201,0-6.375,1.391-8.549,4.071l-451.04,556.01
				c-3.827,4.718-3.105,11.646,1.613,15.473c2.038,1.653,4.488,2.457,6.923,2.457c3.202,0,6.375-1.391,8.55-4.07l451.04-556.01
				c3.827-4.718,3.104-11.645-1.613-15.472C2044.196,454.714,2041.746,453.91,2039.311,453.91L2039.311,453.91z"/>
		</g>
	</g>
	<g>
		<g>
			<path style="fill:#480000;" d="M572.861,2093.646c-0.913,0-1.797-0.278-2.555-0.804c-0.987-0.686-1.649-1.714-1.863-2.896
				s0.046-2.378,0.73-3.365c34.626-49.916,82.309-89.326,137.893-113.968l0.171-0.076l4.214-2.166
				c19.441-10.354,49.023-18.134,83.382-21.951c5.691-0.632,11.602-0.953,17.568-0.953c29.012,0,56.939,7.527,81.578,14.169
				c20.922,5.64,40.142,11.595,58.762,18.207l10.524,3.737l-1.949-10.997c-5.459-30.799-6.778-62.043-3.921-92.865
				c3.258-35.146,12.078-70.418,25.504-102.004c14.771-34.751,35.152-66.574,60.576-94.586l16.027-17.556l242.468-298.891
				c1.975-2.435,3.968-4.91,5.985-7.416c29.933-37.186,67.185-83.466,121.401-83.466c1.586,0,3.202,0.039,4.801,0.117
				c10.324,0.503,20.733,3.962,30.104,10.002c11.63,7.498,21.953,18.874,31.559,34.778c9.413,15.584,14.211,28.954,15.1,42.077
				c0.224,3.303,0.179,6.673-0.133,10.016c-1.745,18.716-12.917,37.638-29.156,49.382c-9.84,7.116-20.78,10.877-31.636,10.877
				c-3.509,0-7.018-0.396-10.428-1.179c-20.563-4.72-41.829-24.866-40.328-49.185c1.174-19.042,15.836-30.907,20.302-34.091
				c0.97-0.691,1.951-0.836,2.603-0.836c1.479,0,2.818,0.688,3.673,1.888c0.698,0.979,0.973,2.171,0.774,3.356
				s-0.847,2.223-1.826,2.92c-2.596,1.852-15.589,11.865-16.543,27.317c-1.21,19.612,16.375,35.959,33.36,39.857
				c2.802,0.644,5.668,0.97,8.519,0.97c11.197,0,20.458-4.997,26.256-9.188c13.984-10.113,23.981-26.962,25.469-42.925
				c0.267-2.863,0.306-5.748,0.115-8.571c-0.789-11.638-5.182-23.723-13.825-38.032c-8.881-14.705-18.279-25.129-28.731-31.866
				c-8.045-5.187-16.921-8.151-25.667-8.577c-1.413-0.068-2.843-0.104-4.249-0.104c-50.023,0-84.28,42.558-114.505,80.105
				c-2.042,2.537-4.033,5.011-6.005,7.441l-242.639,299.102l-16.19,17.734c-24.745,27.263-44.574,58.228-58.949,92.047
				c-13.068,30.742-21.653,65.085-24.826,99.316c-2.923,31.532-1.361,63.474,4.645,94.938l2.278,12.012l3.311,1.32
				c5.496,2.19,11.004,4.475,16.372,6.788c11.249,4.851,24.121,10.792,34.509,19.953c8.516,7.511,21.029,25.934,20.84,41.626
				c-0.083,6.87-2.556,12.396-7.352,16.424c-3.321,2.79-7.5,4.204-12.421,4.204c-12.285,0.002-27.336-8.831-39.281-23.051
				c-13.138-15.643-19.26-38.774-23.126-57.179l-0.733-3.488l-3.334-1.258c-22.071-8.325-45.107-15.689-70.424-22.514
				c-24.086-6.492-51.374-13.847-79.417-13.847c-5.595,0-11.111,0.298-16.396,0.886c-33.297,3.699-61.752,11.136-80.125,20.939
				l-4.87,2.483c-54.123,23.968-100.55,62.321-134.264,110.922C575.727,2092.923,574.341,2093.646,572.861,2093.646z
				 M978.464,2010.634c4.59,17.096,10.375,29.638,17.686,38.343c12.341,14.69,25.128,19.902,32.329,19.903h0
				c2.731,0,4.981-0.725,6.687-2.154c2.744-2.308,4.097-5.461,4.147-9.648c0.141-11.692-10.268-28.129-17.793-34.766
				c-9.399-8.289-21.021-13.653-32.12-18.438c-0.7-0.303-1.403-0.604-2.109-0.905L975,1997.729L978.464,2010.634z"/>
			<path style="fill:#480000;" d="M1429.358,1269.3c-57.328,0-95.568,47.506-126.465,85.891c-2.011,2.499-4,4.969-5.969,7.396
				l-242.349,298.743l-15.912,17.43c-25.915,28.552-46.689,60.989-61.745,96.411c-13.687,32.197-22.675,68.143-25.995,103.947
				c-2.913,31.419-1.569,63.221,3.993,94.6c-18.716-6.646-38.346-12.725-59.242-18.357c-25.296-6.818-53.4-14.394-83.274-14.394
				c-6.026,0-12.124,0.308-18.285,0.993c-35.162,3.906-65.569,11.942-85.636,22.63l-4.048,2.081
				c-56.673,25.125-105.289,65.303-140.599,116.205c-3.463,4.991-2.223,11.845,2.769,15.308c1.912,1.326,4.097,1.963,6.26,1.963
				c3.484,0,6.912-1.651,9.048-4.731c33.067-47.668,78.614-85.275,131.717-108.755l4.988-2.544l0.148-0.077
				c17.663-9.425,45.287-16.604,77.784-20.214c5.238-0.582,10.467-0.846,15.677-0.846c27.187,0,53.798,7.174,77.726,13.623
				c24.947,6.724,48.012,14.092,69.822,22.319c4.428,21.077,10.902,43.82,24.511,60.023c13.687,16.294,30.356,25.37,44.254,25.37
				c0.001,0,0.003,0,0.004,0c6.276,0,11.989-1.852,16.602-5.727c6.222-5.226,9.566-12.6,9.671-21.323
				c0.216-17.923-13.343-38.027-23.041-46.579c-11.105-9.794-24.527-15.999-36.236-21.047c-5.446-2.348-10.955-4.632-16.538-6.857
				c-0.254-1.333-0.502-2.65-0.748-3.95l-0.864-4.563c-5.891-30.865-7.425-62.195-4.557-93.12
				c3.112-33.57,11.527-67.241,24.336-97.373c14.09-33.149,33.533-63.507,57.768-90.207l16.106-17.643l0.216-0.238l242.753-299.242
				c1.987-2.448,3.993-4.94,6.021-7.461c29.359-36.473,62.548-77.682,109.442-77.682c1.3,0,2.611,0.032,3.932,0.096
				c7.608,0.37,15.375,2.98,22.461,7.548c9.601,6.189,18.331,15.925,26.689,29.764c8.087,13.39,12.188,24.547,12.903,35.11
				c0.167,2.478,0.133,5.012-0.102,7.529c-1.322,14.18-10.274,29.198-22.806,38.261c-5.353,3.871-13.194,7.956-22.447,7.956
				c-2.275,0-4.636-0.247-7.065-0.805c-14.462-3.319-29.295-17.421-28.327-33.122c0.772-12.512,11.655-20.875,13.828-22.425
				c4.947-3.526,6.099-10.396,2.572-15.342c-2.146-3.011-5.531-4.615-8.966-4.615c-2.209,0-4.44,0.664-6.376,2.043
				c-5.058,3.605-21.665,17.071-23.017,38.983c-1.71,27.717,22.215,50.607,45.363,55.921c3.919,0.899,7.895,1.343,11.881,1.343
				c12.162,0,24.418-4.136,35.446-12.111c17.712-12.81,29.905-33.519,31.819-54.045c0.344-3.688,0.393-7.408,0.146-11.059
				c-0.962-14.195-6.053-28.494-16.021-44.998c-10.129-16.771-21.12-28.835-33.601-36.881c-10.329-6.658-21.848-10.473-33.31-11.031
				C1432.752,1269.341,1431.047,1269.3,1429.358,1269.3L1429.358,1269.3z M1028.479,2062.379c-5.183,0-16.371-4.511-27.352-17.583
				c-7.715-9.187-12.725-22.212-16.386-35.848c0.696,0.297,1.391,0.595,2.085,0.895c10.618,4.577,21.711,9.687,30.394,17.344
				c6.284,5.542,15.708,20.259,15.593,29.813c-0.034,2.86-0.94,4.002-1.822,4.743
				C1030.504,2062.152,1029.643,2062.379,1028.479,2062.379L1028.479,2062.379z"/>
		</g>
	</g>
	<g>
		<g>
			<path style="fill:#480000;" d="M382.366,2073.738c-35.027,0.001-69.778-3.445-103.287-10.243
				c-34.474-6.993-67.036-13.599-105.485-35.449c-87.086-49.491-123.458-132.203-135.41-159.383
				C3.972,1790.866,5.75,1722.398,7.048,1672.405c1.31-50.434,9.369-100.688,23.955-149.369c0.566-1.89,2.338-3.21,4.308-3.21
				c0.434,0,0.87,0.064,1.295,0.191c1.151,0.345,2.099,1.117,2.669,2.176c0.57,1.058,0.694,2.274,0.349,3.427
				c-14.357,47.917-22.29,97.381-23.58,147.018c-1.275,49.144-3.022,116.448,30.379,192.402
				c11.655,26.505,47.124,107.163,131.619,155.182c37.2,21.141,69.077,27.607,102.827,34.453
				c33.185,6.731,67.503,10.146,102.003,10.146c88.917,0.002,159.263-22.693,189.303-32.385
				c37.15-11.984,74.33-28.042,110.516-47.729c0.669-0.364,1.389-0.549,2.14-0.549c1.655,0,3.174,0.9,3.964,2.352
				c1.186,2.18,0.377,4.918-1.803,6.104c-36.675,19.952-74.372,36.231-112.044,48.384c-19.777,6.381-60.931,19.658-114.122,27.161
				C434.584,2071.861,408.186,2073.738,382.366,2073.738L382.366,2073.738z"/>
			<path style="fill:#480000;" d="M35.31,1513.326c-4.733,0-9.106,3.078-10.534,7.845c-14.751,49.231-22.902,100.058-24.226,151.065
				c-1.314,50.606-3.113,119.915,31.684,199.043c12.167,27.668,49.19,111.863,138.148,162.418
				c39.35,22.362,72.406,29.068,107.404,36.168c34.073,6.912,69.031,10.373,104.565,10.373c0.004,0,0.01,0,0.015,0
				c26.188,0,52.694-1.88,79.366-5.643c53.744-7.581,95.259-20.975,115.21-27.411c38.054-12.276,76.125-28.715,113.155-48.86
				c5.336-2.903,7.309-9.583,4.406-14.92c-1.995-3.667-5.773-5.746-9.673-5.746c-1.775,0-3.577,0.431-5.246,1.339
				c-35.833,19.495-72.639,35.392-109.396,47.249c-30.872,9.96-99.413,32.076-187.316,32.074
				c-31.379-0.001-65.236-2.82-100.711-10.017c-33.227-6.74-64.611-13.107-100.907-33.734
				c-82.623-46.954-117.439-126.129-128.88-152.146c-32.816-74.623-31.091-141.087-29.831-189.617
				c1.274-49.062,9.116-97.954,23.308-145.321c1.744-5.819-1.561-11.951-7.38-13.694
				C37.418,1513.476,36.355,1513.326,35.31,1513.326L35.31,1513.326z"/>
		</g>
	</g>
	<g>
		<g>
			<path style="fill:#480000;" d="M1297.291,1097.599l74.695,85.464c-314.099,395.682-392.293,492.905-401.047,502.823l-0.405,0.324
				l-1.033,1.24l-10.257,12.313c-11.179,12.312-21.487,25.579-30.638,39.438c-14.87,22.506-35.236,53.328-42.291,96.41
				c-2.671,16.349-3.184,33.011-1.547,49.769c-6.355-1.017-12.729-1.791-19.087-2.315c-5.565-0.459-10.546-0.673-15.674-0.673
				c-20.682,0-58.281,3.184-145.639,30.718c-15.201,4.788-21.811,7.127-33.813,11.372c-8.513,3.011-20.171,7.135-39.965,13.912
				c-90.092,30.857-131.718,44.884-174.347,54.028c-43.591,9.346-69.903,14.988-100.979,14.988c-5.977,0-11.961-0.207-18.289-0.633
				l-0.059-0.004c-23.747-1.606-79.358-5.369-130.593-39.32c-72.553-48.077-105.229-125.981-118.249-168.14
				c-7.344-23.784-29.165-109.893-1.603-219.347c5.727-22.751,16.59-57.167,35.814-91.926c24.1-43.574,54.901-76.32,91.542-97.326
				c13.127-7.518,40.443-23.163,76.423-23.162c1.708,0,3.443,0.035,5.157,0.105c23.177,0.939,46.418,8.271,67.208,21.203
				c20.444,12.716,37.624,30.227,49.69,50.649c12.317,20.874,30.685,63.008,15.31,110.665c-2.415,7.496-25.213,73.466-81.359,81.34
				c-3.67,0.514-7.437,0.775-11.197,0.775c-11.932,0-23.958-2.539-35.744-7.546c-2.315-0.984-4.599-2.052-6.849-3.206
				c4.301-2.006,8.454-4.338,12.449-6.995c29.212-19.428,54.862-60.192,42.149-103.784c-8.491-29.103-31.941-52.371-59.742-59.277
				c-5.73-1.424-11.628-2.145-17.53-2.145c-37.054,0-66.867,28.159-81.192,41.689c-54.792,51.734-77.103,150.86-74.909,226.151
				c2.923,99.996,61.379,185.101,148.923,216.816c30.036,10.882,63.553,16.4,99.62,16.4c31.683,0,66.363-4.28,103.079-12.721
				c59.843-13.773,106.035-44.239,198.061-104.937l0.092-0.061c50.399-33.255,103.265-70.459,147.054-127.037l26.241-31.212
				l0.13-0.155l0.126-0.158L1297.291,1097.599 M1296.735,1072.65l-472.22,591.48l-26.45,31.46
				c-41.69,53.96-92.67,90.25-143.41,123.73c-90.59,59.75-135.88,89.63-192.93,102.76c-32.306,7.427-66,12.313-99.491,12.313
				c-32.027,0-63.867-4.464-94.169-15.443c-84.55-30.63-135.8-113.99-138.38-202.24c-2.02-69.31,17.58-164.65,69.9-214.05
				c13.529-12.779,39.535-37.323,70.208-37.323c4.468,0,9.03,0.52,13.672,1.673c23.51,5.84,41.79,26.12,48.24,48.23
				c10.14,34.77-10.39,69.18-35.65,85.98c-13.73,9.13-28.12,12.56-40.75,13.29c22.738,21.521,51.355,33.779,79.754,33.779
				c4.486,0,8.965-0.306,13.416-0.929c66.31-9.3,91.79-84.27,94.37-92.28c19.89-61.65-10.94-113.84-16.77-123.72
				c-26.87-45.48-76.48-77.52-130.02-79.69c-1.957-0.08-3.895-0.118-5.805-0.118c-39.426-0.001-68.771,16.341-84.375,25.278
				c-90.88,52.1-124.39,157.4-134.92,199.23c-27.38,108.73-7.819,196.724,1.831,227.974c16.77,54.3,53.349,129.476,124.699,176.756
				c54.81,36.32,113.58,40.27,138.41,41.95c6.722,0.452,13.135,0.669,19.369,0.669c32.779,0,60.746-5.998,104.361-15.349
				c44.43-9.53,88.94-24.66,176.15-54.53c47.08-16.12,47.56-17.02,73.4-25.16c79.442-25.039,117.468-29.979,140.831-29.979
				c5.478,0,10.148,0.271,14.359,0.619c14.91,1.23,28.28,3.77,39.79,6.73c-4.19-19.2-6.18-42.27-2.05-67.55
				c6.5-39.69,25.4-68.3,39.85-90.17c10.85-16.43,21.47-29.08,29.36-37.75l10.48-12.58c4.52-3.62,195.35-243.43,411.01-515.12
				L1296.735,1072.65L1296.735,1072.65z"/>
		</g>
	</g>
	<g>
		<g>
			<path style="fill:#480000;" d="M628.715,58.657c14.753,23.7,30.309,46.875,46.525,69.3
				c38.91,53.796,99.214,127.25,165.539,171.686c45,30.148,90.686,50.004,135.79,59.017c10.065,2.011,20.368,3.586,30.715,4.696
				l418.85,491.859l20.8,24.42l12.58,14.769l12.104-15.161l394.894-494.62l12.398-14.458l0.776-0.905l0.633-1.009
				c13.847-22.076,27.387-44.879,40.247-67.779c14.88-26.505,23.995-44.446,25.103-70.058c0.025-0.586,0.58-14.521-2.413-29.076
				c-0.262-1.276-0.576-2.56-0.942-3.849h374.394c36.668,15.44,71.192,34.862,102.664,57.758
				c24.587,17.886,44.762,32.956,61.963,50.417c19.294,19.585,32.489,39.893,41.524,63.908c18.132,48.2,11.731,92.782,9.628,107.427
				c-3.519,24.453-8.339,57.943-34.12,88.405c-6.706,7.913-24.519,28.933-55.697,39.173c-3.862,1.269-17.936,5.408-36.902,5.408
				c-20.759,0-40-4.919-57.192-14.623c-12.893-7.274-36.892-20.814-44.989-47.355c-5.029-16.478-2.916-34.413,6.282-53.306
				c7.771-15.961,20.339-31.535,34.485-42.729c0.664-0.526,1.335-1.043,2.012-1.554c0.691,5.203,1.61,10.267,2.754,15.172
				c1.542,6.614,4.751,20.376,17.283,28.607c6.019,3.957,13.059,5.963,20.926,5.963c11.006,0,20.179-4.033,21.912-4.844
				c27.723-12.99,33.284-47.795,36.271-66.491c5.196-32.475-0.707-59.177-4.686-72.197c-7.023-23.018-23.122-56.537-59.94-85.506
				c-33.584-26.422-75.525-39.819-124.657-39.819c-24.238,0-44.634,3.354-55.588,5.155c-22.932,3.764-76.635,12.58-119.441,52.29
				c-17.493,16.232-35.533,39.719-50.037,58.604c-11.101,14.457-21.766,29.373-31.708,44.346l-7.946,9.935l-0.024,0.03l-0.024,0.03
				c-2.228,2.813-225.381,284.61-450.483,568.471l-8.17,10.302l8.523,10.011l17.302,20.323l3.008,3.532l1.385,1.626l26.083,30.629
				l45.865,53.859l15.944,18.722l45.464,53.388l36.354,42.69l36.354,42.69l79.769,93.672l24.134,28.34l58.456,68.643l40.585,47.658
				l40.584,47.658l23.788,27.934l51.721,60.735l65.608,77.042l13.362,15.691l38.104,44.744l19.105,22.434
				c2.823,3.315,5.609,6.857,8.559,10.607c7.809,9.929,15.884,20.195,26.305,28.401c14.748,11.613,34.131,17.385,49.704,22.024
				c8.616,2.568,17.425,4.706,26.32,6.392v262.22c-15.107-31.286-30.642-57.818-43.442-79.68c-2.231-3.811-4.374-7.47-6.408-10.975
				l-1.723-2.971c-38.284-66.011-81.676-140.83-169.087-197.458c-44.639-28.919-93.797-49.708-146.2-61.832l-504.996-589.737
				l-33.31-38.9l-95.06-111.01l-596.86-697.01l-0.402-0.47l-0.437-0.437l-16.78-16.78l-0.881-0.881l-1.006-0.734
				c-14.787-10.782-31.01-19.279-48.218-25.256c-13.47-4.678-27.43-7.762-41.668-9.215V58.657 M612.715,0v293.85
				c14.65,0.26,32.78,2.45,52.42,9.27c19.03,6.61,33.74,15.56,44.04,23.07l16.78,16.78l596.86,697.01l95.06,111.01l33.31,38.9
				l508.45,593.77c39.06,8.57,91.79,25.57,146.2,60.82c85.47,55.37,127.23,128.77,165.67,195.03
				c21.8,37.56,55.84,92.53,79.69,163.86v-357.06c-11.969-1.62-24.63-4.21-37.75-8.12c-14.741-4.391-32.149-9.634-44.375-19.261
				c-12.565-9.894-22.145-24.556-32.581-36.812c-6.368-7.478-12.737-14.956-19.105-22.435
				c-17.156-20.145-34.311-40.29-51.466-60.436c-21.869-25.68-43.739-51.361-65.608-77.042
				c-25.169-29.556-50.339-59.112-75.509-88.668c-27.056-31.772-54.113-63.544-81.169-95.316
				c-27.53-32.327-55.06-64.656-82.59-96.983c-26.59-31.224-53.18-62.448-79.769-93.672c-24.236-28.46-48.472-56.92-72.708-85.38
				c-20.469-24.036-40.938-48.073-61.407-72.109c-15.289-17.953-30.577-35.906-45.865-53.859
				c-8.695-10.21-17.389-20.419-26.084-30.629c-1.464-1.72-2.929-3.44-4.393-5.159l-17.3-20.32
				c227.71-287.15,450.49-568.48,450.49-568.48l8.39-10.49c7.21-10.88,17.8-26.25,31.46-44.04c13.94-18.15,31.72-41.3,48.23-56.62
				c39.27-36.43,88.61-44.53,111.15-48.23c11.005-1.81,30.09-4.944,52.996-4.944c34.435,0,77.507,7.082,114.764,36.394
				c9.38,7.38,40.88,32.86,54.53,77.6c2.02,6.61,9.39,32.5,4.19,65c-2.74,17.15-7.22,45.14-27.26,54.53
				c-0.52,0.244-7.347,3.333-15.123,3.333c-4.04,0-8.335-0.833-12.137-3.333c-6.38-4.19-8.729-11.32-10.49-18.87
				c-1.92-8.23-4.03-20.73-3.9-37.41l1.17-1.55c-9.021,3.9-18.43,9.21-27.55,16.43c-28.61,22.64-59.85,68.33-46.14,113.25
				c9.96,32.65,38.8,48.93,52.43,56.62c23.018,12.992,46.164,16.687,65.053,16.687c22.2,0,38.525-5.1,41.896-6.207
				c34.8-11.43,54.69-34.33,62.91-44.03c28.75-33.97,34.07-70.9,37.75-96.47c2.58-17.97,8.71-64.3-10.49-115.34
				c-21.47-57.07-62.45-87.73-109.05-121.63c-24.59-17.89-60.76-40.9-108.87-60.82c-137.35,0-320.26,0-403.86,0
				c6.12,8.05,10.04,15.82,11.53,23.07c2.63,12.79,2.1,25.17,2.1,25.17c-0.949,21.94-8.99,37.83-23.07,62.91
				c-13.77,24.52-27.18,46.91-39.85,67.11l-12.58,14.67l-395.07,494.84l-20.8-24.42l-423.04-496.78
				c-10.57-0.93-22.56-2.49-35.57-5.09c-23.02-4.6-70.36-16.65-130.02-56.62c-21.18-14.19-81.34-56.97-161.48-167.77
				C665.535,87.23,639.295,47.73,612.715,0L612.715,0z"/>
		</g>
	</g>
</g>
</svg>
