<?xml version="1.0" encoding="iso-8859-1"?>
<!-- Generator: Adobe Illustrator 24.0.1, SVG Export Plug-In . SVG Version: 6.00 Build 0)  -->
<svg version="1.1" xmlns="http://www.w3.org/2000/svg" xmlns:xlink="http://www.w3.org/1999/xlink" x="0px" y="0px"
	 viewBox="0 0 1481.753 2203.277" style="enable-background:new 0 0 1481.753 2203.277;" xml:space="preserve">
<g id="Layer_5">
	<linearGradient id="SVGID_1_" gradientUnits="userSpaceOnUse" x1="549.0476" y1="1165.5839" x2="532.381" y2="143.3617">
		<stop  offset="0" style="stop-color:#8B1D1A"/>
		<stop  offset="0.25" style="stop-color:#550000"/>
		<stop  offset="0.5" style="stop-color:#3A0000"/>
		<stop  offset="0.75" style="stop-color:#1E0000"/>
		<stop  offset="1" style="stop-color:#000000"/>
	</linearGradient>
	<path style="fill:url(#SVGID_1_);" d="M1085.093,1229.894c0,0-142.239,0-143.027,0c-10.493,0-21.12-0.244-31.703-0.314
		c-35.269-0.236-70.65-8.834-98.669-30.375c-24.865-19.116-40.575-45.449-54.051-73.251c-24.4-50.35-25.93-97.98-24.26-126.18
		l-0.48-12.13v-736.26c-18.23-42.45-38.94-74.82-55.33-97.28c-29.37-40.21-64.641-88.115-122.55-117.41
		c-20.347-10.293-36.294-17.735-53.38-22.77c-26.355-7.766-67.48-18.48-138.32-11.85c-76.25,7.13-129.3,22.1-191.7,53.68
		c-21.64,10.95-68.45,39.13-108.34,84.86c-21.52,24.66-53.63,71.06-61.52,134.82c-1.77,14.34-6.15,53.64,12.13,98.28
		c23.24,56.75,67.76,84.68,86.15,95.85c19.64,11.94,84.44,51.32,163.79,29.12c16.71-4.68,85.01-26.34,117.69-97.06
		c6.41-13.86,37.35-85.66-3.64-154.09c-5.46-9.11-11.82-17.54-18.94-25.2c0.33,15.59-2.07,34.68-11.39,54.32
		c-4.8,10.11-18.7,38.32-50.96,53.38c-44.89,20.95-88.65-0.69-97.06-4.85c-9.19-4.55-44.11-22.52-59.46-64.31
		c-14.59-39.75-7.02-82.06,20.74-114.22c22.45-26.02,53.74-42.86,85.79-55.26c40.14-15.53,82.69-25,125.64-27.6
		c41.12-2.48,85.91-6.11,124.17,12.31c43,20.7,70.09,70.37,64.2,117.73l0.28,7.51c0,0,0.17,822.98,0.2,951.51
		c12.53,1.65,26.42,4.26,41.25,8.29c47.62,12.97,79.89,33.94,101.92,48.53c46.53,30.8,74.25,65.92,82.5,75.8
		c3.2,3.83,6.13,7.5,8.76,10.92h289.57V1229.894z"/>
	<linearGradient id="SVGID_2_" gradientUnits="userSpaceOnUse" x1="927.9274" y1="1159.4065" x2="911.2607" y2="137.1843">
		<stop  offset="0" style="stop-color:#8B1D1A"/>
		<stop  offset="0.25" style="stop-color:#550000"/>
		<stop  offset="0.5" style="stop-color:#3A0000"/>
		<stop  offset="0.75" style="stop-color:#1E0000"/>
		<stop  offset="1" style="stop-color:#000000"/>
	</linearGradient>
	<path style="fill:url(#SVGID_2_);" d="M1327.784,435.662c-0.146,15.114,0.026,30.315,0.041,45.628
		c0.056,58.249,0.113,116.498,0.169,174.746c0.081,83.916-0.061,167.836-0.061,251.753c0,81.216,0,162.432,0,243.648
		c0,52.504,0,105.008,0,157.512c0,7.298,0,14.596,0,21.894l-1.25,7.44c1.44,28.2,2.29,69.2-1.21,118.9
		c-1.05,14.83-2.25,27.14-3.64,40.04c-5.9,54.66-16.28,129.57-24.27,168.65c-31.11,152.15-112.84,258.43-112.84,258.43
		c-87.02,113.18-193.04,160.14-215.96,169.86c-46.22,19.61-118.77,49.35-214.76,38.83c-40.07-4.39-112.52-18.9-183.2-71.59
		c-36.99-27.56-103.3-87.8-132.25-186.84c-13.98-47.81-14.8-89.43-13.35-116.48l-0.51-11.01c-0.21-27.83,3.57-68.76,23.27-112.46
		c3.91-8.68,14.53-30.96,34.12-55.84c17.99-22.84,36.07-45.8,68.26-61.27c42.47-20.42,83.11-15.09,101.6-12.41
		c13.62,1.96,38.16,5.76,65.15,21.71c16.23,9.6,52.86,35.13,68.25,80.67c6.09,18,7.01,33.68,7.76,46.53
		c1.22,20.9,2.24,38.2-5.43,58.17c-7.62,19.87-19.95,32.28-33.35,45.76c-8.91,8.97-16.93,17.05-30.25,24.05
		c-5.62,2.95-22.71,11.71-44.21,11.63c-13.68-0.05-25.74-3.66-35.81-8.55c7.22-3.18,36.75-16.18,46.86-48.82
		c7.97-25.7,1.26-55.13-18.2-75.22c-23.07-23.84-57.27-27.53-82.5-18.2c-27.6,10.2-40.01,34.32-47.32,48.53
		c-13.78,26.79-15.05,52.02-14.35,64.3l-1.42,31.55c-0.11,23.32,2.52,60.19,18.2,101.92c3.5,9.33,15.56,39.95,41.25,74.01
		c15.79,20.94,42.76,55.92,89.78,80.07c45.31,23.28,86.47,24.82,111.63,25.48c24.89,0.66,128.58,0.36,214.75-74.01
		c55.13-47.58,75.99-102.1,98.28-162.58c14.15-38.4,54.63-194.04,42.82-317.88l-0.43-9.71V282.744c24.45-1.15,50.84-4.05,78.7-9.52
		c84.01-16.52,151.252-58.74,203.34-85.34c-24.127,31.493-65.03,75.22-84.27,139.151
		C1330.353,362.979,1328.137,399.065,1327.784,435.662z"/>
</g>
<g id="Layer_7">
	<g>
		<path style="fill:#BFCBC2;" d="M706.033,1558.188c46.801,31.648,51.257,104.699,12.272,141.576
			C729.586,1655.895,725.263,1600.846,706.033,1558.188z"/>
	</g>
	<g>
		<path style="fill:#BFCBC2;" d="M633.589,1538.365c43.79,14.105,73.854,67.562,58.058,114.557
			C681.687,1613.003,661.314,1571.445,633.589,1538.365z"/>
	</g>
	<g>
		<path style="fill:#BFCBC2;" d="M569.994,1539.408c38.231,4.978,72.032,44.262,67.58,85.212
			C622.025,1593.824,598.116,1562.765,569.994,1539.408z"/>
	</g>
	<g>
		<path style="fill:#BFCBC2;" d="M522.694,1559.428c34.39-9.033,71.793,27.701,61.387,63.288
			C576.455,1595.462,551.51,1568.453,522.694,1559.428z"/>
	</g>
	<g>
		<path style="fill:#BFCBC2;" d="M496.418,1584.347c26.975-8.135,60.801,18.818,54.476,49.699
			C536.972,1615.754,517.874,1597.595,496.418,1584.347z"/>
	</g>
	<path style="fill:#BFCBC2;" d="M534.275,1662.123c-14.637-22.625-41.143-37.072-68.091-37.112"/>
	<g>
		<path style="fill:#BFCBC2;" d="M1256.358,979.556c-82.009-79.111-5.291-189.356-4.479-219.956
			c7.503-40.265-47.214-56.962-46.202-14.129c-13.428-50.964,61.092-43.172,65.242,1.908
			C1272.652,834.813,1202.135,893.092,1256.358,979.556z"/>
	</g>
	<g>
		<path style="fill:#BFCBC2;" d="M1297.622,762.251c6.35-66.251-74.129-122.743-110.518-53.907
			c-19.486,42.972,24.288,105.55,48.976,64.751c-14.444,54.938-98.875-9.502-67.941-78.162
			C1217.26,605.14,1326.848,679.302,1297.622,762.251z"/>
	</g>
	<g>
		<path style="fill:#BFCBC2;" d="M1312.321,403.772c-32.093,1.853-70.107,19.98-81.11,54.736
			c-23.092,70.441,100.619,127.926,39.902,196.059c30.443-57.957-45.249-96.891-61.278-148.447
			C1187.519,439.123,1255.097,389.373,1312.321,403.772z"/>
	</g>
	<g>
		<path style="fill:#BFCBC2;" d="M1224.661,394.958c-58.793,53.799-70.64,120.261,13.233,156.096
			c32.838,25.271,24.704,76.715-12.852,88.686c69.483-68.818-44.424-83.927-52.121-107.261
			C1134.16,477.319,1177.779,415.453,1224.661,394.958z"/>
	</g>
	<g>
		<path style="fill:#BFCBC2;" d="M1323.044,436.003c-77.469-1.53-95.617,98.905-24.245,125.06
			C1204.469,548.743,1233.322,411.2,1323.044,436.003z"/>
	</g>
	<g>
		<path style="fill:#BFCBC2;" d="M1303.984,716.971c-11.693-44.935-71.224-29.572-105.364-48.009
			c-41.125-20.502-39.752-79.721,2.64-95.839c-28.365,19.844-29.313,64.505,5.074,81.559
			C1241.846,670.953,1302.637,665.458,1303.984,716.971z"/>
	</g>
	<g>
		<path style="fill:#BFCBC2;" d="M1264.692,331.934c-39.416,55.387-79.488-24.017-5.146-51.04
			c60.131-2.011,47.138,84.541-14.553,96.342c21.411-10.729,54.014-48.336,32.14-74.359
			C1243.795,273.381,1197,376.637,1264.692,331.934z"/>
	</g>
	<g>
		<path style="fill:#BFCBC2;" d="M1240.201,279.87c-82.512,38.912-55.155,108.503-10.974,97.261
			C1169.366,404.296,1145.137,295.651,1240.201,279.87z"/>
	</g>
	<g>
		<path style="fill:#BFCBC2;" d="M668.845,776.142c-78.891-99.37-6.16-232.826-8.376-269.812
			c-2.938-41.781-57.753-33.453-34.388,35.088c-50.257-70.606,33.424-112.71,57.806-46.323c8.112,32.215-5.691,59.956-12.499,92.73
			C654.712,651.584,642.122,716.148,668.845,776.142z"/>
	</g>
	<g>
		<path style="fill:#BFCBC2;" d="M593.861,659.813c-21.539-61.391,68.564-86.167,72.87-135.787
			C674.695,581.792,586.386,605.187,593.861,659.813z"/>
	</g>
	<g>
		<path style="fill:#BFCBC2;" d="M604.681,724.647c-29.121-44.982,14.397-100.533,54.145-123.167
			C630.534,634.357,589.906,675.92,604.681,724.647z"/>
	</g>
	<g>
		<path style="fill:#BFCBC2;" d="M688.282,729.054c-31.405-48.356-57.496-113.025-22.449-167.308
			C647.684,614.567,672.555,677.939,688.282,729.054z"/>
	</g>
	<g>
		<path style="fill:#BFCBC2;" d="M695.177,327.044c3.332-67.24-98.574-65.524-80.103,1.752
			c4.834,11.769,17.253,20.544,29.638,27.675c139.813,68.704,2.342,176.513-21.005,90.768c21.279,44.289,81.258,7.755,52.189-34.635
			c-26.348-29.833-79.981-33.549-90.033-79.543C567.799,235.28,716.74,232.73,695.177,327.044z"/>
	</g>
	<g>
		<path style="fill:#BFCBC2;" d="M626.271,410.951c-12.212,24.522,1.794,59.694,38.474,59.972
			C629.515,506.097,571.268,439.333,626.271,410.951z"/>
	</g>
	<g>
		<path style="fill:#BFCBC2;" d="M707.637,294.309c-0.217-84.184-106.462-81.846-133.772-12.791
			C593.721,178.387,733.348,207.777,707.637,294.309z"/>
	</g>
	<g>
		<path style="fill:#BFCBC2;" d="M576.993,136.396c5.174,7.657,15.52,12.332,28.027,13.547
			c129.244,1.924,18.264,143.839-18.035,44.472c36.871,66.081,112.117-24.49,19.425-35.955
			C593.997,154.91,581.838,149.847,576.993,136.396z"/>
	</g>
	<g>
		<path style="fill:#BFCBC2;" d="M157.795,476.4c68.878,31.233,87.157-89.667,37.668-104.065
			c-47.542-17.332-88.758,64.695-45.869,72.847c-59.037-1.613-16.005-121.54,57.463-93.244
			C284.82,383.249,231.624,531.753,157.795,476.4z"/>
	</g>
	<g>
		<path style="fill:#BFCBC2;" d="M187.407,341.488c-59.811-53.651-124.31,56.496-82.924,110.773
			C28.53,373.958,146.144,269.895,187.407,341.488z"/>
	</g>
	<g>
		<path style="fill:#BFCBC2;" d="M83.885,303.256c-44.734,90.506-94.354-49.564-5.219-60.001
			c91.736,18.528,36.538,185.779-43.999,118.943c87.144,39.869,85.838-109.967,32.793-93.99
			C30.165,288.688,41.113,355.869,83.885,303.256z"/>
	</g>
	<g>
		<path style="fill:#BFCBC2;" d="M114.579,249.122c-8.699-41.603-72.036-52.224-84.378,1.946
			C25.833,196.766,112.407,184.274,114.579,249.122z"/>
	</g>
	<g>
		<path style="fill:#BFCBC2;" d="M275.966,414.966c19.464,33.004,64.917-30.588,14.762-39.111
			c-54.513,4.599-54.292,90.632,2.807,76.821c-86.457,33.351-69.209-116.999,11.202-91.838
			C364.157,394.814,290.854,460.012,275.966,414.966z"/>
	</g>
	<g>
		<path style="fill:#BFCBC2;" d="M342.525,415.374c7.505-27.269-0.067-80.876-39.381-61.089
			C343.173,322.832,362.775,386.149,342.525,415.374z"/>
	</g>
	<path style="fill:#BFCBC2;" d="M1212.318,750.351c0.746-14.986,21.897-14.418,22.61,0.001
		C1234.181,765.337,1213.03,764.769,1212.318,750.351z"/>
	<path style="fill:#BFCBC2;" d="M1202.897,605.27c1-17.92,25.798-16.576,26.378,0.001
		C1228.275,623.19,1203.477,621.845,1202.897,605.27z"/>
	<path style="fill:#BFCBC2;" d="M1272.611,503.524c1.001-17.92,25.798-16.576,26.378,0.001
		C1297.989,521.444,1273.191,520.1,1272.611,503.524z"/>
	<path style="fill:#BFCBC2;" d="M187.328,413.084c-1.001-17.92-25.798-16.576-26.378,0.001
		C161.95,431.004,186.747,429.66,187.328,413.084z"/>
	<path style="fill:#BFCBC2;" d="M641.413,320.76c1.243-20.688,29.559-18.835,30.147,0.001
		C670.317,341.448,642.001,339.595,641.413,320.76z"/>
	<path style="fill:#BFCBC2;" d="M618.803,186.983c0.245-9.3,14.295-10.064,15.073,0.001
		C633.631,196.283,619.581,197.047,618.803,186.983z"/>
	<path style="fill:#BFCBC2;" d="M645.181,437.578c0.3-11.882,18.099-12.416,18.842,0.001
		C663.723,449.46,645.924,449.995,645.181,437.578z"/>
</g>
<g id="Layer_4">
	<g>
		<path style="fill:#FFB400;" d="M554.702,76.628c41.977,26.064,69.773,64.119,94.599,98.108
			c18.942,25.957,35.273,54.179,48.603,83.98v728.928v0.692l0.027,0.692l0.414,10.457c-2.654,49.728,6.947,98.697,27.804,141.735
			c13.894,28.664,32.388,61.265,64.214,85.733c22.809,17.535,50.722,29.192,82.057,34.441h-60.156
			c-0.059-0.072-0.119-0.144-0.179-0.217c-11.04-13.354-40.364-48.824-88.494-80.684c-21.679-14.358-57.964-38.389-112.068-53.125
			c-5.107-1.388-10.257-2.661-15.435-3.818c-0.043-192.478-0.193-922.214-0.193-922.214l0-0.648l-0.024-0.648l-0.183-4.899
			C600.069,152.133,583.969,108.162,554.702,76.628 M141.54,115.912c-2.504,2.57-4.911,5.194-7.222,7.872
			c-35.959,41.659-46.09,97.416-27.099,149.157c13.2,35.936,40.469,65.629,76.796,83.614c29.2,14.444,54.922,17.476,71.359,17.476
			c19.71,0,38.558-4.132,56.024-12.283c20.765-9.694,38.236-24.299,52.191-43.585c1.577,31.6-9.113,58.561-13.838,68.779
			c-11.025,23.859-28.485,43.532-51.893,58.475c-17.951,11.458-34.937,17.176-43.455,19.561c-12.737,3.563-25.863,5.37-39.013,5.37
			c-46.682,0-83.358-22.297-97.177-30.699c-14.379-8.734-52.574-31.933-71.93-79.199c-15.174-37.055-11.116-69.927-9.784-80.718
			c2.992-24.176,10.396-47.83,22.009-70.305c10.581-20.481,22.778-36.211,31.152-45.806
			C104.588,146.505,122.028,130.47,141.54,115.912 M405.79,0c-12.835,0-26.932,0.62-42.468,2.073
			c-76.25,7.13-129.3,22.1-191.7,53.68c-21.64,10.95-68.45,39.13-108.34,84.86c-21.52,24.66-53.63,71.06-61.52,134.82
			c-1.77,14.34-6.15,53.64,12.13,98.28c23.24,56.75,67.76,84.68,86.15,95.85c15.455,9.396,58.878,35.785,115.347,35.785
			c15.29,0,31.535-1.935,48.443-6.665c16.71-4.68,85.01-26.34,117.69-97.06c6.41-13.86,37.35-85.66-3.64-154.09
			c-5.46-9.11-11.82-17.54-18.94-25.2c0.33,15.59-2.07,34.68-11.39,54.32c-4.8,10.11-18.7,38.32-50.96,53.38
			c-14.214,6.634-28.318,8.998-41.219,8.998c-27.842,0-50.094-11.005-55.841-13.848c-9.19-4.55-44.11-22.52-59.46-64.31
			c-14.59-39.75-7.02-82.06,20.74-114.22c22.45-26.02,53.74-42.86,85.79-55.26c40.14-15.53,82.69-25,125.64-27.6
			c15.636-0.943,31.803-2.052,47.939-2.052c26.3,0,52.519,2.947,76.231,14.362c43,20.7,70.09,70.37,64.2,117.73l0.28,7.51
			c0,0,0.17,822.98,0.2,951.51c12.53,1.65,26.42,4.26,41.25,8.29c47.62,12.97,79.89,33.94,101.92,48.53
			c46.53,30.8,74.25,65.92,82.5,75.8c3.2,3.83,6.13,7.5,8.76,10.92h289.57v-66.5c0,0-142.239,0-143.027,0
			c-10.493,0-21.12-0.244-31.703-0.315c-35.269-0.236-70.65-8.834-98.669-30.375c-24.865-19.116-40.575-45.449-54.051-73.251
			c-24.4-50.35-25.93-97.98-24.26-126.18l-0.48-12.13v-736.26c-18.23-42.45-38.94-74.82-55.33-97.28
			c-29.37-40.21-64.641-88.115-122.55-117.41c-20.347-10.294-36.295-17.735-53.38-22.77C481.068,7.861,451.482,0.001,405.79,0
			L405.79,0z"/>
	</g>
	<g>
		<path style="fill:#FFB400;" d="M1322.139,278.692c-5.464,11.924-10.387,24.651-14.482,38.255
			c-12.467,41.417-14.515,81.371-14.872,118.377c-0.1,10.353-0.054,20.818-0.01,30.938c0.022,5.009,0.044,10.03,0.049,15.062
			l0.084,87.374l0.084,87.373c0.049,51.258,0.015,103.39-0.018,153.805c-0.022,32.638-0.043,65.277-0.043,97.914l0,243.648
			l0,157.512v18.974l-0.766,4.561l-0.633,3.768l0.195,3.816c1.926,37.715,1.532,76.291-1.169,114.644
			c-1.094,15.463-2.341,27.768-3.525,38.755c-5.45,50.494-15.631,125.621-23.763,165.395
			c-15.091,73.807-43.076,136.089-63.895,175.34c-22.781,42.949-42.236,68.552-42.401,68.768
			c-48.87,63.561-104.135,105.113-146.687,130.61c5.15-3.917,10.26-8.05,15.312-12.41c63.1-54.458,86.054-116.741,108.254-176.975
			c16.211-43.994,56.868-204.248,44.906-332.404l-0.357-8.061V315.159c16.94-1.788,33.816-4.326,50.453-7.593
			C1262.692,300.912,1293.742,290.516,1322.139,278.692 M618.995,1537.418c11.04,0,20.204,1.194,27.963,2.319
			c10.73,1.544,30.702,4.418,52.317,17.192c6.905,4.084,17.256,11.1,27.356,21.326c11.998,12.149,20.596,25.75,25.559,40.436
			c4.584,13.549,5.29,25.65,5.973,37.353l0.004,0.072c1.207,20.674,1.576,31.16-3.173,43.526
			c-4.978,12.979-13.583,21.636-25.527,33.652c-0.814,0.82-1.6,1.611-2.364,2.375c6.895-35.123-4.017-72.946-29.238-98.984
			c-20.958-21.659-49.575-33.587-80.577-33.588c-13.447,0-27.007,2.385-39.208,6.897c-40.368,14.918-57.89,48.98-66.311,65.35
			c-17.693,34.398-18.823,66.404-18.264,80.354l-1.347,29.932l-0.032,0.704l-0.003,0.705c-0.185,39.324,6.69,77.813,20.43,114.378
			c6.049,16.126,20.079,48.325,46.075,82.789c13.665,18.122,40.671,53.934,86.368,81.553c-17.583-8.553-35.541-19.197-53.281-32.422
			c-23.105-17.215-44.811-38.126-62.769-60.473c-26.274-32.694-45.384-69.071-56.799-108.123
			c-9.875-33.772-13.91-69.026-11.994-104.784l0.094-1.746l-0.081-1.747l-0.478-10.314c-0.171-34.381,6.619-67.063,20.187-97.161
			c5.203-11.55,14.58-29.351,29.716-48.574c16.658-21.149,31.044-39.414,55.919-51.368
			C581.559,1541.33,599.554,1537.418,618.995,1537.418 M1425.443,187.884c-52.088,26.6-119.33,68.82-203.34,85.34
			c-27.86,5.47-54.25,8.37-78.7,9.52v1221.76l0.43,9.71c11.81,123.84-28.67,279.48-42.821,317.88
			c-22.29,60.48-43.15,115-98.28,162.58c-79.038,68.215-172.814,74.113-207.003,74.113c-3.085,0-5.687-0.048-7.747-0.103
			c-25.16-0.66-66.32-2.2-111.63-25.48c-47.02-24.15-73.99-59.13-89.78-80.07c-25.69-34.06-37.75-64.68-41.25-74.01
			c-15.68-41.73-18.31-78.6-18.2-101.92l1.42-31.55c-0.7-12.28,0.57-37.51,14.35-64.3c7.31-14.21,19.72-38.33,47.32-48.53
			c8.294-3.067,17.555-4.727,27.074-4.727c19.437,0,39.94,6.924,55.426,22.927c19.46,20.09,26.17,49.52,18.2,75.22
			c-10.11,32.64-39.64,45.64-46.86,48.82c10.07,4.89,22.13,8.5,35.81,8.55c0.099,0,0.195,0,0.293,0
			c21.361,0,38.323-8.694,43.917-11.631c13.32-7,21.34-15.08,30.25-24.05c13.4-13.48,25.73-25.89,33.35-45.76
			c7.67-19.97,6.65-37.27,5.43-58.17c-0.75-12.85-1.67-28.53-7.76-46.53c-15.39-45.54-52.02-71.07-68.25-80.67
			c-26.99-15.95-51.53-19.75-65.15-21.71c-7.662-1.111-19.126-2.676-32.948-2.676c-19.535,0-43.78,3.127-68.652,15.086
			c-32.19,15.47-50.27,38.43-68.26,61.27c-19.59,24.88-30.21,47.16-34.12,55.84c-19.7,43.7-23.48,84.63-23.27,112.46l0.51,11.01
			c-1.45,27.05-0.63,68.67,13.35,116.48c28.95,99.04,95.26,159.28,132.25,186.84c70.68,52.69,143.13,67.2,183.2,71.59
			c13.78,1.51,27.074,2.191,39.879,2.191c76.396,0,135.296-24.226,174.881-41.021c22.92-9.72,128.94-56.68,215.96-169.86
			c0,0,81.73-106.28,112.84-258.43c7.99-39.08,18.37-113.99,24.27-168.65c1.39-12.9,2.59-25.21,3.64-40.04
			c3.5-49.7,2.65-90.7,1.21-118.9l1.25-7.44c0-7.298,0-14.596,0-21.894c0-52.504,0-105.008,0-157.512c0-81.216,0-162.432,0-243.648
			c0-83.917,0.142-167.837,0.061-251.753c-0.056-58.249-0.113-116.498-0.169-174.747c-0.015-15.313-0.187-30.515-0.041-45.628
			c0.353-36.597,2.569-72.683,13.389-108.627C1360.413,263.104,1401.316,219.377,1425.443,187.884L1425.443,187.884z"/>
	</g>
</g>
<g id="Layer_6">
	<g>
		<g>
			<path style="fill:#480000;" d="M1085.093,140.864c-16.073,0-29.15-13.077-29.15-29.15s13.077-29.15,29.15-29.15
				s29.149,13.077,29.149,29.15S1101.166,140.864,1085.093,140.864z"/>
			<path style="fill:#480000;" d="M1085.093,89.065c12.489,0,22.65,10.161,22.65,22.65s-10.161,22.65-22.65,22.65
				s-22.65-10.161-22.65-22.65S1072.604,89.065,1085.093,89.065 M1085.093,76.065c-19.689,0-35.65,15.961-35.65,35.65
				s15.961,35.65,35.65,35.65s35.65-15.961,35.65-35.65S1104.782,76.065,1085.093,76.065L1085.093,76.065z"/>
		</g>
	</g>
	<g>
		<g>
			<path style="fill:#480000;" d="M1085.093,1623.195c-16.073,0-29.15-13.077-29.15-29.15s13.077-29.149,29.15-29.149
				s29.149,13.076,29.149,29.149S1101.166,1623.195,1085.093,1623.195z"/>
			<path style="fill:#480000;" d="M1085.093,1571.395c12.489,0,22.65,10.161,22.65,22.65c0,12.489-10.161,22.65-22.65,22.65
				s-22.65-10.161-22.65-22.65C1062.443,1581.556,1072.604,1571.395,1085.093,1571.395 M1085.093,1558.395
				c-19.689,0-35.65,15.961-35.65,35.65c0,19.689,15.961,35.65,35.65,35.65s35.65-15.961,35.65-35.65
				C1120.743,1574.356,1104.782,1558.395,1085.093,1558.395L1085.093,1558.395z"/>
		</g>
	</g>
	<g>
		<g>
			<rect x="1080.593" y="118.214" style="fill:#480000;" width="9" height="1463.717"/>
			<polygon style="fill:#480000;" points="1096.093,111.714 1074.093,111.714 1074.093,1588.432 1096.093,1588.432 
				1096.093,111.714 			"/>
		</g>
	</g>
	<g>
		<g>
			<path style="fill:#480000;" d="M926.459,1188.103c-15.606-0.214-69.546-4.664-108.327-52.946
				c-30.679-38.196-33.426-81.865-33.183-98.867l0.111-5.619V298.906c0-2.481,2.019-4.5,4.5-4.5s4.5,2.019,4.5,4.5v731.921
				l-0.112,5.617c-0.229,16.047,2.354,57.16,31.201,93.076c36.201,45.07,86.614,49.344,101.202,49.58l0.278-0.001l4.248-0.113
				h150.116c2.481,0,4.5,2.019,4.5,4.5s-2.019,4.5-4.5,4.5l-150.23,0.003l-4.209,0.115L926.459,1188.103z"/>
			<path style="fill:#480000;" d="M789.559,287.906c-6.075,0-11,4.925-11,11v731.765l-0.11,5.526
				c-0.253,17.706,2.614,63.188,34.615,103.03c40.562,50.499,96.982,55.151,113.309,55.375l0.226,0.003l4.341-0.119h150.052
				c6.075,0,11-4.925,11-11s-4.924-11-11-11H930.788l-4.333,0.115c-14.174-0.229-61.878-4.372-96.239-47.151
				c-27.525-34.27-29.988-73.613-29.771-88.876l0.114-5.68V298.906C800.559,292.831,795.635,287.906,789.559,287.906
				L789.559,287.906z"/>
		</g>
	</g>
	<g>
		<g>
			<path style="fill:#480000;" d="M759.119,1342.789l-1.318-2.141c-20.123-32.68-45.259-60.89-74.71-83.845
				c-36.526-28.463-79.843-48.583-125.269-58.188c-1.177-0.249-2.185-0.94-2.841-1.947c-0.656-1.008-0.88-2.21-0.631-3.387
				c0.438-2.068,2.284-3.57,4.391-3.57c0.313,0,0.63,0.033,0.942,0.1c46.756,9.885,91.343,30.596,128.939,59.894
				c28.727,22.391,53.495,49.674,73.617,81.09l1.918,2.994h320.935c2.481,0,4.5,2.019,4.5,4.5s-2.019,4.5-4.5,4.5H759.119z"/>
			<path style="fill:#480000;" d="M558.741,1183.212c-5.087,0-9.656,3.55-10.75,8.727c-1.256,5.943,2.543,11.781,8.487,13.037
				c44.466,9.401,86.867,29.097,122.617,56.955c28.838,22.478,53.457,50.109,73.171,82.126l3.222,5.232h329.605
				c6.075,0,11-4.925,11-11s-4.925-11-11-11H767.714c-20.525-32.046-45.765-59.85-75.095-82.711
				c-38.371-29.901-83.874-51.038-131.59-61.126C560.261,1183.29,559.496,1183.212,558.741,1183.212L558.741,1183.212z"/>
		</g>
	</g>
	<g>
		<g>
			<path style="fill:#480000;" d="M796.097,2196.777c-4.734,0-9.523-0.067-14.235-0.198c-36.964-1.036-92.824-2.601-156.245-30.621
				c-60.134-26.569-98.936-64.494-130.114-94.968c-19.064-18.633-47.875-46.793-72.461-90.618
				c-15.407-27.461-25.564-54.613-28.311-62.28c-9.484-26.494-15.557-50.928-15.811-51.955c-1.232-4.986-2.222-9.323-3.095-13.149
				c-2.224-9.736-3.979-17.424-7.989-29.018c-5.406-15.635-7.873-22.771-12.927-30.327c-14.915-22.3-40.668-30.395-51.048-32.84
				c-8.589-2.022-16.968-3.048-24.904-3.048c-18.896,0-35.199,5.612-48.457,16.682c-4.167,3.479-25.021,22.369-26.387,52.745
				c-0.41,9.126,0.18,40.257,24.974,57.714c9.976,7.024,22.451,11.054,34.225,11.054c7.419,0,14.326-1.574,20.526-4.678
				c6.447-3.227,17.925-10.803,22.35-25.289c3.449-11.292,2.483-21.351-2.87-29.896c-8.748-13.961-24.974-15.674-26.796-15.823
				c-1.196-0.098-2.284-0.657-3.062-1.573c-0.777-0.917-1.151-2.082-1.053-3.28c0.191-2.316,2.155-4.132,4.473-4.132
				c0.125,0,0.251,0.006,0.378,0.016c3.725,0.307,22.843,2.709,33.686,20.015c4.675,7.461,9.138,19.989,3.851,37.302
				c-5.406,17.697-19.192,26.837-26.929,30.71c-7.53,3.769-15.768,5.681-24.483,5.681c-13.385,0-28.144-4.765-39.479-12.746
				c-28.537-20.093-29.246-55.197-28.783-65.478c1.497-33.289,23.042-53.767,29.609-59.25
				c14.662-12.241,33.509-18.711,54.504-18.711c8.616,0,17.595,1.085,26.688,3.227c14.181,3.34,40.374,12.536,56.466,36.596
				c5.699,8.521,8.63,17,13.952,32.39c4.17,12.06,6.064,20.353,8.256,29.955c0.913,3.995,1.856,8.127,3.059,12.993
				c0.06,0.244,6.186,24.931,15.547,51.08c2.686,7.501,12.62,34.058,27.687,60.913c23.954,42.696,52.204,70.308,70.897,88.579
				c32.26,31.53,68.823,67.267,127.466,93.177c61.806,27.308,114.433,28.78,152.86,29.855c4.665,0.132,9.395,0.198,14.06,0.198
				c90.757,0,163.771-24.854,209.04-45.704c25.926-11.942,93.189-46.991,157.663-114.378
				c64.211-67.111,93.194-131.417,121.223-193.605c45.87-101.778,60.988-185.691,69.109-230.772
				c15.909-88.308,15.837-167.95,13.993-227.477l-0.004-0.264l0.067-22.623V875.371c0.001-81.573,0.002-174.029-0.059-262.823
				c-0.015-21.634-0.727-43.302-1.48-66.241c-2.216-67.39-4.504-136.996,12.197-201.028c14.137-54.208,62.451-99.825,89.992-122.191
				c1.024-0.832,2.105-1.007,2.831-1.007c1.365,0,2.641,0.606,3.499,1.663c0.758,0.933,1.107,2.105,0.983,3.301
				c-0.124,1.196-0.706,2.272-1.64,3.029c-21.483,17.447-72.965,63.82-86.958,117.476c-16.371,62.771-14.104,131.713-11.913,198.386
				c0.726,22.048,1.474,44.814,1.488,66.606c0.061,88.797,0.06,181.255,0.059,262.829v477.597l-0.066,22.611l0.003,0.11
				c1.853,59.908,1.92,140.102-14.135,229.218c-8.192,45.474-23.438,130.096-69.762,232.879
				c-28.34,62.881-57.644,127.901-122.925,196.132c-63.187,66.04-127.618,101.232-160.401,116.33
				C962.897,2171.474,888.558,2196.775,796.097,2196.777z"/>
			<path style="fill:#480000;" d="M1470.746,215.581c-2.437,0-4.889,0.805-6.928,2.461c-28.158,22.868-77.579,69.592-92.185,125.597
				c-16.939,64.946-14.635,135.032-12.406,202.811c0.753,22.911,1.465,44.551,1.479,66.103c0.06,87.605,0.06,176.678,0.059,262.818
				v477.565l-0.067,22.672l0.005,0.374c1.836,59.215,1.917,138.438-13.89,226.178c-8.072,44.806-23.097,128.207-68.639,229.259
				c-27.804,61.689-56.554,125.479-119.994,191.785c-63.703,66.58-130.097,101.181-155.686,112.967
				c-45.362,20.893-117.158,45.109-206.322,45.109c-4.577,0-9.209-0.064-13.877-0.196c-37.889-1.061-89.779-2.514-150.415-29.304
				c-57.568-25.436-93.682-60.732-125.55-91.88c-18.428-18.012-46.275-45.231-69.772-87.111
				c-14.819-26.415-24.593-52.544-27.236-59.923c-9.201-25.7-15.296-50.206-15.357-50.449c-1.188-4.808-2.125-8.912-3.032-12.881
				c-2.235-9.789-4.166-18.243-8.45-30.632c-5.499-15.902-8.527-24.661-14.692-33.879c-17.33-25.91-45.268-35.75-60.379-39.309
				c-9.663-2.275-19.1-3.4-28.178-3.4c-22.44,0-42.681,6.872-58.67,20.222c-7.084,5.914-30.321,28.005-31.938,63.947
				c-0.5,11.115,0.297,49.09,31.534,71.084c10.688,7.526,26.42,13.932,43.222,13.932c9.027,0,18.364-1.85,27.392-6.368
				c8.667-4.339,24.121-14.607,30.236-34.624c6.003-19.656,0.834-34.043-4.559-42.651c-12.49-19.933-34.394-22.69-38.659-23.041
				c-0.307-0.025-0.611-0.038-0.914-0.038c-5.657,0-10.477,4.352-10.95,10.099c-0.497,6.055,4.007,11.367,10.062,11.864
				c1.489,0.122,14.754,1.522,21.818,12.796c4.308,6.877,5.036,15.135,2.162,24.545c-3.716,12.166-13.526,18.615-19.043,21.376
				c-5.587,2.797-11.613,3.99-17.617,3.99c-11.245,0-22.414-4.187-30.483-9.868c-22.095-15.557-22.595-43.816-22.223-52.107
				c1.243-27.65,20.26-44.876,24.06-48.048c12.052-10.063,27.102-15.171,44.291-15.171c7.428,0,15.256,0.954,23.414,2.875
				c9.631,2.269,33.504,9.745,47.135,30.126c4.587,6.858,6.969,13.746,12.187,28.838c3.894,11.261,5.615,18.798,7.794,28.34
				c0.885,3.874,1.887,8.264,3.122,13.262c0.257,1.04,6.409,25.791,16.002,52.587c2.789,7.786,13.104,35.361,28.761,63.27
				c25.044,44.64,54.252,73.189,73.587,92.086c31.553,30.84,70.822,69.221,132.031,96.265
				c64.59,28.537,121.218,30.123,158.69,31.173c4.857,0.135,9.653,0.201,14.417,0.201c93.158-0.002,168.201-25.292,215.601-47.124
				c33.204-15.293,98.451-50.926,162.378-117.741c66.05-69.034,95.589-134.573,124.154-197.955
				c46.657-103.522,61.993-188.659,70.233-234.397c16.152-89.662,16.097-170.302,14.234-230.572l0.066-22.521V875.371
				c0.001-86.144,0.001-175.221-0.059-262.833c-0.015-21.906-0.765-44.734-1.491-66.811c-2.177-66.211-4.428-134.677,11.705-196.536
				c13.509-51.795,63.78-97.027,84.766-114.07c4.716-3.83,5.435-10.758,1.605-15.474
				C1477.118,216.97,1473.946,215.581,1470.746,215.581L1470.746,215.581z"/>
		</g>
	</g>
	<g>
		<g>
			<path style="fill:#480000;" d="M405.79,16L405.79,16c46.296,0.001,75.592,8.633,91.33,13.271
				c15.597,4.596,30.393,11.437,50.68,21.699c54.924,27.786,89.262,74.797,116.848,112.565
				c20.517,28.115,38.087,58.771,52.255,91.166v732.942v0.316l0.012,0.316l0.449,11.351c-2.641,46.826,6.302,92.905,25.88,133.305
				c12.926,26.667,30.008,56.901,58.697,78.957c28.298,21.755,65.752,33.405,108.313,33.689c4.345,0.029,8.795,0.089,13.099,0.147
				c6.132,0.083,12.472,0.168,18.711,0.168h127.027v34.5H803.29c-1.395-1.732-2.813-3.461-4.245-5.175
				c-0.47-0.563-1.005-1.21-1.604-1.935c-10.547-12.758-38.564-46.647-84.342-76.949c-20.726-13.727-55.416-36.701-106.559-50.63
				c-9.693-2.634-19.552-4.834-29.449-6.574c-0.037-164.462-0.197-937.789-0.197-937.789v-0.296l-0.011-0.296l-0.234-6.267
				c6.063-53.67-24.593-109.348-73.295-132.793c-29.688-14.293-61.686-15.946-83.171-15.946c-14.886,0-29.606,0.901-43.842,1.773
				l-5.065,0.309c-44.365,2.686-88.254,12.325-130.446,28.649c-41.005,15.865-71.141,35.403-92.129,59.727
				c-31.384,36.358-40.224,85.027-23.647,130.191c11.515,31.349,35.444,57.321,67.385,73.135
				c25.909,12.816,48.525,15.506,62.935,15.506c16.914,0,33.058-3.532,47.987-10.5c25.299-11.811,45.031-32.339,58.647-61.018
				c2.861-6.03,5.252-12.223,7.17-18.564c27.703,55.944,5.623,113.091-2.18,129.962c-12.574,27.211-32.397,49.592-58.918,66.52
				c-19.019,12.14-36.906,18.58-48.558,21.843c-14.404,4.03-29.252,6.073-44.132,6.073c-52.003,0-91.984-24.306-107.041-33.459
				c-15.842-9.622-57.922-35.182-79.65-88.238c-17.056-41.652-12.541-78.235-11.058-90.252
				c3.268-26.412,11.338-52.216,23.985-76.693c11.453-22.167,24.654-39.192,33.714-49.574
				c41.622-47.716,89.748-74.139,103.507-81.102c31.044-15.711,58.928-26.794,87.753-34.879
				c29.053-8.149,60.261-13.598,98.214-17.146C379.024,16.674,392.81,16,405.79,16 M405.791,0c-12.835,0-26.932,0.62-42.468,2.074
				c-76.25,7.13-129.3,22.1-191.7,53.68c-21.64,10.95-68.45,39.13-108.34,84.86c-21.52,24.66-53.63,71.06-61.52,134.82
				c-1.77,14.34-6.15,53.64,12.13,98.28c23.24,56.75,67.76,84.68,86.15,95.85c15.455,9.396,58.877,35.784,115.347,35.784
				c15.29,0,31.536-1.934,48.443-6.665c16.71-4.68,85.01-26.34,117.69-97.06c6.41-13.86,37.35-85.66-3.64-154.09
				c-5.46-9.11-11.82-17.54-18.94-25.2c0.33,15.59-2.07,34.68-11.39,54.32c-4.8,10.11-18.7,38.32-50.96,53.38
				c-14.214,6.634-28.318,8.998-41.219,8.998c-27.842,0-50.094-11.005-55.841-13.848c-9.19-4.55-44.11-22.52-59.46-64.31
				c-14.59-39.75-7.02-82.06,20.74-114.22c22.45-26.02,53.74-42.86,85.79-55.26c40.14-15.53,82.69-25,125.64-27.6
				c15.636-0.943,31.803-2.052,47.939-2.052c26.3,0,52.519,2.947,76.231,14.362c43,20.7,70.09,70.37,64.2,117.73l0.28,7.51
				c0,0,0.17,822.98,0.2,951.51c12.53,1.65,26.42,4.26,41.25,8.29c47.62,12.97,79.89,33.94,101.92,48.53
				c46.53,30.8,74.25,65.92,82.5,75.8c3.2,3.83,6.13,7.5,8.76,10.92h289.57v-66.5c0,0-142.239,0-143.027,0
				c-10.493,0-21.12-0.244-31.703-0.315c-35.269-0.236-70.65-8.834-98.669-30.375c-24.865-19.116-40.575-45.449-54.051-73.251
				c-24.4-50.35-25.93-97.98-24.26-126.18l-0.48-12.13v-736.26c-18.23-42.45-38.94-74.82-55.33-97.28
				c-29.37-40.21-64.642-88.115-122.55-117.41c-20.347-10.293-36.294-17.735-53.38-22.77C481.068,7.861,451.482,0.001,405.791,0
				L405.791,0z"/>
		</g>
	</g>
	<g>
		<g>
			<path style="fill:#480000;" d="M1368.404,236.078c-16.376,23.909-32.337,52.4-42.552,86.345
				c-11.781,39.14-13.724,77.481-14.067,113.084c-0.099,10.218-0.053,20.613-0.009,30.666c0.022,5.033,0.044,10.077,0.049,15.133
				l0.084,87.374l0.084,87.374c0.049,51.283,0.015,103.432-0.018,153.865c-0.021,32.624-0.043,65.248-0.043,97.872l0,243.647
				l0,157.513v20.559l-1.029,6.124l-0.29,1.723l0.089,1.744c1.965,38.48,1.564,77.831-1.191,116.954
				c-1.116,15.771-2.384,28.283-3.587,39.453c-5.497,50.924-15.79,126.816-24.038,167.162
				c-15.622,76.402-44.603,140.742-66.164,181.263c-23.465,44.1-43.49,70.366-43.685,70.619
				c-78.285,101.819-172.604,149.226-209.525,164.883c-35.041,14.867-93.688,39.75-168.631,39.75
				c-12.62,0-25.451-0.705-38.137-2.095c-44.641-4.891-111.305-20.748-175.383-68.516c-24.724-18.421-47.006-39.889-66.228-63.808
				c-27.844-34.648-48.107-73.236-60.225-114.693c-10.479-35.835-14.761-73.226-12.73-111.133l0.043-0.798l-0.037-0.798
				l-0.495-10.696c-0.239-37.27,7.115-72.751,21.861-105.463c5.639-12.518,15.786-31.791,32.112-52.525
				c17.367-22.049,33.77-42.875,62.613-56.737c18.639-8.962,39.404-13.505,61.719-13.505c13.334,0,24.6,1.633,30.669,2.513
				c12.031,1.731,34.425,4.954,59.283,19.644c17.224,10.188,48.082,33.092,61.24,72.027c5.405,15.974,6.222,29.979,6.943,42.334
				l0.004,0.075c1.176,20.146,2.025,34.702-4.401,51.433c-6.414,16.726-16.716,27.089-29.787,40.238
				c-8.484,8.541-15.185,15.288-26.311,21.135c-11.081,5.816-22.073,9.068-32.732,9.688c12.443-12.333,18.926-25.657,22.291-36.522
				c9.76-31.47,1.128-67.225-21.984-91.085c-17.347-17.927-41.115-27.8-66.924-27.801c-11.223,0-22.504,1.978-32.621,5.719
				c-33.439,12.358-48.116,40.89-56.002,56.219c-16.035,31.173-16.708,59.927-16.141,71.678l-1.385,30.772l-0.015,0.322
				l-0.001,0.322c-0.175,37.004,6.293,73.213,19.219,107.615c5.689,15.164,18.899,45.466,43.456,78.024
				c15.377,20.392,43.999,58.349,95.243,84.668c49.499,25.433,94.4,26.61,118.517,27.243c2.746,0.073,5.42,0.108,8.172,0.108
				c38.209,0,135.887-7.6,217.457-78c59.383-51.251,81.475-111.192,102.839-169.161c15.832-42.964,55.569-199.574,43.774-324.521
				l-0.397-8.958V297.797c22.077-1.65,44.142-4.624,65.787-8.874C1279.936,278.158,1327.621,256.932,1368.404,236.078
				 M1425.443,187.884c-52.088,26.599-119.33,68.82-203.34,85.34c-27.86,5.47-54.25,8.37-78.7,9.52v1221.76l0.43,9.71
				c11.81,123.84-28.67,279.48-42.82,317.88c-22.29,60.48-43.15,115-98.28,162.58c-79.038,68.215-172.814,74.113-207.003,74.113
				c-3.085,0-5.687-0.048-7.747-0.103c-25.16-0.66-66.32-2.2-111.63-25.48c-47.02-24.15-73.99-59.13-89.78-80.07
				c-25.69-34.06-37.75-64.68-41.25-74.01c-15.68-41.73-18.31-78.6-18.2-101.92l1.42-31.55c-0.7-12.28,0.57-37.51,14.35-64.3
				c7.31-14.21,19.72-38.33,47.32-48.53c8.294-3.067,17.555-4.727,27.074-4.727c19.437,0,39.94,6.924,55.426,22.927
				c19.46,20.09,26.17,49.52,18.2,75.22c-10.11,32.64-39.64,45.64-46.86,48.82c10.07,4.89,22.13,8.5,35.81,8.55
				c0.099,0,0.195,0,0.293,0c21.361,0,38.323-8.694,43.917-11.631c13.32-7,21.34-15.08,30.25-24.05
				c13.4-13.48,25.73-25.89,33.35-45.76c7.67-19.97,6.65-37.27,5.43-58.17c-0.75-12.85-1.67-28.53-7.76-46.53
				c-15.39-45.54-52.021-71.07-68.25-80.67c-26.99-15.95-51.53-19.75-65.15-21.71c-7.662-1.111-19.126-2.676-32.948-2.676
				c-19.535,0-43.78,3.127-68.652,15.086c-32.19,15.47-50.27,38.43-68.26,61.27c-19.59,24.88-30.21,47.16-34.12,55.84
				c-19.7,43.7-23.48,84.63-23.27,112.46l0.51,11.01c-1.45,27.05-0.63,68.67,13.35,116.48c28.95,99.04,95.26,159.28,132.25,186.84
				c70.68,52.69,143.13,67.2,183.2,71.59c13.78,1.51,27.074,2.191,39.879,2.191c76.395,0,135.296-24.226,174.881-41.021
				c22.92-9.72,128.94-56.68,215.96-169.86c0,0,81.73-106.28,112.84-258.43c7.99-39.08,18.37-113.99,24.27-168.65
				c1.39-12.9,2.59-25.21,3.64-40.04c3.5-49.7,2.65-90.7,1.21-118.9l1.25-7.44c0-7.298,0-14.596,0-21.894
				c0-52.504,0-105.009,0-157.513c0-81.216,0-162.432,0-243.647c0-83.917,0.142-167.837,0.061-251.753
				c-0.056-58.249-0.113-116.498-0.169-174.747c-0.015-15.313-0.187-30.514-0.041-45.628c0.353-36.597,2.569-72.683,13.389-108.627
				C1360.413,263.104,1401.316,219.376,1425.443,187.884L1425.443,187.884z"/>
		</g>
	</g>
</g>
</svg>
