<?xml version="1.0" encoding="iso-8859-1"?>
<!-- Generator: Adobe Illustrator 24.0.1, SVG Export Plug-In . SVG Version: 6.00 Build 0)  -->
<svg version="1.1" xmlns="http://www.w3.org/2000/svg" xmlns:xlink="http://www.w3.org/1999/xlink" x="0px" y="0px"
	 viewBox="0 0 1887.85 2177.061" style="enable-background:new 0 0 1887.85 2177.061;" xml:space="preserve">
<g id="Layer_5">
	<linearGradient id="SVGID_1_" gradientUnits="userSpaceOnUse" x1="943.9251" y1="1287.262" x2="943.9251" y2="-54.8856">
		<stop  offset="0" style="stop-color:#8B1D1A"/>
		<stop  offset="0.25" style="stop-color:#550000"/>
		<stop  offset="0.5" style="stop-color:#3A0000"/>
		<stop  offset="0.75" style="stop-color:#1E0000"/>
		<stop  offset="1" style="stop-color:#000000"/>
	</linearGradient>
	<path style="fill:url(#SVGID_1_);" d="M1156.169,227.3c-13.56,2.54-28.33,5.72-44.06,9.76c-87.44,22.41-148.48,56.53-192.93,81.78
		c-75.2,42.73-125.67,84.42-167.77,119.54c-47.25,39.41-90.87,75.8-138.41,134.21c-14.06,17.29-26.68,34.29-37.97,50.72
		c-12.09-22.91-33.92-40.91-57.67-52.22c-31.11-14.82-65.72-20.15-99.54-26.74c-89.34-17.39-183.52-49.38-235.29-124.24
		c-56.46-81.63-50.06-183.49-6.46-267.04c2.9,23.83,7.94,47.33,14.97,69.35c13.8,43.17,39.41,83.95,77.69,108.23
		c35.92,22.79,79.8,29.34,122.33,30.26c83.17,1.78,165.62-15.94,245.42-39.46c215.86-63.63,429.07-164.67,622.43-279.42
		c24.34-14.45,47.03-28.55,67.98-42.03l142.44,5.51L365.549,1518.38c-37.178,50.255-72.648,101.868-109.491,152.449
		c-5.216,7.161-10.628,14.841-11.222,23.68c-1.471,21.891,24.973,33.672,46.533,37.739c187.218,35.32,385.873-18.954,566.751-65.488
		c-5.33,18.85-11.4,48.36-10.24,84.4c1.57,49.12,15.73,84.63,18.87,92.27c7.54,18.33,21.42,45.76,52.43,79.69
		c23.67,25.89,65.59,59.62,167.77,108.24c78.37,37.29,128.38,58.08,203.41,70.4c66.19,10.86,146.37,20.02,234.88-18.68
		c22.66-9.91,104.17-34.96,150.99-124.31c9.17-17.51,30.52-59.41,31.45-117.44c1.11-69.12-27.42-118.74-44.04-146.8
		c-19.34-32.66-51.82-87.93-119.53-115.34c-47.57-19.25-90.89-16.68-109.05-14.68c-28.98,3.21-52.48,11.48-69.08,19
		c19.41-77.72,92.15-138.86,172.18-152.02c87.75-14.43,179.08,22.54,242.95,84.43c104.25,101.02,136.56,269.04,77.22,401.52
		c-30.19,67.41-81.33,124.5-142.26,166.26c-210.5,144.25-478.8,104.11-694.68-3.88c-58.94-29.49-116.12-63-167.93-103.73
		c-50.36-39.58-93.24-80.94-153.13-107.25c-98.24-43.17-213.88-48.01-316.59-13.56c-51.78,17.36-266.06,101.06-203.95,186.25
		c11.27,15.45,28.99,24.61,46.13,33.08c24.74,12.24,50.14,24.36,77.48,28.17c3.53,0.49,6.97,0.82,10.34,1
		c-6.47,4.28-13.66,8.45-21.59,12.27c-27.91,13.45-51.31,16.02-79.69,18.87c-44.25,4.45-77.8,7.82-115.34-8.39
		c-5.42-2.34-36.39-16.1-60.82-46.13c-49.42-60.76-36.34-144.15-29.35-188.74c15.77-100.6,68.79-174.09,111.14-232.78
		c14.92-20.68,28.31-37.1,37.75-48.23L1156.169,227.3z"/>
</g>
<g id="Layer_7">
	<g>
		<path style="fill:#BFCBC2;" d="M778.911,1857.699c-38.464-44.423-18.548-122.563,37.461-142.315
			C786.688,1752.308,771.01,1809.255,778.911,1857.699z"/>
	</g>
	<g>
		<path style="fill:#BFCBC2;" d="M696.141,1852.088c-17.191-63.889,40.578-136.71,110.728-129.029
			C757.081,1746.666,712.516,1797.644,696.141,1852.088z"/>
	</g>
	<g>
		<path style="fill:#BFCBC2;" d="M639.494,1816.597c5.723-71.963,91.632-125.064,160.488-91.435
			C740.249,1730.948,675.991,1766.905,639.494,1816.597z"/>
	</g>
	<g>
		<path style="fill:#BFCBC2;" d="M373.263,1513.617c-63.408,29.576-131.577,62.132-195.687,93.521
			C229.971,1559.393,301.739,1524.537,373.263,1513.617z"/>
	</g>
	<g>
		<path style="fill:#BFCBC2;" d="M366.97,1485.664c-31.582,32.948-95.644,9.05-121.831,50.464
			C260.739,1485.295,335.367,1505.15,366.97,1485.664z"/>
	</g>
	<g>
		<path style="fill:#BFCBC2;" d="M397.98,1313.304c-25.394,57.931-20.116,168.724-106.03,173.417
			C365.1,1464.61,354.115,1362.138,397.98,1313.304z"/>
	</g>
	<g>
		<path style="fill:#BFCBC2;" d="M525.089,1252.918c-33.908,80.316-161.05,114.557-155.213,213.993
			C337.449,1355.478,482.159,1309.125,525.089,1252.918z"/>
	</g>
	<g>
		<path style="fill:#BFCBC2;" d="M501.857,1157.68c-38.607,98.874-2.369,119.148-90.175,195.029
			C488.63,1246.042,456.73,1202.372,501.857,1157.68z"/>
	</g>
	<g>
		<path style="fill:#BFCBC2;" d="M623.953,1118.696c-15.229,76.635-114.443,88.785-151.255,144.466
			C496.64,1192.572,593.816,1181.873,623.953,1118.696z"/>
	</g>
	<g>
		<path style="fill:#BFCBC2;" d="M642.106,1014.048c-73.406,39.218-63.3,145.791-120.767,201.137
			C557.212,1151.162,554.003,1034.569,642.106,1014.048z"/>
	</g>
	<g>
		<path style="fill:#BFCBC2;" d="M705.078,1004.498c-63.812,82.925-157.381,148.952-152.694,144.888
			C616.196,1066.46,709.765,1000.434,705.078,1004.498z"/>
	</g>
	<g>
		<path style="fill:#BFCBC2;" d="M730.779,896.844c-62.435,35.638-62.792,126.627-102.265,180.177
			C650.508,1014.509,652.194,919.419,730.779,896.844z"/>
	</g>
	<g>
		<path style="fill:#BFCBC2;" d="M833.69,846.065c-30.507,71.28-122.103,91.191-173.399,143.389
			C696.381,922.168,786.717,903.627,833.69,846.065z"/>
	</g>
	<g>
		<path style="fill:#BFCBC2;" d="M847.828,722.208c-65.452,43.129-76.419,135.612-106.691,201.761
			C751.702,848.663,763.807,752.027,847.828,722.208z"/>
	</g>
	<g>
		<path style="fill:#BFCBC2;" d="M914.055,681.458C891.82,820.548,789.15,819.902,764.867,859.359
			c7.298-22.194,32.931-39.4,53.352-53.992C860.98,774.015,894.743,729.281,914.055,681.458z"/>
	</g>
	<g>
		<path style="fill:#BFCBC2;" d="M982.224,563.083c-153.386,110.77-55.984,176.387-139.844,229.188
			C905.677,724.63,809.657,635.213,982.224,563.083z"/>
	</g>
	<g>
		<path style="fill:#BFCBC2;" d="M1047.407,451.707c-110.462,123.677-27.24,143.266-78.093,204.712
			C999.28,585.389,920.223,540.231,1047.407,451.707z"/>
	</g>
	<g>
		<path style="fill:#BFCBC2;" d="M1130.676,414.411c-39.602,127.16-131.796,114.337-151.768,140.887
			c7.317-15.53,25.457-23.286,41.887-32.287C1066.257,497.769,1105.078,459.083,1130.676,414.411z"/>
	</g>
	<g>
		<path style="fill:#BFCBC2;" d="M1129.131,308.761c-53.086,42.597-9.208,130.932-49.422,181.155
			C1101.917,434.998,1059.644,341.084,1129.131,308.761z"/>
	</g>
	<g>
		<path style="fill:#BFCBC2;" d="M1248.195,270.303c-29.297,64.639-115.8,74.058-155.774,125.871
			C1118.844,331.194,1205.804,320.907,1248.195,270.303z"/>
	</g>
	<g>
		<path style="fill:#BFCBC2;" d="M1267.581,166.462c-100.503,43.124-39.097,140.881-114.24,169.369
			C1210.526,297.526,1154.096,184.686,1267.581,166.462z"/>
	</g>
	<g>
		<path style="fill:#BFCBC2;" d="M1357.974,26.758c-127.095,82.968-83.231,183.956-110.973,229.533
			c6.04-29.049-3.731-66.784-0.483-97.812C1252.608,95.816,1299.26,41.798,1357.974,26.758z"/>
	</g>
	<g>
		<path style="fill:#BFCBC2;" d="M1403.876,15.551c-110.018,48.99-78.028,131.794-106.228,177.992
			C1303.571,104.42,1302.059,32.487,1403.876,15.551z"/>
	</g>
	<g>
		<path style="fill:#BFCBC2;" d="M1311.799,52.52c-48.779,50.673-109.073,104.036-166.143,146.785
			C1187.876,142.544,1249.414,87.925,1311.799,52.52z"/>
	</g>
	<g>
		<path style="fill:#BFCBC2;" d="M1234.862,92.658c-68.616,30.434-108.467,113.343-181.075,139.317
			C1113.547,189.082,1154.225,104.919,1234.862,92.658z"/>
	</g>
	<g>
		<path style="fill:#BFCBC2;" d="M819.997,311.141c-66.212,98.126-290.49,114.359-249.733,270.596
			c-33.706-46.05-13.214-114.589,30.458-153.281C665.022,369.05,753.285,363.327,819.997,311.141z"/>
	</g>
	<g>
		<path style="fill:#BFCBC2;" d="M899.041,262.616c-56.092,97.403-225.905,96.834-247.3,218.268
			C644.617,338.396,835.857,328.726,899.041,262.616z"/>
	</g>
	<g>
		<path style="fill:#BFCBC2;" d="M944.455,257.959c-50.067,50.985-158.417,46.103-180.279,126.092
			C767.264,287.999,896.322,286.581,944.455,257.959z"/>
	</g>
	<g>
		<path style="fill:#BFCBC2;" d="M628.734,425.432c-69.35,75.744-186.953,105.391-284.911,68.837
			C438.306,501.915,546.783,476.138,628.734,425.432z"/>
	</g>
	<g>
		<path style="fill:#BFCBC2;" d="M646.556,402.728c-5.176,30.826-38.794,50.989-68.951,60.187
			c-58.302,22.379-126.584-41.076-97.429-58.675c-8.451,6.468-2.255,17.082,7.481,24.859
			C539.662,477.039,632.421,437.061,646.556,402.728z"/>
	</g>
	<g>
		<path style="fill:#BFCBC2;" d="M581.546,450.961c-3.602,25.657-49.13,43.35-68.295,49.768
			c-79.275,31.852-140.905-29.501-139.128-100.44C417.732,557.181,585.593,462.526,581.546,450.961z"/>
	</g>
	<g>
		<path style="fill:#BFCBC2;" d="M485.08,490.806c-57.051,26.342-134.023-61.615-242.823-22.18
			C354.775,397.485,424.358,500.001,485.08,490.806z"/>
	</g>
	<g>
		<path style="fill:#BFCBC2;" d="M434.75,484.514c-74.948-17.528-164.292-23.591-160.816-119.553
			C290.343,453.492,380.22,449.895,434.75,484.514z"/>
	</g>
	<g>
		<path style="fill:#BFCBC2;" d="M800.322,328.443c-0.034,0-45.158,35.418-108.829,72.709
			c-44.22,24.888-79.653,49.381-110.217,19.075c-15.746-17.274-12.334-44.714,9.079-56.387c-17.541,15.354-13.07,51.572,16.637,53.1
			c26.841-1.534,36.011-14.301,68.846-30.735C745.079,348.711,799.496,328.865,800.322,328.443z"/>
	</g>
	<g>
		<path style="fill:#BFCBC2;" d="M1420.462,39.385c-40.303-0.266-75.781,35.002-69.04,80.162
			C1332.26,77.366,1370.534,26.084,1420.462,39.385z"/>
	</g>
	<g>
		<path style="fill:#BFCBC2;" d="M1802.9,1694.437c-10.504-41.487-64.01-25.608-51.221,14.202
			C1717.065,1659.39,1807.111,1634.492,1802.9,1694.437z"/>
	</g>
	<g>
		<path style="fill:#BFCBC2;" d="M1701.281,1631.421c38.985-43.533,72.247,51.643,3.855,47.484
			C1752.384,1666.767,1734.054,1610.14,1701.281,1631.421z"/>
	</g>
	<g>
		<path style="fill:#BFCBC2;" d="M1806.953,1614.524c24.662,59.806-83.533,44.34-39.521-7.02
			C1747.436,1643.944,1810.311,1661.963,1806.953,1614.524z"/>
	</g>
	<g>
		<path style="fill:#BFCBC2;" d="M1724.583,1603.474c-42.421,7.413-64.713,66.362-14.993,95.943
			C1649.093,1692.76,1652.71,1593.859,1724.583,1603.474z"/>
	</g>
	<g>
		<path style="fill:#BFCBC2;" d="M1830.496,1646.63c2.104-42.729-52.71-72.398-85.098-26.86
			C1756.928,1560.671,1854.55,1578.805,1830.496,1646.63z"/>
	</g>
	<g>
		<path style="fill:#BFCBC2;" d="M1813.106,1662.79c44.651,70.691-62.639,127.933-97.522,55.118
			C1762.92,1761.354,1826.385,1720.142,1813.106,1662.79z"/>
	</g>
	<g>
		<path style="fill:#BFCBC2;" d="M1795.179,1548.527c-34.282,52.697-88.449-0.229-147.106,77.174
			C1671.624,1531.615,1770.5,1575.739,1795.179,1548.527z"/>
	</g>
	<g>
		<path style="fill:#BFCBC2;" d="M1679.209,1552.85c-33.549,21.344-49.485-52.542,20.962-57.783
			c61.149,4.577,48.343,75.929-12.515,87.284c31.104-18.447,58.335-77.202-5.524-62.918
			C1662.622,1523.053,1649.732,1555.921,1679.209,1552.85z"/>
	</g>
	<g>
		<path style="fill:#BFCBC2;" d="M1671.764,1487.615c-73.806,35.313-51.084,119.361,7.002,102.313
			C1601.877,1638.995,1568.521,1494.096,1671.764,1487.615z"/>
	</g>
	<g>
		<path style="fill:#BFCBC2;" d="M1674.634,1470.221c-51.212-1.559-99.667,43.919-84.47,105.855
			C1549.845,1524.164,1603.213,1440.295,1674.634,1470.221z"/>
	</g>
	<g>
		<path style="fill:#BFCBC2;" d="M1858.52,1713.369c-2.862,63.302-81.99,106.687-138.769,59.677
			C1775.521,1789.918,1833.75,1764.16,1858.52,1713.369z"/>
	</g>
	<g>
		<path style="fill:#BFCBC2;" d="M1827.36,1907.828c-56.403-10.859-1.095-70.744-8.353-99.297
			c-16.217-24.677-51.829,1.862-35.235,36.024c-65.85-81.957,127.776-101.41,32.404,30.935
			C1811.785,1885.309,1813.188,1902.921,1827.36,1907.828z"/>
	</g>
	<g>
		<path style="fill:#BFCBC2;" d="M1835.488,1920.683c-63.35,35.899-140.691-43.27-87.229-108.265
			C1730.331,1864.036,1766.467,1927.454,1835.488,1920.683z"/>
	</g>
	<g>
		<path style="fill:#BFCBC2;" d="M1554.254,1455.5c36.845,20.457,29.243,82.499-19.128,88.048
			C1566.168,1527.078,1577.498,1485.782,1554.254,1455.5z"/>
	</g>
	<g>
		<path style="fill:#BFCBC2;" d="M429,381.106c-9.556,51.267,27.008,108.058,91.942,106.328
			C460.103,516.268,388.079,447.359,429,381.106z"/>
	</g>
	<g>
		<path style="fill:#BFCBC2;" d="M858.946,276.656c7.393-6.187-191.926,184.56-198.689,89.417
			c0.064-13.332,11.446-24.229,23.386-29.045c-7.897,6.346-21.426,36.313,0.747,36.247c17.256-6.02,38.194-27.168,60.136-39.326
			C806,295.269,858.194,277.092,858.946,276.656z"/>
	</g>
	<g>
		<path style="fill:#BFCBC2;" d="M1114.266,151.175c-67.58,28.604-140.847,105.62-202.795,139.232
			C960.542,221.641,1031.068,150.445,1114.266,151.175z"/>
	</g>
	<path style="fill:#BFCBC2;" d="M267.004,433.975c0.4-12.801,19.334-13.184,20.125,0.001
		C286.728,446.776,267.794,447.159,267.004,433.975z"/>
	<path style="fill:#BFCBC2;" d="M848.249,754.193c-0.269-10.225-15.718-11.065-16.573,0.001
		C831.945,764.418,847.394,765.258,848.249,754.193z"/>
	<path style="fill:#BFCBC2;" d="M694.947,996.28c-0.4-12.801-19.334-13.184-20.125,0.001
		C675.223,1009.081,694.156,1009.464,694.947,996.28z"/>
	<path style="fill:#BFCBC2;" d="M1509.993,1499.394c1.3-22.72,32.546-20.777,33.146,0.001
		C1541.839,1522.114,1510.593,1520.171,1509.993,1499.394z"/>
	<path style="fill:#BFCBC2;" d="M1709.463,1647.961c0.25-9.495,14.595-10.275,15.389,0.001
		C1724.602,1657.456,1710.257,1658.236,1709.463,1647.961z"/>
	<path style="fill:#BFCBC2;" d="M1789.37,1624.285c-0.028-8.134-13.241-9.906-14.206,0.001
		C1775.192,1632.419,1788.405,1634.191,1789.37,1624.285z"/>
	<path style="fill:#BFCBC2;" d="M1784.042,1691.762c-0.302,11.944-18.194,12.482-18.941-0.001
		C1765.403,1679.817,1783.296,1679.28,1784.042,1691.762z"/>
</g>
<g id="Layer_4">
	<g>
		<g>
			<path style="fill:#FFB400;" d="M1336.506,35.398l65.833,2.547L337.347,1497.651c-20.968,28.347-41.643,57.464-61.637,85.623
				c-15.646,22.035-31.825,44.821-47.943,66.948c-6.195,8.505-16.563,22.739-17.853,41.94c-2.432,36.195,26.994,65.43,74.966,74.479
				c42.028,7.929,87.102,11.949,133.97,11.949c134.021,0,266.462-31.37,395.108-64.321c-1.115,12.583-1.47,25.271-1.061,38.008
				c1.633,51.081,15.565,90.066,21.484,104.466c12.821,31.169,32.108,60.604,58.967,89.992
				c23.554,25.763,65.136,62.256,178.563,116.228c18.466,8.786,35.324,16.618,51.181,23.624
				c-28.771-11.091-57.505-23.794-86.042-38.07c-64.461-32.252-117.439-64.945-161.964-99.948
				c-10.514-8.263-20.948-16.815-31.038-25.085c-38.443-31.509-78.195-64.09-129.639-86.69
				c-58.438-25.679-124.109-39.253-189.914-39.253c-52.209-0.001-103.311,8.26-151.883,24.552
				c-10.413,3.491-65.121,22.408-119.662,52.055c-65.362,35.528-103.031,71.286-115.157,109.318
				c-8.689,27.25-3.947,54.458,13.719,78.688c13.81,18.932,32.72,30.429,48.876,38.795c-15.088,1.487-28.49,2.64-40.872,2.64
				c-19.088,0-33.599-2.75-48.525-9.195c-4.681-2.021-28.974-13.259-47.54-36.082c-16.873-20.745-26.046-47.052-28.043-80.426
				c-1.81-30.237,2.771-59.456,6.118-80.808c6.391-40.772,20.088-80.349,41.873-120.992c19.425-36.241,42.613-68.376,63.073-96.73
				c11.395-15.795,23.527-31.295,36.058-46.069l0.876-1.033l0.794-1.098l1000.33-1383.35l51.381-71.055l-86.187,16.144
				c-15.608,2.924-31.193,6.376-46.305,10.257c-93.748,24.027-158.609,60.871-201.532,85.254
				c-79.474,45.158-133.472,90.203-172.897,123.092c-48.055,40.082-93.445,77.94-143.147,139.006
				c-4.225,5.196-8.396,10.455-12.502,15.763c-11.894-10.45-25.701-19.527-40.931-26.779c-31.4-14.958-64.073-21.158-95.669-27.155
				c-4.083-0.775-8.162-1.549-12.236-2.343c-49.8-9.693-90.173-22.07-123.425-37.838c-40.054-18.993-69.416-42.529-89.767-71.956
				c-22.911-33.125-34.531-71.109-34.538-112.896c0-2.814,0.053-5.639,0.161-8.468c18.41,34.504,43.472,62.612,73.041,81.367
				c36.362,23.07,80.951,34.414,140.332,35.699c4.071,0.087,8.216,0.131,12.32,0.131c71.361,0,148.813-13.031,243.744-41.011
				c202.65-59.736,414.746-154.915,630.401-282.896C1296.779,60.25,1316.827,47.922,1336.506,35.398 M1576.685,1463.374
				c31.842,0,64.121,7.068,95.94,21.007c30.614,13.411,59.705,33.009,84.127,56.674c93.667,90.765,122.953,243.041,69.634,362.079
				c-13.323,29.748-31.531,58.058-54.118,84.144c-21.87,25.257-47.436,47.985-75.984,67.551
				c-68.238,46.761-146.045,74.9-231.981,83.987c25.718-5.144,50.581-13.008,74.96-23.668c1.714-0.75,4.269-1.774,7.226-2.96
				c30.768-12.336,112.496-45.104,160.745-137.181c9.397-17.943,34.358-65.606,35.44-133.115
				c1.292-80.423-32.623-137.682-48.919-165.196l-0.277-0.468c-20.231-34.167-57.889-97.765-136.239-129.482
				c-30.495-12.34-63.19-18.597-97.178-18.598c-9.154,0-18.349,0.476-27.374,1.416c5.935-7.02,12.494-13.664,19.628-19.873
				c26.141-22.751,58.645-38.259,91.524-43.665C1554.539,1464.266,1565.591,1463.374,1576.685,1463.374 M1326.889,0
				c-20.95,13.48-43.64,27.58-67.98,42.03c-193.36,114.75-406.57,215.79-622.43,279.42
				c-76.098,22.429-154.604,39.583-233.848,39.583c-3.855,0-7.714-0.041-11.572-0.123c-42.53-0.92-86.41-7.47-122.33-30.26
				c-38.28-24.28-63.89-65.06-77.69-108.23c-7.03-22.02-12.07-45.52-14.97-69.35c-43.6,83.55-50,185.41,6.46,267.04
				c51.77,74.86,145.95,106.85,235.29,124.24c33.82,6.59,68.43,11.92,99.54,26.74c23.75,11.31,45.58,29.31,57.67,52.22
				c11.29-16.43,23.91-33.43,37.97-50.72c47.54-58.41,91.16-94.8,138.41-134.21c42.1-35.12,92.57-76.81,167.77-119.54
				c44.45-25.25,105.49-59.37,192.93-81.78c15.73-4.04,30.5-7.22,44.06-9.76L155.838,1610.65c-9.44,11.13-22.83,27.55-37.75,48.23
				c-42.35,58.69-95.37,132.18-111.14,232.78c-6.99,44.59-20.07,127.98,29.35,188.74c24.43,30.03,55.4,43.79,60.82,46.13
				c21.192,9.151,41.107,12.062,62.398,12.062c16.425,0,33.671-1.734,52.942-3.671c28.38-2.85,51.78-5.42,79.69-18.87
				c7.93-3.82,15.12-7.99,21.59-12.27c-3.37-0.18-6.81-0.51-10.34-1c-27.34-3.81-52.74-15.93-77.48-28.17
				c-17.14-8.47-34.86-17.63-46.13-33.08c-62.11-85.19,152.17-168.89,203.95-186.25c45.274-15.185,93.056-22.737,140.757-22.736
				c60.515,0.001,120.897,12.155,175.833,36.296c59.89,26.31,102.77,67.67,153.13,107.25c51.81,40.73,108.99,74.24,167.93,103.73
				c117.177,58.615,249.795,97.241,380.234,97.241c109.875,0,218.202-27.407,314.446-93.361c60.93-41.76,112.07-98.85,142.26-166.26
				c59.34-132.48,27.03-300.5-77.22-401.52c-54.557-52.866-129.14-87.546-204.423-87.546c-12.851,0-25.732,1.012-38.527,3.116
				c-80.03,13.16-152.77,74.3-172.18,152.02c16.6-7.52,40.1-15.79,69.08-19c5.91-0.651,14.482-1.362,25.001-1.362
				c21.803,0,51.96,3.057,84.049,16.042c67.71,27.41,100.19,82.68,119.53,115.34c16.62,28.06,45.15,77.68,44.04,146.8
				c-0.93,58.03-22.28,99.93-31.45,117.44c-46.82,89.35-128.33,114.4-150.99,124.31c-48.717,21.301-94.905,28.102-137.631,28.102
				c-34.899,0-67.491-4.54-97.25-9.422c-75.03-12.32-125.04-33.11-203.41-70.4c-102.18-48.62-144.1-82.35-167.77-108.24
				c-31.01-33.93-44.89-61.36-52.43-79.69c-3.14-7.64-17.3-43.15-18.87-92.27c-1.16-36.04,4.91-65.55,10.24-84.4
				c-140.284,36.091-291.228,76.831-439.269,76.831c-42.839,0-85.464-3.416-127.481-11.343
				c-21.56-4.067-48.004-15.849-46.533-37.739c0.594-8.839,6.007-16.519,11.223-23.68c36.844-50.581,72.314-102.194,109.491-152.449
				L1469.328,5.51L1326.889,0L1326.889,0z"/>
		</g>
	</g>
</g>
<g id="Layer_6">
	<g>
		<g>
			<circle style="fill:#480000;" cx="947.138" cy="97.252" r="29.15"/>
			<path style="fill:#480000;" d="M947.138,74.602c12.489,0,22.65,10.161,22.65,22.65c0,12.489-10.161,22.65-22.65,22.65
				c-12.489,0-22.65-10.161-22.65-22.65C924.489,84.763,934.649,74.602,947.138,74.602 M947.138,61.602
				c-19.689,0-35.65,15.961-35.65,35.65s15.961,35.65,35.65,35.65c19.689,0,35.65-15.961,35.65-35.65S966.827,61.602,947.138,61.602
				L947.138,61.602z"/>
		</g>
	</g>
	<g>
		<g>
			<path style="fill:#480000;" d="M947.138,1871.179c-16.073,0-29.15-13.076-29.15-29.149s13.077-29.15,29.15-29.15
				s29.15,13.077,29.15,29.15S963.212,1871.179,947.138,1871.179z"/>
			<path style="fill:#480000;" d="M947.138,1819.379c12.489,0,22.65,10.161,22.65,22.65c0,12.489-10.161,22.65-22.65,22.65
				c-12.489,0-22.65-10.161-22.65-22.65C924.489,1829.54,934.649,1819.379,947.138,1819.379 M947.138,1806.379
				c-19.689,0-35.65,15.961-35.65,35.65c0,19.689,15.961,35.65,35.65,35.65c19.689,0,35.65-15.961,35.65-35.65
				C982.788,1822.34,966.827,1806.379,947.138,1806.379L947.138,1806.379z"/>
		</g>
	</g>
	<g>
		<g>
			<rect x="942.638" y="90.947" style="fill:#480000;" width="9" height="1744.583"/>
			<polygon style="fill:#480000;" points="958.138,84.447 936.138,84.447 936.138,1842.029 958.138,1842.029 958.138,84.447 			"/>
		</g>
	</g>
	<g>
		<g>
			<path style="fill:#480000;" d="M947.129,845.52c-0.651,0-1.63-0.145-2.598-0.833c-0.98-0.697-1.63-1.733-1.83-2.919
				c-0.2-1.185,0.074-2.377,0.77-3.357L1292.915,347c22.984-32.327,45.968-64.652,68.962-96.972
				c52.966-74.445,107.021-112.192,160.665-112.192c11.755,0,23.689,1.832,35.471,5.444c10.214,3.132,62.001,21.365,78.461,72.834
				c8.28,25.894,6.057,53.664-6.102,76.188c-10.92,20.229-29.315,34.815-51.8,41.071c-7.53,2.095-15.357,3.157-23.265,3.158
				c-15.421,0-30.55-4.021-43.751-11.63c-17.811-10.265-30.837-26.553-35.737-44.686c-5.365-19.849-0.306-41.73,12.888-55.745
				c9.243-9.819,21.787-15.226,35.32-15.226c10.929,0,22.1,3.476,32.307,10.051c2.086,1.344,2.689,4.135,1.346,6.221
				c-0.833,1.292-2.252,2.063-3.795,2.063c-0.857,0-1.697-0.249-2.427-0.718c-8.751-5.639-18.602-8.745-27.736-8.745
				c-10.906,0-20.749,4.331-28.462,12.523c-11.1,11.791-15.32,30.328-10.752,47.228c4.284,15.852,15.781,30.153,31.543,39.237
				c11.771,6.785,25.417,10.371,39.466,10.371c7.088,0,14.033-0.932,20.644-2.771c20.397-5.676,36.405-18.358,46.292-36.675
				c11.003-20.384,12.989-45.596,5.449-69.172c-15.096-47.202-63.065-64.069-72.528-66.971c-10.964-3.363-22.046-5.068-32.937-5.068
				c-24.458,0-48.46,8.221-73.377,25.133c-26.415,17.929-53.28,45.954-79.849,83.296c-22.791,32.033-45.571,64.072-68.352,96.112
				l-350.054,492.27C949.95,844.831,948.61,845.52,947.129,845.52z"/>
			<path style="fill:#480000;" d="M1522.541,131.336c-55.919,0-111.586,38.499-165.96,114.924
				c-23.767,33.404-47.521,66.816-71.277,100.228L938.174,834.644c-3.521,4.951-2.361,11.819,2.59,15.34
				c1.934,1.375,4.16,2.036,6.365,2.036c3.44,0,6.829-1.609,8.974-4.626l347.13-488.158c23.755-33.41,47.509-66.82,71.273-100.222
				c26.118-36.709,52.429-64.192,78.203-81.686c23.644-16.048,46.676-24.012,69.727-24.012c10.321,0,20.649,1.598,31.031,4.782
				c8.92,2.735,54.133,18.617,68.242,62.736c7.005,21.902,5.19,45.267-4.978,64.104c-9.028,16.726-23.661,28.31-42.314,33.5
				c-6.11,1.7-12.495,2.533-18.901,2.533c-12.646,0-25.372-3.249-36.22-9.502c-14.283-8.232-24.676-21.099-28.515-35.302
				c-3.992-14.77-0.377-30.893,9.21-41.076c7.106-7.547,15.455-10.479,23.729-10.478c8.661,0.001,17.241,3.214,24.217,7.709
				c1.843,1.187,3.906,1.754,5.947,1.754c3.614,0,7.155-1.78,9.258-5.043c3.29-5.107,1.817-11.914-3.289-15.205
				c-11.531-7.429-23.92-11.088-35.827-11.088c-15.027,0-29.284,5.832-40.053,17.271c-14.707,15.622-20.371,39.917-14.431,61.896
				c5.347,19.782,19.477,37.504,38.767,48.622c14.315,8.251,30.626,12.498,46.997,12.498c8.407,0,16.832-1.121,25.007-3.395
				c24.202-6.734,44.011-22.447,55.777-44.246c12.993-24.071,15.389-53.688,6.573-81.255c-17.445-54.55-71.99-73.77-82.747-77.068
				C1547.451,133.243,1534.994,131.336,1522.541,131.336L1522.541,131.336z"/>
		</g>
	</g>
	<g>
		<g>
			<path style="fill:#480000;" d="M1435.914,2031.281c-13.998,0-28.677-1.059-44.217-2.18
				c-22.805-1.645-83.415-8.819-153.534-39.854c-23.592-10.44-67.501-29.873-112.861-69.608
				c-53.664-47.011-100.606-115.459-143.508-209.258c-26.525-57.994-39.768-113.406-39.36-164.698
				c0.019-2.462,2.037-4.464,4.498-4.464c2.519,0.02,4.521,2.055,4.502,4.535c-0.397,49.967,12.572,104.096,38.545,160.884
				c42.362,92.618,88.567,160.077,141.253,206.231c44.324,38.827,85.79,57.18,110.565,68.146
				c68.836,30.465,128.213,37.499,150.547,39.109c16.102,1.16,30.007,2.163,43.588,2.163c20.626,0,37.765-2.424,55.571-7.859
				c56.086-17.117,99.254-52.954,121.551-100.91c31.038-66.756,10.883-129.533,0.776-153.426
				c-24.56-58.053-82.432-117.118-156.357-118.21c-0.754-0.012-1.515-0.017-2.27-0.017c-58.209,0-121.368,33.456-129.454,97.399
				c-4.326,34.207,9.785,70.819,35.95,93.273c16.111,13.827,35.236,21.442,53.852,21.442c2.594,0,5.191-0.152,7.721-0.451
				c22.454-2.657,42.529-18.942,47.733-38.724c5.741-21.819-8.085-45.608-30.821-53.029c-2.359-0.77-3.652-3.314-2.883-5.673
				c0.607-1.859,2.324-3.108,4.274-3.108c0.47,0,0.939,0.076,1.396,0.225c27.652,9.023,43.787,37.081,36.737,63.876
				c-6.207,23.591-28.979,42.248-55.38,45.371c-2.86,0.338-5.798,0.51-8.729,0.51c-20.796,0.002-42.02-8.383-59.761-23.608
				c-28.835-24.745-43.785-63.535-39.019-101.232c4.126-32.628,21.316-60.055,49.712-79.314
				c24.681-16.738,56.168-25.956,88.664-25.956c0.805,0,1.61,0.006,2.416,0.017c77.975,1.153,138.81,62.961,164.508,123.703
				c10.574,24.999,31.653,90.704-0.904,160.728c-23.389,50.305-68.521,87.851-127.084,105.723
				C1475.45,2028.738,1457.496,2031.281,1435.914,2031.281z"/>
			<path style="fill:#480000;" d="M947.02,1534.72c-0.03,0-0.059,0-0.089,0c-6.034,0-10.95,4.867-10.998,10.912
				c-0.415,52.249,13.026,108.589,39.949,167.454c43.293,94.652,90.768,163.815,145.136,211.443
				c46.107,40.39,90.607,60.083,114.514,70.663c71.052,31.446,132.553,38.724,155.697,40.393
				c15.937,1.149,30.467,2.196,44.685,2.196c19.675,0,38.75-2.007,60.114-8.528c60.352-18.418,106.903-57.199,131.081-109.199
				c33.656-72.387,11.908-140.202,0.996-166c-26.521-62.687-89.495-126.474-170.403-127.67c-0.836-0.012-1.672-0.018-2.507-0.018
				c-33.806,0-66.466,9.548-92.312,27.077c-29.985,20.338-48.145,49.342-52.512,83.878c-5.038,39.838,10.762,80.83,41.233,106.98
				c18.96,16.271,41.814,25.176,63.987,25.176c0.001,0,0.006,0,0.008,0c3.183,0,6.354-0.184,9.493-0.555
				c28.988-3.43,54.032-24.061,60.902-50.172c7.925-30.121-10.085-61.619-41.003-71.708c-1.134-0.371-2.284-0.547-3.416-0.547
				c-4.63,0-8.939,2.95-10.453,7.592c-1.885,5.775,1.27,11.984,7.045,13.869c19.521,6.371,31.433,26.646,26.552,45.196
				c-4.552,17.301-22.305,31.566-42.211,33.922c-2.298,0.272-4.618,0.406-6.957,0.406c-16.923,0-34.661-7.037-49.619-19.875
				c-24.553-21.07-37.795-55.426-33.735-87.525c7.654-60.518,67.308-91.717,123.007-91.715c0.723,0,1.451,0.005,2.173,0.016
				c70.998,1.049,126.729,58.135,150.467,114.243c9.769,23.094,29.257,83.758-0.684,148.153
				c-21.509,46.26-63.257,80.862-117.555,97.434c-18.862,5.757-35.72,7.576-53.674,7.576c-13.346,0-27.3-1.006-43.12-2.146
				c-21.995-1.586-80.484-8.52-148.376-38.566c-24.437-10.815-65.338-28.916-108.921-67.095
				c-51.981-45.536-97.653-112.279-139.626-204.045c-25.576-55.918-38.346-109.12-37.957-158.129
				C957.98,1539.732,953.095,1534.768,947.02,1534.72L947.02,1534.72z"/>
		</g>
	</g>
	<g>
		<g>
			<path style="fill:#480000;" d="M1331.297,16.182l107.408,4.155L352.644,1508.921c-20.867,28.208-41.494,57.259-61.443,85.354
				c-15.678,22.081-31.891,44.914-48.076,67.133c-5.626,7.724-13.331,18.302-14.254,32.028
				c-1.773,26.376,21.038,47.273,59.531,54.535c40.871,7.71,84.76,11.62,130.448,11.62c141.143,0,281.681-35.68,417.719-70.753
				c-3.792,20.601-5.364,41.642-4.682,62.834c1.533,47.98,14.542,84.406,20.065,97.845c11.96,29.077,30.087,56.684,55.418,84.4
				c22.387,24.487,62.25,59.334,172.704,111.892c83.521,39.741,133.329,59.53,207.694,71.741
				c30.495,5.003,63.696,9.634,99.841,9.634c51.614,0,98.73-9.631,144.041-29.443c1.984-0.867,4.665-1.943,7.769-3.187
				c31.716-12.716,105.99-42.495,150.984-128.359c8.824-16.85,32.264-61.609,33.274-124.606
				c1.205-75.055-30.861-129.193-46.271-155.209l-0.277-0.469c-20.428-34.5-54.619-92.243-127.018-121.551
				c-28.22-11.42-58.518-17.21-90.05-17.21c-8.966,0-17.967,0.49-26.763,1.459c-13.796,1.528-27.404,4.23-40.716,8.076
				c3.121-6.545,6.696-12.967,10.709-19.236c9.862-15.403,22.159-29.564,36.55-42.088c28.765-25.035,64.604-42.11,100.915-48.081
				c11.718-1.927,23.806-2.904,35.931-2.904c34.482,0,69.326,7.605,103.563,22.604c32.667,14.311,63.694,35.208,89.725,60.432
				c24.357,23.603,44.998,51.411,61.349,82.654c15.959,30.494,27.408,63.412,34.029,97.84c6.621,34.427,8.198,69.244,4.688,103.483
				c-3.596,35.079-12.45,68.56-26.314,99.513c-14.082,31.443-33.292,61.325-57.096,88.815
				c-22.934,26.485-49.717,50.301-79.606,70.787c-87.689,60.091-190.441,90.559-305.402,90.559
				c-119.107,0-248.115-33.041-373.075-95.55c-65.622-32.833-119.659-66.197-165.203-102.001
				c-10.667-8.384-21.177-16.998-31.342-25.329c-39.176-32.109-76.179-62.438-125.238-83.99
				c-56.047-24.629-119.075-37.647-182.27-37.648c-50.152,0-99.222,7.929-145.843,23.566c-10.15,3.403-63.475,21.841-116.628,50.733
				c-60.003,32.615-95.71,65.72-106.129,98.397c-6.774,21.245-2.983,42.586,10.967,61.72c14.046,19.255,35.964,30.086,51.961,37.991
				c15.952,7.892,31.101,15.117,46.51,20.616c-18.118,5.782-35.335,7.511-54.476,9.433c-19.161,1.927-35.71,3.591-51.341,3.591
				c-21.549,0-38.838-3.315-56.056-10.75c-7.579-3.272-33.926-15.94-54.75-41.537c-10.287-12.647-18.237-27.368-23.63-43.753
				c-4.699-14.277-7.606-30.268-8.639-47.527c-1.932-32.287,2.832-62.678,6.313-84.886c15.18-96.836,66.817-168.396,108.309-225.896
				c11.682-16.193,24.123-32.088,36.977-47.242l0.4-0.472l0.363-0.502l1000.33-1383.35l23.488-32.482l-39.4,7.38
				c-15.198,2.847-30.369,6.208-45.086,9.988c-91.288,23.396-154.82,59.486-196.863,83.368
				c-77.995,44.318-131.238,88.734-170.114,121.164c-47.331,39.477-92.036,76.765-140.575,136.402
				c-8.704,10.704-17.17,21.679-25.304,32.802c-13.05-15.562-30.562-28.9-51.041-38.652c-29.184-13.903-60.631-19.87-91.042-25.641
				c-4.113-0.781-8.222-1.56-12.322-2.359c-51.381-10.001-93.229-22.863-127.935-39.32c-20.495-9.719-38.82-20.899-54.466-33.231
				c-16.932-13.346-31.328-28.514-42.787-45.084c-12.75-18.434-22.435-38.582-28.786-59.883c-6.052-20.3-9.122-41.771-9.126-63.818
				c-0.004-26.068,4.27-52.749,12.536-78.929c1.676,6.4,3.505,12.709,5.486,18.913c16.383,51.251,46.343,92.756,84.359,116.868
				c33.311,21.134,74.796,31.54,130.56,32.746c3.934,0.084,7.943,0.127,11.914,0.127c69.491,0,145.236-12.785,238.372-40.236
				c201.137-59.29,411.778-153.835,626.074-281.009C1288.606,43.007,1310.189,29.696,1331.297,16.182 M1326.889,0
				c-20.95,13.48-43.64,27.58-67.98,42.03c-193.36,114.75-406.57,215.79-622.43,279.42
				c-76.098,22.429-154.604,39.583-233.848,39.583c-3.855,0-7.714-0.041-11.572-0.123c-42.53-0.92-86.41-7.47-122.33-30.26
				c-38.28-24.28-63.89-65.06-77.69-108.23c-7.03-22.02-12.07-45.52-14.97-69.35c-43.6,83.55-50,185.41,6.46,267.04
				c51.77,74.86,145.95,106.85,235.29,124.24c33.82,6.59,68.43,11.92,99.54,26.74c23.75,11.31,45.58,29.31,57.67,52.22
				c11.29-16.43,23.91-33.43,37.97-50.72c47.54-58.41,91.16-94.8,138.41-134.21c42.1-35.12,92.57-76.81,167.77-119.54
				c44.45-25.25,105.49-59.37,192.93-81.78c15.73-4.04,30.5-7.22,44.06-9.76L155.838,1610.65c-9.44,11.13-22.83,27.55-37.75,48.23
				c-42.35,58.69-95.37,132.18-111.14,232.78c-6.99,44.59-20.07,127.98,29.35,188.74c24.43,30.03,55.4,43.79,60.82,46.13
				c21.192,9.15,41.107,12.061,62.398,12.061c16.425,0,33.672-1.734,52.942-3.671c28.38-2.85,51.78-5.42,79.69-18.87
				c7.93-3.82,15.12-7.99,21.59-12.27c-3.37-0.18-6.81-0.51-10.34-1c-27.34-3.81-52.74-15.93-77.48-28.17
				c-17.14-8.47-34.86-17.63-46.13-33.08c-62.11-85.19,152.17-168.89,203.95-186.25c45.274-15.186,93.056-22.737,140.757-22.737
				c60.515,0.001,120.897,12.155,175.833,36.296c59.89,26.31,102.77,67.67,153.13,107.25c51.81,40.73,108.99,74.24,167.93,103.73
				c117.177,58.615,249.795,97.241,380.234,97.241c109.875,0,218.203-27.407,314.447-93.361c60.93-41.76,112.07-98.85,142.26-166.26
				c59.34-132.48,27.03-300.5-77.22-401.52c-54.557-52.865-129.14-87.546-204.423-87.546c-12.851,0-25.731,1.012-38.527,3.116
				c-80.03,13.16-152.77,74.3-172.18,152.02c16.6-7.52,40.1-15.79,69.08-19c5.91-0.651,14.482-1.362,25-1.362
				c21.803,0,51.96,3.057,84.049,16.042c67.71,27.41,100.19,82.68,119.53,115.34c16.62,28.06,45.15,77.68,44.04,146.8
				c-0.93,58.03-22.28,99.93-31.45,117.44c-46.82,89.35-128.33,114.4-150.99,124.31c-48.717,21.301-94.904,28.102-137.63,28.102
				c-34.899,0-67.492-4.54-97.25-9.422c-75.03-12.32-125.04-33.11-203.41-70.4c-102.18-48.62-144.1-82.35-167.77-108.24
				c-31.01-33.93-44.89-61.36-52.43-79.69c-3.14-7.64-17.3-43.15-18.87-92.27c-1.16-36.04,4.91-65.55,10.24-84.4
				c-140.284,36.091-291.227,76.831-439.269,76.831c-42.839,0-85.465-3.416-127.482-11.343
				c-21.56-4.067-48.004-15.848-46.533-37.739c0.594-8.839,6.007-16.519,11.223-23.68c36.843-50.581,72.313-102.194,109.491-152.449
				L1469.329,5.51L1326.889,0L1326.889,0z"/>
		</g>
	</g>
</g>
</svg>
