<svg viewBox="0 0 1026 165" xmlns="http://www.w3.org/2000/svg" fill="#ed1f24">

    <path d="M 0 8 H 208 L 345 17 L 250 25 L 300 27 L 338 23 L 510 35 L 450 40 L 645 57 L 680 50 L 600 45 L 700 37 L 792 45 L 770 47 L 807 51 L 854 45 L 813 42 L 910 35 L 1013 43 L 920 50 L 970 55 L 805 67 L 936 79 L 880 85 L 975 93 L 918 98 L 983 103 L 823 115 L 890 120 L 798 127 L 807 129 L 566 148 L 490 143 L 535 140 L 460 133 L 400 137 L 460 143 L 330 153 L 376 158 L 290 165 H 0" />
    
    <path d="M 258 4 L 314 0 L 370 4 L 314 8" />
    <path d="M 366 17 L 476 9 L 586 17 L 476 25" />
    <path d="M 511 31 L 582 26 L 653 31 L 582 36" />
    <path d="M 868 67 L 947 61 L 1026 67 L 950 73" />
    <path d="M 502 158 L 586 152 L 670 158 L 586 164" />
    <path d="M 672 149 L 766 156 L 860 149 L 804 144 L 830 142 L 787 139" />
    
</svg>